  0
SECTION
  2
HEADER
  9
$ACADVER
  1
AC1014
  9
$ACADMAINTVER
 70
     9
  9
$DWGCODEPAGE
  3
ANSI_1252
  9
$INSBASE
 10
0.0
 20
0.0
 30
0.0
  9
$EXTMIN
 10
-3.102500000001785
 20
-3.102500000001784
 30
0.0
  9
$EXTMAX
 10
3.102500000001784
 20
3.102500000001785
 30
0.0
  9
$LIMMIN
 10
0.0
 20
0.0
  9
$LIMMAX
 10
12.0
 20
9.0
  9
$ORTHOMODE
 70
     0
  9
$REGENMODE
 70
     1
  9
$FILLMODE
 70
     1
  9
$QTEXTMODE
 70
     0
  9
$MIRRTEXT
 70
     1
  9
$DRAGMODE
 70
     2
  9
$LTSCALE
 40
1.0
  9
$OSMODE
 70
 13311
  9
$ATTMODE
 70
     1
  9
$TEXTSIZE
 40
0.1377952756
  9
$TRACEWID
 40
0.05
  9
$TEXTSTYLE
  7
STANDARD
  9
$CLAYER
  8
LAYER1
  9
$CELTYPE
  6
BYLAYER
  9
$CECOLOR
 62
   256
  9
$CELTSCALE
 40
1.0
  9
$DELOBJ
 70
     1
  9
$DISPSILH
 70
     0
  9
$DIMSCALE
 40
1.0
  9
$DIMASZ
 40
0.13
  9
$DIMEXO
 40
0.0393700787
  9
$DIMDLI
 40
0.38
  9
$DIMRND
 40
0.0
  9
$DIMDLE
 40
0.0
  9
$DIMEXE
 40
0.0393700787
  9
$DIMTP
 40
0.0
  9
$DIMTM
 40
0.0
  9
$DIMTXT
 40
0.1377952756
  9
$DIMCEN
 40
0.09
  9
$DIMTSZ
 40
0.0
  9
$DIMTOL
 70
     0
  9
$DIMLIM
 70
     0
  9
$DIMTIH
 70
     1
  9
$DIMTOH
 70
     1
  9
$DIMSE1
 70
     0
  9
$DIMSE2
 70
     0
  9
$DIMTAD
 70
     1
  9
$DIMZIN
 70
     0
  9
$DIMBLK
  1

  9
$DIMASO
 70
     1
  9
$DIMSHO
 70
     1
  9
$DIMPOST
  1

  9
$DIMAPOST
  1

  9
$DIMALT
 70
     0
  9
$DIMALTD
 70
     2
  9
$DIMALTF
 40
25.4
  9
$DIMLFAC
 40
1.0
  9
$DIMTOFL
 70
     0
  9
$DIMTVP
 40
0.0
  9
$DIMTIX
 70
     0
  9
$DIMSOXD
 70
     0
  9
$DIMSAH
 70
     0
  9
$DIMBLK1
  1

  9
$DIMBLK2
  1

  9
$DIMSTYLE
  2
STANDARD
  9
$DIMCLRD
 70
     0
  9
$DIMCLRE
 70
     0
  9
$DIMCLRT
 70
     0
  9
$DIMTFAC
 40
1.0
  9
$DIMGAP
 40
0.06
  9
$DIMJUST
 70
     0
  9
$DIMSD1
 70
     0
  9
$DIMSD2
 70
     0
  9
$DIMTOLJ
 70
     1
  9
$DIMTZIN
 70
     0
  9
$DIMALTZ
 70
     0
  9
$DIMALTTZ
 70
     0
  9
$DIMFIT
 70
     5
  9
$DIMUPT
 70
     0
  9
$DIMUNIT
 70
     2
  9
$DIMDEC
 70
     4
  9
$DIMTDEC
 70
     4
  9
$DIMALTU
 70
     2
  9
$DIMALTTD
 70
     2
  9
$DIMTXSTY
  7
STANDARD
  9
$DIMAUNIT
 70
     0
  9
$LUNITS
 70
     2
  9
$LUPREC
 70
     4
  9
$SKETCHINC
 40
0.1
  9
$FILLETRAD
 40
0.5
  9
$AUNITS
 70
     0
  9
$AUPREC
 70
     2
  9
$MENU
  1
.
  9
$ELEVATION
 40
0.0
  9
$PELEVATION
 40
0.0
  9
$THICKNESS
 40
0.0
  9
$LIMCHECK
 70
     0
  9
$CHAMFERA
 40
0.5
  9
$CHAMFERB
 40
0.5
  9
$CHAMFERC
 40
0.0
  9
$CHAMFERD
 40
0.0
  9
$SKPOLY
 70
     0
  9
$TDCREATE
 40
2458486.485747025
  9
$TDUPDATE
 40
2458554.623885683
  9
$TDINDWG
 40
0.013644213
  9
$TDUSRTIMER
 40
2458554.915362581
  9
$USRTIMER
 70
     1
  9
$ANGBASE
 50
0.0
  9
$ANGDIR
 70
     0
  9
$PDMODE
 70
     0
  9
$PDSIZE
 40
-1.0
  9
$PLINEWID
 40
0.0
  9
$COORDS
 70
     1
  9
$SPLFRAME
 70
     0
  9
$SPLINETYPE
 70
     6
  9
$SPLINESEGS
 70
     8
  9
$ATTDIA
 70
     0
  9
$ATTREQ
 70
     1
  9
$HANDLING
 70
     1
  9
$HANDSEED
  5
B36
  9
$SURFTAB1
 70
     6
  9
$SURFTAB2
 70
     6
  9
$SURFTYPE
 70
     6
  9
$SURFU
 70
     6
  9
$SURFV
 70
     6
  9
$UCSNAME
  2

  9
$UCSORG
 10
0.0
 20
0.0
 30
0.0
  9
$UCSXDIR
 10
1.0
 20
0.0
 30
0.0
  9
$UCSYDIR
 10
0.0
 20
1.0
 30
0.0
  9
$PUCSNAME
  2

  9
$PUCSORG
 10
0.0
 20
0.0
 30
0.0
  9
$PUCSXDIR
 10
1.0
 20
0.0
 30
0.0
  9
$PUCSYDIR
 10
0.0
 20
1.0
 30
0.0
  9
$USERI1
 70
     0
  9
$USERI2
 70
     0
  9
$USERI3
 70
     0
  9
$USERI4
 70
     0
  9
$USERI5
 70
     0
  9
$USERR1
 40
0.0
  9
$USERR2
 40
0.0
  9
$USERR3
 40
0.0
  9
$USERR4
 40
0.0
  9
$USERR5
 40
0.0
  9
$WORLDVIEW
 70
     1
  9
$SHADEDGE
 70
     3
  9
$SHADEDIF
 70
    70
  9
$TILEMODE
 70
     1
  9
$MAXACTVP
 70
    64
  9
$PINSBASE
 10
0.0
 20
0.0
 30
0.0
  9
$PLIMCHECK
 70
     0
  9
$PEXTMIN
 10
1.000000000000000E+20
 20
1.000000000000000E+20
 30
1.000000000000000E+20
  9
$PEXTMAX
 10
-1.000000000000000E+20
 20
-1.000000000000000E+20
 30
-1.000000000000000E+20
  9
$PLIMMIN
 10
0.0
 20
0.0
  9
$PLIMMAX
 10
0.0
 20
0.0
  9
$UNITMODE
 70
     0
  9
$VISRETAIN
 70
     1
  9
$PLINEGEN
 70
     0
  9
$PSLTSCALE
 70
     1
  9
$TREEDEPTH
 70
  3020
  9
$PICKSTYLE
 70
     0
  9
$CMLSTYLE
  2
STANDARD
  9
$CMLJUST
 70
     0
  9
$CMLSCALE
 40
1.0
  9
$PROXYGRAPHICS
 70
     1
  9
$MEASUREMENT
 70
     0
  0
ENDSEC
  0
SECTION
  2
CLASSES
  0
CLASS
  1
ACDBDICTIONARYWDFLT
  2
AcDbDictionaryWithDefault
  3
ObjectDBX Classes
 90
        0
280
     0
281
     0
  0
CLASS
  1
MATERIAL
  2
AcDbMaterial
  3
ObjectDBX Classes
 90
     1153
280
     0
281
     0
  0
CLASS
  1
SCALE
  2
AcDbScale
  3
ObjectDBX Classes
 90
     1153
280
     0
281
     0
  0
CLASS
  1
VISUALSTYLE
  2
AcDbVisualStyle
  3
ObjectDBX Classes
 90
     4095
280
     0
281
     0
  0
CLASS
  1
TABLESTYLE
  2
AcDbTableStyle
  3
ObjectDBX Classes
 90
     4095
280
     0
281
     0
  0
CLASS
  1
MLEADERSTYLE
  2
AcDbMLeaderStyle
  3
ACDB_MLEADERSTYLE_CLASS
 90
     4095
280
     0
281
     0
  0
CLASS
  1
SUN
  2
AcDbSun
  3
SCENEOE
 90
     1153
280
     0
281
     0
  0
CLASS
  1
RASTERVARIABLES
  2
AcDbRasterVariables
  3
ISM
 90
        0
280
     0
281
     0
  0
CLASS
  1
DICTIONARYVAR
  2
AcDbDictionaryVar
  3
ObjectDBX Classes
 90
        0
280
     0
281
     0
  0
CLASS
  1
XRECORD
  2
AcDbXrecord
  3
ObjectDBX Classes
 90
        0
280
     0
281
     0
  0
CLASS
  1
LWPOLYLINE
  2
AcDbPolyline
  3
ObjectDBX Classes
 90
        0
280
     0
281
     1
  0
CLASS
  1
HATCH
  2
AcDbHatch
  3
ObjectDBX Classes
 90
        0
280
     0
281
     1
  0
ENDSEC
  0
SECTION
  2
TABLES
  0
TABLE
  2
VPORT
  5
89A
330
0
100
AcDbSymbolTable
 70
     1
  0
VPORT
  5
8B1
330
89A
100
AcDbSymbolTableRecord
100
AcDbViewportTableRecord
  2
*ACTIVE
 70
     0
 10
0.0
 20
0.0
 11
1.0
 21
1.0
 12
1.67833761989677
 22
-0.9105472348819594
 13
0.0
 23
0.0
 14
0.5
 24
0.5
 15
0.5
 25
0.5
 16
0.0
 26
0.0
 36
1.0
 17
0.0
 27
0.0
 37
0.0
 40
9.078996142483373
 41
1.727785613540197
 42
50.0
 43
0.0
 44
0.0
 50
0.0
 51
0.0
 71
    16
 72
   100
 73
     1
 74
     3
 75
     0
 76
     0
 77
     0
 78
     0
  0
ENDTAB
  0
TABLE
  2
LTYPE
  5
897
330
0
100
AcDbSymbolTable
 70
     6
  0
LTYPE
  5
8A5
330
897
100
AcDbSymbolTableRecord
100
AcDbLinetypeTableRecord
  2
BYBLOCK
 70
     0
  3

 72
    65
 73
     0
 40
0.0
  0
LTYPE
  5
8A6
330
897
100
AcDbSymbolTableRecord
100
AcDbLinetypeTableRecord
  2
BYLAYER
 70
     0
  3

 72
    65
 73
     0
 40
0.0
  0
LTYPE
  5
8A7
330
897
100
AcDbSymbolTableRecord
100
AcDbLinetypeTableRecord
  2
CONTINUOUS
 70
     0
  3
Solid line
 72
    65
 73
     0
 40
0.0
  0
LTYPE
  5
8B3
330
897
100
AcDbSymbolTableRecord
100
AcDbLinetypeTableRecord
  2
HIDDEN
 70
     0
  3
Hidden __ __ __ __ __ __ __ __ __ __ __ __ __ __
 72
    65
 73
     2
 40
0.075
 49
0.05
 74
     0
 49
-0.025
 74
     0
  0
LTYPE
  5
8B4
330
897
100
AcDbSymbolTableRecord
100
AcDbLinetypeTableRecord
  2
PHANTOM
 70
     0
  3
Phantom ______  __  __  ______  __  __  ______
 72
    65
 73
     6
 40
0.5
 49
0.25
 74
     0
 49
-0.05
 74
     0
 49
0.05
 74
     0
 49
-0.05
 74
     0
 49
0.05
 74
     0
 49
-0.05
 74
     0
  0
LTYPE
  5
8B5
330
897
100
AcDbSymbolTableRecord
100
AcDbLinetypeTableRecord
  2
CENTER
 70
     0
  3
Center ____ _ ____ _ ____ _ ____ _ ____ _ ____
 72
    65
 73
     4
 40
0.4
 49
0.25
 74
     0
 49
-0.05
 74
     0
 49
0.05
 74
     0
 49
-0.05
 74
     0
  0
LTYPE
  5
8B6
330
897
100
AcDbSymbolTableRecord
100
AcDbLinetypeTableRecord
  2
CENTERX2
 70
     0
  3
Center (2x) ________  __  ________  __  _____
 72
    65
 73
     4
 40
0.8
 49
0.5
 74
     0
 49
-0.1
 74
     0
 49
0.1
 74
     0
 49
-0.1
 74
     0
  0
LTYPE
  5
8B7
330
897
100
AcDbSymbolTableRecord
100
AcDbLinetypeTableRecord
  2
DOT2
 70
     0
  3
Dot (.5x) ........................................
 72
    65
 73
     2
 40
0.025
 49
0.0
 74
     0
 49
-0.025
 74
     0
  0
ENDTAB
  0
TABLE
  2
LAYER
  5
894
102
{ACAD_XDICTIONARY
360
913
102
}
330
0
100
AcDbSymbolTable
 70
     4
  0
LAYER
  5
8A2
330
894
100
AcDbSymbolTableRecord
100
AcDbLayerTableRecord
  2
0
 70
     0
 62
     7
  6
CONTINUOUS
  0
LAYER
  5
916
330
894
100
AcDbSymbolTableRecord
100
AcDbLayerTableRecord
  2
LAYER1
 70
     0
 62
     1
  6
CONTINUOUS
1001
ACAECLAYERSTANDARD
1000

1000

  0
LAYER
  5
91C
330
894
100
AcDbSymbolTableRecord
100
AcDbLayerTableRecord
  2
LAYER2
 70
     0
 62
     4
  6
CONTINUOUS
1001
ACAECLAYERSTANDARD
1000

1000

  0
LAYER
  5
922
330
894
100
AcDbSymbolTableRecord
100
AcDbLayerTableRecord
  2
LAYER3
 70
     0
 62
     3
  6
CONTINUOUS
1001
ACAECLAYERSTANDARD
1000

1000

  0
ENDTAB
  0
TABLE
  2
STYLE
  5
895
330
0
100
AcDbSymbolTable
 70
     1
  0
STYLE
  5
8A3
330
895
100
AcDbSymbolTableRecord
100
AcDbTextStyleTableRecord
  2
STANDARD
 70
     0
 40
0.0
 41
1.0
 50
0.0
 71
     0
 42
0.1377952756
  3
txt
  4

  0
ENDTAB
  0
TABLE
  2
VIEW
  5
898
330
0
100
AcDbSymbolTable
 70
     0
  0
ENDTAB
  0
TABLE
  2
UCS
  5
899
330
0
100
AcDbSymbolTable
 70
     0
  0
ENDTAB
  0
TABLE
  2
APPID
  5
89B
330
0
100
AcDbSymbolTable
 70
     2
  0
APPID
  5
8A4
330
89B
100
AcDbSymbolTableRecord
100
AcDbRegAppTableRecord
  2
ACAD
 70
     0
  0
APPID
  5
917
330
89B
100
AcDbSymbolTableRecord
100
AcDbRegAppTableRecord
  2
ACAECLAYERSTANDARD
 70
     0
  0
ENDTAB
  0
TABLE
  2
DIMSTYLE
  5
89C
330
0
100
AcDbSymbolTable
 70
     1
  0
DIMSTYLE
105
8BF
330
89C
100
AcDbSymbolTableRecord
100
AcDbDimStyleTableRecord
  2
STANDARD
 70
     0
  3

  4

  5

  6

  7

 40
1.0
 41
0.18
 42
0.0625
 43
0.38
 44
0.18
 45
0.0
 46
0.0
 47
0.0
 48
0.0
140
0.18
141
0.09
142
0.0
143
25.4
144
1.0
145
0.0
146
1.0
147
0.09
 71
     0
 72
     0
 73
     1
 74
     1
 75
     0
 76
     0
 77
     0
 78
     0
170
     0
171
     2
172
     0
173
     0
174
     0
175
     0
176
     0
177
     0
178
     0
270
     2
271
     4
272
     4
273
     2
274
     2
340
8A3
275
     0
280
     0
281
     0
282
     0
283
     1
284
     0
285
     0
286
     0
287
     3
288
     0
  0
ENDTAB
  0
TABLE
  2
BLOCK_RECORD
  5
893
330
0
100
AcDbSymbolTable
 70
     0
  0
BLOCK_RECORD
  5
8AE
330
893
100
AcDbSymbolTableRecord
100
AcDbBlockTableRecord
  2
*MODEL_SPACE
  0
BLOCK_RECORD
  5
8AC
330
893
100
AcDbSymbolTableRecord
100
AcDbBlockTableRecord
  2
*PAPER_SPACE
  0
ENDTAB
  0
ENDSEC
  0
SECTION
  2
BLOCKS
  0
BLOCK
  5
8C0
330
8AE
100
AcDbEntity
  8
0
100
AcDbBlockBegin
  2
*MODEL_SPACE
 70
     0
 10
0.0
 20
0.0
 30
0.0
  3
*MODEL_SPACE
  1

  0
ENDBLK
  5
21
330
8AE
100
AcDbEntity
  8
0
100
AcDbBlockEnd
  0
BLOCK
  5
8C1
330
8AC
100
AcDbEntity
 67
     1
  8
0
100
AcDbBlockBegin
  2
*PAPER_SPACE
 70
     0
 10
0.0
 20
0.0
 30
0.0
  3
*PAPER_SPACE
  1

  0
ENDBLK
  5
1D
330
8AC
100
AcDbEntity
 67
     1
  8
0
100
AcDbBlockEnd
  0
ENDSEC
  0
SECTION
  2
ENTITIES
  0
ARC
  5
607
330
8AE
100
AcDbEntity
  8
LAYER2
  6
CONTINUOUS
100
AcDbCircle
 10
0.1461346197999996
 20
-3.0785335264
 30
0.0
 40
0.0240000000000008
100
AcDbArc
 50
104.9999999999995
 51
163.5000000000006
  0
LINE
  5
60A
330
8AE
100
AcDbEntity
  8
LAYER2
  6
CONTINUOUS
100
AcDbLine
 10
0.1399229627262952
 20
-3.055351306493047
 30
0.0
 11
0.1492421251594738
 21
-3.052854244462277
 31
0.0
  0
LINE
  5
60D
330
8AE
100
AcDbEntity
  8
LAYER2
  6
CONTINUOUS
100
AcDbLine
 10
0.1176619976385846
 20
-3.090153011503035
 30
0.0
 11
0.1231229461582095
 21
-3.071717158129007
 31
0.0
  0
ARC
  5
60E
330
8AE
100
AcDbEntity
  8
LAYER2
  6
CONTINUOUS
100
AcDbCircle
 10
0.1033163701756775
 20
-3.085770891845211
 30
0.0
 40
0.015
100
AcDbArc
 50
271.9547064116
 51
343.0138032664526
  0
ARC
  5
60F
330
8AE
100
AcDbEntity
  8
LAYER2
  6
CONTINUOUS
100
AcDbCircle
 10
-0.1033163701756783
 20
-3.085770891845211
 30
0.0
 40
0.015
100
AcDbArc
 50
196.9861967335475
 51
268.0452935883999
  0
LINE
  5
610
330
8AE
100
AcDbEntity
  8
LAYER2
  6
CONTINUOUS
100
AcDbLine
 10
-0.1176619976385854
 20
-3.090153011503035
 30
0.0
 11
-0.1231229461582103
 21
-3.071717158129007
 31
0.0
  0
LINE
  5
615
330
8AE
100
AcDbEntity
  8
LAYER2
  6
CONTINUOUS
100
AcDbLine
 10
-0.139922962726296
 20
-3.055351306493047
 30
0.0
 11
-0.1492421251594745
 21
-3.052854244462277
 31
0.0
  0
ARC
  5
616
330
8AE
100
AcDbEntity
  8
LAYER2
  6
CONTINUOUS
100
AcDbCircle
 10
-0.1461346198000004
 20
-3.0785335264
 30
0.0
 40
0.0240000000000008
100
AcDbArc
 50
16.49999999999936
 51
75.00000000000055
  0
ARC
  5
617
330
8AE
100
AcDbEntity
  8
LAYER2
  6
CONTINUOUS
100
AcDbCircle
 10
0.0
 20
0.0
 30
0.0
 40
3.102500000001785
100
AcDbArc
 50
268.0821860225666
 51
271.9178139774334
  0
ARC
  5
7E2
330
8AE
100
AcDbEntity
  8
LAYER2
  6
CONTINUOUS
100
AcDbCircle
 10
0.0
 20
0.0
 30
0.0
 40
3.056499999976028
100
AcDbArc
 50
266.25
 51
267.20126113517
  0
ARC
  5
7E4
330
8AE
100
AcDbEntity
  8
LAYER2
  6
CONTINUOUS
100
AcDbCircle
 10
0.0
 20
0.0
 30
0.0
 40
3.056499999976028
100
AcDbArc
 50
272.7987388648299
 51
273.7499999999999
  0
ARC
  5
930
330
8AE
100
AcDbEntity
  8
LAYER2
  6
CONTINUOUS
100
AcDbCircle
 10
0.5467136766922848
 20
-3.033121849842257
 30
0.0
 40
0.0240000000000008
100
AcDbArc
 50
112.5000000000003
 51
171.0000000000014
  0
LINE
  5
931
330
8AE
100
AcDbEntity
  8
LAYER2
  6
CONTINUOUS
100
AcDbLine
 10
0.5375292743142818
 20
-3.010948740985477
 30
0.0
 11
0.5464427780223509
 21
-3.007256646879456
 31
0.0
  0
LINE
  5
932
330
8AE
100
AcDbEntity
  8
LAYER2
  6
CONTINUOUS
100
AcDbLine
 10
0.5200012889065685
 20
-3.04835835159272
 30
0.0
 11
0.5230091565133383
 21
-3.029367422683823
 31
0.0
  0
ARC
  5
933
330
8AE
100
AcDbEntity
  8
LAYER2
  6
CONTINUOUS
100
AcDbCircle
 10
0.5052064088824979
 20
-3.045886201703786
 30
0.0
 40
0.015
100
AcDbArc
 50
279.4547064116003
 51
350.513803266453
  0
ARC
  5
934
330
8AE
100
AcDbEntity
  8
LAYER2
  6
CONTINUOUS
100
AcDbCircle
 10
0.3003414402695573
 20
-3.072857186489844
 30
0.0
 40
0.015
100
AcDbArc
 50
204.4861967335458
 51
275.5452935884002
  0
LINE
  5
935
330
8AE
100
AcDbEntity
  8
LAYER2
  6
CONTINUOUS
100
AcDbLine
 10
0.2866905230310635
 20
-3.079074296634258
 30
0.0
 11
0.2788699319418153
 21
-3.061508961357714
 31
0.0
  0
LINE
  5
936
330
8AE
100
AcDbEntity
  8
LAYER2
  6
CONTINUOUS
100
AcDbLine
 10
0.2600774695479118
 20
-3.047475964043101
 30
0.0
 11
0.2505121018426154
 21
-3.046216659511245
 31
0.0
  0
ARC
  5
937
330
8AE
100
AcDbEntity
  8
LAYER2
  6
CONTINUOUS
100
AcDbCircle
 10
0.2569448409532338
 20
-3.071270640790295
 30
0.0
 40
0.0240000000000008
100
AcDbArc
 50
24.00000000000006
 51
82.50000000000058
  0
ARC
  5
938
330
8AE
100
AcDbEntity
  8
LAYER2
  6
CONTINUOUS
100
AcDbCircle
 10
0.0
 20
0.0
 30
0.0
 40
3.102500000001784
100
AcDbArc
 50
275.5821860225666
 51
279.4178139774334
  0
ARC
  5
939
330
8AE
100
AcDbEntity
  8
LAYER2
  6
CONTINUOUS
100
AcDbCircle
 10
0.0
 20
0.0
 30
0.0
 40
3.056499999976027
100
AcDbArc
 50
280.2987388648299
 51
281.2499999999999
  0
ARC
  5
93A
330
8AE
100
AcDbEntity
  8
LAYER2
  6
CONTINUOUS
100
AcDbCircle
 10
0.0
 20
0.0
 30
0.0
 40
3.056499999976027
100
AcDbArc
 50
273.75
 51
274.70126113517
  0
ARC
  5
93B
330
8AE
100
AcDbEntity
  8
LAYER2
  6
CONTINUOUS
100
AcDbCircle
 10
0.9379383109986974
 20
-2.935812617493464
 30
0.0
 40
0.0240000000000008
100
AcDbArc
 50
119.9999999999988
 51
178.5000000000005
  0
LINE
  5
93C
330
8AE
100
AcDbEntity
  8
LAYER2
  6
CONTINUOUS
100
AcDbLine
 10
0.9259383109874808
 20
-2.915028007726945
 30
0.0
 11
0.9342936434507052
 21
-2.910204054299468
 31
0.0
  0
LINE
  5
93D
330
8AE
100
AcDbEntity
  8
LAYER2
  6
CONTINUOUS
100
AcDbLine
 10
0.9134432139497666
 20
-2.954405435122048
 30
0.0
 11
0.9139465351949911
 21
-2.935184370737193
 31
0.0
  0
ARC
  5
93E
330
8AE
100
AcDbEntity
  8
LAYER2
  6
CONTINUOUS
100
AcDbCircle
 10
0.8984522258636599
 20
-2.953885554172013
 30
0.0
 40
0.015
100
AcDbArc
 50
286.9547064115999
 51
358.0138032664525
  0
ARC
  5
93F
330
8AE
100
AcDbEntity
  8
LAYER2
  6
CONTINUOUS
100
AcDbCircle
 10
0.6988603254014021
 20
-3.007366042716668
 30
0.0
 40
0.015
100
AcDbArc
 50
211.9861967335487
 51
283.0452935883996
  0
LINE
  5
940
330
8AE
100
AcDbEntity
  8
LAYER2
  6
CONTINUOUS
100
AcDbLine
 10
0.6861376893660213
 20
-3.015311766869395
 30
0.0
 11
0.6760912681889645
 21
-2.998917497446946
 31
0.0
  0
LINE
  5
941
330
8AE
100
AcDbEntity
  8
LAYER2
  6
CONTINUOUS
100
AcDbLine
 10
0.6556279042110577
 20
-2.987457462928416
 30
0.0
 11
0.6459799973271021
 21
-2.98745746294516
 31
0.0
  0
ARC
  5
942
330
8AE
100
AcDbEntity
  8
LAYER2
  6
CONTINUOUS
100
AcDbCircle
 10
0.6556279042391897
 20
-3.011457462999576
 30
0.0
 40
0.0240000000000008
100
AcDbArc
 50
31.49999999999958
 51
90.00000000000054
  0
ARC
  5
943
330
8AE
100
AcDbEntity
  8
LAYER2
  6
CONTINUOUS
100
AcDbCircle
 10
0.0
 20
0.0
 30
0.0
 40
3.102500000001784
100
AcDbArc
 50
283.0821860225666
 51
286.9178139774334
  0
ARC
  5
944
330
8AE
100
AcDbEntity
  8
LAYER2
  6
CONTINUOUS
100
AcDbCircle
 10
0.0
 20
0.0
 30
0.0
 40
3.056499999976027
100
AcDbArc
 50
287.7987388648299
 51
288.7499999999999
  0
ARC
  5
945
330
8AE
100
AcDbEntity
  8
LAYER2
  6
CONTINUOUS
100
AcDbCircle
 10
0.0
 20
0.0
 30
0.0
 40
3.056499999976027
100
AcDbArc
 50
281.2499999999999
 51
282.20126113517
  0
ARC
  5
946
330
8AE
100
AcDbEntity
  8
LAYER2
  6
CONTINUOUS
100
AcDbCircle
 10
1.313114560758294
 20
-2.788270817298324
 30
0.0
 40
0.0240000000000008
100
AcDbArc
 50
127.4999999999991
 51
186.0000000000011
  0
LINE
  5
947
330
8AE
100
AcDbEntity
  8
LAYER2
  6
CONTINUOUS
100
AcDbLine
 10
1.298504286441085
 20
-2.769230337057754
 30
0.0
 11
1.306158485604483
 21
-2.763357063489418
 31
0.0
  0
LINE
  5
948
330
8AE
100
AcDbEntity
  8
LAYER2
  6
CONTINUOUS
100
AcDbLine
 10
1.29125587234798
 20
-2.809901822540502
 30
0.0
 11
1.289246035265607
 21
-2.790779500420399
 31
0.0
  0
ARC
  5
949
330
8AE
100
AcDbEntity
  8
LAYER2
  6
CONTINUOUS
100
AcDbCircle
 10
1.276325276162277
 20
-2.811343105836559
 30
0.0
 40
0.015
100
AcDbArc
 50
294.4547064116003
 51
5.513803266452753
  0
ARC
  5
94A
330
8AE
100
AcDbEntity
  8
LAYER2
  6
CONTINUOUS
100
AcDbCircle
 10
1.085421516604941
 20
-2.890418032153221
 30
0.0
 40
0.015
100
AcDbArc
 50
219.4861967335475
 51
290.5452935883997
  0
LINE
  5
94B
330
8AE
100
AcDbEntity
  8
LAYER2
  6
CONTINUOUS
100
AcDbLine
 10
1.07384484960262
 20
-2.899956416771035
 30
0.0
 11
1.061744495389488
 21
-2.885013723697851
 31
0.0
  0
LINE
  5
94C
330
8AE
100
AcDbEntity
  8
LAYER2
  6
CONTINUOUS
100
AcDbLine
 10
1.039960363658756
 20
-2.876322736343337
 30
0.0
 11
1.030394995957831
 21
-2.877582040908394
 31
0.0
  0
ARC
  5
94D
330
8AE
100
AcDbEntity
  8
LAYER2
  6
CONTINUOUS
100
AcDbCircle
 10
1.043092992309217
 20
-2.900117413083187
 30
0.0
 40
0.0240000000000008
100
AcDbArc
 50
38.99999999999927
 51
97.50000000000114
  0
ARC
  5
94E
330
8AE
100
AcDbEntity
  8
LAYER2
  6
CONTINUOUS
100
AcDbCircle
 10
0.0
 20
0.0
 30
0.0
 40
3.102500000001785
100
AcDbArc
 50
290.5821860225665
 51
294.4178139774334
  0
ARC
  5
94F
330
8AE
100
AcDbEntity
  8
LAYER2
  6
CONTINUOUS
100
AcDbCircle
 10
0.0
 20
0.0
 30
0.0
 40
3.056499999976028
100
AcDbArc
 50
295.2987388648299
 51
296.2499999999999
  0
ARC
  5
950
330
8AE
100
AcDbEntity
  8
LAYER2
  6
CONTINUOUS
100
AcDbCircle
 10
0.0
 20
0.0
 30
0.0
 40
3.056499999976028
100
AcDbArc
 50
288.7499999999999
 51
289.70126113517
  0
ARC
  5
951
330
8AE
100
AcDbEntity
  8
LAYER2
  6
CONTINUOUS
100
AcDbCircle
 10
1.66582305631918
 20
-2.593020930364492
 30
0.0
 40
0.0240000000000008
100
AcDbArc
 50
135.0
 51
193.5000000000007
  0
LINE
  5
952
330
8AE
100
AcDbEntity
  8
LAYER2
  6
CONTINUOUS
100
AcDbLine
 10
1.648852493540278
 20
-2.576050367545806
 30
0.0
 11
1.655674593934019
 21
-2.569228267175744
 31
0.0
  0
LINE
  5
953
330
8AE
100
AcDbEntity
  8
LAYER2
  6
CONTINUOUS
100
AcDbLine
 10
1.646974784766556
 20
-2.617320010723323
 30
0.0
 11
1.642486178226296
 21
-2.598623619101157
 31
0.0
  0
ARC
  5
954
330
8AE
100
AcDbEntity
  8
LAYER2
  6
CONTINUOUS
100
AcDbCircle
 10
1.632360047121539
 20
-2.620697797508678
 30
0.0
 40
0.015
100
AcDbArc
 50
301.9547064116002
 51
13.01380326645441
  0
ARC
  5
955
330
8AE
100
AcDbEntity
  8
LAYER2
  6
CONTINUOUS
100
AcDbCircle
 10
1.453410844723671
 20
-2.724014167684356
 30
0.0
 40
0.015
100
AcDbArc
 50
226.9861967335463
 51
298.0452935883998
  0
LINE
  5
956
330
8AE
100
AcDbEntity
  8
LAYER2
  6
CONTINUOUS
100
AcDbLine
 10
1.443178226736478
 20
-2.734982008361908
 30
0.0
 11
1.429230979902709
 21
-2.721746565259367
 31
0.0
  0
LINE
  5
957
330
8AE
100
AcDbEntity
  8
LAYER2
  6
CONTINUOUS
100
AcDbLine
 10
1.406498812952768
 20
-2.715973330272102
 30
0.0
 11
1.397179650528257
 21
-2.718470392335218
 31
0.0
  0
ARC
  5
958
330
8AE
100
AcDbEntity
  8
LAYER2
  6
CONTINUOUS
100
AcDbCircle
 10
1.412710470080819
 20
-2.739155550164492
 30
0.0
 40
0.0240000000000008
100
AcDbArc
 50
46.49999999999878
 51
105.0000000000002
  0
ARC
  5
959
330
8AE
100
AcDbEntity
  8
LAYER2
  6
CONTINUOUS
100
AcDbCircle
 10
0.0
 20
0.0
 30
0.0
 40
3.102500000001785
100
AcDbArc
 50
298.0821860225665
 51
301.9178139774333
  0
ARC
  5
95A
330
8AE
100
AcDbEntity
  8
LAYER2
  6
CONTINUOUS
100
AcDbCircle
 10
0.0
 20
0.0
 30
0.0
 40
3.056499999976028
100
AcDbArc
 50
302.7987388648299
 51
303.7499999999999
  0
ARC
  5
95B
330
8AE
100
AcDbEntity
  8
LAYER2
  6
CONTINUOUS
100
AcDbCircle
 10
0.0
 20
0.0
 30
0.0
 40
3.056499999976028
100
AcDbArc
 50
296.2499999999999
 51
297.20126113517
  0
ARC
  5
95C
330
8AE
100
AcDbEntity
  8
LAYER2
  6
CONTINUOUS
100
AcDbCircle
 10
1.990028857533039
 20
-2.353403736390902
 30
0.0
 40
0.0240000000000008
100
AcDbArc
 50
142.4999999999994
 51
201.0000000000006
  0
LINE
  5
95D
330
8AE
100
AcDbEntity
  8
LAYER2
  6
CONTINUOUS
100
AcDbLine
 10
1.970988377326721
 20
-2.338793462029055
 30
0.0
 11
1.976861650921625
 21
-2.331139262886043
 31
0.0
  0
LINE
  5
95E
330
8AE
100
AcDbEntity
  8
LAYER2
  6
CONTINUOUS
100
AcDbLine
 10
1.974513501990099
 20
-2.379955127864467
 30
0.0
 11
1.967622927294334
 21
-2.362004567184512
 31
0.0
  0
ARC
  5
95F
330
8AE
100
AcDbEntity
  8
LAYER2
  6
CONTINUOUS
100
AcDbCircle
 10
1.960464685098844
 20
-2.385211623270723
 30
0.0
 40
0.015
100
AcDbArc
 50
309.4547064115996
 51
20.51380326645255
  0
ARC
  5
960
330
8AE
100
AcDbEntity
  8
LAYER2
  6
CONTINUOUS
100
AcDbCircle
 10
1.796531910327565
 20
-2.511001665567002
 30
0.0
 40
0.015
100
AcDbArc
 50
234.4861967335482
 51
305.5452935883997
  0
LINE
  5
961
330
8AE
100
AcDbEntity
  8
LAYER2
  6
CONTINUOUS
100
AcDbLine
 10
1.787818424286278
 20
-2.523211299509439
 30
0.0
 11
1.772262926092106
 21
-2.511909568478584
 31
0.0
  0
LINE
  5
962
330
8AE
100
AcDbEntity
  8
LAYER2
  6
CONTINUOUS
100
AcDbLine
 10
1.748971677602016
 20
-2.509152867509842
 30
0.0
 11
1.740058173906762
 21
-2.512844961646803
 31
0.0
  0
ARC
  5
963
330
8AE
100
AcDbEntity
  8
LAYER2
  6
CONTINUOUS
100
AcDbCircle
 10
1.758156080032
 20
-2.53132597634509
 30
0.0
 40
0.0240000000000008
100
AcDbArc
 50
53.999999999999
 51
112.5000000000001
  0
ARC
  5
964
330
8AE
100
AcDbEntity
  8
LAYER2
  6
CONTINUOUS
100
AcDbCircle
 10
0.0
 20
0.0
 30
0.0
 40
3.102500000001785
100
AcDbArc
 50
305.5821860225665
 51
309.4178139774334
  0
ARC
  5
965
330
8AE
100
AcDbEntity
  8
LAYER2
  6
CONTINUOUS
100
AcDbCircle
 10
0.0
 20
0.0
 30
0.0
 40
3.056499999976028
100
AcDbArc
 50
310.2987388648298
 51
311.2499999999999
  0
ARC
  5
966
330
8AE
100
AcDbEntity
  8
LAYER2
  6
CONTINUOUS
100
AcDbCircle
 10
0.0
 20
0.0
 30
0.0
 40
3.056499999976028
100
AcDbArc
 50
303.7499999999999
 51
304.7012611351699
  0
ARC
  5
967
330
8AE
100
AcDbEntity
  8
LAYER2
  6
CONTINUOUS
100
AcDbCircle
 10
2.280184713254273
 20
-2.073519152000878
 30
0.0
 40
0.0240000000000008
100
AcDbArc
 50
149.9999999999988
 51
208.5000000000005
  0
LINE
  5
968
330
8AE
100
AcDbEntity
  8
LAYER2
  6
CONTINUOUS
100
AcDbLine
 10
2.259400103515887
 20
-2.061519151940935
 30
0.0
 11
2.264224056972366
 21
-2.053163819494455
 31
0.0
  0
LINE
  5
969
330
8AE
100
AcDbEntity
  8
LAYER2
  6
CONTINUOUS
100
AcDbLine
 10
2.268267745756026
 20
-2.101868552919629
 30
0.0
 11
2.259093102548227
 21
-2.084970962251955
 31
0.0
  0
ARC
  5
96A
330
8AE
100
AcDbEntity
  8
LAYER2
  6
CONTINUOUS
100
AcDbCircle
 10
2.25502522877061
 20
-2.108913816853008
 30
0.0
 40
0.015
100
AcDbArc
 50
316.9547064115993
 51
28.01380326645218
  0
ARC
  5
96B
330
8AE
100
AcDbEntity
  8
LAYER2
  6
CONTINUOUS
100
AcDbCircle
 10
2.108913816853007
 20
-2.255025228770611
 30
0.0
 40
0.015
100
AcDbArc
 50
241.9861967335479
 51
313.0452935884007
  0
LINE
  5
96C
330
8AE
100
AcDbEntity
  8
LAYER2
  6
CONTINUOUS
100
AcDbLine
 10
2.101868552919628
 20
-2.268267745756027
 30
0.0
 11
2.084970962251955
 21
-2.259093102548228
 31
0.0
  0
LINE
  5
96D
330
8AE
100
AcDbEntity
  8
LAYER2
  6
CONTINUOUS
100
AcDbLine
 10
2.061519151940935
 20
-2.259400103515887
 30
0.0
 11
2.053163819494454
 21
-2.264224056972366
 31
0.0
  0
ARC
  5
96E
330
8AE
100
AcDbEntity
  8
LAYER2
  6
CONTINUOUS
100
AcDbCircle
 10
2.073519152000877
 20
-2.280184713254274
 30
0.0
 40
0.0240000000000008
100
AcDbArc
 50
61.49999999999951
 51
120.0000000000003
  0
ARC
  5
96F
330
8AE
100
AcDbEntity
  8
LAYER2
  6
CONTINUOUS
100
AcDbCircle
 10
0.0
 20
0.0
 30
0.0
 40
3.102500000001785
100
AcDbArc
 50
313.0821860225666
 51
316.9178139774334
  0
ARC
  5
970
330
8AE
100
AcDbEntity
  8
LAYER2
  6
CONTINUOUS
100
AcDbCircle
 10
0.0
 20
0.0
 30
0.0
 40
3.056499999976028
100
AcDbArc
 50
317.7987388648299
 51
318.7499999999999
  0
ARC
  5
971
330
8AE
100
AcDbEntity
  8
LAYER2
  6
CONTINUOUS
100
AcDbCircle
 10
0.0
 20
0.0
 30
0.0
 40
3.056499999976028
100
AcDbArc
 50
311.25
 51
312.20126113517
  0
ARC
  5
972
330
8AE
100
AcDbEntity
  8
LAYER2
  6
CONTINUOUS
100
AcDbCircle
 10
2.531325976345089
 20
-1.758156080032001
 30
0.0
 40
0.0240000000000008
100
AcDbArc
 50
157.4999999999994
 51
216.0000000000005
  0
LINE
  5
973
330
8AE
100
AcDbEntity
  8
LAYER2
  6
CONTINUOUS
100
AcDbLine
 10
2.509152867509842
 20
-1.748971677602017
 30
0.0
 11
2.512844961646802
 21
-1.740058173906763
 31
0.0
  0
LINE
  5
974
330
8AE
100
AcDbEntity
  8
LAYER2
  6
CONTINUOUS
100
AcDbLine
 10
2.523211299509438
 20
-1.787818424286279
 30
0.0
 11
2.511909568478583
 21
-1.772262926092107
 31
0.0
  0
ARC
  5
975
330
8AE
100
AcDbEntity
  8
LAYER2
  6
CONTINUOUS
100
AcDbCircle
 10
2.511001665567001
 20
-1.796531910327566
 30
0.0
 40
0.015
100
AcDbArc
 50
324.4547064115986
 51
35.51380326645242
  0
ARC
  5
976
330
8AE
100
AcDbEntity
  8
LAYER2
  6
CONTINUOUS
100
AcDbCircle
 10
2.385211623270722
 20
-1.960464685098845
 30
0.0
 40
0.015
100
AcDbArc
 50
249.4861967335474
 51
320.5452935883997
  0
LINE
  5
977
330
8AE
100
AcDbEntity
  8
LAYER2
  6
CONTINUOUS
100
AcDbLine
 10
2.379955127864466
 20
-1.9745135019901
 30
0.0
 11
2.362004567184512
 21
-1.967622927294335
 31
0.0
  0
LINE
  5
978
330
8AE
100
AcDbEntity
  8
LAYER2
  6
CONTINUOUS
100
AcDbLine
 10
2.338793462029054
 20
-1.970988377326722
 30
0.0
 11
2.331139262886042
 21
-1.976861650921626
 31
0.0
  0
ARC
  5
979
330
8AE
100
AcDbEntity
  8
LAYER2
  6
CONTINUOUS
100
AcDbCircle
 10
2.353403736390901
 20
-1.99002885753304
 30
0.0
 40
0.0240000000000008
100
AcDbArc
 50
68.9999999999996
 51
127.5000000000006
  0
ARC
  5
97A
330
8AE
100
AcDbEntity
  8
LAYER2
  6
CONTINUOUS
100
AcDbCircle
 10
0.0
 20
0.0
 30
0.0
 40
3.102500000001785
100
AcDbArc
 50
320.5821860225666
 51
324.4178139774334
  0
ARC
  5
97B
330
8AE
100
AcDbEntity
  8
LAYER2
  6
CONTINUOUS
100
AcDbCircle
 10
0.0
 20
0.0
 30
0.0
 40
3.056499999976028
100
AcDbArc
 50
325.2987388648299
 51
326.2499999999999
  0
ARC
  5
97C
330
8AE
100
AcDbEntity
  8
LAYER2
  6
CONTINUOUS
100
AcDbCircle
 10
0.0
 20
0.0
 30
0.0
 40
3.056499999976028
100
AcDbArc
 50
318.75
 51
319.70126113517
  0
ARC
  5
97D
330
8AE
100
AcDbEntity
  8
LAYER2
  6
CONTINUOUS
100
AcDbCircle
 10
2.739155550164492
 20
-1.41271047008082
 30
0.0
 40
0.0240000000000008
100
AcDbArc
 50
164.9999999999998
 51
223.5000000000012
  0
LINE
  5
97E
330
8AE
100
AcDbEntity
  8
LAYER2
  6
CONTINUOUS
100
AcDbLine
 10
2.715973330272101
 20
-1.406498812952769
 30
0.0
 11
2.718470392335218
 21
-1.397179650528258
 31
0.0
  0
LINE
  5
97F
330
8AE
100
AcDbEntity
  8
LAYER2
  6
CONTINUOUS
100
AcDbLine
 10
2.734982008361907
 20
-1.443178226736479
 30
0.0
 11
2.721746565259366
 21
-1.429230979902711
 31
0.0
  0
ARC
  5
980
330
8AE
100
AcDbEntity
  8
LAYER2
  6
CONTINUOUS
100
AcDbCircle
 10
2.724014167684355
 20
-1.453410844723672
 30
0.0
 40
0.015
100
AcDbArc
 50
331.954706411601
 51
43.01380326645193
  0
ARC
  5
981
330
8AE
100
AcDbEntity
  8
LAYER2
  6
CONTINUOUS
100
AcDbCircle
 10
2.620697797508677
 20
-1.63236004712154
 30
0.0
 40
0.015
100
AcDbArc
 50
256.9861967335456
 51
328.0452935883998
  0
LINE
  5
982
330
8AE
100
AcDbEntity
  8
LAYER2
  6
CONTINUOUS
100
AcDbLine
 10
2.617320010723322
 20
-1.646974784766557
 30
0.0
 11
2.598623619101156
 21
-1.642486178226298
 31
0.0
  0
LINE
  5
983
330
8AE
100
AcDbEntity
  8
LAYER2
  6
CONTINUOUS
100
AcDbLine
 10
2.576050367545805
 20
-1.648852493540279
 30
0.0
 11
2.569228267175743
 21
-1.65567459393402
 31
0.0
  0
ARC
  5
984
330
8AE
100
AcDbEntity
  8
LAYER2
  6
CONTINUOUS
100
AcDbCircle
 10
2.593020930364491
 20
-1.665823056319181
 30
0.0
 40
0.0240000000000008
100
AcDbArc
 50
76.49999999999923
 51
135.0
  0
ARC
  5
985
330
8AE
100
AcDbEntity
  8
LAYER2
  6
CONTINUOUS
100
AcDbCircle
 10
0.0
 20
0.0
 30
0.0
 40
3.102500000001785
100
AcDbArc
 50
328.0821860225666
 51
331.9178139774334
  0
ARC
  5
986
330
8AE
100
AcDbEntity
  8
LAYER2
  6
CONTINUOUS
100
AcDbCircle
 10
0.0
 20
0.0
 30
0.0
 40
3.056499999976028
100
AcDbArc
 50
332.7987388648299
 51
333.7499999999999
  0
ARC
  5
987
330
8AE
100
AcDbEntity
  8
LAYER2
  6
CONTINUOUS
100
AcDbCircle
 10
0.0
 20
0.0
 30
0.0
 40
3.056499999976028
100
AcDbArc
 50
326.2499999999999
 51
327.20126113517
  0
ARC
  5
988
330
8AE
100
AcDbEntity
  8
LAYER2
  6
CONTINUOUS
100
AcDbCircle
 10
2.900117413083186
 20
-1.043092992309218
 30
0.0
 40
0.0240000000000008
100
AcDbArc
 50
172.4999999999995
 51
231.0000000000019
  0
LINE
  5
989
330
8AE
100
AcDbEntity
  8
LAYER2
  6
CONTINUOUS
100
AcDbLine
 10
2.876322736343337
 20
-1.039960363658757
 30
0.0
 11
2.877582040908393
 21
-1.030394995957832
 31
0.0
  0
LINE
  5
98A
330
8AE
100
AcDbEntity
  8
LAYER2
  6
CONTINUOUS
100
AcDbLine
 10
2.899956416771035
 20
-1.073844849602621
 30
0.0
 11
2.885013723697851
 21
-1.061744495389489
 31
0.0
  0
ARC
  5
98B
330
8AE
100
AcDbEntity
  8
LAYER2
  6
CONTINUOUS
100
AcDbCircle
 10
2.89041803215322
 20
-1.085421516604942
 30
0.0
 40
0.015
100
AcDbArc
 50
339.4547064115995
 51
50.51380326645251
  0
ARC
  5
98C
330
8AE
100
AcDbEntity
  8
LAYER2
  6
CONTINUOUS
100
AcDbCircle
 10
2.811343105836559
 20
-1.276325276162279
 30
0.0
 40
0.015
100
AcDbArc
 50
264.4861967335473
 51
335.5452935884005
  0
LINE
  5
98D
330
8AE
100
AcDbEntity
  8
LAYER2
  6
CONTINUOUS
100
AcDbLine
 10
2.809901822540502
 20
-1.291255872347981
 30
0.0
 11
2.790779500420399
 21
-1.289246035265607
 31
0.0
  0
LINE
  5
98E
330
8AE
100
AcDbEntity
  8
LAYER2
  6
CONTINUOUS
100
AcDbLine
 10
2.769230337057754
 20
-1.298504286441085
 30
0.0
 11
2.763357063489418
 21
-1.306158485604483
 31
0.0
  0
ARC
  5
98F
330
8AE
100
AcDbEntity
  8
LAYER2
  6
CONTINUOUS
100
AcDbCircle
 10
2.788270817298323
 20
-1.313114560758295
 30
0.0
 40
0.0240000000000008
100
AcDbArc
 50
83.9999999999989
 51
142.5000000000009
  0
ARC
  5
990
330
8AE
100
AcDbEntity
  8
LAYER2
  6
CONTINUOUS
100
AcDbCircle
 10
0.0
 20
0.0
 30
0.0
 40
3.102500000001785
100
AcDbArc
 50
335.5821860225665
 51
339.4178139774334
  0
ARC
  5
991
330
8AE
100
AcDbEntity
  8
LAYER2
  6
CONTINUOUS
100
AcDbCircle
 10
0.0
 20
0.0
 30
0.0
 40
3.056499999976028
100
AcDbArc
 50
340.2987388648299
 51
341.2499999999999
  0
ARC
  5
992
330
8AE
100
AcDbEntity
  8
LAYER2
  6
CONTINUOUS
100
AcDbCircle
 10
0.0
 20
0.0
 30
0.0
 40
3.056499999976028
100
AcDbArc
 50
333.7499999999999
 51
334.70126113517
  0
ARC
  5
993
330
8AE
100
AcDbEntity
  8
LAYER2
  6
CONTINUOUS
100
AcDbCircle
 10
3.011457462999575
 20
-0.6556279042391912
 30
0.0
 40
0.0240000000000008
100
AcDbArc
 50
179.9999999999995
 51
238.4999999999992
  0
LINE
  5
994
330
8AE
100
AcDbEntity
  8
LAYER2
  6
CONTINUOUS
100
AcDbLine
 10
2.987457462928416
 20
-0.6556279042110591
 30
0.0
 11
2.98745746294516
 21
-0.6459799973271034
 31
0.0
  0
LINE
  5
995
330
8AE
100
AcDbEntity
  8
LAYER2
  6
CONTINUOUS
100
AcDbLine
 10
3.015311766869395
 20
-0.6861376893660227
 30
0.0
 11
2.998917497446946
 21
-0.676091268188966
 31
0.0
  0
ARC
  5
996
330
8AE
100
AcDbEntity
  8
LAYER2
  6
CONTINUOUS
100
AcDbCircle
 10
3.007366042716668
 20
-0.6988603254014035
 30
0.0
 40
0.015
100
AcDbArc
 50
346.9547064116
 51
58.01380326645126
  0
ARC
  5
997
330
8AE
100
AcDbEntity
  8
LAYER2
  6
CONTINUOUS
100
AcDbCircle
 10
2.953885554172013
 20
-0.8984522258636614
 30
0.0
 40
0.015
100
AcDbArc
 50
271.9861967335475
 51
343.0452935883997
  0
LINE
  5
998
330
8AE
100
AcDbEntity
  8
LAYER2
  6
CONTINUOUS
100
AcDbLine
 10
2.954405435122048
 20
-0.9134432139497679
 30
0.0
 11
2.935184370737193
 21
-0.9139465351949927
 31
0.0
  0
LINE
  5
999
330
8AE
100
AcDbEntity
  8
LAYER2
  6
CONTINUOUS
100
AcDbLine
 10
2.915028007726945
 20
-0.9259383109874822
 30
0.0
 11
2.910204054299468
 21
-0.9342936434507065
 31
0.0
  0
ARC
  5
99A
330
8AE
100
AcDbEntity
  8
LAYER2
  6
CONTINUOUS
100
AcDbCircle
 10
2.935812617493463
 20
-0.9379383109986987
 30
0.0
 40
0.0240000000000008
100
AcDbArc
 50
91.50000000000057
 51
150.0000000000011
  0
ARC
  5
99B
330
8AE
100
AcDbEntity
  8
LAYER2
  6
CONTINUOUS
100
AcDbCircle
 10
0.0
 20
0.0
 30
0.0
 40
3.102500000001785
100
AcDbArc
 50
343.0821860225665
 51
346.9178139774334
  0
ARC
  5
99C
330
8AE
100
AcDbEntity
  8
LAYER2
  6
CONTINUOUS
100
AcDbCircle
 10
0.0
 20
0.0
 30
0.0
 40
3.056499999976028
100
AcDbArc
 50
347.7987388648299
 51
348.7499999999999
  0
ARC
  5
99D
330
8AE
100
AcDbEntity
  8
LAYER2
  6
CONTINUOUS
100
AcDbCircle
 10
0.0
 20
0.0
 30
0.0
 40
3.056499999976028
100
AcDbArc
 50
341.2499999999999
 51
342.20126113517
  0
ARC
  5
99E
330
8AE
100
AcDbEntity
  8
LAYER2
  6
CONTINUOUS
100
AcDbCircle
 10
3.071270640790295
 20
-0.256944840953235
 30
0.0
 40
0.0240000000000008
100
AcDbArc
 50
187.4999999999994
 51
246.0
  0
LINE
  5
99F
330
8AE
100
AcDbEntity
  8
LAYER2
  6
CONTINUOUS
100
AcDbLine
 10
3.047475964043101
 20
-0.260077469547913
 30
0.0
 11
3.046216659511245
 21
-0.2505121018426165
 31
0.0
  0
LINE
  5
9A0
330
8AE
100
AcDbEntity
  8
LAYER2
  6
CONTINUOUS
100
AcDbLine
 10
3.079074296634258
 20
-0.2866905230310647
 30
0.0
 11
3.061508961357714
 21
-0.2788699319418166
 31
0.0
  0
ARC
  5
9A1
330
8AE
100
AcDbEntity
  8
LAYER2
  6
CONTINUOUS
100
AcDbCircle
 10
3.072857186489843
 20
-0.3003414402695586
 30
0.0
 40
0.015
100
AcDbArc
 50
354.4547064116
 51
65.51380326645224
  0
ARC
  5
9A2
330
8AE
100
AcDbEntity
  8
LAYER2
  6
CONTINUOUS
100
AcDbCircle
 10
3.045886201703786
 20
-0.5052064088824991
 30
0.0
 40
0.015
100
AcDbArc
 50
279.4861967335488
 51
350.5452935884001
  0
LINE
  5
9A3
330
8AE
100
AcDbEntity
  8
LAYER2
  6
CONTINUOUS
100
AcDbLine
 10
3.04835835159272
 20
-0.5200012889065697
 30
0.0
 11
3.029367422683822
 21
-0.5230091565133397
 31
0.0
  0
LINE
  5
9A4
330
8AE
100
AcDbEntity
  8
LAYER2
  6
CONTINUOUS
100
AcDbLine
 10
3.010948740985477
 20
-0.537529274314283
 30
0.0
 11
3.007256646879456
 21
-0.546442778022352
 31
0.0
  0
ARC
  5
9A5
330
8AE
100
AcDbEntity
  8
LAYER2
  6
CONTINUOUS
100
AcDbCircle
 10
3.033121849842257
 20
-0.546713676692286
 30
0.0
 40
0.0240000000000008
100
AcDbArc
 50
98.99999999999861
 51
157.4999999999999
  0
ARC
  5
9A6
330
8AE
100
AcDbEntity
  8
LAYER2
  6
CONTINUOUS
100
AcDbCircle
 10
0.0
 20
0.0
 30
0.0
 40
3.102500000001784
100
AcDbArc
 50
350.5821860225665
 51
354.4178139774334
  0
ARC
  5
9A7
330
8AE
100
AcDbEntity
  8
LAYER2
  6
CONTINUOUS
100
AcDbCircle
 10
0.0
 20
0.0
 30
0.0
 40
3.056499999976027
100
AcDbArc
 50
355.2987388648298
 51
356.2499999999999
  0
ARC
  5
9A8
330
8AE
100
AcDbEntity
  8
LAYER2
  6
CONTINUOUS
100
AcDbCircle
 10
0.0
 20
0.0
 30
0.0
 40
3.056499999976027
100
AcDbArc
 50
348.7499999999999
 51
349.70126113517
  0
ARC
  5
9A9
330
8AE
100
AcDbEntity
  8
LAYER2
  6
CONTINUOUS
100
AcDbCircle
 10
3.0785335264
 20
0.1461346197999994
 30
0.0
 40
0.0240000000000008
100
AcDbArc
 50
194.9999999999993
 51
253.5000000000006
  0
LINE
  5
9AA
330
8AE
100
AcDbEntity
  8
LAYER2
  6
CONTINUOUS
100
AcDbLine
 10
3.055351306493047
 20
0.139922962726295
 30
0.0
 11
3.052854244462277
 21
0.1492421251594736
 31
0.0
  0
LINE
  5
9AB
330
8AE
100
AcDbEntity
  8
LAYER2
  6
CONTINUOUS
100
AcDbLine
 10
3.090153011503035
 20
0.1176619976385844
 30
0.0
 11
3.071717158129007
 21
0.1231229461582093
 31
0.0
  0
ARC
  5
9AC
330
8AE
100
AcDbEntity
  8
LAYER2
  6
CONTINUOUS
100
AcDbCircle
 10
3.085770891845211
 20
0.1033163701756773
 30
0.0
 40
0.015
100
AcDbArc
 50
1.954706411600005
 51
73.01380326645257
  0
ARC
  5
9AD
330
8AE
100
AcDbEntity
  8
LAYER2
  6
CONTINUOUS
100
AcDbCircle
 10
3.085770891845211
 20
-0.1033163701756785
 30
0.0
 40
0.015
100
AcDbArc
 50
286.9861967335474
 51
358.0452935883997
  0
LINE
  5
9AE
330
8AE
100
AcDbEntity
  8
LAYER2
  6
CONTINUOUS
100
AcDbLine
 10
3.090153011503035
 20
-0.1176619976385856
 30
0.0
 11
3.071717158129007
 21
-0.1231229461582105
 31
0.0
  0
LINE
  5
9AF
330
8AE
100
AcDbEntity
  8
LAYER2
  6
CONTINUOUS
100
AcDbLine
 10
3.055351306493047
 20
-0.1399229627262962
 30
0.0
 11
3.052854244462277
 21
-0.1492421251594747
 31
0.0
  0
ARC
  5
9B0
330
8AE
100
AcDbEntity
  8
LAYER2
  6
CONTINUOUS
100
AcDbCircle
 10
3.0785335264
 20
-0.1461346198000006
 30
0.0
 40
0.0240000000000008
100
AcDbArc
 50
106.4999999999994
 51
165.0000000000007
  0
ARC
  5
9B1
330
8AE
100
AcDbEntity
  8
LAYER2
  6
CONTINUOUS
100
AcDbCircle
 10
0.0
 20
0.0
 30
0.0
 40
3.102500000001785
100
AcDbArc
 50
358.0821860225666
 51
1.917813977433407
  0
ARC
  5
9B2
330
8AE
100
AcDbEntity
  8
LAYER2
  6
CONTINUOUS
100
AcDbCircle
 10
0.0
 20
0.0
 30
0.0
 40
3.056499999976028
100
AcDbArc
 50
2.798738864829877
 51
3.749999999999905
  0
ARC
  5
9B3
330
8AE
100
AcDbEntity
  8
LAYER2
  6
CONTINUOUS
100
AcDbCircle
 10
0.0
 20
0.0
 30
0.0
 40
3.056499999976028
100
AcDbArc
 50
356.25
 51
357.20126113517
  0
ARC
  5
9B4
330
8AE
100
AcDbEntity
  8
LAYER2
  6
CONTINUOUS
100
AcDbCircle
 10
3.033121849842257
 20
0.5467136766922842
 30
0.0
 40
0.0240000000000008
100
AcDbArc
 50
202.4999999999989
 51
261.0000000000003
  0
LINE
  5
9B5
330
8AE
100
AcDbEntity
  8
LAYER2
  6
CONTINUOUS
100
AcDbLine
 10
3.010948740985478
 20
0.5375292743142812
 30
0.0
 11
3.007256646879457
 21
0.5464427780223503
 31
0.0
  0
LINE
  5
9B6
330
8AE
100
AcDbEntity
  8
LAYER2
  6
CONTINUOUS
100
AcDbLine
 10
3.04835835159272
 20
0.5200012889065679
 30
0.0
 11
3.029367422683823
 21
0.5230091565133379
 31
0.0
  0
ARC
  5
9B7
330
8AE
100
AcDbEntity
  8
LAYER2
  6
CONTINUOUS
100
AcDbCircle
 10
3.045886201703786
 20
0.5052064088824972
 30
0.0
 40
0.015
100
AcDbArc
 50
9.454706411599954
 51
80.51380326645297
  0
ARC
  5
9B8
330
8AE
100
AcDbEntity
  8
LAYER2
  6
CONTINUOUS
100
AcDbCircle
 10
3.072857186489844
 20
0.3003414402695567
 30
0.0
 40
0.015
100
AcDbArc
 50
294.4861967335459
 51
5.545293588399802
  0
LINE
  5
9B9
330
8AE
100
AcDbEntity
  8
LAYER2
  6
CONTINUOUS
100
AcDbLine
 10
3.079074296634258
 20
0.2866905230310628
 30
0.0
 11
3.061508961357714
 21
0.2788699319418148
 31
0.0
  0
LINE
  5
9BA
330
8AE
100
AcDbEntity
  8
LAYER2
  6
CONTINUOUS
100
AcDbLine
 10
3.047475964043101
 20
0.2600774695479112
 30
0.0
 11
3.046216659511246
 21
0.2505121018426149
 31
0.0
  0
ARC
  5
9BB
330
8AE
100
AcDbEntity
  8
LAYER2
  6
CONTINUOUS
100
AcDbCircle
 10
3.071270640790295
 20
0.2569448409532332
 30
0.0
 40
0.0240000000000008
100
AcDbArc
 50
114.0000000000001
 51
172.5000000000007
  0
ARC
  5
9BC
330
8AE
100
AcDbEntity
  8
LAYER2
  6
CONTINUOUS
100
AcDbCircle
 10
0.0
 20
0.0
 30
0.0
 40
3.102500000001785
100
AcDbArc
 50
5.582186022566556
 51
9.417813977433397
  0
ARC
  5
9BD
330
8AE
100
AcDbEntity
  8
LAYER2
  6
CONTINUOUS
100
AcDbCircle
 10
0.0
 20
0.0
 30
0.0
 40
3.056499999976028
100
AcDbArc
 50
10.29873886482987
 51
11.2499999999999
  0
ARC
  5
9BE
330
8AE
100
AcDbEntity
  8
LAYER2
  6
CONTINUOUS
100
AcDbCircle
 10
0.0
 20
0.0
 30
0.0
 40
3.056499999976028
100
AcDbArc
 50
3.749999999999956
 51
4.701261135169984
  0
ARC
  5
9BF
330
8AE
100
AcDbEntity
  8
LAYER2
  6
CONTINUOUS
100
AcDbCircle
 10
2.935812617493464
 20
0.937938310998697
 30
0.0
 40
0.0240000000000008
100
AcDbArc
 50
209.9999999999989
 51
268.5000000000005
  0
LINE
  5
9C0
330
8AE
100
AcDbEntity
  8
LAYER2
  6
CONTINUOUS
100
AcDbLine
 10
2.915028007726945
 20
0.9259383109874804
 30
0.0
 11
2.910204054299468
 21
0.934293643450705
 31
0.0
  0
LINE
  5
9C1
330
8AE
100
AcDbEntity
  8
LAYER2
  6
CONTINUOUS
100
AcDbLine
 10
2.954405435122048
 20
0.9134432139497662
 30
0.0
 11
2.935184370737193
 21
0.9139465351949908
 31
0.0
  0
ARC
  5
9C2
330
8AE
100
AcDbEntity
  8
LAYER2
  6
CONTINUOUS
100
AcDbCircle
 10
2.953885554172013
 20
0.8984522258636596
 30
0.0
 40
0.015
100
AcDbArc
 50
16.95470641159991
 51
88.01380326645254
  0
ARC
  5
9C3
330
8AE
100
AcDbEntity
  8
LAYER2
  6
CONTINUOUS
100
AcDbCircle
 10
3.007366042716668
 20
0.6988603254014017
 30
0.0
 40
0.015
100
AcDbArc
 50
301.9861967335469
 51
13.0452935883996
  0
LINE
  5
9C4
330
8AE
100
AcDbEntity
  8
LAYER2
  6
CONTINUOUS
100
AcDbLine
 10
3.015311766869395
 20
0.6861376893660209
 30
0.0
 11
2.998917497446946
 21
0.6760912681889641
 31
0.0
  0
LINE
  5
9C5
330
8AE
100
AcDbEntity
  8
LAYER2
  6
CONTINUOUS
100
AcDbLine
 10
2.987457462928416
 20
0.6556279042110572
 30
0.0
 11
2.98745746294516
 21
0.6459799973271017
 31
0.0
  0
ARC
  5
9C6
330
8AE
100
AcDbEntity
  8
LAYER2
  6
CONTINUOUS
100
AcDbCircle
 10
3.011457462999576
 20
0.6556279042391893
 30
0.0
 40
0.0240000000000008
100
AcDbArc
 50
121.4999999999996
 51
180.0000000000005
  0
ARC
  5
9C7
330
8AE
100
AcDbEntity
  8
LAYER2
  6
CONTINUOUS
100
AcDbCircle
 10
0.0
 20
0.0
 30
0.0
 40
3.102500000001784
100
AcDbArc
 50
13.08218602256656
 51
16.9178139774334
  0
ARC
  5
9C8
330
8AE
100
AcDbEntity
  8
LAYER2
  6
CONTINUOUS
100
AcDbCircle
 10
0.0
 20
0.0
 30
0.0
 40
3.056499999976027
100
AcDbArc
 50
17.79873886482987
 51
18.7499999999999
  0
ARC
  5
9C9
330
8AE
100
AcDbEntity
  8
LAYER2
  6
CONTINUOUS
100
AcDbCircle
 10
0.0
 20
0.0
 30
0.0
 40
3.056499999976027
100
AcDbArc
 50
11.24999999999996
 51
12.20126113516999
  0
ARC
  5
9CA
330
8AE
100
AcDbEntity
  8
LAYER2
  6
CONTINUOUS
100
AcDbCircle
 10
2.788270817298324
 20
1.313114560758293
 30
0.0
 40
0.0240000000000008
100
AcDbArc
 50
217.4999999999991
 51
276.0000000000011
  0
LINE
  5
9CB
330
8AE
100
AcDbEntity
  8
LAYER2
  6
CONTINUOUS
100
AcDbLine
 10
2.769230337057754
 20
1.298504286441084
 30
0.0
 11
2.763357063489419
 21
1.306158485604482
 31
0.0
  0
LINE
  5
9CC
330
8AE
100
AcDbEntity
  8
LAYER2
  6
CONTINUOUS
100
AcDbLine
 10
2.809901822540502
 20
1.291255872347979
 30
0.0
 11
2.790779500420399
 21
1.289246035265606
 31
0.0
  0
ARC
  5
9CD
330
8AE
100
AcDbEntity
  8
LAYER2
  6
CONTINUOUS
100
AcDbCircle
 10
2.81134310583656
 20
1.276325276162277
 30
0.0
 40
0.015
100
AcDbArc
 50
24.45470641159877
 51
95.51380326645275
  0
ARC
  5
9CE
330
8AE
100
AcDbEntity
  8
LAYER2
  6
CONTINUOUS
100
AcDbCircle
 10
2.890418032153221
 20
1.08542151660494
 30
0.0
 40
0.015
100
AcDbArc
 50
309.4861967335474
 51
20.5452935883989
  0
LINE
  5
9CF
330
8AE
100
AcDbEntity
  8
LAYER2
  6
CONTINUOUS
100
AcDbLine
 10
2.899956416771036
 20
1.073844849602619
 30
0.0
 11
2.885013723697851
 21
1.061744495389487
 31
0.0
  0
LINE
  5
9D0
330
8AE
100
AcDbEntity
  8
LAYER2
  6
CONTINUOUS
100
AcDbLine
 10
2.876322736343337
 20
1.039960363658755
 30
0.0
 11
2.877582040908394
 21
1.03039499595783
 31
0.0
  0
ARC
  5
9D1
330
8AE
100
AcDbEntity
  8
LAYER2
  6
CONTINUOUS
100
AcDbCircle
 10
2.900117413083187
 20
1.043092992309216
 30
0.0
 40
0.0240000000000008
100
AcDbArc
 50
128.9999999999993
 51
187.5000000000011
  0
ARC
  5
9D2
330
8AE
100
AcDbEntity
  8
LAYER2
  6
CONTINUOUS
100
AcDbCircle
 10
0.0
 20
0.0
 30
0.0
 40
3.102500000001785
100
AcDbArc
 50
20.58218602256655
 51
24.41781397743338
  0
ARC
  5
9D3
330
8AE
100
AcDbEntity
  8
LAYER2
  6
CONTINUOUS
100
AcDbCircle
 10
0.0
 20
0.0
 30
0.0
 40
3.056499999976028
100
AcDbArc
 50
25.29873886482987
 51
26.24999999999989
  0
ARC
  5
9D4
330
8AE
100
AcDbEntity
  8
LAYER2
  6
CONTINUOUS
100
AcDbCircle
 10
0.0
 20
0.0
 30
0.0
 40
3.056499999976028
100
AcDbArc
 50
18.74999999999995
 51
19.70126113516998
  0
ARC
  5
9D5
330
8AE
100
AcDbEntity
  8
LAYER2
  6
CONTINUOUS
100
AcDbCircle
 10
2.593020930364492
 20
1.66582305631918
 30
0.0
 40
0.0240000000000008
100
AcDbArc
 50
225.0
 51
283.5000000000008
  0
LINE
  5
9D6
330
8AE
100
AcDbEntity
  8
LAYER2
  6
CONTINUOUS
100
AcDbLine
 10
2.576050367545806
 20
1.648852493540278
 30
0.0
 11
2.569228267175744
 21
1.655674593934019
 31
0.0
  0
LINE
  5
9D7
330
8AE
100
AcDbEntity
  8
LAYER2
  6
CONTINUOUS
100
AcDbLine
 10
2.617320010723323
 20
1.646974784766556
 30
0.0
 11
2.598623619101157
 21
1.642486178226296
 31
0.0
  0
ARC
  5
9D8
330
8AE
100
AcDbEntity
  8
LAYER2
  6
CONTINUOUS
100
AcDbCircle
 10
2.620697797508678
 20
1.632360047121538
 30
0.0
 40
0.015
100
AcDbArc
 50
31.95470641160021
 51
103.0138032664544
  0
ARC
  5
9D9
330
8AE
100
AcDbEntity
  8
LAYER2
  6
CONTINUOUS
100
AcDbCircle
 10
2.724014167684356
 20
1.453410844723671
 30
0.0
 40
0.015
100
AcDbArc
 50
316.9861967335463
 51
28.04529358839973
  0
LINE
  5
9DA
330
8AE
100
AcDbEntity
  8
LAYER2
  6
CONTINUOUS
100
AcDbLine
 10
2.734982008361908
 20
1.443178226736477
 30
0.0
 11
2.721746565259367
 21
1.429230979902709
 31
0.0
  0
LINE
  5
9DB
330
8AE
100
AcDbEntity
  8
LAYER2
  6
CONTINUOUS
100
AcDbLine
 10
2.715973330272102
 20
1.406498812952767
 30
0.0
 11
2.718470392335218
 21
1.397179650528256
 31
0.0
  0
ARC
  5
9DC
330
8AE
100
AcDbEntity
  8
LAYER2
  6
CONTINUOUS
100
AcDbCircle
 10
2.739155550164492
 20
1.412710470080819
 30
0.0
 40
0.0240000000000008
100
AcDbArc
 50
136.4999999999999
 51
195.0000000000002
  0
ARC
  5
9DD
330
8AE
100
AcDbEntity
  8
LAYER2
  6
CONTINUOUS
100
AcDbCircle
 10
0.0
 20
0.0
 30
0.0
 40
3.102500000001785
100
AcDbArc
 50
28.08218602256656
 51
31.9178139774334
  0
ARC
  5
9DE
330
8AE
100
AcDbEntity
  8
LAYER2
  6
CONTINUOUS
100
AcDbCircle
 10
0.0
 20
0.0
 30
0.0
 40
3.056499999976028
100
AcDbArc
 50
32.79873886482986
 51
33.7499999999999
  0
ARC
  5
9DF
330
8AE
100
AcDbEntity
  8
LAYER2
  6
CONTINUOUS
100
AcDbCircle
 10
0.0
 20
0.0
 30
0.0
 40
3.056499999976028
100
AcDbArc
 50
26.24999999999996
 51
27.20126113516999
  0
ARC
  5
9E0
330
8AE
100
AcDbEntity
  8
LAYER2
  6
CONTINUOUS
100
AcDbCircle
 10
2.353403736390902
 20
1.990028857533038
 30
0.0
 40
0.0240000000000008
100
AcDbArc
 50
232.4999999999994
 51
291.0000000000006
  0
LINE
  5
9E1
330
8AE
100
AcDbEntity
  8
LAYER2
  6
CONTINUOUS
100
AcDbLine
 10
2.338793462029055
 20
1.97098837732672
 30
0.0
 11
2.331139262886043
 21
1.976861650921624
 31
0.0
  0
LINE
  5
9E2
330
8AE
100
AcDbEntity
  8
LAYER2
  6
CONTINUOUS
100
AcDbLine
 10
2.379955127864467
 20
1.974513501990099
 30
0.0
 11
2.362004567184513
 21
1.967622927294333
 31
0.0
  0
ARC
  5
9E3
330
8AE
100
AcDbEntity
  8
LAYER2
  6
CONTINUOUS
100
AcDbCircle
 10
2.385211623270723
 20
1.960464685098844
 30
0.0
 40
0.015
100
AcDbArc
 50
39.45470641159964
 51
110.5138032664525
  0
ARC
  5
9E4
330
8AE
100
AcDbEntity
  8
LAYER2
  6
CONTINUOUS
100
AcDbCircle
 10
2.511001665567003
 20
1.796531910327564
 30
0.0
 40
0.015
100
AcDbArc
 50
324.4861967335476
 51
35.54529358839972
  0
LINE
  5
9E5
330
8AE
100
AcDbEntity
  8
LAYER2
  6
CONTINUOUS
100
AcDbLine
 10
2.523211299509439
 20
1.787818424286277
 30
0.0
 11
2.511909568478584
 21
1.772262926092105
 31
0.0
  0
LINE
  5
9E6
330
8AE
100
AcDbEntity
  8
LAYER2
  6
CONTINUOUS
100
AcDbLine
 10
2.509152867509843
 20
1.748971677602015
 30
0.0
 11
2.512844961646803
 21
1.740058173906761
 31
0.0
  0
ARC
  5
9E7
330
8AE
100
AcDbEntity
  8
LAYER2
  6
CONTINUOUS
100
AcDbCircle
 10
2.53132597634509
 20
1.758156080031999
 30
0.0
 40
0.0240000000000008
100
AcDbArc
 50
143.9999999999995
 51
202.5000000000006
  0
ARC
  5
9E8
330
8AE
100
AcDbEntity
  8
LAYER2
  6
CONTINUOUS
100
AcDbCircle
 10
0.0
 20
0.0
 30
0.0
 40
3.102500000001785
100
AcDbArc
 50
35.58218602256655
 51
39.41781397743339
  0
ARC
  5
9E9
330
8AE
100
AcDbEntity
  8
LAYER2
  6
CONTINUOUS
100
AcDbCircle
 10
0.0
 20
0.0
 30
0.0
 40
3.056499999976028
100
AcDbArc
 50
40.29873886482986
 51
41.24999999999989
  0
ARC
  5
9EA
330
8AE
100
AcDbEntity
  8
LAYER2
  6
CONTINUOUS
100
AcDbCircle
 10
0.0
 20
0.0
 30
0.0
 40
3.056499999976028
100
AcDbArc
 50
33.74999999999995
 51
34.70126113516999
  0
ARC
  5
9EB
330
8AE
100
AcDbEntity
  8
LAYER2
  6
CONTINUOUS
100
AcDbCircle
 10
2.073519152000878
 20
2.280184713254273
 30
0.0
 40
0.0240000000000008
100
AcDbArc
 50
239.9999999999988
 51
298.5000000000005
  0
LINE
  5
9EC
330
8AE
100
AcDbEntity
  8
LAYER2
  6
CONTINUOUS
100
AcDbLine
 10
2.061519151940935
 20
2.259400103515887
 30
0.0
 11
2.053163819494455
 21
2.264224056972366
 31
0.0
  0
LINE
  5
9ED
330
8AE
100
AcDbEntity
  8
LAYER2
  6
CONTINUOUS
100
AcDbLine
 10
2.101868552919629
 20
2.268267745756026
 30
0.0
 11
2.084970962251955
 21
2.259093102548227
 31
0.0
  0
ARC
  5
9EE
330
8AE
100
AcDbEntity
  8
LAYER2
  6
CONTINUOUS
100
AcDbCircle
 10
2.108913816853008
 20
2.25502522877061
 30
0.0
 40
0.015
100
AcDbArc
 50
46.95470641159929
 51
118.0138032664522
  0
ARC
  5
9EF
330
8AE
100
AcDbEntity
  8
LAYER2
  6
CONTINUOUS
100
AcDbCircle
 10
2.255025228770611
 20
2.108913816853007
 30
0.0
 40
0.015
100
AcDbArc
 50
331.9861967335478
 51
43.04529358840071
  0
LINE
  5
9F0
330
8AE
100
AcDbEntity
  8
LAYER2
  6
CONTINUOUS
100
AcDbLine
 10
2.268267745756027
 20
2.101868552919628
 30
0.0
 11
2.259093102548228
 21
2.084970962251955
 31
0.0
  0
LINE
  5
9F1
330
8AE
100
AcDbEntity
  8
LAYER2
  6
CONTINUOUS
100
AcDbLine
 10
2.259400103515887
 20
2.061519151940935
 30
0.0
 11
2.264224056972366
 21
2.053163819494454
 31
0.0
  0
ARC
  5
9F2
330
8AE
100
AcDbEntity
  8
LAYER2
  6
CONTINUOUS
100
AcDbCircle
 10
2.280184713254274
 20
2.073519152000877
 30
0.0
 40
0.0240000000000008
100
AcDbArc
 50
151.4999999999995
 51
210.0000000000003
  0
ARC
  5
9F3
330
8AE
100
AcDbEntity
  8
LAYER2
  6
CONTINUOUS
100
AcDbCircle
 10
0.0
 20
0.0
 30
0.0
 40
3.102500000001785
100
AcDbArc
 50
43.08218602256655
 51
46.9178139774334
  0
ARC
  5
9F4
330
8AE
100
AcDbEntity
  8
LAYER2
  6
CONTINUOUS
100
AcDbCircle
 10
0.0
 20
0.0
 30
0.0
 40
3.056499999976028
100
AcDbArc
 50
47.79873886482989
 51
48.74999999999989
  0
ARC
  5
9F5
330
8AE
100
AcDbEntity
  8
LAYER2
  6
CONTINUOUS
100
AcDbCircle
 10
0.0
 20
0.0
 30
0.0
 40
3.056499999976028
100
AcDbArc
 50
41.24999999999997
 51
42.20126113517
  0
ARC
  5
9F6
330
8AE
100
AcDbEntity
  8
LAYER2
  6
CONTINUOUS
100
AcDbCircle
 10
1.758156080032002
 20
2.531325976345089
 30
0.0
 40
0.0240000000000008
100
AcDbArc
 50
247.4999999999994
 51
306.0000000000006
  0
LINE
  5
9F7
330
8AE
100
AcDbEntity
  8
LAYER2
  6
CONTINUOUS
100
AcDbLine
 10
1.748971677602017
 20
2.509152867509842
 30
0.0
 11
1.740058173906764
 21
2.512844961646802
 31
0.0
  0
LINE
  5
9F8
330
8AE
100
AcDbEntity
  8
LAYER2
  6
CONTINUOUS
100
AcDbLine
 10
1.787818424286279
 20
2.523211299509438
 30
0.0
 11
1.772262926092108
 21
2.511909568478583
 31
0.0
  0
ARC
  5
9F9
330
8AE
100
AcDbEntity
  8
LAYER2
  6
CONTINUOUS
100
AcDbCircle
 10
1.796531910327566
 20
2.511001665567001
 30
0.0
 40
0.015
100
AcDbArc
 50
54.45470641159861
 51
125.5138032664524
  0
ARC
  5
9FA
330
8AE
100
AcDbEntity
  8
LAYER2
  6
CONTINUOUS
100
AcDbCircle
 10
1.960464685098846
 20
2.385211623270722
 30
0.0
 40
0.015
100
AcDbArc
 50
339.4861967335474
 51
50.54529358839971
  0
LINE
  5
9FB
330
8AE
100
AcDbEntity
  8
LAYER2
  6
CONTINUOUS
100
AcDbLine
 10
1.974513501990101
 20
2.379955127864466
 30
0.0
 11
1.967622927294335
 21
2.362004567184512
 31
0.0
  0
LINE
  5
9FC
330
8AE
100
AcDbEntity
  8
LAYER2
  6
CONTINUOUS
100
AcDbLine
 10
1.970988377326722
 20
2.338793462029054
 30
0.0
 11
1.976861650921626
 21
2.331139262886042
 31
0.0
  0
ARC
  5
9FD
330
8AE
100
AcDbEntity
  8
LAYER2
  6
CONTINUOUS
100
AcDbCircle
 10
1.990028857533041
 20
2.353403736390901
 30
0.0
 40
0.0240000000000008
100
AcDbArc
 50
158.9999999999996
 51
217.5000000000006
  0
ARC
  5
9FE
330
8AE
100
AcDbEntity
  8
LAYER2
  6
CONTINUOUS
100
AcDbCircle
 10
0.0
 20
0.0
 30
0.0
 40
3.102500000001784
100
AcDbArc
 50
50.58218602256656
 51
54.41781397743339
  0
ARC
  5
9FF
330
8AE
100
AcDbEntity
  8
LAYER2
  6
CONTINUOUS
100
AcDbCircle
 10
0.0
 20
0.0
 30
0.0
 40
3.056499999976027
100
AcDbArc
 50
55.29873886482986
 51
56.2499999999999
  0
ARC
  5
A00
330
8AE
100
AcDbEntity
  8
LAYER2
  6
CONTINUOUS
100
AcDbCircle
 10
0.0
 20
0.0
 30
0.0
 40
3.056499999976027
100
AcDbArc
 50
48.74999999999996
 51
49.70126113516999
  0
ARC
  5
A01
330
8AE
100
AcDbEntity
  8
LAYER2
  6
CONTINUOUS
100
AcDbCircle
 10
1.412710470080821
 20
2.739155550164492
 30
0.0
 40
0.0240000000000008
100
AcDbArc
 50
254.9999999999998
 51
313.5000000000001
  0
LINE
  5
A02
330
8AE
100
AcDbEntity
  8
LAYER2
  6
CONTINUOUS
100
AcDbLine
 10
1.40649881295277
 20
2.7159733302721
 30
0.0
 11
1.397179650528259
 21
2.718470392335217
 31
0.0
  0
LINE
  5
A03
330
8AE
100
AcDbEntity
  8
LAYER2
  6
CONTINUOUS
100
AcDbLine
 10
1.44317822673648
 20
2.734982008361907
 30
0.0
 11
1.429230979902711
 21
2.721746565259366
 31
0.0
  0
ARC
  5
A04
330
8AE
100
AcDbEntity
  8
LAYER2
  6
CONTINUOUS
100
AcDbCircle
 10
1.453410844723673
 20
2.724014167684354
 30
0.0
 40
0.015
100
AcDbArc
 50
61.95470641160102
 51
133.0138032664513
  0
ARC
  5
A05
330
8AE
100
AcDbEntity
  8
LAYER2
  6
CONTINUOUS
100
AcDbCircle
 10
1.632360047121541
 20
2.620697797508677
 30
0.0
 40
0.015
100
AcDbArc
 50
346.9861967335472
 51
58.04529358839978
  0
LINE
  5
A06
330
8AE
100
AcDbEntity
  8
LAYER2
  6
CONTINUOUS
100
AcDbLine
 10
1.646974784766558
 20
2.617320010723322
 30
0.0
 11
1.642486178226298
 21
2.598623619101156
 31
0.0
  0
LINE
  5
A07
330
8AE
100
AcDbEntity
  8
LAYER2
  6
CONTINUOUS
100
AcDbLine
 10
1.64885249354028
 20
2.576050367545804
 30
0.0
 11
1.655674593934021
 21
2.569228267175743
 31
0.0
  0
ARC
  5
A08
330
8AE
100
AcDbEntity
  8
LAYER2
  6
CONTINUOUS
100
AcDbCircle
 10
1.665823056319182
 20
2.593020930364491
 30
0.0
 40
0.0240000000000008
100
AcDbArc
 50
166.5000000000004
 51
225.0
  0
ARC
  5
A09
330
8AE
100
AcDbEntity
  8
LAYER2
  6
CONTINUOUS
100
AcDbCircle
 10
0.0
 20
0.0
 30
0.0
 40
3.102500000001785
100
AcDbArc
 50
58.08218602256655
 51
61.91781397743339
  0
ARC
  5
A0A
330
8AE
100
AcDbEntity
  8
LAYER2
  6
CONTINUOUS
100
AcDbCircle
 10
0.0
 20
0.0
 30
0.0
 40
3.056499999976028
100
AcDbArc
 50
62.79873886482986
 51
63.74999999999989
  0
ARC
  5
A0B
330
8AE
100
AcDbEntity
  8
LAYER2
  6
CONTINUOUS
100
AcDbCircle
 10
0.0
 20
0.0
 30
0.0
 40
3.056499999976028
100
AcDbArc
 50
56.24999999999995
 51
57.20126113516997
  0
ARC
  5
A0C
330
8AE
100
AcDbEntity
  8
LAYER2
  6
CONTINUOUS
100
AcDbCircle
 10
1.043092992309218
 20
2.900117413083186
 30
0.0
 40
0.0240000000000008
100
AcDbArc
 50
262.4999999999995
 51
321.0000000000019
  0
LINE
  5
A0D
330
8AE
100
AcDbEntity
  8
LAYER2
  6
CONTINUOUS
100
AcDbLine
 10
1.039960363658757
 20
2.876322736343337
 30
0.0
 11
1.030394995957832
 21
2.877582040908393
 31
0.0
  0
LINE
  5
A0E
330
8AE
100
AcDbEntity
  8
LAYER2
  6
CONTINUOUS
100
AcDbLine
 10
1.073844849602621
 20
2.899956416771035
 30
0.0
 11
1.061744495389489
 21
2.885013723697851
 31
0.0
  0
ARC
  5
A0F
330
8AE
100
AcDbEntity
  8
LAYER2
  6
CONTINUOUS
100
AcDbCircle
 10
1.085421516604942
 20
2.89041803215322
 30
0.0
 40
0.015
100
AcDbArc
 50
69.45470641160031
 51
140.5138032664531
  0
ARC
  5
A10
330
8AE
100
AcDbEntity
  8
LAYER2
  6
CONTINUOUS
100
AcDbCircle
 10
1.276325276162279
 20
2.811343105836559
 30
0.0
 40
0.015
100
AcDbArc
 50
354.4861967335473
 51
65.54529358840047
  0
LINE
  5
A11
330
8AE
100
AcDbEntity
  8
LAYER2
  6
CONTINUOUS
100
AcDbLine
 10
1.291255872347981
 20
2.809901822540502
 30
0.0
 11
1.289246035265608
 21
2.790779500420399
 31
0.0
  0
LINE
  5
A12
330
8AE
100
AcDbEntity
  8
LAYER2
  6
CONTINUOUS
100
AcDbLine
 10
1.298504286441086
 20
2.769230337057754
 30
0.0
 11
1.306158485604484
 21
2.763357063489418
 31
0.0
  0
ARC
  5
A13
330
8AE
100
AcDbEntity
  8
LAYER2
  6
CONTINUOUS
100
AcDbCircle
 10
1.313114560758295
 20
2.788270817298323
 30
0.0
 40
0.0240000000000008
100
AcDbArc
 50
173.9999999999989
 51
232.5000000000009
  0
ARC
  5
A14
330
8AE
100
AcDbEntity
  8
LAYER2
  6
CONTINUOUS
100
AcDbCircle
 10
0.0
 20
0.0
 30
0.0
 40
3.102500000001785
100
AcDbArc
 50
65.58218602256656
 51
69.41781397743341
  0
ARC
  5
A15
330
8AE
100
AcDbEntity
  8
LAYER2
  6
CONTINUOUS
100
AcDbCircle
 10
0.0
 20
0.0
 30
0.0
 40
3.056499999976028
100
AcDbArc
 50
70.29873886482987
 51
71.2499999999999
  0
ARC
  5
A16
330
8AE
100
AcDbEntity
  8
LAYER2
  6
CONTINUOUS
100
AcDbCircle
 10
0.0
 20
0.0
 30
0.0
 40
3.056499999976028
100
AcDbArc
 50
63.74999999999996
 51
64.70126113517
  0
ARC
  5
A17
330
8AE
100
AcDbEntity
  8
LAYER2
  6
CONTINUOUS
100
AcDbCircle
 10
0.6556279042391914
 20
3.011457462999575
 30
0.0
 40
0.0240000000000008
100
AcDbArc
 50
269.9999999999992
 51
328.4999999999993
  0
LINE
  5
A18
330
8AE
100
AcDbEntity
  8
LAYER2
  6
CONTINUOUS
100
AcDbLine
 10
0.6556279042110592
 20
2.987457462928416
 30
0.0
 11
0.6459799973271034
 21
2.98745746294516
 31
0.0
  0
LINE
  5
A19
330
8AE
100
AcDbEntity
  8
LAYER2
  6
CONTINUOUS
100
AcDbLine
 10
0.6861376893660228
 20
3.015311766869395
 30
0.0
 11
0.6760912681889661
 21
2.998917497446946
 31
0.0
  0
ARC
  5
A1A
330
8AE
100
AcDbEntity
  8
LAYER2
  6
CONTINUOUS
100
AcDbCircle
 10
0.6988603254014036
 20
3.007366042716668
 30
0.0
 40
0.015
100
AcDbArc
 50
76.95470641159999
 51
148.0138032664513
  0
ARC
  5
A1B
330
8AE
100
AcDbEntity
  8
LAYER2
  6
CONTINUOUS
100
AcDbCircle
 10
0.8984522258636615
 20
2.953885554172013
 30
0.0
 40
0.015
100
AcDbArc
 50
1.986196733547467
 51
73.0452935884001
  0
LINE
  5
A1C
330
8AE
100
AcDbEntity
  8
LAYER2
  6
CONTINUOUS
100
AcDbLine
 10
0.9134432139497681
 20
2.954405435122048
 30
0.0
 11
0.9139465351949928
 21
2.935184370737193
 31
0.0
  0
LINE
  5
A1D
330
8AE
100
AcDbEntity
  8
LAYER2
  6
CONTINUOUS
100
AcDbLine
 10
0.9259383109874824
 20
2.915028007726945
 30
0.0
 11
0.9342936434507068
 21
2.910204054299468
 31
0.0
  0
ARC
  5
A1E
330
8AE
100
AcDbEntity
  8
LAYER2
  6
CONTINUOUS
100
AcDbCircle
 10
0.937938310998699
 20
2.935812617493463
 30
0.0
 40
0.0240000000000008
100
AcDbArc
 50
181.5000000000006
 51
240.0000000000009
  0
ARC
  5
A1F
330
8AE
100
AcDbEntity
  8
LAYER2
  6
CONTINUOUS
100
AcDbCircle
 10
0.0
 20
0.0
 30
0.0
 40
3.102500000001785
100
AcDbArc
 50
73.08218602256656
 51
76.9178139774334
  0
ARC
  5
A20
330
8AE
100
AcDbEntity
  8
LAYER2
  6
CONTINUOUS
100
AcDbCircle
 10
0.0
 20
0.0
 30
0.0
 40
3.056499999976028
100
AcDbArc
 50
77.79873886482987
 51
78.7499999999999
  0
ARC
  5
A21
330
8AE
100
AcDbEntity
  8
LAYER2
  6
CONTINUOUS
100
AcDbCircle
 10
0.0
 20
0.0
 30
0.0
 40
3.056499999976028
100
AcDbArc
 50
71.24999999999996
 51
72.20126113516999
  0
ARC
  5
A22
330
8AE
100
AcDbEntity
  8
LAYER2
  6
CONTINUOUS
100
AcDbCircle
 10
0.2569448409532359
 20
3.071270640790295
 30
0.0
 40
0.0240000000000008
100
AcDbArc
 50
277.4999999999993
 51
335.9999999999999
  0
LINE
  5
A23
330
8AE
100
AcDbEntity
  8
LAYER2
  6
CONTINUOUS
100
AcDbLine
 10
0.2600774695479139
 20
3.047475964043101
 30
0.0
 11
0.2505121018426174
 21
3.046216659511245
 31
0.0
  0
LINE
  5
A24
330
8AE
100
AcDbEntity
  8
LAYER2
  6
CONTINUOUS
100
AcDbLine
 10
0.2866905230310655
 20
3.079074296634258
 30
0.0
 11
0.2788699319418175
 21
3.061508961357714
 31
0.0
  0
ARC
  5
A25
330
8AE
100
AcDbEntity
  8
LAYER2
  6
CONTINUOUS
100
AcDbCircle
 10
0.3003414402695594
 20
3.072857186489843
 30
0.0
 40
0.015
100
AcDbArc
 50
84.4547064116002
 51
155.5138032664523
  0
ARC
  5
A26
330
8AE
100
AcDbEntity
  8
LAYER2
  6
CONTINUOUS
100
AcDbCircle
 10
0.5052064088824999
 20
3.045886201703786
 30
0.0
 40
0.015
100
AcDbArc
 50
9.486196733547034
 51
80.54529358839963
  0
LINE
  5
A27
330
8AE
100
AcDbEntity
  8
LAYER2
  6
CONTINUOUS
100
AcDbLine
 10
0.5200012889065706
 20
3.04835835159272
 30
0.0
 11
0.5230091565133406
 21
3.029367422683822
 31
0.0
  0
LINE
  5
A28
330
8AE
100
AcDbEntity
  8
LAYER2
  6
CONTINUOUS
100
AcDbLine
 10
0.5375292743142839
 20
3.010948740985477
 30
0.0
 11
0.5464427780223529
 21
3.007256646879456
 31
0.0
  0
ARC
  5
A29
330
8AE
100
AcDbEntity
  8
LAYER2
  6
CONTINUOUS
100
AcDbCircle
 10
0.5467136766922869
 20
3.033121849842257
 30
0.0
 40
0.0240000000000008
100
AcDbArc
 50
188.9999999999997
 51
247.4999999999997
  0
ARC
  5
A2A
330
8AE
100
AcDbEntity
  8
LAYER2
  6
CONTINUOUS
100
AcDbCircle
 10
0.0
 20
0.0
 30
0.0
 40
3.102500000001785
100
AcDbArc
 50
80.58218602256655
 51
84.4178139774334
  0
ARC
  5
A2B
330
8AE
100
AcDbEntity
  8
LAYER2
  6
CONTINUOUS
100
AcDbCircle
 10
0.0
 20
0.0
 30
0.0
 40
3.056499999976028
100
AcDbArc
 50
85.29873886482986
 51
86.24999999999989
  0
ARC
  5
A2C
330
8AE
100
AcDbEntity
  8
LAYER2
  6
CONTINUOUS
100
AcDbCircle
 10
0.0
 20
0.0
 30
0.0
 40
3.056499999976028
100
AcDbArc
 50
78.74999999999994
 51
79.70126113516997
  0
ARC
  5
A2D
330
8AE
100
AcDbEntity
  8
LAYER2
  6
CONTINUOUS
100
AcDbCircle
 10
-0.1461346197999992
 20
3.0785335264
 30
0.0
 40
0.0240000000000008
100
AcDbArc
 50
284.9999999999992
 51
343.5000000000006
  0
LINE
  5
A2E
330
8AE
100
AcDbEntity
  8
LAYER2
  6
CONTINUOUS
100
AcDbLine
 10
-0.1399229627262948
 20
3.055351306493047
 30
0.0
 11
-0.1492421251594734
 21
3.052854244462277
 31
0.0
  0
LINE
  5
A2F
330
8AE
100
AcDbEntity
  8
LAYER2
  6
CONTINUOUS
100
AcDbLine
 10
-0.1176619976385842
 20
3.090153011503035
 30
0.0
 11
-0.1231229461582091
 21
3.071717158129007
 31
0.0
  0
ARC
  5
A30
330
8AE
100
AcDbEntity
  8
LAYER2
  6
CONTINUOUS
100
AcDbCircle
 10
-0.1033163701756771
 20
3.085770891845211
 30
0.0
 40
0.015
100
AcDbArc
 50
91.9547064116
 51
163.0138032664526
  0
ARC
  5
A31
330
8AE
100
AcDbEntity
  8
LAYER2
  6
CONTINUOUS
100
AcDbCircle
 10
0.1033163701756787
 20
3.085770891845211
 30
0.0
 40
0.015
100
AcDbArc
 50
16.98619673354744
 51
88.04529358839983
  0
LINE
  5
A32
330
8AE
100
AcDbEntity
  8
LAYER2
  6
CONTINUOUS
100
AcDbLine
 10
0.1176619976385858
 20
3.090153011503035
 30
0.0
 11
0.1231229461582107
 21
3.071717158129007
 31
0.0
  0
LINE
  5
A33
330
8AE
100
AcDbEntity
  8
LAYER2
  6
CONTINUOUS
100
AcDbLine
 10
0.1399229627262964
 20
3.055351306493047
 30
0.0
 11
0.1492421251594749
 21
3.052854244462277
 31
0.0
  0
ARC
  5
A34
330
8AE
100
AcDbEntity
  8
LAYER2
  6
CONTINUOUS
100
AcDbCircle
 10
0.1461346198000008
 20
3.0785335264
 30
0.0
 40
0.0240000000000008
100
AcDbArc
 50
196.4999999999993
 51
255.0000000000007
  0
ARC
  5
A35
330
8AE
100
AcDbEntity
  8
LAYER2
  6
CONTINUOUS
100
AcDbCircle
 10
0.0
 20
0.0
 30
0.0
 40
3.102500000001785
100
AcDbArc
 50
88.08218602256656
 51
91.91781397743341
  0
ARC
  5
A36
330
8AE
100
AcDbEntity
  8
LAYER2
  6
CONTINUOUS
100
AcDbCircle
 10
0.0
 20
0.0
 30
0.0
 40
3.056499999976028
100
AcDbArc
 50
92.79873886482989
 51
93.7499999999999
  0
ARC
  5
A37
330
8AE
100
AcDbEntity
  8
LAYER2
  6
CONTINUOUS
100
AcDbCircle
 10
0.0
 20
0.0
 30
0.0
 40
3.056499999976028
100
AcDbArc
 50
86.24999999999996
 51
87.20126113517
  0
ARC
  5
A38
330
8AE
100
AcDbEntity
  8
LAYER2
  6
CONTINUOUS
100
AcDbCircle
 10
-0.546713676692284
 20
3.033121849842257
 30
0.0
 40
0.0240000000000008
100
AcDbArc
 50
292.499999999999
 51
351.0000000000003
  0
LINE
  5
A39
330
8AE
100
AcDbEntity
  8
LAYER2
  6
CONTINUOUS
100
AcDbLine
 10
-0.537529274314281
 20
3.010948740985478
 30
0.0
 11
-0.5464427780223501
 21
3.007256646879457
 31
0.0
  0
LINE
  5
A3A
330
8AE
100
AcDbEntity
  8
LAYER2
  6
CONTINUOUS
100
AcDbLine
 10
-0.5200012889065677
 20
3.04835835159272
 30
0.0
 11
-0.5230091565133377
 21
3.029367422683823
 31
0.0
  0
ARC
  5
A3B
330
8AE
100
AcDbEntity
  8
LAYER2
  6
CONTINUOUS
100
AcDbCircle
 10
-0.5052064088824971
 20
3.045886201703786
 30
0.0
 40
0.015
100
AcDbArc
 50
99.45470641159994
 51
170.513803266453
  0
ARC
  5
A3C
330
8AE
100
AcDbEntity
  8
LAYER2
  6
CONTINUOUS
100
AcDbCircle
 10
-0.3003414402695566
 20
3.072857186489844
 30
0.0
 40
0.015
100
AcDbArc
 50
24.48619673354586
 51
95.5452935883998
  0
LINE
  5
A3D
330
8AE
100
AcDbEntity
  8
LAYER2
  6
CONTINUOUS
100
AcDbLine
 10
-0.2866905230310627
 20
3.079074296634258
 30
0.0
 11
-0.2788699319418146
 21
3.061508961357714
 31
0.0
  0
LINE
  5
A3E
330
8AE
100
AcDbEntity
  8
LAYER2
  6
CONTINUOUS
100
AcDbLine
 10
-0.260077469547911
 20
3.047475964043101
 30
0.0
 11
-0.2505121018426147
 21
3.046216659511246
 31
0.0
  0
ARC
  5
A3F
330
8AE
100
AcDbEntity
  8
LAYER2
  6
CONTINUOUS
100
AcDbCircle
 10
-0.256944840953233
 20
3.071270640790295
 30
0.0
 40
0.0240000000000008
100
AcDbArc
 50
204.0000000000001
 51
262.5000000000006
  0
ARC
  5
A40
330
8AE
100
AcDbEntity
  8
LAYER2
  6
CONTINUOUS
100
AcDbCircle
 10
0.0
 20
0.0
 30
0.0
 40
3.102500000001785
100
AcDbArc
 50
95.58218602256655
 51
99.4178139774334
  0
ARC
  5
A41
330
8AE
100
AcDbEntity
  8
LAYER2
  6
CONTINUOUS
100
AcDbCircle
 10
0.0
 20
0.0
 30
0.0
 40
3.056499999976028
100
AcDbArc
 50
100.2987388648299
 51
101.2499999999999
  0
ARC
  5
A42
330
8AE
100
AcDbEntity
  8
LAYER2
  6
CONTINUOUS
100
AcDbCircle
 10
0.0
 20
0.0
 30
0.0
 40
3.056499999976028
100
AcDbArc
 50
93.74999999999997
 51
94.70126113516999
  0
ARC
  5
A43
330
8AE
100
AcDbEntity
  8
LAYER2
  6
CONTINUOUS
100
AcDbCircle
 10
-0.9379383109986961
 20
2.935812617493464
 30
0.0
 40
0.0240000000000008
100
AcDbArc
 50
299.9999999999989
 51
358.5000000000015
  0
LINE
  5
A44
330
8AE
100
AcDbEntity
  8
LAYER2
  6
CONTINUOUS
100
AcDbLine
 10
-0.9259383109874796
 20
2.915028007726946
 30
0.0
 11
-0.9342936434507041
 21
2.910204054299469
 31
0.0
  0
LINE
  5
A45
330
8AE
100
AcDbEntity
  8
LAYER2
  6
CONTINUOUS
100
AcDbLine
 10
-0.9134432139497654
 20
2.954405435122049
 30
0.0
 11
-0.91394653519499
 21
2.935184370737193
 31
0.0
  0
ARC
  5
A46
330
8AE
100
AcDbEntity
  8
LAYER2
  6
CONTINUOUS
100
AcDbCircle
 10
-0.8984522258636587
 20
2.953885554172014
 30
0.0
 40
0.015
100
AcDbArc
 50
106.9547064115999
 51
178.0138032664526
  0
ARC
  5
A47
330
8AE
100
AcDbEntity
  8
LAYER2
  6
CONTINUOUS
100
AcDbCircle
 10
-0.6988603254014009
 20
3.007366042716669
 30
0.0
 40
0.015
100
AcDbArc
 50
31.98619673354685
 51
103.0452935883996
  0
LINE
  5
A48
330
8AE
100
AcDbEntity
  8
LAYER2
  6
CONTINUOUS
100
AcDbLine
 10
-0.68613768936602
 20
3.015311766869396
 30
0.0
 11
-0.6760912681889633
 21
2.998917497446947
 31
0.0
  0
LINE
  5
A49
330
8AE
100
AcDbEntity
  8
LAYER2
  6
CONTINUOUS
100
AcDbLine
 10
-0.6556279042110564
 20
2.987457462928417
 30
0.0
 11
-0.6459799973271008
 21
2.987457462945161
 31
0.0
  0
ARC
  5
A4A
330
8AE
100
AcDbEntity
  8
LAYER2
  6
CONTINUOUS
100
AcDbCircle
 10
-0.6556279042391884
 20
3.011457462999576
 30
0.0
 40
0.0240000000000008
100
AcDbArc
 50
211.4999999999984
 51
270.0000000000005
  0
ARC
  5
A4B
330
8AE
100
AcDbEntity
  8
LAYER2
  6
CONTINUOUS
100
AcDbCircle
 10
0.0
 20
0.0
 30
0.0
 40
3.102500000001785
100
AcDbArc
 50
103.0821860225665
 51
106.9178139774334
  0
ARC
  5
A4C
330
8AE
100
AcDbEntity
  8
LAYER2
  6
CONTINUOUS
100
AcDbCircle
 10
0.0
 20
0.0
 30
0.0
 40
3.056499999976028
100
AcDbArc
 50
107.7987388648299
 51
108.7499999999999
  0
ARC
  5
A4D
330
8AE
100
AcDbEntity
  8
LAYER2
  6
CONTINUOUS
100
AcDbCircle
 10
0.0
 20
0.0
 30
0.0
 40
3.056499999976028
100
AcDbArc
 50
101.2499999999999
 51
102.20126113517
  0
ARC
  5
A4E
330
8AE
100
AcDbEntity
  8
LAYER2
  6
CONTINUOUS
100
AcDbCircle
 10
-1.313114560758292
 20
2.788270817298325
 30
0.0
 40
0.0240000000000008
100
AcDbArc
 50
307.4999999999991
 51
6.000000000001097
  0
LINE
  5
A4F
330
8AE
100
AcDbEntity
  8
LAYER2
  6
CONTINUOUS
100
AcDbLine
 10
-1.298504286441083
 20
2.769230337057755
 30
0.0
 11
-1.306158485604481
 21
2.763357063489419
 31
0.0
  0
LINE
  5
A50
330
8AE
100
AcDbEntity
  8
LAYER2
  6
CONTINUOUS
100
AcDbLine
 10
-1.291255872347978
 20
2.809901822540503
 30
0.0
 11
-1.289246035265605
 21
2.7907795004204
 31
0.0
  0
ARC
  5
A51
330
8AE
100
AcDbEntity
  8
LAYER2
  6
CONTINUOUS
100
AcDbCircle
 10
-1.276325276162276
 20
2.81134310583656
 30
0.0
 40
0.015
100
AcDbArc
 50
114.4547064115995
 51
185.5138032664527
  0
ARC
  5
A52
330
8AE
100
AcDbEntity
  8
LAYER2
  6
CONTINUOUS
100
AcDbCircle
 10
-1.085421516604939
 20
2.890418032153221
 30
0.0
 40
0.015
100
AcDbArc
 50
39.48619673354749
 51
110.5452935883997
  0
LINE
  5
A53
330
8AE
100
AcDbEntity
  8
LAYER2
  6
CONTINUOUS
100
AcDbLine
 10
-1.073844849602618
 20
2.899956416771036
 30
0.0
 11
-1.061744495389486
 21
2.885013723697852
 31
0.0
  0
LINE
  5
A54
330
8AE
100
AcDbEntity
  8
LAYER2
  6
CONTINUOUS
100
AcDbLine
 10
-1.039960363658754
 20
2.876322736343337
 30
0.0
 11
-1.030394995957829
 21
2.877582040908395
 31
0.0
  0
ARC
  5
A55
330
8AE
100
AcDbEntity
  8
LAYER2
  6
CONTINUOUS
100
AcDbCircle
 10
-1.043092992309215
 20
2.900117413083187
 30
0.0
 40
0.0240000000000008
100
AcDbArc
 50
218.9999999999993
 51
277.5000000000011
  0
ARC
  5
A56
330
8AE
100
AcDbEntity
  8
LAYER2
  6
CONTINUOUS
100
AcDbCircle
 10
0.0
 20
0.0
 30
0.0
 40
3.102500000001784
100
AcDbArc
 50
110.5821860225665
 51
114.4178139774334
  0
ARC
  5
A57
330
8AE
100
AcDbEntity
  8
LAYER2
  6
CONTINUOUS
100
AcDbCircle
 10
0.0
 20
0.0
 30
0.0
 40
3.056499999976027
100
AcDbArc
 50
115.2987388648299
 51
116.2499999999999
  0
ARC
  5
A58
330
8AE
100
AcDbEntity
  8
LAYER2
  6
CONTINUOUS
100
AcDbCircle
 10
0.0
 20
0.0
 30
0.0
 40
3.056499999976027
100
AcDbArc
 50
108.7499999999999
 51
109.70126113517
  0
ARC
  5
A59
330
8AE
100
AcDbEntity
  8
LAYER2
  6
CONTINUOUS
100
AcDbCircle
 10
-1.665823056319179
 20
2.593020930364493
 30
0.0
 40
0.0240000000000008
100
AcDbArc
 50
315.0
 51
13.50000000000077
  0
LINE
  5
A5A
330
8AE
100
AcDbEntity
  8
LAYER2
  6
CONTINUOUS
100
AcDbLine
 10
-1.648852493540277
 20
2.576050367545806
 30
0.0
 11
-1.655674593934019
 21
2.569228267175744
 31
0.0
  0
LINE
  5
A5B
330
8AE
100
AcDbEntity
  8
LAYER2
  6
CONTINUOUS
100
AcDbLine
 10
-1.646974784766555
 20
2.617320010723323
 30
0.0
 11
-1.642486178226296
 21
2.598623619101157
 31
0.0
  0
ARC
  5
A5C
330
8AE
100
AcDbEntity
  8
LAYER2
  6
CONTINUOUS
100
AcDbCircle
 10
-1.632360047121538
 20
2.620697797508678
 30
0.0
 40
0.015
100
AcDbArc
 50
121.9547064116002
 51
193.0138032664544
  0
ARC
  5
A5D
330
8AE
100
AcDbEntity
  8
LAYER2
  6
CONTINUOUS
100
AcDbCircle
 10
-1.45341084472367
 20
2.724014167684356
 30
0.0
 40
0.015
100
AcDbArc
 50
46.98619673354631
 51
118.0452935883997
  0
LINE
  5
A5E
330
8AE
100
AcDbEntity
  8
LAYER2
  6
CONTINUOUS
100
AcDbLine
 10
-1.443178226736477
 20
2.734982008361908
 30
0.0
 11
-1.429230979902709
 21
2.721746565259367
 31
0.0
  0
LINE
  5
A5F
330
8AE
100
AcDbEntity
  8
LAYER2
  6
CONTINUOUS
100
AcDbLine
 10
-1.406498812952767
 20
2.715973330272102
 30
0.0
 11
-1.397179650528256
 21
2.718470392335218
 31
0.0
  0
ARC
  5
A60
330
8AE
100
AcDbEntity
  8
LAYER2
  6
CONTINUOUS
100
AcDbCircle
 10
-1.412710470080818
 20
2.739155550164493
 30
0.0
 40
0.0240000000000008
100
AcDbArc
 50
226.4999999999999
 51
285.0000000000002
  0
ARC
  5
A61
330
8AE
100
AcDbEntity
  8
LAYER2
  6
CONTINUOUS
100
AcDbCircle
 10
0.0
 20
0.0
 30
0.0
 40
3.102500000001785
100
AcDbArc
 50
118.0821860225665
 51
121.9178139774334
  0
ARC
  5
A62
330
8AE
100
AcDbEntity
  8
LAYER2
  6
CONTINUOUS
100
AcDbCircle
 10
0.0
 20
0.0
 30
0.0
 40
3.056499999976028
100
AcDbArc
 50
122.7987388648299
 51
123.7499999999999
  0
ARC
  5
A63
330
8AE
100
AcDbEntity
  8
LAYER2
  6
CONTINUOUS
100
AcDbCircle
 10
0.0
 20
0.0
 30
0.0
 40
3.056499999976028
100
AcDbArc
 50
116.2499999999999
 51
117.20126113517
  0
ARC
  5
A64
330
8AE
100
AcDbEntity
  8
LAYER2
  6
CONTINUOUS
100
AcDbCircle
 10
-1.990028857533038
 20
2.353403736390902
 30
0.0
 40
0.0240000000000008
100
AcDbArc
 50
322.4999999999994
 51
21.00000000000059
  0
LINE
  5
A65
330
8AE
100
AcDbEntity
  8
LAYER2
  6
CONTINUOUS
100
AcDbLine
 10
-1.97098837732672
 20
2.338793462029055
 30
0.0
 11
-1.976861650921624
 21
2.331139262886043
 31
0.0
  0
LINE
  5
A66
330
8AE
100
AcDbEntity
  8
LAYER2
  6
CONTINUOUS
100
AcDbLine
 10
-1.974513501990099
 20
2.379955127864467
 30
0.0
 11
-1.967622927294333
 21
2.362004567184513
 31
0.0
  0
ARC
  5
A67
330
8AE
100
AcDbEntity
  8
LAYER2
  6
CONTINUOUS
100
AcDbCircle
 10
-1.960464685098844
 20
2.385211623270723
 30
0.0
 40
0.015
100
AcDbArc
 50
129.4547064115997
 51
200.5138032664525
  0
ARC
  5
A68
330
8AE
100
AcDbEntity
  8
LAYER2
  6
CONTINUOUS
100
AcDbCircle
 10
-1.796531910327564
 20
2.511001665567003
 30
0.0
 40
0.015
100
AcDbArc
 50
54.48619673354759
 51
125.5452935883997
  0
LINE
  5
A69
330
8AE
100
AcDbEntity
  8
LAYER2
  6
CONTINUOUS
100
AcDbLine
 10
-1.787818424286277
 20
2.523211299509439
 30
0.0
 11
-1.772262926092105
 21
2.511909568478584
 31
0.0
  0
LINE
  5
A6A
330
8AE
100
AcDbEntity
  8
LAYER2
  6
CONTINUOUS
100
AcDbLine
 10
-1.748971677602015
 20
2.509152867509843
 30
0.0
 11
-1.740058173906761
 21
2.512844961646803
 31
0.0
  0
ARC
  5
A6B
330
8AE
100
AcDbEntity
  8
LAYER2
  6
CONTINUOUS
100
AcDbCircle
 10
-1.758156080031999
 20
2.53132597634509
 30
0.0
 40
0.0240000000000008
100
AcDbArc
 50
233.9999999999994
 51
292.5000000000006
  0
ARC
  5
A6C
330
8AE
100
AcDbEntity
  8
LAYER2
  6
CONTINUOUS
100
AcDbCircle
 10
0.0
 20
0.0
 30
0.0
 40
3.102500000001785
100
AcDbArc
 50
125.5821860225666
 51
129.4178139774334
  0
ARC
  5
A6D
330
8AE
100
AcDbEntity
  8
LAYER2
  6
CONTINUOUS
100
AcDbCircle
 10
0.0
 20
0.0
 30
0.0
 40
3.056499999976028
100
AcDbArc
 50
130.2987388648299
 51
131.2499999999999
  0
ARC
  5
A6E
330
8AE
100
AcDbEntity
  8
LAYER2
  6
CONTINUOUS
100
AcDbCircle
 10
0.0
 20
0.0
 30
0.0
 40
3.056499999976028
100
AcDbArc
 50
123.75
 51
124.70126113517
  0
ARC
  5
A6F
330
8AE
100
AcDbEntity
  8
LAYER2
  6
CONTINUOUS
100
AcDbCircle
 10
-2.280184713254272
 20
2.073519152000879
 30
0.0
 40
0.0240000000000008
100
AcDbArc
 50
329.9999999999988
 51
28.50000000000049
  0
LINE
  5
A70
330
8AE
100
AcDbEntity
  8
LAYER2
  6
CONTINUOUS
100
AcDbLine
 10
-2.259400103515885
 20
2.061519151940936
 30
0.0
 11
-2.264224056972365
 21
2.053163819494456
 31
0.0
  0
LINE
  5
A71
330
8AE
100
AcDbEntity
  8
LAYER2
  6
CONTINUOUS
100
AcDbLine
 10
-2.268267745756025
 20
2.10186855291963
 30
0.0
 11
-2.259093102548226
 21
2.084970962251957
 31
0.0
  0
ARC
  5
A72
330
8AE
100
AcDbEntity
  8
LAYER2
  6
CONTINUOUS
100
AcDbCircle
 10
-2.255025228770609
 20
2.108913816853009
 30
0.0
 40
0.015
100
AcDbArc
 50
136.9547064115982
 51
208.0138032664522
  0
ARC
  5
A73
330
8AE
100
AcDbEntity
  8
LAYER2
  6
CONTINUOUS
100
AcDbCircle
 10
-2.108913816853006
 20
2.255025228770612
 30
0.0
 40
0.015
100
AcDbArc
 50
61.98619673354782
 51
133.0452935883995
  0
LINE
  5
A74
330
8AE
100
AcDbEntity
  8
LAYER2
  6
CONTINUOUS
100
AcDbLine
 10
-2.101868552919627
 20
2.268267745756028
 30
0.0
 11
-2.084970962251953
 21
2.259093102548229
 31
0.0
  0
LINE
  5
A75
330
8AE
100
AcDbEntity
  8
LAYER2
  6
CONTINUOUS
100
AcDbLine
 10
-2.061519151940933
 20
2.259400103515889
 30
0.0
 11
-2.053163819494453
 21
2.264224056972367
 31
0.0
  0
ARC
  5
A76
330
8AE
100
AcDbEntity
  8
LAYER2
  6
CONTINUOUS
100
AcDbCircle
 10
-2.073519152000876
 20
2.280184713254275
 30
0.0
 40
0.0240000000000008
100
AcDbArc
 50
241.4999999999986
 51
300.0000000000002
  0
ARC
  5
A77
330
8AE
100
AcDbEntity
  8
LAYER2
  6
CONTINUOUS
100
AcDbCircle
 10
0.0
 20
0.0
 30
0.0
 40
3.102500000001785
100
AcDbArc
 50
133.0821860225666
 51
136.9178139774334
  0
ARC
  5
A78
330
8AE
100
AcDbEntity
  8
LAYER2
  6
CONTINUOUS
100
AcDbCircle
 10
0.0
 20
0.0
 30
0.0
 40
3.056499999976028
100
AcDbArc
 50
137.7987388648299
 51
138.7499999999999
  0
ARC
  5
A79
330
8AE
100
AcDbEntity
  8
LAYER2
  6
CONTINUOUS
100
AcDbCircle
 10
0.0
 20
0.0
 30
0.0
 40
3.056499999976028
100
AcDbArc
 50
131.2499999999999
 51
132.2012611351699
  0
ARC
  5
A7A
330
8AE
100
AcDbEntity
  8
LAYER2
  6
CONTINUOUS
100
AcDbCircle
 10
-2.531325976345089
 20
1.758156080032002
 30
0.0
 40
0.0240000000000008
100
AcDbArc
 50
337.4999999999994
 51
36.00000000000101
  0
LINE
  5
A7B
330
8AE
100
AcDbEntity
  8
LAYER2
  6
CONTINUOUS
100
AcDbLine
 10
-2.509152867509841
 20
1.748971677602017
 30
0.0
 11
-2.512844961646802
 21
1.740058173906764
 31
0.0
  0
LINE
  5
A7C
330
8AE
100
AcDbEntity
  8
LAYER2
  6
CONTINUOUS
100
AcDbLine
 10
-2.523211299509437
 20
1.787818424286279
 30
0.0
 11
-2.511909568478583
 21
1.772262926092108
 31
0.0
  0
ARC
  5
A7D
330
8AE
100
AcDbEntity
  8
LAYER2
  6
CONTINUOUS
100
AcDbCircle
 10
-2.511001665567001
 20
1.796531910327566
 30
0.0
 40
0.015
100
AcDbArc
 50
144.4547064116003
 51
215.5138032664517
  0
ARC
  5
A7E
330
8AE
100
AcDbEntity
  8
LAYER2
  6
CONTINUOUS
100
AcDbCircle
 10
-2.385211623270722
 20
1.960464685098846
 30
0.0
 40
0.015
100
AcDbArc
 50
69.48619673354746
 51
140.5452935883997
  0
LINE
  5
A7F
330
8AE
100
AcDbEntity
  8
LAYER2
  6
CONTINUOUS
100
AcDbLine
 10
-2.379955127864466
 20
1.974513501990101
 30
0.0
 11
-2.362004567184511
 21
1.967622927294335
 31
0.0
  0
LINE
  5
A80
330
8AE
100
AcDbEntity
  8
LAYER2
  6
CONTINUOUS
100
AcDbLine
 10
-2.338793462029054
 20
1.970988377326722
 30
0.0
 11
-2.331139262886042
 21
1.976861650921626
 31
0.0
  0
ARC
  5
A81
330
8AE
100
AcDbEntity
  8
LAYER2
  6
CONTINUOUS
100
AcDbCircle
 10
-2.3534037363909
 20
1.990028857533041
 30
0.0
 40
0.0240000000000008
100
AcDbArc
 50
248.9999999999996
 51
307.5000000000006
  0
ARC
  5
A82
330
8AE
100
AcDbEntity
  8
LAYER2
  6
CONTINUOUS
100
AcDbCircle
 10
0.0
 20
0.0
 30
0.0
 40
3.102500000001785
100
AcDbArc
 50
140.5821860225666
 51
144.4178139774334
  0
ARC
  5
A83
330
8AE
100
AcDbEntity
  8
LAYER2
  6
CONTINUOUS
100
AcDbCircle
 10
0.0
 20
0.0
 30
0.0
 40
3.056499999976028
100
AcDbArc
 50
145.2987388648299
 51
146.2499999999999
  0
ARC
  5
A84
330
8AE
100
AcDbEntity
  8
LAYER2
  6
CONTINUOUS
100
AcDbCircle
 10
0.0
 20
0.0
 30
0.0
 40
3.056499999976028
100
AcDbArc
 50
138.7499999999999
 51
139.70126113517
  0
ARC
  5
A85
330
8AE
100
AcDbEntity
  8
LAYER2
  6
CONTINUOUS
100
AcDbCircle
 10
-2.739155550164491
 20
1.412710470080822
 30
0.0
 40
0.0240000000000008
100
AcDbArc
 50
344.999999999999
 51
43.50000000000122
  0
LINE
  5
A86
330
8AE
100
AcDbEntity
  8
LAYER2
  6
CONTINUOUS
100
AcDbLine
 10
-2.7159733302721
 20
1.40649881295277
 30
0.0
 11
-2.718470392335217
 21
1.397179650528259
 31
0.0
  0
LINE
  5
A87
330
8AE
100
AcDbEntity
  8
LAYER2
  6
CONTINUOUS
100
AcDbLine
 10
-2.734982008361907
 20
1.44317822673648
 30
0.0
 11
-2.721746565259366
 21
1.429230979902712
 31
0.0
  0
ARC
  5
A88
330
8AE
100
AcDbEntity
  8
LAYER2
  6
CONTINUOUS
100
AcDbCircle
 10
-2.724014167684354
 20
1.453410844723673
 30
0.0
 40
0.015
100
AcDbArc
 50
151.954706411601
 51
223.0138032664513
  0
ARC
  5
A89
330
8AE
100
AcDbEntity
  8
LAYER2
  6
CONTINUOUS
100
AcDbCircle
 10
-2.620697797508676
 20
1.632360047121541
 30
0.0
 40
0.015
100
AcDbArc
 50
76.98619673354725
 51
148.0452935883998
  0
LINE
  5
A8A
330
8AE
100
AcDbEntity
  8
LAYER2
  6
CONTINUOUS
100
AcDbLine
 10
-2.617320010723322
 20
1.646974784766558
 30
0.0
 11
-2.598623619101155
 21
1.642486178226298
 31
0.0
  0
LINE
  5
A8B
330
8AE
100
AcDbEntity
  8
LAYER2
  6
CONTINUOUS
100
AcDbLine
 10
-2.576050367545804
 20
1.64885249354028
 30
0.0
 11
-2.569228267175743
 21
1.655674593934021
 31
0.0
  0
ARC
  5
A8C
330
8AE
100
AcDbEntity
  8
LAYER2
  6
CONTINUOUS
100
AcDbCircle
 10
-2.593020930364491
 20
1.665823056319182
 30
0.0
 40
0.0240000000000008
100
AcDbArc
 50
256.4999999999992
 51
315.0
  0
ARC
  5
A8D
330
8AE
100
AcDbEntity
  8
LAYER2
  6
CONTINUOUS
100
AcDbCircle
 10
0.0
 20
0.0
 30
0.0
 40
3.102500000001785
100
AcDbArc
 50
148.0821860225665
 51
151.9178139774334
  0
ARC
  5
A8E
330
8AE
100
AcDbEntity
  8
LAYER2
  6
CONTINUOUS
100
AcDbCircle
 10
0.0
 20
0.0
 30
0.0
 40
3.056499999976028
100
AcDbArc
 50
152.7987388648299
 51
153.7499999999999
  0
ARC
  5
A8F
330
8AE
100
AcDbEntity
  8
LAYER2
  6
CONTINUOUS
100
AcDbCircle
 10
0.0
 20
0.0
 30
0.0
 40
3.056499999976028
100
AcDbArc
 50
146.2499999999999
 51
147.20126113517
  0
ARC
  5
A90
330
8AE
100
AcDbEntity
  8
LAYER2
  6
CONTINUOUS
100
AcDbCircle
 10
-2.900117413083186
 20
1.043092992309219
 30
0.0
 40
0.0240000000000008
100
AcDbArc
 50
352.4999999999995
 51
51.00000000000074
  0
LINE
  5
A91
330
8AE
100
AcDbEntity
  8
LAYER2
  6
CONTINUOUS
100
AcDbLine
 10
-2.876322736343336
 20
1.039960363658759
 30
0.0
 11
-2.877582040908393
 21
1.030394995957833
 31
0.0
  0
LINE
  5
A92
330
8AE
100
AcDbEntity
  8
LAYER2
  6
CONTINUOUS
100
AcDbLine
 10
-2.899956416771035
 20
1.073844849602622
 30
0.0
 11
-2.88501372369785
 21
1.06174449538949
 31
0.0
  0
ARC
  5
A93
330
8AE
100
AcDbEntity
  8
LAYER2
  6
CONTINUOUS
100
AcDbCircle
 10
-2.89041803215322
 20
1.085421516604943
 30
0.0
 40
0.015
100
AcDbArc
 50
159.4547064116003
 51
230.5138032664531
  0
ARC
  5
A94
330
8AE
100
AcDbEntity
  8
LAYER2
  6
CONTINUOUS
100
AcDbCircle
 10
-2.811343105836559
 20
1.27632527616228
 30
0.0
 40
0.015
100
AcDbArc
 50
84.48619673354725
 51
155.5452935883997
  0
LINE
  5
A95
330
8AE
100
AcDbEntity
  8
LAYER2
  6
CONTINUOUS
100
AcDbLine
 10
-2.809901822540501
 20
1.291255872347982
 30
0.0
 11
-2.790779500420398
 21
1.289246035265609
 31
0.0
  0
LINE
  5
A96
330
8AE
100
AcDbEntity
  8
LAYER2
  6
CONTINUOUS
100
AcDbLine
 10
-2.769230337057753
 20
1.298504286441087
 30
0.0
 11
-2.763357063489417
 21
1.306158485604485
 31
0.0
  0
ARC
  5
A97
330
8AE
100
AcDbEntity
  8
LAYER2
  6
CONTINUOUS
100
AcDbCircle
 10
-2.788270817298323
 20
1.313114560758297
 30
0.0
 40
0.0240000000000008
100
AcDbArc
 50
263.9999999999989
 51
322.5000000000013
  0
ARC
  5
A98
330
8AE
100
AcDbEntity
  8
LAYER2
  6
CONTINUOUS
100
AcDbCircle
 10
0.0
 20
0.0
 30
0.0
 40
3.102500000001785
100
AcDbArc
 50
155.5821860225665
 51
159.4178139774334
  0
ARC
  5
A99
330
8AE
100
AcDbEntity
  8
LAYER2
  6
CONTINUOUS
100
AcDbCircle
 10
0.0
 20
0.0
 30
0.0
 40
3.056499999976028
100
AcDbArc
 50
160.2987388648299
 51
161.2499999999999
  0
ARC
  5
A9A
330
8AE
100
AcDbEntity
  8
LAYER2
  6
CONTINUOUS
100
AcDbCircle
 10
0.0
 20
0.0
 30
0.0
 40
3.056499999976028
100
AcDbArc
 50
153.7499999999999
 51
154.7012611351699
  0
ARC
  5
A9B
330
8AE
100
AcDbEntity
  8
LAYER2
  6
CONTINUOUS
100
AcDbCircle
 10
-3.011457462999575
 20
0.6556279042391928
 30
0.0
 40
0.0240000000000008
100
AcDbArc
 50
359.9999999999995
 51
58.5000000000016
  0
LINE
  5
A9C
330
8AE
100
AcDbEntity
  8
LAYER2
  6
CONTINUOUS
100
AcDbLine
 10
-2.987457462928416
 20
0.6556279042110608
 30
0.0
 11
-2.98745746294516
 21
0.6459799973271051
 31
0.0
  0
LINE
  5
A9D
330
8AE
100
AcDbEntity
  8
LAYER2
  6
CONTINUOUS
100
AcDbLine
 10
-3.015311766869395
 20
0.6861376893660245
 30
0.0
 11
-2.998917497446946
 21
0.6760912681889677
 31
0.0
  0
ARC
  5
A9E
330
8AE
100
AcDbEntity
  8
LAYER2
  6
CONTINUOUS
100
AcDbCircle
 10
-3.007366042716668
 20
0.6988603254014052
 30
0.0
 40
0.015
100
AcDbArc
 50
166.9547064116
 51
238.0138032664532
  0
ARC
  5
A9F
330
8AE
100
AcDbEntity
  8
LAYER2
  6
CONTINUOUS
100
AcDbCircle
 10
-2.953885554172012
 20
0.898452225863663
 30
0.0
 40
0.015
100
AcDbArc
 50
91.98619673354747
 51
163.0452935884001
  0
LINE
  5
AA0
330
8AE
100
AcDbEntity
  8
LAYER2
  6
CONTINUOUS
100
AcDbLine
 10
-2.954405435122047
 20
0.9134432139497696
 30
0.0
 11
-2.935184370737192
 21
0.9139465351949944
 31
0.0
  0
LINE
  5
AA1
330
8AE
100
AcDbEntity
  8
LAYER2
  6
CONTINUOUS
100
AcDbLine
 10
-2.915028007726944
 20
0.9259383109874839
 30
0.0
 11
-2.910204054299467
 21
0.9342936434507082
 31
0.0
  0
ARC
  5
AA2
330
8AE
100
AcDbEntity
  8
LAYER2
  6
CONTINUOUS
100
AcDbCircle
 10
-2.935812617493463
 20
0.9379383109987004
 30
0.0
 40
0.0240000000000008
100
AcDbArc
 50
271.4999999999995
 51
330.0000000000011
  0
ARC
  5
AA3
330
8AE
100
AcDbEntity
  8
LAYER2
  6
CONTINUOUS
100
AcDbCircle
 10
0.0
 20
0.0
 30
0.0
 40
3.102500000001784
100
AcDbArc
 50
163.0821860225665
 51
166.9178139774334
  0
ARC
  5
AA4
330
8AE
100
AcDbEntity
  8
LAYER2
  6
CONTINUOUS
100
AcDbCircle
 10
0.0
 20
0.0
 30
0.0
 40
3.056499999976027
100
AcDbArc
 50
167.7987388648298
 51
168.7499999999999
  0
ARC
  5
AA5
330
8AE
100
AcDbEntity
  8
LAYER2
  6
CONTINUOUS
100
AcDbCircle
 10
0.0
 20
0.0
 30
0.0
 40
3.056499999976027
100
AcDbArc
 50
161.2499999999999
 51
162.2012611351699
  0
ARC
  5
AA6
330
8AE
100
AcDbEntity
  8
LAYER2
  6
CONTINUOUS
100
AcDbCircle
 10
-3.071270640790295
 20
0.2569448409532374
 30
0.0
 40
0.0240000000000008
100
AcDbArc
 50
7.499999999999154
 51
65.99999999999994
  0
LINE
  5
AA7
330
8AE
100
AcDbEntity
  8
LAYER2
  6
CONTINUOUS
100
AcDbLine
 10
-3.047475964043101
 20
0.2600774695479153
 30
0.0
 11
-3.046216659511245
 21
0.250512101842619
 31
0.0
  0
LINE
  5
AA8
330
8AE
100
AcDbEntity
  8
LAYER2
  6
CONTINUOUS
100
AcDbLine
 10
-3.079074296634258
 20
0.2866905230310671
 30
0.0
 11
-3.061508961357713
 21
0.278869931941819
 31
0.0
  0
ARC
  5
AA9
330
8AE
100
AcDbEntity
  8
LAYER2
  6
CONTINUOUS
100
AcDbCircle
 10
-3.072857186489843
 20
0.300341440269561
 30
0.0
 40
0.015
100
AcDbArc
 50
174.4547064115998
 51
245.5138032664542
  0
ARC
  5
AAA
330
8AE
100
AcDbEntity
  8
LAYER2
  6
CONTINUOUS
100
AcDbCircle
 10
-3.045886201703786
 20
0.5052064088825015
 30
0.0
 40
0.015
100
AcDbArc
 50
99.48619673354705
 51
170.5452935883996
  0
LINE
  5
AAB
330
8AE
100
AcDbEntity
  8
LAYER2
  6
CONTINUOUS
100
AcDbLine
 10
-3.048358351592719
 20
0.520001288906572
 30
0.0
 11
-3.029367422683822
 21
0.523009156513342
 31
0.0
  0
LINE
  5
AAC
330
8AE
100
AcDbEntity
  8
LAYER2
  6
CONTINUOUS
100
AcDbLine
 10
-3.010948740985477
 20
0.5375292743142853
 30
0.0
 11
-3.007256646879456
 21
0.5464427780223543
 31
0.0
  0
ARC
  5
AAD
330
8AE
100
AcDbEntity
  8
LAYER2
  6
CONTINUOUS
100
AcDbCircle
 10
-3.033121849842257
 20
0.5467136766922883
 30
0.0
 40
0.0240000000000008
100
AcDbArc
 50
278.9999999999997
 51
337.5000000000008
  0
ARC
  5
AAE
330
8AE
100
AcDbEntity
  8
LAYER2
  6
CONTINUOUS
100
AcDbCircle
 10
0.0
 20
0.0
 30
0.0
 40
3.102500000001785
100
AcDbArc
 50
170.5821860225665
 51
174.4178139774334
  0
ARC
  5
AAF
330
8AE
100
AcDbEntity
  8
LAYER2
  6
CONTINUOUS
100
AcDbCircle
 10
0.0
 20
0.0
 30
0.0
 40
3.056499999976028
100
AcDbArc
 50
175.2987388648298
 51
176.2499999999999
  0
ARC
  5
AB0
330
8AE
100
AcDbEntity
  8
LAYER2
  6
CONTINUOUS
100
AcDbCircle
 10
0.0
 20
0.0
 30
0.0
 40
3.056499999976028
100
AcDbArc
 50
168.7499999999999
 51
169.7012611351699
  0
ARC
  5
AB1
330
8AE
100
AcDbEntity
  8
LAYER2
  6
CONTINUOUS
100
AcDbCircle
 10
-3.0785335264
 20
-0.146134619799999
 30
0.0
 40
0.0240000000000008
100
AcDbArc
 50
14.99999999999926
 51
73.50000000000065
  0
LINE
  5
AB2
330
8AE
100
AcDbEntity
  8
LAYER2
  6
CONTINUOUS
100
AcDbLine
 10
-3.055351306493047
 20
-0.1399229627262946
 30
0.0
 11
-3.052854244462277
 21
-0.1492421251594732
 31
0.0
  0
LINE
  5
AB3
330
8AE
100
AcDbEntity
  8
LAYER2
  6
CONTINUOUS
100
AcDbLine
 10
-3.090153011503035
 20
-0.117661997638584
 30
0.0
 11
-3.071717158129007
 21
-0.1231229461582089
 31
0.0
  0
ARC
  5
AB4
330
8AE
100
AcDbEntity
  8
LAYER2
  6
CONTINUOUS
100
AcDbCircle
 10
-3.085770891845211
 20
-0.1033163701756769
 30
0.0
 40
0.015
100
AcDbArc
 50
181.9547064116
 51
253.0138032664525
  0
ARC
  5
AB5
330
8AE
100
AcDbEntity
  8
LAYER2
  6
CONTINUOUS
100
AcDbCircle
 10
-3.085770891845211
 20
0.1033163701756789
 30
0.0
 40
0.015
100
AcDbArc
 50
106.9861967335474
 51
178.0452935883999
  0
LINE
  5
AB6
330
8AE
100
AcDbEntity
  8
LAYER2
  6
CONTINUOUS
100
AcDbLine
 10
-3.090153011503035
 20
0.117661997638586
 30
0.0
 11
-3.071717158129007
 21
0.1231229461582109
 31
0.0
  0
LINE
  5
AB7
330
8AE
100
AcDbEntity
  8
LAYER2
  6
CONTINUOUS
100
AcDbLine
 10
-3.055351306493047
 20
0.1399229627262966
 30
0.0
 11
-3.052854244462277
 21
0.149242125159475
 31
0.0
  0
ARC
  5
AB8
330
8AE
100
AcDbEntity
  8
LAYER2
  6
CONTINUOUS
100
AcDbCircle
 10
-3.0785335264
 20
0.1461346198000009
 30
0.0
 40
0.0240000000000008
100
AcDbArc
 50
286.4999999999994
 51
345.0000000000007
  0
ARC
  5
AB9
330
8AE
100
AcDbEntity
  8
LAYER2
  6
CONTINUOUS
100
AcDbCircle
 10
0.0
 20
0.0
 30
0.0
 40
3.102500000001785
100
AcDbArc
 50
178.0821860225666
 51
181.9178139774334
  0
ARC
  5
ABA
330
8AE
100
AcDbEntity
  8
LAYER2
  6
CONTINUOUS
100
AcDbCircle
 10
0.0
 20
0.0
 30
0.0
 40
3.056499999976028
100
AcDbArc
 50
182.7987388648298
 51
183.7499999999998
  0
ARC
  5
ABB
330
8AE
100
AcDbEntity
  8
LAYER2
  6
CONTINUOUS
100
AcDbCircle
 10
0.0
 20
0.0
 30
0.0
 40
3.056499999976028
100
AcDbArc
 50
176.2499999999999
 51
177.20126113517
  0
ARC
  5
ABC
330
8AE
100
AcDbEntity
  8
LAYER2
  6
CONTINUOUS
100
AcDbCircle
 10
-3.033121849842257
 20
-0.5467136766922838
 30
0.0
 40
0.0240000000000008
100
AcDbArc
 50
22.49999999999896
 51
81.00000000000036
  0
LINE
  5
ABD
330
8AE
100
AcDbEntity
  8
LAYER2
  6
CONTINUOUS
100
AcDbLine
 10
-3.010948740985478
 20
-0.5375292743142808
 30
0.0
 11
-3.007256646879457
 21
-0.54644277802235
 31
0.0
  0
LINE
  5
ABE
330
8AE
100
AcDbEntity
  8
LAYER2
  6
CONTINUOUS
100
AcDbLine
 10
-3.04835835159272
 20
-0.5200012889065675
 30
0.0
 11
-3.029367422683823
 21
-0.5230091565133376
 31
0.0
  0
ARC
  5
ABF
330
8AE
100
AcDbEntity
  8
LAYER2
  6
CONTINUOUS
100
AcDbCircle
 10
-3.045886201703786
 20
-0.5052064088824969
 30
0.0
 40
0.015
100
AcDbArc
 50
189.4547064115999
 51
260.513803266453
  0
ARC
  5
AC0
330
8AE
100
AcDbEntity
  8
LAYER2
  6
CONTINUOUS
100
AcDbCircle
 10
-3.072857186489844
 20
-0.3003414402695564
 30
0.0
 40
0.015
100
AcDbArc
 50
114.4861967335459
 51
185.5452935883998
  0
LINE
  5
AC1
330
8AE
100
AcDbEntity
  8
LAYER2
  6
CONTINUOUS
100
AcDbLine
 10
-3.079074296634258
 20
-0.2866905230310625
 30
0.0
 11
-3.061508961357714
 21
-0.2788699319418144
 31
0.0
  0
LINE
  5
AC2
330
8AE
100
AcDbEntity
  8
LAYER2
  6
CONTINUOUS
100
AcDbLine
 10
-3.047475964043101
 20
-0.2600774695479108
 30
0.0
 11
-3.046216659511246
 21
-0.2505121018426145
 31
0.0
  0
ARC
  5
AC3
330
8AE
100
AcDbEntity
  8
LAYER2
  6
CONTINUOUS
100
AcDbCircle
 10
-3.071270640790295
 20
-0.2569448409532328
 30
0.0
 40
0.0240000000000008
100
AcDbArc
 50
294.0000000000001
 51
352.5000000000007
  0
ARC
  5
AC4
330
8AE
100
AcDbEntity
  8
LAYER2
  6
CONTINUOUS
100
AcDbCircle
 10
0.0
 20
0.0
 30
0.0
 40
3.102500000001785
100
AcDbArc
 50
185.5821860225665
 51
189.4178139774333
  0
ARC
  5
AC5
330
8AE
100
AcDbEntity
  8
LAYER2
  6
CONTINUOUS
100
AcDbCircle
 10
0.0
 20
0.0
 30
0.0
 40
3.056499999976028
100
AcDbArc
 50
190.2987388648299
 51
191.2499999999998
  0
ARC
  5
AC6
330
8AE
100
AcDbEntity
  8
LAYER2
  6
CONTINUOUS
100
AcDbCircle
 10
0.0
 20
0.0
 30
0.0
 40
3.056499999976028
100
AcDbArc
 50
183.7499999999999
 51
184.7012611351699
  0
ARC
  5
AC7
330
8AE
100
AcDbEntity
  8
LAYER2
  6
CONTINUOUS
100
AcDbCircle
 10
-2.935812617493464
 20
-0.9379383109986961
 30
0.0
 40
0.0240000000000008
100
AcDbArc
 50
29.99999999999885
 51
88.50000000000155
  0
LINE
  5
AC8
330
8AE
100
AcDbEntity
  8
LAYER2
  6
CONTINUOUS
100
AcDbLine
 10
-2.915028007726946
 20
-0.9259383109874794
 30
0.0
 11
-2.910204054299469
 21
-0.934293643450704
 31
0.0
  0
LINE
  5
AC9
330
8AE
100
AcDbEntity
  8
LAYER2
  6
CONTINUOUS
100
AcDbLine
 10
-2.954405435122049
 20
-0.9134432139497651
 30
0.0
 11
-2.935184370737193
 21
-0.9139465351949898
 31
0.0
  0
ARC
  5
ACA
330
8AE
100
AcDbEntity
  8
LAYER2
  6
CONTINUOUS
100
AcDbCircle
 10
-2.953885554172014
 20
-0.8984522258636585
 30
0.0
 40
0.015
100
AcDbArc
 50
196.9547064115999
 51
268.0138032664525
  0
ARC
  5
ACB
330
8AE
100
AcDbEntity
  8
LAYER2
  6
CONTINUOUS
100
AcDbCircle
 10
-3.007366042716669
 20
-0.6988603254014006
 30
0.0
 40
0.015
100
AcDbArc
 50
121.9861967335469
 51
193.0452935883996
  0
LINE
  5
ACC
330
8AE
100
AcDbEntity
  8
LAYER2
  6
CONTINUOUS
100
AcDbLine
 10
-3.015311766869396
 20
-0.6861376893660198
 30
0.0
 11
-2.998917497446947
 21
-0.676091268188963
 31
0.0
  0
LINE
  5
ACD
330
8AE
100
AcDbEntity
  8
LAYER2
  6
CONTINUOUS
100
AcDbLine
 10
-2.987457462928417
 20
-0.6556279042110562
 30
0.0
 11
-2.987457462945161
 21
-0.6459799973271007
 31
0.0
  0
ARC
  5
ACE
330
8AE
100
AcDbEntity
  8
LAYER2
  6
CONTINUOUS
100
AcDbCircle
 10
-3.011457462999576
 20
-0.6556279042391884
 30
0.0
 40
0.0240000000000008
100
AcDbArc
 50
301.4999999999984
 51
0.0000000000005301
  0
ARC
  5
ACF
330
8AE
100
AcDbEntity
  8
LAYER2
  6
CONTINUOUS
100
AcDbCircle
 10
0.0
 20
0.0
 30
0.0
 40
3.102500000001785
100
AcDbArc
 50
193.0821860225665
 51
196.9178139774333
  0
ARC
  5
AD0
330
8AE
100
AcDbEntity
  8
LAYER2
  6
CONTINUOUS
100
AcDbCircle
 10
0.0
 20
0.0
 30
0.0
 40
3.056499999976028
100
AcDbArc
 50
197.7987388648299
 51
198.7499999999998
  0
ARC
  5
AD1
330
8AE
100
AcDbEntity
  8
LAYER2
  6
CONTINUOUS
100
AcDbCircle
 10
0.0
 20
0.0
 30
0.0
 40
3.056499999976028
100
AcDbArc
 50
191.2499999999999
 51
192.2012611351699
  0
ARC
  5
AD2
330
8AE
100
AcDbEntity
  8
LAYER2
  6
CONTINUOUS
100
AcDbCircle
 10
-2.788270817298325
 20
-1.313114560758292
 30
0.0
 40
0.0240000000000008
100
AcDbArc
 50
37.49999999999912
 51
96.0000000000011
  0
LINE
  5
AD3
330
8AE
100
AcDbEntity
  8
LAYER2
  6
CONTINUOUS
100
AcDbLine
 10
-2.769230337057755
 20
-1.298504286441083
 30
0.0
 11
-2.763357063489419
 21
-1.306158485604481
 31
0.0
  0
LINE
  5
AD4
330
8AE
100
AcDbEntity
  8
LAYER2
  6
CONTINUOUS
100
AcDbLine
 10
-2.809901822540503
 20
-1.291255872347978
 30
0.0
 11
-2.7907795004204
 21
-1.289246035265605
 31
0.0
  0
ARC
  5
AD5
330
8AE
100
AcDbEntity
  8
LAYER2
  6
CONTINUOUS
100
AcDbCircle
 10
-2.81134310583656
 20
-1.276325276162276
 30
0.0
 40
0.015
100
AcDbArc
 50
204.4547064115995
 51
275.5138032664527
  0
ARC
  5
AD6
330
8AE
100
AcDbEntity
  8
LAYER2
  6
CONTINUOUS
100
AcDbCircle
 10
-2.890418032153221
 20
-1.085421516604939
 30
0.0
 40
0.015
100
AcDbArc
 50
129.4861967335475
 51
200.5452935883997
  0
LINE
  5
AD7
330
8AE
100
AcDbEntity
  8
LAYER2
  6
CONTINUOUS
100
AcDbLine
 10
-2.899956416771036
 20
-1.073844849602618
 30
0.0
 11
-2.885013723697852
 21
-1.061744495389486
 31
0.0
  0
LINE
  5
AD8
330
8AE
100
AcDbEntity
  8
LAYER2
  6
CONTINUOUS
100
AcDbLine
 10
-2.876322736343337
 20
-1.039960363658754
 30
0.0
 11
-2.877582040908395
 21
-1.030394995957829
 31
0.0
  0
ARC
  5
AD9
330
8AE
100
AcDbEntity
  8
LAYER2
  6
CONTINUOUS
100
AcDbCircle
 10
-2.900117413083187
 20
-1.043092992309215
 30
0.0
 40
0.0240000000000008
100
AcDbArc
 50
308.9999999999993
 51
7.500000000000469
  0
ARC
  5
ADA
330
8AE
100
AcDbEntity
  8
LAYER2
  6
CONTINUOUS
100
AcDbCircle
 10
0.0
 20
0.0
 30
0.0
 40
3.102500000001784
100
AcDbArc
 50
200.5821860225665
 51
204.4178139774334
  0
ARC
  5
ADB
330
8AE
100
AcDbEntity
  8
LAYER2
  6
CONTINUOUS
100
AcDbCircle
 10
0.0
 20
0.0
 30
0.0
 40
3.056499999976027
100
AcDbArc
 50
205.2987388648298
 51
206.2499999999998
  0
ARC
  5
ADC
330
8AE
100
AcDbEntity
  8
LAYER2
  6
CONTINUOUS
100
AcDbCircle
 10
0.0
 20
0.0
 30
0.0
 40
3.056499999976027
100
AcDbArc
 50
198.7499999999999
 51
199.7012611351699
  0
ARC
  5
ADD
330
8AE
100
AcDbEntity
  8
LAYER2
  6
CONTINUOUS
100
AcDbCircle
 10
-2.593020930364494
 20
-1.665823056319178
 30
0.0
 40
0.0240000000000008
100
AcDbArc
 50
44.99999999999962
 51
103.5000000000008
  0
LINE
  5
ADE
330
8AE
100
AcDbEntity
  8
LAYER2
  6
CONTINUOUS
100
AcDbLine
 10
-2.576050367545807
 20
-1.648852493540276
 30
0.0
 11
-2.569228267175745
 21
-1.655674593934017
 31
0.0
  0
LINE
  5
ADF
330
8AE
100
AcDbEntity
  8
LAYER2
  6
CONTINUOUS
100
AcDbLine
 10
-2.617320010723324
 20
-1.646974784766554
 30
0.0
 11
-2.598623619101158
 21
-1.642486178226294
 31
0.0
  0
ARC
  5
AE0
330
8AE
100
AcDbEntity
  8
LAYER2
  6
CONTINUOUS
100
AcDbCircle
 10
-2.620697797508679
 20
-1.632360047121537
 30
0.0
 40
0.015
100
AcDbArc
 50
211.9547064115987
 51
283.0138032664528
  0
ARC
  5
AE1
330
8AE
100
AcDbEntity
  8
LAYER2
  6
CONTINUOUS
100
AcDbCircle
 10
-2.724014167684357
 20
-1.453410844723669
 30
0.0
 40
0.015
100
AcDbArc
 50
136.9861967335463
 51
208.0452935883997
  0
LINE
  5
AE2
330
8AE
100
AcDbEntity
  8
LAYER2
  6
CONTINUOUS
100
AcDbLine
 10
-2.734982008361909
 20
-1.443178226736476
 30
0.0
 11
-2.721746565259368
 21
-1.429230979902707
 31
0.0
  0
LINE
  5
AE3
330
8AE
100
AcDbEntity
  8
LAYER2
  6
CONTINUOUS
100
AcDbLine
 10
-2.715973330272102
 20
-1.406498812952766
 30
0.0
 11
-2.718470392335219
 21
-1.397179650528255
 31
0.0
  0
ARC
  5
AE4
330
8AE
100
AcDbEntity
  8
LAYER2
  6
CONTINUOUS
100
AcDbCircle
 10
-2.739155550164493
 20
-1.412710470080817
 30
0.0
 40
0.0240000000000008
100
AcDbArc
 50
316.4999999999999
 51
15.00000000000101
  0
ARC
  5
AE5
330
8AE
100
AcDbEntity
  8
LAYER2
  6
CONTINUOUS
100
AcDbCircle
 10
0.0
 20
0.0
 30
0.0
 40
3.102500000001785
100
AcDbArc
 50
208.0821860225665
 51
211.9178139774334
  0
ARC
  5
AE6
330
8AE
100
AcDbEntity
  8
LAYER2
  6
CONTINUOUS
100
AcDbCircle
 10
0.0
 20
0.0
 30
0.0
 40
3.056499999976028
100
AcDbArc
 50
212.7987388648298
 51
213.7499999999998
  0
ARC
  5
AE7
330
8AE
100
AcDbEntity
  8
LAYER2
  6
CONTINUOUS
100
AcDbCircle
 10
0.0
 20
0.0
 30
0.0
 40
3.056499999976028
100
AcDbArc
 50
206.2499999999999
 51
207.2012611351699
  0
ARC
  5
AE8
330
8AE
100
AcDbEntity
  8
LAYER2
  6
CONTINUOUS
100
AcDbCircle
 10
-2.353403736390904
 20
-1.990028857533037
 30
0.0
 40
0.0240000000000008
100
AcDbArc
 50
52.49999999999822
 51
111.0000000000006
  0
LINE
  5
AE9
330
8AE
100
AcDbEntity
  8
LAYER2
  6
CONTINUOUS
100
AcDbLine
 10
-2.338793462029057
 20
-1.970988377326719
 30
0.0
 11
-2.331139262886045
 21
-1.976861650921623
 31
0.0
  0
LINE
  5
AEA
330
8AE
100
AcDbEntity
  8
LAYER2
  6
CONTINUOUS
100
AcDbLine
 10
-2.379955127864469
 20
-1.974513501990097
 30
0.0
 11
-2.362004567184514
 21
-1.967622927294332
 31
0.0
  0
ARC
  5
AEB
330
8AE
100
AcDbEntity
  8
LAYER2
  6
CONTINUOUS
100
AcDbCircle
 10
-2.385211623270724
 20
-1.960464685098842
 30
0.0
 40
0.015
100
AcDbArc
 50
219.4547064115996
 51
290.5138032664525
  0
ARC
  5
AEC
330
8AE
100
AcDbEntity
  8
LAYER2
  6
CONTINUOUS
100
AcDbCircle
 10
-2.511001665567004
 20
-1.796531910327563
 30
0.0
 40
0.015
100
AcDbArc
 50
144.4861967335476
 51
215.5452935883997
  0
LINE
  5
AED
330
8AE
100
AcDbEntity
  8
LAYER2
  6
CONTINUOUS
100
AcDbLine
 10
-2.52321129950944
 20
-1.787818424286276
 30
0.0
 11
-2.511909568478585
 21
-1.772262926092104
 31
0.0
  0
LINE
  5
AEE
330
8AE
100
AcDbEntity
  8
LAYER2
  6
CONTINUOUS
100
AcDbLine
 10
-2.509152867509844
 20
-1.748971677602013
 30
0.0
 11
-2.512844961646804
 21
-1.74005817390676
 31
0.0
  0
ARC
  5
AEF
330
8AE
100
AcDbEntity
  8
LAYER2
  6
CONTINUOUS
100
AcDbCircle
 10
-2.531325976345092
 20
-1.758156080031998
 30
0.0
 40
0.0240000000000008
100
AcDbArc
 50
323.9999999999994
 51
22.50000000000059
  0
ARC
  5
AF0
330
8AE
100
AcDbEntity
  8
LAYER2
  6
CONTINUOUS
100
AcDbCircle
 10
0.0
 20
0.0
 30
0.0
 40
3.102500000001785
100
AcDbArc
 50
215.5821860225665
 51
219.4178139774334
  0
ARC
  5
AF1
330
8AE
100
AcDbEntity
  8
LAYER2
  6
CONTINUOUS
100
AcDbCircle
 10
0.0
 20
0.0
 30
0.0
 40
3.056499999976028
100
AcDbArc
 50
220.2987388648298
 51
221.2499999999998
  0
ARC
  5
AF2
330
8AE
100
AcDbEntity
  8
LAYER2
  6
CONTINUOUS
100
AcDbCircle
 10
0.0
 20
0.0
 30
0.0
 40
3.056499999976028
100
AcDbArc
 50
213.7499999999998
 51
214.7012611351699
  0
ARC
  5
AF3
330
8AE
100
AcDbEntity
  8
LAYER2
  6
CONTINUOUS
100
AcDbCircle
 10
-2.073519152000879
 20
-2.280184713254272
 30
0.0
 40
0.0240000000000008
100
AcDbArc
 50
59.9999999999988
 51
118.5000000000005
  0
LINE
  5
AF4
330
8AE
100
AcDbEntity
  8
LAYER2
  6
CONTINUOUS
100
AcDbLine
 10
-2.061519151940935
 20
-2.259400103515886
 30
0.0
 11
-2.053163819494455
 21
-2.264224056972365
 31
0.0
  0
LINE
  5
AF5
330
8AE
100
AcDbEntity
  8
LAYER2
  6
CONTINUOUS
100
AcDbLine
 10
-2.101868552919629
 20
-2.268267745756026
 30
0.0
 11
-2.084970962251956
 21
-2.259093102548227
 31
0.0
  0
ARC
  5
AF6
330
8AE
100
AcDbEntity
  8
LAYER2
  6
CONTINUOUS
100
AcDbCircle
 10
-2.108913816853009
 20
-2.25502522877061
 30
0.0
 40
0.015
100
AcDbArc
 50
226.9547064115993
 51
298.0138032664537
  0
ARC
  5
AF7
330
8AE
100
AcDbEntity
  8
LAYER2
  6
CONTINUOUS
100
AcDbCircle
 10
-2.255025228770612
 20
-2.108913816853007
 30
0.0
 40
0.015
100
AcDbArc
 50
151.9861967335463
 51
223.0452935884007
  0
LINE
  5
AF8
330
8AE
100
AcDbEntity
  8
LAYER2
  6
CONTINUOUS
100
AcDbLine
 10
-2.268267745756027
 20
-2.101868552919627
 30
0.0
 11
-2.259093102548228
 21
-2.084970962251954
 31
0.0
  0
LINE
  5
AF9
330
8AE
100
AcDbEntity
  8
LAYER2
  6
CONTINUOUS
100
AcDbLine
 10
-2.259400103515888
 20
-2.061519151940934
 30
0.0
 11
-2.264224056972366
 21
-2.053163819494454
 31
0.0
  0
ARC
  5
AFA
330
8AE
100
AcDbEntity
  8
LAYER2
  6
CONTINUOUS
100
AcDbCircle
 10
-2.280184713254275
 20
-2.073519152000876
 30
0.0
 40
0.0240000000000008
100
AcDbArc
 50
331.4999999999986
 51
30.00000000000029
  0
ARC
  5
AFB
330
8AE
100
AcDbEntity
  8
LAYER2
  6
CONTINUOUS
100
AcDbCircle
 10
0.0
 20
0.0
 30
0.0
 40
3.102500000001785
100
AcDbArc
 50
223.0821860225665
 51
226.9178139774334
  0
ARC
  5
AFC
330
8AE
100
AcDbEntity
  8
LAYER2
  6
CONTINUOUS
100
AcDbCircle
 10
0.0
 20
0.0
 30
0.0
 40
3.056499999976028
100
AcDbArc
 50
227.7987388648298
 51
228.7499999999999
  0
ARC
  5
AFD
330
8AE
100
AcDbEntity
  8
LAYER2
  6
CONTINUOUS
100
AcDbCircle
 10
0.0
 20
0.0
 30
0.0
 40
3.056499999976028
100
AcDbArc
 50
221.2499999999999
 51
222.2012611351699
  0
ARC
  5
AFE
330
8AE
100
AcDbEntity
  8
LAYER2
  6
CONTINUOUS
100
AcDbCircle
 10
-1.758156080032002
 20
-2.531325976345089
 30
0.0
 40
0.0240000000000008
100
AcDbArc
 50
67.49999999999942
 51
126.000000000001
  0
LINE
  5
AFF
330
8AE
100
AcDbEntity
  8
LAYER2
  6
CONTINUOUS
100
AcDbLine
 10
-1.748971677602017
 20
-2.509152867509841
 30
0.0
 11
-1.740058173906764
 21
-2.512844961646802
 31
0.0
  0
LINE
  5
B00
330
8AE
100
AcDbEntity
  8
LAYER2
  6
CONTINUOUS
100
AcDbLine
 10
-1.787818424286279
 20
-2.523211299509437
 30
0.0
 11
-1.772262926092108
 21
-2.511909568478583
 31
0.0
  0
ARC
  5
B01
330
8AE
100
AcDbEntity
  8
LAYER2
  6
CONTINUOUS
100
AcDbCircle
 10
-1.796531910327566
 20
-2.511001665567001
 30
0.0
 40
0.015
100
AcDbArc
 50
234.4547064116003
 51
305.5138032664518
  0
ARC
  5
B02
330
8AE
100
AcDbEntity
  8
LAYER2
  6
CONTINUOUS
100
AcDbCircle
 10
-1.960464685098846
 20
-2.385211623270722
 30
0.0
 40
0.015
100
AcDbArc
 50
159.4861967335474
 51
230.5452935883997
  0
LINE
  5
B03
330
8AE
100
AcDbEntity
  8
LAYER2
  6
CONTINUOUS
100
AcDbLine
 10
-1.974513501990101
 20
-2.379955127864466
 30
0.0
 11
-1.967622927294335
 21
-2.362004567184511
 31
0.0
  0
LINE
  5
B04
330
8AE
100
AcDbEntity
  8
LAYER2
  6
CONTINUOUS
100
AcDbLine
 10
-1.970988377326722
 20
-2.338793462029054
 30
0.0
 11
-1.976861650921626
 21
-2.331139262886042
 31
0.0
  0
ARC
  5
B05
330
8AE
100
AcDbEntity
  8
LAYER2
  6
CONTINUOUS
100
AcDbCircle
 10
-1.990028857533041
 20
-2.3534037363909
 30
0.0
 40
0.0240000000000008
100
AcDbArc
 50
338.9999999999996
 51
37.50000000000061
  0
ARC
  5
B06
330
8AE
100
AcDbEntity
  8
LAYER2
  6
CONTINUOUS
100
AcDbCircle
 10
0.0
 20
0.0
 30
0.0
 40
3.102500000001785
100
AcDbArc
 50
230.5821860225665
 51
234.4178139774334
  0
ARC
  5
B07
330
8AE
100
AcDbEntity
  8
LAYER2
  6
CONTINUOUS
100
AcDbCircle
 10
0.0
 20
0.0
 30
0.0
 40
3.056499999976028
100
AcDbArc
 50
235.2987388648298
 51
236.2499999999999
  0
ARC
  5
B08
330
8AE
100
AcDbEntity
  8
LAYER2
  6
CONTINUOUS
100
AcDbCircle
 10
0.0
 20
0.0
 30
0.0
 40
3.056499999976028
100
AcDbArc
 50
228.7499999999999
 51
229.7012611351699
  0
ARC
  5
B09
330
8AE
100
AcDbEntity
  8
LAYER2
  6
CONTINUOUS
100
AcDbCircle
 10
-1.412710470080822
 20
-2.739155550164491
 30
0.0
 40
0.0240000000000008
100
AcDbArc
 50
74.99999999999899
 51
133.5000000000012
  0
LINE
  5
B0A
330
8AE
100
AcDbEntity
  8
LAYER2
  6
CONTINUOUS
100
AcDbLine
 10
-1.40649881295277
 20
-2.7159733302721
 30
0.0
 11
-1.397179650528259
 21
-2.718470392335217
 31
0.0
  0
LINE
  5
B0B
330
8AE
100
AcDbEntity
  8
LAYER2
  6
CONTINUOUS
100
AcDbLine
 10
-1.44317822673648
 20
-2.734982008361907
 30
0.0
 11
-1.429230979902712
 21
-2.721746565259366
 31
0.0
  0
ARC
  5
B0C
330
8AE
100
AcDbEntity
  8
LAYER2
  6
CONTINUOUS
100
AcDbCircle
 10
-1.453410844723673
 20
-2.724014167684354
 30
0.0
 40
0.015
100
AcDbArc
 50
241.954706411601
 51
313.0138032664513
  0
ARC
  5
B0D
330
8AE
100
AcDbEntity
  8
LAYER2
  6
CONTINUOUS
100
AcDbCircle
 10
-1.632360047121541
 20
-2.620697797508676
 30
0.0
 40
0.015
100
AcDbArc
 50
166.9861967335472
 51
238.0452935883998
  0
LINE
  5
B0E
330
8AE
100
AcDbEntity
  8
LAYER2
  6
CONTINUOUS
100
AcDbLine
 10
-1.646974784766558
 20
-2.617320010723322
 30
0.0
 11
-1.642486178226298
 21
-2.598623619101155
 31
0.0
  0
LINE
  5
B0F
330
8AE
100
AcDbEntity
  8
LAYER2
  6
CONTINUOUS
100
AcDbLine
 10
-1.64885249354028
 20
-2.576050367545804
 30
0.0
 11
-1.655674593934021
 21
-2.569228267175743
 31
0.0
  0
ARC
  5
B10
330
8AE
100
AcDbEntity
  8
LAYER2
  6
CONTINUOUS
100
AcDbCircle
 10
-1.665823056319182
 20
-2.593020930364491
 30
0.0
 40
0.0240000000000008
100
AcDbArc
 50
346.4999999999992
 51
45.0
  0
ARC
  5
B11
330
8AE
100
AcDbEntity
  8
LAYER2
  6
CONTINUOUS
100
AcDbCircle
 10
0.0
 20
0.0
 30
0.0
 40
3.102500000001785
100
AcDbArc
 50
238.0821860225666
 51
241.9178139774334
  0
ARC
  5
B12
330
8AE
100
AcDbEntity
  8
LAYER2
  6
CONTINUOUS
100
AcDbCircle
 10
0.0
 20
0.0
 30
0.0
 40
3.056499999976028
100
AcDbArc
 50
242.7987388648299
 51
243.7499999999999
  0
ARC
  5
B13
330
8AE
100
AcDbEntity
  8
LAYER2
  6
CONTINUOUS
100
AcDbCircle
 10
0.0
 20
0.0
 30
0.0
 40
3.056499999976028
100
AcDbArc
 50
236.2499999999999
 51
237.20126113517
  0
ARC
  5
B14
330
8AE
100
AcDbEntity
  8
LAYER2
  6
CONTINUOUS
100
AcDbCircle
 10
-1.043092992309219
 20
-2.900117413083186
 30
0.0
 40
0.0240000000000008
100
AcDbArc
 50
82.49999999999953
 51
141.0000000000007
  0
LINE
  5
B15
330
8AE
100
AcDbEntity
  8
LAYER2
  6
CONTINUOUS
100
AcDbLine
 10
-1.039960363658759
 20
-2.876322736343336
 30
0.0
 11
-1.030394995957833
 21
-2.877582040908393
 31
0.0
  0
LINE
  5
B16
330
8AE
100
AcDbEntity
  8
LAYER2
  6
CONTINUOUS
100
AcDbLine
 10
-1.073844849602622
 20
-2.899956416771035
 30
0.0
 11
-1.061744495389491
 21
-2.88501372369785
 31
0.0
  0
ARC
  5
B17
330
8AE
100
AcDbEntity
  8
LAYER2
  6
CONTINUOUS
100
AcDbCircle
 10
-1.085421516604944
 20
-2.89041803215322
 30
0.0
 40
0.015
100
AcDbArc
 50
249.4547064115995
 51
320.5138032664531
  0
ARC
  5
B18
330
8AE
100
AcDbEntity
  8
LAYER2
  6
CONTINUOUS
100
AcDbCircle
 10
-1.27632527616228
 20
-2.811343105836559
 30
0.0
 40
0.015
100
AcDbArc
 50
174.4861967335473
 51
245.5452935883997
  0
LINE
  5
B19
330
8AE
100
AcDbEntity
  8
LAYER2
  6
CONTINUOUS
100
AcDbLine
 10
-1.291255872347983
 20
-2.809901822540501
 30
0.0
 11
-1.289246035265609
 21
-2.790779500420398
 31
0.0
  0
LINE
  5
B1A
330
8AE
100
AcDbEntity
  8
LAYER2
  6
CONTINUOUS
100
AcDbLine
 10
-1.298504286441087
 20
-2.769230337057753
 30
0.0
 11
-1.306158485604485
 21
-2.763357063489417
 31
0.0
  0
ARC
  5
B1B
330
8AE
100
AcDbEntity
  8
LAYER2
  6
CONTINUOUS
100
AcDbCircle
 10
-1.313114560758297
 20
-2.788270817298323
 30
0.0
 40
0.0240000000000008
100
AcDbArc
 50
353.9999999999989
 51
52.50000000000129
  0
ARC
  5
B1C
330
8AE
100
AcDbEntity
  8
LAYER2
  6
CONTINUOUS
100
AcDbCircle
 10
0.0
 20
0.0
 30
0.0
 40
3.102500000001785
100
AcDbArc
 50
245.5821860225665
 51
249.4178139774334
  0
ARC
  5
B1D
330
8AE
100
AcDbEntity
  8
LAYER2
  6
CONTINUOUS
100
AcDbCircle
 10
0.0
 20
0.0
 30
0.0
 40
3.056499999976028
100
AcDbArc
 50
250.2987388648298
 51
251.2499999999999
  0
ARC
  5
B1E
330
8AE
100
AcDbEntity
  8
LAYER2
  6
CONTINUOUS
100
AcDbCircle
 10
0.0
 20
0.0
 30
0.0
 40
3.056499999976028
100
AcDbArc
 50
243.7499999999999
 51
244.7012611351699
  0
ARC
  5
B1F
330
8AE
100
AcDbEntity
  8
LAYER2
  6
CONTINUOUS
100
AcDbCircle
 10
-0.655627904239193
 20
-3.011457462999575
 30
0.0
 40
0.0240000000000008
100
AcDbArc
 50
89.99999999999947
 51
148.5000000000016
  0
LINE
  5
B20
330
8AE
100
AcDbEntity
  8
LAYER2
  6
CONTINUOUS
100
AcDbLine
 10
-0.6556279042110609
 20
-2.987457462928416
 30
0.0
 11
-0.6459799973271053
 21
-2.98745746294516
 31
0.0
  0
LINE
  5
B21
330
8AE
100
AcDbEntity
  8
LAYER2
  6
CONTINUOUS
100
AcDbLine
 10
-0.6861376893660247
 20
-3.015311766869395
 30
0.0
 11
-0.6760912681889678
 21
-2.998917497446946
 31
0.0
  0
ARC
  5
B22
330
8AE
100
AcDbEntity
  8
LAYER2
  6
CONTINUOUS
100
AcDbCircle
 10
-0.6988603254014054
 20
-3.007366042716668
 30
0.0
 40
0.015
100
AcDbArc
 50
256.9547064116
 51
328.0138032664531
  0
ARC
  5
B23
330
8AE
100
AcDbEntity
  8
LAYER2
  6
CONTINUOUS
100
AcDbCircle
 10
-0.8984522258636632
 20
-2.953885554172012
 30
0.0
 40
0.015
100
AcDbArc
 50
181.9861967335475
 51
253.0452935884001
  0
LINE
  5
B24
330
8AE
100
AcDbEntity
  8
LAYER2
  6
CONTINUOUS
100
AcDbLine
 10
-0.9134432139497698
 20
-2.954405435122047
 30
0.0
 11
-0.9139465351949945
 21
-2.935184370737192
 31
0.0
  0
LINE
  5
B25
330
8AE
100
AcDbEntity
  8
LAYER2
  6
CONTINUOUS
100
AcDbLine
 10
-0.925938310987484
 20
-2.915028007726944
 30
0.0
 11
-0.9342936434507084
 21
-2.910204054299467
 31
0.0
  0
ARC
  5
B26
330
8AE
100
AcDbEntity
  8
LAYER2
  6
CONTINUOUS
100
AcDbCircle
 10
-0.9379383109987006
 20
-2.935812617493462
 30
0.0
 40
0.0240000000000008
100
AcDbArc
 50
1.499999999998457
 51
59.99999999999972
  0
ARC
  5
B27
330
8AE
100
AcDbEntity
  8
LAYER2
  6
CONTINUOUS
100
AcDbCircle
 10
0.0
 20
0.0
 30
0.0
 40
3.102500000001784
100
AcDbArc
 50
253.0821860225666
 51
256.9178139774334
  0
ARC
  5
B28
330
8AE
100
AcDbEntity
  8
LAYER2
  6
CONTINUOUS
100
AcDbCircle
 10
0.0
 20
0.0
 30
0.0
 40
3.056499999976027
100
AcDbArc
 50
257.7987388648299
 51
258.7499999999998
  0
ARC
  5
B29
330
8AE
100
AcDbEntity
  8
LAYER2
  6
CONTINUOUS
100
AcDbCircle
 10
0.0
 20
0.0
 30
0.0
 40
3.056499999976027
100
AcDbArc
 50
251.2499999999999
 51
252.20126113517
  0
ARC
  5
B2A
330
8AE
100
AcDbEntity
  8
LAYER2
  6
CONTINUOUS
100
AcDbCircle
 10
-0.2569448409532377
 20
-3.071270640790295
 30
0.0
 40
0.0240000000000008
100
AcDbArc
 50
97.49999999999915
 51
155.9999999999999
  0
LINE
  5
B2B
330
8AE
100
AcDbEntity
  8
LAYER2
  6
CONTINUOUS
100
AcDbLine
 10
-0.2600774695479157
 20
-3.047475964043101
 30
0.0
 11
-0.2505121018426192
 21
-3.046216659511245
 31
0.0
  0
LINE
  5
B2C
330
8AE
100
AcDbEntity
  8
LAYER2
  6
CONTINUOUS
100
AcDbLine
 10
-0.2866905230310673
 20
-3.079074296634258
 30
0.0
 11
-0.2788699319418192
 21
-3.061508961357713
 31
0.0
  0
ARC
  5
B2D
330
8AE
100
AcDbEntity
  8
LAYER2
  6
CONTINUOUS
100
AcDbCircle
 10
-0.3003414402695612
 20
-3.072857186489843
 30
0.0
 40
0.015
100
AcDbArc
 50
264.4547064115998
 51
335.5138032664541
  0
ARC
  5
B2E
330
8AE
100
AcDbEntity
  8
LAYER2
  6
CONTINUOUS
100
AcDbCircle
 10
-0.5052064088825017
 20
-3.045886201703786
 30
0.0
 40
0.015
100
AcDbArc
 50
189.486196733547
 51
260.5452935883997
  0
LINE
  5
B2F
330
8AE
100
AcDbEntity
  8
LAYER2
  6
CONTINUOUS
100
AcDbLine
 10
-0.5200012889065724
 20
-3.048358351592719
 30
0.0
 11
-0.5230091565133423
 21
-3.029367422683822
 31
0.0
  0
LINE
  5
B30
330
8AE
100
AcDbEntity
  8
LAYER2
  6
CONTINUOUS
100
AcDbLine
 10
-0.5375292743142855
 20
-3.010948740985477
 30
0.0
 11
-0.5464427780223545
 21
-3.007256646879456
 31
0.0
  0
ARC
  5
B31
330
8AE
100
AcDbEntity
  8
LAYER2
  6
CONTINUOUS
100
AcDbCircle
 10
-0.5467136766922885
 20
-3.033121849842257
 30
0.0
 40
0.0240000000000008
100
AcDbArc
 50
8.999999999999643
 51
67.50000000000104
  0
ARC
  5
B32
330
8AE
100
AcDbEntity
  8
LAYER2
  6
CONTINUOUS
100
AcDbCircle
 10
0.0
 20
0.0
 30
0.0
 40
3.102500000001785
100
AcDbArc
 50
260.5821860225665
 51
264.4178139774334
  0
ARC
  5
B33
330
8AE
100
AcDbEntity
  8
LAYER2
  6
CONTINUOUS
100
AcDbCircle
 10
0.0
 20
0.0
 30
0.0
 40
3.056499999976028
100
AcDbArc
 50
265.2987388648298
 51
266.2499999999999
  0
ARC
  5
B34
330
8AE
100
AcDbEntity
  8
LAYER2
  6
CONTINUOUS
100
AcDbCircle
 10
0.0
 20
0.0
 30
0.0
 40
3.056499999976028
100
AcDbArc
 50
258.7499999999999
 51
259.7012611351699
  0
ENDSEC
  0
SECTION
  2
OBJECTS
  0
DICTIONARY
  5
89E
330
0
100
AcDbDictionary
  3
ACAD_DETAILVIEWSTYLE
350
90C
  3
ACAD_GROUP
350
89F
  3
ACAD_IMAGE_VARS
350
903
  3
ACAD_MLINESTYLE
350
8A8
  3
ACAD_SCALELIST
350
8C2
  3
ACAD_SECTIONVIEWSTYLE
350
90D
  3
ACDBVARIABLEDICTIONARY
350
907
  3
APPDATA
350
901
  3
DWGPROPS
350
B35
  0
DICTIONARY
  5
913
330
894
100
AcDbDictionary
280
     1
  3
ACAD_LAYERSTATES
360
914
  3
ACLYDICTIONARY
360
923
  0
DICTIONARY
  5
90C
102
{ACAD_REACTORS
330
89E
102
}
330
89E
100
AcDbDictionary
  0
DICTIONARY
  5
89F
102
{ACAD_REACTORS
330
89E
102
}
330
89E
100
AcDbDictionary
  0
RASTERVARIABLES
  5
903
102
{ACAD_REACTORS
330
89E
102
}
330
89E
100
AcDbRasterVariables
 90
        0
 70
     1
 71
     1
 72
     0
  0
DICTIONARY
  5
8A8
102
{ACAD_REACTORS
330
89E
102
}
330
89E
100
AcDbDictionary
  3
STANDARD
350
8A9
  0
DICTIONARY
  5
8C2
102
{ACAD_REACTORS
330
89E
102
}
330
89E
100
AcDbDictionary
  0
DICTIONARY
  5
90D
102
{ACAD_REACTORS
330
89E
102
}
330
89E
100
AcDbDictionary
  0
DICTIONARY
  5
907
102
{ACAD_REACTORS
330
89E
102
}
330
89E
100
AcDbDictionary
  0
DICTIONARY
  5
901
102
{ACAD_REACTORS
330
89E
102
}
330
89E
100
AcDbDictionary
  0
XRECORD
  5
B35
102
{ACAD_REACTORS
330
89E
102
}
330
89E
100
AcDbXrecord
  1
DWGPROPS COOKIE
  2

  3

  4

  6

  7

  8
NickC
  9

300
=
301
=
302
=
303
=
304
=
305
=
306
=
307
=
308
=
309
=
 40
0.0
 41
2458486.777413692
 42
2458554.91555235
  1

 90
        0
  0
DICTIONARY
  5
914
102
{ACAD_REACTORS
330
913
102
}
330
913
100
AcDbDictionary
  0
DICTIONARY
  5
923
102
{ACAD_REACTORS
330
913
102
}
330
913
100
AcDbDictionary
1001
ACAD
1000
<All
  0
MLINESTYLE
  5
8A9
102
{ACAD_REACTORS
330
8A8
102
}
330
8A8
100
AcDbMlineStyle
  2
Standard
 70
     0
  3

 62
   256
 51
90.0
 52
90.0
 71
     2
 49
0.5
 62
   256
  6
BYLAYER
 49
-0.5
 62
   256
  6
BYLAYER
  0
ENDSEC
  0
EOF
