  0
SECTION
  2
HEADER
  9
$ACADVER
  1
AC1014
  9
$ACADMAINTVER
 70
     9
  9
$DWGCODEPAGE
  3
ANSI_1252
  9
$INSBASE
 10
0.0
 20
0.0
 30
0.0
  9
$EXTMIN
 10
-0.5157500000000157
 20
-0.5124901672732465
 30
0.0
  9
$EXTMAX
 10
0.515750000000005
 20
0.5124901672732665
 30
0.0
  9
$LIMMIN
 10
0.0
 20
0.0
  9
$LIMMAX
 10
12.0
 20
9.0
  9
$ORTHOMODE
 70
     0
  9
$REGENMODE
 70
     1
  9
$FILLMODE
 70
     1
  9
$QTEXTMODE
 70
     0
  9
$MIRRTEXT
 70
     0
  9
$DRAGMODE
 70
     2
  9
$LTSCALE
 40
1.0
  9
$OSMODE
 70
 13311
  9
$ATTMODE
 70
     1
  9
$TEXTSIZE
 40
0.2
  9
$TRACEWID
 40
0.05
  9
$TEXTSTYLE
  7
STANDARD
  9
$CLAYER
  8
0
  9
$CELTYPE
  6
BYLAYER
  9
$CECOLOR
 62
   256
  9
$CELTSCALE
 40
1.0
  9
$DELOBJ
 70
     1
  9
$DISPSILH
 70
     0
  9
$DIMSCALE
 40
1.0
  9
$DIMASZ
 40
0.18
  9
$DIMEXO
 40
0.0625
  9
$DIMDLI
 40
0.38
  9
$DIMRND
 40
0.0
  9
$DIMDLE
 40
0.0
  9
$DIMEXE
 40
0.18
  9
$DIMTP
 40
0.0
  9
$DIMTM
 40
0.0
  9
$DIMTXT
 40
0.18
  9
$DIMCEN
 40
0.09
  9
$DIMTSZ
 40
0.0
  9
$DIMTOL
 70
     0
  9
$DIMLIM
 70
     0
  9
$DIMTIH
 70
     1
  9
$DIMTOH
 70
     1
  9
$DIMSE1
 70
     0
  9
$DIMSE2
 70
     0
  9
$DIMTAD
 70
     0
  9
$DIMZIN
 70
     0
  9
$DIMBLK
  1

  9
$DIMASO
 70
     1
  9
$DIMSHO
 70
     1
  9
$DIMPOST
  1

  9
$DIMAPOST
  1

  9
$DIMALT
 70
     0
  9
$DIMALTD
 70
     2
  9
$DIMALTF
 40
25.4
  9
$DIMLFAC
 40
1.0
  9
$DIMTOFL
 70
     0
  9
$DIMTVP
 40
0.0
  9
$DIMTIX
 70
     0
  9
$DIMSOXD
 70
     0
  9
$DIMSAH
 70
     0
  9
$DIMBLK1
  1

  9
$DIMBLK2
  1

  9
$DIMSTYLE
  2
STANDARD
  9
$DIMCLRD
 70
     0
  9
$DIMCLRE
 70
     0
  9
$DIMCLRT
 70
     0
  9
$DIMTFAC
 40
1.0
  9
$DIMGAP
 40
0.09
  9
$DIMJUST
 70
     0
  9
$DIMSD1
 70
     0
  9
$DIMSD2
 70
     0
  9
$DIMTOLJ
 70
     1
  9
$DIMTZIN
 70
     0
  9
$DIMALTZ
 70
     0
  9
$DIMALTTZ
 70
     0
  9
$DIMFIT
 70
     3
  9
$DIMUPT
 70
     0
  9
$DIMUNIT
 70
     2
  9
$DIMDEC
 70
     4
  9
$DIMTDEC
 70
     4
  9
$DIMALTU
 70
     2
  9
$DIMALTTD
 70
     2
  9
$DIMTXSTY
  7
STANDARD
  9
$DIMAUNIT
 70
     0
  9
$LUNITS
 70
     2
  9
$LUPREC
 70
     4
  9
$SKETCHINC
 40
0.1
  9
$FILLETRAD
 40
0.0
  9
$AUNITS
 70
     0
  9
$AUPREC
 70
     0
  9
$MENU
  1
.
  9
$ELEVATION
 40
0.0
  9
$PELEVATION
 40
0.0
  9
$THICKNESS
 40
0.0
  9
$LIMCHECK
 70
     0
  9
$CHAMFERA
 40
0.0
  9
$CHAMFERB
 40
0.0
  9
$CHAMFERC
 40
0.0
  9
$CHAMFERD
 40
0.0
  9
$SKPOLY
 70
     0
  9
$TDCREATE
 40
2452642.771717604
  9
$TDUPDATE
 40
2458578.612944375
  9
$TDINDWG
 40
0.0009790162
  9
$TDUSRTIMER
 40
2458578.904464548
  9
$USRTIMER
 70
     1
  9
$ANGBASE
 50
0.0
  9
$ANGDIR
 70
     0
  9
$PDMODE
 70
     0
  9
$PDSIZE
 40
0.0
  9
$PLINEWID
 40
0.0
  9
$COORDS
 70
     1
  9
$SPLFRAME
 70
     0
  9
$SPLINETYPE
 70
     6
  9
$SPLINESEGS
 70
     8
  9
$ATTDIA
 70
     0
  9
$ATTREQ
 70
     1
  9
$HANDLING
 70
     1
  9
$HANDSEED
  5
1F4
  9
$SURFTAB1
 70
     6
  9
$SURFTAB2
 70
     6
  9
$SURFTYPE
 70
     6
  9
$SURFU
 70
     6
  9
$SURFV
 70
     6
  9
$UCSNAME
  2

  9
$UCSORG
 10
0.0
 20
0.0
 30
0.0
  9
$UCSXDIR
 10
1.0
 20
0.0
 30
0.0
  9
$UCSYDIR
 10
0.0
 20
1.0
 30
0.0
  9
$PUCSNAME
  2

  9
$PUCSORG
 10
0.0
 20
0.0
 30
0.0
  9
$PUCSXDIR
 10
1.0
 20
0.0
 30
0.0
  9
$PUCSYDIR
 10
0.0
 20
1.0
 30
0.0
  9
$USERI1
 70
     0
  9
$USERI2
 70
     0
  9
$USERI3
 70
     0
  9
$USERI4
 70
     0
  9
$USERI5
 70
     0
  9
$USERR1
 40
0.0
  9
$USERR2
 40
0.0
  9
$USERR3
 40
0.0
  9
$USERR4
 40
0.0
  9
$USERR5
 40
0.0
  9
$WORLDVIEW
 70
     1
  9
$SHADEDGE
 70
     3
  9
$SHADEDIF
 70
    70
  9
$TILEMODE
 70
     1
  9
$MAXACTVP
 70
    64
  9
$PINSBASE
 10
0.0
 20
0.0
 30
0.0
  9
$PLIMCHECK
 70
     0
  9
$PEXTMIN
 10
0.0
 20
0.0
 30
0.0
  9
$PEXTMAX
 10
0.0
 20
0.0
 30
0.0
  9
$PLIMMIN
 10
0.0
 20
0.0
  9
$PLIMMAX
 10
0.0
 20
0.0
  9
$UNITMODE
 70
     0
  9
$VISRETAIN
 70
     1
  9
$PLINEGEN
 70
     0
  9
$PSLTSCALE
 70
     1
  9
$TREEDEPTH
 70
  3020
  9
$PICKSTYLE
 70
     0
  9
$CMLSTYLE
  2
STANDARD
  9
$CMLJUST
 70
     0
  9
$CMLSCALE
 40
1.0
  9
$PROXYGRAPHICS
 70
     1
  9
$MEASUREMENT
 70
     0
  0
ENDSEC
  0
SECTION
  2
CLASSES
  0
CLASS
  1
ACDBDICTIONARYWDFLT
  2
AcDbDictionaryWithDefault
  3
ObjectDBX Classes
 90
        0
280
     0
281
     0
  0
CLASS
  1
ACDBPLACEHOLDER
  2
AcDbPlaceHolder
  3
ObjectDBX Classes
 90
        0
280
     0
281
     0
  0
CLASS
  1
LAYOUT
  2
AcDbLayout
  3
ObjectDBX Classes
 90
        0
280
     0
281
     0
  0
CLASS
  1
DICTIONARYVAR
  2
AcDbDictionaryVar
  3
ObjectDBX Classes
 90
        0
280
     0
281
     0
  0
CLASS
  1
TABLESTYLE
  2
AcDbTableStyle
  3
ObjectDBX Classes
 90
     4095
280
     0
281
     0
  0
CLASS
  1
MATERIAL
  2
AcDbMaterial
  3
ObjectDBX Classes
 90
     1153
280
     0
281
     0
  0
CLASS
  1
VISUALSTYLE
  2
AcDbVisualStyle
  3
ObjectDBX Classes
 90
     4095
280
     0
281
     0
  0
CLASS
  1
SCALE
  2
AcDbScale
  3
ObjectDBX Classes
 90
     1153
280
     0
281
     0
  0
CLASS
  1
CELLSTYLEMAP
  2
AcDbCellStyleMap
  3
ObjectDBX Classes
 90
     1152
280
     0
281
     0
  0
CLASS
  1
RASTERVARIABLES
  2
AcDbRasterVariables
  3
ISM
 90
        0
280
     0
281
     0
  0
CLASS
  1
MLEADERSTYLE
  2
AcDbMLeaderStyle
  3
ACDB_MLEADERSTYLE_CLASS
 90
     4095
280
     0
281
     0
  0
CLASS
  1
SUN
  2
AcDbSun
  3
SCENEOE
 90
     1153
280
     0
281
     0
  0
CLASS
  1
SORTENTSTABLE
  2
AcDbSortentsTable
  3
ObjectDBX Classes
 90
        0
280
     0
281
     0
  0
CLASS
  1
XRECORD
  2
AcDbXrecord
  3
ObjectDBX Classes
 90
        0
280
     0
281
     0
  0
CLASS
  1
LWPOLYLINE
  2
AcDbPolyline
  3
ObjectDBX Classes
 90
        0
280
     0
281
     1
  0
CLASS
  1
HATCH
  2
AcDbHatch
  3
ObjectDBX Classes
 90
        0
280
     0
281
     1
  0
ENDSEC
  0
SECTION
  2
TABLES
  0
TABLE
  2
VPORT
  5
8
330
0
100
AcDbSymbolTable
 70
     1
  0
VPORT
  5
94
330
8
100
AcDbSymbolTableRecord
100
AcDbViewportTableRecord
  2
*ACTIVE
 70
     0
 10
0.0
 20
0.0
 11
1.0
 21
1.0
 12
27.66959356597982
 22
19.53870295786204
 13
0.0
 23
0.0
 14
0.5
 24
0.5
 15
0.5
 25
0.5
 16
0.0
 26
0.0
 36
1.0
 17
-27.66959356597982
 27
-19.53870295786203
 37
0.0
 40
1.04547994123744
 41
1.982408660351827
 42
50.0
 43
0.0
 44
0.0
 50
0.0
 51
0.0
 71
    16
 72
  1000
 73
     1
 74
     3
 75
     0
 76
     0
 77
     0
 78
     0
  0
ENDTAB
  0
TABLE
  2
LTYPE
  5
5
330
0
100
AcDbSymbolTable
 70
     1
  0
LTYPE
  5
14
330
5
100
AcDbSymbolTableRecord
100
AcDbLinetypeTableRecord
  2
BYBLOCK
 70
     0
  3

 72
    65
 73
     0
 40
0.0
  0
LTYPE
  5
15
330
5
100
AcDbSymbolTableRecord
100
AcDbLinetypeTableRecord
  2
BYLAYER
 70
     0
  3

 72
    65
 73
     0
 40
0.0
  0
LTYPE
  5
16
330
5
100
AcDbSymbolTableRecord
100
AcDbLinetypeTableRecord
  2
CONTINUOUS
 70
     0
  3
Solid line
 72
    65
 73
     0
 40
0.0
  0
ENDTAB
  0
TABLE
  2
LAYER
  5
2
102
{ACAD_XDICTIONARY
360
181
102
}
330
0
100
AcDbSymbolTable
 70
     2
  0
LAYER
  5
10
330
2
100
AcDbSymbolTableRecord
100
AcDbLayerTableRecord
  2
0
 70
     0
 62
     7
  6
CONTINUOUS
  0
LAYER
  5
F0
330
2
100
AcDbSymbolTableRecord
100
AcDbLayerTableRecord
  2
LAYER2
 70
     0
 62
     1
  6
CONTINUOUS
1001
ACAECLAYERSTANDARD
1000

1000

  0
ENDTAB
  0
TABLE
  2
STYLE
  5
3
330
0
100
AcDbSymbolTable
 70
     1
  0
STYLE
  5
11
330
3
100
AcDbSymbolTableRecord
100
AcDbTextStyleTableRecord
  2
STANDARD
 70
     0
 40
0.0
 41
1.0
 50
0.0
 71
     0
 42
0.2
  3
txt
  4

  0
ENDTAB
  0
TABLE
  2
VIEW
  5
6
330
0
100
AcDbSymbolTable
 70
     0
  0
ENDTAB
  0
TABLE
  2
UCS
  5
7
330
0
100
AcDbSymbolTable
 70
     0
  0
ENDTAB
  0
TABLE
  2
APPID
  5
9
330
0
100
AcDbSymbolTable
 70
     2
  0
APPID
  5
12
330
9
100
AcDbSymbolTableRecord
100
AcDbRegAppTableRecord
  2
ACAD
 70
     0
  0
APPID
  5
F2
330
9
100
AcDbSymbolTableRecord
100
AcDbRegAppTableRecord
  2
ACAECLAYERSTANDARD
 70
     0
  0
ENDTAB
  0
TABLE
  2
DIMSTYLE
  5
A
330
0
100
AcDbSymbolTable
 70
     1
  0
DIMSTYLE
105
27
330
A
100
AcDbSymbolTableRecord
100
AcDbDimStyleTableRecord
  2
STANDARD
 70
     0
  3

  4

  5

  6

  7

 40
1.0
 41
0.18
 42
0.0625
 43
0.38
 44
0.18
 45
0.0
 46
0.0
 47
0.0
 48
0.0
140
0.18
141
0.09
142
0.0
143
25.4
144
1.0
145
0.0
146
1.0
147
0.09
 71
     0
 72
     0
 73
     1
 74
     1
 75
     0
 76
     0
 77
     0
 78
     0
170
     0
171
     2
172
     0
173
     0
174
     0
175
     0
176
     0
177
     0
178
     0
270
     2
271
     4
272
     4
273
     2
274
     2
340
11
275
     0
280
     0
281
     0
282
     0
283
     1
284
     0
285
     0
286
     0
287
     3
288
     0
  0
ENDTAB
  0
TABLE
  2
BLOCK_RECORD
  5
1
330
0
100
AcDbSymbolTable
 70
     2
  0
BLOCK_RECORD
  5
1F
330
1
100
AcDbSymbolTableRecord
100
AcDbBlockTableRecord
  2
*MODEL_SPACE
  0
BLOCK_RECORD
  5
58
330
1
100
AcDbSymbolTableRecord
100
AcDbBlockTableRecord
  2
*PAPER_SPACE
  0
BLOCK_RECORD
  5
5D
330
1
100
AcDbSymbolTableRecord
100
AcDbBlockTableRecord
  2
*PAPER_SPACE0
  0
ENDTAB
  0
ENDSEC
  0
SECTION
  2
BLOCKS
  0
BLOCK
  5
20
330
1F
100
AcDbEntity
  8
0
100
AcDbBlockBegin
  2
*MODEL_SPACE
 70
     0
 10
0.0
 20
0.0
 30
0.0
  3
*MODEL_SPACE
  1

  0
ENDBLK
  5
21
330
1F
100
AcDbEntity
  8
0
100
AcDbBlockEnd
  0
BLOCK
  5
5A
330
58
100
AcDbEntity
 67
     1
  8
0
100
AcDbBlockBegin
  2
*PAPER_SPACE
 70
     0
 10
0.0
 20
0.0
 30
0.0
  3
*PAPER_SPACE
  1

  0
ENDBLK
  5
5B
330
58
100
AcDbEntity
 67
     1
  8
0
100
AcDbBlockEnd
  0
BLOCK
  5
5F
330
5D
100
AcDbEntity
  8
0
100
AcDbBlockBegin
  2
*PAPER_SPACE0
 70
     0
 10
0.0
 20
0.0
 30
0.0
  3
*PAPER_SPACE0
  1

  0
ENDBLK
  5
60
330
5D
100
AcDbEntity
  8
0
100
AcDbBlockEnd
  0
ENDSEC
  0
SECTION
  2
ENTITIES
  0
ARC
  5
186
330
1F
100
AcDbEntity
  8
LAYER2
100
AcDbCircle
 10
0.0000000000000202
 20
0.0000000000000044
 30
0.0
 40
0.494099999999987
100
AcDbArc
 50
347.8347351429457
 51
352.1652648570508
  0
ARC
  5
187
330
1F
100
AcDbEntity
  8
LAYER2
  6
CONTINUOUS
100
AcDbCircle
 10
0.0000000000000056
 20
0.0000000000000133
 30
0.0
 40
0.51575
100
AcDbArc
 50
356.4453229667198
 51
3.554677033280078
  0
ARC
  5
188
330
1F
100
AcDbEntity
  8
LAYER2
  6
CONTINUOUS
100
AcDbCircle
 10
0.5090556217080572
 20
-0.0696317606319443
 30
0.0
 40
0.0197
100
AcDbArc
 50
123.1513758466557
 51
173.359964184715
  0
ARC
  5
189
330
1F
100
AcDbEntity
  8
LAYER2
  6
CONTINUOUS
100
AcDbCircle
 10
0.4756975945001433
 20
-0.0185608097812291
 30
0.0
 40
0.0413
100
AcDbArc
 50
303.1513758466527
 51
341.0436381381472
  0
ARC
  5
18A
330
1F
100
AcDbEntity
  8
LAYER2
  6
CONTINUOUS
100
AcDbCircle
 10
0.5090556217080572
 20
0.069631760631971
 30
0.0
 40
0.0197
100
AcDbArc
 50
186.6400358153981
 51
236.8486241533438
  0
ARC
  5
18B
330
1F
100
AcDbEntity
  8
LAYER2
  6
CONTINUOUS
100
AcDbCircle
 10
0.4756975945001433
 20
0.0185608097812553
 30
0.0
 40
0.0413
100
AcDbArc
 50
18.95636186185272
 51
56.84862415334737
  0
ARC
  5
18C
330
1F
100
AcDbEntity
  8
LAYER2
100
AcDbCircle
 10
0.0000000000000207
 20
0.0000000000000133
 30
0.0
 40
0.494099999999987
100
AcDbArc
 50
7.834735142945706
 51
12.16526485705079
  0
ARC
  5
18D
330
1F
100
AcDbEntity
  8
LAYER2
  6
CONTINUOUS
100
AcDbCircle
 10
0.0000000000000038
 20
0.0000000000000169
 30
0.0
 40
0.51575
100
AcDbArc
 50
16.44532296671977
 51
23.55467703328006
  0
ARC
  5
18E
330
1F
100
AcDbEntity
  8
LAYER2
  6
CONTINUOUS
100
AcDbCircle
 10
0.5021712760400036
 20
0.1086748250591607
 30
0.0
 40
0.0197
100
AcDbArc
 50
143.1513758466563
 51
193.3599641847148
  0
ARC
  5
18F
330
1F
100
AcDbEntity
  8
LAYER2
  6
CONTINUOUS
100
AcDbCircle
 10
0.4533576900990116
 20
0.1452567034633852
 30
0.0
 40
0.0413
100
AcDbArc
 50
323.1513758466527
 51
1.043638138147638
  0
ARC
  5
190
330
1F
100
AcDbEntity
  8
LAYER2
  6
CONTINUOUS
100
AcDbCircle
 10
0.4545403465372819
 20
0.2395397283355232
 30
0.0
 40
0.0197
100
AcDbArc
 50
206.6400358153969
 51
256.8486241533441
  0
ARC
  5
191
330
1F
100
AcDbEntity
  8
LAYER2
  6
CONTINUOUS
100
AcDbCircle
 10
0.4406613484557697
 20
0.180139615437874
 30
0.0
 40
0.0413
100
AcDbArc
 50
38.95636186185217
 51
76.84862415334766
  0
ARC
  5
192
330
1F
100
AcDbEntity
  8
LAYER2
100
AcDbCircle
 10
0.000000000000018
 20
0.0000000000000218
 30
0.0
 40
0.4940999999999869
100
AcDbArc
 50
27.83473514294581
 51
32.16526485705079
  0
ARC
  5
193
330
1F
100
AcDbEntity
  8
LAYER2
  6
CONTINUOUS
100
AcDbCircle
 10
0.0000000000000009
 20
0.0000000000000195
 30
0.0
 40
0.5157499999999999
100
AcDbArc
 50
36.44532296671986
 51
43.55467703328007
  0
ARC
  5
194
330
1F
100
AcDbEntity
  8
LAYER2
  6
CONTINUOUS
100
AcDbCircle
 10
0.4347176632228117
 20
0.273873622978531
 30
0.0
 40
0.0197
100
AcDbArc
 50
163.1513758466564
 51
213.359964184715
  0
ARC
  5
195
330
1F
100
AcDbEntity
  8
LAYER2
  6
CONTINUOUS
100
AcDbCircle
 10
0.3763361574250278
 20
0.2915541145096903
 30
0.0
 40
0.0412999999999999
100
AcDbArc
 50
343.1513758466526
 51
21.0436381381482
  0
ARC
  5
196
330
1F
100
AcDbEntity
  8
LAYER2
  6
CONTINUOUS
100
AcDbCircle
 10
0.345200797273049
 20
0.380555669571935
 30
0.0
 40
0.0197
100
AcDbArc
 50
226.6400358153981
 51
276.848624153345
  0
ARC
  5
197
330
1F
100
AcDbEntity
  8
LAYER2
  6
CONTINUOUS
100
AcDbCircle
 10
0.3524748403187652
 20
0.3199909248951087
 30
0.0
 40
0.0412999999999999
100
AcDbArc
 50
58.95636186185182
 51
96.84862415334749
  0
ARC
  5
198
330
1F
100
AcDbEntity
  8
LAYER2
100
AcDbCircle
 10
0.0000000000000125
 20
0.0000000000000293
 30
0.0
 40
0.494099999999987
100
AcDbArc
 50
47.83473514294573
 51
52.16526485705073
  0
ARC
  5
199
330
1F
100
AcDbEntity
  8
LAYER2
  6
CONTINUOUS
100
AcDbCircle
 10
-0.0000000000000027
 20
0.0000000000000209
 30
0.0
 40
0.51575
100
AcDbArc
 50
56.44532296671979
 51
63.55467703328009
  0
ARC
  5
19A
330
1F
100
AcDbEntity
  8
LAYER2
  6
CONTINUOUS
100
AcDbCircle
 10
0.3148306844715355
 20
0.406039220022496
 30
0.0
 40
0.0197
100
AcDbArc
 50
183.1513758466561
 51
233.359964184716
  0
ARC
  5
19B
330
1F
100
AcDbEntity
  8
LAYER2
  6
CONTINUOUS
100
AcDbCircle
 10
0.253922930035433
 20
0.4026857964656676
 30
0.0
 40
0.0413
100
AcDbArc
 50
3.151375846651994
 51
41.04363813814708
  0
ARC
  5
19C
330
1F
100
AcDbEntity
  8
LAYER2
  6
CONTINUOUS
100
AcDbCircle
 10
0.1942249372365106
 20
0.4756709806544537
 30
0.0
 40
0.0197
100
AcDbArc
 50
246.6400358153983
 51
296.848624153345
  0
ARC
  5
19D
330
1F
100
AcDbEntity
  8
LAYER2
  6
CONTINUOUS
100
AcDbCircle
 10
0.2217746644646998
 20
0.4212466062469096
 30
0.0
 40
0.0413
100
AcDbArc
 50
78.95636186185237
 51
116.8486241533469
  0
ARC
  5
19E
330
1F
100
AcDbEntity
  8
LAYER2
100
AcDbCircle
 10
0.000000000000005
 20
0.0000000000000338
 30
0.0
 40
0.4940999999999869
100
AcDbArc
 50
67.83473514294577
 51
72.16526485705081
  0
ARC
  5
19F
330
1F
100
AcDbEntity
  8
LAYER2
  6
CONTINUOUS
100
AcDbCircle
 10
-0.0000000000000066
 20
0.0000000000000213
 30
0.0
 40
0.5157499999999999
100
AcDbArc
 50
76.4453229667198
 51
83.5546770332801
  0
ARC
  5
1A0
330
1F
100
AcDbEntity
  8
LAYER2
  6
CONTINUOUS
100
AcDbCircle
 10
0.1569704787669449
 20
0.4892304946310801
 30
0.0
 40
0.0197
100
AcDbArc
 50
203.1513758466534
 51
253.3599641847151
  0
ARC
  5
1A1
330
1F
100
AcDbEntity
  8
LAYER2
  6
CONTINUOUS
100
AcDbCircle
 10
0.1008828497802372
 20
0.4652476283584788
 30
0.0
 40
0.0412999999999999
100
AcDbArc
 50
23.15137584665296
 51
61.04363813814746
  0
ARC
  5
1A2
330
1F
100
AcDbEntity
  8
LAYER2
  6
CONTINUOUS
100
AcDbCircle
 10
0.0198226833144606
 20
0.5134133513140391
 30
0.0
 40
0.0197
100
AcDbArc
 50
266.6400358153984
 51
316.8486241533444
  0
ARC
  5
1A3
330
1F
100
AcDbEntity
  8
LAYER2
  6
CONTINUOUS
100
AcDbCircle
 10
0.0643251910307326
 20
0.4716937299475497
 30
0.0
 40
0.0412999999999999
100
AcDbArc
 50
98.95636186185196
 51
136.8486241533477
  0
ARC
  5
1A4
330
1F
100
AcDbEntity
  8
LAYER2
100
AcDbCircle
 10
-0.0000000000000039
 20
0.000000000000036
 30
0.0
 40
0.4940999999999869
100
AcDbArc
 50
87.83473514294576
 51
92.16526485705074
  0
ARC
  5
1A5
330
1F
100
AcDbEntity
  8
LAYER2
  6
CONTINUOUS
100
AcDbCircle
 10
-0.0000000000000102
 20
0.00000000000002
 30
0.0
 40
0.5157499999999999
100
AcDbArc
 50
96.44532296671976
 51
103.55467703328
  0
ARC
  5
1A6
330
1F
100
AcDbEntity
  8
LAYER2
  6
CONTINUOUS
100
AcDbCircle
 10
-0.0198226833144777
 20
0.5134133513140382
 30
0.0
 40
0.0197
100
AcDbArc
 50
223.1513758466557
 51
273.3599641847154
  0
ARC
  5
1A7
330
1F
100
AcDbEntity
  8
LAYER2
  6
CONTINUOUS
100
AcDbCircle
 10
-0.0643251910307492
 20
0.4716937299475479
 30
0.0
 40
0.0412999999999999
100
AcDbArc
 50
43.15137584665355
 51
81.04363813814744
  0
ARC
  5
1A8
330
1F
100
AcDbEntity
  8
LAYER2
  6
CONTINUOUS
100
AcDbCircle
 10
-0.156970478766962
 20
0.4892304946310793
 30
0.0
 40
0.0197
100
AcDbArc
 50
286.6400358153986
 51
336.8486241533466
  0
ARC
  5
1A9
330
1F
100
AcDbEntity
  8
LAYER2
  6
CONTINUOUS
100
AcDbCircle
 10
-0.1008828497802536
 20
0.4652476283584779
 30
0.0
 40
0.0412999999999999
100
AcDbArc
 50
118.9563618618522
 51
156.8486241533471
  0
ARC
  5
1AA
330
1F
100
AcDbEntity
  8
LAYER2
100
AcDbCircle
 10
-0.0000000000000128
 20
0.0000000000000346
 30
0.0
 40
0.494099999999987
100
AcDbArc
 50
107.8347351429457
 51
112.1652648570507
  0
ARC
  5
1AB
330
1F
100
AcDbEntity
  8
LAYER2
  6
CONTINUOUS
100
AcDbCircle
 10
-0.0000000000000133
 20
0.0000000000000178
 30
0.0
 40
0.51575
100
AcDbArc
 50
116.4453229667198
 51
123.55467703328
  0
ARC
  5
1AC
330
1F
100
AcDbEntity
  8
LAYER2
  6
CONTINUOUS
100
AcDbCircle
 10
-0.1942249372365267
 20
0.4756709806544501
 30
0.0
 40
0.0197
100
AcDbArc
 50
243.1513758466548
 51
293.3599641847144
  0
ARC
  5
1AD
330
1F
100
AcDbEntity
  8
LAYER2
  6
CONTINUOUS
100
AcDbCircle
 10
-0.2217746644647155
 20
0.4212466062469069
 30
0.0
 40
0.0413
100
AcDbArc
 50
63.15137584665204
 51
101.0436381381474
  0
ARC
  5
1AE
330
1F
100
AcDbEntity
  8
LAYER2
  6
CONTINUOUS
100
AcDbCircle
 10
-0.3148306844715517
 20
0.4060392200224925
 30
0.0
 40
0.0197
100
AcDbArc
 50
306.6400358153995
 51
356.848624153344
  0
ARC
  5
1AF
330
1F
100
AcDbEntity
  8
LAYER2
  6
CONTINUOUS
100
AcDbCircle
 10
-0.2539229300354485
 20
0.4026857964656649
 30
0.0
 40
0.0413
100
AcDbArc
 50
138.9563618618529
 51
176.848624153348
  0
ARC
  5
1B0
330
1F
100
AcDbEntity
  8
LAYER2
100
AcDbCircle
 10
-0.0000000000000208
 20
0.0000000000000306
 30
0.0
 40
0.494099999999987
100
AcDbArc
 50
127.8347351429457
 51
132.1652648570508
  0
ARC
  5
1B1
330
1F
100
AcDbEntity
  8
LAYER2
  6
CONTINUOUS
100
AcDbCircle
 10
-0.0000000000000154
 20
0.0000000000000142
 30
0.0
 40
0.51575
100
AcDbArc
 50
136.4453229667198
 51
143.55467703328
  0
ARC
  5
1B2
330
1F
100
AcDbEntity
  8
LAYER2
  6
CONTINUOUS
100
AcDbCircle
 10
-0.3452007972730637
 20
0.3805556695719297
 30
0.0
 40
0.0197
100
AcDbArc
 50
263.1513758466558
 51
313.3599641847152
  0
ARC
  5
1B3
330
1F
100
AcDbEntity
  8
LAYER2
  6
CONTINUOUS
100
AcDbCircle
 10
-0.3524748403187794
 20
0.3199909248951034
 30
0.0
 40
0.0413
100
AcDbArc
 50
83.15137584665246
 51
121.0436381381469
  0
ARC
  5
1B4
330
1F
100
AcDbEntity
  8
LAYER2
  6
CONTINUOUS
100
AcDbCircle
 10
-0.4347176632228263
 20
0.2738736229785257
 30
0.0
 40
0.0197
100
AcDbArc
 50
326.6400358153994
 51
16.84862415334625
  0
ARC
  5
1B5
330
1F
100
AcDbEntity
  8
LAYER2
  6
CONTINUOUS
100
AcDbCircle
 10
-0.376336157425042
 20
0.2915541145096858
 30
0.0
 40
0.0413
100
AcDbArc
 50
158.9563618618531
 51
196.8486241533473
  0
ARC
  5
1B6
330
1F
100
AcDbEntity
  8
LAYER2
100
AcDbCircle
 10
-0.000000000000027
 20
0.000000000000024
 30
0.0
 40
0.494099999999987
100
AcDbArc
 50
147.8347351429456
 51
152.1652648570509
  0
ARC
  5
1B7
330
1F
100
AcDbEntity
  8
LAYER2
  6
CONTINUOUS
100
AcDbCircle
 10
-0.0000000000000162
 20
0.0000000000000107
 30
0.0
 40
0.51575
100
AcDbArc
 50
156.4453229667198
 51
163.5546770332801
  0
ARC
  5
1B8
330
1F
100
AcDbEntity
  8
LAYER2
  6
CONTINUOUS
100
AcDbCircle
 10
-0.4545403465372944
 20
0.239539728335517
 30
0.0
 40
0.0197
100
AcDbArc
 50
283.1513758466562
 51
333.3599641847158
  0
ARC
  5
1B9
330
1F
100
AcDbEntity
  8
LAYER2
  6
CONTINUOUS
100
AcDbCircle
 10
-0.440661348455782
 20
0.1801396154378678
 30
0.0
 40
0.0413
100
AcDbArc
 50
103.1513758466523
 51
141.0436381381471
  0
ARC
  5
1BA
330
1F
100
AcDbEntity
  8
LAYER2
  6
CONTINUOUS
100
AcDbCircle
 10
-0.5021712760400161
 20
0.1086748250591545
 30
0.0
 40
0.0197
100
AcDbArc
 50
346.640035815398
 51
36.84862415334364
  0
ARC
  5
1BB
330
1F
100
AcDbEntity
  8
LAYER2
  6
CONTINUOUS
100
AcDbCircle
 10
-0.4533576900990238
 20
0.1452567034633794
 30
0.0
 40
0.0413
100
AcDbArc
 50
178.9563618618524
 51
216.8486241533473
  0
ARC
  5
1BC
330
1F
100
AcDbEntity
  8
LAYER2
100
AcDbCircle
 10
-0.0000000000000304
 20
0.000000000000016
 30
0.0
 40
0.494099999999987
100
AcDbArc
 50
167.8347351429458
 51
172.1652648570509
  0
ARC
  5
1BD
330
1F
100
AcDbEntity
  8
LAYER2
  6
CONTINUOUS
100
AcDbCircle
 10
-0.0000000000000158
 20
0.0000000000000067
 30
0.0
 40
0.51575
100
AcDbArc
 50
176.4453229667198
 51
183.55467703328
  0
ARC
  5
1BE
330
1F
100
AcDbEntity
  8
LAYER2
  6
CONTINUOUS
100
AcDbCircle
 10
-0.5090556217080674
 20
0.0696317606319643
 30
0.0
 40
0.0197
100
AcDbArc
 50
303.1513758466557
 51
353.359964184715
  0
ARC
  5
1BF
330
1F
100
AcDbEntity
  8
LAYER2
  6
CONTINUOUS
100
AcDbCircle
 10
-0.4756975945001535
 20
0.0185608097812491
 30
0.0
 40
0.0413
100
AcDbArc
 50
123.1513758466525
 51
161.0436381381472
  0
ARC
  5
1C0
330
1F
100
AcDbEntity
  8
LAYER2
  6
CONTINUOUS
100
AcDbCircle
 10
-0.5090556217080674
 20
-0.069631760631951
 30
0.0
 40
0.0197
100
AcDbArc
 50
6.640035815398122
 51
56.84862415334431
  0
ARC
  5
1C1
330
1F
100
AcDbEntity
  8
LAYER2
  6
CONTINUOUS
100
AcDbCircle
 10
-0.4756975945001535
 20
-0.0185608097812353
 30
0.0
 40
0.0413
100
AcDbArc
 50
198.9563618618528
 51
236.8486241533473
  0
ARC
  5
1C2
330
1F
100
AcDbEntity
  8
LAYER2
100
AcDbCircle
 10
-0.0000000000000309
 20
0.0000000000000067
 30
0.0
 40
0.494099999999987
100
AcDbArc
 50
187.8347351429456
 51
192.1652648570507
  0
ARC
  5
1C3
330
1F
100
AcDbEntity
  8
LAYER2
  6
CONTINUOUS
100
AcDbCircle
 10
-0.000000000000014
 20
0.0000000000000031
 30
0.0
 40
0.51575
100
AcDbArc
 50
196.4453229667197
 51
203.55467703328
  0
ARC
  5
1C4
330
1F
100
AcDbEntity
  8
LAYER2
  6
CONTINUOUS
100
AcDbCircle
 10
-0.5021712760400138
 20
-0.1086748250591407
 30
0.0
 40
0.0197
100
AcDbArc
 50
323.1513758466549
 51
13.35996418471484
  0
ARC
  5
1C5
330
1F
100
AcDbEntity
  8
LAYER2
  6
CONTINUOUS
100
AcDbCircle
 10
-0.4533576900990218
 20
-0.1452567034633652
 30
0.0
 40
0.0413
100
AcDbArc
 50
143.1513758466527
 51
181.0436381381476
  0
ARC
  5
1C6
330
1F
100
AcDbEntity
  8
LAYER2
  6
CONTINUOUS
100
AcDbCircle
 10
-0.4545403465372921
 20
-0.2395397283355036
 30
0.0
 40
0.0197
100
AcDbArc
 50
26.64003581539972
 51
76.84862415334472
  0
ARC
  5
1C7
330
1F
100
AcDbEntity
  8
LAYER2
  6
CONTINUOUS
100
AcDbCircle
 10
-0.4406613484557798
 20
-0.1801396154378541
 30
0.0
 40
0.0413
100
AcDbArc
 50
218.9563618618521
 51
256.8486241533474
  0
ARC
  5
1C8
330
1F
100
AcDbEntity
  8
LAYER2
100
AcDbCircle
 10
-0.0000000000000282
 20
-0.0000000000000018
 30
0.0
 40
0.4940999999999869
100
AcDbArc
 50
207.8347351429457
 51
212.1652648570508
  0
ARC
  5
1C9
330
1F
100
AcDbEntity
  8
LAYER2
  6
CONTINUOUS
100
AcDbCircle
 10
-0.0000000000000111
 20
0.0000000000000004
 30
0.0
 40
0.5157499999999999
100
AcDbArc
 50
216.4453229667197
 51
223.55467703328
  0
ARC
  5
1CA
330
1F
100
AcDbEntity
  8
LAYER2
  6
CONTINUOUS
100
AcDbCircle
 10
-0.4347176632228219
 20
-0.273873622978511
 30
0.0
 40
0.0197
100
AcDbArc
 50
343.1513758466551
 51
33.359964184715
  0
ARC
  5
1CB
330
1F
100
AcDbEntity
  8
LAYER2
  6
CONTINUOUS
100
AcDbCircle
 10
-0.376336157425038
 20
-0.2915541145096703
 30
0.0
 40
0.0412999999999999
100
AcDbArc
 50
163.1513758466526
 51
201.0436381381475
  0
ARC
  5
1CC
330
1F
100
AcDbEntity
  8
LAYER2
  6
CONTINUOUS
100
AcDbCircle
 10
-0.3452007972730592
 20
-0.380555669571915
 30
0.0
 40
0.0197
100
AcDbArc
 50
46.64003581539802
 51
96.84862415334455
  0
ARC
  5
1CD
330
1F
100
AcDbEntity
  8
LAYER2
  6
CONTINUOUS
100
AcDbCircle
 10
-0.3524748403187754
 20
-0.3199909248950883
 30
0.0
 40
0.0412999999999999
100
AcDbArc
 50
238.9563618618523
 51
276.8486241533474
  0
ARC
  5
1CE
330
1F
100
AcDbEntity
  8
LAYER2
100
AcDbCircle
 10
-0.0000000000000228
 20
-0.0000000000000089
 30
0.0
 40
0.494099999999987
100
AcDbArc
 50
227.8347351429456
 51
232.1652648570507
  0
ARC
  5
1CF
330
1F
100
AcDbEntity
  8
LAYER2
  6
CONTINUOUS
100
AcDbCircle
 10
-0.0000000000000075
 20
-0.0000000000000009
 30
0.0
 40
0.51575
100
AcDbArc
 50
236.4453229667198
 51
243.55467703328
  0
ARC
  5
1D0
330
1F
100
AcDbEntity
  8
LAYER2
  6
CONTINUOUS
100
AcDbCircle
 10
-0.3148306844715459
 20
-0.4060392200224761
 30
0.0
 40
0.0197
100
AcDbArc
 50
3.151375846656066
 51
53.35996418471606
  0
ARC
  5
1D1
330
1F
100
AcDbEntity
  8
LAYER2
  6
CONTINUOUS
100
AcDbCircle
 10
-0.2539229300354433
 20
-0.4026857964656476
 30
0.0
 40
0.0413
100
AcDbArc
 50
183.151375846652
 51
221.043638138147
  0
ARC
  5
1D2
330
1F
100
AcDbEntity
  8
LAYER2
  6
CONTINUOUS
100
AcDbCircle
 10
-0.194224937236521
 20
-0.4756709806544337
 30
0.0
 40
0.0197
100
AcDbArc
 50
66.64003581539849
 51
116.8486241533441
  0
ARC
  5
1D3
330
1F
100
AcDbEntity
  8
LAYER2
  6
CONTINUOUS
100
AcDbCircle
 10
-0.2217746644647102
 20
-0.42124660624689
 30
0.0
 40
0.0413
100
AcDbArc
 50
258.956361861852
 51
296.8486241533473
  0
ARC
  5
1D4
330
1F
100
AcDbEntity
  8
LAYER2
100
AcDbCircle
 10
-0.0000000000000152
 20
-0.0000000000000142
 30
0.0
 40
0.4940999999999869
100
AcDbArc
 50
247.8347351429458
 51
252.1652648570508
  0
ARC
  5
1D5
330
1F
100
AcDbEntity
  8
LAYER2
  6
CONTINUOUS
100
AcDbCircle
 10
-0.0000000000000037
 20
-0.0000000000000009
 30
0.0
 40
0.5157499999999999
100
AcDbArc
 50
256.4453229667198
 51
263.5546770332801
  0
ARC
  5
1D6
330
1F
100
AcDbEntity
  8
LAYER2
  6
CONTINUOUS
100
AcDbCircle
 10
-0.156970478766955
 20
-0.4892304946310606
 30
0.0
 40
0.0197
100
AcDbArc
 50
23.1513758466562
 51
73.35996418471505
  0
ARC
  5
1D7
330
1F
100
AcDbEntity
  8
LAYER2
  6
CONTINUOUS
100
AcDbCircle
 10
-0.1008828497802474
 20
-0.4652476283584588
 30
0.0
 40
0.0412999999999999
100
AcDbArc
 50
203.1513758466523
 51
241.0436381381476
  0
ARC
  5
1D8
330
1F
100
AcDbEntity
  8
LAYER2
  6
CONTINUOUS
100
AcDbCircle
 10
-0.0198226833144708
 20
-0.5134133513140196
 30
0.0
 40
0.0197
100
AcDbArc
 50
86.64003581539863
 51
136.8486241533445
  0
ARC
  5
1D9
330
1F
100
AcDbEntity
  8
LAYER2
  6
CONTINUOUS
100
AcDbCircle
 10
-0.0643251910307429
 20
-0.4716937299475292
 30
0.0
 40
0.0412999999999999
100
AcDbArc
 50
278.9563618618521
 51
316.848624153347
  0
ARC
  5
1DA
330
1F
100
AcDbEntity
  8
LAYER2
100
AcDbCircle
 10
-0.0000000000000063
 20
-0.000000000000016
 30
0.0
 40
0.494099999999987
100
AcDbArc
 50
267.8347351429457
 51
272.1652648570508
  0
ARC
  5
1DB
330
1F
100
AcDbEntity
  8
LAYER2
  6
CONTINUOUS
100
AcDbCircle
 10
0.0
 20
0.0
 30
0.0
 40
0.51575
100
AcDbArc
 50
276.4453229667198
 51
283.5546770332801
  0
ARC
  5
1DC
330
1F
100
AcDbEntity
  8
LAYER2
  6
CONTINUOUS
100
AcDbCircle
 10
0.0198226833144673
 20
-0.5134133513140182
 30
0.0
 40
0.0197
100
AcDbArc
 50
43.15137584665567
 51
93.35996418471524
  0
ARC
  5
1DD
330
1F
100
AcDbEntity
  8
LAYER2
  6
CONTINUOUS
100
AcDbCircle
 10
0.0643251910307387
 20
-0.4716937299475283
 30
0.0
 40
0.0413
100
AcDbArc
 50
223.1513758466523
 51
261.0436381381475
  0
ARC
  5
1DE
330
1F
100
AcDbEntity
  8
LAYER2
  6
CONTINUOUS
100
AcDbCircle
 10
0.1569704787669516
 20
-0.4892304946310597
 30
0.0
 40
0.0197
100
AcDbArc
 50
106.6400358153984
 51
156.8486241533438
  0
ARC
  5
1DF
330
1F
100
AcDbEntity
  8
LAYER2
  6
CONTINUOUS
100
AcDbCircle
 10
0.1008828497802433
 20
-0.4652476283584579
 30
0.0
 40
0.0413
100
AcDbArc
 50
298.9563618618522
 51
336.848624153347
  0
ARC
  5
1E0
330
1F
100
AcDbEntity
  8
LAYER2
100
AcDbCircle
 10
0.0000000000000026
 20
-0.0000000000000147
 30
0.0
 40
0.494099999999987
100
AcDbArc
 50
287.8347351429458
 51
292.1652648570508
  0
ARC
  5
1E1
330
1F
100
AcDbEntity
  8
LAYER2
  6
CONTINUOUS
100
AcDbCircle
 10
0.0000000000000031
 20
0.0000000000000027
 30
0.0
 40
0.51575
100
AcDbArc
 50
296.4453229667198
 51
303.55467703328
  0
ARC
  5
1E2
330
1F
100
AcDbEntity
  8
LAYER2
  6
CONTINUOUS
100
AcDbCircle
 10
0.1942249372365167
 20
-0.4756709806544301
 30
0.0
 40
0.0197
100
AcDbArc
 50
63.15137584665608
 51
113.3599641847153
  0
ARC
  5
1E3
330
1F
100
AcDbEntity
  8
LAYER2
  6
CONTINUOUS
100
AcDbCircle
 10
0.2217746644647054
 20
-0.4212466062468865
 30
0.0
 40
0.0413
100
AcDbArc
 50
243.1513758466525
 51
281.0436381381475
  0
ARC
  5
1E4
330
1F
100
AcDbEntity
  8
LAYER2
  6
CONTINUOUS
100
AcDbCircle
 10
0.3148306844715416
 20
-0.4060392200224725
 30
0.0
 40
0.0197
100
AcDbArc
 50
126.6400358153983
 51
176.8486241533452
  0
ARC
  5
1E5
330
1F
100
AcDbEntity
  8
LAYER2
  6
CONTINUOUS
100
AcDbCircle
 10
0.2539229300354384
 20
-0.4026857964656445
 30
0.0
 40
0.0413
100
AcDbArc
 50
318.9563618618523
 51
356.8486241533474
  0
ARC
  5
1E6
330
1F
100
AcDbEntity
  8
LAYER2
100
AcDbCircle
 10
0.0000000000000105
 20
-0.0000000000000107
 30
0.0
 40
0.494099999999987
100
AcDbArc
 50
307.8347351429457
 51
312.1652648570508
  0
ARC
  5
1E7
330
1F
100
AcDbEntity
  8
LAYER2
  6
CONTINUOUS
100
AcDbCircle
 10
0.0000000000000052
 20
0.0000000000000058
 30
0.0
 40
0.51575
100
AcDbArc
 50
316.4453229667198
 51
323.5546770332801
  0
ARC
  5
1E8
330
1F
100
AcDbEntity
  8
LAYER2
  6
CONTINUOUS
100
AcDbCircle
 10
0.3452007972730534
 20
-0.3805556695719101
 30
0.0
 40
0.0197
100
AcDbArc
 50
83.15137584665594
 51
133.3599641847153
  0
ARC
  5
1E9
330
1F
100
AcDbEntity
  8
LAYER2
  6
CONTINUOUS
100
AcDbCircle
 10
0.3524748403187691
 20
-0.3199909248950839
 30
0.0
 40
0.0413
100
AcDbArc
 50
263.1513758466525
 51
301.0436381381475
  0
ARC
  5
1EA
330
1F
100
AcDbEntity
  8
LAYER2
  6
CONTINUOUS
100
AcDbCircle
 10
0.4347176632228161
 20
-0.2738736229785061
 30
0.0
 40
0.0197
100
AcDbArc
 50
146.640035815398
 51
196.8486241533436
  0
ARC
  5
1EB
330
1F
100
AcDbEntity
  8
LAYER2
  6
CONTINUOUS
100
AcDbCircle
 10
0.3763361574250318
 20
-0.2915541145096658
 30
0.0
 40
0.0413
100
AcDbArc
 50
338.9563618618524
 51
16.84862415334736
  0
ARC
  5
1EC
330
1F
100
AcDbEntity
  8
LAYER2
100
AcDbCircle
 10
0.0000000000000168
 20
-0.000000000000004
 30
0.0
 40
0.494099999999987
100
AcDbArc
 50
327.8347351429456
 51
332.1652648570508
  0
ARC
  5
1ED
330
1F
100
AcDbEntity
  8
LAYER2
  6
CONTINUOUS
100
AcDbCircle
 10
0.000000000000006
 20
0.0000000000000093
 30
0.0
 40
0.51575
100
AcDbArc
 50
336.4453229667197
 51
343.55467703328
  0
ARC
  5
1EE
330
1F
100
AcDbEntity
  8
LAYER2
  6
CONTINUOUS
100
AcDbCircle
 10
0.454540346537284
 20
-0.2395397283354974
 30
0.0
 40
0.0197
100
AcDbArc
 50
103.1513758466556
 51
153.3599641847144
  0
ARC
  5
1EF
330
1F
100
AcDbEntity
  8
LAYER2
  6
CONTINUOUS
100
AcDbCircle
 10
0.4406613484557717
 20
-0.1801396154378483
 30
0.0
 40
0.0413
100
AcDbArc
 50
283.1513758466522
 51
321.0436381381471
  0
ARC
  5
1F0
330
1F
100
AcDbEntity
  8
LAYER2
  6
CONTINUOUS
100
AcDbCircle
 10
0.5021712760400058
 20
-0.1086748250591345
 30
0.0
 40
0.0197
100
AcDbArc
 50
166.6400358153994
 51
216.8486241533452
  0
ARC
  5
1F1
330
1F
100
AcDbEntity
  8
LAYER2
  6
CONTINUOUS
100
AcDbCircle
 10
0.4533576900990136
 20
-0.1452567034633594
 30
0.0
 40
0.0413
100
AcDbArc
 50
358.9563618618517
 51
36.84862415334732
  0
ENDSEC
  0
SECTION
  2
OBJECTS
  0
DICTIONARY
  5
C
330
0
100
AcDbDictionary
  3
ACAD_GROUP
350
D
  3
ACAD_IMAGE_VARS
350
DC
  3
ACAD_MLINESTYLE
350
17
  3
ACAD_SCALELIST
350
B6
  3
ACDBVARIABLEDICTIONARY
350
66
  3
APPDATA
350
E1
  3
DWGPROPS
350
1F3
  0
DICTIONARY
  5
181
330
2
100
AcDbDictionary
280
     1
  3
ACAD_LAYERSTATES
360
182
  0
DICTIONARY
  5
D
102
{ACAD_REACTORS
330
C
102
}
330
C
100
AcDbDictionary
  0
RASTERVARIABLES
  5
DC
102
{ACAD_REACTORS
330
C
102
}
330
C
100
AcDbRasterVariables
 90
        0
 70
     1
 71
     1
 72
     5
  0
DICTIONARY
  5
17
102
{ACAD_REACTORS
330
C
102
}
330
C
100
AcDbDictionary
  3
STANDARD
350
18
  0
DICTIONARY
  5
B6
102
{ACAD_REACTORS
330
C
102
}
330
C
100
AcDbDictionary
  0
DICTIONARY
  5
66
102
{ACAD_REACTORS
330
C
102
}
330
C
100
AcDbDictionary
  3
DIMASSOC
350
67
  3
HIDETEXT
350
6B
  0
DICTIONARY
  5
E1
102
{ACAD_REACTORS
330
C
102
}
330
C
100
AcDbDictionary
  0
XRECORD
  5
1F3
102
{ACAD_REACTORS
330
C
102
}
330
C
100
AcDbXrecord
  1
DWGPROPS COOKIE
  2

  3

  4

  6

  7

  8
NickC
  9

300
=
301
=
302
=
303
=
304
=
305
=
306
=
307
=
308
=
309
=
 40
0.0
 41
2452643.063384271
 42
2458578.904611042
  1

 90
        0
  0
DICTIONARY
  5
182
102
{ACAD_REACTORS
330
181
102
}
330
181
100
AcDbDictionary
  0
MLINESTYLE
  5
18
102
{ACAD_REACTORS
330
17
102
}
330
17
100
AcDbMlineStyle
  2
STANDARD
 70
     0
  3

 62
   256
 51
90.0
 52
90.0
 71
     2
 49
0.5
 62
   256
  6
BYLAYER
 49
-0.5
 62
   256
  6
BYLAYER
  0
DICTIONARYVAR
  5
67
102
{ACAD_REACTORS
330
66
102
}
330
66
100
DictionaryVariables
280
     0
  1
2
  0
DICTIONARYVAR
  5
6B
102
{ACAD_REACTORS
330
66
102
}
330
66
100
DictionaryVariables
280
     0
  1
1
  0
ENDSEC
  0
EOF
