  0
SECTION
  2
HEADER
  9
$ACADVER
  1
AC1014
  9
$ACADMAINTVER
 70
     9
  9
$DWGCODEPAGE
  3
ANSI_1252
  9
$INSBASE
 10
0.0
 20
0.0
 30
0.0
  9
$EXTMIN
 10
-0.5117999999999929
 20
-0.5065414170794362
 30
0.0
  9
$EXTMAX
 10
0.5118000000000249
 20
0.5065414170793687
 30
0.0
  9
$LIMMIN
 10
0.0
 20
0.0
  9
$LIMMAX
 10
12.0
 20
9.0
  9
$ORTHOMODE
 70
     0
  9
$REGENMODE
 70
     1
  9
$FILLMODE
 70
     1
  9
$QTEXTMODE
 70
     0
  9
$MIRRTEXT
 70
     0
  9
$DRAGMODE
 70
     2
  9
$LTSCALE
 40
1.0
  9
$OSMODE
 70
 13311
  9
$ATTMODE
 70
     1
  9
$TEXTSIZE
 40
0.2
  9
$TRACEWID
 40
0.05
  9
$TEXTSTYLE
  7
STANDARD
  9
$CLAYER
  8
0
  9
$CELTYPE
  6
BYLAYER
  9
$CECOLOR
 62
   256
  9
$CELTSCALE
 40
1.0
  9
$DELOBJ
 70
     1
  9
$DISPSILH
 70
     0
  9
$DIMSCALE
 40
1.0
  9
$DIMASZ
 40
0.18
  9
$DIMEXO
 40
0.0625
  9
$DIMDLI
 40
0.38
  9
$DIMRND
 40
0.0
  9
$DIMDLE
 40
0.0
  9
$DIMEXE
 40
0.18
  9
$DIMTP
 40
0.0
  9
$DIMTM
 40
0.0
  9
$DIMTXT
 40
0.18
  9
$DIMCEN
 40
0.09
  9
$DIMTSZ
 40
0.0
  9
$DIMTOL
 70
     0
  9
$DIMLIM
 70
     0
  9
$DIMTIH
 70
     1
  9
$DIMTOH
 70
     1
  9
$DIMSE1
 70
     0
  9
$DIMSE2
 70
     0
  9
$DIMTAD
 70
     0
  9
$DIMZIN
 70
     0
  9
$DIMBLK
  1

  9
$DIMASO
 70
     1
  9
$DIMSHO
 70
     1
  9
$DIMPOST
  1

  9
$DIMAPOST
  1

  9
$DIMALT
 70
     0
  9
$DIMALTD
 70
     2
  9
$DIMALTF
 40
25.4
  9
$DIMLFAC
 40
1.0
  9
$DIMTOFL
 70
     0
  9
$DIMTVP
 40
0.0
  9
$DIMTIX
 70
     0
  9
$DIMSOXD
 70
     0
  9
$DIMSAH
 70
     0
  9
$DIMBLK1
  1

  9
$DIMBLK2
  1

  9
$DIMSTYLE
  2
STANDARD
  9
$DIMCLRD
 70
     0
  9
$DIMCLRE
 70
     0
  9
$DIMCLRT
 70
     0
  9
$DIMTFAC
 40
1.0
  9
$DIMGAP
 40
0.09
  9
$DIMJUST
 70
     0
  9
$DIMSD1
 70
     0
  9
$DIMSD2
 70
     0
  9
$DIMTOLJ
 70
     1
  9
$DIMTZIN
 70
     0
  9
$DIMALTZ
 70
     0
  9
$DIMALTTZ
 70
     0
  9
$DIMFIT
 70
     3
  9
$DIMUPT
 70
     0
  9
$DIMUNIT
 70
     2
  9
$DIMDEC
 70
     4
  9
$DIMTDEC
 70
     4
  9
$DIMALTU
 70
     2
  9
$DIMALTTD
 70
     2
  9
$DIMTXSTY
  7
STANDARD
  9
$DIMAUNIT
 70
     0
  9
$LUNITS
 70
     2
  9
$LUPREC
 70
     4
  9
$SKETCHINC
 40
0.1
  9
$FILLETRAD
 40
0.0
  9
$AUNITS
 70
     0
  9
$AUPREC
 70
     0
  9
$MENU
  1
.
  9
$ELEVATION
 40
0.0
  9
$PELEVATION
 40
0.0
  9
$THICKNESS
 40
0.0
  9
$LIMCHECK
 70
     0
  9
$CHAMFERA
 40
0.0
  9
$CHAMFERB
 40
0.0
  9
$CHAMFERC
 40
0.0
  9
$CHAMFERD
 40
0.0
  9
$SKPOLY
 70
     0
  9
$TDCREATE
 40
2452642.771717604
  9
$TDUPDATE
 40
2458578.614744225
  9
$TDINDWG
 40
0.0016776042
  9
$TDUSRTIMER
 40
2458578.904733414
  9
$USRTIMER
 70
     1
  9
$ANGBASE
 50
0.0
  9
$ANGDIR
 70
     0
  9
$PDMODE
 70
     0
  9
$PDSIZE
 40
0.0
  9
$PLINEWID
 40
0.0
  9
$COORDS
 70
     1
  9
$SPLFRAME
 70
     0
  9
$SPLINETYPE
 70
     6
  9
$SPLINESEGS
 70
     8
  9
$ATTDIA
 70
     0
  9
$ATTREQ
 70
     1
  9
$HANDLING
 70
     1
  9
$HANDSEED
  5
1F3
  9
$SURFTAB1
 70
     6
  9
$SURFTAB2
 70
     6
  9
$SURFTYPE
 70
     6
  9
$SURFU
 70
     6
  9
$SURFV
 70
     6
  9
$UCSNAME
  2

  9
$UCSORG
 10
0.0
 20
0.0
 30
0.0
  9
$UCSXDIR
 10
1.0
 20
0.0
 30
0.0
  9
$UCSYDIR
 10
0.0
 20
1.0
 30
0.0
  9
$PUCSNAME
  2

  9
$PUCSORG
 10
0.0
 20
0.0
 30
0.0
  9
$PUCSXDIR
 10
1.0
 20
0.0
 30
0.0
  9
$PUCSYDIR
 10
0.0
 20
1.0
 30
0.0
  9
$USERI1
 70
     0
  9
$USERI2
 70
     0
  9
$USERI3
 70
     0
  9
$USERI4
 70
     0
  9
$USERI5
 70
     0
  9
$USERR1
 40
0.0
  9
$USERR2
 40
0.0
  9
$USERR3
 40
0.0
  9
$USERR4
 40
0.0
  9
$USERR5
 40
0.0
  9
$WORLDVIEW
 70
     1
  9
$SHADEDGE
 70
     3
  9
$SHADEDIF
 70
    70
  9
$TILEMODE
 70
     1
  9
$MAXACTVP
 70
    64
  9
$PINSBASE
 10
0.0
 20
0.0
 30
0.0
  9
$PLIMCHECK
 70
     0
  9
$PEXTMIN
 10
0.0
 20
0.0
 30
0.0
  9
$PEXTMAX
 10
0.0
 20
0.0
 30
0.0
  9
$PLIMMIN
 10
0.0
 20
0.0
  9
$PLIMMAX
 10
0.0
 20
0.0
  9
$UNITMODE
 70
     0
  9
$VISRETAIN
 70
     1
  9
$PLINEGEN
 70
     0
  9
$PSLTSCALE
 70
     1
  9
$TREEDEPTH
 70
  3020
  9
$PICKSTYLE
 70
     0
  9
$CMLSTYLE
  2
STANDARD
  9
$CMLJUST
 70
     0
  9
$CMLSCALE
 40
1.0
  9
$PROXYGRAPHICS
 70
     1
  9
$MEASUREMENT
 70
     0
  0
ENDSEC
  0
SECTION
  2
CLASSES
  0
CLASS
  1
ACDBDICTIONARYWDFLT
  2
AcDbDictionaryWithDefault
  3
ObjectDBX Classes
 90
        0
280
     0
281
     0
  0
CLASS
  1
ACDBPLACEHOLDER
  2
AcDbPlaceHolder
  3
ObjectDBX Classes
 90
        0
280
     0
281
     0
  0
CLASS
  1
LAYOUT
  2
AcDbLayout
  3
ObjectDBX Classes
 90
        0
280
     0
281
     0
  0
CLASS
  1
DICTIONARYVAR
  2
AcDbDictionaryVar
  3
ObjectDBX Classes
 90
        0
280
     0
281
     0
  0
CLASS
  1
TABLESTYLE
  2
AcDbTableStyle
  3
ObjectDBX Classes
 90
     4095
280
     0
281
     0
  0
CLASS
  1
MATERIAL
  2
AcDbMaterial
  3
ObjectDBX Classes
 90
     1153
280
     0
281
     0
  0
CLASS
  1
VISUALSTYLE
  2
AcDbVisualStyle
  3
ObjectDBX Classes
 90
     4095
280
     0
281
     0
  0
CLASS
  1
SCALE
  2
AcDbScale
  3
ObjectDBX Classes
 90
     1153
280
     0
281
     0
  0
CLASS
  1
CELLSTYLEMAP
  2
AcDbCellStyleMap
  3
ObjectDBX Classes
 90
     1152
280
     0
281
     0
  0
CLASS
  1
RASTERVARIABLES
  2
AcDbRasterVariables
  3
ISM
 90
        0
280
     0
281
     0
  0
CLASS
  1
MLEADERSTYLE
  2
AcDbMLeaderStyle
  3
ACDB_MLEADERSTYLE_CLASS
 90
     4095
280
     0
281
     0
  0
CLASS
  1
SUN
  2
AcDbSun
  3
SCENEOE
 90
     1153
280
     0
281
     0
  0
CLASS
  1
SORTENTSTABLE
  2
AcDbSortentsTable
  3
ObjectDBX Classes
 90
        0
280
     0
281
     0
  0
CLASS
  1
XRECORD
  2
AcDbXrecord
  3
ObjectDBX Classes
 90
        0
280
     0
281
     0
  0
CLASS
  1
LWPOLYLINE
  2
AcDbPolyline
  3
ObjectDBX Classes
 90
        0
280
     0
281
     1
  0
CLASS
  1
HATCH
  2
AcDbHatch
  3
ObjectDBX Classes
 90
        0
280
     0
281
     1
  0
ENDSEC
  0
SECTION
  2
TABLES
  0
TABLE
  2
VPORT
  5
8
330
0
100
AcDbSymbolTable
 70
     1
  0
VPORT
  5
94
330
8
100
AcDbSymbolTableRecord
100
AcDbViewportTableRecord
  2
*ACTIVE
 70
     0
 10
0.0
 20
0.0
 11
1.0
 21
1.0
 12
27.66959356597984
 22
19.53870295786199
 13
0.0
 23
0.0
 14
0.5
 24
0.5
 15
0.5
 25
0.5
 16
0.0
 26
0.0
 36
1.0
 17
-27.66959356597982
 27
-19.53870295786203
 37
0.0
 40
1.033339420724148
 41
1.982408660351827
 42
50.0
 43
0.0
 44
0.0
 50
0.0
 51
0.0
 71
    16
 72
  1000
 73
     1
 74
     3
 75
     0
 76
     0
 77
     0
 78
     0
  0
ENDTAB
  0
TABLE
  2
LTYPE
  5
5
330
0
100
AcDbSymbolTable
 70
     1
  0
LTYPE
  5
14
330
5
100
AcDbSymbolTableRecord
100
AcDbLinetypeTableRecord
  2
BYBLOCK
 70
     0
  3

 72
    65
 73
     0
 40
0.0
  0
LTYPE
  5
15
330
5
100
AcDbSymbolTableRecord
100
AcDbLinetypeTableRecord
  2
BYLAYER
 70
     0
  3

 72
    65
 73
     0
 40
0.0
  0
LTYPE
  5
16
330
5
100
AcDbSymbolTableRecord
100
AcDbLinetypeTableRecord
  2
CONTINUOUS
 70
     0
  3
Solid line
 72
    65
 73
     0
 40
0.0
  0
ENDTAB
  0
TABLE
  2
LAYER
  5
2
102
{ACAD_XDICTIONARY
360
181
102
}
330
0
100
AcDbSymbolTable
 70
     2
  0
LAYER
  5
10
330
2
100
AcDbSymbolTableRecord
100
AcDbLayerTableRecord
  2
0
 70
     0
 62
     7
  6
CONTINUOUS
  0
LAYER
  5
F0
330
2
100
AcDbSymbolTableRecord
100
AcDbLayerTableRecord
  2
LAYER1
 70
     0
 62
     5
  6
CONTINUOUS
1001
ACAECLAYERSTANDARD
1000

1000

  0
ENDTAB
  0
TABLE
  2
STYLE
  5
3
330
0
100
AcDbSymbolTable
 70
     1
  0
STYLE
  5
11
330
3
100
AcDbSymbolTableRecord
100
AcDbTextStyleTableRecord
  2
STANDARD
 70
     0
 40
0.0
 41
1.0
 50
0.0
 71
     0
 42
0.2
  3
txt
  4

  0
ENDTAB
  0
TABLE
  2
VIEW
  5
6
330
0
100
AcDbSymbolTable
 70
     0
  0
ENDTAB
  0
TABLE
  2
UCS
  5
7
330
0
100
AcDbSymbolTable
 70
     0
  0
ENDTAB
  0
TABLE
  2
APPID
  5
9
330
0
100
AcDbSymbolTable
 70
     2
  0
APPID
  5
12
330
9
100
AcDbSymbolTableRecord
100
AcDbRegAppTableRecord
  2
ACAD
 70
     0
  0
APPID
  5
F2
330
9
100
AcDbSymbolTableRecord
100
AcDbRegAppTableRecord
  2
ACAECLAYERSTANDARD
 70
     0
  0
ENDTAB
  0
TABLE
  2
DIMSTYLE
  5
A
330
0
100
AcDbSymbolTable
 70
     1
  0
DIMSTYLE
105
27
330
A
100
AcDbSymbolTableRecord
100
AcDbDimStyleTableRecord
  2
STANDARD
 70
     0
  3

  4

  5

  6

  7

 40
1.0
 41
0.18
 42
0.0625
 43
0.38
 44
0.18
 45
0.0
 46
0.0
 47
0.0
 48
0.0
140
0.18
141
0.09
142
0.0
143
25.4
144
1.0
145
0.0
146
1.0
147
0.09
 71
     0
 72
     0
 73
     1
 74
     1
 75
     0
 76
     0
 77
     0
 78
     0
170
     0
171
     2
172
     0
173
     0
174
     0
175
     0
176
     0
177
     0
178
     0
270
     2
271
     4
272
     4
273
     2
274
     2
340
11
275
     0
280
     0
281
     0
282
     0
283
     1
284
     0
285
     0
286
     0
287
     3
288
     0
  0
ENDTAB
  0
TABLE
  2
BLOCK_RECORD
  5
1
330
0
100
AcDbSymbolTable
 70
     2
  0
BLOCK_RECORD
  5
1F
330
1
100
AcDbSymbolTableRecord
100
AcDbBlockTableRecord
  2
*MODEL_SPACE
  0
BLOCK_RECORD
  5
58
330
1
100
AcDbSymbolTableRecord
100
AcDbBlockTableRecord
  2
*PAPER_SPACE
  0
BLOCK_RECORD
  5
5D
330
1
100
AcDbSymbolTableRecord
100
AcDbBlockTableRecord
  2
*PAPER_SPACE0
  0
ENDTAB
  0
ENDSEC
  0
SECTION
  2
BLOCKS
  0
BLOCK
  5
20
330
1F
100
AcDbEntity
  8
0
100
AcDbBlockBegin
  2
*MODEL_SPACE
 70
     0
 10
0.0
 20
0.0
 30
0.0
  3
*MODEL_SPACE
  1

  0
ENDBLK
  5
21
330
1F
100
AcDbEntity
  8
0
100
AcDbBlockEnd
  0
BLOCK
  5
5A
330
58
100
AcDbEntity
 67
     1
  8
0
100
AcDbBlockBegin
  2
*PAPER_SPACE
 70
     0
 10
0.0
 20
0.0
 30
0.0
  3
*PAPER_SPACE
  1

  0
ENDBLK
  5
5B
330
58
100
AcDbEntity
 67
     1
  8
0
100
AcDbBlockEnd
  0
BLOCK
  5
5F
330
5D
100
AcDbEntity
  8
0
100
AcDbBlockBegin
  2
*PAPER_SPACE0
 70
     0
 10
0.0
 20
0.0
 30
0.0
  3
*PAPER_SPACE0
  1

  0
ENDBLK
  5
60
330
5D
100
AcDbEntity
  8
0
100
AcDbBlockEnd
  0
ENDSEC
  0
SECTION
  2
ENTITIES
  0
ARC
  5
186
330
1F
100
AcDbEntity
  8
LAYER1
100
AcDbCircle
 10
0.0000000000000101
 20
-0.0000000000000346
 30
0.0
 40
0.4925000000000183
100
AcDbArc
 50
347.0360851861618
 51
352.9639148138386
  0
ARC
  5
187
330
1F
100
AcDbEntity
  8
LAYER1
  6
CONTINUOUS
100
AcDbCircle
 10
-0.0000000000000218
 20
-0.0000000000000304
 30
0.0
 40
0.5118000000000466
100
AcDbArc
 50
358.2223733047156
 51
1.777626695284386
  0
ARC
  5
188
330
1F
100
AcDbEntity
  8
LAYER1
  6
CONTINUOUS
100
AcDbCircle
 10
0.4589483249452406
 20
-0.0071233222474452
 30
0.0
 40
0.05332859651418
100
AcDbArc
 50
313.4494364783632
 51
350.5531630753989
  0
ARC
  5
189
330
1F
100
AcDbEntity
  8
LAYER1
  6
CONTINUOUS
100
AcDbCircle
 10
0.5084715511585612
 20
-0.0607526359932351
 30
0.0
 40
0.0196850393700788
100
AcDbArc
 50
130.7453649609078
 51
178.7654231516939
  0
ARC
  5
18A
330
1F
100
AcDbEntity
  8
LAYER1
  6
CONTINUOUS
100
AcDbCircle
 10
0.4589483249452401
 20
0.0071233222473825
 30
0.0
 40
0.0533285965141807
100
AcDbArc
 50
9.446836924602254
 51
46.55056352163739
  0
ARC
  5
18B
330
1F
100
AcDbEntity
  8
LAYER1
  6
CONTINUOUS
100
AcDbCircle
 10
0.5084715511585612
 20
0.0607526359931738
 30
0.0
 40
0.0196850393700788
100
AcDbArc
 50
181.2345768483248
 51
229.2546350390931
  0
ARC
  5
18C
330
1F
100
AcDbEntity
  8
LAYER1
100
AcDbCircle
 10
0.0000000000000105
 20
-0.0000000000000364
 30
0.0
 40
0.4925000000000183
100
AcDbArc
 50
7.036085186161779
 51
12.96391481383865
  0
ARC
  5
18D
330
1F
100
AcDbEntity
  8
LAYER1
  6
CONTINUOUS
100
AcDbCircle
 10
-0.0000000000000208
 20
-0.0000000000000435
 30
0.0
 40
0.5118000000000466
100
AcDbArc
 50
18.22237330471559
 51
21.7776266952844
  0
ARC
  5
18E
330
1F
100
AcDbEntity
  8
LAYER1
  6
CONTINUOUS
100
AcDbCircle
 10
0.4337066739691112
 20
0.150275838525435
 30
0.0
 40
0.05332859651418
100
AcDbArc
 50
333.4494364783635
 51
10.55316307539872
  0
ARC
  5
18F
330
1F
100
AcDbEntity
  8
LAYER1
  6
CONTINUOUS
100
AcDbCircle
 10
0.4985855897730721
 20
0.1168187090681334
 30
0.0
 40
0.0196850393700788
100
AcDbArc
 50
150.7453649609068
 51
198.7654231516934
  0
ARC
  5
190
330
1F
100
AcDbEntity
  8
LAYER1
  6
CONTINUOUS
100
AcDbCircle
 10
0.4288340345770801
 20
0.1636633052281846
 30
0.0
 40
0.0533285965141807
100
AcDbArc
 50
29.44683692460264
 51
66.55056352163743
  0
ARC
  5
191
330
1F
100
AcDbEntity
  8
LAYER1
  6
CONTINUOUS
100
AcDbCircle
 10
0.4570283392334563
 20
0.2309963165403466
 30
0.0
 40
0.0196850393700788
100
AcDbArc
 50
201.2345768483248
 51
249.2546350390932
  0
ARC
  5
192
330
1F
100
AcDbEntity
  8
LAYER1
100
AcDbCircle
 10
0.0000000000000118
 20
-0.000000000000038
 30
0.0
 40
0.4925000000000182
100
AcDbArc
 50
27.03608518616181
 51
32.96391481383864
  0
ARC
  5
193
330
1F
100
AcDbEntity
  8
LAYER1
  6
CONTINUOUS
100
AcDbCircle
 10
-0.0000000000000153
 20
-0.0000000000000551
 30
0.0
 40
0.5118000000000464
100
AcDbArc
 50
38.22237330471555
 51
41.77762669528438
  0
ARC
  5
194
330
1F
100
AcDbEntity
  8
LAYER1
  6
CONTINUOUS
100
AcDbCircle
 10
0.3561535972835087
 20
0.2895495153369732
 30
0.0
 40
0.05332859651418
100
AcDbArc
 50
353.4494364783633
 51
30.55316307539894
  0
ARC
  5
195
330
1F
100
AcDbEntity
  8
LAYER1
  6
CONTINUOUS
100
AcDbCircle
 10
0.4285628479213327
 20
0.2802999937553525
 30
0.0
 40
0.0196850393700788
100
AcDbArc
 50
170.7453649609075
 51
218.765423151693
  0
ARC
  5
196
330
1F
100
AcDbEntity
  8
LAYER1
  6
CONTINUOUS
100
AcDbCircle
 10
0.3469960307226242
 20
0.3004630781853272
 30
0.0
 40
0.0533285965141807
100
AcDbArc
 50
49.44683692460248
 51
86.55056352163736
  0
ARC
  5
197
330
1F
100
AcDbEntity
  8
LAYER1
  6
CONTINUOUS
100
AcDbCircle
 10
0.3504607645768761
 20
0.3733784321702012
 30
0.0
 40
0.0196850393700788
100
AcDbArc
 50
221.2345768483252
 51
269.2546350390934
  0
ARC
  5
198
330
1F
100
AcDbEntity
  8
LAYER1
100
AcDbCircle
 10
0.0000000000000133
 20
-0.0000000000000391
 30
0.0
 40
0.4925000000000183
100
AcDbArc
 50
47.03608518616181
 51
52.96391481383861
  0
ARC
  5
199
330
1F
100
AcDbEntity
  8
LAYER1
  6
CONTINUOUS
100
AcDbCircle
 10
-0.0000000000000062
 20
-0.0000000000000644
 30
0.0
 40
0.5118000000000466
100
AcDbArc
 50
58.22237330471556
 51
61.77762669528436
  0
ARC
  5
19A
330
1F
100
AcDbEntity
  8
LAYER1
  6
CONTINUOUS
100
AcDbCircle
 10
0.235643140498229
 20
0.3938992473031409
 30
0.0
 40
0.05332859651418
100
AcDbArc
 50
13.44943647836328
 51
50.55316307539833
  0
ARC
  5
19B
330
1F
100
AcDbEntity
  8
LAYER1
  6
CONTINUOUS
100
AcDbCircle
 10
0.3068491016962694
 20
0.4099729624083448
 30
0.0
 40
0.0196850393700788
100
AcDbArc
 50
190.7453649609072
 51
238.7654231516937
  0
ARC
  5
19C
330
1F
100
AcDbEntity
  8
LAYER1
  6
CONTINUOUS
100
AcDbCircle
 10
0.2233051844470224
 20
0.401022569550554
 30
0.0
 40
0.0533285965141807
100
AcDbArc
 50
69.44683692460254
 51
106.5505635216374
  0
ARC
  5
19D
330
1F
100
AcDbEntity
  8
LAYER1
  6
CONTINUOUS
100
AcDbCircle
 10
0.2016224494623017
 20
0.470725598401549
 30
0.0
 40
0.0196850393700788
100
AcDbArc
 50
241.2345768483245
 51
289.2546350390934
  0
ARC
  5
19E
330
1F
100
AcDbEntity
  8
LAYER1
100
AcDbCircle
 10
0.0000000000000152
 20
-0.0000000000000395
 30
0.0
 40
0.4925000000000182
100
AcDbArc
 50
67.0360851861618
 51
72.96391481383861
  0
ARC
  5
19F
330
1F
100
AcDbEntity
  8
LAYER1
  6
CONTINUOUS
100
AcDbCircle
 10
0.0000000000000056
 20
-0.0000000000000702
 30
0.0
 40
0.5118000000000464
100
AcDbArc
 50
78.22237330471555
 51
81.7776266952844
  0
ARC
  5
1A0
330
1F
100
AcDbEntity
  8
LAYER1
  6
CONTINUOUS
100
AcDbCircle
 10
0.0867106432464989
 20
0.4507389167107925
 30
0.0
 40
0.05332859651418
100
AcDbArc
 50
33.44943647836348
 51
70.55316307539876
  0
ARC
  5
1A1
330
1F
100
AcDbEntity
  8
LAYER1
  6
CONTINUOUS
100
AcDbCircle
 10
0.1481248251962074
 20
0.4901971412383634
 30
0.0
 40
0.0196850393700788
100
AcDbArc
 50
210.7453649609066
 51
258.7654231516931
  0
ARC
  5
1A2
330
1F
100
AcDbEntity
  8
LAYER1
  6
CONTINUOUS
100
AcDbCircle
 10
0.072680437293584
 20
0.4532128205651875
 30
0.0
 40
0.0533285965141807
100
AcDbArc
 50
89.44683692460254
 51
126.5505635216372
  0
ARC
  5
1A3
330
1F
100
AcDbEntity
  8
LAYER1
  6
CONTINUOUS
100
AcDbCircle
 10
0.0284654913121348
 20
0.5112963102957284
 30
0.0
 40
0.0196850393700788
100
AcDbArc
 50
261.2345768483248
 51
309.2546350390925
  0
ARC
  5
1A4
330
1F
100
AcDbEntity
  8
LAYER1
100
AcDbCircle
 10
0.0000000000000171
 20
-0.0000000000000393
 30
0.0
 40
0.4925000000000182
100
AcDbArc
 50
87.0360851861618
 51
92.96391481383857
  0
ARC
  5
1A5
330
1F
100
AcDbEntity
  8
LAYER1
  6
CONTINUOUS
100
AcDbCircle
 10
0.0000000000000185
 20
-0.0000000000000713
 30
0.0
 40
0.5118000000000464
100
AcDbArc
 50
98.2223733047155
 51
101.7776266952843
  0
ARC
  5
1A6
330
1F
100
AcDbEntity
  8
LAYER1
  6
CONTINUOUS
100
AcDbCircle
 10
-0.0726804372935582
 20
0.4532128205651871
 30
0.0
 40
0.05332859651418
100
AcDbArc
 50
53.44943647836312
 51
90.55316307539861
  0
ARC
  5
1A7
330
1F
100
AcDbEntity
  8
LAYER1
  6
CONTINUOUS
100
AcDbCircle
 10
-0.0284654913121102
 20
0.5112963102957271
 30
0.0
 40
0.0196850393700788
100
AcDbArc
 50
230.7453649609064
 51
278.7654231516933
  0
ARC
  5
1A8
330
1F
100
AcDbEntity
  8
LAYER1
  6
CONTINUOUS
100
AcDbCircle
 10
-0.0867106432464729
 20
0.4507389167107911
 30
0.0
 40
0.0533285965141807
100
AcDbArc
 50
109.4468369246024
 51
146.5505635216376
  0
ARC
  5
1A9
330
1F
100
AcDbEntity
  8
LAYER1
  6
CONTINUOUS
100
AcDbCircle
 10
-0.1481248251961828
 20
0.4901971412383626
 30
0.0
 40
0.0196850393700788
100
AcDbArc
 50
281.2345768483245
 51
329.254635039092
  0
ARC
  5
1AA
330
1F
100
AcDbEntity
  8
LAYER1
100
AcDbCircle
 10
0.0000000000000189
 20
-0.0000000000000384
 30
0.0
 40
0.4925000000000183
100
AcDbArc
 50
107.0360851861617
 51
112.9639148138386
  0
ARC
  5
1AB
330
1F
100
AcDbEntity
  8
LAYER1
  6
CONTINUOUS
100
AcDbCircle
 10
0.0000000000000311
 20
-0.0000000000000679
 30
0.0
 40
0.5118000000000466
100
AcDbArc
 50
118.2223733047155
 51
121.7776266952843
  0
ARC
  5
1AC
330
1F
100
AcDbEntity
  8
LAYER1
  6
CONTINUOUS
100
AcDbCircle
 10
-0.223305184446996
 20
0.4010225695505518
 30
0.0
 40
0.05332859651418
100
AcDbArc
 50
73.44943647836327
 51
110.5531630753985
  0
ARC
  5
1AD
330
1F
100
AcDbEntity
  8
LAYER1
  6
CONTINUOUS
100
AcDbCircle
 10
-0.201622449462276
 20
0.4707255984015459
 30
0.0
 40
0.0196850393700788
100
AcDbArc
 50
250.745364960907
 51
298.7654231516934
  0
ARC
  5
1AE
330
1F
100
AcDbEntity
  8
LAYER1
  6
CONTINUOUS
100
AcDbCircle
 10
-0.2356431404982021
 20
0.3938992473031377
 30
0.0
 40
0.0533285965141807
100
AcDbArc
 50
129.4468369246027
 51
166.5505635216374
  0
ARC
  5
1AF
330
1F
100
AcDbEntity
  8
LAYER1
  6
CONTINUOUS
100
AcDbCircle
 10
-0.3068491016962439
 20
0.4099729624083412
 30
0.0
 40
0.0196850393700788
100
AcDbArc
 50
301.2345768483253
 51
349.2546350390941
  0
ARC
  5
1B0
330
1F
100
AcDbEntity
  8
LAYER1
100
AcDbCircle
 10
0.0000000000000202
 20
-0.0000000000000371
 30
0.0
 40
0.4925000000000183
100
AcDbArc
 50
127.0360851861617
 51
132.9639148138386
  0
ARC
  5
1B1
330
1F
100
AcDbEntity
  8
LAYER1
  6
CONTINUOUS
100
AcDbCircle
 10
0.0000000000000419
 20
-0.0000000000000608
 30
0.0
 40
0.5118000000000466
100
AcDbArc
 50
138.2223733047155
 51
141.7776266952844
  0
ARC
  5
1B2
330
1F
100
AcDbEntity
  8
LAYER1
  6
CONTINUOUS
100
AcDbCircle
 10
-0.3469960307225968
 20
0.3004630781853237
 30
0.0
 40
0.05332859651418
100
AcDbArc
 50
93.44943647836322
 51
130.5531630753988
  0
ARC
  5
1B3
330
1F
100
AcDbEntity
  8
LAYER1
  6
CONTINUOUS
100
AcDbCircle
 10
-0.3504607645768492
 20
0.3733784321701963
 30
0.0
 40
0.0196850393700788
100
AcDbArc
 50
270.7453649609068
 51
318.7654231516937
  0
ARC
  5
1B4
330
1F
100
AcDbEntity
  8
LAYER1
  6
CONTINUOUS
100
AcDbCircle
 10
-0.3561535972834805
 20
0.2895495153369687
 30
0.0
 40
0.0533285965141807
100
AcDbArc
 50
149.4468369246021
 51
186.550563521637
  0
ARC
  5
1B5
330
1F
100
AcDbEntity
  8
LAYER1
  6
CONTINUOUS
100
AcDbCircle
 10
-0.4285628479213058
 20
0.2802999937553476
 30
0.0
 40
0.0196850393700788
100
AcDbArc
 50
321.2345768483252
 51
9.254635039093893
  0
ARC
  5
1B6
330
1F
100
AcDbEntity
  8
LAYER1
100
AcDbCircle
 10
0.0000000000000209
 20
-0.0000000000000353
 30
0.0
 40
0.4925000000000183
100
AcDbArc
 50
147.0360851861617
 51
152.9639148138386
  0
ARC
  5
1B7
330
1F
100
AcDbEntity
  8
LAYER1
  6
CONTINUOUS
100
AcDbCircle
 10
0.0000000000000494
 20
-0.0000000000000502
 30
0.0
 40
0.5118000000000466
100
AcDbArc
 50
158.2223733047155
 51
161.7776266952843
  0
ARC
  5
1B8
330
1F
100
AcDbEntity
  8
LAYER1
  6
CONTINUOUS
100
AcDbCircle
 10
-0.4288340345770512
 20
0.16366330522818
 30
0.0
 40
0.05332859651418
100
AcDbArc
 50
113.4494364783632
 51
150.5531630753989
  0
ARC
  5
1B9
330
1F
100
AcDbEntity
  8
LAYER1
  6
CONTINUOUS
100
AcDbCircle
 10
-0.4570283392334273
 20
0.2309963165403404
 30
0.0
 40
0.0196850393700788
100
AcDbArc
 50
290.7453649609067
 51
338.7654231516932
  0
ARC
  5
1BA
330
1F
100
AcDbEntity
  8
LAYER1
  6
CONTINUOUS
100
AcDbCircle
 10
-0.4337066739690815
 20
0.1502758385254301
 30
0.0
 40
0.0533285965141807
100
AcDbArc
 50
169.4468369246024
 51
206.5505635216372
  0
ARC
  5
1BB
330
1F
100
AcDbEntity
  8
LAYER1
  6
CONTINUOUS
100
AcDbCircle
 10
-0.4985855897730433
 20
0.1168187090681272
 30
0.0
 40
0.0196850393700788
100
AcDbArc
 50
341.2345768483251
 51
29.25463503909386
  0
ARC
  5
1BC
330
1F
100
AcDbEntity
  8
LAYER1
100
AcDbCircle
 10
0.000000000000021
 20
-0.0000000000000333
 30
0.0
 40
0.4925000000000183
100
AcDbArc
 50
167.0360851861618
 51
172.9639148138386
  0
ARC
  5
1BD
330
1F
100
AcDbEntity
  8
LAYER1
  6
CONTINUOUS
100
AcDbCircle
 10
0.0000000000000528
 20
-0.0000000000000375
 30
0.0
 40
0.5118000000000466
100
AcDbArc
 50
178.2223733047155
 51
181.7776266952843
  0
ARC
  5
1BE
330
1F
100
AcDbEntity
  8
LAYER1
  6
CONTINUOUS
100
AcDbCircle
 10
-0.4589483249452095
 20
0.0071233222473772
 30
0.0
 40
0.05332859651418
100
AcDbArc
 50
133.4494364783633
 51
170.5531630753986
  0
ARC
  5
1BF
330
1F
100
AcDbEntity
  8
LAYER1
  6
CONTINUOUS
100
AcDbCircle
 10
-0.50847155115853
 20
0.0607526359931674
 30
0.0
 40
0.0196850393700788
100
AcDbArc
 50
310.7453649609069
 51
358.7654231516933
  0
ARC
  5
1C0
330
1F
100
AcDbEntity
  8
LAYER1
  6
CONTINUOUS
100
AcDbCircle
 10
-0.458948324945209
 20
-0.0071233222474505
 30
0.0
 40
0.0533285965141807
100
AcDbArc
 50
189.4468369246022
 51
226.5505635216371
  0
ARC
  5
1C1
330
1F
100
AcDbEntity
  8
LAYER1
  6
CONTINUOUS
100
AcDbCircle
 10
-0.50847155115853
 20
-0.0607526359932415
 30
0.0
 40
0.0196850393700788
100
AcDbArc
 50
1.234576848324862
 51
49.2546350390931
  0
ARC
  5
1C2
330
1F
100
AcDbEntity
  8
LAYER1
100
AcDbCircle
 10
0.0000000000000205
 20
-0.0000000000000315
 30
0.0
 40
0.4925000000000183
100
AcDbArc
 50
187.0360851861617
 51
192.9639148138386
  0
ARC
  5
1C3
330
1F
100
AcDbEntity
  8
LAYER1
  6
CONTINUOUS
100
AcDbCircle
 10
0.0000000000000518
 20
-0.0000000000000244
 30
0.0
 40
0.5118000000000466
100
AcDbArc
 50
198.2223733047155
 51
201.7776266952843
  0
ARC
  5
1C4
330
1F
100
AcDbEntity
  8
LAYER1
  6
CONTINUOUS
100
AcDbCircle
 10
-0.4337066739690802
 20
-0.150275838525503
 30
0.0
 40
0.05332859651418
100
AcDbArc
 50
153.4494364783634
 51
190.5531630753987
  0
ARC
  5
1C5
330
1F
100
AcDbEntity
  8
LAYER1
  6
CONTINUOUS
100
AcDbCircle
 10
-0.4985855897730411
 20
-0.1168187090682014
 30
0.0
 40
0.0196850393700788
100
AcDbArc
 50
330.7453649609075
 51
18.76542315169337
  0
ARC
  5
1C6
330
1F
100
AcDbEntity
  8
LAYER1
  6
CONTINUOUS
100
AcDbCircle
 10
-0.428834034577049
 20
-0.1636633052282526
 30
0.0
 40
0.0533285965141807
100
AcDbArc
 50
209.4468369246026
 51
246.5505635216374
  0
ARC
  5
1C7
330
1F
100
AcDbEntity
  8
LAYER1
  6
CONTINUOUS
100
AcDbCircle
 10
-0.4570283392334252
 20
-0.2309963165404145
 30
0.0
 40
0.0196850393700788
100
AcDbArc
 50
21.2345768483248
 51
69.25463503909324
  0
ARC
  5
1C8
330
1F
100
AcDbEntity
  8
LAYER1
100
AcDbCircle
 10
0.0000000000000193
 20
-0.00000000000003
 30
0.0
 40
0.4925000000000182
100
AcDbArc
 50
207.0360851861618
 51
212.9639148138386
  0
ARC
  5
1C9
330
1F
100
AcDbEntity
  8
LAYER1
  6
CONTINUOUS
100
AcDbCircle
 10
0.0000000000000464
 20
-0.0000000000000129
 30
0.0
 40
0.5118000000000464
100
AcDbArc
 50
218.2223733047155
 51
221.7776266952843
  0
ARC
  5
1CA
330
1F
100
AcDbEntity
  8
LAYER1
  6
CONTINUOUS
100
AcDbCircle
 10
-0.3561535972834776
 20
-0.2895495153370411
 30
0.0
 40
0.05332859651418
100
AcDbArc
 50
173.4494364783633
 51
210.5531630753989
  0
ARC
  5
1CB
330
1F
100
AcDbEntity
  8
LAYER1
  6
CONTINUOUS
100
AcDbCircle
 10
-0.4285628479213017
 20
-0.2802999937554205
 30
0.0
 40
0.0196850393700788
100
AcDbArc
 50
350.7453649609068
 51
38.76542315169303
  0
ARC
  5
1CC
330
1F
100
AcDbEntity
  8
LAYER1
  6
CONTINUOUS
100
AcDbCircle
 10
-0.3469960307225931
 20
-0.3004630781853952
 30
0.0
 40
0.0533285965141807
100
AcDbArc
 50
229.4468369246025
 51
266.5505635216373
  0
ARC
  5
1CD
330
1F
100
AcDbEntity
  8
LAYER1
  6
CONTINUOUS
100
AcDbCircle
 10
-0.3504607645768451
 20
-0.3733784321702691
 30
0.0
 40
0.0196850393700788
100
AcDbArc
 50
41.23457684832516
 51
89.25463503909337
  0
ARC
  5
1CE
330
1F
100
AcDbEntity
  8
LAYER1
100
AcDbCircle
 10
0.0000000000000178
 20
-0.0000000000000289
 30
0.0
 40
0.4925000000000183
100
AcDbArc
 50
227.0360851861617
 51
232.9639148138386
  0
ARC
  5
1CF
330
1F
100
AcDbEntity
  8
LAYER1
  6
CONTINUOUS
100
AcDbCircle
 10
0.0000000000000373
 20
-0.0000000000000036
 30
0.0
 40
0.5118000000000466
100
AcDbArc
 50
238.2223733047155
 51
241.7776266952844
  0
ARC
  5
1D0
330
1F
100
AcDbEntity
  8
LAYER1
  6
CONTINUOUS
100
AcDbCircle
 10
-0.2356431404981981
 20
-0.3938992473032086
 30
0.0
 40
0.05332859651418
100
AcDbArc
 50
193.4494364783632
 51
230.5531630753985
  0
ARC
  5
1D1
330
1F
100
AcDbEntity
  8
LAYER1
  6
CONTINUOUS
100
AcDbCircle
 10
-0.3068491016962386
 20
-0.4099729624084125
 30
0.0
 40
0.0196850393700788
100
AcDbArc
 50
10.74536496090657
 51
58.76542315169308
  0
ARC
  5
1D2
330
1F
100
AcDbEntity
  8
LAYER1
  6
CONTINUOUS
100
AcDbCircle
 10
-0.2233051844469914
 20
-0.401022569550622
 30
0.0
 40
0.0533285965141807
100
AcDbArc
 50
249.4468369246024
 51
286.5505635216373
  0
ARC
  5
1D3
330
1F
100
AcDbEntity
  8
LAYER1
  6
CONTINUOUS
100
AcDbCircle
 10
-0.2016224494622707
 20
-0.470725598401617
 30
0.0
 40
0.0196850393700788
100
AcDbArc
 50
61.23457684832474
 51
109.2546350390934
  0
ARC
  5
1D4
330
1F
100
AcDbEntity
  8
LAYER1
100
AcDbCircle
 10
0.0000000000000159
 20
-0.0000000000000284
 30
0.0
 40
0.4925000000000182
100
AcDbArc
 50
247.0360851861618
 51
252.9639148138387
  0
ARC
  5
1D5
330
1F
100
AcDbEntity
  8
LAYER1
  6
CONTINUOUS
100
AcDbCircle
 10
0.0000000000000255
 20
0.0000000000000022
 30
0.0
 40
0.5118000000000464
100
AcDbArc
 50
258.2223733047156
 51
261.7776266952844
  0
ARC
  5
1D6
330
1F
100
AcDbEntity
  8
LAYER1
  6
CONTINUOUS
100
AcDbCircle
 10
-0.0867106432464678
 20
-0.4507389167108604
 30
0.0
 40
0.05332859651418
100
AcDbArc
 50
213.4494364783632
 51
250.5531630753987
  0
ARC
  5
1D7
330
1F
100
AcDbEntity
  8
LAYER1
  6
CONTINUOUS
100
AcDbCircle
 10
-0.1481248251961763
 20
-0.4901971412384314
 30
0.0
 40
0.0196850393700788
100
AcDbArc
 50
30.74536496090659
 51
78.76542315169317
  0
ARC
  5
1D8
330
1F
100
AcDbEntity
  8
LAYER1
  6
CONTINUOUS
100
AcDbCircle
 10
-0.0726804372935528
 20
-0.4532128205652555
 30
0.0
 40
0.0533285965141807
100
AcDbArc
 50
269.4468369246023
 51
306.5505635216373
  0
ARC
  5
1D9
330
1F
100
AcDbEntity
  8
LAYER1
  6
CONTINUOUS
100
AcDbCircle
 10
-0.0284654913121037
 20
-0.5112963102957961
 30
0.0
 40
0.0196850393700788
100
AcDbArc
 50
81.23457684832483
 51
129.2546350390931
  0
ARC
  5
1DA
330
1F
100
AcDbEntity
  8
LAYER1
100
AcDbCircle
 10
0.000000000000014
 20
-0.0000000000000286
 30
0.0
 40
0.4925000000000183
100
AcDbArc
 50
267.0360851861618
 51
272.9639148138386
  0
ARC
  5
1DB
330
1F
100
AcDbEntity
  8
LAYER1
  6
CONTINUOUS
100
AcDbCircle
 10
0.0000000000000125
 20
0.0000000000000033
 30
0.0
 40
0.5118000000000466
100
AcDbArc
 50
278.2223733047156
 51
281.7776266952844
  0
ARC
  5
1DC
330
1F
100
AcDbEntity
  8
LAYER1
  6
CONTINUOUS
100
AcDbCircle
 10
0.0726804372935891
 20
-0.453212820565255
 30
0.0
 40
0.05332859651418
100
AcDbArc
 50
233.4494364783634
 51
270.5531630753986
  0
ARC
  5
1DD
330
1F
100
AcDbEntity
  8
LAYER1
  6
CONTINUOUS
100
AcDbCircle
 10
0.028465491312141
 20
-0.511296310295795
 30
0.0
 40
0.0196850393700788
100
AcDbArc
 50
50.74536496090676
 51
98.76542315169331
  0
ARC
  5
1DE
330
1F
100
AcDbEntity
  8
LAYER1
  6
CONTINUOUS
100
AcDbCircle
 10
0.0867106432465039
 20
-0.4507389167108591
 30
0.0
 40
0.0533285965141807
100
AcDbArc
 50
289.4468369246023
 51
326.5505635216373
  0
ARC
  5
1DF
330
1F
100
AcDbEntity
  8
LAYER1
  6
CONTINUOUS
100
AcDbCircle
 10
0.1481248251962136
 20
-0.4901971412384305
 30
0.0
 40
0.0196850393700788
100
AcDbArc
 50
101.2345768483245
 51
149.2546350390934
  0
ARC
  5
1E0
330
1F
100
AcDbEntity
  8
LAYER1
100
AcDbCircle
 10
0.0000000000000122
 20
-0.0000000000000295
 30
0.0
 40
0.4925000000000183
100
AcDbArc
 50
287.0360851861618
 51
292.9639148138386
  0
ARC
  5
1E1
330
1F
100
AcDbEntity
  8
LAYER1
  6
CONTINUOUS
100
AcDbCircle
 10
0.0
 20
0.0
 30
0.0
 40
0.5118000000000466
100
AcDbArc
 50
298.2223733047155
 51
301.7776266952844
  0
ARC
  5
1E2
330
1F
100
AcDbEntity
  8
LAYER1
  6
CONTINUOUS
100
AcDbCircle
 10
0.2233051844470273
 20
-0.4010225695506198
 30
0.0
 40
0.05332859651418
100
AcDbArc
 50
253.4494364783633
 51
290.5531630753987
  0
ARC
  5
1E3
330
1F
100
AcDbEntity
  8
LAYER1
  6
CONTINUOUS
100
AcDbCircle
 10
0.2016224494623073
 20
-0.4707255984016139
 30
0.0
 40
0.0196850393700788
100
AcDbArc
 50
70.74536496090651
 51
118.7654231516934
  0
ARC
  5
1E4
330
1F
100
AcDbEntity
  8
LAYER1
  6
CONTINUOUS
100
AcDbCircle
 10
0.2356431404982334
 20
-0.3938992473032057
 30
0.0
 40
0.0533285965141807
100
AcDbArc
 50
309.4468369246024
 51
346.5505635216374
  0
ARC
  5
1E5
330
1F
100
AcDbEntity
  8
LAYER1
  6
CONTINUOUS
100
AcDbCircle
 10
0.3068491016962751
 20
-0.4099729624084094
 30
0.0
 40
0.0196850393700788
100
AcDbArc
 50
121.2345768483246
 51
169.2546350390934
  0
ARC
  5
1E6
330
1F
100
AcDbEntity
  8
LAYER1
100
AcDbCircle
 10
0.0000000000000109
 20
-0.0000000000000309
 30
0.0
 40
0.4925000000000183
100
AcDbArc
 50
307.0360851861618
 51
312.9639148138386
  0
ARC
  5
1E7
330
1F
100
AcDbEntity
  8
LAYER1
  6
CONTINUOUS
100
AcDbCircle
 10
-0.0000000000000108
 20
-0.0000000000000071
 30
0.0
 40
0.5118000000000466
100
AcDbArc
 50
318.2223733047155
 51
321.7776266952843
  0
ARC
  5
1E8
330
1F
100
AcDbEntity
  8
LAYER1
  6
CONTINUOUS
100
AcDbCircle
 10
0.3469960307226277
 20
-0.3004630781853916
 30
0.0
 40
0.05332859651418
100
AcDbArc
 50
273.4494364783633
 51
310.5531630753989
  0
ARC
  5
1E9
330
1F
100
AcDbEntity
  8
LAYER1
  6
CONTINUOUS
100
AcDbCircle
 10
0.3504607645768801
 20
-0.3733784321702642
 30
0.0
 40
0.0196850393700788
100
AcDbArc
 50
90.74536496090664
 51
138.7654231516936
  0
ARC
  5
1EA
330
1F
100
AcDbEntity
  8
LAYER1
  6
CONTINUOUS
100
AcDbCircle
 10
0.3561535972835116
 20
-0.2895495153370371
 30
0.0
 40
0.0533285965141807
100
AcDbArc
 50
329.4468369246027
 51
6.550563521637525
  0
ARC
  5
1EB
330
1F
100
AcDbEntity
  8
LAYER1
  6
CONTINUOUS
100
AcDbCircle
 10
0.4285628479213368
 20
-0.2802999937554158
 30
0.0
 40
0.0196850393700788
100
AcDbArc
 50
141.2345768483245
 51
189.2546350390932
  0
ARC
  5
1EC
330
1F
100
AcDbEntity
  8
LAYER1
100
AcDbCircle
 10
0.0000000000000102
 20
-0.0000000000000326
 30
0.0
 40
0.4925000000000183
100
AcDbArc
 50
327.0360851861618
 51
332.9639148138386
  0
ARC
  5
1ED
330
1F
100
AcDbEntity
  8
LAYER1
  6
CONTINUOUS
100
AcDbCircle
 10
-0.0000000000000183
 20
-0.0000000000000178
 30
0.0
 40
0.5118000000000466
100
AcDbArc
 50
338.2223733047155
 51
341.7776266952844
  0
ARC
  5
1EE
330
1F
100
AcDbEntity
  8
LAYER1
  6
CONTINUOUS
100
AcDbCircle
 10
0.4288340345770821
 20
-0.1636633052282481
 30
0.0
 40
0.05332859651418
100
AcDbArc
 50
293.4494364783633
 51
330.5531630753986
  0
ARC
  5
1EF
330
1F
100
AcDbEntity
  8
LAYER1
  6
CONTINUOUS
100
AcDbCircle
 10
0.4570283392334583
 20
-0.2309963165404088
 30
0.0
 40
0.0196850393700788
100
AcDbArc
 50
110.7453649609068
 51
158.7654231516932
  0
ARC
  5
1F0
330
1F
100
AcDbEntity
  8
LAYER1
  6
CONTINUOUS
100
AcDbCircle
 10
0.4337066739691126
 20
-0.1502758385254983
 30
0.0
 40
0.0533285965141807
100
AcDbArc
 50
349.4468369246027
 51
26.55056352163727
  0
ARC
  5
1F1
330
1F
100
AcDbEntity
  8
LAYER1
  6
CONTINUOUS
100
AcDbCircle
 10
0.4985855897730743
 20
-0.1168187090681956
 30
0.0
 40
0.0196850393700788
100
AcDbArc
 50
161.2345768483244
 51
209.2546350390932
  0
ENDSEC
  0
SECTION
  2
OBJECTS
  0
DICTIONARY
  5
C
330
0
100
AcDbDictionary
  3
ACAD_GROUP
350
D
  3
ACAD_IMAGE_VARS
350
DC
  3
ACAD_MLINESTYLE
350
17
  3
ACAD_SCALELIST
350
B6
  3
ACDBVARIABLEDICTIONARY
350
66
  3
APPDATA
350
E1
  3
DWGPROPS
350
1F2
  0
DICTIONARY
  5
181
330
2
100
AcDbDictionary
280
     1
  3
ACAD_LAYERSTATES
360
182
  0
DICTIONARY
  5
D
102
{ACAD_REACTORS
330
C
102
}
330
C
100
AcDbDictionary
  0
RASTERVARIABLES
  5
DC
102
{ACAD_REACTORS
330
C
102
}
330
C
100
AcDbRasterVariables
 90
        0
 70
     1
 71
     1
 72
     5
  0
DICTIONARY
  5
17
102
{ACAD_REACTORS
330
C
102
}
330
C
100
AcDbDictionary
  3
STANDARD
350
18
  0
DICTIONARY
  5
B6
102
{ACAD_REACTORS
330
C
102
}
330
C
100
AcDbDictionary
  0
DICTIONARY
  5
66
102
{ACAD_REACTORS
330
C
102
}
330
C
100
AcDbDictionary
  3
DIMASSOC
350
67
  3
HIDETEXT
350
6B
  0
DICTIONARY
  5
E1
102
{ACAD_REACTORS
330
C
102
}
330
C
100
AcDbDictionary
  0
XRECORD
  5
1F2
102
{ACAD_REACTORS
330
C
102
}
330
C
100
AcDbXrecord
  1
DWGPROPS COOKIE
  2

  3

  4

  6

  7

  8
NickC
  9

300
=
301
=
302
=
303
=
304
=
305
=
306
=
307
=
308
=
309
=
 40
0.0
 41
2452643.063384271
 42
2458578.906410891
  1

 90
        0
  0
DICTIONARY
  5
182
102
{ACAD_REACTORS
330
181
102
}
330
181
100
AcDbDictionary
  0
MLINESTYLE
  5
18
102
{ACAD_REACTORS
330
17
102
}
330
17
100
AcDbMlineStyle
  2
STANDARD
 70
     0
  3

 62
   256
 51
90.0
 52
90.0
 71
     2
 49
0.5
 62
   256
  6
BYLAYER
 49
-0.5
 62
   256
  6
BYLAYER
  0
DICTIONARYVAR
  5
67
102
{ACAD_REACTORS
330
66
102
}
330
66
100
DictionaryVariables
280
     0
  1
2
  0
DICTIONARYVAR
  5
6B
102
{ACAD_REACTORS
330
66
102
}
330
66
100
DictionaryVariables
280
     0
  1
1
  0
ENDSEC
  0
EOF
