  0
SECTION
  2
HEADER
  9
$ACADVER
  1
AC1014
  9
$ACADMAINTVER
 70
     9
  9
$DWGCODEPAGE
  3
ANSI_1252
  9
$INSBASE
 10
0.0
 20
0.0
 30
0.0
  9
$EXTMIN
 10
-0.6100000000000227
 20
-0.6100000000000119
 30
0.0
  9
$EXTMAX
 10
0.6100000000000179
 20
0.6100000000000068
 30
0.0
  9
$LIMMIN
 10
0.0
 20
0.0
  9
$LIMMAX
 10
12.0
 20
9.0
  9
$ORTHOMODE
 70
     0
  9
$REGENMODE
 70
     1
  9
$FILLMODE
 70
     1
  9
$QTEXTMODE
 70
     0
  9
$MIRRTEXT
 70
     1
  9
$DRAGMODE
 70
     2
  9
$LTSCALE
 40
1.0
  9
$OSMODE
 70
 13311
  9
$ATTMODE
 70
     1
  9
$TEXTSIZE
 40
0.1377952756
  9
$TRACEWID
 40
0.05
  9
$TEXTSTYLE
  7
STANDARD
  9
$CLAYER
  8
0
  9
$CELTYPE
  6
BYLAYER
  9
$CECOLOR
 62
   256
  9
$CELTSCALE
 40
1.0
  9
$DELOBJ
 70
     1
  9
$DISPSILH
 70
     0
  9
$DIMSCALE
 40
1.0
  9
$DIMASZ
 40
0.13
  9
$DIMEXO
 40
0.0393700787
  9
$DIMDLI
 40
0.38
  9
$DIMRND
 40
0.0
  9
$DIMDLE
 40
0.0
  9
$DIMEXE
 40
0.0393700787
  9
$DIMTP
 40
0.0
  9
$DIMTM
 40
0.0
  9
$DIMTXT
 40
0.1377952756
  9
$DIMCEN
 40
0.09
  9
$DIMTSZ
 40
0.0
  9
$DIMTOL
 70
     0
  9
$DIMLIM
 70
     0
  9
$DIMTIH
 70
     1
  9
$DIMTOH
 70
     1
  9
$DIMSE1
 70
     0
  9
$DIMSE2
 70
     0
  9
$DIMTAD
 70
     1
  9
$DIMZIN
 70
     0
  9
$DIMBLK
  1

  9
$DIMASO
 70
     1
  9
$DIMSHO
 70
     1
  9
$DIMPOST
  1

  9
$DIMAPOST
  1

  9
$DIMALT
 70
     0
  9
$DIMALTD
 70
     2
  9
$DIMALTF
 40
25.4
  9
$DIMLFAC
 40
1.0
  9
$DIMTOFL
 70
     0
  9
$DIMTVP
 40
0.0
  9
$DIMTIX
 70
     0
  9
$DIMSOXD
 70
     0
  9
$DIMSAH
 70
     0
  9
$DIMBLK1
  1

  9
$DIMBLK2
  1

  9
$DIMSTYLE
  2
STANDARD
  9
$DIMCLRD
 70
     0
  9
$DIMCLRE
 70
     0
  9
$DIMCLRT
 70
     0
  9
$DIMTFAC
 40
1.0
  9
$DIMGAP
 40
0.06
  9
$DIMJUST
 70
     0
  9
$DIMSD1
 70
     0
  9
$DIMSD2
 70
     0
  9
$DIMTOLJ
 70
     1
  9
$DIMTZIN
 70
     0
  9
$DIMALTZ
 70
     0
  9
$DIMALTTZ
 70
     0
  9
$DIMFIT
 70
     3
  9
$DIMUPT
 70
     0
  9
$DIMUNIT
 70
     2
  9
$DIMDEC
 70
     2
  9
$DIMTDEC
 70
     2
  9
$DIMALTU
 70
     2
  9
$DIMALTTD
 70
     2
  9
$DIMTXSTY
  7
STANDARD
  9
$DIMAUNIT
 70
     0
  9
$LUNITS
 70
     2
  9
$LUPREC
 70
     2
  9
$SKETCHINC
 40
0.1
  9
$FILLETRAD
 40
0.5
  9
$AUNITS
 70
     0
  9
$AUPREC
 70
     2
  9
$MENU
  1
.
  9
$ELEVATION
 40
0.0
  9
$PELEVATION
 40
0.0
  9
$THICKNESS
 40
0.0
  9
$LIMCHECK
 70
     0
  9
$CHAMFERA
 40
0.5
  9
$CHAMFERB
 40
0.5
  9
$CHAMFERC
 40
1.0
  9
$CHAMFERD
 40
0.0
  9
$SKPOLY
 70
     0
  9
$TDCREATE
 40
2458576.560894016
  9
$TDUPDATE
 40
2458578.622706146
  9
$TDINDWG
 40
0.0072564815
  9
$TDUSRTIMER
 40
2458578.907300556
  9
$USRTIMER
 70
     1
  9
$ANGBASE
 50
0.0
  9
$ANGDIR
 70
     0
  9
$PDMODE
 70
     0
  9
$PDSIZE
 40
-1.0
  9
$PLINEWID
 40
0.0
  9
$COORDS
 70
     1
  9
$SPLFRAME
 70
     0
  9
$SPLINETYPE
 70
     6
  9
$SPLINESEGS
 70
     8
  9
$ATTDIA
 70
     0
  9
$ATTREQ
 70
     1
  9
$HANDLING
 70
     1
  9
$HANDSEED
  5
16E
  9
$SURFTAB1
 70
     6
  9
$SURFTAB2
 70
     6
  9
$SURFTYPE
 70
     6
  9
$SURFU
 70
     6
  9
$SURFV
 70
     6
  9
$UCSNAME
  2

  9
$UCSORG
 10
0.0
 20
0.0
 30
0.0
  9
$UCSXDIR
 10
1.0
 20
0.0
 30
0.0
  9
$UCSYDIR
 10
0.0
 20
1.0
 30
0.0
  9
$PUCSNAME
  2

  9
$PUCSORG
 10
0.0
 20
0.0
 30
0.0
  9
$PUCSXDIR
 10
1.0
 20
0.0
 30
0.0
  9
$PUCSYDIR
 10
0.0
 20
1.0
 30
0.0
  9
$USERI1
 70
     0
  9
$USERI2
 70
     0
  9
$USERI3
 70
     0
  9
$USERI4
 70
     0
  9
$USERI5
 70
     0
  9
$USERR1
 40
0.0
  9
$USERR2
 40
0.0
  9
$USERR3
 40
0.0
  9
$USERR4
 40
0.0
  9
$USERR5
 40
0.0
  9
$WORLDVIEW
 70
     1
  9
$SHADEDGE
 70
     3
  9
$SHADEDIF
 70
    70
  9
$TILEMODE
 70
     1
  9
$MAXACTVP
 70
    64
  9
$PINSBASE
 10
0.0
 20
0.0
 30
0.0
  9
$PLIMCHECK
 70
     0
  9
$PEXTMIN
 10
1.000000000000000E+20
 20
1.000000000000000E+20
 30
1.000000000000000E+20
  9
$PEXTMAX
 10
-1.000000000000000E+20
 20
-1.000000000000000E+20
 30
-1.000000000000000E+20
  9
$PLIMMIN
 10
0.0
 20
0.0
  9
$PLIMMAX
 10
0.0
 20
0.0
  9
$UNITMODE
 70
     0
  9
$VISRETAIN
 70
     1
  9
$PLINEGEN
 70
     0
  9
$PSLTSCALE
 70
     1
  9
$TREEDEPTH
 70
  3020
  9
$PICKSTYLE
 70
     0
  9
$CMLSTYLE
  2
STANDARD
  9
$CMLJUST
 70
     0
  9
$CMLSCALE
 40
1.0
  9
$PROXYGRAPHICS
 70
     1
  9
$MEASUREMENT
 70
     0
  0
ENDSEC
  0
SECTION
  2
CLASSES
  0
CLASS
  1
ACDBDICTIONARYWDFLT
  2
AcDbDictionaryWithDefault
  3
ObjectDBX Classes
 90
        0
280
     0
281
     0
  0
CLASS
  1
VISUALSTYLE
  2
AcDbVisualStyle
  3
ObjectDBX Classes
 90
     4095
280
     0
281
     0
  0
CLASS
  1
MATERIAL
  2
AcDbMaterial
  3
ObjectDBX Classes
 90
     1153
280
     0
281
     0
  0
CLASS
  1
ACDBPLACEHOLDER
  2
AcDbPlaceHolder
  3
ObjectDBX Classes
 90
        0
280
     0
281
     0
  0
CLASS
  1
LAYOUT
  2
AcDbLayout
  3
ObjectDBX Classes
 90
        0
280
     0
281
     0
  0
CLASS
  1
SCALE
  2
AcDbScale
  3
ObjectDBX Classes
 90
     1153
280
     0
281
     0
  0
CLASS
  1
TABLESTYLE
  2
AcDbTableStyle
  3
ObjectDBX Classes
 90
     4095
280
     0
281
     0
  0
CLASS
  1
MLEADERSTYLE
  2
AcDbMLeaderStyle
  3
ACDB_MLEADERSTYLE_CLASS
 90
     4095
280
     0
281
     0
  0
CLASS
  1
SUN
  2
AcDbSun
  3
SCENEOE
 90
     1153
280
     0
281
     0
  0
CLASS
  1
RASTERVARIABLES
  2
AcDbRasterVariables
  3
ISM
 90
        0
280
     0
281
     0
  0
CLASS
  1
XRECORD
  2
AcDbXrecord
  3
ObjectDBX Classes
 90
        0
280
     0
281
     0
  0
CLASS
  1
LWPOLYLINE
  2
AcDbPolyline
  3
ObjectDBX Classes
 90
        0
280
     0
281
     1
  0
CLASS
  1
HATCH
  2
AcDbHatch
  3
ObjectDBX Classes
 90
        0
280
     0
281
     1
  0
ENDSEC
  0
SECTION
  2
TABLES
  0
TABLE
  2
VPORT
  5
8
330
0
100
AcDbSymbolTable
 70
     1
  0
VPORT
  5
29
330
8
100
AcDbSymbolTableRecord
100
AcDbViewportTableRecord
  2
*ACTIVE
 70
     0
 10
0.0
 20
0.0
 11
1.0
 21
1.0
 12
0.000306346313954
 22
-0.0000000000000026
 13
0.0
 23
0.0
 14
0.5
 24
0.5
 15
0.5
 25
0.5
 16
0.0
 26
0.0
 36
1.0
 17
0.0
 27
0.0
 37
0.0
 40
1.243150107039077
 41
2.66571018651363
 42
50.0
 43
0.0
 44
0.0
 50
0.0
 51
0.0
 71
    16
 72
   100
 73
     1
 74
     3
 75
     0
 76
     0
 77
     0
 78
     0
  0
ENDTAB
  0
TABLE
  2
LTYPE
  5
5
330
0
100
AcDbSymbolTable
 70
     6
  0
LTYPE
  5
14
330
5
100
AcDbSymbolTableRecord
100
AcDbLinetypeTableRecord
  2
BYBLOCK
 70
     0
  3

 72
    65
 73
     0
 40
0.0
  0
LTYPE
  5
15
330
5
100
AcDbSymbolTableRecord
100
AcDbLinetypeTableRecord
  2
BYLAYER
 70
     0
  3

 72
    65
 73
     0
 40
0.0
  0
LTYPE
  5
16
330
5
100
AcDbSymbolTableRecord
100
AcDbLinetypeTableRecord
  2
CONTINUOUS
 70
     0
  3
Solid line
 72
    65
 73
     0
 40
0.0
  0
LTYPE
  5
3F
330
5
100
AcDbSymbolTableRecord
100
AcDbLinetypeTableRecord
  2
HIDDEN
 70
     0
  3
Hidden __ __ __ __ __ __ __ __ __ __ __ __ __ __
 72
    65
 73
     2
 40
0.075
 49
0.05
 74
     0
 49
-0.025
 74
     0
  0
LTYPE
  5
40
330
5
100
AcDbSymbolTableRecord
100
AcDbLinetypeTableRecord
  2
PHANTOM
 70
     0
  3
Phantom ______  __  __  ______  __  __  ______
 72
    65
 73
     6
 40
0.5
 49
0.25
 74
     0
 49
-0.05
 74
     0
 49
0.05
 74
     0
 49
-0.05
 74
     0
 49
0.05
 74
     0
 49
-0.05
 74
     0
  0
LTYPE
  5
41
330
5
100
AcDbSymbolTableRecord
100
AcDbLinetypeTableRecord
  2
CENTER
 70
     0
  3
Center ____ _ ____ _ ____ _ ____ _ ____ _ ____
 72
    65
 73
     4
 40
0.4
 49
0.25
 74
     0
 49
-0.05
 74
     0
 49
0.05
 74
     0
 49
-0.05
 74
     0
  0
LTYPE
  5
42
330
5
100
AcDbSymbolTableRecord
100
AcDbLinetypeTableRecord
  2
CENTERX2
 70
     0
  3
Center (2x) ________  __  ________  __  _____
 72
    65
 73
     4
 40
0.8
 49
0.5
 74
     0
 49
-0.1
 74
     0
 49
0.1
 74
     0
 49
-0.1
 74
     0
  0
LTYPE
  5
43
330
5
100
AcDbSymbolTableRecord
100
AcDbLinetypeTableRecord
  2
DOT2
 70
     0
  3
Dot (.5x) ........................................
 72
    65
 73
     2
 40
0.025
 49
0.0
 74
     0
 49
-0.025
 74
     0
  0
ENDTAB
  0
TABLE
  2
LAYER
  5
2
330
0
100
AcDbSymbolTable
 70
     1
  0
LAYER
  5
10
330
2
100
AcDbSymbolTableRecord
100
AcDbLayerTableRecord
  2
0
 70
     0
 62
     7
  6
CONTINUOUS
  0
ENDTAB
  0
TABLE
  2
STYLE
  5
3
330
0
100
AcDbSymbolTable
 70
     1
  0
STYLE
  5
11
330
3
100
AcDbSymbolTableRecord
100
AcDbTextStyleTableRecord
  2
STANDARD
 70
     0
 40
0.0
 41
1.0
 50
0.0
 71
     0
 42
0.1377952756
  3
txt
  4

  0
ENDTAB
  0
TABLE
  2
VIEW
  5
6
330
0
100
AcDbSymbolTable
 70
     0
  0
ENDTAB
  0
TABLE
  2
UCS
  5
7
330
0
100
AcDbSymbolTable
 70
     0
  0
ENDTAB
  0
TABLE
  2
APPID
  5
9
330
0
100
AcDbSymbolTable
 70
     1
  0
APPID
  5
12
330
9
100
AcDbSymbolTableRecord
100
AcDbRegAppTableRecord
  2
ACAD
 70
     0
  0
ENDTAB
  0
TABLE
  2
DIMSTYLE
  5
A
330
0
100
AcDbSymbolTable
 70
     1
  0
DIMSTYLE
105
27
330
A
100
AcDbSymbolTableRecord
100
AcDbDimStyleTableRecord
  2
STANDARD
 70
     0
  3

  4

  5

  6

  7

 40
1.0
 41
0.18
 42
0.0625
 43
0.38
 44
0.18
 45
0.0
 46
0.0
 47
0.0
 48
0.0
140
0.18
141
0.09
142
0.0
143
25.4
144
1.0
145
0.0
146
1.0
147
0.09
 71
     0
 72
     0
 73
     1
 74
     1
 75
     0
 76
     0
 77
     0
 78
     0
170
     0
171
     2
172
     0
173
     0
174
     0
175
     0
176
     0
177
     0
178
     0
270
     2
271
     4
272
     4
273
     2
274
     2
340
11
275
     0
280
     0
281
     0
282
     0
283
     1
284
     0
285
     0
286
     0
287
     3
288
     0
  0
ENDTAB
  0
TABLE
  2
BLOCK_RECORD
  5
1
330
0
100
AcDbSymbolTable
 70
     1
  0
BLOCK_RECORD
  5
1F
330
1
100
AcDbSymbolTableRecord
100
AcDbBlockTableRecord
  2
*MODEL_SPACE
  0
BLOCK_RECORD
  5
1B
330
1
100
AcDbSymbolTableRecord
100
AcDbBlockTableRecord
  2
*PAPER_SPACE
  0
BLOCK_RECORD
  5
23
330
1
100
AcDbSymbolTableRecord
100
AcDbBlockTableRecord
  2
*PAPER_SPACE0
  0
ENDTAB
  0
ENDSEC
  0
SECTION
  2
BLOCKS
  0
BLOCK
  5
20
330
1F
100
AcDbEntity
  8
0
100
AcDbBlockBegin
  2
*MODEL_SPACE
 70
     0
 10
0.0
 20
0.0
 30
0.0
  3
*MODEL_SPACE
  1

  0
ENDBLK
  5
21
330
1F
100
AcDbEntity
  8
0
100
AcDbBlockEnd
  0
BLOCK
  5
1C
330
1B
100
AcDbEntity
 67
     1
  8
0
100
AcDbBlockBegin
  2
*PAPER_SPACE
 70
     0
 10
0.0
 20
0.0
 30
0.0
  3
*PAPER_SPACE
  1

  0
ENDBLK
  5
1D
330
1B
100
AcDbEntity
 67
     1
  8
0
100
AcDbBlockEnd
  0
BLOCK
  5
24
330
23
100
AcDbEntity
  8
0
100
AcDbBlockBegin
  2
*PAPER_SPACE0
 70
     0
 10
0.0
 20
0.0
 30
0.0
  3
*PAPER_SPACE0
  1

  0
ENDBLK
  5
25
330
23
100
AcDbEntity
  8
0
100
AcDbBlockEnd
  0
ENDSEC
  0
SECTION
  2
ENTITIES
  0
ARC
  5
A4
330
1F
100
AcDbEntity
  8
0
  6
CONTINUOUS
 62
   152
100
AcDbCircle
 10
0.0
 20
0.0
 30
0.0
 40
0.6100000000000068
100
AcDbArc
 50
82.29537239289999
 51
97.70462760709998
  0
ARC
  5
A5
330
1F
100
AcDbEntity
  8
0
  6
CONTINUOUS
 62
   152
100
AcDbCircle
 10
0.0807078667
 20
0.5965653696
 30
0.0
 40
0.0079999999999996
100
AcDbArc
 50
13.0897075853
 51
82.29537239289999
  0
ARC
  5
A6
330
1F
100
AcDbEntity
  8
0
  6
CONTINUOUS
 62
   152
100
AcDbCircle
 10
0.1079803333
 20
0.6029067072
 30
0.0
 40
0.0200000000000002
100
AcDbArc
 50
193.0897075853
 51
259.8460057448
  0
ARC
  5
A7
330
1F
100
AcDbEntity
  8
0
  6
CONTINUOUS
 62
   152
100
AcDbCircle
 10
0.0
 20
0.0
 30
0.0
 40
0.592499999999347
100
AcDbArc
 50
77.6539942552
 51
79.8460057448
  0
ARC
  5
A8
330
1F
100
AcDbEntity
  8
0
  6
CONTINUOUS
 62
   152
100
AcDbCircle
 10
0.1309615882
 20
0.5983354514
 30
0.0
 40
0.0200000000000006
100
AcDbArc
 50
257.6539942552
 51
324.4102924147001
  0
ARC
  5
A9
330
1F
100
AcDbEntity
  8
0
  6
CONTINUOUS
 62
   152
100
AcDbCircle
 10
0.1537313372
 20
0.5820400983
 30
0.0
 40
0.0079999999999998
100
AcDbArc
 50
75.2046276071
 51
144.4102924147
  0
ARC
  5
AA
330
1F
100
AcDbEntity
  8
0
  6
CONTINUOUS
 62
   152
100
AcDbCircle
 10
0.0
 20
0.0
 30
0.0
 40
0.6100000000000259
100
AcDbArc
 50
59.79537239290002
 51
75.2046276071
  0
ARC
  5
AB
330
1F
100
AcDbEntity
  8
0
  6
CONTINUOUS
 62
   152
100
AcDbCircle
 10
0.3028600294
 20
0.5202689714
 30
0.0
 40
0.0079999999999996
100
AcDbArc
 50
350.5897075852999
 51
59.79537239290002
  0
ARC
  5
AC
330
1F
100
AcDbEntity
  8
0
  6
CONTINUOUS
 62
   152
100
AcDbCircle
 10
0.330483228
 20
0.5156908822
 30
0.0
 40
0.0200000000000001
100
AcDbArc
 50
170.5897075853
 51
237.3460057448
  0
ARC
  5
AD
330
1F
100
AcDbEntity
  8
0
  6
CONTINUOUS
 62
   152
100
AcDbCircle
 10
0.0
 20
0.0
 30
0.0
 40
0.5925000000005333
100
AcDbArc
 50
55.1539942552
 51
57.3460057448
  0
ARC
  5
AE
330
1F
100
AcDbEntity
  8
0
  6
CONTINUOUS
 62
   152
100
AcDbCircle
 10
0.3499657952
 20
0.502673047
 30
0.0
 40
0.0199999999999999
100
AcDbArc
 50
235.1539942552
 51
301.9102924147
  0
ARC
  5
AF
330
1F
100
AcDbEntity
  8
0
  6
CONTINUOUS
 62
   152
100
AcDbCircle
 10
0.3647663385
 20
0.4789044981
 30
0.0
 40
0.008
100
AcDbArc
 50
52.70462760710001
 51
121.9102924147
  0
ARC
  5
B0
330
1F
100
AcDbEntity
  8
0
  6
CONTINUOUS
 62
   152
100
AcDbCircle
 10
0.0
 20
0.0
 30
0.0
 40
0.610000000000028
100
AcDbArc
 50
37.2953723929
 51
52.70462760710001
  0
ARC
  5
B1
330
1F
100
AcDbEntity
  8
0
  6
CONTINUOUS
 62
   152
100
AcDbCircle
 10
0.4789044981
 20
0.3647663385
 30
0.0
 40
0.0079999999999993
100
AcDbArc
 50
328.0897075853
 51
37.2953723929
  0
ARC
  5
B2
330
1F
100
AcDbEntity
  8
0
  6
CONTINUOUS
 62
   152
100
AcDbCircle
 10
0.502673047
 20
0.3499657952
 30
0.0
 40
0.0200000000000002
100
AcDbArc
 50
148.0897075853
 51
214.8460057448
  0
ARC
  5
B3
330
1F
100
AcDbEntity
  8
0
  6
CONTINUOUS
 62
   152
100
AcDbCircle
 10
0.0
 20
0.0
 30
0.0
 40
0.5924999999999684
100
AcDbArc
 50
32.65399425519999
 51
34.8460057448
  0
ARC
  5
B4
330
1F
100
AcDbEntity
  8
0
  6
CONTINUOUS
 62
   152
100
AcDbCircle
 10
0.5156908822
 20
0.330483228
 30
0.0
 40
0.0200000000000002
100
AcDbArc
 50
212.6539942552
 51
279.4102924146999
  0
ARC
  5
B5
330
1F
100
AcDbEntity
  8
0
  6
CONTINUOUS
 62
   152
100
AcDbCircle
 10
0.5202689714
 20
0.3028600294
 30
0.0
 40
0.0079999999999999
100
AcDbArc
 50
30.2046276071
 51
99.4102924147
  0
ARC
  5
B6
330
1F
100
AcDbEntity
  8
0
  6
CONTINUOUS
 62
   152
100
AcDbCircle
 10
0.0
 20
0.0
 30
0.0
 40
0.6100000000000154
100
AcDbArc
 50
14.7953723929
 51
30.2046276071
  0
ARC
  5
B7
330
1F
100
AcDbEntity
  8
0
  6
CONTINUOUS
 62
   152
100
AcDbCircle
 10
0.5820400983
 20
0.1537313372
 30
0.0
 40
0.0079999999999995
100
AcDbArc
 50
305.5897075852999
 51
14.7953723929
  0
ARC
  5
B8
330
1F
100
AcDbEntity
  8
0
  6
CONTINUOUS
 62
   152
100
AcDbCircle
 10
0.5983354514
 20
0.1309615882
 30
0.0
 40
0.0200000000000001
100
AcDbArc
 50
125.5897075853
 51
192.3460057448
  0
ARC
  5
B9
330
1F
100
AcDbEntity
  8
0
  6
CONTINUOUS
 62
   152
100
AcDbCircle
 10
0.0
 20
0.0
 30
0.0
 40
0.5925000000002046
100
AcDbArc
 50
10.1539942552
 51
12.3460057448
  0
ARC
  5
BA
330
1F
100
AcDbEntity
  8
0
  6
CONTINUOUS
 62
   152
100
AcDbCircle
 10
0.6029067072
 20
0.1079803333
 30
0.0
 40
0.0200000000000002
100
AcDbArc
 50
190.1539942552
 51
256.9102924147
  0
ARC
  5
BB
330
1F
100
AcDbEntity
  8
0
  6
CONTINUOUS
 62
   152
100
AcDbCircle
 10
0.5965653696
 20
0.0807078667
 30
0.0
 40
0.008
100
AcDbArc
 50
7.7046276071
 51
76.9102924147
  0
ARC
  5
BC
330
1F
100
AcDbEntity
  8
0
  6
CONTINUOUS
 62
   152
100
AcDbCircle
 10
0.0
 20
0.0
 30
0.0
 40
0.6100000000000179
100
AcDbArc
 50
352.2953723929
 51
7.7046276071
  0
ARC
  5
BD
330
1F
100
AcDbEntity
  8
0
  6
CONTINUOUS
 62
   152
100
AcDbCircle
 10
0.5965653696
 20
-0.0807078667
 30
0.0
 40
0.0079999999999998
100
AcDbArc
 50
283.0897075853
 51
352.2953723929
  0
ARC
  5
BE
330
1F
100
AcDbEntity
  8
0
  6
CONTINUOUS
 62
   152
100
AcDbCircle
 10
0.6029067072
 20
-0.1079803333
 30
0.0
 40
0.0200000000000005
100
AcDbArc
 50
103.0897075853
 51
169.8460057448
  0
ARC
  5
BF
330
1F
100
AcDbEntity
  8
0
  6
CONTINUOUS
 62
   152
100
AcDbCircle
 10
0.0
 20
0.0
 30
0.0
 40
0.5925000000000699
100
AcDbArc
 50
347.6539942552
 51
349.8460057448
  0
ARC
  5
C0
330
1F
100
AcDbEntity
  8
0
  6
CONTINUOUS
 62
   152
100
AcDbCircle
 10
0.5983354514
 20
-0.1309615882
 30
0.0
 40
0.0200000000000005
100
AcDbArc
 50
167.6539942552
 51
234.4102924146999
  0
ARC
  5
C1
330
1F
100
AcDbEntity
  8
0
  6
CONTINUOUS
 62
   152
100
AcDbCircle
 10
0.5820400983
 20
-0.1537313372
 30
0.0
 40
0.0080000000000001
100
AcDbArc
 50
345.2046276071
 51
54.4102924147
  0
ARC
  5
C2
330
1F
100
AcDbEntity
  8
0
  6
CONTINUOUS
 62
   152
100
AcDbCircle
 10
0.0
 20
0.0
 30
0.0
 40
0.6100000000000325
100
AcDbArc
 50
329.7953723929
 51
345.2046276071
  0
ARC
  5
C3
330
1F
100
AcDbEntity
  8
0
  6
CONTINUOUS
 62
   152
100
AcDbCircle
 10
0.5202689714
 20
-0.3028600294
 30
0.0
 40
0.0079999999999996
100
AcDbArc
 50
260.5897075852999
 51
329.7953723929
  0
ARC
  5
C4
330
1F
100
AcDbEntity
  8
0
  6
CONTINUOUS
 62
   152
100
AcDbCircle
 10
0.5156908822
 20
-0.330483228
 30
0.0
 40
0.0200000000000003
100
AcDbArc
 50
80.5897075853
 51
147.3460057448
  0
ARC
  5
C5
330
1F
100
AcDbEntity
  8
0
  6
CONTINUOUS
 62
   152
100
AcDbCircle
 10
0.0
 20
0.0
 30
0.0
 40
0.5925000000002422
100
AcDbArc
 50
325.1539942552
 51
327.3460057448
  0
ARC
  5
C6
330
1F
100
AcDbEntity
  8
0
  6
CONTINUOUS
 62
   152
100
AcDbCircle
 10
0.502673047
 20
-0.3499657952
 30
0.0
 40
0.0199999999999997
100
AcDbArc
 50
145.1539942552
 51
211.9102924147
  0
ARC
  5
C7
330
1F
100
AcDbEntity
  8
0
  6
CONTINUOUS
 62
   152
100
AcDbCircle
 10
0.4789044981
 20
-0.3647663385
 30
0.0
 40
0.008
100
AcDbArc
 50
322.7046276071
 51
31.9102924147
  0
ARC
  5
C8
330
1F
100
AcDbEntity
  8
0
  6
CONTINUOUS
 62
   152
100
AcDbCircle
 10
0.0
 20
0.0
 30
0.0
 40
0.610000000000015
100
AcDbArc
 50
307.2953723929
 51
322.7046276071
  0
ARC
  5
C9
330
1F
100
AcDbEntity
  8
0
  6
CONTINUOUS
 62
   152
100
AcDbCircle
 10
0.3647663385
 20
-0.4789044981
 30
0.0
 40
0.0080000000000003
100
AcDbArc
 50
238.0897075853
 51
307.2953723929
  0
ARC
  5
CA
330
1F
100
AcDbEntity
  8
0
  6
CONTINUOUS
 62
   152
100
AcDbCircle
 10
0.3499657952
 20
-0.502673047
 30
0.0
 40
0.0199999999999999
100
AcDbArc
 50
58.0897075853
 51
124.8460057448
  0
ARC
  5
CB
330
1F
100
AcDbEntity
  8
0
  6
CONTINUOUS
 62
   152
100
AcDbCircle
 10
0.0
 20
0.0
 30
0.0
 40
0.5924999999995076
100
AcDbArc
 50
302.6539942552
 51
304.8460057448
  0
ARC
  5
CC
330
1F
100
AcDbEntity
  8
0
  6
CONTINUOUS
 62
   152
100
AcDbCircle
 10
0.330483228
 20
-0.5156908822
 30
0.0
 40
0.0200000000000002
100
AcDbArc
 50
122.6539942552
 51
189.4102924147
  0
ARC
  5
CD
330
1F
100
AcDbEntity
  8
0
  6
CONTINUOUS
 62
   152
100
AcDbCircle
 10
0.3028600294
 20
-0.5202689714
 30
0.0
 40
0.0079999999999999
100
AcDbArc
 50
300.2046276071
 51
9.4102924147
  0
ARC
  5
CE
330
1F
100
AcDbEntity
  8
0
  6
CONTINUOUS
 62
   152
100
AcDbCircle
 10
0.0
 20
0.0
 30
0.0
 40
0.6100000000000267
100
AcDbArc
 50
284.7953723929
 51
300.2046276071
  0
ARC
  5
CF
330
1F
100
AcDbEntity
  8
0
  6
CONTINUOUS
 62
   152
100
AcDbCircle
 10
0.1537313372
 20
-0.5820400983
 30
0.0
 40
0.0079999999999999
100
AcDbArc
 50
215.5897075853
 51
284.7953723929
  0
ARC
  5
D0
330
1F
100
AcDbEntity
  8
0
  6
CONTINUOUS
 62
   152
100
AcDbCircle
 10
0.1309615882
 20
-0.5983354514
 30
0.0
 40
0.0199999999999999
100
AcDbArc
 50
35.5897075853
 51
102.3460057448
  0
ARC
  5
D1
330
1F
100
AcDbEntity
  8
0
  6
CONTINUOUS
 62
   152
100
AcDbCircle
 10
0.0
 20
0.0
 30
0.0
 40
0.5925000000003122
100
AcDbArc
 50
280.1539942552
 51
282.3460057447999
  0
ARC
  5
D2
330
1F
100
AcDbEntity
  8
0
  6
CONTINUOUS
 62
   152
100
AcDbCircle
 10
0.1079803333
 20
-0.6029067072
 30
0.0
 40
0.0200000000000001
100
AcDbArc
 50
100.1539942552
 51
166.9102924147
  0
ARC
  5
D3
330
1F
100
AcDbEntity
  8
0
  6
CONTINUOUS
 62
   152
100
AcDbCircle
 10
0.0807078667
 20
-0.5965653696
 30
0.0
 40
0.0080000000000001
100
AcDbArc
 50
277.7046276071001
 51
346.9102924147
  0
ARC
  5
D4
330
1F
100
AcDbEntity
  8
0
  6
CONTINUOUS
 62
   152
100
AcDbCircle
 10
0.0
 20
0.0
 30
0.0
 40
0.6100000000000119
100
AcDbArc
 50
262.2953723929
 51
277.7046276071001
  0
ARC
  5
D5
330
1F
100
AcDbEntity
  8
0
  6
CONTINUOUS
 62
   152
100
AcDbCircle
 10
-0.0807078667
 20
-0.5965653696
 30
0.0
 40
0.0079999999999994
100
AcDbArc
 50
193.0897075853
 51
262.2953723929
  0
ARC
  5
D6
330
1F
100
AcDbEntity
  8
0
  6
CONTINUOUS
 62
   152
100
AcDbCircle
 10
-0.1079803333
 20
-0.6029067072
 30
0.0
 40
0.0199999999999999
100
AcDbArc
 50
13.0897075853
 51
79.8460057448
  0
ARC
  5
D7
330
1F
100
AcDbEntity
  8
0
  6
CONTINUOUS
 62
   152
100
AcDbCircle
 10
0.0
 20
0.0
 30
0.0
 40
0.5924999999995444
100
AcDbArc
 50
257.6539942552
 51
259.8460057448
  0
ARC
  5
D8
330
1F
100
AcDbEntity
  8
0
  6
CONTINUOUS
 62
   152
100
AcDbCircle
 10
-0.1309615882
 20
-0.5983354514
 30
0.0
 40
0.0200000000000007
100
AcDbArc
 50
77.6539942552
 51
144.4102924147
  0
ARC
  5
D9
330
1F
100
AcDbEntity
  8
0
  6
CONTINUOUS
 62
   152
100
AcDbCircle
 10
-0.1537313372
 20
-0.5820400983
 30
0.0
 40
0.0080000000000001
100
AcDbArc
 50
255.2046276071
 51
324.4102924147001
  0
ARC
  5
DA
330
1F
100
AcDbEntity
  8
0
  6
CONTINUOUS
 62
   152
100
AcDbCircle
 10
0.0
 20
0.0
 30
0.0
 40
0.6100000000000179
100
AcDbArc
 50
239.7953723929
 51
255.2046276071
  0
ARC
  5
DB
330
1F
100
AcDbEntity
  8
0
  6
CONTINUOUS
 62
   152
100
AcDbCircle
 10
-0.3028600294
 20
-0.5202689714
 30
0.0
 40
0.0079999999999996
100
AcDbArc
 50
170.5897075853
 51
239.7953723929
  0
ARC
  5
DC
330
1F
100
AcDbEntity
  8
0
  6
CONTINUOUS
 62
   152
100
AcDbCircle
 10
-0.330483228
 20
-0.5156908822
 30
0.0
 40
0.0200000000000003
100
AcDbArc
 50
350.5897075852999
 51
57.3460057448
  0
ARC
  5
DD
330
1F
100
AcDbEntity
  8
0
  6
CONTINUOUS
 62
   152
100
AcDbCircle
 10
0.0
 20
0.0
 30
0.0
 40
0.59250000000008
100
AcDbArc
 50
235.1539942552
 51
237.3460057448
  0
ARC
  5
DE
330
1F
100
AcDbEntity
  8
0
  6
CONTINUOUS
 62
   152
100
AcDbCircle
 10
-0.3499657952
 20
-0.502673047
 30
0.0
 40
0.02
100
AcDbArc
 50
55.1539942552
 51
121.9102924147
  0
ARC
  5
DF
330
1F
100
AcDbEntity
  8
0
  6
CONTINUOUS
 62
   152
100
AcDbCircle
 10
-0.3647663385
 20
-0.4789044981
 30
0.0
 40
0.008
100
AcDbArc
 50
232.7046276071
 51
301.9102924147
  0
ARC
  5
E0
330
1F
100
AcDbEntity
  8
0
  6
CONTINUOUS
 62
   152
100
AcDbCircle
 10
0.0
 20
0.0
 30
0.0
 40
0.610000000000015
100
AcDbArc
 50
217.2953723929
 51
232.7046276071
  0
ARC
  5
E1
330
1F
100
AcDbEntity
  8
0
  6
CONTINUOUS
 62
   152
100
AcDbCircle
 10
-0.4789044981
 20
-0.3647663385
 30
0.0
 40
0.0079999999999999
100
AcDbArc
 50
148.0897075853
 51
217.2953723929
  0
ARC
  5
E2
330
1F
100
AcDbEntity
  8
0
  6
CONTINUOUS
 62
   152
100
AcDbCircle
 10
-0.502673047
 20
-0.3499657952
 30
0.0
 40
0.02
100
AcDbArc
 50
328.0897075853
 51
34.8460057448
  0
ARC
  5
E3
330
1F
100
AcDbEntity
  8
0
  6
CONTINUOUS
 62
   152
100
AcDbCircle
 10
0.0
 20
0.0
 30
0.0
 40
0.5924999999999121
100
AcDbArc
 50
212.6539942552
 51
214.8460057448
  0
ARC
  5
E4
330
1F
100
AcDbEntity
  8
0
  6
CONTINUOUS
 62
   152
100
AcDbCircle
 10
-0.5156908822
 20
-0.330483228
 30
0.0
 40
0.0200000000000004
100
AcDbArc
 50
32.65399425519999
 51
99.4102924147
  0
ARC
  5
E5
330
1F
100
AcDbEntity
  8
0
  6
CONTINUOUS
 62
   152
100
AcDbCircle
 10
-0.5202689714
 20
-0.3028600294
 30
0.0
 40
0.008
100
AcDbArc
 50
210.2046276071
 51
279.4102924146999
  0
ARC
  5
E6
330
1F
100
AcDbEntity
  8
0
  6
CONTINUOUS
 62
   152
100
AcDbCircle
 10
0.0
 20
0.0
 30
0.0
 40
0.610000000000022
100
AcDbArc
 50
194.7953723929
 51
210.2046276071
  0
ARC
  5
E7
330
1F
100
AcDbEntity
  8
0
  6
CONTINUOUS
 62
   152
100
AcDbCircle
 10
-0.5820400983
 20
-0.1537313372
 30
0.0
 40
0.0079999999999993
100
AcDbArc
 50
125.5897075853
 51
194.7953723929
  0
ARC
  5
E8
330
1F
100
AcDbEntity
  8
0
  6
CONTINUOUS
 62
   152
100
AcDbCircle
 10
-0.5983354514
 20
-0.1309615882
 30
0.0
 40
0.0200000000000002
100
AcDbArc
 50
305.5897075852999
 51
12.3460057448
  0
ARC
  5
E9
330
1F
100
AcDbEntity
  8
0
  6
CONTINUOUS
 62
   152
100
AcDbCircle
 10
0.0
 20
0.0
 30
0.0
 40
0.5925000000000238
100
AcDbArc
 50
190.1539942552
 51
192.3460057448
  0
ARC
  5
EA
330
1F
100
AcDbEntity
  8
0
  6
CONTINUOUS
 62
   152
100
AcDbCircle
 10
-0.6029067072
 20
-0.1079803333
 30
0.0
 40
0.0200000000000003
100
AcDbArc
 50
10.1539942552
 51
76.9102924147
  0
ARC
  5
EB
330
1F
100
AcDbEntity
  8
0
  6
CONTINUOUS
 62
   152
100
AcDbCircle
 10
-0.5965653696
 20
-0.0807078667
 30
0.0
 40
0.0079999999999997
100
AcDbArc
 50
187.7046276071
 51
256.9102924147
  0
ARC
  5
EC
330
1F
100
AcDbEntity
  8
0
  6
CONTINUOUS
 62
   152
100
AcDbCircle
 10
0.0
 20
0.0
 30
0.0
 40
0.6100000000000226
100
AcDbArc
 50
172.2953723929
 51
187.7046276071
  0
ARC
  5
ED
330
1F
100
AcDbEntity
  8
0
  6
CONTINUOUS
 62
   152
100
AcDbCircle
 10
-0.5965653696
 20
0.0807078667
 30
0.0
 40
0.0079999999999996
100
AcDbArc
 50
103.0897075853
 51
172.2953723929
  0
ARC
  5
EE
330
1F
100
AcDbEntity
  8
0
  6
CONTINUOUS
 62
   152
100
AcDbCircle
 10
-0.6029067072
 20
0.1079803333
 30
0.0
 40
0.0200000000000001
100
AcDbArc
 50
283.0897075853
 51
349.8460057448
  0
ARC
  5
EF
330
1F
100
AcDbEntity
  8
0
  6
CONTINUOUS
 62
   152
100
AcDbCircle
 10
0.0
 20
0.0
 30
0.0
 40
0.592499999999908
100
AcDbArc
 50
167.6539942552
 51
169.8460057448
  0
ARC
  5
F0
330
1F
100
AcDbEntity
  8
0
  6
CONTINUOUS
 62
   152
100
AcDbCircle
 10
-0.5983354514
 20
0.1309615882
 30
0.0
 40
0.0200000000000004
100
AcDbArc
 50
347.6539942552
 51
54.4102924147
  0
ARC
  5
F1
330
1F
100
AcDbEntity
  8
0
  6
CONTINUOUS
 62
   152
100
AcDbCircle
 10
-0.5820400983
 20
0.1537313372
 30
0.0
 40
0.0079999999999999
100
AcDbArc
 50
165.2046276071
 51
234.4102924146999
  0
ARC
  5
F2
330
1F
100
AcDbEntity
  8
0
  6
CONTINUOUS
 62
   152
100
AcDbCircle
 10
0.0
 20
0.0
 30
0.0
 40
0.6100000000000307
100
AcDbArc
 50
149.7953723929
 51
165.2046276071
  0
ARC
  5
F3
330
1F
100
AcDbEntity
  8
0
  6
CONTINUOUS
 62
   152
100
AcDbCircle
 10
-0.5202689714
 20
0.3028600294
 30
0.0
 40
0.0079999999999996
100
AcDbArc
 50
80.5897075853
 51
149.7953723929
  0
ARC
  5
F4
330
1F
100
AcDbEntity
  8
0
  6
CONTINUOUS
 62
   152
100
AcDbCircle
 10
-0.5156908822
 20
0.330483228
 30
0.0
 40
0.0200000000000003
100
AcDbArc
 50
260.5897075852999
 51
327.3460057448
  0
ARC
  5
F5
330
1F
100
AcDbEntity
  8
0
  6
CONTINUOUS
 62
   152
100
AcDbCircle
 10
0.0
 20
0.0
 30
0.0
 40
0.5925000000007049
100
AcDbArc
 50
145.1539942552
 51
147.3460057448
  0
ARC
  5
F6
330
1F
100
AcDbEntity
  8
0
  6
CONTINUOUS
 62
   152
100
AcDbCircle
 10
-0.502673047
 20
0.3499657952
 30
0.0
 40
0.0199999999999999
100
AcDbArc
 50
325.1539942552
 51
31.9102924147
  0
ARC
  5
F7
330
1F
100
AcDbEntity
  8
0
  6
CONTINUOUS
 62
   152
100
AcDbCircle
 10
-0.4789044981
 20
0.3647663385
 30
0.0
 40
0.0079999999999999
100
AcDbArc
 50
142.7046276071
 51
211.9102924147
  0
ARC
  5
F8
330
1F
100
AcDbEntity
  8
0
  6
CONTINUOUS
 62
   152
100
AcDbCircle
 10
0.0
 20
0.0
 30
0.0
 40
0.6100000000000142
100
AcDbArc
 50
127.2953723929
 51
142.7046276071
  0
ARC
  5
F9
330
1F
100
AcDbEntity
  8
0
  6
CONTINUOUS
 62
   152
100
AcDbCircle
 10
-0.3647663385
 20
0.4789044981
 30
0.0
 40
0.0079999999999999
100
AcDbArc
 50
58.0897075853
 51
127.2953723929
  0
ARC
  5
FA
330
1F
100
AcDbEntity
  8
0
  6
CONTINUOUS
 62
   152
100
AcDbCircle
 10
-0.3499657952
 20
0.502673047
 30
0.0
 40
0.0200000000000002
100
AcDbArc
 50
238.0897075853
 51
304.8460057448
  0
ARC
  5
FB
330
1F
100
AcDbEntity
  8
0
  6
CONTINUOUS
 62
   152
100
AcDbCircle
 10
0.0
 20
0.0
 30
0.0
 40
0.5924999999995555
100
AcDbArc
 50
122.6539942552
 51
124.8460057448
  0
ARC
  5
FC
330
1F
100
AcDbEntity
  8
0
  6
CONTINUOUS
 62
   152
100
AcDbCircle
 10
-0.330483228
 20
0.5156908822
 30
0.0
 40
0.02
100
AcDbArc
 50
302.6539942552
 51
9.4102924147
  0
ARC
  5
FD
330
1F
100
AcDbEntity
  8
0
  6
CONTINUOUS
 62
   152
100
AcDbCircle
 10
-0.3028600294
 20
0.5202689714
 30
0.0
 40
0.0079999999999997
100
AcDbArc
 50
120.2046276071
 51
189.4102924147
  0
ARC
  5
FE
330
1F
100
AcDbEntity
  8
0
  6
CONTINUOUS
 62
   152
100
AcDbCircle
 10
0.0
 20
0.0
 30
0.0
 40
0.6100000000000073
100
AcDbArc
 50
104.7953723929
 51
120.2046276071
  0
ARC
  5
FF
330
1F
100
AcDbEntity
  8
0
  6
CONTINUOUS
 62
   152
100
AcDbCircle
 10
-0.1537313372
 20
0.5820400983
 30
0.0
 40
0.0079999999999995
100
AcDbArc
 50
35.5897075853
 51
104.7953723929
  0
ARC
  5
100
330
1F
100
AcDbEntity
  8
0
  6
CONTINUOUS
 62
   152
100
AcDbCircle
 10
-0.1309615882
 20
0.5983354514
 30
0.0
 40
0.0199999999999999
100
AcDbArc
 50
215.5897075853
 51
282.3460057447999
  0
ARC
  5
101
330
1F
100
AcDbEntity
  8
0
  6
CONTINUOUS
 62
   152
100
AcDbCircle
 10
0.0
 20
0.0
 30
0.0
 40
0.5925000000009628
100
AcDbArc
 50
100.1539942552
 51
102.3460057448
  0
ARC
  5
102
330
1F
100
AcDbEntity
  8
0
  6
CONTINUOUS
 62
   152
100
AcDbCircle
 10
-0.1079803333
 20
0.6029067072
 30
0.0
 40
0.0200000000000002
100
AcDbArc
 50
280.1539942552
 51
346.9102924147
  0
ARC
  5
103
330
1F
100
AcDbEntity
  8
0
  6
CONTINUOUS
 62
   152
100
AcDbCircle
 10
-0.0807078667
 20
0.5965653696
 30
0.0
 40
0.0080000000000001
100
AcDbArc
 50
97.70462760709998
 51
166.9102924147
  0
ENDSEC
  0
SECTION
  2
OBJECTS
  0
DICTIONARY
  5
C
330
0
100
AcDbDictionary
  3
ACAD_GROUP
350
D
  3
ACAD_IMAGE_VARS
350
149
  3
ACAD_MLINESTYLE
350
17
  3
ACAD_SCALELIST
350
104
  3
APPDATA
350
147
  3
DWGPROPS
350
16D
  0
DICTIONARY
  5
D
102
{ACAD_REACTORS
330
C
102
}
330
C
100
AcDbDictionary
  0
RASTERVARIABLES
  5
149
102
{ACAD_REACTORS
330
C
102
}
330
C
100
AcDbRasterVariables
 90
        0
 70
     1
 71
     1
 72
     5
  0
DICTIONARY
  5
17
102
{ACAD_REACTORS
330
C
102
}
330
C
100
AcDbDictionary
  3
STANDARD
350
18
  0
DICTIONARY
  5
104
102
{ACAD_REACTORS
330
C
102
}
330
C
100
AcDbDictionary
  0
DICTIONARY
  5
147
102
{ACAD_REACTORS
330
C
102
}
330
C
100
AcDbDictionary
  0
XRECORD
  5
16D
102
{ACAD_REACTORS
330
C
102
}
330
C
100
AcDbXrecord
  1
DWGPROPS COOKIE
  2

  3

  4

  6

  7

  8
NickC
  9

300
=
301
=
302
=
303
=
304
=
305
=
306
=
307
=
308
=
309
=
 40
0.0
 41
2458576.852560683
 42
2458578.914372812
  1

 90
        0
  0
MLINESTYLE
  5
18
102
{ACAD_REACTORS
330
17
102
}
330
17
100
AcDbMlineStyle
  2
Standard
 70
     0
  3

 62
   256
 51
90.0
 52
90.0
 71
     2
 49
0.5
 62
   256
  6
BYLAYER
 49
-0.5
 62
   256
  6
BYLAYER
  0
ENDSEC
  0
EOF
