  0
SECTION
  2
HEADER
  9
$ACADVER
  1
AC1014
  9
$ACADMAINTVER
 70
     9
  9
$DWGCODEPAGE
  3
ANSI_1252
  9
$INSBASE
 10
0.0
 20
0.0
 30
0.0
  9
$EXTMIN
 10
-0.6085
 20
-0.6085
 30
0.0
  9
$EXTMAX
 10
0.6085000000000034
 20
0.6085000000000317
 30
0.0
  9
$LIMMIN
 10
0.0
 20
0.0
  9
$LIMMAX
 10
12.0
 20
9.0
  9
$ORTHOMODE
 70
     0
  9
$REGENMODE
 70
     1
  9
$FILLMODE
 70
     1
  9
$QTEXTMODE
 70
     0
  9
$MIRRTEXT
 70
     1
  9
$DRAGMODE
 70
     2
  9
$LTSCALE
 40
1.0
  9
$OSMODE
 70
 13311
  9
$ATTMODE
 70
     1
  9
$TEXTSIZE
 40
0.1377952756
  9
$TRACEWID
 40
0.05
  9
$TEXTSTYLE
  7
STANDARD
  9
$CLAYER
  8
0
  9
$CELTYPE
  6
BYLAYER
  9
$CECOLOR
 62
   256
  9
$CELTSCALE
 40
1.0
  9
$DELOBJ
 70
     1
  9
$DISPSILH
 70
     0
  9
$DIMSCALE
 40
1.0
  9
$DIMASZ
 40
0.13
  9
$DIMEXO
 40
0.0393700787
  9
$DIMDLI
 40
0.38
  9
$DIMRND
 40
0.0
  9
$DIMDLE
 40
0.0
  9
$DIMEXE
 40
0.0393700787
  9
$DIMTP
 40
0.0
  9
$DIMTM
 40
0.0
  9
$DIMTXT
 40
0.1377952756
  9
$DIMCEN
 40
0.09
  9
$DIMTSZ
 40
0.0
  9
$DIMTOL
 70
     0
  9
$DIMLIM
 70
     0
  9
$DIMTIH
 70
     1
  9
$DIMTOH
 70
     1
  9
$DIMSE1
 70
     0
  9
$DIMSE2
 70
     0
  9
$DIMTAD
 70
     1
  9
$DIMZIN
 70
     0
  9
$DIMBLK
  1

  9
$DIMASO
 70
     1
  9
$DIMSHO
 70
     1
  9
$DIMPOST
  1

  9
$DIMAPOST
  1

  9
$DIMALT
 70
     0
  9
$DIMALTD
 70
     2
  9
$DIMALTF
 40
25.4
  9
$DIMLFAC
 40
1.0
  9
$DIMTOFL
 70
     0
  9
$DIMTVP
 40
0.0
  9
$DIMTIX
 70
     0
  9
$DIMSOXD
 70
     0
  9
$DIMSAH
 70
     0
  9
$DIMBLK1
  1

  9
$DIMBLK2
  1

  9
$DIMSTYLE
  2
STANDARD
  9
$DIMCLRD
 70
     0
  9
$DIMCLRE
 70
     0
  9
$DIMCLRT
 70
     0
  9
$DIMTFAC
 40
1.0
  9
$DIMGAP
 40
0.06
  9
$DIMJUST
 70
     0
  9
$DIMSD1
 70
     0
  9
$DIMSD2
 70
     0
  9
$DIMTOLJ
 70
     1
  9
$DIMTZIN
 70
     0
  9
$DIMALTZ
 70
     0
  9
$DIMALTTZ
 70
     0
  9
$DIMFIT
 70
     3
  9
$DIMUPT
 70
     0
  9
$DIMUNIT
 70
     2
  9
$DIMDEC
 70
     2
  9
$DIMTDEC
 70
     2
  9
$DIMALTU
 70
     2
  9
$DIMALTTD
 70
     2
  9
$DIMTXSTY
  7
STANDARD
  9
$DIMAUNIT
 70
     0
  9
$LUNITS
 70
     2
  9
$LUPREC
 70
     2
  9
$SKETCHINC
 40
0.1
  9
$FILLETRAD
 40
0.5
  9
$AUNITS
 70
     0
  9
$AUPREC
 70
     2
  9
$MENU
  1
.
  9
$ELEVATION
 40
0.0
  9
$PELEVATION
 40
0.0
  9
$THICKNESS
 40
0.0
  9
$LIMCHECK
 70
     0
  9
$CHAMFERA
 40
0.5
  9
$CHAMFERB
 40
0.5
  9
$CHAMFERC
 40
1.0
  9
$CHAMFERD
 40
0.0
  9
$SKPOLY
 70
     0
  9
$TDCREATE
 40
2458576.564404028
  9
$TDUPDATE
 40
2458578.615483114
  9
$TDINDWG
 40
0.0006531829
  9
$TDUSRTIMER
 40
2458578.906688055
  9
$USRTIMER
 70
     1
  9
$ANGBASE
 50
0.0
  9
$ANGDIR
 70
     0
  9
$PDMODE
 70
     0
  9
$PDSIZE
 40
-1.0
  9
$PLINEWID
 40
0.0
  9
$COORDS
 70
     1
  9
$SPLFRAME
 70
     0
  9
$SPLINETYPE
 70
     6
  9
$SPLINESEGS
 70
     8
  9
$ATTDIA
 70
     0
  9
$ATTREQ
 70
     1
  9
$HANDLING
 70
     1
  9
$HANDSEED
  5
16E
  9
$SURFTAB1
 70
     6
  9
$SURFTAB2
 70
     6
  9
$SURFTYPE
 70
     6
  9
$SURFU
 70
     6
  9
$SURFV
 70
     6
  9
$UCSNAME
  2

  9
$UCSORG
 10
0.0
 20
0.0
 30
0.0
  9
$UCSXDIR
 10
1.0
 20
0.0
 30
0.0
  9
$UCSYDIR
 10
0.0
 20
1.0
 30
0.0
  9
$PUCSNAME
  2

  9
$PUCSORG
 10
0.0
 20
0.0
 30
0.0
  9
$PUCSXDIR
 10
1.0
 20
0.0
 30
0.0
  9
$PUCSYDIR
 10
0.0
 20
1.0
 30
0.0
  9
$USERI1
 70
     0
  9
$USERI2
 70
     0
  9
$USERI3
 70
     0
  9
$USERI4
 70
     0
  9
$USERI5
 70
     0
  9
$USERR1
 40
0.0
  9
$USERR2
 40
0.0
  9
$USERR3
 40
0.0
  9
$USERR4
 40
0.0
  9
$USERR5
 40
0.0
  9
$WORLDVIEW
 70
     1
  9
$SHADEDGE
 70
     3
  9
$SHADEDIF
 70
    70
  9
$TILEMODE
 70
     1
  9
$MAXACTVP
 70
    64
  9
$PINSBASE
 10
0.0
 20
0.0
 30
0.0
  9
$PLIMCHECK
 70
     0
  9
$PEXTMIN
 10
1.000000000000000E+20
 20
1.000000000000000E+20
 30
1.000000000000000E+20
  9
$PEXTMAX
 10
-1.000000000000000E+20
 20
-1.000000000000000E+20
 30
-1.000000000000000E+20
  9
$PLIMMIN
 10
0.0
 20
0.0
  9
$PLIMMAX
 10
0.0
 20
0.0
  9
$UNITMODE
 70
     0
  9
$VISRETAIN
 70
     1
  9
$PLINEGEN
 70
     0
  9
$PSLTSCALE
 70
     1
  9
$TREEDEPTH
 70
  3020
  9
$PICKSTYLE
 70
     0
  9
$CMLSTYLE
  2
STANDARD
  9
$CMLJUST
 70
     0
  9
$CMLSCALE
 40
1.0
  9
$PROXYGRAPHICS
 70
     1
  9
$MEASUREMENT
 70
     0
  0
ENDSEC
  0
SECTION
  2
CLASSES
  0
CLASS
  1
ACDBDICTIONARYWDFLT
  2
AcDbDictionaryWithDefault
  3
ObjectDBX Classes
 90
        0
280
     0
281
     0
  0
CLASS
  1
VISUALSTYLE
  2
AcDbVisualStyle
  3
ObjectDBX Classes
 90
     4095
280
     0
281
     0
  0
CLASS
  1
MATERIAL
  2
AcDbMaterial
  3
ObjectDBX Classes
 90
     1153
280
     0
281
     0
  0
CLASS
  1
ACDBPLACEHOLDER
  2
AcDbPlaceHolder
  3
ObjectDBX Classes
 90
        0
280
     0
281
     0
  0
CLASS
  1
LAYOUT
  2
AcDbLayout
  3
ObjectDBX Classes
 90
        0
280
     0
281
     0
  0
CLASS
  1
SCALE
  2
AcDbScale
  3
ObjectDBX Classes
 90
     1153
280
     0
281
     0
  0
CLASS
  1
TABLESTYLE
  2
AcDbTableStyle
  3
ObjectDBX Classes
 90
     4095
280
     0
281
     0
  0
CLASS
  1
MLEADERSTYLE
  2
AcDbMLeaderStyle
  3
ACDB_MLEADERSTYLE_CLASS
 90
     4095
280
     0
281
     0
  0
CLASS
  1
SUN
  2
AcDbSun
  3
SCENEOE
 90
     1153
280
     0
281
     0
  0
CLASS
  1
RASTERVARIABLES
  2
AcDbRasterVariables
  3
ISM
 90
        0
280
     0
281
     0
  0
CLASS
  1
XRECORD
  2
AcDbXrecord
  3
ObjectDBX Classes
 90
        0
280
     0
281
     0
  0
CLASS
  1
LWPOLYLINE
  2
AcDbPolyline
  3
ObjectDBX Classes
 90
        0
280
     0
281
     1
  0
CLASS
  1
HATCH
  2
AcDbHatch
  3
ObjectDBX Classes
 90
        0
280
     0
281
     1
  0
ENDSEC
  0
SECTION
  2
TABLES
  0
TABLE
  2
VPORT
  5
8
330
0
100
AcDbSymbolTable
 70
     1
  0
VPORT
  5
29
330
8
100
AcDbSymbolTableRecord
100
AcDbViewportTableRecord
  2
*ACTIVE
 70
     0
 10
0.0
 20
0.0
 11
1.0
 21
1.0
 12
0.0638442532507775
 22
0.1234536405720559
 13
0.0
 23
0.0
 14
0.5
 24
0.5
 15
0.5
 25
0.5
 16
0.0
 26
0.0
 36
1.0
 17
0.0
 27
0.0
 37
0.0
 40
1.669208145176139
 41
1.982408660351827
 42
50.0
 43
0.0
 44
0.0
 50
0.0
 51
0.0
 71
    16
 72
   100
 73
     1
 74
     3
 75
     0
 76
     0
 77
     0
 78
     0
  0
ENDTAB
  0
TABLE
  2
LTYPE
  5
5
330
0
100
AcDbSymbolTable
 70
     6
  0
LTYPE
  5
14
330
5
100
AcDbSymbolTableRecord
100
AcDbLinetypeTableRecord
  2
BYBLOCK
 70
     0
  3

 72
    65
 73
     0
 40
0.0
  0
LTYPE
  5
15
330
5
100
AcDbSymbolTableRecord
100
AcDbLinetypeTableRecord
  2
BYLAYER
 70
     0
  3

 72
    65
 73
     0
 40
0.0
  0
LTYPE
  5
16
330
5
100
AcDbSymbolTableRecord
100
AcDbLinetypeTableRecord
  2
CONTINUOUS
 70
     0
  3
Solid line
 72
    65
 73
     0
 40
0.0
  0
LTYPE
  5
3F
330
5
100
AcDbSymbolTableRecord
100
AcDbLinetypeTableRecord
  2
HIDDEN
 70
     0
  3
Hidden __ __ __ __ __ __ __ __ __ __ __ __ __ __
 72
    65
 73
     2
 40
0.075
 49
0.05
 74
     0
 49
-0.025
 74
     0
  0
LTYPE
  5
40
330
5
100
AcDbSymbolTableRecord
100
AcDbLinetypeTableRecord
  2
PHANTOM
 70
     0
  3
Phantom ______  __  __  ______  __  __  ______
 72
    65
 73
     6
 40
0.5
 49
0.25
 74
     0
 49
-0.05
 74
     0
 49
0.05
 74
     0
 49
-0.05
 74
     0
 49
0.05
 74
     0
 49
-0.05
 74
     0
  0
LTYPE
  5
41
330
5
100
AcDbSymbolTableRecord
100
AcDbLinetypeTableRecord
  2
CENTER
 70
     0
  3
Center ____ _ ____ _ ____ _ ____ _ ____ _ ____
 72
    65
 73
     4
 40
0.4
 49
0.25
 74
     0
 49
-0.05
 74
     0
 49
0.05
 74
     0
 49
-0.05
 74
     0
  0
LTYPE
  5
42
330
5
100
AcDbSymbolTableRecord
100
AcDbLinetypeTableRecord
  2
CENTERX2
 70
     0
  3
Center (2x) ________  __  ________  __  _____
 72
    65
 73
     4
 40
0.8
 49
0.5
 74
     0
 49
-0.1
 74
     0
 49
0.1
 74
     0
 49
-0.1
 74
     0
  0
LTYPE
  5
43
330
5
100
AcDbSymbolTableRecord
100
AcDbLinetypeTableRecord
  2
DOT2
 70
     0
  3
Dot (.5x) ........................................
 72
    65
 73
     2
 40
0.025
 49
0.0
 74
     0
 49
-0.025
 74
     0
  0
ENDTAB
  0
TABLE
  2
LAYER
  5
2
330
0
100
AcDbSymbolTable
 70
     1
  0
LAYER
  5
10
330
2
100
AcDbSymbolTableRecord
100
AcDbLayerTableRecord
  2
0
 70
     0
 62
     7
  6
CONTINUOUS
  0
ENDTAB
  0
TABLE
  2
STYLE
  5
3
330
0
100
AcDbSymbolTable
 70
     1
  0
STYLE
  5
11
330
3
100
AcDbSymbolTableRecord
100
AcDbTextStyleTableRecord
  2
STANDARD
 70
     0
 40
0.0
 41
1.0
 50
0.0
 71
     0
 42
0.1377952756
  3
txt
  4

  0
ENDTAB
  0
TABLE
  2
VIEW
  5
6
330
0
100
AcDbSymbolTable
 70
     0
  0
ENDTAB
  0
TABLE
  2
UCS
  5
7
330
0
100
AcDbSymbolTable
 70
     0
  0
ENDTAB
  0
TABLE
  2
APPID
  5
9
330
0
100
AcDbSymbolTable
 70
     1
  0
APPID
  5
12
330
9
100
AcDbSymbolTableRecord
100
AcDbRegAppTableRecord
  2
ACAD
 70
     0
  0
ENDTAB
  0
TABLE
  2
DIMSTYLE
  5
A
330
0
100
AcDbSymbolTable
 70
     1
  0
DIMSTYLE
105
27
330
A
100
AcDbSymbolTableRecord
100
AcDbDimStyleTableRecord
  2
STANDARD
 70
     0
  3

  4

  5

  6

  7

 40
1.0
 41
0.18
 42
0.0625
 43
0.38
 44
0.18
 45
0.0
 46
0.0
 47
0.0
 48
0.0
140
0.18
141
0.09
142
0.0
143
25.4
144
1.0
145
0.0
146
1.0
147
0.09
 71
     0
 72
     0
 73
     1
 74
     1
 75
     0
 76
     0
 77
     0
 78
     0
170
     0
171
     2
172
     0
173
     0
174
     0
175
     0
176
     0
177
     0
178
     0
270
     2
271
     4
272
     4
273
     2
274
     2
340
11
275
     0
280
     0
281
     0
282
     0
283
     1
284
     0
285
     0
286
     0
287
     3
288
     0
  0
ENDTAB
  0
TABLE
  2
BLOCK_RECORD
  5
1
330
0
100
AcDbSymbolTable
 70
     1
  0
BLOCK_RECORD
  5
1F
330
1
100
AcDbSymbolTableRecord
100
AcDbBlockTableRecord
  2
*MODEL_SPACE
  0
BLOCK_RECORD
  5
1B
330
1
100
AcDbSymbolTableRecord
100
AcDbBlockTableRecord
  2
*PAPER_SPACE
  0
BLOCK_RECORD
  5
23
330
1
100
AcDbSymbolTableRecord
100
AcDbBlockTableRecord
  2
*PAPER_SPACE0
  0
ENDTAB
  0
ENDSEC
  0
SECTION
  2
BLOCKS
  0
BLOCK
  5
20
330
1F
100
AcDbEntity
  8
0
100
AcDbBlockBegin
  2
*MODEL_SPACE
 70
     0
 10
0.0
 20
0.0
 30
0.0
  3
*MODEL_SPACE
  1

  0
ENDBLK
  5
21
330
1F
100
AcDbEntity
  8
0
100
AcDbBlockEnd
  0
BLOCK
  5
1C
330
1B
100
AcDbEntity
 67
     1
  8
0
100
AcDbBlockBegin
  2
*PAPER_SPACE
 70
     0
 10
0.0
 20
0.0
 30
0.0
  3
*PAPER_SPACE
  1

  0
ENDBLK
  5
1D
330
1B
100
AcDbEntity
 67
     1
  8
0
100
AcDbBlockEnd
  0
BLOCK
  5
24
330
23
100
AcDbEntity
  8
0
100
AcDbBlockBegin
  2
*PAPER_SPACE0
 70
     0
 10
0.0
 20
0.0
 30
0.0
  3
*PAPER_SPACE0
  1

  0
ENDBLK
  5
25
330
23
100
AcDbEntity
  8
0
100
AcDbBlockEnd
  0
ENDSEC
  0
SECTION
  2
ENTITIES
  0
ARC
  5
A4
330
1F
100
AcDbEntity
  8
0
  6
CONTINUOUS
 62
    94
100
AcDbCircle
 10
0.0
 20
0.0
 30
0.0
 40
0.6085000000000317
100
AcDbArc
 50
85.8870457088
 51
94.1129542912
  0
ARC
  5
A5
330
1F
100
AcDbEntity
  8
0
  6
CONTINUOUS
 62
    94
100
AcDbCircle
 10
0.0407745021
 20
0.5670358807
 30
0.0
 40
0.0400000000000016
100
AcDbArc
 50
31.1697713751
 51
85.8870457088
  0
ARC
  5
A6
330
1F
100
AcDbEntity
  8
0
  6
CONTINUOUS
 62
    94
100
AcDbCircle
 10
0.0784225498
 20
0.5898092096
 30
0.0
 40
0.0039999999999997
100
AcDbArc
 50
211.1697713751
 51
262.4262296181
  0
ARC
  5
A7
330
1F
100
AcDbEntity
  8
0
  6
CONTINUOUS
 62
    94
100
AcDbCircle
 10
0.0
 20
0.0
 30
0.0
 40
0.5909999999999282
100
AcDbArc
 50
75.07377038189999
 51
82.42622961810001
  0
ARC
  5
A8
330
1F
100
AcDbEntity
  8
0
  6
CONTINUOUS
 62
    94
100
AcDbCircle
 10
0.1532572241
 20
0.5749236673
 30
0.0
 40
0.0039999999999993
100
AcDbArc
 50
255.0737703819
 51
306.3302286249
  0
ARC
  5
A9
330
1F
100
AcDbEntity
  8
0
  6
CONTINUOUS
 62
    94
100
AcDbCircle
 10
0.1793245091
 20
0.5394765708
 30
0.0
 40
0.0400000000000002
100
AcDbArc
 50
71.6129542912
 51
126.3302286249
  0
ARC
  5
AA
330
1F
100
AcDbEntity
  8
0
  6
CONTINUOUS
 62
    94
100
AcDbCircle
 10
0.0
 20
0.0
 30
0.0
 40
0.6084999999999933
100
AcDbArc
 50
63.38704570880001
 51
71.6129542912
  0
ARC
  5
AB
330
1F
100
AcDbEntity
  8
0
  6
CONTINUOUS
 62
    94
100
AcDbCircle
 10
0.2546659651
 20
0.5082691179
 30
0.0
 40
0.0400000000000019
100
AcDbArc
 50
8.6697713751
 51
63.38704570880001
  0
ARC
  5
AC
330
1F
100
AcDbEntity
  8
0
  6
CONTINUOUS
 62
    94
100
AcDbCircle
 10
0.2981632014
 20
0.5149016463
 30
0.0
 40
0.0039999999999992
100
AcDbArc
 50
188.6697713751
 51
239.9262296181
  0
ARC
  5
AD
330
1F
100
AcDbEntity
  8
0
  6
CONTINUOUS
 62
    94
100
AcDbCircle
 10
0.0
 20
0.0
 30
0.0
 40
0.5909999999998996
100
AcDbArc
 50
52.5737703819
 51
59.9262296181
  0
ARC
  5
AE
330
1F
100
AcDbEntity
  8
0
  6
CONTINUOUS
 62
    94
100
AcDbCircle
 10
0.3616049749
 20
0.4725112084
 30
0.0
 40
0.0039999999999977
100
AcDbArc
 50
232.5737703819
 51
283.8302286249
  0
ARC
  5
AF
330
1F
100
AcDbEntity
  8
0
  6
CONTINUOUS
 62
    94
100
AcDbCircle
 10
0.3721229894
 20
0.4297868434
 30
0.0
 40
0.0400000000000002
100
AcDbArc
 50
49.11295429119999
 51
103.8302286249
  0
ARC
  5
B0
330
1F
100
AcDbEntity
  8
0
  6
CONTINUOUS
 62
    94
100
AcDbCircle
 10
0.0
 20
0.0
 30
0.0
 40
0.6084999999999715
100
AcDbArc
 50
40.8870457088
 51
49.11295429119999
  0
ARC
  5
B1
330
1F
100
AcDbEntity
  8
0
  6
CONTINUOUS
 62
    94
100
AcDbCircle
 10
0.4297868434
 20
0.3721229894
 30
0.0
 40
0.0400000000000015
100
AcDbArc
 50
346.1697713751
 51
40.8870457088
  0
ARC
  5
B2
330
1F
100
AcDbEntity
  8
0
  6
CONTINUOUS
 62
    94
100
AcDbCircle
 10
0.4725112084
 20
0.3616049749
 30
0.0
 40
0.003999999999999
100
AcDbArc
 50
166.1697713751
 51
217.4262296181
  0
ARC
  5
B3
330
1F
100
AcDbEntity
  8
0
  6
CONTINUOUS
 62
    94
100
AcDbCircle
 10
0.0
 20
0.0
 30
0.0
 40
0.590999999999936
100
AcDbArc
 50
30.0737703819
 51
37.4262296181
  0
ARC
  5
B4
330
1F
100
AcDbEntity
  8
0
  6
CONTINUOUS
 62
    94
100
AcDbCircle
 10
0.5149016463
 20
0.2981632014
 30
0.0
 40
0.0039999999999985
100
AcDbArc
 50
210.0737703819
 51
261.3302286249
  0
ARC
  5
B5
330
1F
100
AcDbEntity
  8
0
  6
CONTINUOUS
 62
    94
100
AcDbCircle
 10
0.5082691179
 20
0.2546659651
 30
0.0
 40
0.0400000000000004
100
AcDbArc
 50
26.6129542912
 51
81.3302286249
  0
ARC
  5
B6
330
1F
100
AcDbEntity
  8
0
  6
CONTINUOUS
 62
    94
100
AcDbCircle
 10
0.0
 20
0.0
 30
0.0
 40
0.6084999999999747
100
AcDbArc
 50
18.3870457088
 51
26.6129542912
  0
ARC
  5
B7
330
1F
100
AcDbEntity
  8
0
  6
CONTINUOUS
 62
    94
100
AcDbCircle
 10
0.5394765708
 20
0.1793245091
 30
0.0
 40
0.0400000000000015
100
AcDbArc
 50
323.6697713751
 51
18.3870457088
  0
ARC
  5
B8
330
1F
100
AcDbEntity
  8
0
  6
CONTINUOUS
 62
    94
100
AcDbCircle
 10
0.5749236673
 20
0.1532572241
 30
0.0
 40
0.0039999999999998
100
AcDbArc
 50
143.6697713751
 51
194.9262296181
  0
ARC
  5
B9
330
1F
100
AcDbEntity
  8
0
  6
CONTINUOUS
 62
    94
100
AcDbCircle
 10
0.0
 20
0.0
 30
0.0
 40
0.5909999999998996
100
AcDbArc
 50
7.573770381900001
 51
14.9262296181
  0
ARC
  5
BA
330
1F
100
AcDbEntity
  8
0
  6
CONTINUOUS
 62
    94
100
AcDbCircle
 10
0.5898092096
 20
0.0784225498
 30
0.0
 40
0.0039999999999987
100
AcDbArc
 50
187.5737703819
 51
238.8302286249
  0
ARC
  5
BB
330
1F
100
AcDbEntity
  8
0
  6
CONTINUOUS
 62
    94
100
AcDbCircle
 10
0.5670358807
 20
0.0407745021
 30
0.0
 40
0.0399999999999997
100
AcDbArc
 50
4.1129542912
 51
58.83022862490001
  0
ARC
  5
BC
330
1F
100
AcDbEntity
  8
0
  6
CONTINUOUS
 62
    94
100
AcDbCircle
 10
0.0
 20
0.0
 30
0.0
 40
0.6085000000000034
100
AcDbArc
 50
355.8870457088
 51
4.1129542912
  0
ARC
  5
BD
330
1F
100
AcDbEntity
  8
0
  6
CONTINUOUS
 62
    94
100
AcDbCircle
 10
0.5670358807
 20
-0.0407745021
 30
0.0
 40
0.0400000000000019
100
AcDbArc
 50
301.1697713751
 51
355.8870457088
  0
ARC
  5
BE
330
1F
100
AcDbEntity
  8
0
  6
CONTINUOUS
 62
    94
100
AcDbCircle
 10
0.5898092096
 20
-0.0784225498
 30
0.0
 40
0.0039999999999995
100
AcDbArc
 50
121.1697713751
 51
172.4262296181
  0
ARC
  5
BF
330
1F
100
AcDbEntity
  8
0
  6
CONTINUOUS
 62
    94
100
AcDbCircle
 10
0.0
 20
0.0
 30
0.0
 40
0.5909999999998924
100
AcDbArc
 50
345.0737703819
 51
352.4262296181001
  0
ARC
  5
C0
330
1F
100
AcDbEntity
  8
0
  6
CONTINUOUS
 62
    94
100
AcDbCircle
 10
0.5749236673
 20
-0.1532572241
 30
0.0
 40
0.0039999999999985
100
AcDbArc
 50
165.0737703819
 51
216.3302286249
  0
ARC
  5
C1
330
1F
100
AcDbEntity
  8
0
  6
CONTINUOUS
 62
    94
100
AcDbCircle
 10
0.5394765708
 20
-0.1793245091
 30
0.0
 40
0.04
100
AcDbArc
 50
341.6129542912
 51
36.33022862489999
  0
ARC
  5
C2
330
1F
100
AcDbEntity
  8
0
  6
CONTINUOUS
 62
    94
100
AcDbCircle
 10
0.0
 20
0.0
 30
0.0
 40
0.6084999999999899
100
AcDbArc
 50
333.3870457088
 51
341.6129542912
  0
ARC
  5
C3
330
1F
100
AcDbEntity
  8
0
  6
CONTINUOUS
 62
    94
100
AcDbCircle
 10
0.5082691179
 20
-0.2546659651
 30
0.0
 40
0.0400000000000012
100
AcDbArc
 50
278.6697713751
 51
333.3870457088
  0
ARC
  5
C4
330
1F
100
AcDbEntity
  8
0
  6
CONTINUOUS
 62
    94
100
AcDbCircle
 10
0.5149016463
 20
-0.2981632014
 30
0.0
 40
0.0039999999999994
100
AcDbArc
 50
98.66977137510001
 51
149.9262296181
  0
ARC
  5
C5
330
1F
100
AcDbEntity
  8
0
  6
CONTINUOUS
 62
    94
100
AcDbCircle
 10
0.0
 20
0.0
 30
0.0
 40
0.5909999999998776
100
AcDbArc
 50
322.5737703819
 51
329.9262296181
  0
ARC
  5
C6
330
1F
100
AcDbEntity
  8
0
  6
CONTINUOUS
 62
    94
100
AcDbCircle
 10
0.4725112084
 20
-0.3616049749
 30
0.0
 40
0.0039999999999979
100
AcDbArc
 50
142.5737703818
 51
193.8302286249
  0
ARC
  5
C7
330
1F
100
AcDbEntity
  8
0
  6
CONTINUOUS
 62
    94
100
AcDbCircle
 10
0.4297868434
 20
-0.3721229894
 30
0.0
 40
0.0399999999999996
100
AcDbArc
 50
319.1129542912
 51
13.8302286249
  0
ARC
  5
C8
330
1F
100
AcDbEntity
  8
0
  6
CONTINUOUS
 62
    94
100
AcDbCircle
 10
0.0
 20
0.0
 30
0.0
 40
0.6084999999999848
100
AcDbArc
 50
310.8870457088
 51
319.1129542912
  0
ARC
  5
C9
330
1F
100
AcDbEntity
  8
0
  6
CONTINUOUS
 62
    94
100
AcDbCircle
 10
0.3721229894
 20
-0.4297868434
 30
0.0
 40
0.0400000000000011
100
AcDbArc
 50
256.1697713751
 51
310.8870457088
  0
ARC
  5
CA
330
1F
100
AcDbEntity
  8
0
  6
CONTINUOUS
 62
    94
100
AcDbCircle
 10
0.3616049749
 20
-0.4725112084
 30
0.0
 40
0.0039999999999995
100
AcDbArc
 50
76.1697713751
 51
127.4262296181
  0
ARC
  5
CB
330
1F
100
AcDbEntity
  8
0
  6
CONTINUOUS
 62
    94
100
AcDbCircle
 10
0.0
 20
0.0
 30
0.0
 40
0.5909999999999157
100
AcDbArc
 50
300.0737703819
 51
307.4262296181
  0
ARC
  5
CC
330
1F
100
AcDbEntity
  8
0
  6
CONTINUOUS
 62
    94
100
AcDbCircle
 10
0.2981632014
 20
-0.5149016463
 30
0.0
 40
0.0039999999999979
100
AcDbArc
 50
120.0737703818
 51
171.3302286249
  0
ARC
  5
CD
330
1F
100
AcDbEntity
  8
0
  6
CONTINUOUS
 62
    94
100
AcDbCircle
 10
0.2546659651
 20
-0.5082691179
 30
0.0
 40
0.0399999999999999
100
AcDbArc
 50
296.6129542912
 51
351.3302286249
  0
ARC
  5
CE
330
1F
100
AcDbEntity
  8
0
  6
CONTINUOUS
 62
    94
100
AcDbCircle
 10
0.0
 20
0.0
 30
0.0
 40
0.6084999999999833
100
AcDbArc
 50
288.3870457088
 51
296.6129542912
  0
ARC
  5
CF
330
1F
100
AcDbEntity
  8
0
  6
CONTINUOUS
 62
    94
100
AcDbCircle
 10
0.1793245091
 20
-0.5394765708
 30
0.0
 40
0.040000000000002
100
AcDbArc
 50
233.6697713751
 51
288.3870457088
  0
ARC
  5
D0
330
1F
100
AcDbEntity
  8
0
  6
CONTINUOUS
 62
    94
100
AcDbCircle
 10
0.1532572241
 20
-0.5749236673
 30
0.0
 40
0.0039999999999993
100
AcDbArc
 50
53.66977137509999
 51
104.9262296181
  0
ARC
  5
D1
330
1F
100
AcDbEntity
  8
0
  6
CONTINUOUS
 62
    94
100
AcDbCircle
 10
0.0
 20
0.0
 30
0.0
 40
0.5909999999999412
100
AcDbArc
 50
277.5737703819
 51
284.9262296181
  0
ARC
  5
D2
330
1F
100
AcDbEntity
  8
0
  6
CONTINUOUS
 62
    94
100
AcDbCircle
 10
0.0784225498
 20
-0.5898092096
 30
0.0
 40
0.0039999999999985
100
AcDbArc
 50
97.5737703819
 51
148.8302286249
  0
ARC
  5
D3
330
1F
100
AcDbEntity
  8
0
  6
CONTINUOUS
 62
    94
100
AcDbCircle
 10
0.0407745021
 20
-0.5670358807
 30
0.0
 40
0.0400000000000003
100
AcDbArc
 50
274.1129542912
 51
328.8302286249
  0
ARC
  5
D4
330
1F
100
AcDbEntity
  8
0
  6
CONTINUOUS
 62
    94
100
AcDbCircle
 10
0.0
 20
0.0
 30
0.0
 40
0.6085000000000258
100
AcDbArc
 50
265.8870457088
 51
274.1129542912
  0
ARC
  5
D5
330
1F
100
AcDbEntity
  8
0
  6
CONTINUOUS
 62
    94
100
AcDbCircle
 10
-0.0407745021
 20
-0.5670358807
 30
0.0
 40
0.0400000000000012
100
AcDbArc
 50
211.1697713751
 51
265.8870457088
  0
ARC
  5
D6
330
1F
100
AcDbEntity
  8
0
  6
CONTINUOUS
 62
    94
100
AcDbCircle
 10
-0.0784225498
 20
-0.5898092096
 30
0.0
 40
0.0039999999999994
100
AcDbArc
 50
31.1697713751
 51
82.42622961810001
  0
ARC
  5
D7
330
1F
100
AcDbEntity
  8
0
  6
CONTINUOUS
 62
    94
100
AcDbCircle
 10
0.0
 20
0.0
 30
0.0
 40
0.5909999999999246
100
AcDbArc
 50
255.0737703819
 51
262.4262296181
  0
ARC
  5
D8
330
1F
100
AcDbEntity
  8
0
  6
CONTINUOUS
 62
    94
100
AcDbCircle
 10
-0.1532572241
 20
-0.5749236673
 30
0.0
 40
0.0039999999999989
100
AcDbArc
 50
75.07377038189999
 51
126.3302286249
  0
ARC
  5
D9
330
1F
100
AcDbEntity
  8
0
  6
CONTINUOUS
 62
    94
100
AcDbCircle
 10
-0.1793245091
 20
-0.5394765708
 30
0.0
 40
0.0400000000000003
100
AcDbArc
 50
251.6129542912
 51
306.3302286249
  0
ARC
  5
DA
330
1F
100
AcDbEntity
  8
0
  6
CONTINUOUS
 62
    94
100
AcDbCircle
 10
0.0
 20
0.0
 30
0.0
 40
0.6084999999999977
100
AcDbArc
 50
243.3870457088
 51
251.6129542912
  0
ARC
  5
DB
330
1F
100
AcDbEntity
  8
0
  6
CONTINUOUS
 62
    94
100
AcDbCircle
 10
-0.2546659651
 20
-0.5082691179
 30
0.0
 40
0.0400000000000015
100
AcDbArc
 50
188.6697713751
 51
243.3870457088
  0
ARC
  5
DC
330
1F
100
AcDbEntity
  8
0
  6
CONTINUOUS
 62
    94
100
AcDbCircle
 10
-0.2981632014
 20
-0.5149016463
 30
0.0
 40
0.0039999999999994
100
AcDbArc
 50
8.6697713751
 51
59.9262296181
  0
ARC
  5
DD
330
1F
100
AcDbEntity
  8
0
  6
CONTINUOUS
 62
    94
100
AcDbCircle
 10
0.0
 20
0.0
 30
0.0
 40
0.5909999999998785
100
AcDbArc
 50
232.5737703819
 51
239.9262296181
  0
ARC
  5
DE
330
1F
100
AcDbEntity
  8
0
  6
CONTINUOUS
 62
    94
100
AcDbCircle
 10
-0.3616049749
 20
-0.4725112084
 30
0.0
 40
0.0039999999999982
100
AcDbArc
 50
52.5737703819
 51
103.8302286249
  0
ARC
  5
DF
330
1F
100
AcDbEntity
  8
0
  6
CONTINUOUS
 62
    94
100
AcDbCircle
 10
-0.3721229894
 20
-0.4297868434
 30
0.0
 40
0.0399999999999996
100
AcDbArc
 50
229.1129542912
 51
283.8302286249
  0
ARC
  5
E0
330
1F
100
AcDbEntity
  8
0
  6
CONTINUOUS
 62
    94
100
AcDbCircle
 10
0.0
 20
0.0
 30
0.0
 40
0.6084999999999707
100
AcDbArc
 50
220.8870457088
 51
229.1129542912
  0
ARC
  5
E1
330
1F
100
AcDbEntity
  8
0
  6
CONTINUOUS
 62
    94
100
AcDbCircle
 10
-0.4297868434
 20
-0.3721229894
 30
0.0
 40
0.0400000000000015
100
AcDbArc
 50
166.1697713751
 51
220.8870457088
  0
ARC
  5
E2
330
1F
100
AcDbEntity
  8
0
  6
CONTINUOUS
 62
    94
100
AcDbCircle
 10
-0.4725112084
 20
-0.3616049749
 30
0.0
 40
0.0039999999999998
100
AcDbArc
 50
346.1697713751
 51
37.4262296181
  0
ARC
  5
E3
330
1F
100
AcDbEntity
  8
0
  6
CONTINUOUS
 62
    94
100
AcDbCircle
 10
0.0
 20
0.0
 30
0.0
 40
0.5909999999998886
100
AcDbArc
 50
210.0737703819
 51
217.4262296181
  0
ARC
  5
E4
330
1F
100
AcDbEntity
  8
0
  6
CONTINUOUS
 62
    94
100
AcDbCircle
 10
-0.5149016463
 20
-0.2981632014
 30
0.0
 40
0.0039999999999986
100
AcDbArc
 50
30.0737703819
 51
81.3302286249
  0
ARC
  5
E5
330
1F
100
AcDbEntity
  8
0
  6
CONTINUOUS
 62
    94
100
AcDbCircle
 10
-0.5082691179
 20
-0.2546659651
 30
0.0
 40
0.04
100
AcDbArc
 50
206.6129542912
 51
261.3302286249
  0
ARC
  5
E6
330
1F
100
AcDbEntity
  8
0
  6
CONTINUOUS
 62
    94
100
AcDbCircle
 10
0.0
 20
0.0
 30
0.0
 40
0.6084999999999919
100
AcDbArc
 50
198.3870457088
 51
206.6129542912
  0
ARC
  5
E7
330
1F
100
AcDbEntity
  8
0
  6
CONTINUOUS
 62
    94
100
AcDbCircle
 10
-0.5394765708
 20
-0.1793245091
 30
0.0
 40
0.040000000000001
100
AcDbArc
 50
143.6697713751
 51
198.3870457088
  0
ARC
  5
E8
330
1F
100
AcDbEntity
  8
0
  6
CONTINUOUS
 62
    94
100
AcDbCircle
 10
-0.5749236673
 20
-0.1532572241
 30
0.0
 40
0.003999999999999
100
AcDbArc
 50
323.6697713751
 51
14.9262296181
  0
ARC
  5
E9
330
1F
100
AcDbEntity
  8
0
  6
CONTINUOUS
 62
    94
100
AcDbCircle
 10
0.0
 20
0.0
 30
0.0
 40
0.5909999999999139
100
AcDbArc
 50
187.5737703819
 51
194.9262296181
  0
ARC
  5
EA
330
1F
100
AcDbEntity
  8
0
  6
CONTINUOUS
 62
    94
100
AcDbCircle
 10
-0.5898092096
 20
-0.0784225498
 30
0.0
 40
0.0039999999999988
100
AcDbArc
 50
7.573770381900001
 51
58.83022862490001
  0
ARC
  5
EB
330
1F
100
AcDbEntity
  8
0
  6
CONTINUOUS
 62
    94
100
AcDbCircle
 10
-0.5670358807
 20
-0.0407745021
 30
0.0
 40
0.0400000000000001
100
AcDbArc
 50
184.1129542912
 51
238.8302286249
  0
ARC
  5
EC
330
1F
100
AcDbEntity
  8
0
  6
CONTINUOUS
 62
    94
100
AcDbCircle
 10
0.0
 20
0.0
 30
0.0
 40
0.608499999999956
100
AcDbArc
 50
175.8870457088
 51
184.1129542912
  0
ARC
  5
ED
330
1F
100
AcDbEntity
  8
0
  6
CONTINUOUS
 62
    94
100
AcDbCircle
 10
-0.5670358807
 20
0.0407745021
 30
0.0
 40
0.0400000000000011
100
AcDbArc
 50
121.1697713751
 51
175.8870457088
  0
ARC
  5
EE
330
1F
100
AcDbEntity
  8
0
  6
CONTINUOUS
 62
    94
100
AcDbCircle
 10
-0.5898092096
 20
0.0784225498
 30
0.0
 40
0.0040000000000003
100
AcDbArc
 50
301.1697713751
 51
352.4262296181001
  0
ARC
  5
EF
330
1F
100
AcDbEntity
  8
0
  6
CONTINUOUS
 62
    94
100
AcDbCircle
 10
0.0
 20
0.0
 30
0.0
 40
0.5909999999999344
100
AcDbArc
 50
165.0737703819
 51
172.4262296181
  0
ARC
  5
F0
330
1F
100
AcDbEntity
  8
0
  6
CONTINUOUS
 62
    94
100
AcDbCircle
 10
-0.5749236673
 20
0.1532572241
 30
0.0
 40
0.0039999999999998
100
AcDbArc
 50
345.0737703819
 51
36.33022862489999
  0
ARC
  5
F1
330
1F
100
AcDbEntity
  8
0
  6
CONTINUOUS
 62
    94
100
AcDbCircle
 10
-0.5394765708
 20
0.1793245091
 30
0.0
 40
0.0399999999999998
100
AcDbArc
 50
161.6129542912
 51
216.3302286249
  0
ARC
  5
F2
330
1F
100
AcDbEntity
  8
0
  6
CONTINUOUS
 62
    94
100
AcDbCircle
 10
0.0
 20
0.0
 30
0.0
 40
0.6084999999999494
100
AcDbArc
 50
153.3870457088
 51
161.6129542912
  0
ARC
  5
F3
330
1F
100
AcDbEntity
  8
0
  6
CONTINUOUS
 62
    94
100
AcDbCircle
 10
-0.5082691179
 20
0.2546659651
 30
0.0
 40
0.0400000000000017
100
AcDbArc
 50
98.66977137510001
 51
153.3870457088
  0
ARC
  5
F4
330
1F
100
AcDbEntity
  8
0
  6
CONTINUOUS
 62
    94
100
AcDbCircle
 10
-0.5149016463
 20
0.2981632014
 30
0.0
 40
0.0039999999999996
100
AcDbArc
 50
278.6697713751
 51
329.9262296181
  0
ARC
  5
F5
330
1F
100
AcDbEntity
  8
0
  6
CONTINUOUS
 62
    94
100
AcDbCircle
 10
0.0
 20
0.0
 30
0.0
 40
0.5909999999999483
100
AcDbArc
 50
142.5737703819
 51
149.9262296181
  0
ARC
  5
F6
330
1F
100
AcDbEntity
  8
0
  6
CONTINUOUS
 62
    94
100
AcDbCircle
 10
-0.4725112084
 20
0.3616049749
 30
0.0
 40
0.0039999999999991
100
AcDbArc
 50
322.5737703819
 51
13.8302286249
  0
ARC
  5
F7
330
1F
100
AcDbEntity
  8
0
  6
CONTINUOUS
 62
    94
100
AcDbCircle
 10
-0.4297868434
 20
0.3721229894
 30
0.0
 40
0.0399999999999999
100
AcDbArc
 50
139.1129542912
 51
193.8302286249
  0
ARC
  5
F8
330
1F
100
AcDbEntity
  8
0
  6
CONTINUOUS
 62
    94
100
AcDbCircle
 10
0.0
 20
0.0
 30
0.0
 40
0.6084999999999852
100
AcDbArc
 50
130.8870457088
 51
139.1129542912
  0
ARC
  5
F9
330
1F
100
AcDbEntity
  8
0
  6
CONTINUOUS
 62
    94
100
AcDbCircle
 10
-0.3721229894
 20
0.4297868434
 30
0.0
 40
0.0400000000000018
100
AcDbArc
 50
76.1697713751
 51
130.8870457088
  0
ARC
  5
FA
330
1F
100
AcDbEntity
  8
0
  6
CONTINUOUS
 62
    94
100
AcDbCircle
 10
-0.3616049749
 20
0.4725112084
 30
0.0
 40
0.0039999999999993
100
AcDbArc
 50
256.1697713751
 51
307.4262296181
  0
ARC
  5
FB
330
1F
100
AcDbEntity
  8
0
  6
CONTINUOUS
 62
    94
100
AcDbCircle
 10
0.0
 20
0.0
 30
0.0
 40
0.5909999999999125
100
AcDbArc
 50
120.0737703819
 51
127.4262296181
  0
ARC
  5
FC
330
1F
100
AcDbEntity
  8
0
  6
CONTINUOUS
 62
    94
100
AcDbCircle
 10
-0.2981632014
 20
0.5149016463
 30
0.0
 40
0.0039999999999988
100
AcDbArc
 50
300.0737703819
 51
351.3302286249
  0
ARC
  5
FD
330
1F
100
AcDbEntity
  8
0
  6
CONTINUOUS
 62
    94
100
AcDbCircle
 10
-0.2546659651
 20
0.5082691179
 30
0.0
 40
0.0400000000000001
100
AcDbArc
 50
116.6129542912
 51
171.3302286249
  0
ARC
  5
FE
330
1F
100
AcDbEntity
  8
0
  6
CONTINUOUS
 62
    94
100
AcDbCircle
 10
0.0
 20
0.0
 30
0.0
 40
0.6084999999999745
100
AcDbArc
 50
108.3870457088
 51
116.6129542912
  0
ARC
  5
FF
330
1F
100
AcDbEntity
  8
0
  6
CONTINUOUS
 62
    94
100
AcDbCircle
 10
-0.1793245091
 20
0.5394765708
 30
0.0
 40
0.040000000000002
100
AcDbArc
 50
53.66977137509999
 51
108.3870457088
  0
ARC
  5
100
330
1F
100
AcDbEntity
  8
0
  6
CONTINUOUS
 62
    94
100
AcDbCircle
 10
-0.1532572241
 20
0.5749236673
 30
0.0
 40
0.0039999999999999
100
AcDbArc
 50
233.6697713751
 51
284.9262296181
  0
ARC
  5
101
330
1F
100
AcDbEntity
  8
0
  6
CONTINUOUS
 62
    94
100
AcDbCircle
 10
0.0
 20
0.0
 30
0.0
 40
0.5909999999999127
100
AcDbArc
 50
97.5737703819
 51
104.9262296181
  0
ARC
  5
102
330
1F
100
AcDbEntity
  8
0
  6
CONTINUOUS
 62
    94
100
AcDbCircle
 10
-0.0784225498
 20
0.5898092096
 30
0.0
 40
0.0039999999999983
100
AcDbArc
 50
277.5737703819
 51
328.8302286249
  0
ARC
  5
103
330
1F
100
AcDbEntity
  8
0
  6
CONTINUOUS
 62
    94
100
AcDbCircle
 10
-0.0407745021
 20
0.5670358807
 30
0.0
 40
0.0399999999999993
100
AcDbArc
 50
94.1129542912
 51
148.8302286249
  0
ENDSEC
  0
SECTION
  2
OBJECTS
  0
DICTIONARY
  5
C
330
0
100
AcDbDictionary
  3
ACAD_GROUP
350
D
  3
ACAD_IMAGE_VARS
350
149
  3
ACAD_MLINESTYLE
350
17
  3
ACAD_SCALELIST
350
104
  3
APPDATA
350
147
  3
DWGPROPS
350
16D
  0
DICTIONARY
  5
D
102
{ACAD_REACTORS
330
C
102
}
330
C
100
AcDbDictionary
  0
RASTERVARIABLES
  5
149
102
{ACAD_REACTORS
330
C
102
}
330
C
100
AcDbRasterVariables
 90
        0
 70
     1
 71
     1
 72
     5
  0
DICTIONARY
  5
17
102
{ACAD_REACTORS
330
C
102
}
330
C
100
AcDbDictionary
  3
STANDARD
350
18
  0
DICTIONARY
  5
104
102
{ACAD_REACTORS
330
C
102
}
330
C
100
AcDbDictionary
  0
DICTIONARY
  5
147
102
{ACAD_REACTORS
330
C
102
}
330
C
100
AcDbDictionary
  0
XRECORD
  5
16D
102
{ACAD_REACTORS
330
C
102
}
330
C
100
AcDbXrecord
  1
DWGPROPS COOKIE
  2

  3

  4

  6

  7

  8
NickC
  9

300
=
301
=
302
=
303
=
304
=
305
=
306
=
307
=
308
=
309
=
 40
0.0
 41
2458576.856070695
 42
2458578.90714978
  1

 90
        0
  0
MLINESTYLE
  5
18
102
{ACAD_REACTORS
330
17
102
}
330
17
100
AcDbMlineStyle
  2
Standard
 70
     0
  3

 62
   256
 51
90.0
 52
90.0
 71
     2
 49
0.5
 62
   256
  6
BYLAYER
 49
-0.5
 62
   256
  6
BYLAYER
  0
ENDSEC
  0
EOF
