  0
SECTION
  2
HEADER
  9
$ACADVER
  1
AC1014
  9
$ACADMAINTVER
 70
     9
  9
$DWGCODEPAGE
  3
ANSI_1252
  9
$INSBASE
 10
0.0
 20
0.0
 30
0.0
  9
$EXTMIN
 10
-0.2545000000000002
 20
-0.2544999999999997
 30
0.0
  9
$EXTMAX
 10
0.2544999999999993
 20
0.2544999999999996
 30
0.0
  9
$LIMMIN
 10
0.0
 20
0.0
  9
$LIMMAX
 10
12.0
 20
9.0
  9
$ORTHOMODE
 70
     0
  9
$REGENMODE
 70
     1
  9
$FILLMODE
 70
     1
  9
$QTEXTMODE
 70
     0
  9
$MIRRTEXT
 70
     0
  9
$DRAGMODE
 70
     2
  9
$LTSCALE
 40
1.0
  9
$OSMODE
 70
 13311
  9
$ATTMODE
 70
     1
  9
$TEXTSIZE
 40
0.01
  9
$TRACEWID
 40
0.05
  9
$TEXTSTYLE
  7
STANDARD
  9
$CLAYER
  8
LAYER1
  9
$CELTYPE
  6
BYLAYER
  9
$CECOLOR
 62
     6
  9
$CELTSCALE
 40
1.0
  9
$DELOBJ
 70
     1
  9
$DISPSILH
 70
     0
  9
$DIMSCALE
 40
0.05
  9
$DIMASZ
 40
0.18
  9
$DIMEXO
 40
0.0625
  9
$DIMDLI
 40
0.38
  9
$DIMRND
 40
0.0
  9
$DIMDLE
 40
0.0
  9
$DIMEXE
 40
0.18
  9
$DIMTP
 40
0.0
  9
$DIMTM
 40
0.0
  9
$DIMTXT
 40
0.18
  9
$DIMCEN
 40
0.09
  9
$DIMTSZ
 40
0.0
  9
$DIMTOL
 70
     0
  9
$DIMLIM
 70
     0
  9
$DIMTIH
 70
     1
  9
$DIMTOH
 70
     1
  9
$DIMSE1
 70
     0
  9
$DIMSE2
 70
     0
  9
$DIMTAD
 70
     0
  9
$DIMZIN
 70
     0
  9
$DIMBLK
  1

  9
$DIMASO
 70
     1
  9
$DIMSHO
 70
     1
  9
$DIMPOST
  1

  9
$DIMAPOST
  1

  9
$DIMALT
 70
     0
  9
$DIMALTD
 70
     2
  9
$DIMALTF
 40
25.4
  9
$DIMLFAC
 40
1.0
  9
$DIMTOFL
 70
     0
  9
$DIMTVP
 40
0.0
  9
$DIMTIX
 70
     0
  9
$DIMSOXD
 70
     0
  9
$DIMSAH
 70
     0
  9
$DIMBLK1
  1

  9
$DIMBLK2
  1

  9
$DIMSTYLE
  2
STANDARD
  9
$DIMCLRD
 70
     0
  9
$DIMCLRE
 70
     0
  9
$DIMCLRT
 70
     0
  9
$DIMTFAC
 40
1.0
  9
$DIMGAP
 40
0.09
  9
$DIMJUST
 70
     0
  9
$DIMSD1
 70
     0
  9
$DIMSD2
 70
     0
  9
$DIMTOLJ
 70
     1
  9
$DIMTZIN
 70
     0
  9
$DIMALTZ
 70
     0
  9
$DIMALTTZ
 70
     0
  9
$DIMFIT
 70
     5
  9
$DIMUPT
 70
     0
  9
$DIMUNIT
 70
     2
  9
$DIMDEC
 70
     4
  9
$DIMTDEC
 70
     4
  9
$DIMALTU
 70
     2
  9
$DIMALTTD
 70
     2
  9
$DIMTXSTY
  7
STANDARD
  9
$DIMAUNIT
 70
     0
  9
$LUNITS
 70
     2
  9
$LUPREC
 70
     4
  9
$SKETCHINC
 40
0.1
  9
$FILLETRAD
 40
0.0
  9
$AUNITS
 70
     0
  9
$AUPREC
 70
     0
  9
$MENU
  1
.
  9
$ELEVATION
 40
0.0
  9
$PELEVATION
 40
0.0
  9
$THICKNESS
 40
0.0
  9
$LIMCHECK
 70
     0
  9
$CHAMFERA
 40
0.0
  9
$CHAMFERB
 40
0.0
  9
$CHAMFERC
 40
0.0
  9
$CHAMFERD
 40
0.0
  9
$SKPOLY
 70
     0
  9
$TDCREATE
 40
2452642.771717593
  9
$TDUPDATE
 40
2458579.413836285
  9
$TDINDWG
 40
7.7188527315
  9
$TDUSRTIMER
 40
2458579.705178217
  9
$USRTIMER
 70
     1
  9
$ANGBASE
 50
0.0
  9
$ANGDIR
 70
     0
  9
$PDMODE
 70
     0
  9
$PDSIZE
 40
0.0
  9
$PLINEWID
 40
0.0
  9
$COORDS
 70
     1
  9
$SPLFRAME
 70
     0
  9
$SPLINETYPE
 70
     6
  9
$SPLINESEGS
 70
     8
  9
$ATTDIA
 70
     0
  9
$ATTREQ
 70
     1
  9
$HANDLING
 70
     1
  9
$HANDSEED
  5
102BD5
  9
$SURFTAB1
 70
     6
  9
$SURFTAB2
 70
     6
  9
$SURFTYPE
 70
     6
  9
$SURFU
 70
     6
  9
$SURFV
 70
     6
  9
$UCSNAME
  2

  9
$UCSORG
 10
0.0
 20
0.0
 30
0.0
  9
$UCSXDIR
 10
1.0
 20
0.0
 30
0.0
  9
$UCSYDIR
 10
0.0
 20
1.0
 30
0.0
  9
$PUCSNAME
  2

  9
$PUCSORG
 10
0.0
 20
0.0
 30
0.0
  9
$PUCSXDIR
 10
1.0
 20
0.0
 30
0.0
  9
$PUCSYDIR
 10
0.0
 20
1.0
 30
0.0
  9
$USERI1
 70
     0
  9
$USERI2
 70
     0
  9
$USERI3
 70
     0
  9
$USERI4
 70
     0
  9
$USERI5
 70
     0
  9
$USERR1
 40
0.0
  9
$USERR2
 40
0.0
  9
$USERR3
 40
0.0
  9
$USERR4
 40
0.0
  9
$USERR5
 40
0.0
  9
$WORLDVIEW
 70
     1
  9
$SHADEDGE
 70
     3
  9
$SHADEDIF
 70
    70
  9
$TILEMODE
 70
     1
  9
$MAXACTVP
 70
    64
  9
$PINSBASE
 10
0.0
 20
0.0
 30
0.0
  9
$PLIMCHECK
 70
     0
  9
$PEXTMIN
 10
0.0
 20
0.0
 30
0.0
  9
$PEXTMAX
 10
0.0
 20
0.0
 30
0.0
  9
$PLIMMIN
 10
0.0
 20
0.0
  9
$PLIMMAX
 10
0.0
 20
0.0
  9
$UNITMODE
 70
     0
  9
$VISRETAIN
 70
     1
  9
$PLINEGEN
 70
     0
  9
$PSLTSCALE
 70
     1
  9
$TREEDEPTH
 70
  3020
  9
$PICKSTYLE
 70
     0
  9
$CMLSTYLE
  2
STANDARD
  9
$CMLJUST
 70
     0
  9
$CMLSCALE
 40
1.0
  9
$PROXYGRAPHICS
 70
     1
  9
$MEASUREMENT
 70
     0
  0
ENDSEC
  0
SECTION
  2
CLASSES
  0
CLASS
  1
ACDBDICTIONARYWDFLT
  2
AcDbDictionaryWithDefault
  3
ObjectDBX Classes
 90
        0
280
     0
281
     0
  0
CLASS
  1
ACDBPLACEHOLDER
  2
AcDbPlaceHolder
  3
ObjectDBX Classes
 90
        0
280
     0
281
     0
  0
CLASS
  1
LAYOUT
  2
AcDbLayout
  3
ObjectDBX Classes
 90
        0
280
     0
281
     0
  0
CLASS
  1
DICTIONARYVAR
  2
AcDbDictionaryVar
  3
ObjectDBX Classes
 90
        0
280
     0
281
     0
  0
CLASS
  1
TABLESTYLE
  2
AcDbTableStyle
  3
ObjectDBX Classes
 90
     4095
280
     0
281
     0
  0
CLASS
  1
MATERIAL
  2
AcDbMaterial
  3
ObjectDBX Classes
 90
     1153
280
     0
281
     0
  0
CLASS
  1
VISUALSTYLE
  2
AcDbVisualStyle
  3
ObjectDBX Classes
 90
     4095
280
     0
281
     0
  0
CLASS
  1
SCALE
  2
AcDbScale
  3
ObjectDBX Classes
 90
     1153
280
     0
281
     0
  0
CLASS
  1
CELLSTYLEMAP
  2
AcDbCellStyleMap
  3
ObjectDBX Classes
 90
     1152
280
     0
281
     0
  0
CLASS
  1
RASTERVARIABLES
  2
AcDbRasterVariables
  3
ISM
 90
        0
280
     0
281
     0
  0
CLASS
  1
DIMASSOC
  2
AcDbDimAssoc
  3
"AcDbDimAssoc|Product Desc:     AcDim ARX App For Dimension|Company:          Autodesk, Inc.|WEB Address:      www.autodesk.com"
 90
        0
280
     0
281
     0
  0
CLASS
  1
IMAGEDEF
  2
AcDbRasterImageDef
  3
ISM
 90
        0
280
     0
281
     0
  0
CLASS
  1
IMAGE
  2
AcDbRasterImage
  3
ISM
 90
      127
280
     0
281
     1
  0
CLASS
  1
IMAGEDEF_REACTOR
  2
AcDbRasterImageDefReactor
  3
ISM
 90
        1
280
     0
281
     0
  0
CLASS
  1
SORTENTSTABLE
  2
AcDbSortentsTable
  3
ObjectDBX Classes
 90
        0
280
     0
281
     0
  0
CLASS
  1
SUN
  2
AcDbSun
  3
SCENEOE
 90
     1153
280
     0
281
     0
  0
CLASS
  1
MLEADERSTYLE
  2
AcDbMLeaderStyle
  3
ACDB_MLEADERSTYLE_CLASS
 90
     4095
280
     0
281
     0
  0
CLASS
  1
XRECORD
  2
AcDbXrecord
  3
ObjectDBX Classes
 90
        0
280
     0
281
     0
  0
CLASS
  1
LWPOLYLINE
  2
AcDbPolyline
  3
ObjectDBX Classes
 90
        0
280
     0
281
     1
  0
CLASS
  1
HATCH
  2
AcDbHatch
  3
ObjectDBX Classes
 90
        0
280
     0
281
     1
  0
ENDSEC
  0
SECTION
  2
TABLES
  0
TABLE
  2
VPORT
  5
8
330
0
100
AcDbSymbolTable
 70
     1
  0
VPORT
  5
94
330
8
100
AcDbSymbolTableRecord
100
AcDbViewportTableRecord
  2
*ACTIVE
 70
     0
 10
0.0
 20
0.0
 11
1.0
 21
1.0
 12
-0.0481420135683654
 22
-0.0900064109119702
 13
0.0
 23
0.0
 14
0.5
 24
0.5
 15
0.5
 25
0.5
 16
0.0
 26
0.0
 36
1.0
 17
0.0
 27
0.0
 37
0.0
 40
1.071675162558243
 41
1.727785613540197
 42
50.0
 43
0.0
 44
0.0
 50
0.0
 51
0.0
 71
    16
 72
  1000
 73
     1
 74
     3
 75
     0
 76
     0
 77
     0
 78
     0
  0
ENDTAB
  0
TABLE
  2
LTYPE
  5
5
330
0
100
AcDbSymbolTable
 70
     1
  0
LTYPE
  5
14
330
5
100
AcDbSymbolTableRecord
100
AcDbLinetypeTableRecord
  2
BYBLOCK
 70
     0
  3

 72
    65
 73
     0
 40
0.0
  0
LTYPE
  5
15
330
5
100
AcDbSymbolTableRecord
100
AcDbLinetypeTableRecord
  2
BYLAYER
 70
     0
  3

 72
    65
 73
     0
 40
0.0
  0
LTYPE
  5
16
330
5
100
AcDbSymbolTableRecord
100
AcDbLinetypeTableRecord
  2
CONTINUOUS
 70
     0
  3
Solid line
 72
    65
 73
     0
 40
0.0
  0
ENDTAB
  0
TABLE
  2
LAYER
  5
2
102
{ACAD_XDICTIONARY
360
102A56
102
}
330
0
100
AcDbSymbolTable
 70
     2
  0
LAYER
  5
10
330
2
100
AcDbSymbolTableRecord
100
AcDbLayerTableRecord
  2
0
 70
     0
 62
    -7
  6
CONTINUOUS
  0
LAYER
  5
102A59
330
2
100
AcDbSymbolTableRecord
100
AcDbLayerTableRecord
  2
LAYER1
 70
     0
 62
     5
  6
CONTINUOUS
1001
ACAECLAYERSTANDARD
1000

1000

  0
ENDTAB
  0
TABLE
  2
STYLE
  5
3
330
0
100
AcDbSymbolTable
 70
     1
  0
STYLE
  5
11
330
3
100
AcDbSymbolTableRecord
100
AcDbTextStyleTableRecord
  2
STANDARD
 70
     0
 40
0.0
 41
1.0
 50
0.0
 71
     0
 42
0.01
  3
txt
  4

  0
ENDTAB
  0
TABLE
  2
VIEW
  5
6
330
0
100
AcDbSymbolTable
 70
     0
  0
ENDTAB
  0
TABLE
  2
UCS
  5
7
330
0
100
AcDbSymbolTable
 70
     0
  0
ENDTAB
  0
TABLE
  2
APPID
  5
9
330
0
100
AcDbSymbolTable
 70
     4
  0
APPID
  5
12
330
9
100
AcDbSymbolTableRecord
100
AcDbRegAppTableRecord
  2
ACAD
 70
     0
  0
APPID
  5
10A
330
9
100
AcDbSymbolTableRecord
100
AcDbRegAppTableRecord
  2
ACAD_DSTYLE_DIMRADIAL_EXTE
 70
     0
  0
APPID
  5
DA2
330
9
100
AcDbSymbolTableRecord
100
AcDbRegAppTableRecord
  2
ACAECLAYERSTANDARD
 70
     0
  0
APPID
  5
DA3
330
9
100
AcDbSymbolTableRecord
100
AcDbRegAppTableRecord
  2
ACCMTRANSPARENCY
 70
     0
  0
ENDTAB
  0
TABLE
  2
DIMSTYLE
  5
A
330
0
100
AcDbSymbolTable
 70
     1
  0
DIMSTYLE
105
27
330
A
100
AcDbSymbolTableRecord
100
AcDbDimStyleTableRecord
  2
STANDARD
 70
     0
  3

  4

  5

  6

  7

 40
0.05
 41
0.18
 42
0.0625
 43
0.38
 44
0.18
 45
0.0
 46
0.0
 47
0.0
 48
0.0
140
0.18
141
0.09
142
0.0
143
25.4
144
1.0
145
0.0
146
1.0
147
0.09
 71
     0
 72
     0
 73
     1
 74
     1
 75
     0
 76
     0
 77
     0
 78
     0
170
     0
171
     2
172
     0
173
     0
174
     0
175
     0
176
     0
177
     0
178
     0
270
     2
271
     4
272
     4
273
     2
274
     2
340
11
275
     0
280
     0
281
     0
282
     0
283
     1
284
     0
285
     0
286
     0
287
     3
288
     0
  0
ENDTAB
  0
TABLE
  2
BLOCK_RECORD
  5
1
330
0
100
AcDbSymbolTable
 70
     0
  0
BLOCK_RECORD
  5
1F
102
{ACAD_XDICTIONARY
360
132
102
}
330
1
100
AcDbSymbolTableRecord
100
AcDbBlockTableRecord
  2
*MODEL_SPACE
  0
BLOCK_RECORD
  5
58
330
1
100
AcDbSymbolTableRecord
100
AcDbBlockTableRecord
  2
*PAPER_SPACE
  0
ENDTAB
  0
ENDSEC
  0
SECTION
  2
BLOCKS
  0
BLOCK
  5
20
330
1F
100
AcDbEntity
  8
0
100
AcDbBlockBegin
  2
*MODEL_SPACE
 70
     0
 10
0.0
 20
0.0
 30
0.0
  3
*MODEL_SPACE
  1

  0
ENDBLK
  5
21
330
1F
100
AcDbEntity
  8
0
100
AcDbBlockEnd
  0
BLOCK
  5
5A
330
58
100
AcDbEntity
 67
     1
  8
0
100
AcDbBlockBegin
  2
*PAPER_SPACE
 70
     0
 10
0.0
 20
0.0
 30
0.0
  3
*PAPER_SPACE
  1

  0
ENDBLK
  5
5B
330
58
100
AcDbEntity
 67
     1
  8
0
100
AcDbBlockEnd
  0
ENDSEC
  0
SECTION
  2
ENTITIES
  0
ARC
  5
4AA2
330
1F
100
AcDbEntity
  8
LAYER1
100
AcDbCircle
 10
-0.0000000000000001
 20
-0.0000000000000005
 30
0.0
 40
0.2544999999999993
100
AcDbArc
 50
299.6196217864012
 51
330.3803782135988
  0
LINE
  5
4AA5
330
1F
100
AcDbEntity
  8
LAYER1
100
AcDbLine
 10
0.1257839804907504
 20
-0.2212433959509354
 30
0.0
 11
0.1219307067748817
 21
-0.2173901222350678
 31
0.0
  0
ARC
  5
92368
330
1F
100
AcDbEntity
  8
LAYER1
100
AcDbCircle
 10
0.0000000000000045
 20
-0.0000000000000139
 30
0.0
 40
0.2492499999999854
100
AcDbArc
 50
285.7126173148633
 51
299.2873826851372
  0
LINE
  5
92369
330
1F
100
AcDbEntity
  8
LAYER1
100
AcDbLine
 10
0.2212433959509349
 20
-0.1257839804907509
 30
0.0
 11
0.2173901222350673
 21
-0.1219307067748821
 31
0.0
  0
ARC
  5
92460
330
1F
100
AcDbEntity
  8
LAYER1
100
AcDbCircle
 10
0.0000000000000127
 20
-0.0000000000000064
 30
0.0
 40
0.2492499999999854
100
AcDbArc
 50
330.7126173148632
 51
344.2873826851371
  0
ARC
  5
102A65
330
1F
100
AcDbEntity
  8
LAYER1
100
AcDbCircle
 10
0.0
 20
-0.0000000000000002
 30
0.0
 40
0.2544999999999993
100
AcDbArc
 50
344.6196217864012
 51
15.38037821359882
  0
LINE
  5
102A66
330
1F
100
AcDbEntity
  8
LAYER1
100
AcDbLine
 10
0.2453854111392926
 20
-0.0675000000000005
 30
0.0
 11
0.239936059190776
 21
-0.0675000000000014
 31
0.0
  0
ARC
  5
102A67
330
1F
100
AcDbEntity
  8
LAYER1
100
AcDbCircle
 10
0.0000000000000127
 20
-0.0000000000000064
 30
0.0
 40
0.2492499999999854
100
AcDbArc
 50
330.7126173148632
 51
344.2873826851371
  0
LINE
  5
102A68
330
1F
100
AcDbEntity
  8
LAYER1
100
AcDbLine
 10
0.2453854111392926
 20
0.0675000000000004
 30
0.0
 11
0.239936059190776
 21
0.0675000000000012
 31
0.0
  0
ARC
  5
102A69
330
1F
100
AcDbEntity
  8
LAYER1
100
AcDbCircle
 10
0.0000000000000134
 20
0.0000000000000048
 30
0.0
 40
0.2492499999999854
100
AcDbArc
 50
15.7126173148632
 51
29.28738268513706
  0
ARC
  5
102A6A
330
1F
100
AcDbEntity
  8
LAYER1
100
AcDbCircle
 10
0.0
 20
0.0000000000000002
 30
0.0
 40
0.2544999999999993
100
AcDbArc
 50
29.61962178640114
 51
60.38037821359891
  0
LINE
  5
102A6B
330
1F
100
AcDbEntity
  8
LAYER1
100
AcDbLine
 10
0.2212433959509349
 20
0.1257839804907507
 30
0.0
 11
0.2173901222350673
 21
0.121930706774882
 31
0.0
  0
ARC
  5
102A6C
330
1F
100
AcDbEntity
  8
LAYER1
100
AcDbCircle
 10
0.0000000000000134
 20
0.0000000000000048
 30
0.0
 40
0.2492499999999854
100
AcDbArc
 50
15.7126173148632
 51
29.28738268513706
  0
LINE
  5
102A6D
330
1F
100
AcDbEntity
  8
LAYER1
100
AcDbLine
 10
0.1257839804907504
 20
0.2212433959509352
 30
0.0
 11
0.1219307067748816
 21
0.2173901222350675
 31
0.0
  0
ARC
  5
102A6E
330
1F
100
AcDbEntity
  8
LAYER1
100
AcDbCircle
 10
0.000000000000006
 20
0.0000000000000131
 30
0.0
 40
0.2492499999999854
100
AcDbArc
 50
60.71261731486328
 51
74.28738268513713
  0
ARC
  5
102A6F
330
1F
100
AcDbEntity
  8
LAYER1
100
AcDbCircle
 10
-0.0000000000000002
 20
0.0000000000000003
 30
0.0
 40
0.2544999999999993
100
AcDbArc
 50
74.61962178640108
 51
105.3803782135989
  0
LINE
  5
102A70
330
1F
100
AcDbEntity
  8
LAYER1
100
AcDbLine
 10
0.0675
 20
0.2453854111392929
 30
0.0
 11
0.0675000000000009
 21
0.2399360591907763
 31
0.0
  0
ARC
  5
102A71
330
1F
100
AcDbEntity
  8
LAYER1
100
AcDbCircle
 10
0.000000000000006
 20
0.0000000000000131
 30
0.0
 40
0.2492499999999854
100
AcDbArc
 50
60.71261731486328
 51
74.28738268513713
  0
LINE
  5
102A72
330
1F
100
AcDbEntity
  8
LAYER1
100
AcDbLine
 10
-0.0675000000000008
 20
0.2453854111392929
 30
0.0
 11
-0.0675000000000017
 21
0.2399360591907763
 31
0.0
  0
ARC
  5
102A73
330
1F
100
AcDbEntity
  8
LAYER1
100
AcDbCircle
 10
-0.0000000000000052
 20
0.0000000000000137
 30
0.0
 40
0.2492499999999854
100
AcDbArc
 50
105.7126173148633
 51
119.2873826851371
  0
ARC
  5
102A74
330
1F
100
AcDbEntity
  8
LAYER1
100
AcDbCircle
 10
-0.0000000000000007
 20
0.0000000000000003
 30
0.0
 40
0.2544999999999993
100
AcDbArc
 50
119.6196217864011
 51
150.3803782135989
  0
LINE
  5
102A75
330
1F
100
AcDbEntity
  8
LAYER1
100
AcDbLine
 10
-0.1257839804907512
 20
0.2212433959509352
 30
0.0
 11
-0.1219307067748824
 21
0.2173901222350677
 31
0.0
  0
ARC
  5
102A76
330
1F
100
AcDbEntity
  8
LAYER1
100
AcDbCircle
 10
-0.0000000000000052
 20
0.0000000000000137
 30
0.0
 40
0.2492499999999854
100
AcDbArc
 50
105.7126173148633
 51
119.2873826851371
  0
LINE
  5
102A77
330
1F
100
AcDbEntity
  8
LAYER1
100
AcDbLine
 10
-0.2212433959509356
 20
0.1257839804907507
 30
0.0
 11
-0.217390122235068
 21
0.121930706774882
 31
0.0
  0
ARC
  5
102A78
330
1F
100
AcDbEntity
  8
LAYER1
100
AcDbCircle
 10
-0.0000000000000135
 20
0.0000000000000063
 30
0.0
 40
0.2492499999999854
100
AcDbArc
 50
150.7126173148633
 51
164.2873826851371
  0
ARC
  5
102A79
330
1F
100
AcDbEntity
  8
LAYER1
100
AcDbCircle
 10
-0.0000000000000008
 20
0.0000000000000001
 30
0.0
 40
0.2544999999999994
100
AcDbArc
 50
164.6196217864011
 51
195.3803782135989
  0
LINE
  5
102A7A
330
1F
100
AcDbEntity
  8
LAYER1
100
AcDbLine
 10
-0.2453854111392934
 20
0.0675000000000003
 30
0.0
 11
-0.2399360591907768
 21
0.0675000000000012
 31
0.0
  0
ARC
  5
102A7B
330
1F
100
AcDbEntity
  8
LAYER1
100
AcDbCircle
 10
-0.0000000000000135
 20
0.0000000000000063
 30
0.0
 40
0.2492499999999855
100
AcDbArc
 50
150.7126173148633
 51
164.2873826851371
  0
LINE
  5
102A7C
330
1F
100
AcDbEntity
  8
LAYER1
100
AcDbLine
 10
-0.2453854111392934
 20
-0.0675000000000004
 30
0.0
 11
-0.2399360591907768
 21
-0.0675000000000014
 31
0.0
  0
ARC
  5
102A7D
330
1F
100
AcDbEntity
  8
LAYER1
100
AcDbCircle
 10
-0.0000000000000142
 20
-0.0000000000000049
 30
0.0
 40
0.2492499999999855
100
AcDbArc
 50
195.7126173148633
 51
209.2873826851371
  0
ARC
  5
102A7E
330
1F
100
AcDbEntity
  8
LAYER1
100
AcDbCircle
 10
-0.0000000000000008
 20
-0.0000000000000004
 30
0.0
 40
0.2544999999999993
100
AcDbArc
 50
209.6196217864011
 51
240.3803782135988
  0
LINE
  5
102A7F
330
1F
100
AcDbEntity
  8
LAYER1
100
AcDbLine
 10
-0.2212433959509357
 20
-0.1257839804907508
 30
0.0
 11
-0.2173901222350681
 21
-0.121930706774882
 31
0.0
  0
ARC
  5
102A80
330
1F
100
AcDbEntity
  8
LAYER1
100
AcDbCircle
 10
-0.0000000000000142
 20
-0.0000000000000049
 30
0.0
 40
0.2492499999999854
100
AcDbArc
 50
195.7126173148633
 51
209.2873826851371
  0
LINE
  5
102A81
330
1F
100
AcDbEntity
  8
LAYER1
100
AcDbLine
 10
-0.1257839804907512
 20
-0.2212433959509354
 30
0.0
 11
-0.1219307067748824
 21
-0.2173901222350677
 31
0.0
  0
ARC
  5
102A82
330
1F
100
AcDbEntity
  8
LAYER1
100
AcDbCircle
 10
-0.0000000000000067
 20
-0.0000000000000132
 30
0.0
 40
0.2492499999999854
100
AcDbArc
 50
240.7126173148632
 51
254.287382685137
  0
ARC
  5
102A83
330
1F
100
AcDbEntity
  8
LAYER1
100
AcDbCircle
 10
-0.0000000000000005
 20
-0.0000000000000005
 30
0.0
 40
0.2544999999999993
100
AcDbArc
 50
254.6196217864011
 51
285.3803782135988
  0
LINE
  5
102A84
330
1F
100
AcDbEntity
  8
LAYER1
100
AcDbLine
 10
-0.0675000000000007
 20
-0.2453854111392931
 30
0.0
 11
-0.0675000000000017
 21
-0.2399360591907765
 31
0.0
  0
ARC
  5
102A85
330
1F
100
AcDbEntity
  8
LAYER1
100
AcDbCircle
 10
-0.0000000000000067
 20
-0.0000000000000132
 30
0.0
 40
0.2492499999999854
100
AcDbArc
 50
240.7126173148632
 51
254.287382685137
  0
LINE
  5
102A86
330
1F
100
AcDbEntity
  8
LAYER1
100
AcDbLine
 10
0.0675
 20
-0.2453854111392932
 30
0.0
 11
0.0675000000000009
 21
-0.2399360591907765
 31
0.0
  0
ARC
  5
102A87
330
1F
100
AcDbEntity
  8
LAYER1
100
AcDbCircle
 10
0.0000000000000045
 20
-0.0000000000000139
 30
0.0
 40
0.2492499999999854
100
AcDbArc
 50
285.7126173148633
 51
299.2873826851372
  0
VIEWPORT
  5
365E5
330
58
100
AcDbEntity
 67
     1
  8
0
100
AcDbViewport
 10
0.0
 20
0.0
 30
0.0
 40
73.61060896629776
 41
36.62109374999999
 68
     1
 69
     1
1001
ACAD
1000
MVIEW
1002
{
1070
    16
1010
0.0
1020
0.0
1030
0.0
1010
0.0
1020
0.0
1030
1.0
1040
0.0
1040
36.62109374999999
1040
12.98939024773642
1040
8.43081221705231
1040
50.0
1040
0.0
1040
0.0
1070
    16
1070
   100
1070
     0
1070
     3
1070
     0
1070
     0
1070
     0
1070
     0
1040
0.0
1040
0.0
1040
0.0
1040
0.5
1040
0.5
1040
0.0
1040
0.0
1070
     0
1002
{
1002
}
1002
}
  0
VIEWPORT
  5
365E6
330
58
100
AcDbEntity
 67
     1
  8
0
100
AcDbViewport
 10
5.25
 20
4.0
 30
0.0
 40
8.4
 41
6.4
 68
     2
 69
     2
1001
ACAD
1000
MVIEW
1002
{
1070
    16
1010
0.0
1020
0.0
1030
0.0
1010
0.0
1020
0.0
1030
1.0
1040
0.0
1040
7.781797693034484
1040
4.534035830439946
1040
0.3066636055423189
1040
50.0
1040
0.0
1040
0.0
1070
     0
1070
   100
1070
     0
1070
     3
1070
     0
1070
     0
1070
     0
1070
     0
1040
0.0
1040
0.0
1040
0.0
1040
0.5
1040
0.5
1040
0.0
1040
0.0
1070
     0
1002
{
1002
}
1002
}
  0
ENDSEC
  0
SECTION
  2
OBJECTS
  0
DICTIONARY
  5
C
330
0
100
AcDbDictionary
  3
ACAD_DETAILVIEWSTYLE
350
C9A
  3
ACAD_GROUP
350
D
  3
ACAD_IMAGE_DICT
350
127
  3
ACAD_IMAGE_VARS
350
DC
  3
ACAD_MLINESTYLE
350
17
  3
ACAD_SCALELIST
350
102B8D
  3
ACAD_SECTIONVIEWSTYLE
350
C9B
  3
ACADDIM
350
CF3
  3
ACDBVARIABLEDICTIONARY
350
66
  3
APPDATA
350
E1
  3
DWGPROPS
350
102BD4
  0
DICTIONARY
  5
102A56
330
2
100
AcDbDictionary
280
     1
  3
ACAD_LAYERSTATES
360
102A57
  3
ACLYDICTIONARY
360
102A5E
  0
DICTIONARY
  5
132
330
1F
100
AcDbDictionary
280
     1
  3
ACAD_SORTENTS
360
133
  0
DICTIONARY
  5
C9A
102
{ACAD_REACTORS
330
C
102
}
330
C
100
AcDbDictionary
  0
DICTIONARY
  5
D
102
{ACAD_REACTORS
330
C
102
}
330
C
100
AcDbDictionary
  0
DICTIONARY
  5
127
102
{ACAD_REACTORS
330
C
102
}
330
C
100
AcDbDictionary
  0
RASTERVARIABLES
  5
DC
102
{ACAD_REACTORS
330
C
102
}
330
C
100
AcDbRasterVariables
 90
        0
 70
     1
 71
     1
 72
     5
  0
DICTIONARY
  5
17
102
{ACAD_REACTORS
330
C
102
}
330
C
100
AcDbDictionary
  3
STANDARD
350
18
  0
DICTIONARY
  5
102B8D
102
{ACAD_REACTORS
330
C
102
}
330
C
100
AcDbDictionary
  0
DICTIONARY
  5
C9B
102
{ACAD_REACTORS
330
C
102
}
330
C
100
AcDbDictionary
  0
XRECORD
  5
CF3
102
{ACAD_REACTORS
330
C
102
}
330
C
100
AcDbXrecord
340
0
 72
     0
 71
     0
 70
     0
 69
     0
 68
     1
 67
     3
 66
     0
 65
     0
 64
     0
 63
     3
 62
     1
 61
     0
 60
     0
 40
0.1796142531645571
  0
DICTIONARY
  5
66
102
{ACAD_REACTORS
330
C
102
}
330
C
100
AcDbDictionary
  3
DIMASSOC
350
67
  3
HIDETEXT
350
6B
  0
DICTIONARY
  5
E1
102
{ACAD_REACTORS
330
C
102
}
330
C
100
AcDbDictionary
  0
XRECORD
  5
102BD4
102
{ACAD_REACTORS
330
C
102
}
330
C
100
AcDbXrecord
  1
DWGPROPS COOKIE
  2

  3

  4

  6

  7

  8
NickC
  9

300
=
301
=
302
=
303
=
304
=
305
=
306
=
307
=
308
=
309
=
 40
0.0
 41
2452643.063384259
 42
2458579.705502952
  1

 90
        0
  0
DICTIONARY
  5
102A57
102
{ACAD_REACTORS
330
102A56
102
}
330
102A56
100
AcDbDictionary
  0
DICTIONARY
  5
102A5E
102
{ACAD_REACTORS
330
102A56
102
}
330
102A56
100
AcDbDictionary
1001
ACAD
1000
<All
  0
SORTENTSTABLE
  5
133
102
{ACAD_REACTORS
330
132
102
}
330
132
100
AcDbSortentsTable
330
1F
331
0
  5
F20A3
331
4AA2
  5
542E
331
4AA5
  5
5664
  0
MLINESTYLE
  5
18
102
{ACAD_REACTORS
330
17
102
}
330
17
100
AcDbMlineStyle
  2
STANDARD
 70
     0
  3

 62
   256
 51
90.0
 52
90.0
 71
     2
 49
0.5
 62
   256
  6
BYLAYER
 49
-0.5
 62
   256
  6
BYLAYER
  0
DICTIONARYVAR
  5
67
102
{ACAD_REACTORS
330
66
102
}
330
66
100
DictionaryVariables
280
     0
  1
2
  0
DICTIONARYVAR
  5
6B
102
{ACAD_REACTORS
330
66
102
}
330
66
100
DictionaryVariables
280
     0
  1
1
  0
ENDSEC
  0
EOF
