  0
SECTION
  2
HEADER
  9
$ACADVER
  1
AC1014
  9
$ACADMAINTVER
 70
     9
  9
$DWGCODEPAGE
  3
ANSI_1252
  9
$INSBASE
 10
0.0
 20
0.0
 30
0.0
  9
$EXTMIN
 10
-1.01140000000019
 20
-1.01140000000019
 30
0.0
  9
$EXTMAX
 10
1.01140000000019
 20
1.01140000000019
 30
0.0
  9
$LIMMIN
 10
0.0
 20
0.0
  9
$LIMMAX
 10
12.0
 20
9.0
  9
$ORTHOMODE
 70
     0
  9
$REGENMODE
 70
     1
  9
$FILLMODE
 70
     1
  9
$QTEXTMODE
 70
     0
  9
$MIRRTEXT
 70
     0
  9
$DRAGMODE
 70
     2
  9
$LTSCALE
 40
1.0
  9
$OSMODE
 70
 13311
  9
$ATTMODE
 70
     1
  9
$TEXTSIZE
 40
0.2
  9
$TRACEWID
 40
0.05
  9
$TEXTSTYLE
  7
STANDARD
  9
$CLAYER
  8
0
  9
$CELTYPE
  6
BYLAYER
  9
$CECOLOR
 62
   256
  9
$CELTSCALE
 40
1.0
  9
$DELOBJ
 70
     1
  9
$DISPSILH
 70
     0
  9
$DIMSCALE
 40
1.0
  9
$DIMASZ
 40
0.18
  9
$DIMEXO
 40
0.0625
  9
$DIMDLI
 40
0.38
  9
$DIMRND
 40
0.0
  9
$DIMDLE
 40
0.0
  9
$DIMEXE
 40
0.18
  9
$DIMTP
 40
0.0
  9
$DIMTM
 40
0.0
  9
$DIMTXT
 40
0.18
  9
$DIMCEN
 40
0.09
  9
$DIMTSZ
 40
0.0
  9
$DIMTOL
 70
     0
  9
$DIMLIM
 70
     0
  9
$DIMTIH
 70
     1
  9
$DIMTOH
 70
     1
  9
$DIMSE1
 70
     0
  9
$DIMSE2
 70
     0
  9
$DIMTAD
 70
     0
  9
$DIMZIN
 70
     0
  9
$DIMBLK
  1

  9
$DIMASO
 70
     1
  9
$DIMSHO
 70
     1
  9
$DIMPOST
  1

  9
$DIMAPOST
  1

  9
$DIMALT
 70
     0
  9
$DIMALTD
 70
     2
  9
$DIMALTF
 40
25.4
  9
$DIMLFAC
 40
1.0
  9
$DIMTOFL
 70
     0
  9
$DIMTVP
 40
0.0
  9
$DIMTIX
 70
     0
  9
$DIMSOXD
 70
     0
  9
$DIMSAH
 70
     0
  9
$DIMBLK1
  1

  9
$DIMBLK2
  1

  9
$DIMSTYLE
  2
STANDARD
  9
$DIMCLRD
 70
     0
  9
$DIMCLRE
 70
     0
  9
$DIMCLRT
 70
     0
  9
$DIMTFAC
 40
1.0
  9
$DIMGAP
 40
0.09
  9
$DIMJUST
 70
     0
  9
$DIMSD1
 70
     0
  9
$DIMSD2
 70
     0
  9
$DIMTOLJ
 70
     1
  9
$DIMTZIN
 70
     0
  9
$DIMALTZ
 70
     0
  9
$DIMALTTZ
 70
     0
  9
$DIMFIT
 70
     3
  9
$DIMUPT
 70
     0
  9
$DIMUNIT
 70
     2
  9
$DIMDEC
 70
     4
  9
$DIMTDEC
 70
     4
  9
$DIMALTU
 70
     2
  9
$DIMALTTD
 70
     2
  9
$DIMTXSTY
  7
STANDARD
  9
$DIMAUNIT
 70
     0
  9
$LUNITS
 70
     2
  9
$LUPREC
 70
     4
  9
$SKETCHINC
 40
0.1
  9
$FILLETRAD
 40
0.0
  9
$AUNITS
 70
     0
  9
$AUPREC
 70
     0
  9
$MENU
  1
.
  9
$ELEVATION
 40
0.0
  9
$PELEVATION
 40
0.0
  9
$THICKNESS
 40
0.0
  9
$LIMCHECK
 70
     0
  9
$CHAMFERA
 40
0.0
  9
$CHAMFERB
 40
0.0
  9
$CHAMFERC
 40
0.0
  9
$CHAMFERD
 40
0.0
  9
$SKPOLY
 70
     0
  9
$TDCREATE
 40
2452642.771717604
  9
$TDUPDATE
 40
2458578.628055081
  9
$TDINDWG
 40
0.0004708796
  9
$TDUSRTIMER
 40
2458578.919251053
  9
$USRTIMER
 70
     1
  9
$ANGBASE
 50
0.0
  9
$ANGDIR
 70
     0
  9
$PDMODE
 70
     0
  9
$PDSIZE
 40
0.0
  9
$PLINEWID
 40
0.0
  9
$COORDS
 70
     1
  9
$SPLFRAME
 70
     0
  9
$SPLINETYPE
 70
     6
  9
$SPLINESEGS
 70
     8
  9
$ATTDIA
 70
     0
  9
$ATTREQ
 70
     1
  9
$HANDLING
 70
     1
  9
$HANDSEED
  5
239
  9
$SURFTAB1
 70
     6
  9
$SURFTAB2
 70
     6
  9
$SURFTYPE
 70
     6
  9
$SURFU
 70
     6
  9
$SURFV
 70
     6
  9
$UCSNAME
  2

  9
$UCSORG
 10
0.0
 20
0.0
 30
0.0
  9
$UCSXDIR
 10
1.0
 20
0.0
 30
0.0
  9
$UCSYDIR
 10
0.0
 20
1.0
 30
0.0
  9
$PUCSNAME
  2

  9
$PUCSORG
 10
0.0
 20
0.0
 30
0.0
  9
$PUCSXDIR
 10
1.0
 20
0.0
 30
0.0
  9
$PUCSYDIR
 10
0.0
 20
1.0
 30
0.0
  9
$USERI1
 70
     0
  9
$USERI2
 70
     0
  9
$USERI3
 70
     0
  9
$USERI4
 70
     0
  9
$USERI5
 70
     0
  9
$USERR1
 40
0.0
  9
$USERR2
 40
0.0
  9
$USERR3
 40
0.0
  9
$USERR4
 40
0.0
  9
$USERR5
 40
0.0
  9
$WORLDVIEW
 70
     1
  9
$SHADEDGE
 70
     3
  9
$SHADEDIF
 70
    70
  9
$TILEMODE
 70
     1
  9
$MAXACTVP
 70
    64
  9
$PINSBASE
 10
0.0
 20
0.0
 30
0.0
  9
$PLIMCHECK
 70
     0
  9
$PEXTMIN
 10
0.0
 20
0.0
 30
0.0
  9
$PEXTMAX
 10
0.0
 20
0.0
 30
0.0
  9
$PLIMMIN
 10
0.0
 20
0.0
  9
$PLIMMAX
 10
0.0
 20
0.0
  9
$UNITMODE
 70
     0
  9
$VISRETAIN
 70
     1
  9
$PLINEGEN
 70
     0
  9
$PSLTSCALE
 70
     1
  9
$TREEDEPTH
 70
  3020
  9
$PICKSTYLE
 70
     0
  9
$CMLSTYLE
  2
STANDARD
  9
$CMLJUST
 70
     0
  9
$CMLSCALE
 40
1.0
  9
$PROXYGRAPHICS
 70
     1
  9
$MEASUREMENT
 70
     0
  0
ENDSEC
  0
SECTION
  2
CLASSES
  0
CLASS
  1
ACDBDICTIONARYWDFLT
  2
AcDbDictionaryWithDefault
  3
ObjectDBX Classes
 90
        0
280
     0
281
     0
  0
CLASS
  1
ACDBPLACEHOLDER
  2
AcDbPlaceHolder
  3
ObjectDBX Classes
 90
        0
280
     0
281
     0
  0
CLASS
  1
LAYOUT
  2
AcDbLayout
  3
ObjectDBX Classes
 90
        0
280
     0
281
     0
  0
CLASS
  1
DICTIONARYVAR
  2
AcDbDictionaryVar
  3
ObjectDBX Classes
 90
        0
280
     0
281
     0
  0
CLASS
  1
TABLESTYLE
  2
AcDbTableStyle
  3
ObjectDBX Classes
 90
     4095
280
     0
281
     0
  0
CLASS
  1
MATERIAL
  2
AcDbMaterial
  3
ObjectDBX Classes
 90
     1153
280
     0
281
     0
  0
CLASS
  1
VISUALSTYLE
  2
AcDbVisualStyle
  3
ObjectDBX Classes
 90
     4095
280
     0
281
     0
  0
CLASS
  1
SCALE
  2
AcDbScale
  3
ObjectDBX Classes
 90
     1153
280
     0
281
     0
  0
CLASS
  1
CELLSTYLEMAP
  2
AcDbCellStyleMap
  3
ObjectDBX Classes
 90
     1152
280
     0
281
     0
  0
CLASS
  1
RASTERVARIABLES
  2
AcDbRasterVariables
  3
ISM
 90
        0
280
     0
281
     0
  0
CLASS
  1
MLEADERSTYLE
  2
AcDbMLeaderStyle
  3
ACDB_MLEADERSTYLE_CLASS
 90
     4095
280
     0
281
     0
  0
CLASS
  1
SUN
  2
AcDbSun
  3
SCENEOE
 90
     1153
280
     0
281
     0
  0
CLASS
  1
XRECORD
  2
AcDbXrecord
  3
ObjectDBX Classes
 90
        0
280
     0
281
     0
  0
CLASS
  1
LWPOLYLINE
  2
AcDbPolyline
  3
ObjectDBX Classes
 90
        0
280
     0
281
     1
  0
CLASS
  1
HATCH
  2
AcDbHatch
  3
ObjectDBX Classes
 90
        0
280
     0
281
     1
  0
ENDSEC
  0
SECTION
  2
TABLES
  0
TABLE
  2
VPORT
  5
8
330
0
100
AcDbSymbolTable
 70
     1
  0
VPORT
  5
94
330
8
100
AcDbSymbolTableRecord
100
AcDbViewportTableRecord
  2
*ACTIVE
 70
     0
 10
0.0
 20
0.0
 11
1.0
 21
1.0
 12
27.66955289265921
 22
19.53868007863996
 13
0.0
 23
0.0
 14
0.5
 24
0.5
 15
0.5
 25
0.5
 16
0.0
 26
0.0
 36
1.0
 17
-27.66959356597982
 27
-19.53870295786203
 37
0.0
 40
2.063209326387368
 41
1.982408660351827
 42
50.0
 43
0.0
 44
0.0
 50
0.0
 51
0.0
 71
    16
 72
  1000
 73
     1
 74
     3
 75
     0
 76
     0
 77
     0
 78
     0
  0
ENDTAB
  0
TABLE
  2
LTYPE
  5
5
330
0
100
AcDbSymbolTable
 70
     1
  0
LTYPE
  5
14
330
5
100
AcDbSymbolTableRecord
100
AcDbLinetypeTableRecord
  2
BYBLOCK
 70
     0
  3

 72
    65
 73
     0
 40
0.0
  0
LTYPE
  5
15
330
5
100
AcDbSymbolTableRecord
100
AcDbLinetypeTableRecord
  2
BYLAYER
 70
     0
  3

 72
    65
 73
     0
 40
0.0
  0
LTYPE
  5
16
330
5
100
AcDbSymbolTableRecord
100
AcDbLinetypeTableRecord
  2
CONTINUOUS
 70
     0
  3
Solid line
 72
    65
 73
     0
 40
0.0
  0
ENDTAB
  0
TABLE
  2
LAYER
  5
2
102
{ACAD_XDICTIONARY
360
1A3
102
}
330
0
100
AcDbSymbolTable
 70
     2
  0
LAYER
  5
10
330
2
100
AcDbSymbolTableRecord
100
AcDbLayerTableRecord
  2
0
 70
     0
 62
     7
  6
CONTINUOUS
  0
LAYER
  5
F0
330
2
100
AcDbSymbolTableRecord
100
AcDbLayerTableRecord
  2
LAYER2
 70
     0
 62
     1
  6
CONTINUOUS
1001
ACAECLAYERSTANDARD
1000

1000

  0
ENDTAB
  0
TABLE
  2
STYLE
  5
3
330
0
100
AcDbSymbolTable
 70
     1
  0
STYLE
  5
11
330
3
100
AcDbSymbolTableRecord
100
AcDbTextStyleTableRecord
  2
STANDARD
 70
     0
 40
0.0
 41
1.0
 50
0.0
 71
     0
 42
0.2
  3
txt
  4

  0
ENDTAB
  0
TABLE
  2
VIEW
  5
6
330
0
100
AcDbSymbolTable
 70
     0
  0
ENDTAB
  0
TABLE
  2
UCS
  5
7
330
0
100
AcDbSymbolTable
 70
     0
  0
ENDTAB
  0
TABLE
  2
APPID
  5
9
330
0
100
AcDbSymbolTable
 70
     2
  0
APPID
  5
12
330
9
100
AcDbSymbolTableRecord
100
AcDbRegAppTableRecord
  2
ACAD
 70
     0
  0
APPID
  5
F2
330
9
100
AcDbSymbolTableRecord
100
AcDbRegAppTableRecord
  2
ACAECLAYERSTANDARD
 70
     0
  0
ENDTAB
  0
TABLE
  2
DIMSTYLE
  5
A
330
0
100
AcDbSymbolTable
 70
     1
  0
DIMSTYLE
105
27
330
A
100
AcDbSymbolTableRecord
100
AcDbDimStyleTableRecord
  2
STANDARD
 70
     0
  3

  4

  5

  6

  7

 40
1.0
 41
0.18
 42
0.0625
 43
0.38
 44
0.18
 45
0.0
 46
0.0
 47
0.0
 48
0.0
140
0.18
141
0.09
142
0.0
143
25.4
144
1.0
145
0.0
146
1.0
147
0.09
 71
     0
 72
     0
 73
     1
 74
     1
 75
     0
 76
     0
 77
     0
 78
     0
170
     0
171
     2
172
     0
173
     0
174
     0
175
     0
176
     0
177
     0
178
     0
270
     2
271
     4
272
     4
273
     2
274
     2
340
11
275
     0
280
     0
281
     0
282
     0
283
     1
284
     0
285
     0
286
     0
287
     3
288
     0
  0
ENDTAB
  0
TABLE
  2
BLOCK_RECORD
  5
1
330
0
100
AcDbSymbolTable
 70
     2
  0
BLOCK_RECORD
  5
1F
330
1
100
AcDbSymbolTableRecord
100
AcDbBlockTableRecord
  2
*MODEL_SPACE
  0
BLOCK_RECORD
  5
58
330
1
100
AcDbSymbolTableRecord
100
AcDbBlockTableRecord
  2
*PAPER_SPACE
  0
BLOCK_RECORD
  5
5D
330
1
100
AcDbSymbolTableRecord
100
AcDbBlockTableRecord
  2
*PAPER_SPACE0
  0
ENDTAB
  0
ENDSEC
  0
SECTION
  2
BLOCKS
  0
BLOCK
  5
20
330
1F
100
AcDbEntity
  8
0
100
AcDbBlockBegin
  2
*MODEL_SPACE
 70
     0
 10
0.0
 20
0.0
 30
0.0
  3
*MODEL_SPACE
  1

  0
ENDBLK
  5
21
330
1F
100
AcDbEntity
  8
0
100
AcDbBlockEnd
  0
BLOCK
  5
5A
330
58
100
AcDbEntity
 67
     1
  8
0
100
AcDbBlockBegin
  2
*PAPER_SPACE
 70
     0
 10
0.0
 20
0.0
 30
0.0
  3
*PAPER_SPACE
  1

  0
ENDBLK
  5
5B
330
58
100
AcDbEntity
 67
     1
  8
0
100
AcDbBlockEnd
  0
BLOCK
  5
5F
330
5D
100
AcDbEntity
  8
0
100
AcDbBlockBegin
  2
*PAPER_SPACE0
 70
     0
 10
0.0
 20
0.0
 30
0.0
  3
*PAPER_SPACE0
  1

  0
ENDBLK
  5
60
330
5D
100
AcDbEntity
  8
0
100
AcDbBlockEnd
  0
ENDSEC
  0
SECTION
  2
ENTITIES
  0
ARC
  5
1A8
330
1F
100
AcDbEntity
  8
LAYER2
  6
CONTINUOUS
100
AcDbCircle
 10
0.0
 20
0.0
 30
0.0
 40
0.9859500000001767
100
AcDbArc
 50
95.09362584570002
 51
99.9063741543
  0
ARC
  5
1A9
330
1F
100
AcDbEntity
  8
LAYER2
  6
CONTINUOUS
100
AcDbCircle
 10
-0.0893117485
 20
1.001977451899999
 30
0.0
 40
0.0200000000000001
100
AcDbArc
 50
275.0936258457002
 51
337.3808153117024
  0
ARC
  5
1AA
330
1F
100
AcDbEntity
  8
LAYER2
  6
CONTINUOUS
100
AcDbCircle
 10
-0.0468500000000001
 20
0.9842856482999993
 30
0.0
 40
0.0259999999999984
100
AcDbArc
 50
92.72510613830005
 51
157.3808153116983
  0
ARC
  5
1AB
330
1F
100
AcDbEntity
  8
LAYER2
  6
CONTINUOUS
100
AcDbCircle
 10
0.0
 20
0.0
 30
0.0
 40
1.01140000000019
100
AcDbArc
 50
87.27489386169998
 51
92.72510613829999
  0
ARC
  5
1AC
330
1F
100
AcDbEntity
  8
LAYER2
  6
CONTINUOUS
100
AcDbCircle
 10
0.0468500000000001
 20
0.9842856482999993
 30
0.0
 40
0.0259999999999994
100
AcDbArc
 50
22.61918468830076
 51
87.27489386170015
  0
ARC
  5
1AD
330
1F
100
AcDbEntity
  8
LAYER2
  6
CONTINUOUS
100
AcDbCircle
 10
0.0893117484999999
 20
1.001977451899999
 30
0.0
 40
0.0199999999999991
100
AcDbArc
 50
202.6191846882988
 51
264.9063741543003
  0
ARC
  5
1AE
330
1F
100
AcDbEntity
  8
LAYER2
  6
CONTINUOUS
100
AcDbCircle
 10
0.0
 20
0.0
 30
0.0
 40
0.9859500000001766
100
AcDbArc
 50
110.0936258457
 51
114.9063741543
  0
ARC
  5
1AF
330
1F
100
AcDbEntity
  8
LAYER2
  6
CONTINUOUS
100
AcDbCircle
 10
-0.3455993717821988
 20
0.9447203166863156
 30
0.0
 40
0.0200000000000001
100
AcDbArc
 50
290.0936258457004
 51
352.3808153117003
  0
ARC
  5
1B0
330
1F
100
AcDbEntity
  8
LAYER2
  6
CONTINUOUS
100
AcDbCircle
 10
-0.3000054965627644
 20
0.9386212558755958
 30
0.0
 40
0.0259999999999984
100
AcDbArc
 50
107.7251061383001
 51
172.3808153117014
  0
ARC
  5
1B1
330
1F
100
AcDbEntity
  8
LAYER2
  6
CONTINUOUS
100
AcDbCircle
 10
0.0
 20
0.0
 30
0.0
 40
1.01140000000019
100
AcDbArc
 50
102.2748938617
 51
107.7251061383
  0
ARC
  5
1B2
330
1F
100
AcDbEntity
  8
LAYER2
  6
CONTINUOUS
100
AcDbCircle
 10
-0.2094982466394787
 20
0.9628726004017016
 30
0.0
 40
0.0259999999999994
100
AcDbArc
 50
37.61918468830054
 51
102.2748938616998
  0
ARC
  5
1B3
330
1F
100
AcDbEntity
  8
LAYER2
  6
CONTINUOUS
100
AcDbCircle
 10
-0.173062322847831
 20
0.990951479612729
 30
0.0
 40
0.0199999999999991
100
AcDbArc
 50
217.6191846883003
 51
279.9063741543
  0
ARC
  5
1B4
330
1F
100
AcDbEntity
  8
LAYER2
  6
CONTINUOUS
100
AcDbCircle
 10
0.0
 20
0.0
 30
0.0
 40
0.9859500000001767
100
AcDbArc
 50
125.0936258457
 51
129.9063741543
  0
ARC
  5
1B5
330
1F
100
AcDbEntity
  8
LAYER2
  6
CONTINUOUS
100
AcDbCircle
 10
-0.5783349690074067
 20
0.8230820531146001
 30
0.0
 40
0.0200000000000001
100
AcDbArc
 50
305.0936258456993
 51
7.380815311700167
  0
ARC
  5
1B6
330
1F
100
AcDbEntity
  8
LAYER2
  6
CONTINUOUS
100
AcDbCircle
 10
-0.5327161143173009
 20
0.8289913760082355
 30
0.0
 40
0.0259999999999984
100
AcDbArc
 50
122.7251061382999
 51
187.3808153116991
  0
ARC
  5
1B7
330
1F
100
AcDbEntity
  8
LAYER2
  6
CONTINUOUS
100
AcDbCircle
 10
0.0
 20
0.0
 30
0.0
 40
1.01140000000019
100
AcDbArc
 50
117.2748938617
 51
122.7251061383
  0
ARC
  5
1B8
330
1F
100
AcDbEntity
  8
LAYER2
  6
CONTINUOUS
100
AcDbCircle
 10
-0.4515695339826991
 20
0.8758413760082355
 30
0.0
 40
0.0259999999999994
100
AcDbArc
 50
52.61918468830024
 51
117.2748938617006
  0
ARC
  5
1B9
330
1F
100
AcDbEntity
  8
LAYER2
  6
CONTINUOUS
100
AcDbCircle
 10
-0.4236424828925931
 20
0.9123938016146003
 30
0.0
 40
0.0199999999999991
100
AcDbArc
 50
232.6191846883002
 51
294.906374154299
  0
ARC
  5
1BA
330
1F
100
AcDbEntity
  8
LAYER2
  6
CONTINUOUS
100
AcDbCircle
 10
0.0
 20
0.0
 30
0.0
 40
0.9859500000001767
100
AcDbArc
 50
140.0936258457
 51
144.9063741543
  0
ARC
  5
1BB
330
1F
100
AcDbEntity
  8
LAYER2
  6
CONTINUOUS
100
AcDbCircle
 10
-0.7716579938384851
 20
0.6453521078305302
 30
0.0
 40
0.0200000000000001
100
AcDbArc
 50
320.0936258456985
 51
22.38081531170105
  0
ARC
  5
1BC
330
1F
100
AcDbEntity
  8
LAYER2
  6
CONTINUOUS
100
AcDbCircle
 10
-0.729123009236117
 20
0.6628671038389369
 30
0.0
 40
0.0259999999999984
100
AcDbArc
 50
137.7251061382997
 51
202.3808153116993
  0
ARC
  5
1BD
330
1F
100
AcDbEntity
  8
LAYER2
  6
CONTINUOUS
100
AcDbCircle
 10
0.0
 20
0.0
 30
0.0
 40
1.01140000000019
100
AcDbArc
 50
132.2748938617
 51
137.7251061383
  0
ARC
  5
1BE
330
1F
100
AcDbEntity
  8
LAYER2
  6
CONTINUOUS
100
AcDbCircle
 10
-0.6628671038389373
 20
0.7291230092361163
 30
0.0
 40
0.0259999999999994
100
AcDbArc
 50
67.61918468830031
 51
132.2748938617003
  0
ARC
  5
1BF
330
1F
100
AcDbEntity
  8
LAYER2
  6
CONTINUOUS
100
AcDbCircle
 10
-0.6453521078305302
 20
0.7716579938384855
 30
0.0
 40
0.0199999999999991
100
AcDbArc
 50
247.6191846883008
 51
309.9063741542977
  0
ARC
  5
1C0
330
1F
100
AcDbEntity
  8
LAYER2
  6
CONTINUOUS
100
AcDbCircle
 10
0.0
 20
0.0
 30
0.0
 40
0.9859500000001767
100
AcDbArc
 50
155.0936258457
 51
159.9063741543
  0
ARC
  5
1C1
330
1F
100
AcDbEntity
  8
LAYER2
  6
CONTINUOUS
100
AcDbCircle
 10
-0.9123938016146005
 20
0.4236424828925935
 30
0.0
 40
0.0200000000000001
100
AcDbArc
 50
335.0936258456996
 51
37.38081531169912
  0
ARC
  5
1C2
330
1F
100
AcDbEntity
  8
LAYER2
  6
CONTINUOUS
100
AcDbCircle
 10
-0.8758413760082354
 20
0.4515695339826991
 30
0.0
 40
0.0259999999999984
100
AcDbArc
 50
152.7251061382991
 51
217.3808153116996
  0
ARC
  5
1C3
330
1F
100
AcDbEntity
  8
LAYER2
  6
CONTINUOUS
100
AcDbCircle
 10
0.0
 20
0.0
 30
0.0
 40
1.01140000000019
100
AcDbArc
 50
147.2748938617
 51
152.7251061383
  0
ARC
  5
1C4
330
1F
100
AcDbEntity
  8
LAYER2
  6
CONTINUOUS
100
AcDbCircle
 10
-0.8289913760082354
 20
0.5327161143173003
 30
0.0
 40
0.0259999999999994
100
AcDbArc
 50
82.6191846883006
 51
147.2748938616989
  0
ARC
  5
1C5
330
1F
100
AcDbEntity
  8
LAYER2
  6
CONTINUOUS
100
AcDbCircle
 10
-0.8230820531146004
 20
0.5783349690074067
 30
0.0
 40
0.0199999999999991
100
AcDbArc
 50
262.6191846883001
 51
324.9063741542993
  0
ARC
  5
1C6
330
1F
100
AcDbEntity
  8
LAYER2
  6
CONTINUOUS
100
AcDbCircle
 10
0.0
 20
0.0
 30
0.0
 40
0.9859500000001767
100
AcDbArc
 50
170.0936258457
 51
174.9063741543
  0
ARC
  5
1C7
330
1F
100
AcDbEntity
  8
LAYER2
  6
CONTINUOUS
100
AcDbCircle
 10
-0.990951479612729
 20
0.173062322847831
 30
0.0
 40
0.0200000000000001
100
AcDbArc
 50
350.0936258456999
 51
52.38081531169969
  0
ARC
  5
1C8
330
1F
100
AcDbEntity
  8
LAYER2
  6
CONTINUOUS
100
AcDbCircle
 10
-0.9628726004017018
 20
0.2094982466394786
 30
0.0
 40
0.0259999999999984
100
AcDbArc
 50
167.7251061382997
 51
232.3808153116994
  0
ARC
  5
1C9
330
1F
100
AcDbEntity
  8
LAYER2
  6
CONTINUOUS
100
AcDbCircle
 10
0.0
 20
0.0
 30
0.0
 40
1.01140000000019
100
AcDbArc
 50
162.2748938617
 51
167.7251061383
  0
ARC
  5
1CA
330
1F
100
AcDbEntity
  8
LAYER2
  6
CONTINUOUS
100
AcDbCircle
 10
-0.9386212558755956
 20
0.3000054965627639
 30
0.0
 40
0.0259999999999994
100
AcDbArc
 50
97.61918468829944
 51
162.2748938616981
  0
ARC
  5
1CB
330
1F
100
AcDbEntity
  8
LAYER2
  6
CONTINUOUS
100
AcDbCircle
 10
-0.9447203166863161
 20
0.3455993717821988
 30
0.0
 40
0.0199999999999991
100
AcDbArc
 50
277.6191846883001
 51
339.9063741543007
  0
ARC
  5
1CC
330
1F
100
AcDbEntity
  8
LAYER2
  6
CONTINUOUS
100
AcDbCircle
 10
0.0
 20
0.0
 30
0.0
 40
0.9859500000001767
100
AcDbArc
 50
185.0936258456999
 51
189.9063741542998
  0
ARC
  5
1CD
330
1F
100
AcDbEntity
  8
LAYER2
  6
CONTINUOUS
100
AcDbCircle
 10
-1.0019774519
 20
-0.0893117485000001
 30
0.0
 40
0.0200000000000001
100
AcDbArc
 50
5.093625845700053
 51
67.3808153117006
  0
ARC
  5
1CE
330
1F
100
AcDbEntity
  8
LAYER2
  6
CONTINUOUS
100
AcDbCircle
 10
-0.9842856483
 20
-0.0468500000000001
 30
0.0
 40
0.0259999999999984
100
AcDbArc
 50
182.7251061383005
 51
247.3808153117
  0
ARC
  5
1CF
330
1F
100
AcDbEntity
  8
LAYER2
  6
CONTINUOUS
100
AcDbCircle
 10
0.0
 20
0.0
 30
0.0
 40
1.01140000000019
100
AcDbArc
 50
177.2748938617
 51
182.7251061382999
  0
ARC
  5
1D0
330
1F
100
AcDbEntity
  8
LAYER2
  6
CONTINUOUS
100
AcDbCircle
 10
-0.9842856483
 20
0.0468500000000001
 30
0.0
 40
0.0259999999999994
100
AcDbArc
 50
112.6191846883001
 51
177.2748938617006
  0
ARC
  5
1D1
330
1F
100
AcDbEntity
  8
LAYER2
  6
CONTINUOUS
100
AcDbCircle
 10
-1.0019774519
 20
0.0893117485000001
 30
0.0
 40
0.0199999999999991
100
AcDbArc
 50
292.6191846883
 51
354.9063741542997
  0
ARC
  5
1D2
330
1F
100
AcDbEntity
  8
LAYER2
  6
CONTINUOUS
100
AcDbCircle
 10
0.0
 20
0.0
 30
0.0
 40
0.9859500000001766
100
AcDbArc
 50
200.0936258457
 51
204.9063741543
  0
ARC
  5
1D3
330
1F
100
AcDbEntity
  8
LAYER2
  6
CONTINUOUS
100
AcDbCircle
 10
-0.9447203166863162
 20
-0.3455993717821988
 30
0.0
 40
0.0200000000000001
100
AcDbArc
 50
20.09362584569955
 51
82.38081531170025
  0
ARC
  5
1D4
330
1F
100
AcDbEntity
  8
LAYER2
  6
CONTINUOUS
100
AcDbCircle
 10
-0.9386212558755958
 20
-0.3000054965627648
 30
0.0
 40
0.0259999999999984
100
AcDbArc
 50
197.7251061382995
 51
262.3808153116999
  0
ARC
  5
1D5
330
1F
100
AcDbEntity
  8
LAYER2
  6
CONTINUOUS
100
AcDbCircle
 10
0.0
 20
0.0
 30
0.0
 40
1.01140000000019
100
AcDbArc
 50
192.2748938616999
 51
197.7251061383
  0
ARC
  5
1D6
330
1F
100
AcDbEntity
  8
LAYER2
  6
CONTINUOUS
100
AcDbCircle
 10
-0.9628726004017019
 20
-0.2094982466394786
 30
0.0
 40
0.0259999999999994
100
AcDbArc
 50
127.6191846883003
 51
192.2748938616998
  0
ARC
  5
1D7
330
1F
100
AcDbEntity
  8
LAYER2
  6
CONTINUOUS
100
AcDbCircle
 10
-0.9909514796127291
 20
-0.173062322847831
 30
0.0
 40
0.0199999999999991
100
AcDbArc
 50
307.6191846883003
 51
9.906374154299312
  0
ARC
  5
1D8
330
1F
100
AcDbEntity
  8
LAYER2
  6
CONTINUOUS
100
AcDbCircle
 10
0.0
 20
0.0
 30
0.0
 40
0.9859500000001767
100
AcDbArc
 50
215.0936258456999
 51
219.9063741543
  0
ARC
  5
1D9
330
1F
100
AcDbEntity
  8
LAYER2
  6
CONTINUOUS
100
AcDbCircle
 10
-0.8230820531146006
 20
-0.5783349690074067
 30
0.0
 40
0.0200000000000001
100
AcDbArc
 50
35.0936258456987
 51
97.3808153116999
  0
ARC
  5
1DA
330
1F
100
AcDbEntity
  8
LAYER2
  6
CONTINUOUS
100
AcDbCircle
 10
-0.8289913760082355
 20
-0.5327161143173011
 30
0.0
 40
0.0259999999999984
100
AcDbArc
 50
212.7251061382993
 51
277.3808153117
  0
ARC
  5
1DB
330
1F
100
AcDbEntity
  8
LAYER2
  6
CONTINUOUS
100
AcDbCircle
 10
0.0
 20
0.0
 30
0.0
 40
1.01140000000019
100
AcDbArc
 50
207.2748938616999
 51
212.7251061383
  0
ARC
  5
1DC
330
1F
100
AcDbEntity
  8
LAYER2
  6
CONTINUOUS
100
AcDbCircle
 10
-0.8758413760082355
 20
-0.4515695339826991
 30
0.0
 40
0.0259999999999994
100
AcDbArc
 50
142.6191846882998
 51
207.2748938616996
  0
ARC
  5
1DD
330
1F
100
AcDbEntity
  8
LAYER2
  6
CONTINUOUS
100
AcDbCircle
 10
-0.9123938016146005
 20
-0.4236424828925935
 30
0.0
 40
0.0199999999999991
100
AcDbArc
 50
322.6191846883017
 51
24.90637415430158
  0
ARC
  5
1DE
330
1F
100
AcDbEntity
  8
LAYER2
  6
CONTINUOUS
100
AcDbCircle
 10
0.0
 20
0.0
 30
0.0
 40
0.9859500000001767
100
AcDbArc
 50
230.0936258457
 51
234.9063741543
  0
ARC
  5
1DF
330
1F
100
AcDbEntity
  8
LAYER2
  6
CONTINUOUS
100
AcDbCircle
 10
-0.6453521078305303
 20
-0.7716579938384855
 30
0.0
 40
0.0200000000000001
100
AcDbArc
 50
50.09362584569987
 51
112.3808153116995
  0
ARC
  5
1E0
330
1F
100
AcDbEntity
  8
LAYER2
  6
CONTINUOUS
100
AcDbCircle
 10
-0.6628671038389375
 20
-0.7291230092361172
 30
0.0
 40
0.0259999999999984
100
AcDbArc
 50
227.7251061383003
 51
292.3808153117005
  0
ARC
  5
1E1
330
1F
100
AcDbEntity
  8
LAYER2
  6
CONTINUOUS
100
AcDbCircle
 10
0.0
 20
0.0
 30
0.0
 40
1.01140000000019
100
AcDbArc
 50
222.2748938616999
 51
227.7251061382999
  0
ARC
  5
1E2
330
1F
100
AcDbEntity
  8
LAYER2
  6
CONTINUOUS
100
AcDbCircle
 10
-0.729123009236117
 20
-0.6628671038389378
 30
0.0
 40
0.0259999999999994
100
AcDbArc
 50
157.6191846882996
 51
222.2748938616987
  0
ARC
  5
1E3
330
1F
100
AcDbEntity
  8
LAYER2
  6
CONTINUOUS
100
AcDbCircle
 10
-0.7716579938384852
 20
-0.6453521078305302
 30
0.0
 40
0.0199999999999991
100
AcDbArc
 50
337.6191846882991
 51
39.90637415429941
  0
ARC
  5
1E4
330
1F
100
AcDbEntity
  8
LAYER2
  6
CONTINUOUS
100
AcDbCircle
 10
0.0
 20
0.0
 30
0.0
 40
0.9859500000001767
100
AcDbArc
 50
245.0936258457
 51
249.9063741543
  0
ARC
  5
1E5
330
1F
100
AcDbEntity
  8
LAYER2
  6
CONTINUOUS
100
AcDbCircle
 10
-0.4236424828925935
 20
-0.9123938016146007
 30
0.0
 40
0.0200000000000001
100
AcDbArc
 50
65.0936258457009
 51
127.3808153116995
  0
ARC
  5
1E6
330
1F
100
AcDbEntity
  8
LAYER2
  6
CONTINUOUS
100
AcDbCircle
 10
-0.4515695339826994
 20
-0.8758413760082355
 30
0.0
 40
0.0259999999999984
100
AcDbArc
 50
242.7251061383002
 51
307.3808153116997
  0
ARC
  5
1E7
330
1F
100
AcDbEntity
  8
LAYER2
  6
CONTINUOUS
100
AcDbCircle
 10
0.0
 20
0.0
 30
0.0
 40
1.01140000000019
100
AcDbArc
 50
237.2748938616999
 51
242.7251061382999
  0
ARC
  5
1E8
330
1F
100
AcDbEntity
  8
LAYER2
  6
CONTINUOUS
100
AcDbCircle
 10
-0.5327161143173013
 20
-0.8289913760082355
 30
0.0
 40
0.0259999999999994
100
AcDbArc
 50
172.6191846883002
 51
237.2748938617
  0
ARC
  5
1E9
330
1F
100
AcDbEntity
  8
LAYER2
  6
CONTINUOUS
100
AcDbCircle
 10
-0.578334969007407
 20
-0.8230820531146006
 30
0.0
 40
0.0199999999999991
100
AcDbArc
 50
352.6191846883008
 51
54.90637415430062
  0
ARC
  5
1EA
330
1F
100
AcDbEntity
  8
LAYER2
  6
CONTINUOUS
100
AcDbCircle
 10
0.0
 20
0.0
 30
0.0
 40
0.9859500000001767
100
AcDbArc
 50
260.0936258457
 51
264.9063741543
  0
ARC
  5
1EB
330
1F
100
AcDbEntity
  8
LAYER2
  6
CONTINUOUS
100
AcDbCircle
 10
-0.1730623228478312
 20
-0.990951479612729
 30
0.0
 40
0.0200000000000001
100
AcDbArc
 50
80.09362584569982
 51
142.3808153117017
  0
ARC
  5
1EC
330
1F
100
AcDbEntity
  8
LAYER2
  6
CONTINUOUS
100
AcDbCircle
 10
-0.209498246639479
 20
-0.9628726004017021
 30
0.0
 40
0.0259999999999984
100
AcDbArc
 50
257.7251061383
 51
322.3808153117002
  0
ARC
  5
1ED
330
1F
100
AcDbEntity
  8
LAYER2
  6
CONTINUOUS
100
AcDbCircle
 10
0.0
 20
0.0
 30
0.0
 40
1.01140000000019
100
AcDbArc
 50
252.2748938617
 51
257.7251061383
  0
ARC
  5
1EE
330
1F
100
AcDbEntity
  8
LAYER2
  6
CONTINUOUS
100
AcDbCircle
 10
-0.3000054965627648
 20
-0.9386212558755958
 30
0.0
 40
0.0259999999999994
100
AcDbArc
 50
187.6191846883003
 51
252.2748938617004
  0
ARC
  5
1EF
330
1F
100
AcDbEntity
  8
LAYER2
  6
CONTINUOUS
100
AcDbCircle
 10
-0.3455993717821991
 20
-0.9447203166863165
 30
0.0
 40
0.0199999999999991
100
AcDbArc
 50
7.619184688300074
 51
69.90637415429988
  0
ARC
  5
1F0
330
1F
100
AcDbEntity
  8
LAYER2
  6
CONTINUOUS
100
AcDbCircle
 10
0.0
 20
0.0
 30
0.0
 40
0.9859500000001767
100
AcDbArc
 50
275.0936258457
 51
279.9063741543
  0
ARC
  5
1F1
330
1F
100
AcDbEntity
  8
LAYER2
  6
CONTINUOUS
100
AcDbCircle
 10
0.0893117484999999
 20
-1.0019774519
 30
0.0
 40
0.0200000000000001
100
AcDbArc
 50
95.09362584569999
 51
157.3808153116997
  0
ARC
  5
1F2
330
1F
100
AcDbEntity
  8
LAYER2
  6
CONTINUOUS
100
AcDbCircle
 10
0.0468499999999998
 20
-0.9842856483000002
 30
0.0
 40
0.0259999999999984
100
AcDbArc
 50
272.7251061383
 51
337.3808153117005
  0
ARC
  5
1F3
330
1F
100
AcDbEntity
  8
LAYER2
  6
CONTINUOUS
100
AcDbCircle
 10
0.0
 20
0.0
 30
0.0
 40
1.01140000000019
100
AcDbArc
 50
267.2748938617
 51
272.7251061383
  0
ARC
  5
1F4
330
1F
100
AcDbEntity
  8
LAYER2
  6
CONTINUOUS
100
AcDbCircle
 10
-0.0468500000000002
 20
-0.9842856483000002
 30
0.0
 40
0.0259999999999994
100
AcDbArc
 50
202.6191846882997
 51
267.2748938617001
  0
ARC
  5
1F5
330
1F
100
AcDbEntity
  8
LAYER2
  6
CONTINUOUS
100
AcDbCircle
 10
-0.0893117485000001
 20
-1.0019774519
 30
0.0
 40
0.0199999999999991
100
AcDbArc
 50
22.61918468830011
 51
84.90637415429997
  0
ARC
  5
1F6
330
1F
100
AcDbEntity
  8
LAYER2
  6
CONTINUOUS
100
AcDbCircle
 10
0.0
 20
0.0
 30
0.0
 40
0.9859500000001767
100
AcDbArc
 50
290.0936258457
 51
294.9063741543
  0
ARC
  5
1F7
330
1F
100
AcDbEntity
  8
LAYER2
  6
CONTINUOUS
100
AcDbCircle
 10
0.3455993717821986
 20
-0.9447203166863165
 30
0.0
 40
0.0200000000000001
100
AcDbArc
 50
110.0936258457001
 51
172.3808153117004
  0
ARC
  5
1F8
330
1F
100
AcDbEntity
  8
LAYER2
  6
CONTINUOUS
100
AcDbCircle
 10
0.3000054965627641
 20
-0.9386212558755962
 30
0.0
 40
0.0259999999999984
100
AcDbArc
 50
287.7251061383001
 51
352.3808153117004
  0
ARC
  5
1F9
330
1F
100
AcDbEntity
  8
LAYER2
  6
CONTINUOUS
100
AcDbCircle
 10
0.0
 20
0.0
 30
0.0
 40
1.01140000000019
100
AcDbArc
 50
282.2748938617
 51
287.7251061383
  0
ARC
  5
1FA
330
1F
100
AcDbEntity
  8
LAYER2
  6
CONTINUOUS
100
AcDbCircle
 10
0.2094982466394784
 20
-0.9628726004017021
 30
0.0
 40
0.0259999999999994
100
AcDbArc
 50
217.6191846883005
 51
282.2748938616996
  0
ARC
  5
1FB
330
1F
100
AcDbEntity
  8
LAYER2
  6
CONTINUOUS
100
AcDbCircle
 10
0.1730623228478305
 20
-0.9909514796127294
 30
0.0
 40
0.0199999999999991
100
AcDbArc
 50
37.61918468830022
 51
99.9063741543
  0
ARC
  5
1FC
330
1F
100
AcDbEntity
  8
LAYER2
  6
CONTINUOUS
100
AcDbCircle
 10
0.0
 20
0.0
 30
0.0
 40
0.9859500000001767
100
AcDbArc
 50
305.0936258457
 51
309.9063741543
  0
ARC
  5
1FD
330
1F
100
AcDbEntity
  8
LAYER2
  6
CONTINUOUS
100
AcDbCircle
 10
0.5783349690074064
 20
-0.823082053114601
 30
0.0
 40
0.0200000000000001
100
AcDbArc
 50
125.0936258456992
 51
187.3808153116989
  0
ARC
  5
1FE
330
1F
100
AcDbEntity
  8
LAYER2
  6
CONTINUOUS
100
AcDbCircle
 10
0.5327161143173007
 20
-0.8289913760082359
 30
0.0
 40
0.0259999999999984
100
AcDbArc
 50
302.7251061383
 51
7.380815311700029
  0
ARC
  5
1FF
330
1F
100
AcDbEntity
  8
LAYER2
  6
CONTINUOUS
100
AcDbCircle
 10
0.0
 20
0.0
 30
0.0
 40
1.01140000000019
100
AcDbArc
 50
297.2748938617
 51
302.7251061383
  0
ARC
  5
200
330
1F
100
AcDbEntity
  8
LAYER2
  6
CONTINUOUS
100
AcDbCircle
 10
0.4515695339826988
 20
-0.875841376008236
 30
0.0
 40
0.0259999999999994
100
AcDbArc
 50
232.6191846882992
 51
297.2748938616996
  0
ARC
  5
201
330
1F
100
AcDbEntity
  8
LAYER2
  6
CONTINUOUS
100
AcDbCircle
 10
0.4236424828925929
 20
-0.9123938016146007
 30
0.0
 40
0.0199999999999991
100
AcDbArc
 50
52.61918468830034
 51
114.9063741543002
  0
ARC
  5
202
330
1F
100
AcDbEntity
  8
LAYER2
  6
CONTINUOUS
100
AcDbCircle
 10
0.0
 20
0.0
 30
0.0
 40
0.9859500000001767
100
AcDbArc
 50
320.0936258456999
 51
324.9063741543
  0
ARC
  5
203
330
1F
100
AcDbEntity
  8
LAYER2
  6
CONTINUOUS
100
AcDbCircle
 10
0.7716579938384849
 20
-0.6453521078305311
 30
0.0
 40
0.0200000000000001
100
AcDbArc
 50
140.0936258456985
 51
202.3808153116998
  0
ARC
  5
204
330
1F
100
AcDbEntity
  8
LAYER2
  6
CONTINUOUS
100
AcDbCircle
 10
0.7291230092361165
 20
-0.6628671038389382
 30
0.0
 40
0.0259999999999984
100
AcDbArc
 50
317.7251061383008
 51
22.38081531170026
  0
ARC
  5
205
330
1F
100
AcDbEntity
  8
LAYER2
  6
CONTINUOUS
100
AcDbCircle
 10
0.0
 20
0.0
 30
0.0
 40
1.01140000000019
100
AcDbArc
 50
312.2748938616999
 51
317.7251061382999
  0
ARC
  5
206
330
1F
100
AcDbEntity
  8
LAYER2
  6
CONTINUOUS
100
AcDbCircle
 10
0.6628671038389371
 20
-0.7291230092361176
 30
0.0
 40
0.0259999999999994
100
AcDbArc
 50
247.6191846882994
 51
312.2748938617001
  0
ARC
  5
207
330
1F
100
AcDbEntity
  8
LAYER2
  6
CONTINUOUS
100
AcDbCircle
 10
0.6453521078305298
 20
-0.7716579938384855
 30
0.0
 40
0.0199999999999991
100
AcDbArc
 50
67.61918468829964
 51
129.9063741543003
  0
ARC
  5
208
330
1F
100
AcDbEntity
  8
LAYER2
  6
CONTINUOUS
100
AcDbCircle
 10
0.0
 20
0.0
 30
0.0
 40
0.9859500000001767
100
AcDbArc
 50
335.0936258456999
 51
339.9063741543
  0
ARC
  5
209
330
1F
100
AcDbEntity
  8
LAYER2
  6
CONTINUOUS
100
AcDbCircle
 10
0.9123938016146003
 20
-0.423642482892594
 30
0.0
 40
0.0200000000000001
100
AcDbArc
 50
155.0936258456998
 51
217.3808153117005
  0
ARC
  5
20A
330
1F
100
AcDbEntity
  8
LAYER2
  6
CONTINUOUS
100
AcDbCircle
 10
0.8758413760082353
 20
-0.4515695339826999
 30
0.0
 40
0.0259999999999984
100
AcDbArc
 50
332.7251061383003
 51
37.38081531170067
  0
ARC
  5
20B
330
1F
100
AcDbEntity
  8
LAYER2
  6
CONTINUOUS
100
AcDbCircle
 10
0.0
 20
0.0
 30
0.0
 40
1.01140000000019
100
AcDbArc
 50
327.2748938616999
 51
332.7251061382999
  0
ARC
  5
20C
330
1F
100
AcDbEntity
  8
LAYER2
  6
CONTINUOUS
100
AcDbCircle
 10
0.8289913760082352
 20
-0.5327161143173016
 30
0.0
 40
0.0259999999999994
100
AcDbArc
 50
262.6191846882998
 51
327.2748938616998
  0
ARC
  5
20D
330
1F
100
AcDbEntity
  8
LAYER2
  6
CONTINUOUS
100
AcDbCircle
 10
0.8230820531146001
 20
-0.5783349690074076
 30
0.0
 40
0.0199999999999991
100
AcDbArc
 50
82.6191846883001
 51
144.9063741542995
  0
ARC
  5
20E
330
1F
100
AcDbEntity
  8
LAYER2
  6
CONTINUOUS
100
AcDbCircle
 10
0.0
 20
0.0
 30
0.0
 40
0.9859500000001766
100
AcDbArc
 50
350.0936258456999
 51
354.9063741543
  0
ARC
  5
20F
330
1F
100
AcDbEntity
  8
LAYER2
  6
CONTINUOUS
100
AcDbCircle
 10
0.9909514796127292
 20
-0.1730623228478319
 30
0.0
 40
0.0200000000000001
100
AcDbArc
 50
170.0936258457012
 51
232.3808153116994
  0
ARC
  5
210
330
1F
100
AcDbEntity
  8
LAYER2
  6
CONTINUOUS
100
AcDbCircle
 10
0.9628726004017019
 20
-0.2094982466394795
 30
0.0
 40
0.0259999999999984
100
AcDbArc
 50
347.7251061382997
 51
52.38081531169966
  0
ARC
  5
211
330
1F
100
AcDbEntity
  8
LAYER2
  6
CONTINUOUS
100
AcDbCircle
 10
0.0
 20
0.0
 30
0.0
 40
1.01140000000019
100
AcDbArc
 50
342.2748938616999
 51
347.7251061382999
  0
ARC
  5
212
330
1F
100
AcDbEntity
  8
LAYER2
  6
CONTINUOUS
100
AcDbCircle
 10
0.9386212558755955
 20
-0.3000054965627657
 30
0.0
 40
0.0259999999999994
100
AcDbArc
 50
277.6191846882998
 51
342.2748938617001
  0
ARC
  5
213
330
1F
100
AcDbEntity
  8
LAYER2
  6
CONTINUOUS
100
AcDbCircle
 10
0.9447203166863158
 20
-0.3455993717821997
 30
0.0
 40
0.0199999999999991
100
AcDbArc
 50
97.61918468830011
 51
159.9063741543008
  0
ARC
  5
214
330
1F
100
AcDbEntity
  8
LAYER2
  6
CONTINUOUS
100
AcDbCircle
 10
0.0
 20
0.0
 30
0.0
 40
0.9859500000001767
100
AcDbArc
 50
5.093625845699981
 51
9.906374154299982
  0
ARC
  5
215
330
1F
100
AcDbEntity
  8
LAYER2
  6
CONTINUOUS
100
AcDbCircle
 10
1.0019774519
 20
0.0893117484999997
 30
0.0
 40
0.0200000000000001
100
AcDbArc
 50
185.0936258457
 51
247.3808153116995
  0
ARC
  5
216
330
1F
100
AcDbEntity
  8
LAYER2
  6
CONTINUOUS
100
AcDbCircle
 10
0.9842856483
 20
0.0468499999999996
 30
0.0
 40
0.0259999999999984
100
AcDbArc
 50
2.725106138299509
 51
67.38081531169958
  0
ARC
  5
217
330
1F
100
AcDbEntity
  8
LAYER2
  6
CONTINUOUS
100
AcDbCircle
 10
0.0
 20
0.0
 30
0.0
 40
1.01140000000019
100
AcDbArc
 50
357.2748938616999
 51
2.725106138299959
  0
ARC
  5
218
330
1F
100
AcDbEntity
  8
LAYER2
  6
CONTINUOUS
100
AcDbCircle
 10
0.9842856483
 20
-0.0468500000000005
 30
0.0
 40
0.0259999999999994
100
AcDbArc
 50
292.6191846882997
 51
357.2748938617006
  0
ARC
  5
219
330
1F
100
AcDbEntity
  8
LAYER2
  6
CONTINUOUS
100
AcDbCircle
 10
1.0019774519
 20
-0.0893117485000001
 30
0.0
 40
0.0199999999999991
100
AcDbArc
 50
112.6191846883003
 51
174.906374154301
  0
ARC
  5
21A
330
1F
100
AcDbEntity
  8
LAYER2
  6
CONTINUOUS
100
AcDbCircle
 10
0.0
 20
0.0
 30
0.0
 40
0.9859500000001767
100
AcDbArc
 50
20.09362584569999
 51
24.90637415429996
  0
ARC
  5
21B
330
1F
100
AcDbEntity
  8
LAYER2
  6
CONTINUOUS
100
AcDbCircle
 10
0.9447203166863163
 20
0.3455993717821979
 30
0.0
 40
0.0200000000000001
100
AcDbArc
 50
200.0936258456981
 51
262.3808153117002
  0
ARC
  5
21C
330
1F
100
AcDbEntity
  8
LAYER2
  6
CONTINUOUS
100
AcDbCircle
 10
0.938621255875596
 20
0.3000054965627639
 30
0.0
 40
0.0259999999999984
100
AcDbArc
 50
17.72510613830058
 51
82.38081531170029
  0
ARC
  5
21D
330
1F
100
AcDbEntity
  8
LAYER2
  6
CONTINUOUS
100
AcDbCircle
 10
0.0
 20
0.0
 30
0.0
 40
1.01140000000019
100
AcDbArc
 50
12.27489386169992
 51
17.72510613829999
  0
ARC
  5
21E
330
1F
100
AcDbEntity
  8
LAYER2
  6
CONTINUOUS
100
AcDbCircle
 10
0.9628726004017019
 20
0.2094982466394781
 30
0.0
 40
0.0259999999999994
100
AcDbArc
 50
307.6191846882999
 51
12.27489386169975
  0
ARC
  5
21F
330
1F
100
AcDbEntity
  8
LAYER2
  6
CONTINUOUS
100
AcDbCircle
 10
0.9909514796127292
 20
0.1730623228478301
 30
0.0
 40
0.0199999999999991
100
AcDbArc
 50
127.6191846882993
 51
189.9063741542994
  0
ARC
  5
220
330
1F
100
AcDbEntity
  8
LAYER2
  6
CONTINUOUS
100
AcDbCircle
 10
0.0
 20
0.0
 30
0.0
 40
0.9859500000001767
100
AcDbArc
 50
35.09362584569993
 51
39.90637415429994
  0
ARC
  5
221
330
1F
100
AcDbEntity
  8
LAYER2
  6
CONTINUOUS
100
AcDbCircle
 10
0.8230820531146008
 20
0.5783349690074058
 30
0.0
 40
0.0200000000000001
100
AcDbArc
 50
215.0936258456991
 51
277.3808153117002
  0
ARC
  5
222
330
1F
100
AcDbEntity
  8
LAYER2
  6
CONTINUOUS
100
AcDbCircle
 10
0.8289913760082359
 20
0.5327161143173003
 30
0.0
 40
0.0259999999999984
100
AcDbArc
 50
32.72510613829822
 51
97.38081531170016
  0
ARC
  5
223
330
1F
100
AcDbEntity
  8
LAYER2
  6
CONTINUOUS
100
AcDbCircle
 10
0.0
 20
0.0
 30
0.0
 40
1.01140000000019
100
AcDbArc
 50
27.2748938616999
 51
32.72510613829996
  0
ARC
  5
224
330
1F
100
AcDbEntity
  8
LAYER2
  6
CONTINUOUS
100
AcDbCircle
 10
0.8758413760082358
 20
0.4515695339826982
 30
0.0
 40
0.0259999999999994
100
AcDbArc
 50
322.6191846882998
 51
27.27489386169967
  0
ARC
  5
225
330
1F
100
AcDbEntity
  8
LAYER2
  6
CONTINUOUS
100
AcDbCircle
 10
0.9123938016146009
 20
0.4236424828925918
 30
0.0
 40
0.0199999999999991
100
AcDbArc
 50
142.619184688299
 51
204.906374154299
  0
ARC
  5
226
330
1F
100
AcDbEntity
  8
LAYER2
  6
CONTINUOUS
100
AcDbCircle
 10
0.0
 20
0.0
 30
0.0
 40
0.9859500000001767
100
AcDbArc
 50
50.09362584569997
 51
54.9063741543
  0
ARC
  5
227
330
1F
100
AcDbEntity
  8
LAYER2
  6
CONTINUOUS
100
AcDbCircle
 10
0.6453521078305304
 20
0.7716579938384847
 30
0.0
 40
0.0200000000000001
100
AcDbArc
 50
230.0936258456998
 51
292.3808153117
  0
ARC
  5
228
330
1F
100
AcDbEntity
  8
LAYER2
  6
CONTINUOUS
100
AcDbCircle
 10
0.6628671038389375
 20
0.7291230092361163
 30
0.0
 40
0.0259999999999984
100
AcDbArc
 50
47.72510613830136
 51
112.3808153117004
  0
ARC
  5
229
330
1F
100
AcDbEntity
  8
LAYER2
  6
CONTINUOUS
100
AcDbCircle
 10
0.0
 20
0.0
 30
0.0
 40
1.01140000000019
100
AcDbArc
 50
42.27489386169995
 51
47.72510613829998
  0
ARC
  5
22A
330
1F
100
AcDbEntity
  8
LAYER2
  6
CONTINUOUS
100
AcDbCircle
 10
0.729123009236117
 20
0.6628671038389369
 30
0.0
 40
0.0259999999999994
100
AcDbArc
 50
337.6191846883016
 51
42.27489386170082
  0
ARC
  5
22B
330
1F
100
AcDbEntity
  8
LAYER2
  6
CONTINUOUS
100
AcDbCircle
 10
0.7716579938384853
 20
0.6453521078305302
 30
0.0
 40
0.0199999999999991
100
AcDbArc
 50
157.6191846883005
 51
219.9063741543008
  0
ARC
  5
22C
330
1F
100
AcDbEntity
  8
LAYER2
  6
CONTINUOUS
100
AcDbCircle
 10
0.0
 20
0.0
 30
0.0
 40
0.9859500000001767
100
AcDbArc
 50
65.09362584569999
 51
69.90637415429997
  0
ARC
  5
22D
330
1F
100
AcDbEntity
  8
LAYER2
  6
CONTINUOUS
100
AcDbCircle
 10
0.4236424828925938
 20
0.9123938016146003
 30
0.0
 40
0.0200000000000001
100
AcDbArc
 50
245.0936258457003
 51
307.3808153116993
  0
ARC
  5
22E
330
1F
100
AcDbEntity
  8
LAYER2
  6
CONTINUOUS
100
AcDbCircle
 10
0.4515695339826995
 20
0.8758413760082346
 30
0.0
 40
0.0259999999999984
100
AcDbArc
 50
62.72510613829986
 51
127.3808153116998
  0
ARC
  5
22F
330
1F
100
AcDbEntity
  8
LAYER2
  6
CONTINUOUS
100
AcDbCircle
 10
0.0
 20
0.0
 30
0.0
 40
1.01140000000019
100
AcDbArc
 50
57.27489386169993
 51
62.72510613829995
  0
ARC
  5
230
330
1F
100
AcDbEntity
  8
LAYER2
  6
CONTINUOUS
100
AcDbCircle
 10
0.5327161143173014
 20
0.8289913760082355
 30
0.0
 40
0.0259999999999994
100
AcDbArc
 50
352.6191846882992
 51
57.2748938616989
  0
ARC
  5
231
330
1F
100
AcDbEntity
  8
LAYER2
  6
CONTINUOUS
100
AcDbCircle
 10
0.5783349690074071
 20
0.8230820531146001
 30
0.0
 40
0.0199999999999991
100
AcDbArc
 50
172.6191846883021
 51
234.9063741543003
  0
ARC
  5
232
330
1F
100
AcDbEntity
  8
LAYER2
  6
CONTINUOUS
100
AcDbCircle
 10
0.0
 20
0.0
 30
0.0
 40
0.9859500000001766
100
AcDbArc
 50
80.09362584569996
 51
84.90637415429995
  0
ARC
  5
233
330
1F
100
AcDbEntity
  8
LAYER2
  6
CONTINUOUS
100
AcDbCircle
 10
0.1730623228478319
 20
0.990951479612729
 30
0.0
 40
0.0200000000000001
100
AcDbArc
 50
260.0936258456998
 51
322.3808153116988
  0
ARC
  5
234
330
1F
100
AcDbEntity
  8
LAYER2
  6
CONTINUOUS
100
AcDbCircle
 10
0.2094982466394795
 20
0.9628726004017016
 30
0.0
 40
0.0259999999999984
100
AcDbArc
 50
77.72510613829928
 51
142.3808153117
  0
ARC
  5
235
330
1F
100
AcDbEntity
  8
LAYER2
  6
CONTINUOUS
100
AcDbCircle
 10
0.0
 20
0.0
 30
0.0
 40
1.01140000000019
100
AcDbArc
 50
72.27489386169994
 51
77.72510613829996
  0
ARC
  5
236
330
1F
100
AcDbEntity
  8
LAYER2
  6
CONTINUOUS
100
AcDbCircle
 10
0.3000054965627652
 20
0.9386212558755949
 30
0.0
 40
0.0259999999999994
100
AcDbArc
 50
7.6191846883003
 51
72.27489386170002
  0
ARC
  5
237
330
1F
100
AcDbEntity
  8
LAYER2
  6
CONTINUOUS
100
AcDbCircle
 10
0.3455993717821997
 20
0.9447203166863156
 30
0.0
 40
0.0199999999999991
100
AcDbArc
 50
187.6191846883
 51
249.9063741542994
  0
ENDSEC
  0
SECTION
  2
OBJECTS
  0
DICTIONARY
  5
C
330
0
100
AcDbDictionary
  3
ACAD_GROUP
350
D
  3
ACAD_IMAGE_VARS
350
DC
  3
ACAD_MLINESTYLE
350
17
  3
ACAD_SCALELIST
350
B6
  3
ACDBVARIABLEDICTIONARY
350
66
  3
APPDATA
350
E1
  3
DWGPROPS
350
238
  0
DICTIONARY
  5
1A3
330
2
100
AcDbDictionary
280
     1
  3
ACAD_LAYERSTATES
360
1A4
  0
DICTIONARY
  5
D
102
{ACAD_REACTORS
330
C
102
}
330
C
100
AcDbDictionary
  0
RASTERVARIABLES
  5
DC
102
{ACAD_REACTORS
330
C
102
}
330
C
100
AcDbRasterVariables
 90
        0
 70
     1
 71
     1
 72
     5
  0
DICTIONARY
  5
17
102
{ACAD_REACTORS
330
C
102
}
330
C
100
AcDbDictionary
  3
STANDARD
350
18
  0
DICTIONARY
  5
B6
102
{ACAD_REACTORS
330
C
102
}
330
C
100
AcDbDictionary
  0
DICTIONARY
  5
66
102
{ACAD_REACTORS
330
C
102
}
330
C
100
AcDbDictionary
  3
DIMASSOC
350
67
  3
HIDETEXT
350
6B
  0
DICTIONARY
  5
E1
102
{ACAD_REACTORS
330
C
102
}
330
C
100
AcDbDictionary
  0
XRECORD
  5
238
102
{ACAD_REACTORS
330
C
102
}
330
C
100
AcDbXrecord
  1
DWGPROPS COOKIE
  2

  3

  4

  6

  7

  8
NickC
  9

300
=
301
=
302
=
303
=
304
=
305
=
306
=
307
=
308
=
309
=
 40
0.0
 41
2452643.063384271
 42
2458578.919721748
  1

 90
        0
  0
DICTIONARY
  5
1A4
102
{ACAD_REACTORS
330
1A3
102
}
330
1A3
100
AcDbDictionary
  0
MLINESTYLE
  5
18
102
{ACAD_REACTORS
330
17
102
}
330
17
100
AcDbMlineStyle
  2
STANDARD
 70
     0
  3

 62
   256
 51
90.0
 52
90.0
 71
     2
 49
0.5
 62
   256
  6
BYLAYER
 49
-0.5
 62
   256
  6
BYLAYER
  0
DICTIONARYVAR
  5
67
102
{ACAD_REACTORS
330
66
102
}
330
66
100
DictionaryVariables
280
     0
  1
2
  0
DICTIONARYVAR
  5
6B
102
{ACAD_REACTORS
330
66
102
}
330
66
100
DictionaryVariables
280
     0
  1
1
  0
ENDSEC
  0
EOF
