  0
SECTION
  2
HEADER
  9
$ACADVER
  1
AC1014
  9
$ACADMAINTVER
 70
     9
  9
$DWGCODEPAGE
  3
ANSI_1252
  9
$INSBASE
 10
0.0
 20
0.0
 30
0.0
  9
$EXTMIN
 10
-1.003549999999824
 20
-1.003549999999824
 30
0.0
  9
$EXTMAX
 10
1.003549999999824
 20
1.003549999999824
 30
0.0
  9
$LIMMIN
 10
0.0
 20
0.0
  9
$LIMMAX
 10
12.0
 20
9.0
  9
$ORTHOMODE
 70
     0
  9
$REGENMODE
 70
     1
  9
$FILLMODE
 70
     1
  9
$QTEXTMODE
 70
     0
  9
$MIRRTEXT
 70
     0
  9
$DRAGMODE
 70
     2
  9
$LTSCALE
 40
1.0
  9
$OSMODE
 70
 13311
  9
$ATTMODE
 70
     1
  9
$TEXTSIZE
 40
0.2
  9
$TRACEWID
 40
0.05
  9
$TEXTSTYLE
  7
STANDARD
  9
$CLAYER
  8
0
  9
$CELTYPE
  6
BYLAYER
  9
$CECOLOR
 62
   256
  9
$CELTSCALE
 40
1.0
  9
$DELOBJ
 70
     1
  9
$DISPSILH
 70
     0
  9
$DIMSCALE
 40
1.0
  9
$DIMASZ
 40
0.18
  9
$DIMEXO
 40
0.0625
  9
$DIMDLI
 40
0.38
  9
$DIMRND
 40
0.0
  9
$DIMDLE
 40
0.0
  9
$DIMEXE
 40
0.18
  9
$DIMTP
 40
0.0
  9
$DIMTM
 40
0.0
  9
$DIMTXT
 40
0.18
  9
$DIMCEN
 40
0.09
  9
$DIMTSZ
 40
0.0
  9
$DIMTOL
 70
     0
  9
$DIMLIM
 70
     0
  9
$DIMTIH
 70
     1
  9
$DIMTOH
 70
     1
  9
$DIMSE1
 70
     0
  9
$DIMSE2
 70
     0
  9
$DIMTAD
 70
     0
  9
$DIMZIN
 70
     0
  9
$DIMBLK
  1

  9
$DIMASO
 70
     1
  9
$DIMSHO
 70
     1
  9
$DIMPOST
  1

  9
$DIMAPOST
  1

  9
$DIMALT
 70
     0
  9
$DIMALTD
 70
     2
  9
$DIMALTF
 40
25.4
  9
$DIMLFAC
 40
1.0
  9
$DIMTOFL
 70
     0
  9
$DIMTVP
 40
0.0
  9
$DIMTIX
 70
     0
  9
$DIMSOXD
 70
     0
  9
$DIMSAH
 70
     0
  9
$DIMBLK1
  1

  9
$DIMBLK2
  1

  9
$DIMSTYLE
  2
STANDARD
  9
$DIMCLRD
 70
     0
  9
$DIMCLRE
 70
     0
  9
$DIMCLRT
 70
     0
  9
$DIMTFAC
 40
1.0
  9
$DIMGAP
 40
0.09
  9
$DIMJUST
 70
     0
  9
$DIMSD1
 70
     0
  9
$DIMSD2
 70
     0
  9
$DIMTOLJ
 70
     1
  9
$DIMTZIN
 70
     0
  9
$DIMALTZ
 70
     0
  9
$DIMALTTZ
 70
     0
  9
$DIMFIT
 70
     3
  9
$DIMUPT
 70
     0
  9
$DIMUNIT
 70
     2
  9
$DIMDEC
 70
     4
  9
$DIMTDEC
 70
     4
  9
$DIMALTU
 70
     2
  9
$DIMALTTD
 70
     2
  9
$DIMTXSTY
  7
STANDARD
  9
$DIMAUNIT
 70
     0
  9
$LUNITS
 70
     2
  9
$LUPREC
 70
     4
  9
$SKETCHINC
 40
0.1
  9
$FILLETRAD
 40
0.0
  9
$AUNITS
 70
     0
  9
$AUPREC
 70
     0
  9
$MENU
  1
.
  9
$ELEVATION
 40
0.0
  9
$PELEVATION
 40
0.0
  9
$THICKNESS
 40
0.0
  9
$LIMCHECK
 70
     0
  9
$CHAMFERA
 40
0.0
  9
$CHAMFERB
 40
0.0
  9
$CHAMFERC
 40
0.0
  9
$CHAMFERD
 40
0.0
  9
$SKPOLY
 70
     0
  9
$TDCREATE
 40
2452642.771717604
  9
$TDUPDATE
 40
2458578.628794965
  9
$TDINDWG
 40
0.0005242593
  9
$TDUSRTIMER
 40
2458578.9199375
  9
$USRTIMER
 70
     1
  9
$ANGBASE
 50
0.0
  9
$ANGDIR
 70
     0
  9
$PDMODE
 70
     0
  9
$PDSIZE
 40
0.0
  9
$PLINEWID
 40
0.0
  9
$COORDS
 70
     1
  9
$SPLFRAME
 70
     0
  9
$SPLINETYPE
 70
     6
  9
$SPLINESEGS
 70
     8
  9
$ATTDIA
 70
     0
  9
$ATTREQ
 70
     1
  9
$HANDLING
 70
     1
  9
$HANDSEED
  5
239
  9
$SURFTAB1
 70
     6
  9
$SURFTAB2
 70
     6
  9
$SURFTYPE
 70
     6
  9
$SURFU
 70
     6
  9
$SURFV
 70
     6
  9
$UCSNAME
  2

  9
$UCSORG
 10
0.0
 20
0.0
 30
0.0
  9
$UCSXDIR
 10
1.0
 20
0.0
 30
0.0
  9
$UCSYDIR
 10
0.0
 20
1.0
 30
0.0
  9
$PUCSNAME
  2

  9
$PUCSORG
 10
0.0
 20
0.0
 30
0.0
  9
$PUCSXDIR
 10
1.0
 20
0.0
 30
0.0
  9
$PUCSYDIR
 10
0.0
 20
1.0
 30
0.0
  9
$USERI1
 70
     0
  9
$USERI2
 70
     0
  9
$USERI3
 70
     0
  9
$USERI4
 70
     0
  9
$USERI5
 70
     0
  9
$USERR1
 40
0.0
  9
$USERR2
 40
0.0
  9
$USERR3
 40
0.0
  9
$USERR4
 40
0.0
  9
$USERR5
 40
0.0
  9
$WORLDVIEW
 70
     1
  9
$SHADEDGE
 70
     3
  9
$SHADEDIF
 70
    70
  9
$TILEMODE
 70
     1
  9
$MAXACTVP
 70
    64
  9
$PINSBASE
 10
0.0
 20
0.0
 30
0.0
  9
$PLIMCHECK
 70
     0
  9
$PEXTMIN
 10
0.0
 20
0.0
 30
0.0
  9
$PEXTMAX
 10
0.0
 20
0.0
 30
0.0
  9
$PLIMMIN
 10
0.0
 20
0.0
  9
$PLIMMAX
 10
0.0
 20
0.0
  9
$UNITMODE
 70
     0
  9
$VISRETAIN
 70
     1
  9
$PLINEGEN
 70
     0
  9
$PSLTSCALE
 70
     1
  9
$TREEDEPTH
 70
  3020
  9
$PICKSTYLE
 70
     0
  9
$CMLSTYLE
  2
STANDARD
  9
$CMLJUST
 70
     0
  9
$CMLSCALE
 40
1.0
  9
$PROXYGRAPHICS
 70
     1
  9
$MEASUREMENT
 70
     0
  0
ENDSEC
  0
SECTION
  2
CLASSES
  0
CLASS
  1
ACDBDICTIONARYWDFLT
  2
AcDbDictionaryWithDefault
  3
ObjectDBX Classes
 90
        0
280
     0
281
     0
  0
CLASS
  1
ACDBPLACEHOLDER
  2
AcDbPlaceHolder
  3
ObjectDBX Classes
 90
        0
280
     0
281
     0
  0
CLASS
  1
LAYOUT
  2
AcDbLayout
  3
ObjectDBX Classes
 90
        0
280
     0
281
     0
  0
CLASS
  1
DICTIONARYVAR
  2
AcDbDictionaryVar
  3
ObjectDBX Classes
 90
        0
280
     0
281
     0
  0
CLASS
  1
TABLESTYLE
  2
AcDbTableStyle
  3
ObjectDBX Classes
 90
     4095
280
     0
281
     0
  0
CLASS
  1
MATERIAL
  2
AcDbMaterial
  3
ObjectDBX Classes
 90
     1153
280
     0
281
     0
  0
CLASS
  1
VISUALSTYLE
  2
AcDbVisualStyle
  3
ObjectDBX Classes
 90
     4095
280
     0
281
     0
  0
CLASS
  1
SCALE
  2
AcDbScale
  3
ObjectDBX Classes
 90
     1153
280
     0
281
     0
  0
CLASS
  1
CELLSTYLEMAP
  2
AcDbCellStyleMap
  3
ObjectDBX Classes
 90
     1152
280
     0
281
     0
  0
CLASS
  1
RASTERVARIABLES
  2
AcDbRasterVariables
  3
ISM
 90
        0
280
     0
281
     0
  0
CLASS
  1
MLEADERSTYLE
  2
AcDbMLeaderStyle
  3
ACDB_MLEADERSTYLE_CLASS
 90
     4095
280
     0
281
     0
  0
CLASS
  1
SUN
  2
AcDbSun
  3
SCENEOE
 90
     1153
280
     0
281
     0
  0
CLASS
  1
XRECORD
  2
AcDbXrecord
  3
ObjectDBX Classes
 90
        0
280
     0
281
     0
  0
CLASS
  1
LWPOLYLINE
  2
AcDbPolyline
  3
ObjectDBX Classes
 90
        0
280
     0
281
     1
  0
CLASS
  1
HATCH
  2
AcDbHatch
  3
ObjectDBX Classes
 90
        0
280
     0
281
     1
  0
ENDSEC
  0
SECTION
  2
TABLES
  0
TABLE
  2
VPORT
  5
8
330
0
100
AcDbSymbolTable
 70
     1
  0
VPORT
  5
94
330
8
100
AcDbSymbolTableRecord
100
AcDbViewportTableRecord
  2
*ACTIVE
 70
     0
 10
0.0
 20
0.0
 11
1.0
 21
1.0
 12
0.3237605060525912
 22
-0.0682147804196371
 13
0.0
 23
0.0
 14
0.5
 24
0.5
 15
0.5
 25
0.5
 16
0.0
 26
0.0
 36
1.0
 17
-0.0000259930315463
 27
0.0
 37
0.0
 40
2.558919935538665
 41
1.982408660351827
 42
50.0
 43
0.0
 44
0.0
 50
0.0
 51
0.0
 71
    16
 72
  1000
 73
     1
 74
     3
 75
     0
 76
     0
 77
     0
 78
     0
  0
ENDTAB
  0
TABLE
  2
LTYPE
  5
5
330
0
100
AcDbSymbolTable
 70
     1
  0
LTYPE
  5
14
330
5
100
AcDbSymbolTableRecord
100
AcDbLinetypeTableRecord
  2
BYBLOCK
 70
     0
  3

 72
    65
 73
     0
 40
0.0
  0
LTYPE
  5
15
330
5
100
AcDbSymbolTableRecord
100
AcDbLinetypeTableRecord
  2
BYLAYER
 70
     0
  3

 72
    65
 73
     0
 40
0.0
  0
LTYPE
  5
16
330
5
100
AcDbSymbolTableRecord
100
AcDbLinetypeTableRecord
  2
CONTINUOUS
 70
     0
  3
Solid line
 72
    65
 73
     0
 40
0.0
  0
ENDTAB
  0
TABLE
  2
LAYER
  5
2
102
{ACAD_XDICTIONARY
360
1A3
102
}
330
0
100
AcDbSymbolTable
 70
     2
  0
LAYER
  5
10
330
2
100
AcDbSymbolTableRecord
100
AcDbLayerTableRecord
  2
0
 70
     0
 62
     7
  6
CONTINUOUS
  0
LAYER
  5
F0
330
2
100
AcDbSymbolTableRecord
100
AcDbLayerTableRecord
  2
LAYER1
 70
     0
 62
     5
  6
CONTINUOUS
1001
ACAECLAYERSTANDARD
1000

1000

  0
ENDTAB
  0
TABLE
  2
STYLE
  5
3
330
0
100
AcDbSymbolTable
 70
     1
  0
STYLE
  5
11
330
3
100
AcDbSymbolTableRecord
100
AcDbTextStyleTableRecord
  2
STANDARD
 70
     0
 40
0.0
 41
1.0
 50
0.0
 71
     0
 42
0.2
  3
txt
  4

  0
ENDTAB
  0
TABLE
  2
VIEW
  5
6
330
0
100
AcDbSymbolTable
 70
     0
  0
ENDTAB
  0
TABLE
  2
UCS
  5
7
330
0
100
AcDbSymbolTable
 70
     0
  0
ENDTAB
  0
TABLE
  2
APPID
  5
9
330
0
100
AcDbSymbolTable
 70
     2
  0
APPID
  5
12
330
9
100
AcDbSymbolTableRecord
100
AcDbRegAppTableRecord
  2
ACAD
 70
     0
  0
APPID
  5
F2
330
9
100
AcDbSymbolTableRecord
100
AcDbRegAppTableRecord
  2
ACAECLAYERSTANDARD
 70
     0
  0
ENDTAB
  0
TABLE
  2
DIMSTYLE
  5
A
330
0
100
AcDbSymbolTable
 70
     1
  0
DIMSTYLE
105
27
330
A
100
AcDbSymbolTableRecord
100
AcDbDimStyleTableRecord
  2
STANDARD
 70
     0
  3

  4

  5

  6

  7

 40
1.0
 41
0.18
 42
0.0625
 43
0.38
 44
0.18
 45
0.0
 46
0.0
 47
0.0
 48
0.0
140
0.18
141
0.09
142
0.0
143
25.4
144
1.0
145
0.0
146
1.0
147
0.09
 71
     0
 72
     0
 73
     1
 74
     1
 75
     0
 76
     0
 77
     0
 78
     0
170
     0
171
     2
172
     0
173
     0
174
     0
175
     0
176
     0
177
     0
178
     0
270
     2
271
     4
272
     4
273
     2
274
     2
340
11
275
     0
280
     0
281
     0
282
     0
283
     1
284
     0
285
     0
286
     0
287
     3
288
     0
  0
ENDTAB
  0
TABLE
  2
BLOCK_RECORD
  5
1
330
0
100
AcDbSymbolTable
 70
     2
  0
BLOCK_RECORD
  5
1F
330
1
100
AcDbSymbolTableRecord
100
AcDbBlockTableRecord
  2
*MODEL_SPACE
  0
BLOCK_RECORD
  5
58
330
1
100
AcDbSymbolTableRecord
100
AcDbBlockTableRecord
  2
*PAPER_SPACE
  0
BLOCK_RECORD
  5
5D
330
1
100
AcDbSymbolTableRecord
100
AcDbBlockTableRecord
  2
*PAPER_SPACE0
  0
ENDTAB
  0
ENDSEC
  0
SECTION
  2
BLOCKS
  0
BLOCK
  5
20
330
1F
100
AcDbEntity
  8
0
100
AcDbBlockBegin
  2
*MODEL_SPACE
 70
     0
 10
0.0
 20
0.0
 30
0.0
  3
*MODEL_SPACE
  1

  0
ENDBLK
  5
21
330
1F
100
AcDbEntity
  8
0
100
AcDbBlockEnd
  0
BLOCK
  5
5A
330
58
100
AcDbEntity
 67
     1
  8
0
100
AcDbBlockBegin
  2
*PAPER_SPACE
 70
     0
 10
0.0
 20
0.0
 30
0.0
  3
*PAPER_SPACE
  1

  0
ENDBLK
  5
5B
330
58
100
AcDbEntity
 67
     1
  8
0
100
AcDbBlockEnd
  0
BLOCK
  5
5F
330
5D
100
AcDbEntity
  8
0
100
AcDbBlockBegin
  2
*PAPER_SPACE0
 70
     0
 10
0.0
 20
0.0
 30
0.0
  3
*PAPER_SPACE0
  1

  0
ENDBLK
  5
60
330
5D
100
AcDbEntity
  8
0
100
AcDbBlockEnd
  0
ENDSEC
  0
SECTION
  2
ENTITIES
  0
ARC
  5
1A8
330
1F
100
AcDbEntity
  8
LAYER1
  6
CONTINUOUS
100
AcDbCircle
 10
0.0672909472000001
 20
0.9863573139999999
 30
0.0
 40
0.0040000000000001
100
AcDbArc
 50
212.6171664476986
 51
266.0972332581977
  0
ARC
  5
1A9
330
1F
100
AcDbEntity
  8
LAYER1
  6
CONTINUOUS
100
AcDbCircle
 10
0.029387855
 20
0.9621012714000001
 30
0.0
 40
0.0409999999999992
100
AcDbArc
 50
32.6171664476996
 51
88.25041632839998
  0
ARC
  5
1AA
330
1F
100
AcDbEntity
  8
LAYER1
  6
CONTINUOUS
100
AcDbCircle
 10
0.0
 20
0.0
 30
0.0
 40
1.003549999999824
100
AcDbArc
 50
88.2504163284
 51
91.74958367159999
  0
ARC
  5
1AB
330
1F
100
AcDbEntity
  8
LAYER1
  6
CONTINUOUS
100
AcDbCircle
 10
-0.029387855
 20
0.9621012714000001
 30
0.0
 40
0.0410000000000004
100
AcDbArc
 50
91.74958367159998
 51
147.3828335523
  0
ARC
  5
1AC
330
1F
100
AcDbEntity
  8
LAYER1
  6
CONTINUOUS
100
AcDbCircle
 10
-0.0672909472000001
 20
0.9863573139999999
 30
0.0
 40
0.004
100
AcDbArc
 50
273.9027667418007
 51
327.3828335523003
  0
ARC
  5
1AD
330
1F
100
AcDbEntity
  8
LAYER1
  6
CONTINUOUS
100
AcDbCircle
 10
0.0
 20
0.0
 30
0.0
 40
0.984650000000039
100
AcDbArc
 50
93.9027667418
 51
101.0972332582
  0
ARC
  5
1AE
330
1F
100
AcDbEntity
  8
LAYER1
  6
CONTINUOUS
100
AcDbCircle
 10
-0.1902899943634331
 20
0.9701641822400642
 30
0.0
 40
0.0040000000000001
100
AcDbArc
 50
227.6171664477035
 51
281.0972332581995
  0
ARC
  5
1AF
330
1F
100
AcDbEntity
  8
LAYER1
  6
CONTINUOUS
100
AcDbCircle
 10
-0.2206236442319308
 20
0.9369246021195197
 30
0.0
 40
0.0409999999999992
100
AcDbArc
 50
47.6171664476997
 51
103.2504163284001
  0
ARC
  5
1B0
330
1F
100
AcDbEntity
  8
LAYER1
  6
CONTINUOUS
100
AcDbCircle
 10
0.0
 20
0.0
 30
0.0
 40
1.003549999999824
100
AcDbArc
 50
103.2504163284
 51
106.7495836716
  0
ARC
  5
1B1
330
1F
100
AcDbEntity
  8
LAYER1
  6
CONTINUOUS
100
AcDbCircle
 10
-0.2773966204794075
 20
0.9217123289820968
 30
0.0
 40
0.0410000000000004
100
AcDbArc
 50
106.7495836716
 51
162.3828335522995
  0
ARC
  5
1B2
330
1F
100
AcDbEntity
  8
LAYER1
  6
CONTINUOUS
100
AcDbCircle
 10
-0.3202861219153013
 20
0.9353318248433682
 30
0.0
 40
0.004
100
AcDbArc
 50
288.9027667417982
 51
342.3828335522936
  0
ARC
  5
1B3
330
1F
100
AcDbEntity
  8
LAYER1
  6
CONTINUOUS
100
AcDbCircle
 10
0.0
 20
0.0
 30
0.0
 40
0.9846500000000389
100
AcDbArc
 50
108.9027667418
 51
116.0972332582
  0
ARC
  5
1B4
330
1F
100
AcDbEntity
  8
LAYER1
  6
CONTINUOUS
100
AcDbCircle
 10
-0.4349029872800826
 20
0.8878559647325843
 30
0.0
 40
0.0040000000000001
100
AcDbArc
 50
242.617166447697
 51
296.0972332581999
  0
ARC
  5
1B5
330
1F
100
AcDbEntity
  8
LAYER1
  6
CONTINUOUS
100
AcDbCircle
 10
-0.4556000067072664
 20
0.8478980695457066
 30
0.0
 40
0.0409999999999992
100
AcDbArc
 50
62.61716644770016
 51
118.2504163283998
  0
ARC
  5
1B6
330
1F
100
AcDbEntity
  8
LAYER1
  6
CONTINUOUS
100
AcDbCircle
 10
0.0
 20
0.0
 30
0.0
 40
1.003549999999824
100
AcDbArc
 50
118.2504163284
 51
121.7495836716
  0
ARC
  5
1B7
330
1F
100
AcDbEntity
  8
LAYER1
  6
CONTINUOUS
100
AcDbCircle
 10
-0.5065012646927335
 20
0.818510214545707
 30
0.0
 40
0.0410000000000004
100
AcDbArc
 50
121.7495836716002
 51
177.3828335523003
  0
ARC
  5
1B8
330
1F
100
AcDbEntity
  8
LAYER1
  6
CONTINUOUS
100
AcDbCircle
 10
-0.5514543267199173
 20
0.8205650175325843
 30
0.0
 40
0.004
100
AcDbArc
 50
303.9027667418028
 51
357.3828335523015
  0
ARC
  5
1B9
330
1F
100
AcDbEntity
  8
LAYER1
  6
CONTINUOUS
100
AcDbCircle
 10
0.0
 20
0.0
 30
0.0
 40
0.984650000000039
100
AcDbArc
 50
123.9027667418
 51
131.0972332582
  0
ARC
  5
1BA
330
1F
100
AcDbEntity
  8
LAYER1
  6
CONTINUOUS
100
AcDbCircle
 10
-0.6498780603247627
 20
0.7450418304799349
 30
0.0
 40
0.0040000000000001
100
AcDbArc
 50
257.617166447701
 51
311.097233258196
  0
ARC
  5
1BB
330
1F
100
AcDbEntity
  8
LAYER1
  6
CONTINUOUS
100
AcDbCircle
 10
-0.659527981640112
 20
0.7010886847501661
 30
0.0
 40
0.0409999999999992
100
AcDbArc
 50
77.61716644769982
 51
133.2504163283998
  0
ARC
  5
1BC
330
1F
100
AcDbEntity
  8
LAYER1
  6
CONTINUOUS
100
AcDbCircle
 10
0.0
 20
0.0
 30
0.0
 40
1.003549999999824
100
AcDbArc
 50
133.2504163284
 51
136.7495836716
  0
ARC
  5
1BD
330
1F
100
AcDbEntity
  8
LAYER1
  6
CONTINUOUS
100
AcDbCircle
 10
-0.701088684750166
 20
0.6595279816401118
 30
0.0
 40
0.0410000000000004
100
AcDbArc
 50
136.7495836715998
 51
192.3828335522996
  0
ARC
  5
1BE
330
1F
100
AcDbEntity
  8
LAYER1
  6
CONTINUOUS
100
AcDbCircle
 10
-0.7450418304799347
 20
0.6498780603247629
 30
0.0
 40
0.004
100
AcDbArc
 50
318.902766741802
 51
12.38283355229659
  0
ARC
  5
1BF
330
1F
100
AcDbEntity
  8
LAYER1
  6
CONTINUOUS
100
AcDbCircle
 10
0.0
 20
0.0
 30
0.0
 40
0.984650000000039
100
AcDbArc
 50
138.9027667418
 51
146.0972332582
  0
ARC
  5
1C0
330
1F
100
AcDbEntity
  8
LAYER1
  6
CONTINUOUS
100
AcDbCircle
 10
-0.8205650175325843
 20
0.5514543267199172
 30
0.0
 40
0.0040000000000001
100
AcDbArc
 50
272.6171664477001
 51
326.0972332582025
  0
ARC
  5
1C1
330
1F
100
AcDbEntity
  8
LAYER1
  6
CONTINUOUS
100
AcDbCircle
 10
-0.8185102145457068
 20
0.5065012646927336
 30
0.0
 40
0.0409999999999992
100
AcDbArc
 50
92.61716644769982
 51
148.2504163283999
  0
ARC
  5
1C2
330
1F
100
AcDbEntity
  8
LAYER1
  6
CONTINUOUS
100
AcDbCircle
 10
0.0
 20
0.0
 30
0.0
 40
1.003549999999824
100
AcDbArc
 50
148.2504163284
 51
151.7495836716
  0
ARC
  5
1C3
330
1F
100
AcDbEntity
  8
LAYER1
  6
CONTINUOUS
100
AcDbCircle
 10
-0.8478980695457068
 20
0.4556000067072665
 30
0.0
 40
0.0410000000000004
100
AcDbArc
 50
151.7495836715999
 51
207.3828335523
  0
ARC
  5
1C4
330
1F
100
AcDbEntity
  8
LAYER1
  6
CONTINUOUS
100
AcDbCircle
 10
-0.8878559647325843
 20
0.4349029872800829
 30
0.0
 40
0.004
100
AcDbArc
 50
333.902766741798
 51
27.38283355229731
  0
ARC
  5
1C5
330
1F
100
AcDbEntity
  8
LAYER1
  6
CONTINUOUS
100
AcDbCircle
 10
0.0
 20
0.0
 30
0.0
 40
0.984650000000039
100
AcDbArc
 50
153.9027667418
 51
161.0972332582
  0
ARC
  5
1C6
330
1F
100
AcDbEntity
  8
LAYER1
  6
CONTINUOUS
100
AcDbCircle
 10
-0.9353318248433679
 20
0.3202861219153015
 30
0.0
 40
0.0040000000000001
100
AcDbArc
 50
287.6171664477012
 51
341.0972332582026
  0
ARC
  5
1C7
330
1F
100
AcDbEntity
  8
LAYER1
  6
CONTINUOUS
100
AcDbCircle
 10
-0.9217123289820968
 20
0.2773966204794076
 30
0.0
 40
0.0409999999999992
100
AcDbArc
 50
107.6171664476999
 51
163.2504163283999
  0
ARC
  5
1C8
330
1F
100
AcDbEntity
  8
LAYER1
  6
CONTINUOUS
100
AcDbCircle
 10
0.0
 20
0.0
 30
0.0
 40
1.003549999999824
100
AcDbArc
 50
163.2504163284
 51
166.7495836716
  0
ARC
  5
1C9
330
1F
100
AcDbEntity
  8
LAYER1
  6
CONTINUOUS
100
AcDbCircle
 10
-0.9369246021195194
 20
0.2206236442319309
 30
0.0
 40
0.0410000000000004
100
AcDbArc
 50
166.7495836716
 51
222.3828335522998
  0
ARC
  5
1CA
330
1F
100
AcDbEntity
  8
LAYER1
  6
CONTINUOUS
100
AcDbCircle
 10
-0.9701641822400641
 20
0.1902899943634333
 30
0.0
 40
0.004
100
AcDbArc
 50
348.9027667418007
 51
42.38283355230147
  0
ARC
  5
1CB
330
1F
100
AcDbEntity
  8
LAYER1
  6
CONTINUOUS
100
AcDbCircle
 10
0.0
 20
0.0
 30
0.0
 40
0.984650000000039
100
AcDbArc
 50
168.9027667418
 51
176.0972332582
  0
ARC
  5
1CC
330
1F
100
AcDbEntity
  8
LAYER1
  6
CONTINUOUS
100
AcDbCircle
 10
-0.986357314
 20
0.0672909472000001
 30
0.0
 40
0.0040000000000001
100
AcDbArc
 50
302.6171664477
 51
356.097233258201
  0
ARC
  5
1CD
330
1F
100
AcDbEntity
  8
LAYER1
  6
CONTINUOUS
100
AcDbCircle
 10
-0.9621012714
 20
0.029387855
 30
0.0
 40
0.0409999999999992
100
AcDbArc
 50
122.6171664476999
 51
178.2504163284
  0
ARC
  5
1CE
330
1F
100
AcDbEntity
  8
LAYER1
  6
CONTINUOUS
100
AcDbCircle
 10
0.0
 20
0.0
 30
0.0
 40
1.003549999999824
100
AcDbArc
 50
178.2504163284
 51
181.7495836715999
  0
ARC
  5
1CF
330
1F
100
AcDbEntity
  8
LAYER1
  6
CONTINUOUS
100
AcDbCircle
 10
-0.9621012714
 20
-0.029387855
 30
0.0
 40
0.0410000000000004
100
AcDbArc
 50
181.7495836716
 51
237.3828335522999
  0
ARC
  5
1D0
330
1F
100
AcDbEntity
  8
LAYER1
  6
CONTINUOUS
100
AcDbCircle
 10
-0.986357314
 20
-0.0672909471999998
 30
0.0
 40
0.004
100
AcDbArc
 50
3.902766741799095
 51
57.38283355229967
  0
ARC
  5
1D1
330
1F
100
AcDbEntity
  8
LAYER1
  6
CONTINUOUS
100
AcDbCircle
 10
0.0
 20
0.0
 30
0.0
 40
0.984650000000039
100
AcDbArc
 50
183.9027667417999
 51
191.0972332582
  0
ARC
  5
1D2
330
1F
100
AcDbEntity
  8
LAYER1
  6
CONTINUOUS
100
AcDbCircle
 10
-0.9701641822400642
 20
-0.1902899943634331
 30
0.0
 40
0.0040000000000001
100
AcDbArc
 50
317.6171664477042
 51
11.097233258199
  0
ARC
  5
1D3
330
1F
100
AcDbEntity
  8
LAYER1
  6
CONTINUOUS
100
AcDbCircle
 10
-0.9369246021195196
 20
-0.2206236442319307
 30
0.0
 40
0.0409999999999992
100
AcDbArc
 50
137.6171664476999
 51
193.2504163284001
  0
ARC
  5
1D4
330
1F
100
AcDbEntity
  8
LAYER1
  6
CONTINUOUS
100
AcDbCircle
 10
0.0
 20
0.0
 30
0.0
 40
1.003549999999824
100
AcDbArc
 50
193.2504163283999
 51
196.7495836716
  0
ARC
  5
1D5
330
1F
100
AcDbEntity
  8
LAYER1
  6
CONTINUOUS
100
AcDbCircle
 10
-0.9217123289820969
 20
-0.2773966204794074
 30
0.0
 40
0.0410000000000004
100
AcDbArc
 50
196.7495836716
 51
252.3828335523
  0
ARC
  5
1D6
330
1F
100
AcDbEntity
  8
LAYER1
  6
CONTINUOUS
100
AcDbCircle
 10
-0.935331824843368
 20
-0.3202861219153013
 30
0.0
 40
0.004
100
AcDbArc
 50
18.90276674180143
 51
72.38283355229885
  0
ARC
  5
1D7
330
1F
100
AcDbEntity
  8
LAYER1
  6
CONTINUOUS
100
AcDbCircle
 10
0.0
 20
0.0
 30
0.0
 40
0.9846500000000389
100
AcDbArc
 50
198.9027667417999
 51
206.0972332581999
  0
ARC
  5
1D8
330
1F
100
AcDbEntity
  8
LAYER1
  6
CONTINUOUS
100
AcDbCircle
 10
-0.8878559647325844
 20
-0.4349029872800825
 30
0.0
 40
0.0040000000000001
100
AcDbArc
 50
332.6171664476999
 51
26.09723325820129
  0
ARC
  5
1D9
330
1F
100
AcDbEntity
  8
LAYER1
  6
CONTINUOUS
100
AcDbCircle
 10
-0.8478980695457068
 20
-0.4556000067072663
 30
0.0
 40
0.0409999999999992
100
AcDbArc
 50
152.6171664476998
 51
208.2504163283998
  0
ARC
  5
1DA
330
1F
100
AcDbEntity
  8
LAYER1
  6
CONTINUOUS
100
AcDbCircle
 10
0.0
 20
0.0
 30
0.0
 40
1.003549999999824
100
AcDbArc
 50
208.2504163283999
 51
211.7495836715999
  0
ARC
  5
1DB
330
1F
100
AcDbEntity
  8
LAYER1
  6
CONTINUOUS
100
AcDbCircle
 10
-0.8185102145457068
 20
-0.5065012646927334
 30
0.0
 40
0.0410000000000004
100
AcDbArc
 50
211.7495836715997
 51
267.3828335522998
  0
ARC
  5
1DC
330
1F
100
AcDbEntity
  8
LAYER1
  6
CONTINUOUS
100
AcDbCircle
 10
-0.8205650175325844
 20
-0.5514543267199171
 30
0.0
 40
0.004
100
AcDbArc
 50
33.90276674180055
 51
87.38283355230149
  0
ARC
  5
1DD
330
1F
100
AcDbEntity
  8
LAYER1
  6
CONTINUOUS
100
AcDbCircle
 10
0.0
 20
0.0
 30
0.0
 40
0.984650000000039
100
AcDbArc
 50
213.9027667417999
 51
221.0972332581999
  0
ARC
  5
1DE
330
1F
100
AcDbEntity
  8
LAYER1
  6
CONTINUOUS
100
AcDbCircle
 10
-0.7450418304799347
 20
-0.6498780603247627
 30
0.0
 40
0.0040000000000001
100
AcDbArc
 50
347.6171664476988
 51
41.09723325819922
  0
ARC
  5
1DF
330
1F
100
AcDbEntity
  8
LAYER1
  6
CONTINUOUS
100
AcDbCircle
 10
-0.7010886847501661
 20
-0.659527981640112
 30
0.0
 40
0.0409999999999992
100
AcDbArc
 50
167.6171664476999
 51
223.2504163284
  0
ARC
  5
1E0
330
1F
100
AcDbEntity
  8
LAYER1
  6
CONTINUOUS
100
AcDbCircle
 10
0.0
 20
0.0
 30
0.0
 40
1.003549999999824
100
AcDbArc
 50
223.2504163283999
 51
226.7495836715999
  0
ARC
  5
1E1
330
1F
100
AcDbEntity
  8
LAYER1
  6
CONTINUOUS
100
AcDbCircle
 10
-0.6595279816401121
 20
-0.701088684750166
 30
0.0
 40
0.0410000000000004
100
AcDbArc
 50
226.7495836716001
 51
282.3828335522999
  0
ARC
  5
1E2
330
1F
100
AcDbEntity
  8
LAYER1
  6
CONTINUOUS
100
AcDbCircle
 10
-0.6498780603247629
 20
-0.7450418304799347
 30
0.0
 40
0.004
100
AcDbArc
 50
48.90276674180198
 51
102.3828335522997
  0
ARC
  5
1E3
330
1F
100
AcDbEntity
  8
LAYER1
  6
CONTINUOUS
100
AcDbCircle
 10
0.0
 20
0.0
 30
0.0
 40
0.984650000000039
100
AcDbArc
 50
228.9027667418
 51
236.0972332582
  0
ARC
  5
1E4
330
1F
100
AcDbEntity
  8
LAYER1
  6
CONTINUOUS
100
AcDbCircle
 10
-0.5514543267199177
 20
-0.8205650175325842
 30
0.0
 40
0.0040000000000001
100
AcDbArc
 50
2.617166447700094
 51
56.09723325820033
  0
ARC
  5
1E5
330
1F
100
AcDbEntity
  8
LAYER1
  6
CONTINUOUS
100
AcDbCircle
 10
-0.5065012646927338
 20
-0.8185102145457067
 30
0.0
 40
0.0409999999999992
100
AcDbArc
 50
182.6171664476998
 51
238.2504163283999
  0
ARC
  5
1E6
330
1F
100
AcDbEntity
  8
LAYER1
  6
CONTINUOUS
100
AcDbCircle
 10
0.0
 20
0.0
 30
0.0
 40
1.003549999999824
100
AcDbArc
 50
238.2504163284
 51
241.7495836715999
  0
ARC
  5
1E7
330
1F
100
AcDbEntity
  8
LAYER1
  6
CONTINUOUS
100
AcDbCircle
 10
-0.4556000067072667
 20
-0.8478980695457067
 30
0.0
 40
0.0410000000000004
100
AcDbArc
 50
241.7495836715999
 51
297.3828335522998
  0
ARC
  5
1E8
330
1F
100
AcDbEntity
  8
LAYER1
  6
CONTINUOUS
100
AcDbCircle
 10
-0.434902987280083
 20
-0.8878559647325842
 30
0.0
 40
0.004
100
AcDbArc
 50
63.90276674180013
 51
117.3828335522987
  0
ARC
  5
1E9
330
1F
100
AcDbEntity
  8
LAYER1
  6
CONTINUOUS
100
AcDbCircle
 10
0.0
 20
0.0
 30
0.0
 40
0.984650000000039
100
AcDbArc
 50
243.9027667418
 51
251.0972332581999
  0
ARC
  5
1EA
330
1F
100
AcDbEntity
  8
LAYER1
  6
CONTINUOUS
100
AcDbCircle
 10
-0.3202861219153016
 20
-0.9353318248433677
 30
0.0
 40
0.0040000000000001
100
AcDbArc
 50
17.61716644769916
 51
71.09723325820059
  0
ARC
  5
1EB
330
1F
100
AcDbEntity
  8
LAYER1
  6
CONTINUOUS
100
AcDbCircle
 10
-0.2773966204794077
 20
-0.9217123289820968
 30
0.0
 40
0.0409999999999992
100
AcDbArc
 50
197.6171664476998
 51
253.2504163284
  0
ARC
  5
1EC
330
1F
100
AcDbEntity
  8
LAYER1
  6
CONTINUOUS
100
AcDbCircle
 10
0.0
 20
0.0
 30
0.0
 40
1.003549999999824
100
AcDbArc
 50
253.2504163283999
 51
256.7495836716
  0
ARC
  5
1ED
330
1F
100
AcDbEntity
  8
LAYER1
  6
CONTINUOUS
100
AcDbCircle
 10
-0.2206236442319311
 20
-0.9369246021195194
 30
0.0
 40
0.0410000000000004
100
AcDbArc
 50
256.7495836716
 51
312.3828335523001
  0
ARC
  5
1EE
330
1F
100
AcDbEntity
  8
LAYER1
  6
CONTINUOUS
100
AcDbCircle
 10
-0.1902899943634334
 20
-0.9701641822400642
 30
0.0
 40
0.004
100
AcDbArc
 50
78.90276674180069
 51
132.3828335522992
  0
ARC
  5
1EF
330
1F
100
AcDbEntity
  8
LAYER1
  6
CONTINUOUS
100
AcDbCircle
 10
0.0
 20
0.0
 30
0.0
 40
0.984650000000039
100
AcDbArc
 50
258.9027667418
 51
266.0972332582
  0
ARC
  5
1F0
330
1F
100
AcDbEntity
  8
LAYER1
  6
CONTINUOUS
100
AcDbCircle
 10
-0.0672909472000002
 20
-0.986357314
 30
0.0
 40
0.0040000000000001
100
AcDbArc
 50
32.61716644770081
 51
86.09723325819942
  0
ARC
  5
1F1
330
1F
100
AcDbEntity
  8
LAYER1
  6
CONTINUOUS
100
AcDbCircle
 10
-0.0293878550000001
 20
-0.9621012714
 30
0.0
 40
0.0409999999999992
100
AcDbArc
 50
212.6171664477
 51
268.2504163283999
  0
ARC
  5
1F2
330
1F
100
AcDbEntity
  8
LAYER1
  6
CONTINUOUS
100
AcDbCircle
 10
0.0
 20
0.0
 30
0.0
 40
1.003549999999824
100
AcDbArc
 50
268.2504163284
 51
271.7495836716
  0
ARC
  5
1F3
330
1F
100
AcDbEntity
  8
LAYER1
  6
CONTINUOUS
100
AcDbCircle
 10
0.029387855
 20
-0.9621012714
 30
0.0
 40
0.0410000000000004
100
AcDbArc
 50
271.7495836716
 51
327.3828335522999
  0
ARC
  5
1F4
330
1F
100
AcDbEntity
  8
LAYER1
  6
CONTINUOUS
100
AcDbCircle
 10
0.0672909471999998
 20
-0.986357314
 30
0.0
 40
0.004
100
AcDbArc
 50
93.90276674179921
 51
147.3828335522983
  0
ARC
  5
1F5
330
1F
100
AcDbEntity
  8
LAYER1
  6
CONTINUOUS
100
AcDbCircle
 10
0.0
 20
0.0
 30
0.0
 40
0.984650000000039
100
AcDbArc
 50
273.9027667418
 51
281.0972332581999
  0
ARC
  5
1F6
330
1F
100
AcDbEntity
  8
LAYER1
  6
CONTINUOUS
100
AcDbCircle
 10
0.1902899943634326
 20
-0.9701641822400643
 30
0.0
 40
0.0040000000000001
100
AcDbArc
 50
47.61716644770068
 51
101.097233258199
  0
ARC
  5
1F7
330
1F
100
AcDbEntity
  8
LAYER1
  6
CONTINUOUS
100
AcDbCircle
 10
0.2206236442319305
 20
-0.9369246021195197
 30
0.0
 40
0.0409999999999992
100
AcDbArc
 50
227.6171664476999
 51
283.2504163284001
  0
ARC
  5
1F8
330
1F
100
AcDbEntity
  8
LAYER1
  6
CONTINUOUS
100
AcDbCircle
 10
0.0
 20
0.0
 30
0.0
 40
1.003549999999824
100
AcDbArc
 50
283.2504163283999
 51
286.7495836716
  0
ARC
  5
1F9
330
1F
100
AcDbEntity
  8
LAYER1
  6
CONTINUOUS
100
AcDbCircle
 10
0.2773966204794072
 20
-0.921712328982097
 30
0.0
 40
0.0410000000000004
100
AcDbArc
 50
286.7495836716
 51
342.3828335523
  0
ARC
  5
1FA
330
1F
100
AcDbEntity
  8
LAYER1
  6
CONTINUOUS
100
AcDbCircle
 10
0.320286121915301
 20
-0.9353318248433681
 30
0.0
 40
0.004
100
AcDbArc
 50
108.9027667418014
 51
162.3828335523004
  0
ARC
  5
1FB
330
1F
100
AcDbEntity
  8
LAYER1
  6
CONTINUOUS
100
AcDbCircle
 10
0.0
 20
0.0
 30
0.0
 40
0.984650000000039
100
AcDbArc
 50
288.9027667418
 51
296.0972332581999
  0
ARC
  5
1FC
330
1F
100
AcDbEntity
  8
LAYER1
  6
CONTINUOUS
100
AcDbCircle
 10
0.4349029872800825
 20
-0.8878559647325845
 30
0.0
 40
0.0040000000000001
100
AcDbArc
 50
62.61716644770343
 51
116.0972332582013
  0
ARC
  5
1FD
330
1F
100
AcDbEntity
  8
LAYER1
  6
CONTINUOUS
100
AcDbCircle
 10
0.4556000067072661
 20
-0.8478980695457069
 30
0.0
 40
0.0409999999999992
100
AcDbArc
 50
242.6171664477001
 51
298.2504163284
  0
ARC
  5
1FE
330
1F
100
AcDbEntity
  8
LAYER1
  6
CONTINUOUS
100
AcDbCircle
 10
0.0
 20
0.0
 30
0.0
 40
1.003549999999824
100
AcDbArc
 50
298.2504163283999
 51
301.7495836716
  0
ARC
  5
1FF
330
1F
100
AcDbEntity
  8
LAYER1
  6
CONTINUOUS
100
AcDbCircle
 10
0.5065012646927334
 20
-0.8185102145457069
 30
0.0
 40
0.0410000000000004
100
AcDbArc
 50
301.7495836715994
 51
357.3828335522998
  0
ARC
  5
200
330
1F
100
AcDbEntity
  8
LAYER1
  6
CONTINUOUS
100
AcDbCircle
 10
0.5514543267199172
 20
-0.8205650175325845
 30
0.0
 40
0.004
100
AcDbArc
 50
123.9027667418028
 51
177.3828335523015
  0
ARC
  5
201
330
1F
100
AcDbEntity
  8
LAYER1
  6
CONTINUOUS
100
AcDbCircle
 10
0.0
 20
0.0
 30
0.0
 40
0.984650000000039
100
AcDbArc
 50
303.9027667418
 51
311.0972332582
  0
ARC
  5
202
330
1F
100
AcDbEntity
  8
LAYER1
  6
CONTINUOUS
100
AcDbCircle
 10
0.6498780603247625
 20
-0.745041830479935
 30
0.0
 40
0.0040000000000001
100
AcDbArc
 50
77.61716644770065
 51
131.0972332582015
  0
ARC
  5
203
330
1F
100
AcDbEntity
  8
LAYER1
  6
CONTINUOUS
100
AcDbCircle
 10
0.6595279816401116
 20
-0.7010886847501664
 30
0.0
 40
0.0409999999999992
100
AcDbArc
 50
257.6171664476997
 51
313.2504163283999
  0
ARC
  5
204
330
1F
100
AcDbEntity
  8
LAYER1
  6
CONTINUOUS
100
AcDbCircle
 10
0.0
 20
0.0
 30
0.0
 40
1.003549999999824
100
AcDbArc
 50
313.2504163284
 51
316.7495836715999
  0
ARC
  5
205
330
1F
100
AcDbEntity
  8
LAYER1
  6
CONTINUOUS
100
AcDbCircle
 10
0.7010886847501656
 20
-0.6595279816401124
 30
0.0
 40
0.0410000000000004
100
AcDbArc
 50
316.7495836715999
 51
12.38283355229994
  0
ARC
  5
206
330
1F
100
AcDbEntity
  8
LAYER1
  6
CONTINUOUS
100
AcDbCircle
 10
0.7450418304799344
 20
-0.6498780603247633
 30
0.0
 40
0.004
100
AcDbArc
 50
138.902766741802
 51
192.3828335523012
  0
ARC
  5
207
330
1F
100
AcDbEntity
  8
LAYER1
  6
CONTINUOUS
100
AcDbCircle
 10
0.0
 20
0.0
 30
0.0
 40
0.984650000000039
100
AcDbArc
 50
318.9027667418
 51
326.0972332581999
  0
ARC
  5
208
330
1F
100
AcDbEntity
  8
LAYER1
  6
CONTINUOUS
100
AcDbCircle
 10
0.820565017532584
 20
-0.5514543267199178
 30
0.0
 40
0.0040000000000001
100
AcDbArc
 50
92.61716644770162
 51
146.0972332582003
  0
ARC
  5
209
330
1F
100
AcDbEntity
  8
LAYER1
  6
CONTINUOUS
100
AcDbCircle
 10
0.8185102145457066
 20
-0.5065012646927339
 30
0.0
 40
0.0409999999999992
100
AcDbArc
 50
272.6171664476998
 51
328.2504163283999
  0
ARC
  5
20A
330
1F
100
AcDbEntity
  8
LAYER1
  6
CONTINUOUS
100
AcDbCircle
 10
0.0
 20
0.0
 30
0.0
 40
1.003549999999824
100
AcDbArc
 50
328.2504163283999
 51
331.7495836716
  0
ARC
  5
20B
330
1F
100
AcDbEntity
  8
LAYER1
  6
CONTINUOUS
100
AcDbCircle
 10
0.8478980695457066
 20
-0.455600006707267
 30
0.0
 40
0.0410000000000004
100
AcDbArc
 50
331.7495836716
 51
27.38283355230004
  0
ARC
  5
20C
330
1F
100
AcDbEntity
  8
LAYER1
  6
CONTINUOUS
100
AcDbCircle
 10
0.8878559647325841
 20
-0.4349029872800831
 30
0.0
 40
0.004
100
AcDbArc
 50
153.9027667417987
 51
207.3828335523001
  0
ARC
  5
20D
330
1F
100
AcDbEntity
  8
LAYER1
  6
CONTINUOUS
100
AcDbCircle
 10
0.0
 20
0.0
 30
0.0
 40
0.984650000000039
100
AcDbArc
 50
333.9027667418
 51
341.0972332581999
  0
ARC
  5
20E
330
1F
100
AcDbEntity
  8
LAYER1
  6
CONTINUOUS
100
AcDbCircle
 10
0.9353318248433677
 20
-0.3202861219153019
 30
0.0
 40
0.0040000000000001
100
AcDbArc
 50
107.6171664477027
 51
161.0972332582021
  0
ARC
  5
20F
330
1F
100
AcDbEntity
  8
LAYER1
  6
CONTINUOUS
100
AcDbCircle
 10
0.9217123289820968
 20
-0.2773966204794083
 30
0.0
 40
0.0409999999999992
100
AcDbArc
 50
287.6171664476997
 51
343.2504163283999
  0
ARC
  5
210
330
1F
100
AcDbEntity
  8
LAYER1
  6
CONTINUOUS
100
AcDbCircle
 10
0.0
 20
0.0
 30
0.0
 40
1.003549999999824
100
AcDbArc
 50
343.2504163283999
 51
346.7495836715999
  0
ARC
  5
211
330
1F
100
AcDbEntity
  8
LAYER1
  6
CONTINUOUS
100
AcDbCircle
 10
0.9369246021195192
 20
-0.2206236442319316
 30
0.0
 40
0.0410000000000004
100
AcDbArc
 50
346.7495836716
 51
42.38283355229962
  0
ARC
  5
212
330
1F
100
AcDbEntity
  8
LAYER1
  6
CONTINUOUS
100
AcDbCircle
 10
0.9701641822400642
 20
-0.190289994363434
 30
0.0
 40
0.004
100
AcDbArc
 50
168.9027667418007
 51
222.3828335522981
  0
ARC
  5
213
330
1F
100
AcDbEntity
  8
LAYER1
  6
CONTINUOUS
100
AcDbCircle
 10
0.0
 20
0.0
 30
0.0
 40
0.9846500000000389
100
AcDbArc
 50
348.9027667418
 51
356.0972332581999
  0
ARC
  5
214
330
1F
100
AcDbEntity
  8
LAYER1
  6
CONTINUOUS
100
AcDbCircle
 10
0.9863573139999999
 20
-0.0672909472000003
 30
0.0
 40
0.0040000000000001
100
AcDbArc
 50
122.6171664476986
 51
176.0972332581977
  0
ARC
  5
215
330
1F
100
AcDbEntity
  8
LAYER1
  6
CONTINUOUS
100
AcDbCircle
 10
0.9621012714000001
 20
-0.0293878550000002
 30
0.0
 40
0.0409999999999992
100
AcDbArc
 50
302.6171664476995
 51
358.2504163284
  0
ARC
  5
216
330
1F
100
AcDbEntity
  8
LAYER1
  6
CONTINUOUS
100
AcDbCircle
 10
0.0
 20
0.0
 30
0.0
 40
1.003549999999824
100
AcDbArc
 50
358.2504163284
 51
1.749583671599988
  0
ARC
  5
217
330
1F
100
AcDbEntity
  8
LAYER1
  6
CONTINUOUS
100
AcDbCircle
 10
0.9621012714000001
 20
0.0293878549999997
 30
0.0
 40
0.0410000000000004
100
AcDbArc
 50
1.749583671599969
 51
57.38283355230011
  0
ARC
  5
218
330
1F
100
AcDbEntity
  8
LAYER1
  6
CONTINUOUS
100
AcDbCircle
 10
0.9863573139999999
 20
0.0672909471999998
 30
0.0
 40
0.004
100
AcDbArc
 50
183.9027667417991
 51
237.3828335522997
  0
ARC
  5
219
330
1F
100
AcDbEntity
  8
LAYER1
  6
CONTINUOUS
100
AcDbCircle
 10
0.0
 20
0.0
 30
0.0
 40
0.984650000000039
100
AcDbArc
 50
3.902766741799978
 51
11.09723325819998
  0
ARC
  5
21A
330
1F
100
AcDbEntity
  8
LAYER1
  6
CONTINUOUS
100
AcDbCircle
 10
0.9701641822400642
 20
0.1902899943634326
 30
0.0
 40
0.0040000000000001
100
AcDbArc
 50
137.6171664476996
 51
191.0972332581993
  0
ARC
  5
21B
330
1F
100
AcDbEntity
  8
LAYER1
  6
CONTINUOUS
100
AcDbCircle
 10
0.9369246021195197
 20
0.2206236442319305
 30
0.0
 40
0.0409999999999992
100
AcDbArc
 50
317.6171664476996
 51
13.25041632839979
  0
ARC
  5
21C
330
1F
100
AcDbEntity
  8
LAYER1
  6
CONTINUOUS
100
AcDbCircle
 10
0.0
 20
0.0
 30
0.0
 40
1.003549999999824
100
AcDbArc
 50
13.25041632839996
 51
16.74958367159996
  0
ARC
  5
21D
330
1F
100
AcDbEntity
  8
LAYER1
  6
CONTINUOUS
100
AcDbCircle
 10
0.921712328982097
 20
0.2773966204794072
 30
0.0
 40
0.0410000000000004
100
AcDbArc
 50
16.74958367159971
 51
72.38283355229987
  0
ARC
  5
21E
330
1F
100
AcDbEntity
  8
LAYER1
  6
CONTINUOUS
100
AcDbCircle
 10
0.9353318248433682
 20
0.3202861219153008
 30
0.0
 40
0.004
100
AcDbArc
 50
198.9027667417979
 51
252.3828335523004
  0
ARC
  5
21F
330
1F
100
AcDbEntity
  8
LAYER1
  6
CONTINUOUS
100
AcDbCircle
 10
0.0
 20
0.0
 30
0.0
 40
0.984650000000039
100
AcDbArc
 50
18.90276674179995
 51
26.09723325819996
  0
ARC
  5
220
330
1F
100
AcDbEntity
  8
LAYER1
  6
CONTINUOUS
100
AcDbCircle
 10
0.8878559647325848
 20
0.434902987280082
 30
0.0
 40
0.0040000000000001
100
AcDbArc
 50
152.6171664476999
 51
206.0972332582013
  0
ARC
  5
221
330
1F
100
AcDbEntity
  8
LAYER1
  6
CONTINUOUS
100
AcDbCircle
 10
0.847898069545707
 20
0.4556000067072656
 30
0.0
 40
0.0409999999999992
100
AcDbArc
 50
332.6171664477002
 51
28.25041632840004
  0
ARC
  5
222
330
1F
100
AcDbEntity
  8
LAYER1
  6
CONTINUOUS
100
AcDbCircle
 10
0.0
 20
0.0
 30
0.0
 40
1.003549999999824
100
AcDbArc
 50
28.25041632839994
 51
31.74958367159994
  0
ARC
  5
223
330
1F
100
AcDbEntity
  8
LAYER1
  6
CONTINUOUS
100
AcDbCircle
 10
0.818510214545707
 20
0.5065012646927329
 30
0.0
 40
0.0410000000000004
100
AcDbArc
 50
31.74958367159966
 51
87.38283355229964
  0
ARC
  5
224
330
1F
100
AcDbEntity
  8
LAYER1
  6
CONTINUOUS
100
AcDbCircle
 10
0.8205650175325847
 20
0.5514543267199168
 30
0.0
 40
0.004
100
AcDbArc
 50
213.9027667417984
 51
267.3828335523015
  0
ARC
  5
225
330
1F
100
AcDbEntity
  8
LAYER1
  6
CONTINUOUS
100
AcDbCircle
 10
0.0
 20
0.0
 30
0.0
 40
0.984650000000039
100
AcDbArc
 50
33.90276674179993
 51
41.09723325819995
  0
ARC
  5
226
330
1F
100
AcDbEntity
  8
LAYER1
  6
CONTINUOUS
100
AcDbCircle
 10
0.7450418304799349
 20
0.6498780603247625
 30
0.0
 40
0.0040000000000001
100
AcDbArc
 50
167.6171664476972
 51
221.0972332581959
  0
ARC
  5
227
330
1F
100
AcDbEntity
  8
LAYER1
  6
CONTINUOUS
100
AcDbCircle
 10
0.7010886847501661
 20
0.6595279816401118
 30
0.0
 40
0.0409999999999992
100
AcDbArc
 50
347.6171664477
 51
43.2504163284002
  0
ARC
  5
228
330
1F
100
AcDbEntity
  8
LAYER1
  6
CONTINUOUS
100
AcDbCircle
 10
0.0
 20
0.0
 30
0.0
 40
1.003549999999824
100
AcDbArc
 50
43.25041632839999
 51
46.74958367159998
  0
ARC
  5
229
330
1F
100
AcDbEntity
  8
LAYER1
  6
CONTINUOUS
100
AcDbCircle
 10
0.6595279816401123
 20
0.7010886847501661
 30
0.0
 40
0.0410000000000004
100
AcDbArc
 50
46.74958367160031
 51
102.3828335523002
  0
ARC
  5
22A
330
1F
100
AcDbEntity
  8
LAYER1
  6
CONTINUOUS
100
AcDbCircle
 10
0.6498780603247629
 20
0.7450418304799344
 30
0.0
 40
0.004
100
AcDbArc
 50
228.9027667417987
 51
282.3828335523019
  0
ARC
  5
22B
330
1F
100
AcDbEntity
  8
LAYER1
  6
CONTINUOUS
100
AcDbCircle
 10
0.0
 20
0.0
 30
0.0
 40
0.984650000000039
100
AcDbArc
 50
48.90276674179999
 51
56.09723325819997
  0
ARC
  5
22C
330
1F
100
AcDbEntity
  8
LAYER1
  6
CONTINUOUS
100
AcDbCircle
 10
0.5514543267199177
 20
0.8205650175325843
 30
0.0
 40
0.0040000000000001
100
AcDbArc
 50
182.6171664477048
 51
236.0972332582047
  0
ARC
  5
22D
330
1F
100
AcDbEntity
  8
LAYER1
  6
CONTINUOUS
100
AcDbCircle
 10
0.5065012646927338
 20
0.8185102145457066
 30
0.0
 40
0.0409999999999992
100
AcDbArc
 50
2.617166447699816
 51
58.25041632839963
  0
ARC
  5
22E
330
1F
100
AcDbEntity
  8
LAYER1
  6
CONTINUOUS
100
AcDbCircle
 10
0.0
 20
0.0
 30
0.0
 40
1.003549999999824
100
AcDbArc
 50
58.25041632839996
 51
61.74958367159998
  0
ARC
  5
22F
330
1F
100
AcDbEntity
  8
LAYER1
  6
CONTINUOUS
100
AcDbCircle
 10
0.455600006707267
 20
0.8478980695457066
 30
0.0
 40
0.0410000000000004
100
AcDbArc
 50
61.74958367160015
 51
117.3828335523001
  0
ARC
  5
230
330
1F
100
AcDbEntity
  8
LAYER1
  6
CONTINUOUS
100
AcDbCircle
 10
0.4349029872800831
 20
0.8878559647325843
 30
0.0
 40
0.004
100
AcDbArc
 50
243.9027667417987
 51
297.3828335523002
  0
ARC
  5
231
330
1F
100
AcDbEntity
  8
LAYER1
  6
CONTINUOUS
100
AcDbCircle
 10
0.0
 20
0.0
 30
0.0
 40
0.984650000000039
100
AcDbArc
 50
63.90276674179996
 51
71.09723325819996
  0
ARC
  5
232
330
1F
100
AcDbEntity
  8
LAYER1
  6
CONTINUOUS
100
AcDbCircle
 10
0.3202861219153021
 20
0.9353318248433677
 30
0.0
 40
0.0040000000000001
100
AcDbArc
 50
197.6171664477057
 51
251.0972332581966
  0
ARC
  5
233
330
1F
100
AcDbEntity
  8
LAYER1
  6
CONTINUOUS
100
AcDbCircle
 10
0.2773966204794083
 20
0.9217123289820968
 30
0.0
 40
0.0409999999999992
100
AcDbArc
 50
17.61716644769972
 51
73.25041632839991
  0
ARC
  5
234
330
1F
100
AcDbEntity
  8
LAYER1
  6
CONTINUOUS
100
AcDbCircle
 10
0.0
 20
0.0
 30
0.0
 40
1.003549999999824
100
AcDbArc
 50
73.25041632839995
 51
76.74958367159995
  0
ARC
  5
235
330
1F
100
AcDbEntity
  8
LAYER1
  6
CONTINUOUS
100
AcDbCircle
 10
0.2206236442319316
 20
0.9369246021195192
 30
0.0
 40
0.0410000000000004
100
AcDbArc
 50
76.74958367159998
 51
132.3828335522995
  0
ARC
  5
236
330
1F
100
AcDbEntity
  8
LAYER1
  6
CONTINUOUS
100
AcDbCircle
 10
0.190289994363434
 20
0.9701641822400642
 30
0.0
 40
0.004
100
AcDbArc
 50
258.9027667417993
 51
312.3828335522953
  0
ARC
  5
237
330
1F
100
AcDbEntity
  8
LAYER1
  6
CONTINUOUS
100
AcDbCircle
 10
0.0
 20
0.0
 30
0.0
 40
0.9846500000000389
100
AcDbArc
 50
78.90276674179994
 51
86.09723325819995
  0
ENDSEC
  0
SECTION
  2
OBJECTS
  0
DICTIONARY
  5
C
330
0
100
AcDbDictionary
  3
ACAD_GROUP
350
D
  3
ACAD_IMAGE_VARS
350
DC
  3
ACAD_MLINESTYLE
350
17
  3
ACAD_SCALELIST
350
B6
  3
ACDBVARIABLEDICTIONARY
350
66
  3
APPDATA
350
E1
  3
DWGPROPS
350
238
  0
DICTIONARY
  5
1A3
330
2
100
AcDbDictionary
280
     1
  3
ACAD_LAYERSTATES
360
1A4
  0
DICTIONARY
  5
D
102
{ACAD_REACTORS
330
C
102
}
330
C
100
AcDbDictionary
  0
RASTERVARIABLES
  5
DC
102
{ACAD_REACTORS
330
C
102
}
330
C
100
AcDbRasterVariables
 90
        0
 70
     1
 71
     1
 72
     5
  0
DICTIONARY
  5
17
102
{ACAD_REACTORS
330
C
102
}
330
C
100
AcDbDictionary
  3
STANDARD
350
18
  0
DICTIONARY
  5
B6
102
{ACAD_REACTORS
330
C
102
}
330
C
100
AcDbDictionary
  0
DICTIONARY
  5
66
102
{ACAD_REACTORS
330
C
102
}
330
C
100
AcDbDictionary
  3
DIMASSOC
350
67
  3
HIDETEXT
350
6B
  0
DICTIONARY
  5
E1
102
{ACAD_REACTORS
330
C
102
}
330
C
100
AcDbDictionary
  0
XRECORD
  5
238
102
{ACAD_REACTORS
330
C
102
}
330
C
100
AcDbXrecord
  1
DWGPROPS COOKIE
  2

  3

  4

  6

  7

  8
NickC
  9

300
=
301
=
302
=
303
=
304
=
305
=
306
=
307
=
308
=
309
=
 40
0.0
 41
2452643.063384271
 42
2458578.920461632
  1

 90
        0
  0
DICTIONARY
  5
1A4
102
{ACAD_REACTORS
330
1A3
102
}
330
1A3
100
AcDbDictionary
  0
MLINESTYLE
  5
18
102
{ACAD_REACTORS
330
17
102
}
330
17
100
AcDbMlineStyle
  2
STANDARD
 70
     0
  3

 62
   256
 51
90.0
 52
90.0
 71
     2
 49
0.5
 62
   256
  6
BYLAYER
 49
-0.5
 62
   256
  6
BYLAYER
  0
DICTIONARYVAR
  5
67
102
{ACAD_REACTORS
330
66
102
}
330
66
100
DictionaryVariables
280
     0
  1
2
  0
DICTIONARYVAR
  5
6B
102
{ACAD_REACTORS
330
66
102
}
330
66
100
DictionaryVariables
280
     0
  1
1
  0
ENDSEC
  0
EOF
