  0
SECTION
  2
HEADER
  9
$ACADVER
  1
AC1014
  9
$ACADMAINTVER
 70
     9
  9
$DWGCODEPAGE
  3
ANSI_1252
  9
$INSBASE
 10
0.0
 20
0.0
 30
0.0
  9
$EXTMIN
 10
-3.103750000001786
 20
-3.103750000001786
 30
0.0
  9
$EXTMAX
 10
3.103750000001785
 20
3.103750000001786
 30
0.0
  9
$LIMMIN
 10
0.0
 20
0.0
  9
$LIMMAX
 10
12.0
 20
9.0
  9
$ORTHOMODE
 70
     0
  9
$REGENMODE
 70
     1
  9
$FILLMODE
 70
     1
  9
$QTEXTMODE
 70
     0
  9
$MIRRTEXT
 70
     1
  9
$DRAGMODE
 70
     2
  9
$LTSCALE
 40
1.0
  9
$OSMODE
 70
 13311
  9
$ATTMODE
 70
     1
  9
$TEXTSIZE
 40
0.1377952756
  9
$TRACEWID
 40
0.05
  9
$TEXTSTYLE
  7
STANDARD
  9
$CLAYER
  8
LAYER1
  9
$CELTYPE
  6
BYLAYER
  9
$CECOLOR
 62
   256
  9
$CELTSCALE
 40
1.0
  9
$DELOBJ
 70
     1
  9
$DISPSILH
 70
     0
  9
$DIMSCALE
 40
1.0
  9
$DIMASZ
 40
0.13
  9
$DIMEXO
 40
0.0393700787
  9
$DIMDLI
 40
0.38
  9
$DIMRND
 40
0.0
  9
$DIMDLE
 40
0.0
  9
$DIMEXE
 40
0.0393700787
  9
$DIMTP
 40
0.0
  9
$DIMTM
 40
0.0
  9
$DIMTXT
 40
0.1377952756
  9
$DIMCEN
 40
0.09
  9
$DIMTSZ
 40
0.0
  9
$DIMTOL
 70
     0
  9
$DIMLIM
 70
     0
  9
$DIMTIH
 70
     1
  9
$DIMTOH
 70
     1
  9
$DIMSE1
 70
     0
  9
$DIMSE2
 70
     0
  9
$DIMTAD
 70
     1
  9
$DIMZIN
 70
     0
  9
$DIMBLK
  1

  9
$DIMASO
 70
     1
  9
$DIMSHO
 70
     1
  9
$DIMPOST
  1

  9
$DIMAPOST
  1

  9
$DIMALT
 70
     0
  9
$DIMALTD
 70
     2
  9
$DIMALTF
 40
25.4
  9
$DIMLFAC
 40
1.0
  9
$DIMTOFL
 70
     0
  9
$DIMTVP
 40
0.0
  9
$DIMTIX
 70
     0
  9
$DIMSOXD
 70
     0
  9
$DIMSAH
 70
     0
  9
$DIMBLK1
  1

  9
$DIMBLK2
  1

  9
$DIMSTYLE
  2
STANDARD
  9
$DIMCLRD
 70
     0
  9
$DIMCLRE
 70
     0
  9
$DIMCLRT
 70
     0
  9
$DIMTFAC
 40
1.0
  9
$DIMGAP
 40
0.06
  9
$DIMJUST
 70
     0
  9
$DIMSD1
 70
     0
  9
$DIMSD2
 70
     0
  9
$DIMTOLJ
 70
     1
  9
$DIMTZIN
 70
     0
  9
$DIMALTZ
 70
     0
  9
$DIMALTTZ
 70
     0
  9
$DIMFIT
 70
     5
  9
$DIMUPT
 70
     0
  9
$DIMUNIT
 70
     2
  9
$DIMDEC
 70
     4
  9
$DIMTDEC
 70
     4
  9
$DIMALTU
 70
     2
  9
$DIMALTTD
 70
     2
  9
$DIMTXSTY
  7
STANDARD
  9
$DIMAUNIT
 70
     0
  9
$LUNITS
 70
     2
  9
$LUPREC
 70
     4
  9
$SKETCHINC
 40
0.1
  9
$FILLETRAD
 40
0.5
  9
$AUNITS
 70
     0
  9
$AUPREC
 70
     2
  9
$MENU
  1
.
  9
$ELEVATION
 40
0.0
  9
$PELEVATION
 40
0.0
  9
$THICKNESS
 40
0.0
  9
$LIMCHECK
 70
     0
  9
$CHAMFERA
 40
0.5
  9
$CHAMFERB
 40
0.5
  9
$CHAMFERC
 40
0.0
  9
$CHAMFERD
 40
0.0
  9
$SKPOLY
 70
     0
  9
$TDCREATE
 40
2458486.485747025
  9
$TDUPDATE
 40
2458554.621091157
  9
$TDINDWG
 40
0.0134486921
  9
$TDUSRTIMER
 40
2458554.911820775
  9
$USRTIMER
 70
     1
  9
$ANGBASE
 50
0.0
  9
$ANGDIR
 70
     0
  9
$PDMODE
 70
     0
  9
$PDSIZE
 40
-1.0
  9
$PLINEWID
 40
0.0
  9
$COORDS
 70
     1
  9
$SPLFRAME
 70
     0
  9
$SPLINETYPE
 70
     6
  9
$SPLINESEGS
 70
     8
  9
$ATTDIA
 70
     0
  9
$ATTREQ
 70
     1
  9
$HANDLING
 70
     1
  9
$HANDSEED
  5
B38
  9
$SURFTAB1
 70
     6
  9
$SURFTAB2
 70
     6
  9
$SURFTYPE
 70
     6
  9
$SURFU
 70
     6
  9
$SURFV
 70
     6
  9
$UCSNAME
  2

  9
$UCSORG
 10
0.0
 20
0.0
 30
0.0
  9
$UCSXDIR
 10
1.0
 20
0.0
 30
0.0
  9
$UCSYDIR
 10
0.0
 20
1.0
 30
0.0
  9
$PUCSNAME
  2

  9
$PUCSORG
 10
0.0
 20
0.0
 30
0.0
  9
$PUCSXDIR
 10
1.0
 20
0.0
 30
0.0
  9
$PUCSYDIR
 10
0.0
 20
1.0
 30
0.0
  9
$USERI1
 70
     0
  9
$USERI2
 70
     0
  9
$USERI3
 70
     0
  9
$USERI4
 70
     0
  9
$USERI5
 70
     0
  9
$USERR1
 40
0.0
  9
$USERR2
 40
0.0
  9
$USERR3
 40
0.0
  9
$USERR4
 40
0.0
  9
$USERR5
 40
0.0
  9
$WORLDVIEW
 70
     1
  9
$SHADEDGE
 70
     3
  9
$SHADEDIF
 70
    70
  9
$TILEMODE
 70
     1
  9
$MAXACTVP
 70
    64
  9
$PINSBASE
 10
0.0
 20
0.0
 30
0.0
  9
$PLIMCHECK
 70
     0
  9
$PEXTMIN
 10
1.000000000000000E+20
 20
1.000000000000000E+20
 30
1.000000000000000E+20
  9
$PEXTMAX
 10
-1.000000000000000E+20
 20
-1.000000000000000E+20
 30
-1.000000000000000E+20
  9
$PLIMMIN
 10
0.0
 20
0.0
  9
$PLIMMAX
 10
0.0
 20
0.0
  9
$UNITMODE
 70
     0
  9
$VISRETAIN
 70
     1
  9
$PLINEGEN
 70
     0
  9
$PSLTSCALE
 70
     1
  9
$TREEDEPTH
 70
  3020
  9
$PICKSTYLE
 70
     0
  9
$CMLSTYLE
  2
STANDARD
  9
$CMLJUST
 70
     0
  9
$CMLSCALE
 40
1.0
  9
$PROXYGRAPHICS
 70
     1
  9
$MEASUREMENT
 70
     0
  0
ENDSEC
  0
SECTION
  2
CLASSES
  0
CLASS
  1
ACDBDICTIONARYWDFLT
  2
AcDbDictionaryWithDefault
  3
ObjectDBX Classes
 90
        0
280
     0
281
     0
  0
CLASS
  1
MATERIAL
  2
AcDbMaterial
  3
ObjectDBX Classes
 90
     1153
280
     0
281
     0
  0
CLASS
  1
SCALE
  2
AcDbScale
  3
ObjectDBX Classes
 90
     1153
280
     0
281
     0
  0
CLASS
  1
VISUALSTYLE
  2
AcDbVisualStyle
  3
ObjectDBX Classes
 90
     4095
280
     0
281
     0
  0
CLASS
  1
TABLESTYLE
  2
AcDbTableStyle
  3
ObjectDBX Classes
 90
     4095
280
     0
281
     0
  0
CLASS
  1
MLEADERSTYLE
  2
AcDbMLeaderStyle
  3
ACDB_MLEADERSTYLE_CLASS
 90
     4095
280
     0
281
     0
  0
CLASS
  1
SUN
  2
AcDbSun
  3
SCENEOE
 90
     1153
280
     0
281
     0
  0
CLASS
  1
RASTERVARIABLES
  2
AcDbRasterVariables
  3
ISM
 90
        0
280
     0
281
     0
  0
CLASS
  1
DICTIONARYVAR
  2
AcDbDictionaryVar
  3
ObjectDBX Classes
 90
        0
280
     0
281
     0
  0
CLASS
  1
XRECORD
  2
AcDbXrecord
  3
ObjectDBX Classes
 90
        0
280
     0
281
     0
  0
CLASS
  1
LWPOLYLINE
  2
AcDbPolyline
  3
ObjectDBX Classes
 90
        0
280
     0
281
     1
  0
CLASS
  1
HATCH
  2
AcDbHatch
  3
ObjectDBX Classes
 90
        0
280
     0
281
     1
  0
ENDSEC
  0
SECTION
  2
TABLES
  0
TABLE
  2
VPORT
  5
89A
330
0
100
AcDbSymbolTable
 70
     1
  0
VPORT
  5
8B1
330
89A
100
AcDbSymbolTableRecord
100
AcDbViewportTableRecord
  2
*ACTIVE
 70
     0
 10
0.0
 20
0.0
 11
1.0
 21
1.0
 12
0.0
 22
0.0
 13
0.0
 23
0.0
 14
0.5
 24
0.5
 15
0.5
 25
0.5
 16
0.0
 26
0.0
 36
1.0
 17
-0.0000000000000004
 27
0.0000000000000009
 37
0.0
 40
6.327965635585539
 41
1.727785613540197
 42
50.0
 43
0.0
 44
0.0
 50
0.0
 51
0.0
 71
    16
 72
   100
 73
     1
 74
     3
 75
     0
 76
     0
 77
     0
 78
     0
  0
ENDTAB
  0
TABLE
  2
LTYPE
  5
897
330
0
100
AcDbSymbolTable
 70
     6
  0
LTYPE
  5
8A5
330
897
100
AcDbSymbolTableRecord
100
AcDbLinetypeTableRecord
  2
BYBLOCK
 70
     0
  3

 72
    65
 73
     0
 40
0.0
  0
LTYPE
  5
8A6
330
897
100
AcDbSymbolTableRecord
100
AcDbLinetypeTableRecord
  2
BYLAYER
 70
     0
  3

 72
    65
 73
     0
 40
0.0
  0
LTYPE
  5
8A7
330
897
100
AcDbSymbolTableRecord
100
AcDbLinetypeTableRecord
  2
CONTINUOUS
 70
     0
  3
Solid line
 72
    65
 73
     0
 40
0.0
  0
LTYPE
  5
8B3
330
897
100
AcDbSymbolTableRecord
100
AcDbLinetypeTableRecord
  2
HIDDEN
 70
     0
  3
Hidden __ __ __ __ __ __ __ __ __ __ __ __ __ __
 72
    65
 73
     2
 40
0.075
 49
0.05
 74
     0
 49
-0.025
 74
     0
  0
LTYPE
  5
8B4
330
897
100
AcDbSymbolTableRecord
100
AcDbLinetypeTableRecord
  2
PHANTOM
 70
     0
  3
Phantom ______  __  __  ______  __  __  ______
 72
    65
 73
     6
 40
0.5
 49
0.25
 74
     0
 49
-0.05
 74
     0
 49
0.05
 74
     0
 49
-0.05
 74
     0
 49
0.05
 74
     0
 49
-0.05
 74
     0
  0
LTYPE
  5
8B5
330
897
100
AcDbSymbolTableRecord
100
AcDbLinetypeTableRecord
  2
CENTER
 70
     0
  3
Center ____ _ ____ _ ____ _ ____ _ ____ _ ____
 72
    65
 73
     4
 40
0.4
 49
0.25
 74
     0
 49
-0.05
 74
     0
 49
0.05
 74
     0
 49
-0.05
 74
     0
  0
LTYPE
  5
8B6
330
897
100
AcDbSymbolTableRecord
100
AcDbLinetypeTableRecord
  2
CENTERX2
 70
     0
  3
Center (2x) ________  __  ________  __  _____
 72
    65
 73
     4
 40
0.8
 49
0.5
 74
     0
 49
-0.1
 74
     0
 49
0.1
 74
     0
 49
-0.1
 74
     0
  0
LTYPE
  5
8B7
330
897
100
AcDbSymbolTableRecord
100
AcDbLinetypeTableRecord
  2
DOT2
 70
     0
  3
Dot (.5x) ........................................
 72
    65
 73
     2
 40
0.025
 49
0.0
 74
     0
 49
-0.025
 74
     0
  0
ENDTAB
  0
TABLE
  2
LAYER
  5
894
102
{ACAD_XDICTIONARY
360
913
102
}
330
0
100
AcDbSymbolTable
 70
     4
  0
LAYER
  5
8A2
330
894
100
AcDbSymbolTableRecord
100
AcDbLayerTableRecord
  2
0
 70
     0
 62
     7
  6
CONTINUOUS
  0
LAYER
  5
916
330
894
100
AcDbSymbolTableRecord
100
AcDbLayerTableRecord
  2
LAYER1
 70
     0
 62
     1
  6
CONTINUOUS
1001
ACAECLAYERSTANDARD
1000

1000

  0
LAYER
  5
91C
330
894
100
AcDbSymbolTableRecord
100
AcDbLayerTableRecord
  2
LAYER2
 70
     0
 62
     4
  6
CONTINUOUS
1001
ACAECLAYERSTANDARD
1000

1000

  0
LAYER
  5
922
330
894
100
AcDbSymbolTableRecord
100
AcDbLayerTableRecord
  2
LAYER3
 70
     0
 62
     3
  6
CONTINUOUS
1001
ACAECLAYERSTANDARD
1000

1000

  0
ENDTAB
  0
TABLE
  2
STYLE
  5
895
330
0
100
AcDbSymbolTable
 70
     1
  0
STYLE
  5
8A3
330
895
100
AcDbSymbolTableRecord
100
AcDbTextStyleTableRecord
  2
STANDARD
 70
     0
 40
0.0
 41
1.0
 50
0.0
 71
     0
 42
0.1377952756
  3
txt
  4

  0
ENDTAB
  0
TABLE
  2
VIEW
  5
898
330
0
100
AcDbSymbolTable
 70
     0
  0
ENDTAB
  0
TABLE
  2
UCS
  5
899
330
0
100
AcDbSymbolTable
 70
     0
  0
ENDTAB
  0
TABLE
  2
APPID
  5
89B
330
0
100
AcDbSymbolTable
 70
     2
  0
APPID
  5
8A4
330
89B
100
AcDbSymbolTableRecord
100
AcDbRegAppTableRecord
  2
ACAD
 70
     0
  0
APPID
  5
917
330
89B
100
AcDbSymbolTableRecord
100
AcDbRegAppTableRecord
  2
ACAECLAYERSTANDARD
 70
     0
  0
ENDTAB
  0
TABLE
  2
DIMSTYLE
  5
89C
330
0
100
AcDbSymbolTable
 70
     1
  0
DIMSTYLE
105
8BF
330
89C
100
AcDbSymbolTableRecord
100
AcDbDimStyleTableRecord
  2
STANDARD
 70
     0
  3

  4

  5

  6

  7

 40
1.0
 41
0.18
 42
0.0625
 43
0.38
 44
0.18
 45
0.0
 46
0.0
 47
0.0
 48
0.0
140
0.18
141
0.09
142
0.0
143
25.4
144
1.0
145
0.0
146
1.0
147
0.09
 71
     0
 72
     0
 73
     1
 74
     1
 75
     0
 76
     0
 77
     0
 78
     0
170
     0
171
     2
172
     0
173
     0
174
     0
175
     0
176
     0
177
     0
178
     0
270
     2
271
     4
272
     4
273
     2
274
     2
340
8A3
275
     0
280
     0
281
     0
282
     0
283
     1
284
     0
285
     0
286
     0
287
     3
288
     0
  0
ENDTAB
  0
TABLE
  2
BLOCK_RECORD
  5
893
330
0
100
AcDbSymbolTable
 70
     0
  0
BLOCK_RECORD
  5
8AE
330
893
100
AcDbSymbolTableRecord
100
AcDbBlockTableRecord
  2
*MODEL_SPACE
  0
BLOCK_RECORD
  5
8AC
330
893
100
AcDbSymbolTableRecord
100
AcDbBlockTableRecord
  2
*PAPER_SPACE
  0
ENDTAB
  0
ENDSEC
  0
SECTION
  2
BLOCKS
  0
BLOCK
  5
8C0
330
8AE
100
AcDbEntity
  8
0
100
AcDbBlockBegin
  2
*MODEL_SPACE
 70
     0
 10
0.0
 20
0.0
 30
0.0
  3
*MODEL_SPACE
  1

  0
ENDBLK
  5
21
330
8AE
100
AcDbEntity
  8
0
100
AcDbBlockEnd
  0
BLOCK
  5
8C1
330
8AC
100
AcDbEntity
 67
     1
  8
0
100
AcDbBlockBegin
  2
*PAPER_SPACE
 70
     0
 10
0.0
 20
0.0
 30
0.0
  3
*PAPER_SPACE
  1

  0
ENDBLK
  5
1D
330
8AC
100
AcDbEntity
 67
     1
  8
0
100
AcDbBlockEnd
  0
ENDSEC
  0
SECTION
  2
ENTITIES
  0
LINE
  5
27C
330
8AE
100
AcDbEntity
  8
LAYER3
  6
CONTINUOUS
100
AcDbLine
 10
0.1409582389
 20
-3.0592150098
 30
0.0
 11
0.1660723491
 21
-3.0524857043
 31
0.0
  0
LINE
  5
27D
330
8AE
100
AcDbEntity
  8
LAYER3
  6
CONTINUOUS
100
AcDbLine
 10
0.1220496206
 20
-3.0894243907
 30
0.0
 11
0.1269582251
 21
-3.0728532195
 31
0.0
  0
LINE
  5
27E
330
8AE
100
AcDbEntity
  8
LAYER3
  6
CONTINUOUS
100
AcDbLine
 10
-0.1269582251
 20
-3.0728532195
 30
0.0
 11
-0.1220496206
 21
-3.0894243907
 31
0.0
  0
LINE
  5
27F
330
8AE
100
AcDbEntity
  8
LAYER3
  6
CONTINUOUS
100
AcDbLine
 10
-0.1660723491
 20
-3.0524857043
 30
0.0
 11
-0.1409582389
 21
-3.0592150098
 31
0.0
  0
ARC
  5
367
330
8AE
100
AcDbEntity
  8
LAYER3
  6
CONTINUOUS
100
AcDbCircle
 10
0.0
 20
0.0
 30
0.0
 40
3.056999999978223
100
AcDbArc
 50
273.1141417117
 51
273.7499999999999
  0
ARC
  5
368
330
8AE
100
AcDbEntity
  8
LAYER3
  6
CONTINUOUS
100
AcDbCircle
 10
0.1461346198
 20
-3.0785335264
 30
0.0
 40
0.0199999999999996
100
AcDbArc
 50
105.0
 51
163.5
  0
ARC
  5
369
330
8AE
100
AcDbEntity
  8
LAYER3
  6
CONTINUOUS
100
AcDbCircle
 10
0.1052702752
 20
-3.0844541222
 30
0.0
 40
0.0175000000000001
100
AcDbArc
 50
271.9547064116
 51
343.5
  0
ARC
  5
36A
330
8AE
100
AcDbEntity
  8
LAYER3
  6
CONTINUOUS
100
AcDbCircle
 10
0.0
 20
0.0
 30
0.0
 40
3.103750000001786
100
AcDbArc
 50
268.0452935884
 51
271.9547064116
  0
ARC
  5
36B
330
8AE
100
AcDbEntity
  8
LAYER3
  6
CONTINUOUS
100
AcDbCircle
 10
-0.1052702752
 20
-3.0844541222
 30
0.0
 40
0.0175000000000018
100
AcDbArc
 50
196.5
 51
268.0452935884
  0
ARC
  5
36C
330
8AE
100
AcDbEntity
  8
LAYER3
  6
CONTINUOUS
100
AcDbCircle
 10
-0.1461346198
 20
-3.0785335264
 30
0.0
 40
0.019999999999999
100
AcDbArc
 50
16.5
 51
75.0
  0
ARC
  5
36D
330
8AE
100
AcDbEntity
  8
LAYER3
  6
CONTINUOUS
100
AcDbCircle
 10
0.0
 20
0.0
 30
0.0
 40
3.056999999982396
100
AcDbArc
 50
266.25
 51
266.8858582883
  0
LINE
  5
932
330
8AE
100
AcDbEntity
  8
LAYER3
  6
CONTINUOUS
100
AcDbLine
 10
0.5390600080373287
 20
-3.014644259118179
 30
0.0
 11
0.5630809129198938
 21
-3.004694474584189
 31
0.0
  0
LINE
  5
933
330
8AE
100
AcDbEntity
  8
LAYER3
  6
CONTINUOUS
100
AcDbLine
 10
0.5242562710463171
 20
-3.04706326452361
 30
0.0
 11
0.5269599098769958
 21
-3.029993160535925
 31
0.0
  0
LINE
  5
934
330
8AE
100
AcDbEntity
  8
LAYER3
  6
CONTINUOUS
100
AcDbLine
 10
0.2752157501079268
 20
-3.063135907922563
 30
0.0
 11
0.2822453326933307
 21
-3.078924609001251
 31
0.0
  0
LINE
  5
935
330
8AE
100
AcDbEntity
  8
LAYER3
  6
CONTINUOUS
100
AcDbLine
 10
0.2337777586569488
 20
-3.048048057306314
 30
0.0
 11
0.2595553647859148
 21
-3.051441743489502
 31
0.0
  0
ARC
  5
936
330
8AE
100
AcDbEntity
  8
LAYER3
  6
CONTINUOUS
100
AcDbCircle
 10
0.0
 20
0.0
 30
0.0
 40
3.056999999978223
100
AcDbArc
 50
280.6141417117
 51
281.2499999999999
  0
ARC
  5
937
330
8AE
100
AcDbEntity
  8
LAYER3
  6
CONTINUOUS
100
AcDbCircle
 10
0.5467136766922851
 20
-3.033121849842257
 30
0.0
 40
0.0199999999999996
100
AcDbArc
 50
112.4999999999999
 51
170.9999999999997
  0
ARC
  5
938
330
8AE
100
AcDbEntity
  8
LAYER3
  6
CONTINUOUS
100
AcDbCircle
 10
0.5069717250506545
 20
-3.044325661422644
 30
0.0
 40
0.0175000000000001
100
AcDbArc
 50
279.4547064116003
 51
351.0000000000015
  0
ARC
  5
939
330
8AE
100
AcDbEntity
  8
LAYER3
  6
CONTINUOUS
100
AcDbCircle
 10
0.0
 20
0.0
 30
0.0
 40
3.103750000001785
100
AcDbArc
 50
275.5452935884
 51
279.4547064115999
  0
ARC
  5
93A
330
8AE
100
AcDbEntity
  8
LAYER3
  6
CONTINUOUS
100
AcDbCircle
 10
0.2982323782457608
 20
-3.07180671777427
 30
0.0
 40
0.0175000000000018
100
AcDbArc
 50
203.9999999999999
 51
275.5452935884
  0
ARC
  5
93B
330
8AE
100
AcDbEntity
  8
LAYER3
  6
CONTINUOUS
100
AcDbCircle
 10
0.2569448409532342
 20
-3.071270640790295
 30
0.0
 40
0.019999999999999
100
AcDbArc
 50
23.99999999999988
 51
82.49999999999987
  0
ARC
  5
93C
330
8AE
100
AcDbEntity
  8
LAYER3
  6
CONTINUOUS
100
AcDbCircle
 10
0.0
 20
0.0
 30
0.0
 40
3.056999999982395
100
AcDbArc
 50
273.75
 51
274.3858582883
  0
LINE
  5
93D
330
8AE
100
AcDbEntity
  8
LAYER3
  6
CONTINUOUS
100
AcDbLine
 10
0.927938310981469
 20
-2.918492109345554
 30
0.0
 11
0.9504550062042055
 21
-2.905492089349551
 31
0.0
  0
LINE
  5
93E
330
8AE
100
AcDbEntity
  8
LAYER3
  6
CONTINUOUS
100
AcDbLine
 10
0.9174927513437332
 20
-2.952566041085682
 30
0.0
 11
0.9179451644951074
 21
-2.935289078522268
 31
0.0
  0
LINE
  5
93F
330
8AE
100
AcDbEntity
  8
LAYER3
  6
CONTINUOUS
100
AcDbLine
 10
0.6726807075272855
 20
-3.001007491698854
 30
0.0
 11
0.6817109900910887
 21
-3.015743573603316
 31
0.0
  0
LINE
  5
940
330
8AE
100
AcDbEntity
  8
LAYER3
  6
CONTINUOUS
100
AcDbLine
 10
0.6296278641478373
 20
-2.991457462973541
 30
0.0
 11
0.6556279042180002
 21
-2.991457462928416
 31
0.0
  0
ARC
  5
941
330
8AE
100
AcDbEntity
  8
LAYER3
  6
CONTINUOUS
100
AcDbCircle
 10
0.0
 20
0.0
 30
0.0
 40
3.056999999978223
100
AcDbArc
 50
288.1141417116999
 51
288.7499999999999
  0
ARC
  5
942
330
8AE
100
AcDbEntity
  8
LAYER3
  6
CONTINUOUS
100
AcDbCircle
 10
0.9379383109986977
 20
-2.935812617493464
 30
0.0
 40
0.0199999999999996
100
AcDbArc
 50
119.9999999999997
 51
178.4999999999978
  0
ARC
  5
943
330
8AE
100
AcDbEntity
  8
LAYER3
  6
CONTINUOUS
100
AcDbCircle
 10
0.8999987481265754
 20
-2.952107944531814
 30
0.0
 40
0.0175000000000001
100
AcDbArc
 50
286.9547064116
 51
358.5000000000001
  0
ARC
  5
944
330
8AE
100
AcDbEntity
  8
LAYER3
  6
CONTINUOUS
100
AcDbCircle
 10
0.0
 20
0.0
 30
0.0
 40
3.103750000001785
100
AcDbArc
 50
283.0452935883999
 51
286.9547064116
  0
ARC
  5
945
330
8AE
100
AcDbEntity
  8
LAYER3
  6
CONTINUOUS
100
AcDbCircle
 10
0.6966321930141002
 20
-3.006599848741701
 30
0.0
 40
0.0175000000000018
100
AcDbArc
 50
211.4999999999994
 51
283.0452935883999
  0
ARC
  5
946
330
8AE
100
AcDbEntity
  8
LAYER3
  6
CONTINUOUS
100
AcDbCircle
 10
0.65562790423919
 20
-3.011457462999576
 30
0.0
 40
0.019999999999999
100
AcDbArc
 50
31.50000000000067
 51
90.0
  0
ARC
  5
947
330
8AE
100
AcDbEntity
  8
LAYER3
  6
CONTINUOUS
100
AcDbCircle
 10
0.0
 20
0.0
 30
0.0
 40
3.056999999982395
100
AcDbArc
 50
281.2499999999999
 51
281.8858582883
  0
LINE
  5
948
330
8AE
100
AcDbEntity
  8
LAYER3
  6
CONTINUOUS
100
AcDbLine
 10
1.300939332151612
 20
-2.772403750423145
 30
0.0
 11
1.321566550816452
 21
-2.756575928911549
 31
0.0
  0
LINE
  5
949
330
8AE
100
AcDbEntity
  8
LAYER3
  6
CONTINUOUS
100
AcDbLine
 10
1.29503067628861
 20
-2.807549594078818
 30
0.0
 11
1.293224122846227
 21
-2.790361386559215
 31
0.0
  0
LINE
  5
94A
330
8AE
100
AcDbEntity
  8
LAYER3
  6
CONTINUOUS
100
AcDbLine
 10
1.058635911538526
 20
-2.88753100525571
 30
0.0
 11
1.069512383442394
 21
-2.900962329538948
 31
0.0
  0
LINE
  5
94B
330
8AE
100
AcDbEntity
  8
LAYER3
  6
CONTINUOUS
100
AcDbLine
 10
1.014704862317333
 20
-2.883682202060591
 30
0.0
 11
1.04048246843452
 21
-2.880288515787926
 31
0.0
  0
ARC
  5
94C
330
8AE
100
AcDbEntity
  8
LAYER3
  6
CONTINUOUS
100
AcDbCircle
 10
0.0
 20
0.0
 30
0.0
 40
3.056999999978223
100
AcDbArc
 50
295.6141417117
 51
296.2499999999999
  0
ARC
  5
94D
330
8AE
100
AcDbEntity
  8
LAYER3
  6
CONTINUOUS
100
AcDbCircle
 10
1.313114560758295
 20
-2.788270817298323
 30
0.0
 40
0.0199999999999996
100
AcDbArc
 50
127.5000000000011
 51
186.0000000000012
  0
ARC
  5
94E
330
8AE
100
AcDbEntity
  8
LAYER3
  6
CONTINUOUS
100
AcDbCircle
 10
1.277626543095257
 20
-2.809378842231093
 30
0.0
 40
0.0175000000000001
100
AcDbArc
 50
294.4547064115994
 51
6.000000000000116
  0
ARC
  5
94F
330
8AE
100
AcDbEntity
  8
LAYER3
  6
CONTINUOUS
100
AcDbCircle
 10
0.0
 20
0.0
 30
0.0
 40
3.103750000001786
100
AcDbArc
 50
290.5452935883999
 51
294.4547064115999
  0
ARC
  5
950
330
8AE
100
AcDbEntity
  8
LAYER3
  6
CONTINUOUS
100
AcDbCircle
 10
1.083112437817036
 20
-2.889949222710201
 30
0.0
 40
0.0175000000000018
100
AcDbArc
 50
218.9999999999988
 51
290.5452935883997
  0
ARC
  5
951
330
8AE
100
AcDbEntity
  8
LAYER3
  6
CONTINUOUS
100
AcDbCircle
 10
1.043092992309217
 20
-2.900117413083187
 30
0.0
 40
0.019999999999999
100
AcDbArc
 50
38.9999999999992
 51
97.50000000000013
  0
ARC
  5
952
330
8AE
100
AcDbEntity
  8
LAYER3
  6
CONTINUOUS
100
AcDbCircle
 10
0.0
 20
0.0
 30
0.0
 40
3.056999999982396
100
AcDbArc
 50
288.7499999999999
 51
289.3858582883
  0
LINE
  5
953
330
8AE
100
AcDbEntity
  8
LAYER3
  6
CONTINUOUS
100
AcDbLine
 10
1.651680920660116
 20
-2.578878794675461
 30
0.0
 11
1.670065725336757
 21
-2.560493990062634
 31
0.0
  0
LINE
  5
954
330
8AE
100
AcDbEntity
  8
LAYER3
  6
CONTINUOUS
100
AcDbLine
 10
1.650410267311852
 20
-2.614495195117461
 30
0.0
 11
1.646375657905983
 21
-2.5976898376378
 31
0.0
  0
LINE
  5
955
330
8AE
100
AcDbEntity
  8
LAYER3
  6
CONTINUOUS
100
AcDbLine
 10
1.426477561594017
 20
-2.7246480627378
 30
0.0
 11
1.439014123388147
 21
-2.736544815717461
 31
0.0
  0
LINE
  5
956
330
8AE
100
AcDbEntity
  8
LAYER3
  6
CONTINUOUS
100
AcDbLine
 10
1.382419978963242
 20
-2.726566339162634
 30
0.0
 11
1.407534089139884
 21
-2.71983703357546
 31
0.0
  0
ARC
  5
957
330
8AE
100
AcDbEntity
  8
LAYER3
  6
CONTINUOUS
100
AcDbCircle
 10
0.0
 20
0.0
 30
0.0
 40
3.056999999978223
100
AcDbArc
 50
303.1141417116999
 51
303.7499999999999
  0
ARC
  5
958
330
8AE
100
AcDbEntity
  8
LAYER3
  6
CONTINUOUS
100
AcDbCircle
 10
1.66582305631918
 20
-2.593020930364492
 30
0.0
 40
0.0199999999999996
100
AcDbArc
 50
135.0
 51
193.5
  0
ARC
  5
959
330
8AE
100
AcDbEntity
  8
LAYER3
  6
CONTINUOUS
100
AcDbCircle
 10
1.633393793686579
 20
-2.618580489032832
 30
0.0
 40
0.0175000000000001
100
AcDbArc
 50
301.9547064115993
 51
13.49999999999951
  0
ARC
  5
95A
330
8AE
100
AcDbEntity
  8
LAYER3
  6
CONTINUOUS
100
AcDbCircle
 10
0.0
 20
0.0
 30
0.0
 40
3.103750000001786
100
AcDbArc
 50
298.0452935883999
 51
301.9547064115999
  0
ARC
  5
95B
330
8AE
100
AcDbEntity
  8
LAYER3
  6
CONTINUOUS
100
AcDbCircle
 10
1.451060328513421
 20
-2.723850764232831
 30
0.0
 40
0.0175000000000018
100
AcDbArc
 50
226.4999999999989
 51
298.0452935884001
  0
ARC
  5
95C
330
8AE
100
AcDbEntity
  8
LAYER3
  6
CONTINUOUS
100
AcDbCircle
 10
1.41271047008082
 20
-2.739155550164492
 30
0.0
 40
0.019999999999999
100
AcDbArc
 50
46.49999999999891
 51
105.0
  0
ARC
  5
95D
330
8AE
100
AcDbEntity
  8
LAYER3
  6
CONTINUOUS
100
AcDbCircle
 10
0.0
 20
0.0
 30
0.0
 40
3.056999999982396
100
AcDbArc
 50
296.2499999999999
 51
296.8858582883
  0
LINE
  5
95E
330
8AE
100
AcDbEntity
  8
LAYER3
  6
CONTINUOUS
100
AcDbLine
 10
1.97416179068366
 20
-2.341228507750597
 30
0.0
 11
1.989989612266856
 21
-2.320601289140698
 31
0.0
  0
LINE
  5
95F
330
8AE
100
AcDbEntity
  8
LAYER3
  6
CONTINUOUS
100
AcDbLine
 10
1.977550881081216
 20
-2.376706058492631
 30
0.0
 11
1.971357248997399
 21
-2.360571095378714
 31
0.0
  0
LINE
  5
960
330
8AE
100
AcDbEntity
  8
LAYER3
  6
CONTINUOUS
100
AcDbLine
 10
1.769911785076336
 20
-2.515145636451288
 30
0.0
 11
1.78389393271264
 21
-2.525304261385487
 31
0.0
  0
LINE
  5
961
330
8AE
100
AcDbEntity
  8
LAYER3
  6
CONTINUOUS
100
AcDbLine
 10
1.726481506489862
 20
-2.5227981702546
 30
0.0
 11
1.75050241133789
 21
-2.512848385637231
 31
0.0
  0
ARC
  5
962
330
8AE
100
AcDbEntity
  8
LAYER3
  6
CONTINUOUS
100
AcDbCircle
 10
0.0
 20
0.0
 30
0.0
 40
3.056999999978223
100
AcDbArc
 50
310.6141417116999
 51
311.2499999999999
  0
ARC
  5
963
330
8AE
100
AcDbEntity
  8
LAYER3
  6
CONTINUOUS
100
AcDbCircle
 10
1.990028857533039
 20
-2.353403736390902
 30
0.0
 40
0.0199999999999996
100
AcDbArc
 50
142.4999999999993
 51
200.9999999999984
  0
ARC
  5
964
330
8AE
100
AcDbEntity
  8
LAYER3
  6
CONTINUOUS
100
AcDbCircle
 10
1.961213223605608
 20
-2.382977497659547
 30
0.0
 40
0.0175000000000001
100
AcDbArc
 50
309.4547064116006
 51
20.9999999999996
  0
ARC
  5
965
330
8AE
100
AcDbEntity
  8
LAYER3
  6
CONTINUOUS
100
AcDbCircle
 10
0.0
 20
0.0
 30
0.0
 40
3.103750000001786
100
AcDbArc
 50
305.5452935883999
 51
309.4547064116
  0
ARC
  5
966
330
8AE
100
AcDbEntity
  8
LAYER3
  6
CONTINUOUS
100
AcDbCircle
 10
1.794180174679013
 20
-2.511146463985333
 30
0.0
 40
0.0175000000000018
100
AcDbArc
 50
234.0
 51
305.5452935883989
  0
ARC
  5
967
330
8AE
100
AcDbEntity
  8
LAYER3
  6
CONTINUOUS
100
AcDbCircle
 10
1.758156080032
 20
-2.53132597634509
 30
0.0
 40
0.019999999999999
100
AcDbArc
 50
53.9999999999995
 51
112.5000000000009
  0
ARC
  5
968
330
8AE
100
AcDbEntity
  8
LAYER3
  6
CONTINUOUS
100
AcDbCircle
 10
0.0
 20
0.0
 30
0.0
 40
3.056999999982396
100
AcDbArc
 50
303.7499999999999
 51
304.3858582883
  0
LINE
  5
969
330
8AE
100
AcDbEntity
  8
LAYER3
  6
CONTINUOUS
100
AcDbLine
 10
2.262864205127554
 20
-2.063519151946947
 30
0.0
 11
2.275864225201714
 21
-2.041002456769335
 31
0.0
  0
LINE
  5
96A
330
8AE
100
AcDbEntity
  8
LAYER3
  6
CONTINUOUS
100
AcDbLine
 10
2.270855050994593
 20
-2.098250822259582
 30
0.0
 11
2.262608370994982
 21
-2.083062327203746
 31
0.0
  0
LINE
  5
96B
330
8AE
100
AcDbEntity
  8
LAYER3
  6
CONTINUOUS
100
AcDbLine
 10
2.083062327203746
 20
-2.262608370994983
 30
0.0
 11
2.098250822259582
 21
-2.270855050994594
 31
0.0
  0
LINE
  5
96C
330
8AE
100
AcDbEntity
  8
LAYER3
  6
CONTINUOUS
100
AcDbLine
 10
2.041002456769335
 20
-2.275864225201714
 30
0.0
 11
2.063519151946947
 21
-2.262864205127554
 31
0.0
  0
ARC
  5
96D
330
8AE
100
AcDbEntity
  8
LAYER3
  6
CONTINUOUS
100
AcDbCircle
 10
0.0
 20
0.0
 30
0.0
 40
3.056999999978223
100
AcDbArc
 50
318.1141417117
 51
318.7499999999999
  0
ARC
  5
96E
330
8AE
100
AcDbEntity
  8
LAYER3
  6
CONTINUOUS
100
AcDbCircle
 10
2.280184713254273
 20
-2.073519152000878
 30
0.0
 40
0.0199999999999996
100
AcDbArc
 50
150.0
 51
208.4999999999987
  0
ARC
  5
96F
330
8AE
100
AcDbEntity
  8
LAYER3
  6
CONTINUOUS
100
AcDbCircle
 10
2.255475751517714
 20
-2.106601100615126
 30
0.0
 40
0.0175000000000001
100
AcDbArc
 50
316.954706411601
 51
28.49999999999928
  0
ARC
  5
970
330
8AE
100
AcDbEntity
  8
LAYER3
  6
CONTINUOUS
100
AcDbCircle
 10
0.0
 20
0.0
 30
0.0
 40
3.103750000001786
100
AcDbArc
 50
313.0452935884
 51
316.9547064116
  0
ARC
  5
971
330
8AE
100
AcDbEntity
  8
LAYER3
  6
CONTINUOUS
100
AcDbCircle
 10
2.106601100615126
 20
-2.255475751517714
 30
0.0
 40
0.0175000000000018
100
AcDbArc
 50
241.5000000000003
 51
313.0452935884002
  0
ARC
  5
972
330
8AE
100
AcDbEntity
  8
LAYER3
  6
CONTINUOUS
100
AcDbCircle
 10
2.073519152000877
 20
-2.280184713254274
 30
0.0
 40
0.019999999999999
100
AcDbArc
 50
61.50000000000009
 51
120.0000000000006
  0
ARC
  5
973
330
8AE
100
AcDbEntity
  8
LAYER3
  6
CONTINUOUS
100
AcDbCircle
 10
0.0
 20
0.0
 30
0.0
 40
3.056999999982396
100
AcDbArc
 50
311.25
 51
311.8858582883
  0
LINE
  5
974
330
8AE
100
AcDbEntity
  8
LAYER3
  6
CONTINUOUS
100
AcDbLine
 10
2.512848385637231
 20
-1.75050241133789
 30
0.0
 11
2.5227981702546
 21
-1.726481506489862
 31
0.0
  0
LINE
  5
975
330
8AE
100
AcDbEntity
  8
LAYER3
  6
CONTINUOUS
100
AcDbLine
 10
2.525304261385487
 20
-1.78389393271264
 30
0.0
 11
2.515145636451288
 21
-1.769911785076336
 31
0.0
  0
LINE
  5
976
330
8AE
100
AcDbEntity
  8
LAYER3
  6
CONTINUOUS
100
AcDbLine
 10
2.360571095378714
 20
-1.971357248997399
 30
0.0
 11
2.376706058492631
 21
-1.977550881081216
 31
0.0
  0
LINE
  5
977
330
8AE
100
AcDbEntity
  8
LAYER3
  6
CONTINUOUS
100
AcDbLine
 10
2.320601289140697
 20
-1.989989612266856
 30
0.0
 11
2.341228507750597
 21
-1.97416179068366
 31
0.0
  0
ARC
  5
978
330
8AE
100
AcDbEntity
  8
LAYER3
  6
CONTINUOUS
100
AcDbCircle
 10
0.0
 20
0.0
 30
0.0
 40
3.056999999978223
100
AcDbArc
 50
325.6141417117
 51
326.2499999999999
  0
ARC
  5
979
330
8AE
100
AcDbEntity
  8
LAYER3
  6
CONTINUOUS
100
AcDbCircle
 10
2.531325976345089
 20
-1.758156080032001
 30
0.0
 40
0.0199999999999996
100
AcDbArc
 50
157.5000000000001
 51
215.999999999999
  0
ARC
  5
97A
330
8AE
100
AcDbEntity
  8
LAYER3
  6
CONTINUOUS
100
AcDbCircle
 10
2.511146463985333
 20
-1.794180174679013
 30
0.0
 40
0.0175000000000001
100
AcDbArc
 50
324.454706411599
 51
35.99999999999961
  0
ARC
  5
97B
330
8AE
100
AcDbEntity
  8
LAYER3
  6
CONTINUOUS
100
AcDbCircle
 10
0.0
 20
0.0
 30
0.0
 40
3.103750000001786
100
AcDbArc
 50
320.5452935884
 51
324.4547064115999
  0
ARC
  5
97C
330
8AE
100
AcDbEntity
  8
LAYER3
  6
CONTINUOUS
100
AcDbCircle
 10
2.382977497659546
 20
-1.961213223605609
 30
0.0
 40
0.0175000000000018
100
AcDbArc
 50
249.0000000000027
 51
320.5452935884014
  0
ARC
  5
97D
330
8AE
100
AcDbEntity
  8
LAYER3
  6
CONTINUOUS
100
AcDbCircle
 10
2.353403736390902
 20
-1.99002885753304
 30
0.0
 40
0.019999999999999
100
AcDbArc
 50
69.00000000000084
 51
127.5000000000018
  0
ARC
  5
97E
330
8AE
100
AcDbEntity
  8
LAYER3
  6
CONTINUOUS
100
AcDbCircle
 10
0.0
 20
0.0
 30
0.0
 40
3.056999999982396
100
AcDbArc
 50
318.75
 51
319.3858582883
  0
LINE
  5
97F
330
8AE
100
AcDbEntity
  8
LAYER3
  6
CONTINUOUS
100
AcDbLine
 10
2.71983703357546
 20
-1.407534089139885
 30
0.0
 11
2.726566339162634
 21
-1.382419978963243
 31
0.0
  0
LINE
  5
980
330
8AE
100
AcDbEntity
  8
LAYER3
  6
CONTINUOUS
100
AcDbLine
 10
2.736544815717461
 20
-1.439014123388148
 30
0.0
 11
2.7246480627378
 21
-1.426477561594017
 31
0.0
  0
LINE
  5
981
330
8AE
100
AcDbEntity
  8
LAYER3
  6
CONTINUOUS
100
AcDbLine
 10
2.597689837637799
 20
-1.646375657905983
 30
0.0
 11
2.614495195117461
 21
-1.650410267311853
 31
0.0
  0
LINE
  5
982
330
8AE
100
AcDbEntity
  8
LAYER3
  6
CONTINUOUS
100
AcDbLine
 10
2.560493990062634
 20
-1.670065725336758
 30
0.0
 11
2.578878794675461
 21
-1.651680920660116
 31
0.0
  0
ARC
  5
983
330
8AE
100
AcDbEntity
  8
LAYER3
  6
CONTINUOUS
100
AcDbCircle
 10
0.0
 20
0.0
 30
0.0
 40
3.056999999978223
100
AcDbArc
 50
333.1141417116999
 51
333.7499999999999
  0
ARC
  5
984
330
8AE
100
AcDbEntity
  8
LAYER3
  6
CONTINUOUS
100
AcDbCircle
 10
2.739155550164492
 20
-1.41271047008082
 30
0.0
 40
0.0199999999999996
100
AcDbArc
 50
164.9999999999997
 51
223.4999999999998
  0
ARC
  5
985
330
8AE
100
AcDbEntity
  8
LAYER3
  6
CONTINUOUS
100
AcDbCircle
 10
2.723850764232831
 20
-1.451060328513421
 30
0.0
 40
0.0175000000000001
100
AcDbArc
 50
331.9547064115997
 51
43.49999999999945
  0
ARC
  5
986
330
8AE
100
AcDbEntity
  8
LAYER3
  6
CONTINUOUS
100
AcDbCircle
 10
0.0
 20
0.0
 30
0.0
 40
3.103750000001786
100
AcDbArc
 50
328.0452935883999
 51
331.9547064116
  0
ARC
  5
987
330
8AE
100
AcDbEntity
  8
LAYER3
  6
CONTINUOUS
100
AcDbCircle
 10
2.618580489032831
 20
-1.633393793686579
 30
0.0
 40
0.0175000000000018
100
AcDbArc
 50
256.5000000000002
 51
328.0452935883985
  0
ARC
  5
988
330
8AE
100
AcDbEntity
  8
LAYER3
  6
CONTINUOUS
100
AcDbCircle
 10
2.593020930364492
 20
-1.665823056319181
 30
0.0
 40
0.019999999999999
100
AcDbArc
 50
76.4999999999997
 51
134.9999999999996
  0
ARC
  5
989
330
8AE
100
AcDbEntity
  8
LAYER3
  6
CONTINUOUS
100
AcDbCircle
 10
0.0
 20
0.0
 30
0.0
 40
3.056999999982396
100
AcDbArc
 50
326.2499999999999
 51
326.8858582883
  0
LINE
  5
98A
330
8AE
100
AcDbEntity
  8
LAYER3
  6
CONTINUOUS
100
AcDbLine
 10
2.880288515787926
 20
-1.04048246843452
 30
0.0
 11
2.883682202060592
 21
-1.014704862317334
 31
0.0
  0
LINE
  5
98B
330
8AE
100
AcDbEntity
  8
LAYER3
  6
CONTINUOUS
100
AcDbLine
 10
2.900962329538948
 20
-1.069512383442395
 30
0.0
 11
2.88753100525571
 21
-1.058635911538526
 31
0.0
  0
LINE
  5
98C
330
8AE
100
AcDbEntity
  8
LAYER3
  6
CONTINUOUS
100
AcDbLine
 10
2.790361386559215
 20
-1.293224122846228
 30
0.0
 11
2.807549594078818
 21
-1.29503067628861
 31
0.0
  0
LINE
  5
98D
330
8AE
100
AcDbEntity
  8
LAYER3
  6
CONTINUOUS
100
AcDbLine
 10
2.756575928911548
 20
-1.321566550816452
 30
0.0
 11
2.772403750423145
 21
-1.300939332151612
 31
0.0
  0
ARC
  5
98E
330
8AE
100
AcDbEntity
  8
LAYER3
  6
CONTINUOUS
100
AcDbCircle
 10
0.0
 20
0.0
 30
0.0
 40
3.056999999978223
100
AcDbArc
 50
340.6141417117
 51
341.2499999999999
  0
ARC
  5
98F
330
8AE
100
AcDbEntity
  8
LAYER3
  6
CONTINUOUS
100
AcDbCircle
 10
2.900117413083187
 20
-1.043092992309217
 30
0.0
 40
0.0199999999999996
100
AcDbArc
 50
172.5
 51
230.9999999999992
  0
ARC
  5
990
330
8AE
100
AcDbEntity
  8
LAYER3
  6
CONTINUOUS
100
AcDbCircle
 10
2.889949222710201
 20
-1.083112437817036
 30
0.0
 40
0.0175000000000001
100
AcDbArc
 50
339.454706411599
 51
51.00000000000029
  0
ARC
  5
991
330
8AE
100
AcDbEntity
  8
LAYER3
  6
CONTINUOUS
100
AcDbCircle
 10
0.0
 20
0.0
 30
0.0
 40
3.103750000001786
100
AcDbArc
 50
335.5452935883999
 51
339.4547064115999
  0
ARC
  5
992
330
8AE
100
AcDbEntity
  8
LAYER3
  6
CONTINUOUS
100
AcDbCircle
 10
2.809378842231093
 20
-1.277626543095257
 30
0.0
 40
0.0175000000000018
100
AcDbArc
 50
264.0000000000004
 51
335.5452935884004
  0
ARC
  5
993
330
8AE
100
AcDbEntity
  8
LAYER3
  6
CONTINUOUS
100
AcDbCircle
 10
2.788270817298323
 20
-1.313114560758295
 30
0.0
 40
0.019999999999999
100
AcDbArc
 50
83.99999999999858
 51
142.4999999999992
  0
ARC
  5
994
330
8AE
100
AcDbEntity
  8
LAYER3
  6
CONTINUOUS
100
AcDbCircle
 10
0.0
 20
0.0
 30
0.0
 40
3.056999999982396
100
AcDbArc
 50
333.7499999999999
 51
334.3858582883
  0
LINE
  5
995
330
8AE
100
AcDbEntity
  8
LAYER3
  6
CONTINUOUS
100
AcDbLine
 10
2.991457462928416
 20
-0.6556279042180009
 30
0.0
 11
2.99145746297354
 21
-0.6296278641478381
 31
0.0
  0
LINE
  5
996
330
8AE
100
AcDbEntity
  8
LAYER3
  6
CONTINUOUS
100
AcDbLine
 10
3.015743573603316
 20
-0.6817109900910894
 30
0.0
 11
3.001007491698854
 21
-0.6726807075272863
 31
0.0
  0
LINE
  5
997
330
8AE
100
AcDbEntity
  8
LAYER3
  6
CONTINUOUS
100
AcDbLine
 10
2.935289078522268
 20
-0.9179451644951082
 30
0.0
 11
2.952566041085682
 21
-0.9174927513437339
 31
0.0
  0
LINE
  5
998
330
8AE
100
AcDbEntity
  8
LAYER3
  6
CONTINUOUS
100
AcDbLine
 10
2.905492089349551
 20
-0.9504550062042063
 30
0.0
 11
2.918492109345554
 21
-0.9279383109814696
 31
0.0
  0
ARC
  5
999
330
8AE
100
AcDbEntity
  8
LAYER3
  6
CONTINUOUS
100
AcDbCircle
 10
0.0
 20
0.0
 30
0.0
 40
3.056999999978223
100
AcDbArc
 50
348.1141417116999
 51
348.7499999999999
  0
ARC
  5
99A
330
8AE
100
AcDbEntity
  8
LAYER3
  6
CONTINUOUS
100
AcDbCircle
 10
3.011457462999575
 20
-0.6556279042391907
 30
0.0
 40
0.0199999999999996
100
AcDbArc
 50
180.0
 51
238.5000000000001
  0
ARC
  5
99B
330
8AE
100
AcDbEntity
  8
LAYER3
  6
CONTINUOUS
100
AcDbCircle
 10
3.006599848741701
 20
-0.6966321930141008
 30
0.0
 40
0.0175000000000001
100
AcDbArc
 50
346.9547064116002
 51
58.50000000000058
  0
ARC
  5
99C
330
8AE
100
AcDbEntity
  8
LAYER3
  6
CONTINUOUS
100
AcDbCircle
 10
0.0
 20
0.0
 30
0.0
 40
3.103750000001786
100
AcDbArc
 50
343.0452935883999
 51
346.9547064115999
  0
ARC
  5
99D
330
8AE
100
AcDbEntity
  8
LAYER3
  6
CONTINUOUS
100
AcDbCircle
 10
2.952107944531814
 20
-0.8999987481265761
 30
0.0
 40
0.0175000000000018
100
AcDbArc
 50
271.4999999999998
 51
343.0452935883996
  0
ARC
  5
99E
330
8AE
100
AcDbEntity
  8
LAYER3
  6
CONTINUOUS
100
AcDbCircle
 10
2.935812617493463
 20
-0.9379383109986984
 30
0.0
 40
0.019999999999999
100
AcDbArc
 50
91.49999999999963
 51
150.0000000000005
  0
ARC
  5
99F
330
8AE
100
AcDbEntity
  8
LAYER3
  6
CONTINUOUS
100
AcDbCircle
 10
0.0
 20
0.0
 30
0.0
 40
3.056999999982396
100
AcDbArc
 50
341.2499999999999
 51
341.8858582883
  0
LINE
  5
9A0
330
8AE
100
AcDbEntity
  8
LAYER3
  6
CONTINUOUS
100
AcDbLine
 10
3.051441743489502
 20
-0.2595553647859152
 30
0.0
 11
3.048048057306314
 21
-0.2337777586569492
 31
0.0
  0
LINE
  5
9A1
330
8AE
100
AcDbEntity
  8
LAYER3
  6
CONTINUOUS
100
AcDbLine
 10
3.078924609001251
 20
-0.2822453326933312
 30
0.0
 11
3.063135907922563
 21
-0.2752157501079272
 31
0.0
  0
LINE
  5
9A2
330
8AE
100
AcDbEntity
  8
LAYER3
  6
CONTINUOUS
100
AcDbLine
 10
3.029993160535925
 20
-0.5269599098769963
 30
0.0
 11
3.04706326452361
 21
-0.5242562710463176
 31
0.0
  0
LINE
  5
9A3
330
8AE
100
AcDbEntity
  8
LAYER3
  6
CONTINUOUS
100
AcDbLine
 10
3.004694474584189
 20
-0.5630809129198943
 30
0.0
 11
3.014644259118179
 21
-0.5390600080373291
 31
0.0
  0
ARC
  5
9A4
330
8AE
100
AcDbEntity
  8
LAYER3
  6
CONTINUOUS
100
AcDbCircle
 10
0.0
 20
0.0
 30
0.0
 40
3.056999999978223
100
AcDbArc
 50
355.6141417116999
 51
356.2499999999999
  0
ARC
  5
9A5
330
8AE
100
AcDbEntity
  8
LAYER3
  6
CONTINUOUS
100
AcDbCircle
 10
3.071270640790295
 20
-0.2569448409532346
 30
0.0
 40
0.0199999999999996
100
AcDbArc
 50
187.5000000000003
 51
245.9999999999994
  0
ARC
  5
9A6
330
8AE
100
AcDbEntity
  8
LAYER3
  6
CONTINUOUS
100
AcDbCircle
 10
3.07180671777427
 20
-0.2982323782457612
 30
0.0
 40
0.0175000000000001
100
AcDbArc
 50
354.4547064116
 51
65.99999999999919
  0
ARC
  5
9A7
330
8AE
100
AcDbEntity
  8
LAYER3
  6
CONTINUOUS
100
AcDbCircle
 10
0.0
 20
0.0
 30
0.0
 40
3.103750000001785
100
AcDbArc
 50
350.5452935883999
 51
354.4547064115999
  0
ARC
  5
9A8
330
8AE
100
AcDbEntity
  8
LAYER3
  6
CONTINUOUS
100
AcDbCircle
 10
3.044325661422644
 20
-0.5069717250506549
 30
0.0
 40
0.0175000000000018
100
AcDbArc
 50
278.999999999999
 51
350.5452935883997
  0
ARC
  5
9A9
330
8AE
100
AcDbEntity
  8
LAYER3
  6
CONTINUOUS
100
AcDbCircle
 10
3.033121849842257
 20
-0.5467136766922855
 30
0.0
 40
0.019999999999999
100
AcDbArc
 50
98.99999999999935
 51
157.4999999999991
  0
ARC
  5
9AA
330
8AE
100
AcDbEntity
  8
LAYER3
  6
CONTINUOUS
100
AcDbCircle
 10
0.0
 20
0.0
 30
0.0
 40
3.056999999982395
100
AcDbArc
 50
348.7499999999999
 51
349.3858582883
  0
LINE
  5
9AB
330
8AE
100
AcDbEntity
  8
LAYER3
  6
CONTINUOUS
100
AcDbLine
 10
3.0592150098
 20
0.1409582388999998
 30
0.0
 11
3.0524857043
 21
0.1660723490999998
 31
0.0
  0
LINE
  5
9AC
330
8AE
100
AcDbEntity
  8
LAYER3
  6
CONTINUOUS
100
AcDbLine
 10
3.0894243907
 20
0.1220496205999998
 30
0.0
 11
3.0728532195
 21
0.1269582250999998
 31
0.0
  0
LINE
  5
9AD
330
8AE
100
AcDbEntity
  8
LAYER3
  6
CONTINUOUS
100
AcDbLine
 10
3.0728532195
 20
-0.1269582251000002
 30
0.0
 11
3.0894243907
 21
-0.1220496206000002
 31
0.0
  0
LINE
  5
9AE
330
8AE
100
AcDbEntity
  8
LAYER3
  6
CONTINUOUS
100
AcDbLine
 10
3.0524857043
 20
-0.1660723491000002
 30
0.0
 11
3.0592150098
 21
-0.1409582389000002
 31
0.0
  0
ARC
  5
9AF
330
8AE
100
AcDbEntity
  8
LAYER3
  6
CONTINUOUS
100
AcDbCircle
 10
0.0
 20
0.0
 30
0.0
 40
3.056999999978223
100
AcDbArc
 50
3.114141711699956
 51
3.749999999999905
  0
ARC
  5
9B0
330
8AE
100
AcDbEntity
  8
LAYER3
  6
CONTINUOUS
100
AcDbCircle
 10
3.0785335264
 20
0.1461346197999998
 30
0.0
 40
0.0199999999999996
100
AcDbArc
 50
194.9999999999999
 51
253.4999999999995
  0
ARC
  5
9B1
330
8AE
100
AcDbEntity
  8
LAYER3
  6
CONTINUOUS
100
AcDbCircle
 10
3.0844541222
 20
0.1052702751999998
 30
0.0
 40
0.0175000000000001
100
AcDbArc
 50
1.954706411599964
 51
73.49999999999976
  0
ARC
  5
9B2
330
8AE
100
AcDbEntity
  8
LAYER3
  6
CONTINUOUS
100
AcDbCircle
 10
0.0
 20
0.0
 30
0.0
 40
3.103750000001786
100
AcDbArc
 50
358.0452935884
 51
1.954706411599957
  0
ARC
  5
9B3
330
8AE
100
AcDbEntity
  8
LAYER3
  6
CONTINUOUS
100
AcDbCircle
 10
3.0844541222
 20
-0.1052702752000002
 30
0.0
 40
0.0175000000000018
100
AcDbArc
 50
286.5000000000001
 51
358.0452935884
  0
ARC
  5
9B4
330
8AE
100
AcDbEntity
  8
LAYER3
  6
CONTINUOUS
100
AcDbCircle
 10
3.0785335264
 20
-0.1461346198000002
 30
0.0
 40
0.019999999999999
100
AcDbArc
 50
106.4999999999997
 51
165.0000000000003
  0
ARC
  5
9B5
330
8AE
100
AcDbEntity
  8
LAYER3
  6
CONTINUOUS
100
AcDbCircle
 10
0.0
 20
0.0
 30
0.0
 40
3.056999999982396
100
AcDbArc
 50
356.25
 51
356.8858582883
  0
LINE
  5
9B6
330
8AE
100
AcDbEntity
  8
LAYER3
  6
CONTINUOUS
100
AcDbLine
 10
3.01464425911818
 20
0.5390600080373281
 30
0.0
 11
3.004694474584189
 21
0.5630809129198933
 31
0.0
  0
LINE
  5
9B7
330
8AE
100
AcDbEntity
  8
LAYER3
  6
CONTINUOUS
100
AcDbLine
 10
3.047063264523611
 20
0.5242562710463164
 30
0.0
 11
3.029993160535925
 21
0.5269599098769953
 31
0.0
  0
LINE
  5
9B8
330
8AE
100
AcDbEntity
  8
LAYER3
  6
CONTINUOUS
100
AcDbLine
 10
3.063135907922564
 20
0.2752157501079262
 30
0.0
 11
3.07892460900125
 21
0.2822453326933301
 31
0.0
  0
LINE
  5
9B9
330
8AE
100
AcDbEntity
  8
LAYER3
  6
CONTINUOUS
100
AcDbLine
 10
3.048048057306314
 20
0.2337777586569482
 30
0.0
 11
3.051441743489502
 21
0.2595553647859142
 31
0.0
  0
ARC
  5
9BA
330
8AE
100
AcDbEntity
  8
LAYER3
  6
CONTINUOUS
100
AcDbCircle
 10
0.0
 20
0.0
 30
0.0
 40
3.056999999978223
100
AcDbArc
 50
10.61414171169995
 51
11.2499999999999
  0
ARC
  5
9BB
330
8AE
100
AcDbEntity
  8
LAYER3
  6
CONTINUOUS
100
AcDbCircle
 10
3.033121849842257
 20
0.5467136766922845
 30
0.0
 40
0.0199999999999996
100
AcDbArc
 50
202.4999999999999
 51
260.9999999999997
  0
ARC
  5
9BC
330
8AE
100
AcDbEntity
  8
LAYER3
  6
CONTINUOUS
100
AcDbCircle
 10
3.044325661422644
 20
0.5069717250506539
 30
0.0
 40
0.0175000000000001
100
AcDbArc
 50
9.454706411599913
 51
81.00000000000009
  0
ARC
  5
9BD
330
8AE
100
AcDbEntity
  8
LAYER3
  6
CONTINUOUS
100
AcDbCircle
 10
0.0
 20
0.0
 30
0.0
 40
3.103750000001786
100
AcDbArc
 50
5.545293588399956
 51
9.45470641159995
  0
ARC
  5
9BE
330
8AE
100
AcDbEntity
  8
LAYER3
  6
CONTINUOUS
100
AcDbCircle
 10
3.07180671777427
 20
0.2982323782457602
 30
0.0
 40
0.0175000000000018
100
AcDbArc
 50
294.0000000000015
 51
5.545293588399621
  0
ARC
  5
9BF
330
8AE
100
AcDbEntity
  8
LAYER3
  6
CONTINUOUS
100
AcDbCircle
 10
3.071270640790295
 20
0.2569448409532336
 30
0.0
 40
0.019999999999999
100
AcDbArc
 50
113.9999999999999
 51
172.5000000000002
  0
ARC
  5
9C0
330
8AE
100
AcDbEntity
  8
LAYER3
  6
CONTINUOUS
100
AcDbCircle
 10
0.0
 20
0.0
 30
0.0
 40
3.056999999982396
100
AcDbArc
 50
3.749999999999956
 51
4.385858288300006
  0
LINE
  5
9C1
330
8AE
100
AcDbEntity
  8
LAYER3
  6
CONTINUOUS
100
AcDbLine
 10
2.918492109345554
 20
0.9279383109814686
 30
0.0
 11
2.905492089349552
 21
0.9504550062042052
 31
0.0
  0
LINE
  5
9C2
330
8AE
100
AcDbEntity
  8
LAYER3
  6
CONTINUOUS
100
AcDbLine
 10
2.952566041085682
 20
0.917492751343733
 30
0.0
 11
2.935289078522268
 21
0.9179451644951071
 31
0.0
  0
LINE
  5
9C3
330
8AE
100
AcDbEntity
  8
LAYER3
  6
CONTINUOUS
100
AcDbLine
 10
3.001007491698854
 20
0.6726807075272851
 30
0.0
 11
3.015743573603316
 21
0.6817109900910883
 31
0.0
  0
LINE
  5
9C4
330
8AE
100
AcDbEntity
  8
LAYER3
  6
CONTINUOUS
100
AcDbLine
 10
2.99145746297354
 20
0.629627864147837
 30
0.0
 11
2.991457462928416
 21
0.6556279042179999
 31
0.0
  0
ARC
  5
9C5
330
8AE
100
AcDbEntity
  8
LAYER3
  6
CONTINUOUS
100
AcDbCircle
 10
0.0
 20
0.0
 30
0.0
 40
3.056999999978223
100
AcDbArc
 50
18.11414171169995
 51
18.7499999999999
  0
ARC
  5
9C6
330
8AE
100
AcDbEntity
  8
LAYER3
  6
CONTINUOUS
100
AcDbCircle
 10
2.935812617493464
 20
0.9379383109986974
 30
0.0
 40
0.0199999999999996
100
AcDbArc
 50
210.0
 51
268.4999999999978
  0
ARC
  5
9C7
330
8AE
100
AcDbEntity
  8
LAYER3
  6
CONTINUOUS
100
AcDbCircle
 10
2.952107944531814
 20
0.8999987481265751
 30
0.0
 40
0.0175000000000001
100
AcDbArc
 50
16.95470641159999
 51
88.5000000000001
  0
ARC
  5
9C8
330
8AE
100
AcDbEntity
  8
LAYER3
  6
CONTINUOUS
100
AcDbCircle
 10
0.0
 20
0.0
 30
0.0
 40
3.103750000001785
100
AcDbArc
 50
13.04529358839996
 51
16.95470641159996
  0
ARC
  5
9C9
330
8AE
100
AcDbEntity
  8
LAYER3
  6
CONTINUOUS
100
AcDbCircle
 10
3.006599848741701
 20
0.6966321930140998
 30
0.0
 40
0.0175000000000018
100
AcDbArc
 50
301.4999999999994
 51
13.04529358839993
  0
ARC
  5
9CA
330
8AE
100
AcDbEntity
  8
LAYER3
  6
CONTINUOUS
100
AcDbCircle
 10
3.011457462999576
 20
0.6556279042391897
 30
0.0
 40
0.019999999999999
100
AcDbArc
 50
121.5000000000007
 51
180.0
  0
ARC
  5
9CB
330
8AE
100
AcDbEntity
  8
LAYER3
  6
CONTINUOUS
100
AcDbCircle
 10
0.0
 20
0.0
 30
0.0
 40
3.056999999982395
100
AcDbArc
 50
11.24999999999996
 51
11.88585828830001
  0
LINE
  5
9CC
330
8AE
100
AcDbEntity
  8
LAYER3
  6
CONTINUOUS
100
AcDbLine
 10
2.772403750423146
 20
1.300939332151611
 30
0.0
 11
2.756575928911549
 21
1.321566550816451
 31
0.0
  0
LINE
  5
9CD
330
8AE
100
AcDbEntity
  8
LAYER3
  6
CONTINUOUS
100
AcDbLine
 10
2.807549594078818
 20
1.295030676288609
 30
0.0
 11
2.790361386559215
 21
1.293224122846226
 31
0.0
  0
LINE
  5
9CE
330
8AE
100
AcDbEntity
  8
LAYER3
  6
CONTINUOUS
100
AcDbLine
 10
2.88753100525571
 20
1.058635911538525
 30
0.0
 11
2.900962329538948
 21
1.069512383442393
 31
0.0
  0
LINE
  5
9CF
330
8AE
100
AcDbEntity
  8
LAYER3
  6
CONTINUOUS
100
AcDbLine
 10
2.883682202060591
 20
1.014704862317332
 30
0.0
 11
2.880288515787926
 21
1.040482468434519
 31
0.0
  0
ARC
  5
9D0
330
8AE
100
AcDbEntity
  8
LAYER3
  6
CONTINUOUS
100
AcDbCircle
 10
0.0
 20
0.0
 30
0.0
 40
3.056999999978223
100
AcDbArc
 50
25.61414171169995
 51
26.24999999999989
  0
ARC
  5
9D1
330
8AE
100
AcDbEntity
  8
LAYER3
  6
CONTINUOUS
100
AcDbCircle
 10
2.788270817298324
 20
1.313114560758294
 30
0.0
 40
0.0199999999999996
100
AcDbArc
 50
217.5000000000011
 51
276.0000000000012
  0
ARC
  5
9D2
330
8AE
100
AcDbEntity
  8
LAYER3
  6
CONTINUOUS
100
AcDbCircle
 10
2.809378842231094
 20
1.277626543095256
 30
0.0
 40
0.0175000000000001
100
AcDbArc
 50
24.45470641160011
 51
96.00000000000163
  0
ARC
  5
9D3
330
8AE
100
AcDbEntity
  8
LAYER3
  6
CONTINUOUS
100
AcDbCircle
 10
0.0
 20
0.0
 30
0.0
 40
3.103750000001786
100
AcDbArc
 50
20.54529358839996
 51
24.45470641159995
  0
ARC
  5
9D4
330
8AE
100
AcDbEntity
  8
LAYER3
  6
CONTINUOUS
100
AcDbCircle
 10
2.889949222710201
 20
1.083112437817035
 30
0.0
 40
0.0175000000000018
100
AcDbArc
 50
309.0000000000004
 51
20.54529358839967
  0
ARC
  5
9D5
330
8AE
100
AcDbEntity
  8
LAYER3
  6
CONTINUOUS
100
AcDbCircle
 10
2.900117413083187
 20
1.043092992309216
 30
0.0
 40
0.019999999999999
100
AcDbArc
 50
128.9999999999992
 51
187.5000000000001
  0
ARC
  5
9D6
330
8AE
100
AcDbEntity
  8
LAYER3
  6
CONTINUOUS
100
AcDbCircle
 10
0.0
 20
0.0
 30
0.0
 40
3.056999999982396
100
AcDbArc
 50
18.74999999999996
 51
19.3858582883
  0
LINE
  5
9D7
330
8AE
100
AcDbEntity
  8
LAYER3
  6
CONTINUOUS
100
AcDbLine
 10
2.578878794675461
 20
1.651680920660115
 30
0.0
 11
2.560493990062634
 21
1.670065725336757
 31
0.0
  0
LINE
  5
9D8
330
8AE
100
AcDbEntity
  8
LAYER3
  6
CONTINUOUS
100
AcDbLine
 10
2.614495195117461
 20
1.650410267311852
 30
0.0
 11
2.5976898376378
 21
1.646375657905982
 31
0.0
  0
LINE
  5
9D9
330
8AE
100
AcDbEntity
  8
LAYER3
  6
CONTINUOUS
100
AcDbLine
 10
2.7246480627378
 20
1.426477561594016
 30
0.0
 11
2.736544815717461
 21
1.439014123388147
 31
0.0
  0
LINE
  5
9DA
330
8AE
100
AcDbEntity
  8
LAYER3
  6
CONTINUOUS
100
AcDbLine
 10
2.726566339162634
 20
1.382419978963242
 30
0.0
 11
2.71983703357546
 21
1.407534089139884
 31
0.0
  0
ARC
  5
9DB
330
8AE
100
AcDbEntity
  8
LAYER3
  6
CONTINUOUS
100
AcDbCircle
 10
0.0
 20
0.0
 30
0.0
 40
3.056999999978223
100
AcDbArc
 50
33.11414171169994
 51
33.7499999999999
  0
ARC
  5
9DC
330
8AE
100
AcDbEntity
  8
LAYER3
  6
CONTINUOUS
100
AcDbCircle
 10
2.593020930364492
 20
1.66582305631918
 30
0.0
 40
0.0199999999999996
100
AcDbArc
 50
225.0
 51
283.5
  0
ARC
  5
9DD
330
8AE
100
AcDbEntity
  8
LAYER3
  6
CONTINUOUS
100
AcDbCircle
 10
2.618580489032832
 20
1.633393793686578
 30
0.0
 40
0.0175000000000001
100
AcDbArc
 50
31.95470641159935
 51
103.4999999999995
  0
ARC
  5
9DE
330
8AE
100
AcDbEntity
  8
LAYER3
  6
CONTINUOUS
100
AcDbCircle
 10
0.0
 20
0.0
 30
0.0
 40
3.103750000001786
100
AcDbArc
 50
28.04529358839996
 51
31.95470641159995
  0
ARC
  5
9DF
330
8AE
100
AcDbEntity
  8
LAYER3
  6
CONTINUOUS
100
AcDbCircle
 10
2.723850764232831
 20
1.45106032851342
 30
0.0
 40
0.0175000000000018
100
AcDbArc
 50
316.4999999999989
 51
28.04529358840011
  0
ARC
  5
9E0
330
8AE
100
AcDbEntity
  8
LAYER3
  6
CONTINUOUS
100
AcDbCircle
 10
2.739155550164492
 20
1.412710470080819
 30
0.0
 40
0.019999999999999
100
AcDbArc
 50
136.4999999999989
 51
195.0
  0
ARC
  5
9E1
330
8AE
100
AcDbEntity
  8
LAYER3
  6
CONTINUOUS
100
AcDbCircle
 10
0.0
 20
0.0
 30
0.0
 40
3.056999999982396
100
AcDbArc
 50
26.24999999999996
 51
26.88585828830001
  0
LINE
  5
9E2
330
8AE
100
AcDbEntity
  8
LAYER3
  6
CONTINUOUS
100
AcDbLine
 10
2.341228507750598
 20
1.974161790683659
 30
0.0
 11
2.320601289140698
 21
1.989989612266855
 31
0.0
  0
LINE
  5
9E3
330
8AE
100
AcDbEntity
  8
LAYER3
  6
CONTINUOUS
100
AcDbLine
 10
2.376706058492632
 20
1.977550881081215
 30
0.0
 11
2.360571095378715
 21
1.971357248997398
 31
0.0
  0
LINE
  5
9E4
330
8AE
100
AcDbEntity
  8
LAYER3
  6
CONTINUOUS
100
AcDbLine
 10
2.515145636451289
 20
1.769911785076335
 30
0.0
 11
2.525304261385488
 21
1.783893932712639
 31
0.0
  0
LINE
  5
9E5
330
8AE
100
AcDbEntity
  8
LAYER3
  6
CONTINUOUS
100
AcDbLine
 10
2.522798170254601
 20
1.726481506489861
 30
0.0
 11
2.512848385637231
 21
1.750502411337889
 31
0.0
  0
ARC
  5
9E6
330
8AE
100
AcDbEntity
  8
LAYER3
  6
CONTINUOUS
100
AcDbCircle
 10
0.0
 20
0.0
 30
0.0
 40
3.056999999978223
100
AcDbArc
 50
40.61414171169994
 51
41.24999999999989
  0
ARC
  5
9E7
330
8AE
100
AcDbEntity
  8
LAYER3
  6
CONTINUOUS
100
AcDbCircle
 10
2.353403736390902
 20
1.990028857533039
 30
0.0
 40
0.0199999999999996
100
AcDbArc
 50
232.5000000000007
 51
290.9999999999998
  0
ARC
  5
9E8
330
8AE
100
AcDbEntity
  8
LAYER3
  6
CONTINUOUS
100
AcDbCircle
 10
2.382977497659547
 20
1.961213223605608
 30
0.0
 40
0.0175000000000001
100
AcDbArc
 50
39.45470641160063
 51
111.000000000001
  0
ARC
  5
9E9
330
8AE
100
AcDbEntity
  8
LAYER3
  6
CONTINUOUS
100
AcDbCircle
 10
0.0
 20
0.0
 30
0.0
 40
3.103750000001786
100
AcDbArc
 50
35.54529358839995
 51
39.45470641159994
  0
ARC
  5
9EA
330
8AE
100
AcDbEntity
  8
LAYER3
  6
CONTINUOUS
100
AcDbCircle
 10
2.511146463985333
 20
1.794180174679012
 30
0.0
 40
0.0175000000000018
100
AcDbArc
 50
324.0
 51
35.54529358839888
  0
ARC
  5
9EB
330
8AE
100
AcDbEntity
  8
LAYER3
  6
CONTINUOUS
100
AcDbCircle
 10
2.53132597634509
 20
1.758156080031999
 30
0.0
 40
0.019999999999999
100
AcDbArc
 50
143.9999999999977
 51
202.5000000000003
  0
ARC
  5
9EC
330
8AE
100
AcDbEntity
  8
LAYER3
  6
CONTINUOUS
100
AcDbCircle
 10
0.0
 20
0.0
 30
0.0
 40
3.056999999982396
100
AcDbArc
 50
33.74999999999995
 51
34.3858582883
  0
LINE
  5
9ED
330
8AE
100
AcDbEntity
  8
LAYER3
  6
CONTINUOUS
100
AcDbLine
 10
2.063519151946947
 20
2.262864205127554
 30
0.0
 11
2.041002456769335
 21
2.275864225201714
 31
0.0
  0
LINE
  5
9EE
330
8AE
100
AcDbEntity
  8
LAYER3
  6
CONTINUOUS
100
AcDbLine
 10
2.098250822259582
 20
2.270855050994593
 30
0.0
 11
2.083062327203746
 21
2.262608370994982
 31
0.0
  0
LINE
  5
9EF
330
8AE
100
AcDbEntity
  8
LAYER3
  6
CONTINUOUS
100
AcDbLine
 10
2.262608370994983
 20
2.083062327203746
 30
0.0
 11
2.270855050994594
 21
2.098250822259582
 31
0.0
  0
LINE
  5
9F0
330
8AE
100
AcDbEntity
  8
LAYER3
  6
CONTINUOUS
100
AcDbLine
 10
2.275864225201714
 20
2.041002456769335
 30
0.0
 11
2.262864205127554
 21
2.063519151946947
 31
0.0
  0
ARC
  5
9F1
330
8AE
100
AcDbEntity
  8
LAYER3
  6
CONTINUOUS
100
AcDbCircle
 10
0.0
 20
0.0
 30
0.0
 40
3.056999999978223
100
AcDbArc
 50
48.11414171169996
 51
48.74999999999991
  0
ARC
  5
9F2
330
8AE
100
AcDbEntity
  8
LAYER3
  6
CONTINUOUS
100
AcDbCircle
 10
2.073519152000878
 20
2.280184713254273
 30
0.0
 40
0.0199999999999996
100
AcDbArc
 50
240.0
 51
298.4999999999987
  0
ARC
  5
9F3
330
8AE
100
AcDbEntity
  8
LAYER3
  6
CONTINUOUS
100
AcDbCircle
 10
2.106601100615126
 20
2.255475751517714
 30
0.0
 40
0.0175000000000001
100
AcDbArc
 50
46.95470641160099
 51
118.4999999999993
  0
ARC
  5
9F4
330
8AE
100
AcDbEntity
  8
LAYER3
  6
CONTINUOUS
100
AcDbCircle
 10
0.0
 20
0.0
 30
0.0
 40
3.103750000001786
100
AcDbArc
 50
43.04529358839995
 51
46.95470641159996
  0
ARC
  5
9F5
330
8AE
100
AcDbEntity
  8
LAYER3
  6
CONTINUOUS
100
AcDbCircle
 10
2.255475751517714
 20
2.106601100615126
 30
0.0
 40
0.0175000000000018
100
AcDbArc
 50
331.5000000000003
 51
43.04529358840023
  0
ARC
  5
9F6
330
8AE
100
AcDbEntity
  8
LAYER3
  6
CONTINUOUS
100
AcDbCircle
 10
2.280184713254274
 20
2.073519152000877
 30
0.0
 40
0.019999999999999
100
AcDbArc
 50
151.5000000000001
 51
210.0000000000006
  0
ARC
  5
9F7
330
8AE
100
AcDbEntity
  8
LAYER3
  6
CONTINUOUS
100
AcDbCircle
 10
0.0
 20
0.0
 30
0.0
 40
3.056999999982396
100
AcDbArc
 50
41.24999999999999
 51
41.8858582883
  0
LINE
  5
9F8
330
8AE
100
AcDbEntity
  8
LAYER3
  6
CONTINUOUS
100
AcDbLine
 10
1.750502411337891
 20
2.51284838563723
 30
0.0
 11
1.726481506489863
 21
2.5227981702546
 31
0.0
  0
LINE
  5
9F9
330
8AE
100
AcDbEntity
  8
LAYER3
  6
CONTINUOUS
100
AcDbLine
 10
1.783893932712641
 20
2.525304261385487
 30
0.0
 11
1.769911785076337
 21
2.515145636451287
 31
0.0
  0
LINE
  5
9FA
330
8AE
100
AcDbEntity
  8
LAYER3
  6
CONTINUOUS
100
AcDbLine
 10
1.9713572489974
 20
2.360571095378714
 30
0.0
 11
1.977550881081217
 21
2.376706058492631
 31
0.0
  0
LINE
  5
9FB
330
8AE
100
AcDbEntity
  8
LAYER3
  6
CONTINUOUS
100
AcDbLine
 10
1.989989612266857
 20
2.320601289140697
 30
0.0
 11
1.974161790683661
 21
2.341228507750597
 31
0.0
  0
ARC
  5
9FC
330
8AE
100
AcDbEntity
  8
LAYER3
  6
CONTINUOUS
100
AcDbCircle
 10
0.0
 20
0.0
 30
0.0
 40
3.056999999978223
100
AcDbArc
 50
55.61414171169994
 51
56.24999999999988
  0
ARC
  5
9FD
330
8AE
100
AcDbEntity
  8
LAYER3
  6
CONTINUOUS
100
AcDbCircle
 10
1.758156080032001
 20
2.531325976345089
 30
0.0
 40
0.0199999999999996
100
AcDbArc
 50
247.5000000000001
 51
305.999999999999
  0
ARC
  5
9FE
330
8AE
100
AcDbEntity
  8
LAYER3
  6
CONTINUOUS
100
AcDbCircle
 10
1.794180174679014
 20
2.511146463985333
 30
0.0
 40
0.0175000000000001
100
AcDbArc
 50
54.45470641159892
 51
126.0000000000002
  0
ARC
  5
9FF
330
8AE
100
AcDbEntity
  8
LAYER3
  6
CONTINUOUS
100
AcDbCircle
 10
0.0
 20
0.0
 30
0.0
 40
3.103750000001785
100
AcDbArc
 50
50.54529358839996
 51
54.45470641159995
  0
ARC
  5
A00
330
8AE
100
AcDbEntity
  8
LAYER3
  6
CONTINUOUS
100
AcDbCircle
 10
1.961213223605609
 20
2.382977497659546
 30
0.0
 40
0.0175000000000018
100
AcDbArc
 50
339.0000000000011
 51
50.54529358839934
  0
ARC
  5
A01
330
8AE
100
AcDbEntity
  8
LAYER3
  6
CONTINUOUS
100
AcDbCircle
 10
1.99002885753304
 20
2.353403736390901
 30
0.0
 40
0.019999999999999
100
AcDbArc
 50
158.9999999999983
 51
217.5000000000004
  0
ARC
  5
A02
330
8AE
100
AcDbEntity
  8
LAYER3
  6
CONTINUOUS
100
AcDbCircle
 10
0.0
 20
0.0
 30
0.0
 40
3.056999999982395
100
AcDbArc
 50
48.74999999999996
 51
49.38585828830002
  0
LINE
  5
A03
330
8AE
100
AcDbEntity
  8
LAYER3
  6
CONTINUOUS
100
AcDbLine
 10
1.407534089139885
 20
2.71983703357546
 30
0.0
 11
1.382419978963243
 21
2.726566339162634
 31
0.0
  0
LINE
  5
A04
330
8AE
100
AcDbEntity
  8
LAYER3
  6
CONTINUOUS
100
AcDbLine
 10
1.439014123388149
 20
2.736544815717461
 30
0.0
 11
1.426477561594018
 21
2.724648062737799
 31
0.0
  0
LINE
  5
A05
330
8AE
100
AcDbEntity
  8
LAYER3
  6
CONTINUOUS
100
AcDbLine
 10
1.646375657905984
 20
2.597689837637799
 30
0.0
 11
1.650410267311854
 21
2.61449519511746
 31
0.0
  0
LINE
  5
A06
330
8AE
100
AcDbEntity
  8
LAYER3
  6
CONTINUOUS
100
AcDbLine
 10
1.670065725336759
 20
2.560493990062633
 30
0.0
 11
1.651680920660117
 21
2.57887879467546
 31
0.0
  0
ARC
  5
A07
330
8AE
100
AcDbEntity
  8
LAYER3
  6
CONTINUOUS
100
AcDbCircle
 10
0.0
 20
0.0
 30
0.0
 40
3.056999999978223
100
AcDbArc
 50
63.11414171169994
 51
63.74999999999989
  0
ARC
  5
A08
330
8AE
100
AcDbEntity
  8
LAYER3
  6
CONTINUOUS
100
AcDbCircle
 10
1.412710470080821
 20
2.739155550164492
 30
0.0
 40
0.0199999999999996
100
AcDbArc
 50
254.9999999999997
 51
313.4999999999993
  0
ARC
  5
A09
330
8AE
100
AcDbEntity
  8
LAYER3
  6
CONTINUOUS
100
AcDbCircle
 10
1.451060328513422
 20
2.72385076423283
 30
0.0
 40
0.0175000000000001
100
AcDbArc
 50
61.95470641159977
 51
133.4999999999979
  0
ARC
  5
A0A
330
8AE
100
AcDbEntity
  8
LAYER3
  6
CONTINUOUS
100
AcDbCircle
 10
0.0
 20
0.0
 30
0.0
 40
3.103750000001786
100
AcDbArc
 50
58.04529358839995
 51
61.95470641159994
  0
ARC
  5
A0B
330
8AE
100
AcDbEntity
  8
LAYER3
  6
CONTINUOUS
100
AcDbCircle
 10
1.63339379368658
 20
2.618580489032831
 30
0.0
 40
0.0175000000000018
100
AcDbArc
 50
346.5000000000003
 51
58.0452935883985
  0
ARC
  5
A0C
330
8AE
100
AcDbEntity
  8
LAYER3
  6
CONTINUOUS
100
AcDbCircle
 10
1.665823056319182
 20
2.593020930364492
 30
0.0
 40
0.019999999999999
100
AcDbArc
 50
166.5000000000009
 51
225.0000000000009
  0
ARC
  5
A0D
330
8AE
100
AcDbEntity
  8
LAYER3
  6
CONTINUOUS
100
AcDbCircle
 10
0.0
 20
0.0
 30
0.0
 40
3.056999999982396
100
AcDbArc
 50
56.24999999999996
 51
56.88585828829999
  0
LINE
  5
A0E
330
8AE
100
AcDbEntity
  8
LAYER3
  6
CONTINUOUS
100
AcDbLine
 10
1.04048246843452
 20
2.880288515787926
 30
0.0
 11
1.014704862317334
 21
2.883682202060592
 31
0.0
  0
LINE
  5
A0F
330
8AE
100
AcDbEntity
  8
LAYER3
  6
CONTINUOUS
100
AcDbLine
 10
1.069512383442395
 20
2.900962329538948
 30
0.0
 11
1.058635911538526
 21
2.88753100525571
 31
0.0
  0
LINE
  5
A10
330
8AE
100
AcDbEntity
  8
LAYER3
  6
CONTINUOUS
100
AcDbLine
 10
1.293224122846228
 20
2.790361386559215
 30
0.0
 11
1.29503067628861
 21
2.807549594078818
 31
0.0
  0
LINE
  5
A11
330
8AE
100
AcDbEntity
  8
LAYER3
  6
CONTINUOUS
100
AcDbLine
 10
1.321566550816452
 20
2.756575928911548
 30
0.0
 11
1.300939332151612
 21
2.772403750423145
 31
0.0
  0
ARC
  5
A12
330
8AE
100
AcDbEntity
  8
LAYER3
  6
CONTINUOUS
100
AcDbCircle
 10
0.0
 20
0.0
 30
0.0
 40
3.056999999978223
100
AcDbArc
 50
70.61414171169996
 51
71.2499999999999
  0
ARC
  5
A13
330
8AE
100
AcDbEntity
  8
LAYER3
  6
CONTINUOUS
100
AcDbCircle
 10
1.043092992309217
 20
2.900117413083187
 30
0.0
 40
0.0199999999999996
100
AcDbArc
 50
262.5000000000007
 51
320.9999999999992
  0
ARC
  5
A14
330
8AE
100
AcDbEntity
  8
LAYER3
  6
CONTINUOUS
100
AcDbCircle
 10
1.083112437817036
 20
2.889949222710201
 30
0.0
 40
0.0175000000000001
100
AcDbArc
 50
69.45470641159898
 51
141.0000000000003
  0
ARC
  5
A15
330
8AE
100
AcDbEntity
  8
LAYER3
  6
CONTINUOUS
100
AcDbCircle
 10
0.0
 20
0.0
 30
0.0
 40
3.103750000001786
100
AcDbArc
 50
65.54529358839996
 51
69.45470641159996
  0
ARC
  5
A16
330
8AE
100
AcDbEntity
  8
LAYER3
  6
CONTINUOUS
100
AcDbCircle
 10
1.277626543095257
 20
2.809378842231093
 30
0.0
 40
0.0175000000000018
100
AcDbArc
 50
354.0000000000004
 51
65.54529358840037
  0
ARC
  5
A17
330
8AE
100
AcDbEntity
  8
LAYER3
  6
CONTINUOUS
100
AcDbCircle
 10
1.313114560758295
 20
2.788270817298323
 30
0.0
 40
0.019999999999999
100
AcDbArc
 50
173.9999999999986
 51
232.5000000000004
  0
ARC
  5
A18
330
8AE
100
AcDbEntity
  8
LAYER3
  6
CONTINUOUS
100
AcDbCircle
 10
0.0
 20
0.0
 30
0.0
 40
3.056999999982396
100
AcDbArc
 50
63.74999999999996
 51
64.38585828830001
  0
LINE
  5
A19
330
8AE
100
AcDbEntity
  8
LAYER3
  6
CONTINUOUS
100
AcDbLine
 10
0.6556279042180011
 20
2.991457462928416
 30
0.0
 11
0.6296278641478382
 21
2.99145746297354
 31
0.0
  0
LINE
  5
A1A
330
8AE
100
AcDbEntity
  8
LAYER3
  6
CONTINUOUS
100
AcDbLine
 10
0.6817109900910896
 20
3.015743573603316
 30
0.0
 11
0.6726807075272864
 21
3.001007491698854
 31
0.0
  0
LINE
  5
A1B
330
8AE
100
AcDbEntity
  8
LAYER3
  6
CONTINUOUS
100
AcDbLine
 10
0.9179451644951083
 20
2.935289078522268
 30
0.0
 11
0.9174927513437341
 21
2.952566041085682
 31
0.0
  0
LINE
  5
A1C
330
8AE
100
AcDbEntity
  8
LAYER3
  6
CONTINUOUS
100
AcDbLine
 10
0.9504550062042064
 20
2.905492089349551
 30
0.0
 11
0.9279383109814698
 21
2.918492109345554
 31
0.0
  0
ARC
  5
A1D
330
8AE
100
AcDbEntity
  8
LAYER3
  6
CONTINUOUS
100
AcDbCircle
 10
0.0
 20
0.0
 30
0.0
 40
3.056999999978223
100
AcDbArc
 50
78.11414171169994
 51
78.7499999999999
  0
ARC
  5
A1E
330
8AE
100
AcDbEntity
  8
LAYER3
  6
CONTINUOUS
100
AcDbCircle
 10
0.6556279042391909
 20
3.011457462999575
 30
0.0
 40
0.0199999999999996
100
AcDbArc
 50
270.0
 51
328.5000000000003
  0
ARC
  5
A1F
330
8AE
100
AcDbEntity
  8
LAYER3
  6
CONTINUOUS
100
AcDbCircle
 10
0.6966321930141011
 20
3.006599848741701
 30
0.0
 40
0.0175000000000001
100
AcDbArc
 50
76.95470641160016
 51
148.5000000000006
  0
ARC
  5
A20
330
8AE
100
AcDbEntity
  8
LAYER3
  6
CONTINUOUS
100
AcDbCircle
 10
0.0
 20
0.0
 30
0.0
 40
3.103750000001786
100
AcDbArc
 50
73.04529358839996
 51
76.95470641159994
  0
ARC
  5
A21
330
8AE
100
AcDbEntity
  8
LAYER3
  6
CONTINUOUS
100
AcDbCircle
 10
0.8999987481265763
 20
2.952107944531814
 30
0.0
 40
0.0175000000000018
100
AcDbArc
 50
1.499999999999773
 51
73.04529358840031
  0
ARC
  5
A22
330
8AE
100
AcDbEntity
  8
LAYER3
  6
CONTINUOUS
100
AcDbCircle
 10
0.9379383109986986
 20
2.935812617493463
 30
0.0
 40
0.019999999999999
100
AcDbArc
 50
181.4999999999996
 51
240.0000000000004
  0
ARC
  5
A23
330
8AE
100
AcDbEntity
  8
LAYER3
  6
CONTINUOUS
100
AcDbCircle
 10
0.0
 20
0.0
 30
0.0
 40
3.056999999982396
100
AcDbArc
 50
71.24999999999996
 51
71.88585828830001
  0
LINE
  5
A24
330
8AE
100
AcDbEntity
  8
LAYER3
  6
CONTINUOUS
100
AcDbLine
 10
0.2595553647859161
 20
3.051441743489502
 30
0.0
 11
0.2337777586569501
 21
3.048048057306314
 31
0.0
  0
LINE
  5
A25
330
8AE
100
AcDbEntity
  8
LAYER3
  6
CONTINUOUS
100
AcDbLine
 10
0.2822453326933321
 20
3.078924609001251
 30
0.0
 11
0.2752157501079281
 21
3.063135907922563
 31
0.0
  0
LINE
  5
A26
330
8AE
100
AcDbEntity
  8
LAYER3
  6
CONTINUOUS
100
AcDbLine
 10
0.526959909876997
 20
3.029993160535925
 30
0.0
 11
0.5242562710463183
 21
3.04706326452361
 31
0.0
  0
LINE
  5
A27
330
8AE
100
AcDbEntity
  8
LAYER3
  6
CONTINUOUS
100
AcDbLine
 10
0.5630809129198951
 20
3.004694474584189
 30
0.0
 11
0.53906000803733
 21
3.014644259118179
 31
0.0
  0
ARC
  5
A28
330
8AE
100
AcDbEntity
  8
LAYER3
  6
CONTINUOUS
100
AcDbCircle
 10
0.0
 20
0.0
 30
0.0
 40
3.056999999978223
100
AcDbArc
 50
85.61414171169994
 51
86.24999999999989
  0
ARC
  5
A29
330
8AE
100
AcDbEntity
  8
LAYER3
  6
CONTINUOUS
100
AcDbCircle
 10
0.2569448409532354
 20
3.071270640790295
 30
0.0
 40
0.0199999999999996
100
AcDbArc
 50
277.5000000000001
 51
335.9999999999994
  0
ARC
  5
A2A
330
8AE
100
AcDbEntity
  8
LAYER3
  6
CONTINUOUS
100
AcDbCircle
 10
0.2982323782457621
 20
3.07180671777427
 30
0.0
 40
0.0175000000000001
100
AcDbArc
 50
84.45470641159982
 51
156.0000000000007
  0
ARC
  5
A2B
330
8AE
100
AcDbEntity
  8
LAYER3
  6
CONTINUOUS
100
AcDbCircle
 10
0.0
 20
0.0
 30
0.0
 40
3.103750000001786
100
AcDbArc
 50
80.54529358839994
 51
84.45470641159994
  0
ARC
  5
A2C
330
8AE
100
AcDbEntity
  8
LAYER3
  6
CONTINUOUS
100
AcDbCircle
 10
0.5069717250506558
 20
3.044325661422644
 30
0.0
 40
0.0175000000000018
100
AcDbArc
 50
9.00000000000055
 51
80.54529358839997
  0
ARC
  5
A2D
330
8AE
100
AcDbEntity
  8
LAYER3
  6
CONTINUOUS
100
AcDbCircle
 10
0.5467136766922864
 20
3.033121849842257
 30
0.0
 40
0.019999999999999
100
AcDbArc
 50
188.9999999999993
 51
247.4999999999991
  0
ARC
  5
A2E
330
8AE
100
AcDbEntity
  8
LAYER3
  6
CONTINUOUS
100
AcDbCircle
 10
0.0
 20
0.0
 30
0.0
 40
3.056999999982396
100
AcDbArc
 50
78.74999999999994
 51
79.3858582883
  0
LINE
  5
A2F
330
8AE
100
AcDbEntity
  8
LAYER3
  6
CONTINUOUS
100
AcDbLine
 10
-0.1409582388999996
 20
3.0592150098
 30
0.0
 11
-0.1660723490999996
 21
3.0524857043
 31
0.0
  0
LINE
  5
A30
330
8AE
100
AcDbEntity
  8
LAYER3
  6
CONTINUOUS
100
AcDbLine
 10
-0.1220496205999996
 20
3.0894243907
 30
0.0
 11
-0.1269582250999996
 21
3.0728532195
 31
0.0
  0
LINE
  5
A31
330
8AE
100
AcDbEntity
  8
LAYER3
  6
CONTINUOUS
100
AcDbLine
 10
0.1269582251000004
 20
3.0728532195
 30
0.0
 11
0.1220496206000004
 21
3.0894243907
 31
0.0
  0
LINE
  5
A32
330
8AE
100
AcDbEntity
  8
LAYER3
  6
CONTINUOUS
100
AcDbLine
 10
0.1660723491000003
 20
3.0524857043
 30
0.0
 11
0.1409582389000004
 21
3.0592150098
 31
0.0
  0
ARC
  5
A33
330
8AE
100
AcDbEntity
  8
LAYER3
  6
CONTINUOUS
100
AcDbCircle
 10
0.0
 20
0.0
 30
0.0
 40
3.056999999978223
100
AcDbArc
 50
93.11414171169996
 51
93.7499999999999
  0
ARC
  5
A34
330
8AE
100
AcDbEntity
  8
LAYER3
  6
CONTINUOUS
100
AcDbCircle
 10
-0.1461346197999996
 20
3.0785335264
 30
0.0
 40
0.0199999999999996
100
AcDbArc
 50
284.9999999999999
 51
343.4999999999995
  0
ARC
  5
A35
330
8AE
100
AcDbEntity
  8
LAYER3
  6
CONTINUOUS
100
AcDbCircle
 10
-0.1052702751999996
 20
3.0844541222
 30
0.0
 40
0.0175000000000001
100
AcDbArc
 50
91.95470641159997
 51
163.4999999999998
  0
ARC
  5
A36
330
8AE
100
AcDbEntity
  8
LAYER3
  6
CONTINUOUS
100
AcDbCircle
 10
0.0
 20
0.0
 30
0.0
 40
3.103750000001786
100
AcDbArc
 50
88.04529358839996
 51
91.95470641159997
  0
ARC
  5
A37
330
8AE
100
AcDbEntity
  8
LAYER3
  6
CONTINUOUS
100
AcDbCircle
 10
0.1052702752000004
 20
3.0844541222
 30
0.0
 40
0.0175000000000018
100
AcDbArc
 50
16.50000000000011
 51
88.04529358839996
  0
ARC
  5
A38
330
8AE
100
AcDbEntity
  8
LAYER3
  6
CONTINUOUS
100
AcDbCircle
 10
0.1461346198000004
 20
3.0785335264
 30
0.0
 40
0.019999999999999
100
AcDbArc
 50
196.4999999999997
 51
255.0000000000002
  0
ARC
  5
A39
330
8AE
100
AcDbEntity
  8
LAYER3
  6
CONTINUOUS
100
AcDbCircle
 10
0.0
 20
0.0
 30
0.0
 40
3.056999999982396
100
AcDbArc
 50
86.24999999999996
 51
86.88585828830001
  0
LINE
  5
A3A
330
8AE
100
AcDbEntity
  8
LAYER3
  6
CONTINUOUS
100
AcDbLine
 10
-0.539060008037328
 20
3.01464425911818
 30
0.0
 11
-0.563080912919893
 21
3.004694474584189
 31
0.0
  0
LINE
  5
A3B
330
8AE
100
AcDbEntity
  8
LAYER3
  6
CONTINUOUS
100
AcDbLine
 10
-0.5242562710463163
 20
3.047063264523611
 30
0.0
 11
-0.526959909876995
 21
3.029993160535925
 31
0.0
  0
LINE
  5
A3C
330
8AE
100
AcDbEntity
  8
LAYER3
  6
CONTINUOUS
100
AcDbLine
 10
-0.275215750107926
 20
3.063135907922564
 30
0.0
 11
-0.28224533269333
 21
3.07892460900125
 31
0.0
  0
LINE
  5
A3D
330
8AE
100
AcDbEntity
  8
LAYER3
  6
CONTINUOUS
100
AcDbLine
 10
-0.233777758656948
 20
3.048048057306314
 30
0.0
 11
-0.259555364785914
 21
3.051441743489502
 31
0.0
  0
ARC
  5
A3E
330
8AE
100
AcDbEntity
  8
LAYER3
  6
CONTINUOUS
100
AcDbCircle
 10
0.0
 20
0.0
 30
0.0
 40
3.056999999978223
100
AcDbArc
 50
100.6141417116999
 51
101.2499999999999
  0
ARC
  5
A3F
330
8AE
100
AcDbEntity
  8
LAYER3
  6
CONTINUOUS
100
AcDbCircle
 10
-0.5467136766922844
 20
3.033121849842257
 30
0.0
 40
0.0199999999999996
100
AcDbArc
 50
292.4999999999999
 51
350.9999999999997
  0
ARC
  5
A40
330
8AE
100
AcDbEntity
  8
LAYER3
  6
CONTINUOUS
100
AcDbCircle
 10
-0.5069717250506537
 20
3.044325661422644
 30
0.0
 40
0.0175000000000001
100
AcDbArc
 50
99.45470641160028
 51
171.0000000000001
  0
ARC
  5
A41
330
8AE
100
AcDbEntity
  8
LAYER3
  6
CONTINUOUS
100
AcDbCircle
 10
0.0
 20
0.0
 30
0.0
 40
3.103750000001786
100
AcDbArc
 50
95.54529358839994
 51
99.45470641159994
  0
ARC
  5
A42
330
8AE
100
AcDbEntity
  8
LAYER3
  6
CONTINUOUS
100
AcDbCircle
 10
-0.29823237824576
 20
3.07180671777427
 30
0.0
 40
0.0175000000000018
100
AcDbArc
 50
24.00000000000155
 51
95.54529358839963
  0
ARC
  5
A43
330
8AE
100
AcDbEntity
  8
LAYER3
  6
CONTINUOUS
100
AcDbCircle
 10
-0.2569448409532334
 20
3.071270640790295
 30
0.0
 40
0.019999999999999
100
AcDbArc
 50
203.9999999999999
 51
262.5000000000003
  0
ARC
  5
A44
330
8AE
100
AcDbEntity
  8
LAYER3
  6
CONTINUOUS
100
AcDbCircle
 10
0.0
 20
0.0
 30
0.0
 40
3.056999999982396
100
AcDbArc
 50
93.74999999999997
 51
94.3858582883
  0
LINE
  5
A45
330
8AE
100
AcDbEntity
  8
LAYER3
  6
CONTINUOUS
100
AcDbLine
 10
-0.9279383109814678
 20
2.918492109345554
 30
0.0
 11
-0.9504550062042044
 21
2.905492089349552
 31
0.0
  0
LINE
  5
A46
330
8AE
100
AcDbEntity
  8
LAYER3
  6
CONTINUOUS
100
AcDbLine
 10
-0.9174927513437321
 20
2.952566041085682
 30
0.0
 11
-0.9179451644951064
 21
2.935289078522269
 31
0.0
  0
LINE
  5
A47
330
8AE
100
AcDbEntity
  8
LAYER3
  6
CONTINUOUS
100
AcDbLine
 10
-0.6726807075272843
 20
3.001007491698855
 30
0.0
 11
-0.6817109900910874
 21
3.015743573603316
 31
0.0
  0
LINE
  5
A48
330
8AE
100
AcDbEntity
  8
LAYER3
  6
CONTINUOUS
100
AcDbLine
 10
-0.6296278641478362
 20
2.991457462973541
 30
0.0
 11
-0.6556279042179991
 21
2.991457462928416
 31
0.0
  0
ARC
  5
A49
330
8AE
100
AcDbEntity
  8
LAYER3
  6
CONTINUOUS
100
AcDbCircle
 10
0.0
 20
0.0
 30
0.0
 40
3.056999999978223
100
AcDbArc
 50
108.1141417116999
 51
108.7499999999999
  0
ARC
  5
A4A
330
8AE
100
AcDbEntity
  8
LAYER3
  6
CONTINUOUS
100
AcDbCircle
 10
-0.9379383109986965
 20
2.935812617493464
 30
0.0
 40
0.0199999999999996
100
AcDbArc
 50
300.0000000000005
 51
358.5000000000004
  0
ARC
  5
A4B
330
8AE
100
AcDbEntity
  8
LAYER3
  6
CONTINUOUS
100
AcDbCircle
 10
-0.8999987481265742
 20
2.952107944531815
 30
0.0
 40
0.0175000000000001
100
AcDbArc
 50
106.9547064116
 51
178.5000000000001
  0
ARC
  5
A4C
330
8AE
100
AcDbEntity
  8
LAYER3
  6
CONTINUOUS
100
AcDbCircle
 10
0.0
 20
0.0
 30
0.0
 40
3.103750000001786
100
AcDbArc
 50
103.0452935883999
 51
106.9547064115999
  0
ARC
  5
A4D
330
8AE
100
AcDbEntity
  8
LAYER3
  6
CONTINUOUS
100
AcDbCircle
 10
-0.696632193014099
 20
3.006599848741702
 30
0.0
 40
0.0175000000000018
100
AcDbArc
 50
31.49999999999944
 51
103.0452935883999
  0
ARC
  5
A4E
330
8AE
100
AcDbEntity
  8
LAYER3
  6
CONTINUOUS
100
AcDbCircle
 10
-0.6556279042391888
 20
3.011457462999576
 30
0.0
 40
0.019999999999999
100
AcDbArc
 50
211.4999999999993
 51
270.0
  0
ARC
  5
A4F
330
8AE
100
AcDbEntity
  8
LAYER3
  6
CONTINUOUS
100
AcDbCircle
 10
0.0
 20
0.0
 30
0.0
 40
3.056999999982396
100
AcDbArc
 50
101.2499999999999
 51
101.8858582883
  0
LINE
  5
A50
330
8AE
100
AcDbEntity
  8
LAYER3
  6
CONTINUOUS
100
AcDbLine
 10
-1.30093933215161
 20
2.772403750423146
 30
0.0
 11
-1.32156655081645
 21
2.756575928911549
 31
0.0
  0
LINE
  5
A51
330
8AE
100
AcDbEntity
  8
LAYER3
  6
CONTINUOUS
100
AcDbLine
 10
-1.295030676288608
 20
2.807549594078818
 30
0.0
 11
-1.293224122846226
 21
2.790361386559215
 31
0.0
  0
LINE
  5
A52
330
8AE
100
AcDbEntity
  8
LAYER3
  6
CONTINUOUS
100
AcDbLine
 10
-1.058635911538524
 20
2.88753100525571
 30
0.0
 11
-1.069512383442393
 21
2.900962329538948
 31
0.0
  0
LINE
  5
A53
330
8AE
100
AcDbEntity
  8
LAYER3
  6
CONTINUOUS
100
AcDbLine
 10
-1.014704862317331
 20
2.883682202060592
 30
0.0
 11
-1.040482468434518
 21
2.880288515787926
 31
0.0
  0
ARC
  5
A54
330
8AE
100
AcDbEntity
  8
LAYER3
  6
CONTINUOUS
100
AcDbCircle
 10
0.0
 20
0.0
 30
0.0
 40
3.056999999978223
100
AcDbArc
 50
115.6141417117
 51
116.2499999999999
  0
ARC
  5
A55
330
8AE
100
AcDbEntity
  8
LAYER3
  6
CONTINUOUS
100
AcDbCircle
 10
-1.313114560758293
 20
2.788270817298325
 30
0.0
 40
0.0199999999999996
100
AcDbArc
 50
307.4999999999998
 51
5.999999999998622
  0
ARC
  5
A56
330
8AE
100
AcDbEntity
  8
LAYER3
  6
CONTINUOUS
100
AcDbCircle
 10
-1.277626543095255
 20
2.809378842231094
 30
0.0
 40
0.0175000000000001
100
AcDbArc
 50
114.4547064115994
 51
185.9999999999987
  0
ARC
  5
A57
330
8AE
100
AcDbEntity
  8
LAYER3
  6
CONTINUOUS
100
AcDbCircle
 10
0.0
 20
0.0
 30
0.0
 40
3.103750000001785
100
AcDbArc
 50
110.5452935883999
 51
114.4547064115999
  0
ARC
  5
A58
330
8AE
100
AcDbEntity
  8
LAYER3
  6
CONTINUOUS
100
AcDbCircle
 10
-1.083112437817034
 20
2.889949222710201
 30
0.0
 40
0.0175000000000018
100
AcDbArc
 50
39.00000000000082
 51
110.545293588399
  0
ARC
  5
A59
330
8AE
100
AcDbEntity
  8
LAYER3
  6
CONTINUOUS
100
AcDbCircle
 10
-1.043092992309215
 20
2.900117413083187
 30
0.0
 40
0.019999999999999
100
AcDbArc
 50
218.9999999999992
 51
277.5000000000001
  0
ARC
  5
A5A
330
8AE
100
AcDbEntity
  8
LAYER3
  6
CONTINUOUS
100
AcDbCircle
 10
0.0
 20
0.0
 30
0.0
 40
3.056999999982395
100
AcDbArc
 50
108.7499999999999
 51
109.3858582883
  0
LINE
  5
A5B
330
8AE
100
AcDbEntity
  8
LAYER3
  6
CONTINUOUS
100
AcDbLine
 10
-1.651680920660115
 20
2.578878794675461
 30
0.0
 11
-1.670065725336757
 21
2.560493990062635
 31
0.0
  0
LINE
  5
A5C
330
8AE
100
AcDbEntity
  8
LAYER3
  6
CONTINUOUS
100
AcDbLine
 10
-1.650410267311852
 20
2.614495195117461
 30
0.0
 11
-1.646375657905982
 21
2.5976898376378
 31
0.0
  0
LINE
  5
A5D
330
8AE
100
AcDbEntity
  8
LAYER3
  6
CONTINUOUS
100
AcDbLine
 10
-1.426477561594016
 20
2.7246480627378
 30
0.0
 11
-1.439014123388147
 21
2.736544815717461
 31
0.0
  0
LINE
  5
A5E
330
8AE
100
AcDbEntity
  8
LAYER3
  6
CONTINUOUS
100
AcDbLine
 10
-1.382419978963241
 20
2.726566339162635
 30
0.0
 11
-1.407534089139883
 21
2.719837033575461
 31
0.0
  0
ARC
  5
A5F
330
8AE
100
AcDbEntity
  8
LAYER3
  6
CONTINUOUS
100
AcDbCircle
 10
0.0
 20
0.0
 30
0.0
 40
3.056999999978223
100
AcDbArc
 50
123.1141417116999
 51
123.7499999999999
  0
ARC
  5
A60
330
8AE
100
AcDbEntity
  8
LAYER3
  6
CONTINUOUS
100
AcDbCircle
 10
-1.66582305631918
 20
2.593020930364493
 30
0.0
 40
0.0199999999999996
100
AcDbArc
 50
314.9999999999986
 51
13.5
  0
ARC
  5
A61
330
8AE
100
AcDbEntity
  8
LAYER3
  6
CONTINUOUS
100
AcDbCircle
 10
-1.633393793686578
 20
2.618580489032832
 30
0.0
 40
0.0175000000000001
100
AcDbArc
 50
121.9547064115994
 51
193.4999999999995
  0
ARC
  5
A62
330
8AE
100
AcDbEntity
  8
LAYER3
  6
CONTINUOUS
100
AcDbCircle
 10
0.0
 20
0.0
 30
0.0
 40
3.103750000001786
100
AcDbArc
 50
118.0452935883999
 51
121.9547064115999
  0
ARC
  5
A63
330
8AE
100
AcDbEntity
  8
LAYER3
  6
CONTINUOUS
100
AcDbCircle
 10
-1.45106032851342
 20
2.723850764232831
 30
0.0
 40
0.0175000000000018
100
AcDbArc
 50
46.50000000000041
 51
118.0452935883995
  0
ARC
  5
A64
330
8AE
100
AcDbEntity
  8
LAYER3
  6
CONTINUOUS
100
AcDbCircle
 10
-1.412710470080819
 20
2.739155550164492
 30
0.0
 40
0.019999999999999
100
AcDbArc
 50
226.4999999999989
 51
285.0
  0
ARC
  5
A65
330
8AE
100
AcDbEntity
  8
LAYER3
  6
CONTINUOUS
100
AcDbCircle
 10
0.0
 20
0.0
 30
0.0
 40
3.056999999982396
100
AcDbArc
 50
116.2499999999999
 51
116.8858582883
  0
LINE
  5
A66
330
8AE
100
AcDbEntity
  8
LAYER3
  6
CONTINUOUS
100
AcDbLine
 10
-1.974161790683659
 20
2.341228507750598
 30
0.0
 11
-1.989989612266855
 21
2.320601289140698
 31
0.0
  0
LINE
  5
A67
330
8AE
100
AcDbEntity
  8
LAYER3
  6
CONTINUOUS
100
AcDbLine
 10
-1.977550881081215
 20
2.376706058492632
 30
0.0
 11
-1.971357248997398
 21
2.360571095378715
 31
0.0
  0
LINE
  5
A68
330
8AE
100
AcDbEntity
  8
LAYER3
  6
CONTINUOUS
100
AcDbLine
 10
-1.769911785076335
 20
2.515145636451289
 30
0.0
 11
-1.783893932712639
 21
2.525304261385488
 31
0.0
  0
LINE
  5
A69
330
8AE
100
AcDbEntity
  8
LAYER3
  6
CONTINUOUS
100
AcDbLine
 10
-1.726481506489861
 20
2.522798170254601
 30
0.0
 11
-1.750502411337889
 21
2.512848385637231
 31
0.0
  0
ARC
  5
A6A
330
8AE
100
AcDbEntity
  8
LAYER3
  6
CONTINUOUS
100
AcDbCircle
 10
0.0
 20
0.0
 30
0.0
 40
3.056999999978223
100
AcDbArc
 50
130.6141417117
 51
131.2499999999999
  0
ARC
  5
A6B
330
8AE
100
AcDbEntity
  8
LAYER3
  6
CONTINUOUS
100
AcDbCircle
 10
-1.990028857533039
 20
2.353403736390902
 30
0.0
 40
0.0199999999999996
100
AcDbArc
 50
322.5000000000007
 51
20.99999999999988
  0
ARC
  5
A6C
330
8AE
100
AcDbEntity
  8
LAYER3
  6
CONTINUOUS
100
AcDbCircle
 10
-1.961213223605608
 20
2.382977497659547
 30
0.0
 40
0.0175000000000001
100
AcDbArc
 50
129.4547064116006
 51
201.000000000001
  0
ARC
  5
A6D
330
8AE
100
AcDbEntity
  8
LAYER3
  6
CONTINUOUS
100
AcDbCircle
 10
0.0
 20
0.0
 30
0.0
 40
3.103750000001786
100
AcDbArc
 50
125.5452935884
 51
129.4547064115999
  0
ARC
  5
A6E
330
8AE
100
AcDbEntity
  8
LAYER3
  6
CONTINUOUS
100
AcDbCircle
 10
-1.794180174679012
 20
2.511146463985333
 30
0.0
 40
0.0175000000000018
100
AcDbArc
 50
54.00000000000002
 51
125.5452935883989
  0
ARC
  5
A6F
330
8AE
100
AcDbEntity
  8
LAYER3
  6
CONTINUOUS
100
AcDbCircle
 10
-1.758156080031999
 20
2.53132597634509
 30
0.0
 40
0.019999999999999
100
AcDbArc
 50
233.9999999999977
 51
292.5000000000003
  0
ARC
  5
A70
330
8AE
100
AcDbEntity
  8
LAYER3
  6
CONTINUOUS
100
AcDbCircle
 10
0.0
 20
0.0
 30
0.0
 40
3.056999999982396
100
AcDbArc
 50
123.75
 51
124.3858582883
  0
LINE
  5
A71
330
8AE
100
AcDbEntity
  8
LAYER3
  6
CONTINUOUS
100
AcDbLine
 10
-2.262864205127553
 20
2.063519151946948
 30
0.0
 11
-2.275864225201713
 21
2.041002456769336
 31
0.0
  0
LINE
  5
A72
330
8AE
100
AcDbEntity
  8
LAYER3
  6
CONTINUOUS
100
AcDbLine
 10
-2.270855050994592
 20
2.098250822259584
 30
0.0
 11
-2.262608370994982
 21
2.083062327203748
 31
0.0
  0
LINE
  5
A73
330
8AE
100
AcDbEntity
  8
LAYER3
  6
CONTINUOUS
100
AcDbLine
 10
-2.083062327203745
 20
2.262608370994983
 30
0.0
 11
-2.098250822259581
 21
2.270855050994594
 31
0.0
  0
LINE
  5
A74
330
8AE
100
AcDbEntity
  8
LAYER3
  6
CONTINUOUS
100
AcDbLine
 10
-2.041002456769334
 20
2.275864225201715
 30
0.0
 11
-2.063519151946946
 21
2.262864205127555
 31
0.0
  0
ARC
  5
A75
330
8AE
100
AcDbEntity
  8
LAYER3
  6
CONTINUOUS
100
AcDbCircle
 10
0.0
 20
0.0
 30
0.0
 40
3.056999999978223
100
AcDbArc
 50
138.1141417116999
 51
138.7499999999999
  0
ARC
  5
A76
330
8AE
100
AcDbEntity
  8
LAYER3
  6
CONTINUOUS
100
AcDbCircle
 10
-2.280184713254272
 20
2.073519152000879
 30
0.0
 40
0.0199999999999996
100
AcDbArc
 50
330.0000000000011
 51
28.49999999999981
  0
ARC
  5
A77
330
8AE
100
AcDbEntity
  8
LAYER3
  6
CONTINUOUS
100
AcDbCircle
 10
-2.255475751517713
 20
2.106601100615127
 30
0.0
 40
0.0175000000000001
100
AcDbArc
 50
136.9547064115989
 51
208.4999999999993
  0
ARC
  5
A78
330
8AE
100
AcDbEntity
  8
LAYER3
  6
CONTINUOUS
100
AcDbCircle
 10
0.0
 20
0.0
 30
0.0
 40
3.103750000001786
100
AcDbArc
 50
133.0452935883999
 51
136.9547064115999
  0
ARC
  5
A79
330
8AE
100
AcDbEntity
  8
LAYER3
  6
CONTINUOUS
100
AcDbCircle
 10
-2.106601100615125
 20
2.255475751517715
 30
0.0
 40
0.0175000000000018
100
AcDbArc
 50
61.50000000000026
 51
133.0452935884002
  0
ARC
  5
A7A
330
8AE
100
AcDbEntity
  8
LAYER3
  6
CONTINUOUS
100
AcDbCircle
 10
-2.073519152000876
 20
2.280184713254275
 30
0.0
 40
0.019999999999999
100
AcDbArc
 50
241.5000000000007
 51
300.0000000000006
  0
ARC
  5
A7B
330
8AE
100
AcDbEntity
  8
LAYER3
  6
CONTINUOUS
100
AcDbCircle
 10
0.0
 20
0.0
 30
0.0
 40
3.056999999982396
100
AcDbArc
 50
131.2499999999999
 51
131.8858582883
  0
LINE
  5
A7C
330
8AE
100
AcDbEntity
  8
LAYER3
  6
CONTINUOUS
100
AcDbLine
 10
-2.51284838563723
 20
1.750502411337891
 30
0.0
 11
-2.522798170254599
 21
1.726481506489863
 31
0.0
  0
LINE
  5
A7D
330
8AE
100
AcDbEntity
  8
LAYER3
  6
CONTINUOUS
100
AcDbLine
 10
-2.525304261385486
 20
1.783893932712641
 30
0.0
 11
-2.515145636451287
 21
1.769911785076337
 31
0.0
  0
LINE
  5
A7E
330
8AE
100
AcDbEntity
  8
LAYER3
  6
CONTINUOUS
100
AcDbLine
 10
-2.360571095378714
 20
1.9713572489974
 30
0.0
 11
-2.37670605849263
 21
1.977550881081217
 31
0.0
  0
LINE
  5
A7F
330
8AE
100
AcDbEntity
  8
LAYER3
  6
CONTINUOUS
100
AcDbLine
 10
-2.320601289140697
 20
1.989989612266857
 30
0.0
 11
-2.341228507750596
 21
1.974161790683661
 31
0.0
  0
ARC
  5
A80
330
8AE
100
AcDbEntity
  8
LAYER3
  6
CONTINUOUS
100
AcDbCircle
 10
0.0
 20
0.0
 30
0.0
 40
3.056999999978223
100
AcDbArc
 50
145.6141417116999
 51
146.2499999999999
  0
ARC
  5
A81
330
8AE
100
AcDbEntity
  8
LAYER3
  6
CONTINUOUS
100
AcDbCircle
 10
-2.531325976345089
 20
1.758156080032001
 30
0.0
 40
0.0199999999999996
100
AcDbArc
 50
337.5000000000001
 51
35.99999999999901
  0
ARC
  5
A82
330
8AE
100
AcDbEntity
  8
LAYER3
  6
CONTINUOUS
100
AcDbCircle
 10
-2.511146463985332
 20
1.794180174679014
 30
0.0
 40
0.0175000000000001
100
AcDbArc
 50
144.4547064115989
 51
216.0000000000002
  0
ARC
  5
A83
330
8AE
100
AcDbEntity
  8
LAYER3
  6
CONTINUOUS
100
AcDbCircle
 10
0.0
 20
0.0
 30
0.0
 40
3.103750000001786
100
AcDbArc
 50
140.5452935883999
 51
144.4547064115999
  0
ARC
  5
A84
330
8AE
100
AcDbEntity
  8
LAYER3
  6
CONTINUOUS
100
AcDbCircle
 10
-2.382977497659545
 20
1.961213223605609
 30
0.0
 40
0.0175000000000018
100
AcDbArc
 50
68.99999999999952
 51
140.5452935883993
  0
ARC
  5
A85
330
8AE
100
AcDbEntity
  8
LAYER3
  6
CONTINUOUS
100
AcDbCircle
 10
-2.3534037363909
 20
1.99002885753304
 30
0.0
 40
0.019999999999999
100
AcDbArc
 50
248.9999999999982
 51
307.499999999999
  0
ARC
  5
A86
330
8AE
100
AcDbEntity
  8
LAYER3
  6
CONTINUOUS
100
AcDbCircle
 10
0.0
 20
0.0
 30
0.0
 40
3.056999999982396
100
AcDbArc
 50
138.7499999999999
 51
139.3858582883
  0
LINE
  5
A87
330
8AE
100
AcDbEntity
  8
LAYER3
  6
CONTINUOUS
100
AcDbLine
 10
-2.71983703357546
 20
1.407534089139886
 30
0.0
 11
-2.726566339162634
 21
1.382419978963244
 31
0.0
  0
LINE
  5
A88
330
8AE
100
AcDbEntity
  8
LAYER3
  6
CONTINUOUS
100
AcDbLine
 10
-2.73654481571746
 20
1.439014123388149
 30
0.0
 11
-2.724648062737799
 21
1.426477561594018
 31
0.0
  0
LINE
  5
A89
330
8AE
100
AcDbEntity
  8
LAYER3
  6
CONTINUOUS
100
AcDbLine
 10
-2.597689837637799
 20
1.646375657905984
 30
0.0
 11
-2.61449519511746
 21
1.650410267311854
 31
0.0
  0
LINE
  5
A8A
330
8AE
100
AcDbEntity
  8
LAYER3
  6
CONTINUOUS
100
AcDbLine
 10
-2.560493990062633
 20
1.670065725336759
 30
0.0
 11
-2.578878794675459
 21
1.651680920660117
 31
0.0
  0
ARC
  5
A8B
330
8AE
100
AcDbEntity
  8
LAYER3
  6
CONTINUOUS
100
AcDbCircle
 10
0.0
 20
0.0
 30
0.0
 40
3.056999999978223
100
AcDbArc
 50
153.1141417116999
 51
153.7499999999999
  0
ARC
  5
A8C
330
8AE
100
AcDbEntity
  8
LAYER3
  6
CONTINUOUS
100
AcDbCircle
 10
-2.739155550164491
 20
1.412710470080821
 30
0.0
 40
0.0199999999999996
100
AcDbArc
 50
344.9999999999997
 51
43.49999999999979
  0
ARC
  5
A8D
330
8AE
100
AcDbEntity
  8
LAYER3
  6
CONTINUOUS
100
AcDbCircle
 10
-2.72385076423283
 20
1.451060328513422
 30
0.0
 40
0.0175000000000001
100
AcDbArc
 50
151.9547064115998
 51
223.4999999999994
  0
ARC
  5
A8E
330
8AE
100
AcDbEntity
  8
LAYER3
  6
CONTINUOUS
100
AcDbCircle
 10
0.0
 20
0.0
 30
0.0
 40
3.103750000001786
100
AcDbArc
 50
148.0452935883999
 51
151.9547064115999
  0
ARC
  5
A8F
330
8AE
100
AcDbEntity
  8
LAYER3
  6
CONTINUOUS
100
AcDbCircle
 10
-2.61858048903283
 20
1.63339379368658
 30
0.0
 40
0.0175000000000018
100
AcDbArc
 50
76.50000000000168
 51
148.0452935884005
  0
ARC
  5
A90
330
8AE
100
AcDbEntity
  8
LAYER3
  6
CONTINUOUS
100
AcDbCircle
 10
-2.593020930364491
 20
1.665823056319182
 30
0.0
 40
0.019999999999999
100
AcDbArc
 50
256.4999999999997
 51
315.0000000000009
  0
ARC
  5
A91
330
8AE
100
AcDbEntity
  8
LAYER3
  6
CONTINUOUS
100
AcDbCircle
 10
0.0
 20
0.0
 30
0.0
 40
3.056999999982396
100
AcDbArc
 50
146.2499999999999
 51
146.8858582883
  0
LINE
  5
A92
330
8AE
100
AcDbEntity
  8
LAYER3
  6
CONTINUOUS
100
AcDbLine
 10
-2.880288515787925
 20
1.040482468434521
 30
0.0
 11
-2.883682202060591
 21
1.014704862317335
 31
0.0
  0
LINE
  5
A93
330
8AE
100
AcDbEntity
  8
LAYER3
  6
CONTINUOUS
100
AcDbLine
 10
-2.900962329538947
 20
1.069512383442396
 30
0.0
 11
-2.887531005255709
 21
1.058635911538528
 31
0.0
  0
LINE
  5
A94
330
8AE
100
AcDbEntity
  8
LAYER3
  6
CONTINUOUS
100
AcDbLine
 10
-2.790361386559213
 20
1.293224122846229
 30
0.0
 11
-2.807549594078817
 21
1.295030676288612
 31
0.0
  0
LINE
  5
A95
330
8AE
100
AcDbEntity
  8
LAYER3
  6
CONTINUOUS
100
AcDbLine
 10
-2.756575928911547
 20
1.321566550816453
 30
0.0
 11
-2.772403750423144
 21
1.300939332151614
 31
0.0
  0
ARC
  5
A96
330
8AE
100
AcDbEntity
  8
LAYER3
  6
CONTINUOUS
100
AcDbCircle
 10
0.0
 20
0.0
 30
0.0
 40
3.056999999978223
100
AcDbArc
 50
160.6141417116999
 51
161.2499999999999
  0
ARC
  5
A97
330
8AE
100
AcDbEntity
  8
LAYER3
  6
CONTINUOUS
100
AcDbCircle
 10
-2.900117413083186
 20
1.043092992309219
 30
0.0
 40
0.0199999999999996
100
AcDbArc
 50
352.5000000000001
 51
50.99999999999923
  0
ARC
  5
A98
330
8AE
100
AcDbEntity
  8
LAYER3
  6
CONTINUOUS
100
AcDbCircle
 10
-2.8899492227102
 20
1.083112437817037
 30
0.0
 40
0.0175000000000001
100
AcDbArc
 50
159.4547064115997
 51
230.9999999999987
  0
ARC
  5
A99
330
8AE
100
AcDbEntity
  8
LAYER3
  6
CONTINUOUS
100
AcDbCircle
 10
0.0
 20
0.0
 30
0.0
 40
3.103750000001786
100
AcDbArc
 50
155.5452935883999
 51
159.4547064115999
  0
ARC
  5
A9A
330
8AE
100
AcDbEntity
  8
LAYER3
  6
CONTINUOUS
100
AcDbCircle
 10
-2.809378842231093
 20
1.277626543095258
 30
0.0
 40
0.0175000000000018
100
AcDbArc
 50
84.00000000000193
 51
155.5452935884016
  0
ARC
  5
A9B
330
8AE
100
AcDbEntity
  8
LAYER3
  6
CONTINUOUS
100
AcDbCircle
 10
-2.788270817298323
 20
1.313114560758296
 30
0.0
 40
0.019999999999999
100
AcDbArc
 50
263.9999999999999
 51
322.5000000000005
  0
ARC
  5
A9C
330
8AE
100
AcDbEntity
  8
LAYER3
  6
CONTINUOUS
100
AcDbCircle
 10
0.0
 20
0.0
 30
0.0
 40
3.056999999982396
100
AcDbArc
 50
153.7499999999999
 51
154.3858582883
  0
LINE
  5
A9D
330
8AE
100
AcDbEntity
  8
LAYER3
  6
CONTINUOUS
100
AcDbLine
 10
-2.991457462928416
 20
0.6556279042180027
 30
0.0
 11
-2.99145746297354
 21
0.6296278641478398
 31
0.0
  0
LINE
  5
A9E
330
8AE
100
AcDbEntity
  8
LAYER3
  6
CONTINUOUS
100
AcDbLine
 10
-3.015743573603315
 20
0.6817109900910912
 30
0.0
 11
-3.001007491698853
 21
0.6726807075272879
 31
0.0
  0
LINE
  5
A9F
330
8AE
100
AcDbEntity
  8
LAYER3
  6
CONTINUOUS
100
AcDbLine
 10
-2.935289078522267
 20
0.9179451644951099
 30
0.0
 11
-2.952566041085681
 21
0.9174927513437356
 31
0.0
  0
LINE
  5
AA0
330
8AE
100
AcDbEntity
  8
LAYER3
  6
CONTINUOUS
100
AcDbLine
 10
-2.905492089349551
 20
0.950455006204208
 30
0.0
 11
-2.918492109345553
 21
0.9279383109814714
 31
0.0
  0
ARC
  5
AA1
330
8AE
100
AcDbEntity
  8
LAYER3
  6
CONTINUOUS
100
AcDbCircle
 10
0.0
 20
0.0
 30
0.0
 40
3.056999999978223
100
AcDbArc
 50
168.1141417116999
 51
168.7499999999999
  0
ARC
  5
AA2
330
8AE
100
AcDbEntity
  8
LAYER3
  6
CONTINUOUS
100
AcDbCircle
 10
-3.011457462999575
 20
0.6556279042391924
 30
0.0
 40
0.0199999999999996
100
AcDbArc
 50
0.0
 51
58.50000000000033
  0
ARC
  5
AA3
330
8AE
100
AcDbEntity
  8
LAYER3
  6
CONTINUOUS
100
AcDbCircle
 10
-3.0065998487417
 20
0.6966321930141026
 30
0.0
 40
0.0175000000000001
100
AcDbArc
 50
166.9547064116005
 51
238.4999999999987
  0
ARC
  5
AA4
330
8AE
100
AcDbEntity
  8
LAYER3
  6
CONTINUOUS
100
AcDbCircle
 10
0.0
 20
0.0
 30
0.0
 40
3.103750000001785
100
AcDbArc
 50
163.0452935883999
 51
166.9547064115999
  0
ARC
  5
AA5
330
8AE
100
AcDbEntity
  8
LAYER3
  6
CONTINUOUS
100
AcDbCircle
 10
-2.952107944531813
 20
0.8999987481265779
 30
0.0
 40
0.0175000000000018
100
AcDbArc
 50
91.50000000000124
 51
163.0452935884003
  0
ARC
  5
AA6
330
8AE
100
AcDbEntity
  8
LAYER3
  6
CONTINUOUS
100
AcDbCircle
 10
-2.935812617493463
 20
0.9379383109987001
 30
0.0
 40
0.019999999999999
100
AcDbArc
 50
271.4999999999997
 51
330.0000000000005
  0
ARC
  5
AA7
330
8AE
100
AcDbEntity
  8
LAYER3
  6
CONTINUOUS
100
AcDbCircle
 10
0.0
 20
0.0
 30
0.0
 40
3.056999999982395
100
AcDbArc
 50
161.2499999999999
 51
161.8858582883
  0
LINE
  5
AA8
330
8AE
100
AcDbEntity
  8
LAYER3
  6
CONTINUOUS
100
AcDbLine
 10
-3.051441743489502
 20
0.2595553647859176
 30
0.0
 11
-3.048048057306314
 21
0.2337777586569516
 31
0.0
  0
LINE
  5
AA9
330
8AE
100
AcDbEntity
  8
LAYER3
  6
CONTINUOUS
100
AcDbLine
 10
-3.07892460900125
 20
0.2822453326933336
 30
0.0
 11
-3.063135907922563
 21
0.2752157501079296
 31
0.0
  0
LINE
  5
AAA
330
8AE
100
AcDbEntity
  8
LAYER3
  6
CONTINUOUS
100
AcDbLine
 10
-3.029993160535925
 20
0.5269599098769986
 30
0.0
 11
-3.04706326452361
 21
0.5242562710463199
 31
0.0
  0
LINE
  5
AAB
330
8AE
100
AcDbEntity
  8
LAYER3
  6
CONTINUOUS
100
AcDbLine
 10
-3.004694474584189
 20
0.5630809129198966
 30
0.0
 11
-3.014644259118179
 21
0.5390600080373316
 31
0.0
  0
ARC
  5
AAC
330
8AE
100
AcDbEntity
  8
LAYER3
  6
CONTINUOUS
100
AcDbCircle
 10
0.0
 20
0.0
 30
0.0
 40
3.056999999978223
100
AcDbArc
 50
175.6141417116999
 51
176.2499999999999
  0
ARC
  5
AAD
330
8AE
100
AcDbEntity
  8
LAYER3
  6
CONTINUOUS
100
AcDbCircle
 10
-3.071270640790295
 20
0.256944840953237
 30
0.0
 40
0.0199999999999996
100
AcDbArc
 50
7.499999999999807
 51
65.99999999999949
  0
ARC
  5
AAE
330
8AE
100
AcDbEntity
  8
LAYER3
  6
CONTINUOUS
100
AcDbCircle
 10
-3.07180671777427
 20
0.2982323782457636
 30
0.0
 40
0.0175000000000001
100
AcDbArc
 50
174.4547064115998
 51
246.0000000000007
  0
ARC
  5
AAF
330
8AE
100
AcDbEntity
  8
LAYER3
  6
CONTINUOUS
100
AcDbCircle
 10
0.0
 20
0.0
 30
0.0
 40
3.103750000001786
100
AcDbArc
 50
170.5452935883999
 51
174.4547064115999
  0
ARC
  5
AB0
330
8AE
100
AcDbEntity
  8
LAYER3
  6
CONTINUOUS
100
AcDbCircle
 10
-3.044325661422643
 20
0.5069717250506574
 30
0.0
 40
0.0175000000000018
100
AcDbArc
 50
99.00000000000055
 51
170.5452935884
  0
ARC
  5
AB1
330
8AE
100
AcDbEntity
  8
LAYER3
  6
CONTINUOUS
100
AcDbCircle
 10
-3.033121849842257
 20
0.5467136766922879
 30
0.0
 40
0.019999999999999
100
AcDbArc
 50
278.9999999999993
 51
337.5000000000007
  0
ARC
  5
AB2
330
8AE
100
AcDbEntity
  8
LAYER3
  6
CONTINUOUS
100
AcDbCircle
 10
0.0
 20
0.0
 30
0.0
 40
3.056999999982396
100
AcDbArc
 50
168.7499999999999
 51
169.3858582882999
  0
LINE
  5
AB3
330
8AE
100
AcDbEntity
  8
LAYER3
  6
CONTINUOUS
100
AcDbLine
 10
-3.0592150098
 20
-0.1409582388999994
 30
0.0
 11
-3.0524857043
 21
-0.1660723490999994
 31
0.0
  0
LINE
  5
AB4
330
8AE
100
AcDbEntity
  8
LAYER3
  6
CONTINUOUS
100
AcDbLine
 10
-3.0894243907
 20
-0.1220496205999994
 30
0.0
 11
-3.0728532195
 21
-0.1269582250999994
 31
0.0
  0
LINE
  5
AB5
330
8AE
100
AcDbEntity
  8
LAYER3
  6
CONTINUOUS
100
AcDbLine
 10
-3.0728532195
 20
0.1269582251000005
 30
0.0
 11
-3.0894243907
 21
0.1220496206000006
 31
0.0
  0
LINE
  5
AB6
330
8AE
100
AcDbEntity
  8
LAYER3
  6
CONTINUOUS
100
AcDbLine
 10
-3.0524857043
 20
0.1660723491000005
 30
0.0
 11
-3.0592150098
 21
0.1409582389000006
 31
0.0
  0
ARC
  5
AB7
330
8AE
100
AcDbEntity
  8
LAYER3
  6
CONTINUOUS
100
AcDbCircle
 10
0.0
 20
0.0
 30
0.0
 40
3.056999999978223
100
AcDbArc
 50
183.1141417116999
 51
183.7499999999998
  0
ARC
  5
AB8
330
8AE
100
AcDbEntity
  8
LAYER3
  6
CONTINUOUS
100
AcDbCircle
 10
-3.0785335264
 20
-0.1461346197999994
 30
0.0
 40
0.0199999999999996
100
AcDbArc
 50
14.99999999999998
 51
73.4999999999995
  0
ARC
  5
AB9
330
8AE
100
AcDbEntity
  8
LAYER3
  6
CONTINUOUS
100
AcDbCircle
 10
-3.0844541222
 20
-0.1052702751999994
 30
0.0
 40
0.0175000000000001
100
AcDbArc
 50
181.9547064115999
 51
253.4999999999997
  0
ARC
  5
ABA
330
8AE
100
AcDbEntity
  8
LAYER3
  6
CONTINUOUS
100
AcDbCircle
 10
0.0
 20
0.0
 30
0.0
 40
3.103750000001786
100
AcDbArc
 50
178.0452935883999
 51
181.9547064115999
  0
ARC
  5
ABB
330
8AE
100
AcDbEntity
  8
LAYER3
  6
CONTINUOUS
100
AcDbCircle
 10
-3.0844541222
 20
0.1052702752000006
 30
0.0
 40
0.0175000000000018
100
AcDbArc
 50
106.5000000000001
 51
178.0452935884
  0
ARC
  5
ABC
330
8AE
100
AcDbEntity
  8
LAYER3
  6
CONTINUOUS
100
AcDbCircle
 10
-3.0785335264
 20
0.1461346198000006
 30
0.0
 40
0.019999999999999
100
AcDbArc
 50
286.4999999999997
 51
345.0000000000002
  0
ARC
  5
ABD
330
8AE
100
AcDbEntity
  8
LAYER3
  6
CONTINUOUS
100
AcDbCircle
 10
0.0
 20
0.0
 30
0.0
 40
3.056999999982396
100
AcDbArc
 50
176.2499999999999
 51
176.8858582883
  0
LINE
  5
ABE
330
8AE
100
AcDbEntity
  8
LAYER3
  6
CONTINUOUS
100
AcDbLine
 10
-3.01464425911818
 20
-0.5390600080373278
 30
0.0
 11
-3.004694474584189
 21
-0.5630809129198929
 31
0.0
  0
LINE
  5
ABF
330
8AE
100
AcDbEntity
  8
LAYER3
  6
CONTINUOUS
100
AcDbLine
 10
-3.047063264523611
 20
-0.5242562710463161
 30
0.0
 11
-3.029993160535925
 21
-0.5269599098769948
 31
0.0
  0
LINE
  5
AC0
330
8AE
100
AcDbEntity
  8
LAYER3
  6
CONTINUOUS
100
AcDbLine
 10
-3.063135907922564
 20
-0.2752157501079258
 30
0.0
 11
-3.07892460900125
 21
-0.2822453326933298
 31
0.0
  0
LINE
  5
AC1
330
8AE
100
AcDbEntity
  8
LAYER3
  6
CONTINUOUS
100
AcDbLine
 10
-3.048048057306314
 20
-0.2337777586569478
 30
0.0
 11
-3.051441743489502
 21
-0.2595553647859139
 31
0.0
  0
ARC
  5
AC2
330
8AE
100
AcDbEntity
  8
LAYER3
  6
CONTINUOUS
100
AcDbCircle
 10
0.0
 20
0.0
 30
0.0
 40
3.056999999978223
100
AcDbArc
 50
190.6141417116999
 51
191.2499999999998
  0
ARC
  5
AC3
330
8AE
100
AcDbEntity
  8
LAYER3
  6
CONTINUOUS
100
AcDbCircle
 10
-3.033121849842257
 20
-0.5467136766922842
 30
0.0
 40
0.0199999999999996
100
AcDbArc
 50
22.49999999999993
 51
80.99999999999964
  0
ARC
  5
AC4
330
8AE
100
AcDbEntity
  8
LAYER3
  6
CONTINUOUS
100
AcDbCircle
 10
-3.044325661422644
 20
-0.5069717250506536
 30
0.0
 40
0.0175000000000001
100
AcDbArc
 50
189.4547064115999
 51
261.0000000000001
  0
ARC
  5
AC5
330
8AE
100
AcDbEntity
  8
LAYER3
  6
CONTINUOUS
100
AcDbCircle
 10
0.0
 20
0.0
 30
0.0
 40
3.103750000001786
100
AcDbArc
 50
185.5452935883999
 51
189.4547064115999
  0
ARC
  5
AC6
330
8AE
100
AcDbEntity
  8
LAYER3
  6
CONTINUOUS
100
AcDbCircle
 10
-3.07180671777427
 20
-0.2982323782457598
 30
0.0
 40
0.0175000000000018
100
AcDbArc
 50
114.0000000000015
 51
185.5452935883998
  0
ARC
  5
AC7
330
8AE
100
AcDbEntity
  8
LAYER3
  6
CONTINUOUS
100
AcDbCircle
 10
-3.071270640790295
 20
-0.2569448409532332
 30
0.0
 40
0.019999999999999
100
AcDbArc
 50
293.9999999999999
 51
352.5000000000003
  0
ARC
  5
AC8
330
8AE
100
AcDbEntity
  8
LAYER3
  6
CONTINUOUS
100
AcDbCircle
 10
0.0
 20
0.0
 30
0.0
 40
3.056999999982396
100
AcDbArc
 50
183.7499999999999
 51
184.3858582882999
  0
LINE
  5
AC9
330
8AE
100
AcDbEntity
  8
LAYER3
  6
CONTINUOUS
100
AcDbLine
 10
-2.918492109345554
 20
-0.9279383109814676
 30
0.0
 11
-2.905492089349552
 21
-0.9504550062042042
 31
0.0
  0
LINE
  5
ACA
330
8AE
100
AcDbEntity
  8
LAYER3
  6
CONTINUOUS
100
AcDbLine
 10
-2.952566041085682
 20
-0.917492751343732
 30
0.0
 11
-2.935289078522269
 21
-0.9179451644951062
 31
0.0
  0
LINE
  5
ACB
330
8AE
100
AcDbEntity
  8
LAYER3
  6
CONTINUOUS
100
AcDbLine
 10
-3.001007491698855
 20
-0.672680707527284
 30
0.0
 11
-3.015743573603316
 21
-0.6817109900910873
 31
0.0
  0
LINE
  5
ACC
330
8AE
100
AcDbEntity
  8
LAYER3
  6
CONTINUOUS
100
AcDbLine
 10
-2.991457462973541
 20
-0.629627864147836
 30
0.0
 11
-2.991457462928416
 21
-0.6556279042179989
 31
0.0
  0
ARC
  5
ACD
330
8AE
100
AcDbEntity
  8
LAYER3
  6
CONTINUOUS
100
AcDbCircle
 10
0.0
 20
0.0
 30
0.0
 40
3.056999999978223
100
AcDbArc
 50
198.1141417116999
 51
198.7499999999998
  0
ARC
  5
ACE
330
8AE
100
AcDbEntity
  8
LAYER3
  6
CONTINUOUS
100
AcDbCircle
 10
-2.935812617493464
 20
-0.9379383109986964
 30
0.0
 40
0.0199999999999996
100
AcDbArc
 50
30.00000000000054
 51
88.50000000000041
  0
ARC
  5
ACF
330
8AE
100
AcDbEntity
  8
LAYER3
  6
CONTINUOUS
100
AcDbCircle
 10
-2.952107944531815
 20
-0.8999987481265741
 30
0.0
 40
0.0175000000000001
100
AcDbArc
 50
196.9547064116
 51
268.5000000000001
  0
ARC
  5
AD0
330
8AE
100
AcDbEntity
  8
LAYER3
  6
CONTINUOUS
100
AcDbCircle
 10
0.0
 20
0.0
 30
0.0
 40
3.103750000001786
100
AcDbArc
 50
193.0452935883999
 51
196.9547064115999
  0
ARC
  5
AD1
330
8AE
100
AcDbEntity
  8
LAYER3
  6
CONTINUOUS
100
AcDbCircle
 10
-3.006599848741702
 20
-0.6966321930140988
 30
0.0
 40
0.0175000000000018
100
AcDbArc
 50
121.4999999999994
 51
193.0452935883999
  0
ARC
  5
AD2
330
8AE
100
AcDbEntity
  8
LAYER3
  6
CONTINUOUS
100
AcDbCircle
 10
-3.011457462999576
 20
-0.6556279042391887
 30
0.0
 40
0.019999999999999
100
AcDbArc
 50
301.4999999999993
 51
0.0
  0
ARC
  5
AD3
330
8AE
100
AcDbEntity
  8
LAYER3
  6
CONTINUOUS
100
AcDbCircle
 10
0.0
 20
0.0
 30
0.0
 40
3.056999999982396
100
AcDbArc
 50
191.2499999999999
 51
191.8858582882999
  0
LINE
  5
AD4
330
8AE
100
AcDbEntity
  8
LAYER3
  6
CONTINUOUS
100
AcDbLine
 10
-2.772403750423146
 20
-1.30093933215161
 30
0.0
 11
-2.756575928911549
 21
-1.32156655081645
 31
0.0
  0
LINE
  5
AD5
330
8AE
100
AcDbEntity
  8
LAYER3
  6
CONTINUOUS
100
AcDbLine
 10
-2.807549594078818
 20
-1.295030676288608
 30
0.0
 11
-2.790361386559215
 21
-1.293224122846226
 31
0.0
  0
LINE
  5
AD6
330
8AE
100
AcDbEntity
  8
LAYER3
  6
CONTINUOUS
100
AcDbLine
 10
-2.88753100525571
 20
-1.058635911538524
 30
0.0
 11
-2.900962329538948
 21
-1.069512383442392
 31
0.0
  0
LINE
  5
AD7
330
8AE
100
AcDbEntity
  8
LAYER3
  6
CONTINUOUS
100
AcDbLine
 10
-2.883682202060592
 20
-1.014704862317331
 30
0.0
 11
-2.880288515787926
 21
-1.040482468434518
 31
0.0
  0
ARC
  5
AD8
330
8AE
100
AcDbEntity
  8
LAYER3
  6
CONTINUOUS
100
AcDbCircle
 10
0.0
 20
0.0
 30
0.0
 40
3.056999999978223
100
AcDbArc
 50
205.6141417116999
 51
206.2499999999998
  0
ARC
  5
AD9
330
8AE
100
AcDbEntity
  8
LAYER3
  6
CONTINUOUS
100
AcDbCircle
 10
-2.788270817298325
 20
-1.313114560758293
 30
0.0
 40
0.0199999999999996
100
AcDbArc
 50
37.49999999999979
 51
95.99999999999862
  0
ARC
  5
ADA
330
8AE
100
AcDbEntity
  8
LAYER3
  6
CONTINUOUS
100
AcDbCircle
 10
-2.809378842231094
 20
-1.277626543095255
 30
0.0
 40
0.0175000000000001
100
AcDbArc
 50
204.4547064115994
 51
275.9999999999986
  0
ARC
  5
ADB
330
8AE
100
AcDbEntity
  8
LAYER3
  6
CONTINUOUS
100
AcDbCircle
 10
0.0
 20
0.0
 30
0.0
 40
3.103750000001785
100
AcDbArc
 50
200.5452935883999
 51
204.4547064115999
  0
ARC
  5
ADC
330
8AE
100
AcDbEntity
  8
LAYER3
  6
CONTINUOUS
100
AcDbCircle
 10
-2.889949222710201
 20
-1.083112437817034
 30
0.0
 40
0.0175000000000018
100
AcDbArc
 50
129.0000000000009
 51
200.545293588399
  0
ARC
  5
ADD
330
8AE
100
AcDbEntity
  8
LAYER3
  6
CONTINUOUS
100
AcDbCircle
 10
-2.900117413083187
 20
-1.043092992309215
 30
0.0
 40
0.019999999999999
100
AcDbArc
 50
308.9999999999992
 51
7.4999999999995
  0
ARC
  5
ADE
330
8AE
100
AcDbEntity
  8
LAYER3
  6
CONTINUOUS
100
AcDbCircle
 10
0.0
 20
0.0
 30
0.0
 40
3.056999999982395
100
AcDbArc
 50
198.7499999999999
 51
199.3858582882999
  0
LINE
  5
ADF
330
8AE
100
AcDbEntity
  8
LAYER3
  6
CONTINUOUS
100
AcDbLine
 10
-2.578878794675462
 20
-1.651680920660114
 30
0.0
 11
-2.560493990062636
 21
-1.670065725336756
 31
0.0
  0
LINE
  5
AE0
330
8AE
100
AcDbEntity
  8
LAYER3
  6
CONTINUOUS
100
AcDbLine
 10
-2.614495195117462
 20
-1.65041026731185
 30
0.0
 11
-2.597689837637801
 21
-1.646375657905981
 31
0.0
  0
LINE
  5
AE1
330
8AE
100
AcDbEntity
  8
LAYER3
  6
CONTINUOUS
100
AcDbLine
 10
-2.724648062737801
 20
-1.426477561594014
 30
0.0
 11
-2.736544815717462
 21
-1.439014123388145
 31
0.0
  0
LINE
  5
AE2
330
8AE
100
AcDbEntity
  8
LAYER3
  6
CONTINUOUS
100
AcDbLine
 10
-2.726566339162635
 20
-1.38241997896324
 30
0.0
 11
-2.719837033575462
 21
-1.407534089139882
 31
0.0
  0
ARC
  5
AE3
330
8AE
100
AcDbEntity
  8
LAYER3
  6
CONTINUOUS
100
AcDbCircle
 10
0.0
 20
0.0
 30
0.0
 40
3.056999999978223
100
AcDbArc
 50
213.1141417116999
 51
213.7499999999998
  0
ARC
  5
AE4
330
8AE
100
AcDbEntity
  8
LAYER3
  6
CONTINUOUS
100
AcDbCircle
 10
-2.593020930364494
 20
-1.665823056319178
 30
0.0
 40
0.0199999999999996
100
AcDbArc
 50
44.99999999999865
 51
103.4999999999986
  0
ARC
  5
AE5
330
8AE
100
AcDbEntity
  8
LAYER3
  6
CONTINUOUS
100
AcDbCircle
 10
-2.618580489032833
 20
-1.633393793686577
 30
0.0
 40
0.0175000000000001
100
AcDbArc
 50
211.9547064115994
 51
283.4999999999995
  0
ARC
  5
AE6
330
8AE
100
AcDbEntity
  8
LAYER3
  6
CONTINUOUS
100
AcDbCircle
 10
0.0
 20
0.0
 30
0.0
 40
3.103750000001786
100
AcDbArc
 50
208.0452935883999
 51
211.9547064115999
  0
ARC
  5
AE7
330
8AE
100
AcDbEntity
  8
LAYER3
  6
CONTINUOUS
100
AcDbCircle
 10
-2.723850764232832
 20
-1.451060328513419
 30
0.0
 40
0.0175000000000018
100
AcDbArc
 50
136.5000000000004
 51
208.0452935884001
  0
ARC
  5
AE8
330
8AE
100
AcDbEntity
  8
LAYER3
  6
CONTINUOUS
100
AcDbCircle
 10
-2.739155550164493
 20
-1.412710470080818
 30
0.0
 40
0.019999999999999
100
AcDbArc
 50
316.5000000000003
 51
15.00000000000061
  0
ARC
  5
AE9
330
8AE
100
AcDbEntity
  8
LAYER3
  6
CONTINUOUS
100
AcDbCircle
 10
0.0
 20
0.0
 30
0.0
 40
3.056999999982396
100
AcDbArc
 50
206.2499999999999
 51
206.8858582882999
  0
LINE
  5
AEA
330
8AE
100
AcDbEntity
  8
LAYER3
  6
CONTINUOUS
100
AcDbLine
 10
-2.341228507750599
 20
-1.974161790683658
 30
0.0
 11
-2.320601289140699
 21
-1.989989612266854
 31
0.0
  0
LINE
  5
AEB
330
8AE
100
AcDbEntity
  8
LAYER3
  6
CONTINUOUS
100
AcDbLine
 10
-2.376706058492633
 20
-1.977550881081214
 30
0.0
 11
-2.360571095378716
 21
-1.971357248997397
 31
0.0
  0
LINE
  5
AEC
330
8AE
100
AcDbEntity
  8
LAYER3
  6
CONTINUOUS
100
AcDbLine
 10
-2.515145636451289
 20
-1.769911785076334
 30
0.0
 11
-2.525304261385489
 21
-1.783893932712638
 31
0.0
  0
LINE
  5
AED
330
8AE
100
AcDbEntity
  8
LAYER3
  6
CONTINUOUS
100
AcDbLine
 10
-2.522798170254601
 20
-1.72648150648986
 30
0.0
 11
-2.512848385637232
 21
-1.750502411337888
 31
0.0
  0
ARC
  5
AEE
330
8AE
100
AcDbEntity
  8
LAYER3
  6
CONTINUOUS
100
AcDbCircle
 10
0.0
 20
0.0
 30
0.0
 40
3.056999999978223
100
AcDbArc
 50
220.6141417116999
 51
221.2499999999998
  0
ARC
  5
AEF
330
8AE
100
AcDbEntity
  8
LAYER3
  6
CONTINUOUS
100
AcDbCircle
 10
-2.353403736390904
 20
-1.990028857533038
 30
0.0
 40
0.0199999999999996
100
AcDbArc
 50
52.49999999999931
 51
110.9999999999985
  0
ARC
  5
AF0
330
8AE
100
AcDbEntity
  8
LAYER3
  6
CONTINUOUS
100
AcDbCircle
 10
-2.382977497659548
 20
-1.961213223605606
 30
0.0
 40
0.0175000000000001
100
AcDbArc
 50
219.4547064116006
 51
290.9999999999996
  0
ARC
  5
AF1
330
8AE
100
AcDbEntity
  8
LAYER3
  6
CONTINUOUS
100
AcDbCircle
 10
0.0
 20
0.0
 30
0.0
 40
3.103750000001786
100
AcDbArc
 50
215.5452935883998
 51
219.4547064115999
  0
ARC
  5
AF2
330
8AE
100
AcDbEntity
  8
LAYER3
  6
CONTINUOUS
100
AcDbCircle
 10
-2.511146463985334
 20
-1.794180174679011
 30
0.0
 40
0.0175000000000018
100
AcDbArc
 50
144.0
 51
215.5452935883989
  0
ARC
  5
AF3
330
8AE
100
AcDbEntity
  8
LAYER3
  6
CONTINUOUS
100
AcDbCircle
 10
-2.531325976345091
 20
-1.758156080031998
 30
0.0
 40
0.019999999999999
100
AcDbArc
 50
323.9999999999995
 51
22.49999999999983
  0
ARC
  5
AF4
330
8AE
100
AcDbEntity
  8
LAYER3
  6
CONTINUOUS
100
AcDbCircle
 10
0.0
 20
0.0
 30
0.0
 40
3.056999999982396
100
AcDbArc
 50
213.7499999999998
 51
214.3858582882999
  0
LINE
  5
AF5
330
8AE
100
AcDbEntity
  8
LAYER3
  6
CONTINUOUS
100
AcDbLine
 10
-2.063519151946947
 20
-2.262864205127553
 30
0.0
 11
-2.041002456769335
 21
-2.275864225201714
 31
0.0
  0
LINE
  5
AF6
330
8AE
100
AcDbEntity
  8
LAYER3
  6
CONTINUOUS
100
AcDbLine
 10
-2.098250822259583
 20
-2.270855050994593
 30
0.0
 11
-2.083062327203747
 21
-2.262608370994982
 31
0.0
  0
LINE
  5
AF7
330
8AE
100
AcDbEntity
  8
LAYER3
  6
CONTINUOUS
100
AcDbLine
 10
-2.262608370994983
 20
-2.083062327203745
 30
0.0
 11
-2.270855050994594
 21
-2.098250822259582
 31
0.0
  0
LINE
  5
AF8
330
8AE
100
AcDbEntity
  8
LAYER3
  6
CONTINUOUS
100
AcDbLine
 10
-2.275864225201715
 20
-2.041002456769334
 30
0.0
 11
-2.262864205127554
 21
-2.063519151946946
 31
0.0
  0
ARC
  5
AF9
330
8AE
100
AcDbEntity
  8
LAYER3
  6
CONTINUOUS
100
AcDbCircle
 10
0.0
 20
0.0
 30
0.0
 40
3.056999999978223
100
AcDbArc
 50
228.1141417116999
 51
228.7499999999998
  0
ARC
  5
AFA
330
8AE
100
AcDbEntity
  8
LAYER3
  6
CONTINUOUS
100
AcDbCircle
 10
-2.073519152000878
 20
-2.280184713254273
 30
0.0
 40
0.0199999999999996
100
AcDbArc
 50
60.00000000000001
 51
118.4999999999987
  0
ARC
  5
AFB
330
8AE
100
AcDbEntity
  8
LAYER3
  6
CONTINUOUS
100
AcDbCircle
 10
-2.106601100615126
 20
-2.255475751517714
 30
0.0
 40
0.0175000000000001
100
AcDbArc
 50
226.9547064116
 51
298.4999999999993
  0
ARC
  5
AFC
330
8AE
100
AcDbEntity
  8
LAYER3
  6
CONTINUOUS
100
AcDbCircle
 10
0.0
 20
0.0
 30
0.0
 40
3.103750000001786
100
AcDbArc
 50
223.0452935883999
 51
226.9547064115999
  0
ARC
  5
AFD
330
8AE
100
AcDbEntity
  8
LAYER3
  6
CONTINUOUS
100
AcDbCircle
 10
-2.255475751517714
 20
-2.106601100615126
 30
0.0
 40
0.0175000000000018
100
AcDbArc
 50
151.499999999999
 51
223.0452935884002
  0
ARC
  5
AFE
330
8AE
100
AcDbEntity
  8
LAYER3
  6
CONTINUOUS
100
AcDbCircle
 10
-2.280184713254274
 20
-2.073519152000877
 30
0.0
 40
0.019999999999999
100
AcDbArc
 50
331.5000000000001
 51
30.00000000000063
  0
ARC
  5
AFF
330
8AE
100
AcDbEntity
  8
LAYER3
  6
CONTINUOUS
100
AcDbCircle
 10
0.0
 20
0.0
 30
0.0
 40
3.056999999982396
100
AcDbArc
 50
221.2499999999999
 51
221.8858582883
  0
LINE
  5
B00
330
8AE
100
AcDbEntity
  8
LAYER3
  6
CONTINUOUS
100
AcDbLine
 10
-1.750502411337891
 20
-2.51284838563723
 30
0.0
 11
-1.726481506489863
 21
-2.522798170254599
 31
0.0
  0
LINE
  5
B01
330
8AE
100
AcDbEntity
  8
LAYER3
  6
CONTINUOUS
100
AcDbLine
 10
-1.783893932712641
 20
-2.525304261385486
 30
0.0
 11
-1.769911785076337
 21
-2.515145636451287
 31
0.0
  0
LINE
  5
B02
330
8AE
100
AcDbEntity
  8
LAYER3
  6
CONTINUOUS
100
AcDbLine
 10
-1.9713572489974
 20
-2.360571095378714
 30
0.0
 11
-1.977550881081217
 21
-2.37670605849263
 31
0.0
  0
LINE
  5
B03
330
8AE
100
AcDbEntity
  8
LAYER3
  6
CONTINUOUS
100
AcDbLine
 10
-1.989989612266857
 20
-2.320601289140697
 30
0.0
 11
-1.974161790683661
 21
-2.341228507750596
 31
0.0
  0
ARC
  5
B04
330
8AE
100
AcDbEntity
  8
LAYER3
  6
CONTINUOUS
100
AcDbCircle
 10
0.0
 20
0.0
 30
0.0
 40
3.056999999978223
100
AcDbArc
 50
235.6141417117
 51
236.2499999999999
  0
ARC
  5
B05
330
8AE
100
AcDbEntity
  8
LAYER3
  6
CONTINUOUS
100
AcDbCircle
 10
-1.758156080032001
 20
-2.531325976345089
 30
0.0
 40
0.0199999999999996
100
AcDbArc
 50
67.50000000000009
 51
125.999999999999
  0
ARC
  5
B06
330
8AE
100
AcDbEntity
  8
LAYER3
  6
CONTINUOUS
100
AcDbCircle
 10
-1.794180174679014
 20
-2.511146463985332
 30
0.0
 40
0.0175000000000001
100
AcDbArc
 50
234.4547064115989
 51
306.0000000000002
  0
ARC
  5
B07
330
8AE
100
AcDbEntity
  8
LAYER3
  6
CONTINUOUS
100
AcDbCircle
 10
0.0
 20
0.0
 30
0.0
 40
3.103750000001786
100
AcDbArc
 50
230.5452935883999
 51
234.4547064116
  0
ARC
  5
B08
330
8AE
100
AcDbEntity
  8
LAYER3
  6
CONTINUOUS
100
AcDbCircle
 10
-1.961213223605609
 20
-2.382977497659545
 30
0.0
 40
0.0175000000000018
100
AcDbArc
 50
158.9999999999995
 51
230.5452935883993
  0
ARC
  5
B09
330
8AE
100
AcDbEntity
  8
LAYER3
  6
CONTINUOUS
100
AcDbCircle
 10
-1.99002885753304
 20
-2.3534037363909
 30
0.0
 40
0.019999999999999
100
AcDbArc
 50
338.9999999999982
 51
37.49999999999905
  0
ARC
  5
B0A
330
8AE
100
AcDbEntity
  8
LAYER3
  6
CONTINUOUS
100
AcDbCircle
 10
0.0
 20
0.0
 30
0.0
 40
3.056999999982396
100
AcDbArc
 50
228.7499999999999
 51
229.3858582883
  0
LINE
  5
B0B
330
8AE
100
AcDbEntity
  8
LAYER3
  6
CONTINUOUS
100
AcDbLine
 10
-1.407534089139886
 20
-2.71983703357546
 30
0.0
 11
-1.382419978963244
 21
-2.726566339162634
 31
0.0
  0
LINE
  5
B0C
330
8AE
100
AcDbEntity
  8
LAYER3
  6
CONTINUOUS
100
AcDbLine
 10
-1.439014123388149
 20
-2.73654481571746
 30
0.0
 11
-1.426477561594018
 21
-2.724648062737799
 31
0.0
  0
LINE
  5
B0D
330
8AE
100
AcDbEntity
  8
LAYER3
  6
CONTINUOUS
100
AcDbLine
 10
-1.646375657905984
 20
-2.597689837637799
 30
0.0
 11
-1.650410267311854
 21
-2.61449519511746
 31
0.0
  0
LINE
  5
B0E
330
8AE
100
AcDbEntity
  8
LAYER3
  6
CONTINUOUS
100
AcDbLine
 10
-1.670065725336759
 20
-2.560493990062633
 30
0.0
 11
-1.651680920660117
 21
-2.578878794675459
 31
0.0
  0
ARC
  5
B0F
330
8AE
100
AcDbEntity
  8
LAYER3
  6
CONTINUOUS
100
AcDbCircle
 10
0.0
 20
0.0
 30
0.0
 40
3.056999999978223
100
AcDbArc
 50
243.1141417116999
 51
243.7499999999999
  0
ARC
  5
B10
330
8AE
100
AcDbEntity
  8
LAYER3
  6
CONTINUOUS
100
AcDbCircle
 10
-1.412710470080821
 20
-2.739155550164491
 30
0.0
 40
0.0199999999999996
100
AcDbArc
 50
74.99999999999973
 51
133.4999999999998
  0
ARC
  5
B11
330
8AE
100
AcDbEntity
  8
LAYER3
  6
CONTINUOUS
100
AcDbCircle
 10
-1.451060328513422
 20
-2.72385076423283
 30
0.0
 40
0.0175000000000001
100
AcDbArc
 50
241.9547064115997
 51
313.4999999999994
  0
ARC
  5
B12
330
8AE
100
AcDbEntity
  8
LAYER3
  6
CONTINUOUS
100
AcDbCircle
 10
0.0
 20
0.0
 30
0.0
 40
3.103750000001786
100
AcDbArc
 50
238.0452935884
 51
241.9547064115999
  0
ARC
  5
B13
330
8AE
100
AcDbEntity
  8
LAYER3
  6
CONTINUOUS
100
AcDbCircle
 10
-1.63339379368658
 20
-2.61858048903283
 30
0.0
 40
0.0175000000000018
100
AcDbArc
 50
166.5000000000017
 51
238.0452935884005
  0
ARC
  5
B14
330
8AE
100
AcDbEntity
  8
LAYER3
  6
CONTINUOUS
100
AcDbCircle
 10
-1.665823056319182
 20
-2.593020930364491
 30
0.0
 40
0.019999999999999
100
AcDbArc
 50
346.4999999999997
 51
45.0000000000009
  0
ARC
  5
B15
330
8AE
100
AcDbEntity
  8
LAYER3
  6
CONTINUOUS
100
AcDbCircle
 10
0.0
 20
0.0
 30
0.0
 40
3.056999999982396
100
AcDbArc
 50
236.2499999999999
 51
236.8858582882999
  0
LINE
  5
B16
330
8AE
100
AcDbEntity
  8
LAYER3
  6
CONTINUOUS
100
AcDbLine
 10
-1.040482468434521
 20
-2.880288515787925
 30
0.0
 11
-1.014704862317335
 21
-2.883682202060591
 31
0.0
  0
LINE
  5
B17
330
8AE
100
AcDbEntity
  8
LAYER3
  6
CONTINUOUS
100
AcDbLine
 10
-1.069512383442396
 20
-2.900962329538947
 30
0.0
 11
-1.058635911538528
 21
-2.887531005255709
 31
0.0
  0
LINE
  5
B18
330
8AE
100
AcDbEntity
  8
LAYER3
  6
CONTINUOUS
100
AcDbLine
 10
-1.293224122846229
 20
-2.790361386559213
 30
0.0
 11
-1.295030676288612
 21
-2.807549594078817
 31
0.0
  0
LINE
  5
B19
330
8AE
100
AcDbEntity
  8
LAYER3
  6
CONTINUOUS
100
AcDbLine
 10
-1.321566550816453
 20
-2.756575928911547
 30
0.0
 11
-1.300939332151614
 21
-2.772403750423144
 31
0.0
  0
ARC
  5
B1A
330
8AE
100
AcDbEntity
  8
LAYER3
  6
CONTINUOUS
100
AcDbCircle
 10
0.0
 20
0.0
 30
0.0
 40
3.056999999978223
100
AcDbArc
 50
250.6141417116999
 51
251.2499999999999
  0
ARC
  5
B1B
330
8AE
100
AcDbEntity
  8
LAYER3
  6
CONTINUOUS
100
AcDbCircle
 10
-1.043092992309219
 20
-2.900117413083186
 30
0.0
 40
0.0199999999999996
100
AcDbArc
 50
82.50000000000067
 51
141.0000000000006
  0
ARC
  5
B1C
330
8AE
100
AcDbEntity
  8
LAYER3
  6
CONTINUOUS
100
AcDbCircle
 10
-1.083112437817037
 20
-2.8899492227102
 30
0.0
 40
0.0175000000000001
100
AcDbArc
 50
249.4547064115996
 51
320.9999999999987
  0
ARC
  5
B1D
330
8AE
100
AcDbEntity
  8
LAYER3
  6
CONTINUOUS
100
AcDbCircle
 10
0.0
 20
0.0
 30
0.0
 40
3.103750000001786
100
AcDbArc
 50
245.5452935883999
 51
249.4547064115999
  0
ARC
  5
B1E
330
8AE
100
AcDbEntity
  8
LAYER3
  6
CONTINUOUS
100
AcDbCircle
 10
-1.277626543095258
 20
-2.809378842231093
 30
0.0
 40
0.0175000000000018
100
AcDbArc
 50
174.000000000002
 51
245.5452935884016
  0
ARC
  5
B1F
330
8AE
100
AcDbEntity
  8
LAYER3
  6
CONTINUOUS
100
AcDbCircle
 10
-1.313114560758296
 20
-2.788270817298323
 30
0.0
 40
0.019999999999999
100
AcDbArc
 50
353.9999999999999
 51
52.50000000000044
  0
ARC
  5
B20
330
8AE
100
AcDbEntity
  8
LAYER3
  6
CONTINUOUS
100
AcDbCircle
 10
0.0
 20
0.0
 30
0.0
 40
3.056999999982396
100
AcDbArc
 50
243.7499999999999
 51
244.3858582883
  0
LINE
  5
B21
330
8AE
100
AcDbEntity
  8
LAYER3
  6
CONTINUOUS
100
AcDbLine
 10
-0.6556279042180028
 20
-2.991457462928416
 30
0.0
 11
-0.6296278641478399
 21
-2.99145746297354
 31
0.0
  0
LINE
  5
B22
330
8AE
100
AcDbEntity
  8
LAYER3
  6
CONTINUOUS
100
AcDbLine
 10
-0.6817109900910913
 20
-3.015743573603315
 30
0.0
 11
-0.672680707527288
 21
-3.001007491698853
 31
0.0
  0
LINE
  5
B23
330
8AE
100
AcDbEntity
  8
LAYER3
  6
CONTINUOUS
100
AcDbLine
 10
-0.91794516449511
 20
-2.935289078522267
 30
0.0
 11
-0.9174927513437358
 21
-2.952566041085681
 31
0.0
  0
LINE
  5
B24
330
8AE
100
AcDbEntity
  8
LAYER3
  6
CONTINUOUS
100
AcDbLine
 10
-0.9504550062042081
 20
-2.905492089349551
 30
0.0
 11
-0.9279383109814715
 21
-2.918492109345553
 31
0.0
  0
ARC
  5
B25
330
8AE
100
AcDbEntity
  8
LAYER3
  6
CONTINUOUS
100
AcDbCircle
 10
0.0
 20
0.0
 30
0.0
 40
3.056999999978223
100
AcDbArc
 50
258.1141417116999
 51
258.7499999999998
  0
ARC
  5
B26
330
8AE
100
AcDbEntity
  8
LAYER3
  6
CONTINUOUS
100
AcDbCircle
 10
-0.6556279042391926
 20
-3.011457462999575
 30
0.0
 40
0.0199999999999996
100
AcDbArc
 50
90.0
 51
148.5000000000003
  0
ARC
  5
B27
330
8AE
100
AcDbEntity
  8
LAYER3
  6
CONTINUOUS
100
AcDbCircle
 10
-0.6966321930141027
 20
-3.0065998487417
 30
0.0
 40
0.0175000000000001
100
AcDbArc
 50
256.9547064116005
 51
328.499999999999
  0
ARC
  5
B28
330
8AE
100
AcDbEntity
  8
LAYER3
  6
CONTINUOUS
100
AcDbCircle
 10
0.0
 20
0.0
 30
0.0
 40
3.103750000001785
100
AcDbArc
 50
253.0452935883999
 51
256.9547064115999
  0
ARC
  5
B29
330
8AE
100
AcDbEntity
  8
LAYER3
  6
CONTINUOUS
100
AcDbCircle
 10
-0.899998748126578
 20
-2.952107944531813
 30
0.0
 40
0.0175000000000018
100
AcDbArc
 50
181.5000000000012
 51
253.0452935883999
  0
ARC
  5
B2A
330
8AE
100
AcDbEntity
  8
LAYER3
  6
CONTINUOUS
100
AcDbCircle
 10
-0.9379383109987003
 20
-2.935812617493463
 30
0.0
 40
0.019999999999999
100
AcDbArc
 50
1.499999999999641
 51
60.00000000000048
  0
ARC
  5
B2B
330
8AE
100
AcDbEntity
  8
LAYER3
  6
CONTINUOUS
100
AcDbCircle
 10
0.0
 20
0.0
 30
0.0
 40
3.056999999982395
100
AcDbArc
 50
251.2499999999999
 51
251.8858582882999
  0
LINE
  5
B2C
330
8AE
100
AcDbEntity
  8
LAYER3
  6
CONTINUOUS
100
AcDbLine
 10
-0.2595553647859178
 20
-3.051441743489502
 30
0.0
 11
-0.2337777586569519
 21
-3.048048057306314
 31
0.0
  0
LINE
  5
B2D
330
8AE
100
AcDbEntity
  8
LAYER3
  6
CONTINUOUS
100
AcDbLine
 10
-0.2822453326933339
 20
-3.07892460900125
 30
0.0
 11
-0.2752157501079299
 21
-3.063135907922563
 31
0.0
  0
LINE
  5
B2E
330
8AE
100
AcDbEntity
  8
LAYER3
  6
CONTINUOUS
100
AcDbLine
 10
-0.5269599098769989
 20
-3.029993160535925
 30
0.0
 11
-0.5242562710463202
 21
-3.04706326452361
 31
0.0
  0
LINE
  5
B2F
330
8AE
100
AcDbEntity
  8
LAYER3
  6
CONTINUOUS
100
AcDbLine
 10
-0.5630809129198969
 20
-3.004694474584189
 30
0.0
 11
-0.5390600080373318
 21
-3.014644259118179
 31
0.0
  0
ARC
  5
B30
330
8AE
100
AcDbEntity
  8
LAYER3
  6
CONTINUOUS
100
AcDbCircle
 10
0.0
 20
0.0
 30
0.0
 40
3.056999999978223
100
AcDbArc
 50
265.6141417116999
 51
266.2499999999999
  0
ARC
  5
B31
330
8AE
100
AcDbEntity
  8
LAYER3
  6
CONTINUOUS
100
AcDbCircle
 10
-0.2569448409532372
 20
-3.071270640790295
 30
0.0
 40
0.0199999999999996
100
AcDbArc
 50
97.49999999999997
 51
155.9999999999995
  0
ARC
  5
B32
330
8AE
100
AcDbEntity
  8
LAYER3
  6
CONTINUOUS
100
AcDbCircle
 10
-0.2982323782457639
 20
-3.07180671777427
 30
0.0
 40
0.0175000000000001
100
AcDbArc
 50
264.4547064115998
 51
336.0000000000007
  0
ARC
  5
B33
330
8AE
100
AcDbEntity
  8
LAYER3
  6
CONTINUOUS
100
AcDbCircle
 10
0.0
 20
0.0
 30
0.0
 40
3.103750000001786
100
AcDbArc
 50
260.5452935883999
 51
264.4547064115999
  0
ARC
  5
B34
330
8AE
100
AcDbEntity
  8
LAYER3
  6
CONTINUOUS
100
AcDbCircle
 10
-0.5069717250506576
 20
-3.044325661422643
 30
0.0
 40
0.0175000000000018
100
AcDbArc
 50
189.0000000000005
 51
260.5452935884
  0
ARC
  5
B35
330
8AE
100
AcDbEntity
  8
LAYER3
  6
CONTINUOUS
100
AcDbCircle
 10
-0.5467136766922882
 20
-3.033121849842257
 30
0.0
 40
0.019999999999999
100
AcDbArc
 50
8.999999999999352
 51
67.50000000000075
  0
ARC
  5
B36
330
8AE
100
AcDbEntity
  8
LAYER3
  6
CONTINUOUS
100
AcDbCircle
 10
0.0
 20
0.0
 30
0.0
 40
3.056999999982396
100
AcDbArc
 50
258.7499999999999
 51
259.3858582883
  0
ENDSEC
  0
SECTION
  2
OBJECTS
  0
DICTIONARY
  5
89E
330
0
100
AcDbDictionary
  3
ACAD_DETAILVIEWSTYLE
350
90C
  3
ACAD_GROUP
350
89F
  3
ACAD_IMAGE_VARS
350
903
  3
ACAD_MLINESTYLE
350
8A8
  3
ACAD_SCALELIST
350
8C2
  3
ACAD_SECTIONVIEWSTYLE
350
90D
  3
ACDBVARIABLEDICTIONARY
350
907
  3
APPDATA
350
901
  3
DWGPROPS
350
B37
  0
DICTIONARY
  5
913
330
894
100
AcDbDictionary
280
     1
  3
ACAD_LAYERSTATES
360
914
  3
ACLYDICTIONARY
360
923
  0
DICTIONARY
  5
90C
102
{ACAD_REACTORS
330
89E
102
}
330
89E
100
AcDbDictionary
  0
DICTIONARY
  5
89F
102
{ACAD_REACTORS
330
89E
102
}
330
89E
100
AcDbDictionary
  0
RASTERVARIABLES
  5
903
102
{ACAD_REACTORS
330
89E
102
}
330
89E
100
AcDbRasterVariables
 90
        0
 70
     1
 71
     1
 72
     0
  0
DICTIONARY
  5
8A8
102
{ACAD_REACTORS
330
89E
102
}
330
89E
100
AcDbDictionary
  3
STANDARD
350
8A9
  0
DICTIONARY
  5
8C2
102
{ACAD_REACTORS
330
89E
102
}
330
89E
100
AcDbDictionary
  0
DICTIONARY
  5
90D
102
{ACAD_REACTORS
330
89E
102
}
330
89E
100
AcDbDictionary
  0
DICTIONARY
  5
907
102
{ACAD_REACTORS
330
89E
102
}
330
89E
100
AcDbDictionary
  0
DICTIONARY
  5
901
102
{ACAD_REACTORS
330
89E
102
}
330
89E
100
AcDbDictionary
  0
XRECORD
  5
B37
102
{ACAD_REACTORS
330
89E
102
}
330
89E
100
AcDbXrecord
  1
DWGPROPS COOKIE
  2

  3

  4

  6

  7

  8
NickC
  9

300
=
301
=
302
=
303
=
304
=
305
=
306
=
307
=
308
=
309
=
 40
0.0
 41
2458486.777413692
 42
2458554.912757824
  1

 90
        0
  0
DICTIONARY
  5
914
102
{ACAD_REACTORS
330
913
102
}
330
913
100
AcDbDictionary
  0
DICTIONARY
  5
923
102
{ACAD_REACTORS
330
913
102
}
330
913
100
AcDbDictionary
1001
ACAD
1000
<All
  0
MLINESTYLE
  5
8A9
102
{ACAD_REACTORS
330
8A8
102
}
330
8A8
100
AcDbMlineStyle
  2
Standard
 70
     0
  3

 62
   256
 51
90.0
 52
90.0
 71
     2
 49
0.5
 62
   256
  6
BYLAYER
 49
-0.5
 62
   256
  6
BYLAYER
  0
ENDSEC
  0
EOF
