  0
SECTION
  2
HEADER
  9
$ACADVER
  1
AC1014
  9
$ACADMAINTVER
 70
     9
  9
$DWGCODEPAGE
  3
ANSI_1252
  9
$INSBASE
 10
0.0
 20
0.0
 30
0.0
  9
$EXTMIN
 10
-3.105000000001786
 20
-3.105000000001786
 30
0.0
  9
$EXTMAX
 10
3.105000000001786
 20
3.105000000001785
 30
0.0
  9
$LIMMIN
 10
0.0
 20
0.0
  9
$LIMMAX
 10
12.0
 20
9.0
  9
$ORTHOMODE
 70
     0
  9
$REGENMODE
 70
     1
  9
$FILLMODE
 70
     1
  9
$QTEXTMODE
 70
     0
  9
$MIRRTEXT
 70
     1
  9
$DRAGMODE
 70
     2
  9
$LTSCALE
 40
1.0
  9
$OSMODE
 70
 13311
  9
$ATTMODE
 70
     1
  9
$TEXTSIZE
 40
0.1377952756
  9
$TRACEWID
 40
0.05
  9
$TEXTSTYLE
  7
STANDARD
  9
$CLAYER
  8
LAYER1
  9
$CELTYPE
  6
BYLAYER
  9
$CECOLOR
 62
   256
  9
$CELTSCALE
 40
1.0
  9
$DELOBJ
 70
     1
  9
$DISPSILH
 70
     0
  9
$DIMSCALE
 40
1.0
  9
$DIMASZ
 40
0.13
  9
$DIMEXO
 40
0.0393700787
  9
$DIMDLI
 40
0.38
  9
$DIMRND
 40
0.0
  9
$DIMDLE
 40
0.0
  9
$DIMEXE
 40
0.0393700787
  9
$DIMTP
 40
0.0
  9
$DIMTM
 40
0.0
  9
$DIMTXT
 40
0.1377952756
  9
$DIMCEN
 40
0.09
  9
$DIMTSZ
 40
0.0
  9
$DIMTOL
 70
     0
  9
$DIMLIM
 70
     0
  9
$DIMTIH
 70
     1
  9
$DIMTOH
 70
     1
  9
$DIMSE1
 70
     0
  9
$DIMSE2
 70
     0
  9
$DIMTAD
 70
     1
  9
$DIMZIN
 70
     0
  9
$DIMBLK
  1

  9
$DIMASO
 70
     1
  9
$DIMSHO
 70
     1
  9
$DIMPOST
  1

  9
$DIMAPOST
  1

  9
$DIMALT
 70
     0
  9
$DIMALTD
 70
     2
  9
$DIMALTF
 40
25.4
  9
$DIMLFAC
 40
1.0
  9
$DIMTOFL
 70
     0
  9
$DIMTVP
 40
0.0
  9
$DIMTIX
 70
     0
  9
$DIMSOXD
 70
     0
  9
$DIMSAH
 70
     0
  9
$DIMBLK1
  1

  9
$DIMBLK2
  1

  9
$DIMSTYLE
  2
STANDARD
  9
$DIMCLRD
 70
     0
  9
$DIMCLRE
 70
     0
  9
$DIMCLRT
 70
     0
  9
$DIMTFAC
 40
1.0
  9
$DIMGAP
 40
0.06
  9
$DIMJUST
 70
     0
  9
$DIMSD1
 70
     0
  9
$DIMSD2
 70
     0
  9
$DIMTOLJ
 70
     1
  9
$DIMTZIN
 70
     0
  9
$DIMALTZ
 70
     0
  9
$DIMALTTZ
 70
     0
  9
$DIMFIT
 70
     5
  9
$DIMUPT
 70
     0
  9
$DIMUNIT
 70
     2
  9
$DIMDEC
 70
     4
  9
$DIMTDEC
 70
     4
  9
$DIMALTU
 70
     2
  9
$DIMALTTD
 70
     2
  9
$DIMTXSTY
  7
STANDARD
  9
$DIMAUNIT
 70
     0
  9
$LUNITS
 70
     2
  9
$LUPREC
 70
     4
  9
$SKETCHINC
 40
0.1
  9
$FILLETRAD
 40
0.5
  9
$AUNITS
 70
     0
  9
$AUPREC
 70
     2
  9
$MENU
  1
.
  9
$ELEVATION
 40
0.0
  9
$PELEVATION
 40
0.0
  9
$THICKNESS
 40
0.0
  9
$LIMCHECK
 70
     0
  9
$CHAMFERA
 40
0.5
  9
$CHAMFERB
 40
0.5
  9
$CHAMFERC
 40
0.0
  9
$CHAMFERD
 40
0.0
  9
$SKPOLY
 70
     0
  9
$TDCREATE
 40
2458486.485747025
  9
$TDUPDATE
 40
2458554.623655972
  9
$TDINDWG
 40
0.0157744676
  9
$TDUSRTIMER
 40
2458554.912786887
  9
$USRTIMER
 70
     1
  9
$ANGBASE
 50
0.0
  9
$ANGDIR
 70
     0
  9
$PDMODE
 70
     0
  9
$PDSIZE
 40
-1.0
  9
$PLINEWID
 40
0.0
  9
$COORDS
 70
     1
  9
$SPLFRAME
 70
     0
  9
$SPLINETYPE
 70
     6
  9
$SPLINESEGS
 70
     8
  9
$ATTDIA
 70
     0
  9
$ATTREQ
 70
     1
  9
$HANDLING
 70
     1
  9
$HANDSEED
  5
B36
  9
$SURFTAB1
 70
     6
  9
$SURFTAB2
 70
     6
  9
$SURFTYPE
 70
     6
  9
$SURFU
 70
     6
  9
$SURFV
 70
     6
  9
$UCSNAME
  2

  9
$UCSORG
 10
0.0
 20
0.0
 30
0.0
  9
$UCSXDIR
 10
1.0
 20
0.0
 30
0.0
  9
$UCSYDIR
 10
0.0
 20
1.0
 30
0.0
  9
$PUCSNAME
  2

  9
$PUCSORG
 10
0.0
 20
0.0
 30
0.0
  9
$PUCSXDIR
 10
1.0
 20
0.0
 30
0.0
  9
$PUCSYDIR
 10
0.0
 20
1.0
 30
0.0
  9
$USERI1
 70
     0
  9
$USERI2
 70
     0
  9
$USERI3
 70
     0
  9
$USERI4
 70
     0
  9
$USERI5
 70
     0
  9
$USERR1
 40
0.0
  9
$USERR2
 40
0.0
  9
$USERR3
 40
0.0
  9
$USERR4
 40
0.0
  9
$USERR5
 40
0.0
  9
$WORLDVIEW
 70
     1
  9
$SHADEDGE
 70
     3
  9
$SHADEDIF
 70
    70
  9
$TILEMODE
 70
     1
  9
$MAXACTVP
 70
    64
  9
$PINSBASE
 10
0.0
 20
0.0
 30
0.0
  9
$PLIMCHECK
 70
     0
  9
$PEXTMIN
 10
1.000000000000000E+20
 20
1.000000000000000E+20
 30
1.000000000000000E+20
  9
$PEXTMAX
 10
-1.000000000000000E+20
 20
-1.000000000000000E+20
 30
-1.000000000000000E+20
  9
$PLIMMIN
 10
0.0
 20
0.0
  9
$PLIMMAX
 10
0.0
 20
0.0
  9
$UNITMODE
 70
     0
  9
$VISRETAIN
 70
     1
  9
$PLINEGEN
 70
     0
  9
$PSLTSCALE
 70
     1
  9
$TREEDEPTH
 70
  3020
  9
$PICKSTYLE
 70
     0
  9
$CMLSTYLE
  2
STANDARD
  9
$CMLJUST
 70
     0
  9
$CMLSCALE
 40
1.0
  9
$PROXYGRAPHICS
 70
     1
  9
$MEASUREMENT
 70
     0
  0
ENDSEC
  0
SECTION
  2
CLASSES
  0
CLASS
  1
ACDBDICTIONARYWDFLT
  2
AcDbDictionaryWithDefault
  3
ObjectDBX Classes
 90
        0
280
     0
281
     0
  0
CLASS
  1
MATERIAL
  2
AcDbMaterial
  3
ObjectDBX Classes
 90
     1153
280
     0
281
     0
  0
CLASS
  1
SCALE
  2
AcDbScale
  3
ObjectDBX Classes
 90
     1153
280
     0
281
     0
  0
CLASS
  1
VISUALSTYLE
  2
AcDbVisualStyle
  3
ObjectDBX Classes
 90
     4095
280
     0
281
     0
  0
CLASS
  1
TABLESTYLE
  2
AcDbTableStyle
  3
ObjectDBX Classes
 90
     4095
280
     0
281
     0
  0
CLASS
  1
MLEADERSTYLE
  2
AcDbMLeaderStyle
  3
ACDB_MLEADERSTYLE_CLASS
 90
     4095
280
     0
281
     0
  0
CLASS
  1
SUN
  2
AcDbSun
  3
SCENEOE
 90
     1153
280
     0
281
     0
  0
CLASS
  1
RASTERVARIABLES
  2
AcDbRasterVariables
  3
ISM
 90
        0
280
     0
281
     0
  0
CLASS
  1
DICTIONARYVAR
  2
AcDbDictionaryVar
  3
ObjectDBX Classes
 90
        0
280
     0
281
     0
  0
CLASS
  1
XRECORD
  2
AcDbXrecord
  3
ObjectDBX Classes
 90
        0
280
     0
281
     0
  0
CLASS
  1
LWPOLYLINE
  2
AcDbPolyline
  3
ObjectDBX Classes
 90
        0
280
     0
281
     1
  0
CLASS
  1
HATCH
  2
AcDbHatch
  3
ObjectDBX Classes
 90
        0
280
     0
281
     1
  0
ENDSEC
  0
SECTION
  2
TABLES
  0
TABLE
  2
VPORT
  5
89A
330
0
100
AcDbSymbolTable
 70
     1
  0
VPORT
  5
8B1
330
89A
100
AcDbSymbolTableRecord
100
AcDbViewportTableRecord
  2
*ACTIVE
 70
     0
 10
0.0
 20
0.0
 11
1.0
 21
1.0
 12
0.0
 22
0.0
 13
0.0
 23
0.0
 14
0.5
 24
0.5
 15
0.5
 25
0.5
 16
0.0
 26
0.0
 36
1.0
 17
-0.0000000000000004
 27
0.0000000000000004
 37
0.0
 40
6.33030282165365
 41
1.727785613540197
 42
50.0
 43
0.0
 44
0.0
 50
0.0
 51
0.0
 71
    16
 72
   100
 73
     1
 74
     3
 75
     0
 76
     0
 77
     0
 78
     0
  0
ENDTAB
  0
TABLE
  2
LTYPE
  5
897
330
0
100
AcDbSymbolTable
 70
     6
  0
LTYPE
  5
8A5
330
897
100
AcDbSymbolTableRecord
100
AcDbLinetypeTableRecord
  2
BYBLOCK
 70
     0
  3

 72
    65
 73
     0
 40
0.0
  0
LTYPE
  5
8A6
330
897
100
AcDbSymbolTableRecord
100
AcDbLinetypeTableRecord
  2
BYLAYER
 70
     0
  3

 72
    65
 73
     0
 40
0.0
  0
LTYPE
  5
8A7
330
897
100
AcDbSymbolTableRecord
100
AcDbLinetypeTableRecord
  2
CONTINUOUS
 70
     0
  3
Solid line
 72
    65
 73
     0
 40
0.0
  0
LTYPE
  5
8B3
330
897
100
AcDbSymbolTableRecord
100
AcDbLinetypeTableRecord
  2
HIDDEN
 70
     0
  3
Hidden __ __ __ __ __ __ __ __ __ __ __ __ __ __
 72
    65
 73
     2
 40
0.075
 49
0.05
 74
     0
 49
-0.025
 74
     0
  0
LTYPE
  5
8B4
330
897
100
AcDbSymbolTableRecord
100
AcDbLinetypeTableRecord
  2
PHANTOM
 70
     0
  3
Phantom ______  __  __  ______  __  __  ______
 72
    65
 73
     6
 40
0.5
 49
0.25
 74
     0
 49
-0.05
 74
     0
 49
0.05
 74
     0
 49
-0.05
 74
     0
 49
0.05
 74
     0
 49
-0.05
 74
     0
  0
LTYPE
  5
8B5
330
897
100
AcDbSymbolTableRecord
100
AcDbLinetypeTableRecord
  2
CENTER
 70
     0
  3
Center ____ _ ____ _ ____ _ ____ _ ____ _ ____
 72
    65
 73
     4
 40
0.4
 49
0.25
 74
     0
 49
-0.05
 74
     0
 49
0.05
 74
     0
 49
-0.05
 74
     0
  0
LTYPE
  5
8B6
330
897
100
AcDbSymbolTableRecord
100
AcDbLinetypeTableRecord
  2
CENTERX2
 70
     0
  3
Center (2x) ________  __  ________  __  _____
 72
    65
 73
     4
 40
0.8
 49
0.5
 74
     0
 49
-0.1
 74
     0
 49
0.1
 74
     0
 49
-0.1
 74
     0
  0
LTYPE
  5
8B7
330
897
100
AcDbSymbolTableRecord
100
AcDbLinetypeTableRecord
  2
DOT2
 70
     0
  3
Dot (.5x) ........................................
 72
    65
 73
     2
 40
0.025
 49
0.0
 74
     0
 49
-0.025
 74
     0
  0
ENDTAB
  0
TABLE
  2
LAYER
  5
894
102
{ACAD_XDICTIONARY
360
913
102
}
330
0
100
AcDbSymbolTable
 70
     4
  0
LAYER
  5
8A2
330
894
100
AcDbSymbolTableRecord
100
AcDbLayerTableRecord
  2
0
 70
     0
 62
     7
  6
CONTINUOUS
  0
LAYER
  5
916
330
894
100
AcDbSymbolTableRecord
100
AcDbLayerTableRecord
  2
LAYER1
 70
     0
 62
     1
  6
CONTINUOUS
1001
ACAECLAYERSTANDARD
1000

1000

  0
LAYER
  5
91C
330
894
100
AcDbSymbolTableRecord
100
AcDbLayerTableRecord
  2
LAYER2
 70
     0
 62
     4
  6
CONTINUOUS
1001
ACAECLAYERSTANDARD
1000

1000

  0
LAYER
  5
922
330
894
100
AcDbSymbolTableRecord
100
AcDbLayerTableRecord
  2
LAYER3
 70
     0
 62
     3
  6
CONTINUOUS
1001
ACAECLAYERSTANDARD
1000

1000

  0
ENDTAB
  0
TABLE
  2
STYLE
  5
895
330
0
100
AcDbSymbolTable
 70
     1
  0
STYLE
  5
8A3
330
895
100
AcDbSymbolTableRecord
100
AcDbTextStyleTableRecord
  2
STANDARD
 70
     0
 40
0.0
 41
1.0
 50
0.0
 71
     0
 42
0.1377952756
  3
txt
  4

  0
ENDTAB
  0
TABLE
  2
VIEW
  5
898
330
0
100
AcDbSymbolTable
 70
     0
  0
ENDTAB
  0
TABLE
  2
UCS
  5
899
330
0
100
AcDbSymbolTable
 70
     0
  0
ENDTAB
  0
TABLE
  2
APPID
  5
89B
330
0
100
AcDbSymbolTable
 70
     2
  0
APPID
  5
8A4
330
89B
100
AcDbSymbolTableRecord
100
AcDbRegAppTableRecord
  2
ACAD
 70
     0
  0
APPID
  5
917
330
89B
100
AcDbSymbolTableRecord
100
AcDbRegAppTableRecord
  2
ACAECLAYERSTANDARD
 70
     0
  0
ENDTAB
  0
TABLE
  2
DIMSTYLE
  5
89C
330
0
100
AcDbSymbolTable
 70
     1
  0
DIMSTYLE
105
8BF
330
89C
100
AcDbSymbolTableRecord
100
AcDbDimStyleTableRecord
  2
STANDARD
 70
     0
  3

  4

  5

  6

  7

 40
1.0
 41
0.18
 42
0.0625
 43
0.38
 44
0.18
 45
0.0
 46
0.0
 47
0.0
 48
0.0
140
0.18
141
0.09
142
0.0
143
25.4
144
1.0
145
0.0
146
1.0
147
0.09
 71
     0
 72
     0
 73
     1
 74
     1
 75
     0
 76
     0
 77
     0
 78
     0
170
     0
171
     2
172
     0
173
     0
174
     0
175
     0
176
     0
177
     0
178
     0
270
     2
271
     4
272
     4
273
     2
274
     2
340
8A3
275
     0
280
     0
281
     0
282
     0
283
     1
284
     0
285
     0
286
     0
287
     3
288
     0
  0
ENDTAB
  0
TABLE
  2
BLOCK_RECORD
  5
893
330
0
100
AcDbSymbolTable
 70
     0
  0
BLOCK_RECORD
  5
8AE
330
893
100
AcDbSymbolTableRecord
100
AcDbBlockTableRecord
  2
*MODEL_SPACE
  0
BLOCK_RECORD
  5
8AC
330
893
100
AcDbSymbolTableRecord
100
AcDbBlockTableRecord
  2
*PAPER_SPACE
  0
ENDTAB
  0
ENDSEC
  0
SECTION
  2
BLOCKS
  0
BLOCK
  5
8C0
330
8AE
100
AcDbEntity
  8
0
100
AcDbBlockBegin
  2
*MODEL_SPACE
 70
     0
 10
0.0
 20
0.0
 30
0.0
  3
*MODEL_SPACE
  1

  0
ENDBLK
  5
21
330
8AE
100
AcDbEntity
  8
0
100
AcDbBlockEnd
  0
BLOCK
  5
8C1
330
8AC
100
AcDbEntity
 67
     1
  8
0
100
AcDbBlockBegin
  2
*PAPER_SPACE
 70
     0
 10
0.0
 20
0.0
 30
0.0
  3
*PAPER_SPACE
  1

  0
ENDBLK
  5
1D
330
8AC
100
AcDbEntity
 67
     1
  8
0
100
AcDbBlockEnd
  0
ENDSEC
  0
SECTION
  2
ENTITIES
  0
LINE
  5
606
330
8AE
100
AcDbEntity
  8
LAYER1
  6
CONTINUOUS
100
AcDbLine
 10
0.141993515073704
 20
-3.063078713106953
 30
0.0
 11
0.1833486981095492
 21
-3.051997625286583
 31
0.0
  0
ARC
  5
608
330
8AE
100
AcDbEntity
  8
LAYER1
  6
CONTINUOUS
100
AcDbCircle
 10
0.1461346197999996
 20
-3.0785335264
 30
0.0
 40
0.0160000000000008
100
AcDbArc
 50
104.9999999999994
 51
163.5000000000004
  0
ARC
  5
609
330
8AE
100
AcDbEntity
  8
LAYER1
  6
CONTINUOUS
100
AcDbCircle
 10
0.0
 20
0.0
 30
0.0
 40
3.105000000001785
100
AcDbArc
 50
267.9900319482759
 51
272.0099680517239
  0
LINE
  5
60B
330
8AE
100
AcDbEntity
  8
LAYER1
  6
CONTINUOUS
100
AcDbLine
 10
0.1263942153730811
 20
-3.088841030627444
 30
0.0
 11
0.1307935040417897
 21
-3.073989280870992
 31
0.0
  0
ARC
  5
60C
330
8AE
100
AcDbEntity
  8
LAYER1
  6
CONTINUOUS
100
AcDbCircle
 10
0.1072178206757174
 20
-3.083160723733365
 30
0.0
 40
0.02
100
AcDbArc
 50
274.8328386724079
 51
343.4999999999999
  0
ARC
  5
611
330
8AE
100
AcDbEntity
  8
LAYER1
  6
CONTINUOUS
100
AcDbCircle
 10
-0.1072178206757181
 20
-3.083160723733365
 30
0.0
 40
0.02
100
AcDbArc
 50
196.5000000000001
 51
265.1671613275921
  0
LINE
  5
612
330
8AE
100
AcDbEntity
  8
LAYER1
  6
CONTINUOUS
100
AcDbLine
 10
-0.1263942153730819
 20
-3.088841030627444
 30
0.0
 11
-0.1307935040417904
 21
-3.073989280870992
 31
0.0
  0
ARC
  5
613
330
8AE
100
AcDbEntity
  8
LAYER1
  6
CONTINUOUS
100
AcDbCircle
 10
-0.1461346198000004
 20
-3.0785335264
 30
0.0
 40
0.0160000000000008
100
AcDbArc
 50
16.49999999999964
 51
75.00000000000067
  0
LINE
  5
614
330
8AE
100
AcDbEntity
  8
LAYER1
  6
CONTINUOUS
100
AcDbLine
 10
-0.1419935150737048
 20
-3.063078713106953
 30
0.0
 11
-0.1833486981095499
 21
-3.051997625286583
 31
0.0
  0
ARC
  5
7E3
330
8AE
100
AcDbEntity
  8
LAYER1
  6
CONTINUOUS
100
AcDbCircle
 10
0.0
 20
0.0
 30
0.0
 40
3.057499999976028
100
AcDbArc
 50
266.25
 51
266.5620889955913
  0
ARC
  5
7E5
330
8AE
100
AcDbEntity
  8
LAYER1
  6
CONTINUOUS
100
AcDbCircle
 10
0.0
 20
0.0
 30
0.0
 40
3.057499999976028
100
AcDbArc
 50
273.4379110044086
 51
273.7499999999999
  0
LINE
  5
930
330
8AE
100
AcDbEntity
  8
LAYER1
  6
CONTINUOUS
100
AcDbLine
 10
0.5405907417603749
 20
-3.018339777250881
 30
0.0
 11
0.5801457532735881
 21
-3.001955555102712
 31
0.0
  0
ARC
  5
931
330
8AE
100
AcDbEntity
  8
LAYER1
  6
CONTINUOUS
100
AcDbCircle
 10
0.5467136766922848
 20
-3.033121849842257
 30
0.0
 40
0.0160000000000008
100
AcDbArc
 50
112.4999999999998
 51
171.0000000000016
  0
ARC
  5
932
330
8AE
100
AcDbEntity
  8
LAYER1
  6
CONTINUOUS
100
AcDbCircle
 10
0.0
 20
0.0
 30
0.0
 40
3.105000000001785
100
AcDbArc
 50
275.4900319482759
 51
279.5099680517239
  0
LINE
  5
933
330
8AE
100
AcDbEntity
  8
LAYER1
  6
CONTINUOUS
100
AcDbLine
 10
0.5284875534398759
 20
-3.045917811764875
 30
0.0
 11
0.5309106632406523
 21
-3.030618898388027
 31
0.0
  0
ARC
  5
934
330
8AE
100
AcDbEntity
  8
LAYER1
  6
CONTINUOUS
100
AcDbCircle
 10
0.5087337866279733
 20
-3.04278912246407
 30
0.0
 40
0.02
100
AcDbArc
 50
282.3328386724078
 51
350.9999999999998
  0
ARC
  5
935
330
8AE
100
AcDbEntity
  8
LAYER1
  6
CONTINUOUS
100
AcDbCircle
 10
0.2961326719146952
 20
-3.070778590205937
 30
0.0
 40
0.02
100
AcDbArc
 50
204.0
 51
272.6671613275921
  0
LINE
  5
936
330
8AE
100
AcDbEntity
  8
LAYER1
  6
CONTINUOUS
100
AcDbLine
 10
0.2778617627618433
 20
-3.078913323067453
 30
0.0
 11
0.2715615682740374
 21
-3.064762854487412
 31
0.0
  0
ARC
  5
937
330
8AE
100
AcDbEntity
  8
LAYER1
  6
CONTINUOUS
100
AcDbCircle
 10
0.2569448409532338
 20
-3.071270640790295
 30
0.0
 40
0.0160000000000008
100
AcDbArc
 50
24.00000000000081
 51
82.50000000000065
  0
LINE
  5
938
330
8AE
100
AcDbEntity
  8
LAYER1
  6
CONTINUOUS
100
AcDbLine
 10
0.259033260023917
 20
-3.055407522935904
 30
0.0
 11
0.2165855041130061
 21
-3.049819169928198
 31
0.0
  0
ARC
  5
939
330
8AE
100
AcDbEntity
  8
LAYER1
  6
CONTINUOUS
100
AcDbCircle
 10
0.0
 20
0.0
 30
0.0
 40
3.057499999976028
100
AcDbArc
 50
273.75
 51
274.0620889955913
  0
ARC
  5
93A
330
8AE
100
AcDbEntity
  8
LAYER1
  6
CONTINUOUS
100
AcDbCircle
 10
0.0
 20
0.0
 30
0.0
 40
3.057499999976028
100
AcDbArc
 50
280.9379110044086
 51
281.2499999999999
  0
LINE
  5
93B
330
8AE
100
AcDbEntity
  8
LAYER1
  6
CONTINUOUS
100
AcDbLine
 10
0.9299383109754564
 20
-2.921956210964163
 30
0.0
 11
0.9670163537523255
 21
-2.900549193071713
 31
0.0
  0
ARC
  5
93C
330
8AE
100
AcDbEntity
  8
LAYER1
  6
CONTINUOUS
100
AcDbCircle
 10
0.9379383109986974
 20
-2.935812617493464
 30
0.0
 40
0.0160000000000008
100
AcDbArc
 50
119.9999999999987
 51
178.5000000000005
  0
ARC
  5
93D
330
8AE
100
AcDbEntity
  8
LAYER1
  6
CONTINUOUS
100
AcDbCircle
 10
0.0
 20
0.0
 30
0.0
 40
3.105000000001785
100
AcDbArc
 50
282.9900319482759
 51
287.0099680517239
  0
LINE
  5
93E
330
8AE
100
AcDbEntity
  8
LAYER1
  6
CONTINUOUS
100
AcDbLine
 10
0.9215383229428828
 20
-2.950878094655048
 30
0.0
 11
0.9219437937952228
 21
-2.935393786307343
 31
0.0
  0
ARC
  5
93F
330
8AE
100
AcDbEntity
  8
LAYER1
  6
CONTINUOUS
100
AcDbCircle
 10
0.9015451764433718
 20
-2.95035455568889
 30
0.0
 40
0.02
100
AcDbArc
 50
289.8328386724078
 51
358.4999999999991
  0
ARC
  5
940
330
8AE
100
AcDbEntity
  8
LAYER1
  6
CONTINUOUS
100
AcDbCircle
 10
0.6944162523851601
 20
-3.005854583619415
 30
0.0
 40
0.02
100
AcDbArc
 50
211.500000000002
 51
280.1671613275918
  0
LINE
  5
941
330
8AE
100
AcDbEntity
  8
LAYER1
  6
CONTINUOUS
100
AcDbLine
 10
0.6773634490980784
 20
-3.016304554913735
 30
0.0
 11
0.6692701468656055
 21
-3.00309748595076
 31
0.0
  0
ARC
  5
942
330
8AE
100
AcDbEntity
  8
LAYER1
  6
CONTINUOUS
100
AcDbCircle
 10
0.6556279042391897
 20
-3.011457462999576
 30
0.0
 40
0.0160000000000008
100
AcDbArc
 50
31.50000000000034
 51
90.0000000000008
  0
LINE
  5
943
330
8AE
100
AcDbEntity
  8
LAYER1
  6
CONTINUOUS
100
AcDbLine
 10
0.6556279042249421
 20
-2.995457462928416
 30
0.0
 11
0.6128138683113424
 21
-2.995457463002721
 31
0.0
  0
ARC
  5
944
330
8AE
100
AcDbEntity
  8
LAYER1
  6
CONTINUOUS
100
AcDbCircle
 10
0.0
 20
0.0
 30
0.0
 40
3.057499999976028
100
AcDbArc
 50
281.2499999999999
 51
281.5620889955912
  0
ARC
  5
945
330
8AE
100
AcDbEntity
  8
LAYER1
  6
CONTINUOUS
100
AcDbCircle
 10
0.0
 20
0.0
 30
0.0
 40
3.057499999976028
100
AcDbArc
 50
288.4379110044086
 51
288.7499999999999
  0
LINE
  5
946
330
8AE
100
AcDbEntity
  8
LAYER1
  6
CONTINUOUS
100
AcDbLine
 10
1.303374377862139
 20
-2.775577163788536
 30
0.0
 11
1.337341036310776
 21
-2.749513630163093
 31
0.0
  0
ARC
  5
947
330
8AE
100
AcDbEntity
  8
LAYER1
  6
CONTINUOUS
100
AcDbCircle
 10
1.313114560758294
 20
-2.788270817298324
 30
0.0
 40
0.0160000000000008
100
AcDbArc
 50
127.5000000000007
 51
186.0000000000005
  0
ARC
  5
948
330
8AE
100
AcDbEntity
  8
LAYER1
  6
CONTINUOUS
100
AcDbCircle
 10
0.0
 20
0.0
 30
0.0
 40
3.105000000001785
100
AcDbArc
 50
290.4900319482758
 51
294.5099680517239
  0
LINE
  5
949
330
8AE
100
AcDbEntity
  8
LAYER1
  6
CONTINUOUS
100
AcDbLine
 10
1.298821316241645
 20
-2.805348035207701
 30
0.0
 11
1.297202210426847
 21
-2.789943272698029
 31
0.0
  0
ARC
  5
94A
330
8AE
100
AcDbEntity
  8
LAYER1
  6
CONTINUOUS
100
AcDbCircle
 10
1.278930878334279
 20
-2.807438604473053
 30
0.0
 40
0.02
100
AcDbArc
 50
297.3328386724071
 51
5.999999999998555
  0
ARC
  5
94B
330
8AE
100
AcDbEntity
  8
LAYER1
  6
CONTINUOUS
100
AcDbCircle
 10
1.080818178248757
 20
-2.88949957172683
 30
0.0
 40
0.02
100
AcDbArc
 50
219.0000000000014
 51
287.6671613275922
  0
LINE
  5
94C
330
8AE
100
AcDbEntity
  8
LAYER1
  6
CONTINUOUS
100
AcDbLine
 10
1.065275259019618
 20
-2.902085979547828
 30
0.0
 11
1.055527327687563
 21
-2.890048286813568
 31
0.0
  0
ARC
  5
94D
330
8AE
100
AcDbEntity
  8
LAYER1
  6
CONTINUOUS
100
AcDbCircle
 10
1.043092992309217
 20
-2.900117413083187
 30
0.0
 40
0.0160000000000008
100
AcDbArc
 50
38.99999999999876
 51
97.50000000000114
  0
LINE
  5
94E
330
8AE
100
AcDbEntity
  8
LAYER1
  6
CONTINUOUS
100
AcDbLine
 10
1.041004573210282
 20
-2.884254295232515
 30
0.0
 11
0.9985568173187687
 21
-2.889842648387559
 31
0.0
  0
ARC
  5
94F
330
8AE
100
AcDbEntity
  8
LAYER1
  6
CONTINUOUS
100
AcDbCircle
 10
0.0
 20
0.0
 30
0.0
 40
3.057499999976028
100
AcDbArc
 50
288.7499999999999
 51
289.0620889955913
  0
ARC
  5
950
330
8AE
100
AcDbEntity
  8
LAYER1
  6
CONTINUOUS
100
AcDbCircle
 10
0.0
 20
0.0
 30
0.0
 40
3.057499999976028
100
AcDbArc
 50
295.9379110044086
 51
296.2499999999999
  0
LINE
  5
951
330
8AE
100
AcDbEntity
  8
LAYER1
  6
CONTINUOUS
100
AcDbLine
 10
1.654509347779953
 20
-2.581707221805116
 30
0.0
 11
1.684783442956965
 21
-2.551433126733186
 31
0.0
  0
ARC
  5
952
330
8AE
100
AcDbEntity
  8
LAYER1
  6
CONTINUOUS
100
AcDbCircle
 10
1.66582305631918
 20
-2.593020930364492
 30
0.0
 40
0.0160000000000008
100
AcDbArc
 50
135.0000000000006
 51
193.5000000000016
  0
ARC
  5
953
330
8AE
100
AcDbEntity
  8
LAYER1
  6
CONTINUOUS
100
AcDbCircle
 10
0.0
 20
0.0
 30
0.0
 40
3.105000000001785
100
AcDbArc
 50
297.9900319482759
 51
302.0099680517239
  0
LINE
  5
954
330
8AE
100
AcDbEntity
  8
LAYER1
  6
CONTINUOUS
100
AcDbLine
 10
1.653881116718212
 20
-2.611817693088534
 30
0.0
 11
1.650265137585668
 21
-2.596756056174442
 31
0.0
  0
ARC
  5
955
330
8AE
100
AcDbEntity
  8
LAYER1
  6
CONTINUOUS
100
AcDbCircle
 10
1.634433718310258
 20
-2.616486600365652
 30
0.0
 40
0.02
100
AcDbArc
 50
304.8328386724089
 51
13.50000000000094
  0
ARC
  5
956
330
8AE
100
AcDbEntity
  8
LAYER1
  6
CONTINUOUS
100
AcDbCircle
 10
1.448727005423106
 20
-2.723704421041369
 30
0.0
 40
0.02
100
AcDbArc
 50
226.5000000000006
 51
295.1671613275921
  0
LINE
  5
957
330
8AE
100
AcDbEntity
  8
LAYER1
  6
CONTINUOUS
100
AcDbLine
 10
1.434959913909231
 20
-2.738211908461615
 30
0.0
 11
1.423724143285322
 21
-2.727549560216232
 31
0.0
  0
ARC
  5
958
330
8AE
100
AcDbEntity
  8
LAYER1
  6
CONTINUOUS
100
AcDbCircle
 10
1.412710470080819
 20
-2.739155550164492
 30
0.0
 40
0.0160000000000008
100
AcDbArc
 50
46.50000000000043
 51
105.0000000000002
  0
LINE
  5
959
330
8AE
100
AcDbEntity
  8
LAYER1
  6
CONTINUOUS
100
AcDbLine
 10
1.408569365326999
 20
-2.72370073687882
 30
0.0
 11
1.367214182329617
 21
-2.734781824842736
 31
0.0
  0
ARC
  5
95A
330
8AE
100
AcDbEntity
  8
LAYER1
  6
CONTINUOUS
100
AcDbCircle
 10
0.0
 20
0.0
 30
0.0
 40
3.057499999976028
100
AcDbArc
 50
296.2499999999999
 51
296.5620889955912
  0
ARC
  5
95B
330
8AE
100
AcDbEntity
  8
LAYER1
  6
CONTINUOUS
100
AcDbCircle
 10
0.0
 20
0.0
 30
0.0
 40
3.057499999976028
100
AcDbArc
 50
303.4379110044086
 51
303.7499999999999
  0
LINE
  5
95C
330
8AE
100
AcDbEntity
  8
LAYER1
  6
CONTINUOUS
100
AcDbLine
 10
1.977335204040598
 20
-2.34366355347214
 30
0.0
 11
2.003398737783942
 21
-2.309696895113971
 31
0.0
  0
ARC
  5
95D
330
8AE
100
AcDbEntity
  8
LAYER1
  6
CONTINUOUS
100
AcDbCircle
 10
1.990028857533039
 20
-2.353403736390902
 30
0.0
 40
0.0160000000000008
100
AcDbArc
 50
142.4999999999993
 51
201.0000000000007
  0
ARC
  5
95E
330
8AE
100
AcDbEntity
  8
LAYER1
  6
CONTINUOUS
100
AcDbCircle
 10
0.0
 20
0.0
 30
0.0
 40
3.105000000001785
100
AcDbArc
 50
305.4900319482758
 51
309.5099680517239
  0
LINE
  5
95F
330
8AE
100
AcDbEntity
  8
LAYER1
  6
CONTINUOUS
100
AcDbLine
 10
1.980642552745256
 20
-2.373598426107952
 30
0.0
 11
1.975091570700463
 21
-2.359137623572916
 31
0.0
  0
ARC
  5
960
330
8AE
100
AcDbEntity
  8
LAYER1
  6
CONTINUOUS
100
AcDbCircle
 10
1.961970944215311
 20
-2.380765785098857
 30
0.0
 40
0.02
100
AcDbArc
 50
312.3328386724079
 51
20.99999999999943
  0
ARC
  5
961
330
8AE
100
AcDbEntity
  8
LAYER1
  6
CONTINUOUS
100
AcDbCircle
 10
1.791847711871657
 20
-2.511305932558358
 30
0.0
 40
0.02
100
AcDbArc
 50
234.0000000000012
 51
302.6671613275918
  0
LINE
  5
962
330
8AE
100
AcDbEntity
  8
LAYER1
  6
CONTINUOUS
100
AcDbLine
 10
1.780092006825808
 20
-2.527486272445858
 30
0.0
 11
1.767560644060565
 21
-2.518381704423992
 31
0.0
  0
ARC
  5
963
330
8AE
100
AcDbEntity
  8
LAYER1
  6
CONTINUOUS
100
AcDbCircle
 10
1.758156080032
 20
-2.53132597634509
 30
0.0
 40
0.0160000000000008
100
AcDbArc
 50
54.00000000000036
 51
112.4999999999995
  0
LINE
  5
964
330
8AE
100
AcDbEntity
  8
LAYER1
  6
CONTINUOUS
100
AcDbLine
 10
1.752033145073764
 20
-2.516543903764619
 30
0.0
 11
1.712478133617421
 21
-2.532928126050087
 31
0.0
  0
ARC
  5
965
330
8AE
100
AcDbEntity
  8
LAYER1
  6
CONTINUOUS
100
AcDbCircle
 10
0.0
 20
0.0
 30
0.0
 40
3.057499999976028
100
AcDbArc
 50
303.7499999999999
 51
304.0620889955912
  0
ARC
  5
966
330
8AE
100
AcDbEntity
  8
LAYER1
  6
CONTINUOUS
100
AcDbCircle
 10
0.0
 20
0.0
 30
0.0
 40
3.057499999976028
100
AcDbArc
 50
310.9379110044086
 51
311.2499999999999
  0
LINE
  5
967
330
8AE
100
AcDbEntity
  8
LAYER1
  6
CONTINUOUS
100
AcDbLine
 10
2.26632830673922
 20
-2.06551915195296
 30
0.0
 11
2.28773532476037
 21
-2.028441109250395
 31
0.0
  0
ARC
  5
968
330
8AE
100
AcDbEntity
  8
LAYER1
  6
CONTINUOUS
100
AcDbCircle
 10
2.280184713254273
 20
-2.073519152000878
 30
0.0
 40
0.0160000000000008
100
AcDbArc
 50
149.9999999999982
 51
208.5000000000007
  0
ARC
  5
969
330
8AE
100
AcDbEntity
  8
LAYER1
  6
CONTINUOUS
100
AcDbCircle
 10
0.0
 20
0.0
 30
0.0
 40
3.105000000001785
100
AcDbArc
 50
312.9900319482759
 51
317.0099680517239
  0
LINE
  5
96A
330
8AE
100
AcDbEntity
  8
LAYER1
  6
CONTINUOUS
100
AcDbLine
 10
2.273514645556968
 20
-2.094766231970852
 30
0.0
 11
2.266123639441736
 21
-2.081153692155537
 31
0.0
  0
ARC
  5
96B
330
8AE
100
AcDbEntity
  8
LAYER1
  6
CONTINUOUS
100
AcDbCircle
 10
2.255938303303729
 20
-2.104309407176043
 30
0.0
 40
0.02
100
AcDbArc
 50
319.8328386724065
 51
28.49999999999809
  0
ARC
  5
96C
330
8AE
100
AcDbEntity
  8
LAYER1
  6
CONTINUOUS
100
AcDbCircle
 10
2.104309407176042
 20
-2.25593830330373
 30
0.0
 40
0.02
100
AcDbArc
 50
241.4999999999991
 51
310.1671613275917
  0
LINE
  5
96D
330
8AE
100
AcDbEntity
  8
LAYER1
  6
CONTINUOUS
100
AcDbLine
 10
2.09476623197085
 20
-2.273514645556969
 30
0.0
 11
2.081153692155536
 21
-2.266123639441737
 31
0.0
  0
ARC
  5
96E
330
8AE
100
AcDbEntity
  8
LAYER1
  6
CONTINUOUS
100
AcDbCircle
 10
2.073519152000877
 20
-2.280184713254274
 30
0.0
 40
0.0160000000000008
100
AcDbArc
 50
61.4999999999979
 51
119.9999999999997
  0
LINE
  5
96F
330
8AE
100
AcDbEntity
  8
LAYER1
  6
CONTINUOUS
100
AcDbLine
 10
2.065519151952959
 20
-2.266328306739221
 30
0.0
 11
2.028441109250394
 21
-2.287735324760371
 31
0.0
  0
ARC
  5
970
330
8AE
100
AcDbEntity
  8
LAYER1
  6
CONTINUOUS
100
AcDbCircle
 10
0.0
 20
0.0
 30
0.0
 40
3.057499999976028
100
AcDbArc
 50
311.25
 51
311.5620889955913
  0
ARC
  5
971
330
8AE
100
AcDbEntity
  8
LAYER1
  6
CONTINUOUS
100
AcDbCircle
 10
0.0
 20
0.0
 30
0.0
 40
3.057499999976028
100
AcDbArc
 50
318.4379110044086
 51
318.7499999999999
  0
LINE
  5
972
330
8AE
100
AcDbEntity
  8
LAYER1
  6
CONTINUOUS
100
AcDbLine
 10
2.516543903764619
 20
-1.752033145073765
 30
0.0
 11
2.532928126050086
 21
-1.712478133617422
 31
0.0
  0
ARC
  5
973
330
8AE
100
AcDbEntity
  8
LAYER1
  6
CONTINUOUS
100
AcDbCircle
 10
2.531325976345089
 20
-1.758156080032001
 30
0.0
 40
0.0160000000000008
100
AcDbArc
 50
157.4999999999998
 51
215.9999999999996
  0
ARC
  5
974
330
8AE
100
AcDbEntity
  8
LAYER1
  6
CONTINUOUS
100
AcDbCircle
 10
0.0
 20
0.0
 30
0.0
 40
3.105000000001785
100
AcDbArc
 50
320.4900319482759
 51
324.5099680517239
  0
LINE
  5
975
330
8AE
100
AcDbEntity
  8
LAYER1
  6
CONTINUOUS
100
AcDbLine
 10
2.527486272445857
 20
-1.780092006825809
 30
0.0
 11
2.518381704423991
 21
-1.767560644060566
 31
0.0
  0
ARC
  5
976
330
8AE
100
AcDbEntity
  8
LAYER1
  6
CONTINUOUS
100
AcDbCircle
 10
2.511305932558358
 20
-1.791847711871658
 30
0.0
 40
0.02
100
AcDbArc
 50
327.3328386724069
 51
36.00000000000055
  0
ARC
  5
977
330
8AE
100
AcDbEntity
  8
LAYER1
  6
CONTINUOUS
100
AcDbCircle
 10
2.380765785098856
 20
-1.961970944215312
 30
0.0
 40
0.02
100
AcDbArc
 50
249.0000000000006
 51
317.6671613275917
  0
LINE
  5
978
330
8AE
100
AcDbEntity
  8
LAYER1
  6
CONTINUOUS
100
AcDbLine
 10
2.373598426107951
 20
-1.980642552745257
 30
0.0
 11
2.359137623572915
 21
-1.975091570700464
 31
0.0
  0
ARC
  5
979
330
8AE
100
AcDbEntity
  8
LAYER1
  6
CONTINUOUS
100
AcDbCircle
 10
2.353403736390901
 20
-1.99002885753304
 30
0.0
 40
0.0160000000000008
100
AcDbArc
 50
68.99999999999929
 51
127.5000000000007
  0
LINE
  5
97A
330
8AE
100
AcDbEntity
  8
LAYER1
  6
CONTINUOUS
100
AcDbLine
 10
2.34366355347214
 20
-1.977335204040599
 30
0.0
 11
2.30969689511397
 21
-2.003398737783943
 31
0.0
  0
ARC
  5
97B
330
8AE
100
AcDbEntity
  8
LAYER1
  6
CONTINUOUS
100
AcDbCircle
 10
0.0
 20
0.0
 30
0.0
 40
3.057499999976028
100
AcDbArc
 50
318.75
 51
319.0620889955913
  0
ARC
  5
97C
330
8AE
100
AcDbEntity
  8
LAYER1
  6
CONTINUOUS
100
AcDbCircle
 10
0.0
 20
0.0
 30
0.0
 40
3.057499999976028
100
AcDbArc
 50
325.9379110044086
 51
326.2499999999999
  0
LINE
  5
97D
330
8AE
100
AcDbEntity
  8
LAYER1
  6
CONTINUOUS
100
AcDbLine
 10
2.723700736878819
 20
-1.408569365327001
 30
0.0
 11
2.734781824842735
 21
-1.367214182329618
 31
0.0
  0
ARC
  5
97E
330
8AE
100
AcDbEntity
  8
LAYER1
  6
CONTINUOUS
100
AcDbCircle
 10
2.739155550164492
 20
-1.41271047008082
 30
0.0
 40
0.0160000000000008
100
AcDbArc
 50
164.9999999999998
 51
223.4999999999996
  0
ARC
  5
97F
330
8AE
100
AcDbEntity
  8
LAYER1
  6
CONTINUOUS
100
AcDbCircle
 10
0.0
 20
0.0
 30
0.0
 40
3.105000000001785
100
AcDbArc
 50
327.9900319482759
 51
332.0099680517239
  0
LINE
  5
980
330
8AE
100
AcDbEntity
  8
LAYER1
  6
CONTINUOUS
100
AcDbLine
 10
2.738211908461615
 20
-1.434959913909233
 30
0.0
 11
2.727549560216231
 21
-1.423724143285324
 31
0.0
  0
ARC
  5
981
330
8AE
100
AcDbEntity
  8
LAYER1
  6
CONTINUOUS
100
AcDbCircle
 10
2.723704421041368
 20
-1.448727005423107
 30
0.0
 40
0.02
100
AcDbArc
 50
334.8328386724079
 51
43.49999999999938
  0
ARC
  5
982
330
8AE
100
AcDbEntity
  8
LAYER1
  6
CONTINUOUS
100
AcDbCircle
 10
2.616486600365651
 20
-1.634433718310259
 30
0.0
 40
0.02
100
AcDbArc
 50
256.499999999999
 51
325.1671613275911
  0
LINE
  5
983
330
8AE
100
AcDbEntity
  8
LAYER1
  6
CONTINUOUS
100
AcDbLine
 10
2.611817693088533
 20
-1.653881116718213
 30
0.0
 11
2.596756056174442
 21
-1.65026513758567
 31
0.0
  0
ARC
  5
984
330
8AE
100
AcDbEntity
  8
LAYER1
  6
CONTINUOUS
100
AcDbCircle
 10
2.593020930364491
 20
-1.665823056319181
 30
0.0
 40
0.0160000000000008
100
AcDbArc
 50
76.49999999999838
 51
134.9999999999994
  0
LINE
  5
985
330
8AE
100
AcDbEntity
  8
LAYER1
  6
CONTINUOUS
100
AcDbLine
 10
2.581707221805115
 20
-1.654509347779954
 30
0.0
 11
2.551433126733186
 21
-1.684783442956966
 31
0.0
  0
ARC
  5
986
330
8AE
100
AcDbEntity
  8
LAYER1
  6
CONTINUOUS
100
AcDbCircle
 10
0.0
 20
0.0
 30
0.0
 40
3.057499999976028
100
AcDbArc
 50
326.2499999999999
 51
326.5620889955912
  0
ARC
  5
987
330
8AE
100
AcDbEntity
  8
LAYER1
  6
CONTINUOUS
100
AcDbCircle
 10
0.0
 20
0.0
 30
0.0
 40
3.057499999976028
100
AcDbArc
 50
333.4379110044086
 51
333.7499999999999
  0
LINE
  5
988
330
8AE
100
AcDbEntity
  8
LAYER1
  6
CONTINUOUS
100
AcDbLine
 10
2.884254295232515
 20
-1.041004573210283
 30
0.0
 11
2.889842648387559
 21
-0.9985568173187696
 31
0.0
  0
ARC
  5
989
330
8AE
100
AcDbEntity
  8
LAYER1
  6
CONTINUOUS
100
AcDbCircle
 10
2.900117413083186
 20
-1.043092992309218
 30
0.0
 40
0.0160000000000008
100
AcDbArc
 50
172.4999999999989
 51
231.0000000000017
  0
ARC
  5
98A
330
8AE
100
AcDbEntity
  8
LAYER1
  6
CONTINUOUS
100
AcDbCircle
 10
0.0
 20
0.0
 30
0.0
 40
3.105000000001785
100
AcDbArc
 50
335.4900319482758
 51
339.5099680517239
  0
LINE
  5
98B
330
8AE
100
AcDbEntity
  8
LAYER1
  6
CONTINUOUS
100
AcDbLine
 10
2.902085979547827
 20
-1.065275259019619
 30
0.0
 11
2.890048286813568
 21
-1.055527327687564
 31
0.0
  0
ARC
  5
98C
330
8AE
100
AcDbEntity
  8
LAYER1
  6
CONTINUOUS
100
AcDbCircle
 10
2.88949957172683
 20
-1.080818178248758
 30
0.0
 40
0.02
100
AcDbArc
 50
342.3328386724073
 51
51.00000000000003
  0
ARC
  5
98D
330
8AE
100
AcDbEntity
  8
LAYER1
  6
CONTINUOUS
100
AcDbCircle
 10
2.807438604473053
 20
-1.27893087833428
 30
0.0
 40
0.02
100
AcDbArc
 50
264.0000000000002
 51
332.6671613275927
  0
LINE
  5
98E
330
8AE
100
AcDbEntity
  8
LAYER1
  6
CONTINUOUS
100
AcDbLine
 10
2.805348035207701
 20
-1.298821316241646
 30
0.0
 11
2.789943272698029
 21
-1.297202210426848
 31
0.0
  0
ARC
  5
98F
330
8AE
100
AcDbEntity
  8
LAYER1
  6
CONTINUOUS
100
AcDbCircle
 10
2.788270817298323
 20
-1.313114560758295
 30
0.0
 40
0.0160000000000008
100
AcDbArc
 50
83.99999999999794
 51
142.4999999999993
  0
LINE
  5
990
330
8AE
100
AcDbEntity
  8
LAYER1
  6
CONTINUOUS
100
AcDbLine
 10
2.775577163788536
 20
-1.30337437786214
 30
0.0
 11
2.749513630163092
 21
-1.337341036310777
 31
0.0
  0
ARC
  5
991
330
8AE
100
AcDbEntity
  8
LAYER1
  6
CONTINUOUS
100
AcDbCircle
 10
0.0
 20
0.0
 30
0.0
 40
3.057499999976028
100
AcDbArc
 50
333.7499999999999
 51
334.0620889955913
  0
ARC
  5
992
330
8AE
100
AcDbEntity
  8
LAYER1
  6
CONTINUOUS
100
AcDbCircle
 10
0.0
 20
0.0
 30
0.0
 40
3.057499999976028
100
AcDbArc
 50
340.9379110044086
 51
341.2499999999999
  0
LINE
  5
993
330
8AE
100
AcDbEntity
  8
LAYER1
  6
CONTINUOUS
100
AcDbLine
 10
2.995457462928416
 20
-0.6556279042249435
 30
0.0
 11
2.995457463002721
 21
-0.6128138683113438
 31
0.0
  0
ARC
  5
994
330
8AE
100
AcDbEntity
  8
LAYER1
  6
CONTINUOUS
100
AcDbCircle
 10
3.011457462999575
 20
-0.6556279042391912
 30
0.0
 40
0.0160000000000008
100
AcDbArc
 50
179.9999999999992
 51
238.4999999999999
  0
ARC
  5
995
330
8AE
100
AcDbEntity
  8
LAYER1
  6
CONTINUOUS
100
AcDbCircle
 10
0.0
 20
0.0
 30
0.0
 40
3.105000000001785
100
AcDbArc
 50
342.9900319482759
 51
347.0099680517239
  0
LINE
  5
996
330
8AE
100
AcDbEntity
  8
LAYER1
  6
CONTINUOUS
100
AcDbLine
 10
3.016304554913734
 20
-0.67736344909808
 30
0.0
 11
3.00309748595076
 21
-0.669270146865607
 31
0.0
  0
ARC
  5
997
330
8AE
100
AcDbEntity
  8
LAYER1
  6
CONTINUOUS
100
AcDbCircle
 10
3.005854583619415
 20
-0.6944162523851615
 30
0.0
 40
0.02
100
AcDbArc
 50
349.8328386724075
 51
58.49999999999958
  0
ARC
  5
998
330
8AE
100
AcDbEntity
  8
LAYER1
  6
CONTINUOUS
100
AcDbCircle
 10
2.950354555688889
 20
-0.9015451764433732
 30
0.0
 40
0.02
100
AcDbArc
 50
271.5000000000009
 51
340.1671613275919
  0
LINE
  5
999
330
8AE
100
AcDbEntity
  8
LAYER1
  6
CONTINUOUS
100
AcDbLine
 10
2.950878094655048
 20
-0.9215383229428843
 30
0.0
 11
2.935393786307343
 21
-0.9219437937952243
 31
0.0
  0
ARC
  5
99A
330
8AE
100
AcDbEntity
  8
LAYER1
  6
CONTINUOUS
100
AcDbCircle
 10
2.935812617493463
 20
-0.9379383109986987
 30
0.0
 40
0.0160000000000008
100
AcDbArc
 50
91.50000000000108
 51
150.0000000000014
  0
LINE
  5
99B
330
8AE
100
AcDbEntity
  8
LAYER1
  6
CONTINUOUS
100
AcDbLine
 10
2.921956210964163
 20
-0.9299383109754579
 30
0.0
 11
2.900549193071713
 21
-0.9670163537523269
 31
0.0
  0
ARC
  5
99C
330
8AE
100
AcDbEntity
  8
LAYER1
  6
CONTINUOUS
100
AcDbCircle
 10
0.0
 20
0.0
 30
0.0
 40
3.057499999976028
100
AcDbArc
 50
341.2499999999999
 51
341.5620889955912
  0
ARC
  5
99D
330
8AE
100
AcDbEntity
  8
LAYER1
  6
CONTINUOUS
100
AcDbCircle
 10
0.0
 20
0.0
 30
0.0
 40
3.057499999976028
100
AcDbArc
 50
348.4379110044086
 51
348.7499999999999
  0
LINE
  5
99E
330
8AE
100
AcDbEntity
  8
LAYER1
  6
CONTINUOUS
100
AcDbLine
 10
3.055407522935904
 20
-0.2590332600239182
 30
0.0
 11
3.049819169928198
 21
-0.2165855041130073
 31
0.0
  0
ARC
  5
99F
330
8AE
100
AcDbEntity
  8
LAYER1
  6
CONTINUOUS
100
AcDbCircle
 10
3.071270640790295
 20
-0.256944840953235
 30
0.0
 40
0.0160000000000008
100
AcDbArc
 50
187.4999999999991
 51
245.9999999999992
  0
ARC
  5
9A0
330
8AE
100
AcDbEntity
  8
LAYER1
  6
CONTINUOUS
100
AcDbCircle
 10
0.0
 20
0.0
 30
0.0
 40
3.105000000001785
100
AcDbArc
 50
350.4900319482759
 51
354.5099680517239
  0
LINE
  5
9A1
330
8AE
100
AcDbEntity
  8
LAYER1
  6
CONTINUOUS
100
AcDbLine
 10
3.078913323067453
 20
-0.2778617627618445
 30
0.0
 11
3.064762854487412
 21
-0.2715615682740385
 31
0.0
  0
ARC
  5
9A2
330
8AE
100
AcDbEntity
  8
LAYER1
  6
CONTINUOUS
100
AcDbCircle
 10
3.070778590205937
 20
-0.2961326719146963
 30
0.0
 40
0.02
100
AcDbArc
 50
357.3328386724079
 51
66.0
  0
ARC
  5
9A3
330
8AE
100
AcDbEntity
  8
LAYER1
  6
CONTINUOUS
100
AcDbCircle
 10
3.04278912246407
 20
-0.5087337866279743
 30
0.0
 40
0.02
100
AcDbArc
 50
279.0000000000002
 51
347.6671613275919
  0
LINE
  5
9A4
330
8AE
100
AcDbEntity
  8
LAYER1
  6
CONTINUOUS
100
AcDbLine
 10
3.045917811764875
 20
-0.5284875534398771
 30
0.0
 11
3.030618898388027
 21
-0.5309106632406535
 31
0.0
  0
ARC
  5
9A5
330
8AE
100
AcDbEntity
  8
LAYER1
  6
CONTINUOUS
100
AcDbCircle
 10
3.033121849842257
 20
-0.546713676692286
 30
0.0
 40
0.0160000000000008
100
AcDbArc
 50
98.99999999999842
 51
157.5000000000002
  0
LINE
  5
9A6
330
8AE
100
AcDbEntity
  8
LAYER1
  6
CONTINUOUS
100
AcDbLine
 10
3.018339777250881
 20
-0.5405907417603761
 30
0.0
 11
3.001955555102712
 21
-0.5801457532735892
 31
0.0
  0
ARC
  5
9A7
330
8AE
100
AcDbEntity
  8
LAYER1
  6
CONTINUOUS
100
AcDbCircle
 10
0.0
 20
0.0
 30
0.0
 40
3.057499999976028
100
AcDbArc
 50
348.7499999999999
 51
349.0620889955912
  0
ARC
  5
9A8
330
8AE
100
AcDbEntity
  8
LAYER1
  6
CONTINUOUS
100
AcDbCircle
 10
0.0
 20
0.0
 30
0.0
 40
3.057499999976028
100
AcDbArc
 50
355.9379110044085
 51
356.2499999999999
  0
LINE
  5
9A9
330
8AE
100
AcDbEntity
  8
LAYER1
  6
CONTINUOUS
100
AcDbLine
 10
3.063078713106953
 20
0.1419935150737038
 30
0.0
 11
3.051997625286583
 21
0.183348698109549
 31
0.0
  0
ARC
  5
9AA
330
8AE
100
AcDbEntity
  8
LAYER1
  6
CONTINUOUS
100
AcDbCircle
 10
3.0785335264
 20
0.1461346197999994
 30
0.0
 40
0.0160000000000008
100
AcDbArc
 50
194.999999999999
 51
253.5000000000004
  0
ARC
  5
9AB
330
8AE
100
AcDbEntity
  8
LAYER1
  6
CONTINUOUS
100
AcDbCircle
 10
0.0
 20
0.0
 30
0.0
 40
3.105000000001785
100
AcDbArc
 50
357.9900319482759
 51
2.009968051723899
  0
LINE
  5
9AC
330
8AE
100
AcDbEntity
  8
LAYER1
  6
CONTINUOUS
100
AcDbLine
 10
3.088841030627444
 20
0.1263942153730809
 30
0.0
 11
3.073989280870992
 21
0.1307935040417895
 31
0.0
  0
ARC
  5
9AD
330
8AE
100
AcDbEntity
  8
LAYER1
  6
CONTINUOUS
100
AcDbCircle
 10
3.083160723733365
 20
0.1072178206757172
 30
0.0
 40
0.02
100
AcDbArc
 50
4.832838672407709
 51
73.49999999999984
  0
ARC
  5
9AE
330
8AE
100
AcDbEntity
  8
LAYER1
  6
CONTINUOUS
100
AcDbCircle
 10
3.083160723733365
 20
-0.1072178206757183
 30
0.0
 40
0.02
100
AcDbArc
 50
286.5000000000001
 51
355.1671613275922
  0
LINE
  5
9AF
330
8AE
100
AcDbEntity
  8
LAYER1
  6
CONTINUOUS
100
AcDbLine
 10
3.088841030627444
 20
-0.1263942153730821
 30
0.0
 11
3.073989280870992
 21
-0.1307935040417906
 31
0.0
  0
ARC
  5
9B0
330
8AE
100
AcDbEntity
  8
LAYER1
  6
CONTINUOUS
100
AcDbCircle
 10
3.0785335264
 20
-0.1461346198000006
 30
0.0
 40
0.0160000000000008
100
AcDbArc
 50
106.4999999999996
 51
165.000000000001
  0
LINE
  5
9B1
330
8AE
100
AcDbEntity
  8
LAYER1
  6
CONTINUOUS
100
AcDbLine
 10
3.063078713106953
 20
-0.141993515073705
 30
0.0
 11
3.051997625286583
 21
-0.1833486981095501
 31
0.0
  0
ARC
  5
9B2
330
8AE
100
AcDbEntity
  8
LAYER1
  6
CONTINUOUS
100
AcDbCircle
 10
0.0
 20
0.0
 30
0.0
 40
3.057499999976028
100
AcDbArc
 50
356.25
 51
356.5620889955913
  0
ARC
  5
9B3
330
8AE
100
AcDbEntity
  8
LAYER1
  6
CONTINUOUS
100
AcDbCircle
 10
0.0
 20
0.0
 30
0.0
 40
3.057499999976028
100
AcDbArc
 50
3.43791100440859
 51
3.749999999999905
  0
LINE
  5
9B4
330
8AE
100
AcDbEntity
  8
LAYER1
  6
CONTINUOUS
100
AcDbLine
 10
3.018339777250882
 20
0.5405907417603742
 30
0.0
 11
3.001955555102712
 21
0.5801457532735875
 31
0.0
  0
ARC
  5
9B5
330
8AE
100
AcDbEntity
  8
LAYER1
  6
CONTINUOUS
100
AcDbCircle
 10
3.033121849842257
 20
0.5467136766922842
 30
0.0
 40
0.0160000000000008
100
AcDbArc
 50
202.4999999999994
 51
260.9999999999999
  0
ARC
  5
9B6
330
8AE
100
AcDbEntity
  8
LAYER1
  6
CONTINUOUS
100
AcDbCircle
 10
0.0
 20
0.0
 30
0.0
 40
3.105000000001785
100
AcDbArc
 50
5.490031948275859
 51
9.509968051723888
  0
LINE
  5
9B7
330
8AE
100
AcDbEntity
  8
LAYER1
  6
CONTINUOUS
100
AcDbLine
 10
3.045917811764875
 20
0.5284875534398753
 30
0.0
 11
3.030618898388027
 21
0.5309106632406517
 31
0.0
  0
ARC
  5
9B8
330
8AE
100
AcDbEntity
  8
LAYER1
  6
CONTINUOUS
100
AcDbCircle
 10
3.04278912246407
 20
0.5087337866279726
 30
0.0
 40
0.02
100
AcDbArc
 50
12.3328386724081
 51
80.99999999999986
  0
ARC
  5
9B9
330
8AE
100
AcDbEntity
  8
LAYER1
  6
CONTINUOUS
100
AcDbCircle
 10
3.070778590205937
 20
0.2961326719146946
 30
0.0
 40
0.02
100
AcDbArc
 50
294.0000000000001
 51
2.667161327592127
  0
LINE
  5
9BA
330
8AE
100
AcDbEntity
  8
LAYER1
  6
CONTINUOUS
100
AcDbLine
 10
3.078913323067454
 20
0.2778617627618427
 30
0.0
 11
3.064762854487413
 21
0.2715615682740368
 31
0.0
  0
ARC
  5
9BB
330
8AE
100
AcDbEntity
  8
LAYER1
  6
CONTINUOUS
100
AcDbCircle
 10
3.071270640790295
 20
0.2569448409532332
 30
0.0
 40
0.0160000000000008
100
AcDbArc
 50
114.0000000000008
 51
172.5000000000007
  0
LINE
  5
9BC
330
8AE
100
AcDbEntity
  8
LAYER1
  6
CONTINUOUS
100
AcDbLine
 10
3.055407522935904
 20
0.2590332600239164
 30
0.0
 11
3.049819169928198
 21
0.2165855041130056
 31
0.0
  0
ARC
  5
9BD
330
8AE
100
AcDbEntity
  8
LAYER1
  6
CONTINUOUS
100
AcDbCircle
 10
0.0
 20
0.0
 30
0.0
 40
3.057499999976028
100
AcDbArc
 50
3.749999999999956
 51
4.062088995591271
  0
ARC
  5
9BE
330
8AE
100
AcDbEntity
  8
LAYER1
  6
CONTINUOUS
100
AcDbCircle
 10
0.0
 20
0.0
 30
0.0
 40
3.057499999976028
100
AcDbArc
 50
10.93791100440858
 51
11.2499999999999
  0
LINE
  5
9BF
330
8AE
100
AcDbEntity
  8
LAYER1
  6
CONTINUOUS
100
AcDbLine
 10
2.921956210964163
 20
0.9299383109754561
 30
0.0
 11
2.900549193071713
 21
0.9670163537523252
 31
0.0
  0
ARC
  5
9C0
330
8AE
100
AcDbEntity
  8
LAYER1
  6
CONTINUOUS
100
AcDbCircle
 10
2.935812617493464
 20
0.937938310998697
 30
0.0
 40
0.0160000000000008
100
AcDbArc
 50
209.9999999999987
 51
268.5000000000005
  0
ARC
  5
9C1
330
8AE
100
AcDbEntity
  8
LAYER1
  6
CONTINUOUS
100
AcDbCircle
 10
0.0
 20
0.0
 30
0.0
 40
3.105000000001785
100
AcDbArc
 50
12.99003194827587
 51
17.00996805172389
  0
LINE
  5
9C2
330
8AE
100
AcDbEntity
  8
LAYER1
  6
CONTINUOUS
100
AcDbLine
 10
2.950878094655048
 20
0.9215383229428826
 30
0.0
 11
2.935393786307343
 21
0.9219437937952224
 31
0.0
  0
ARC
  5
9C3
330
8AE
100
AcDbEntity
  8
LAYER1
  6
CONTINUOUS
100
AcDbCircle
 10
2.95035455568889
 20
0.9015451764433715
 30
0.0
 40
0.02
100
AcDbArc
 50
19.83283867240805
 51
88.49999999999916
  0
ARC
  5
9C4
330
8AE
100
AcDbEntity
  8
LAYER1
  6
CONTINUOUS
100
AcDbCircle
 10
3.005854583619415
 20
0.6944162523851598
 30
0.0
 40
0.02
100
AcDbArc
 50
301.500000000002
 51
10.16716132759183
  0
LINE
  5
9C5
330
8AE
100
AcDbEntity
  8
LAYER1
  6
CONTINUOUS
100
AcDbLine
 10
3.016304554913735
 20
0.6773634490980782
 30
0.0
 11
3.00309748595076
 21
0.6692701468656052
 31
0.0
  0
ARC
  5
9C6
330
8AE
100
AcDbEntity
  8
LAYER1
  6
CONTINUOUS
100
AcDbCircle
 10
3.011457462999576
 20
0.6556279042391893
 30
0.0
 40
0.0160000000000008
100
AcDbArc
 50
121.5000000000001
 51
180.0000000000004
  0
LINE
  5
9C7
330
8AE
100
AcDbEntity
  8
LAYER1
  6
CONTINUOUS
100
AcDbLine
 10
2.995457462928416
 20
0.6556279042249418
 30
0.0
 11
2.995457463002721
 21
0.612813868311342
 31
0.0
  0
ARC
  5
9C8
330
8AE
100
AcDbEntity
  8
LAYER1
  6
CONTINUOUS
100
AcDbCircle
 10
0.0
 20
0.0
 30
0.0
 40
3.057499999976028
100
AcDbArc
 50
11.24999999999996
 51
11.56208899559128
  0
ARC
  5
9C9
330
8AE
100
AcDbEntity
  8
LAYER1
  6
CONTINUOUS
100
AcDbCircle
 10
0.0
 20
0.0
 30
0.0
 40
3.057499999976028
100
AcDbArc
 50
18.43791100440859
 51
18.7499999999999
  0
LINE
  5
9CA
330
8AE
100
AcDbEntity
  8
LAYER1
  6
CONTINUOUS
100
AcDbLine
 10
2.775577163788537
 20
1.303374377862138
 30
0.0
 11
2.749513630163093
 21
1.337341036310775
 31
0.0
  0
ARC
  5
9CB
330
8AE
100
AcDbEntity
  8
LAYER1
  6
CONTINUOUS
100
AcDbCircle
 10
2.788270817298324
 20
1.313114560758293
 30
0.0
 40
0.0160000000000008
100
AcDbArc
 50
217.4999999999991
 51
276.0000000000005
  0
ARC
  5
9CC
330
8AE
100
AcDbEntity
  8
LAYER1
  6
CONTINUOUS
100
AcDbCircle
 10
0.0
 20
0.0
 30
0.0
 40
3.105000000001785
100
AcDbArc
 50
20.49003194827586
 51
24.50996805172389
  0
LINE
  5
9CD
330
8AE
100
AcDbEntity
  8
LAYER1
  6
CONTINUOUS
100
AcDbLine
 10
2.805348035207702
 20
1.298821316241644
 30
0.0
 11
2.78994327269803
 21
1.297202210426846
 31
0.0
  0
ARC
  5
9CE
330
8AE
100
AcDbEntity
  8
LAYER1
  6
CONTINUOUS
100
AcDbCircle
 10
2.807438604473054
 20
1.278930878334279
 30
0.0
 40
0.02
100
AcDbArc
 50
27.33283867240777
 51
95.99999999999984
  0
ARC
  5
9CF
330
8AE
100
AcDbEntity
  8
LAYER1
  6
CONTINUOUS
100
AcDbCircle
 10
2.889499571726831
 20
1.080818178248756
 30
0.0
 40
0.02
100
AcDbArc
 50
309.0000000000014
 51
17.66716132759276
  0
LINE
  5
9D0
330
8AE
100
AcDbEntity
  8
LAYER1
  6
CONTINUOUS
100
AcDbLine
 10
2.902085979547828
 20
1.065275259019617
 30
0.0
 11
2.890048286813568
 21
1.055527327687562
 31
0.0
  0
ARC
  5
9D1
330
8AE
100
AcDbEntity
  8
LAYER1
  6
CONTINUOUS
100
AcDbCircle
 10
2.900117413083187
 20
1.043092992309216
 30
0.0
 40
0.0160000000000008
100
AcDbArc
 50
129.0000000000005
 51
187.5000000000011
  0
LINE
  5
9D2
330
8AE
100
AcDbEntity
  8
LAYER1
  6
CONTINUOUS
100
AcDbLine
 10
2.884254295232515
 20
1.041004573210281
 30
0.0
 11
2.889842648387559
 21
0.9985568173187678
 31
0.0
  0
ARC
  5
9D3
330
8AE
100
AcDbEntity
  8
LAYER1
  6
CONTINUOUS
100
AcDbCircle
 10
0.0
 20
0.0
 30
0.0
 40
3.057499999976028
100
AcDbArc
 50
18.74999999999996
 51
19.06208899559127
  0
ARC
  5
9D4
330
8AE
100
AcDbEntity
  8
LAYER1
  6
CONTINUOUS
100
AcDbCircle
 10
0.0
 20
0.0
 30
0.0
 40
3.057499999976028
100
AcDbArc
 50
25.93791100440858
 51
26.24999999999989
  0
LINE
  5
9D5
330
8AE
100
AcDbEntity
  8
LAYER1
  6
CONTINUOUS
100
AcDbLine
 10
2.581707221805116
 20
1.654509347779952
 30
0.0
 11
2.551433126733186
 21
1.684783442956964
 31
0.0
  0
ARC
  5
9D6
330
8AE
100
AcDbEntity
  8
LAYER1
  6
CONTINUOUS
100
AcDbCircle
 10
2.593020930364492
 20
1.66582305631918
 30
0.0
 40
0.0160000000000008
100
AcDbArc
 50
225.0000000000006
 51
283.5000000000016
  0
ARC
  5
9D7
330
8AE
100
AcDbEntity
  8
LAYER1
  6
CONTINUOUS
100
AcDbCircle
 10
0.0
 20
0.0
 30
0.0
 40
3.105000000001785
100
AcDbArc
 50
27.99003194827586
 51
32.0099680517239
  0
LINE
  5
9D8
330
8AE
100
AcDbEntity
  8
LAYER1
  6
CONTINUOUS
100
AcDbLine
 10
2.611817693088534
 20
1.653881116718211
 30
0.0
 11
2.596756056174442
 21
1.650265137585668
 31
0.0
  0
ARC
  5
9D9
330
8AE
100
AcDbEntity
  8
LAYER1
  6
CONTINUOUS
100
AcDbCircle
 10
2.616486600365652
 20
1.634433718310258
 30
0.0
 40
0.02
100
AcDbArc
 50
34.83283867240883
 51
103.500000000001
  0
ARC
  5
9DA
330
8AE
100
AcDbEntity
  8
LAYER1
  6
CONTINUOUS
100
AcDbCircle
 10
2.723704421041369
 20
1.448727005423106
 30
0.0
 40
0.02
100
AcDbArc
 50
316.4999999999993
 51
25.16716132759212
  0
LINE
  5
9DB
330
8AE
100
AcDbEntity
  8
LAYER1
  6
CONTINUOUS
100
AcDbLine
 10
2.738211908461615
 20
1.434959913909231
 30
0.0
 11
2.727549560216232
 21
1.423724143285322
 31
0.0
  0
ARC
  5
9DC
330
8AE
100
AcDbEntity
  8
LAYER1
  6
CONTINUOUS
100
AcDbCircle
 10
2.739155550164492
 20
1.412710470080819
 30
0.0
 40
0.0160000000000008
100
AcDbArc
 50
136.5000000000004
 51
195.0000000000002
  0
LINE
  5
9DD
330
8AE
100
AcDbEntity
  8
LAYER1
  6
CONTINUOUS
100
AcDbLine
 10
2.72370073687882
 20
1.408569365326999
 30
0.0
 11
2.734781824842736
 21
1.367214182329617
 31
0.0
  0
ARC
  5
9DE
330
8AE
100
AcDbEntity
  8
LAYER1
  6
CONTINUOUS
100
AcDbCircle
 10
0.0
 20
0.0
 30
0.0
 40
3.057499999976028
100
AcDbArc
 50
26.24999999999996
 51
26.56208899559127
  0
ARC
  5
9DF
330
8AE
100
AcDbEntity
  8
LAYER1
  6
CONTINUOUS
100
AcDbCircle
 10
0.0
 20
0.0
 30
0.0
 40
3.057499999976028
100
AcDbArc
 50
33.43791100440858
 51
33.74999999999989
  0
LINE
  5
9E0
330
8AE
100
AcDbEntity
  8
LAYER1
  6
CONTINUOUS
100
AcDbLine
 10
2.34366355347214
 20
1.977335204040598
 30
0.0
 11
2.309696895113972
 21
2.003398737783941
 31
0.0
  0
ARC
  5
9E1
330
8AE
100
AcDbEntity
  8
LAYER1
  6
CONTINUOUS
100
AcDbCircle
 10
2.353403736390902
 20
1.990028857533038
 30
0.0
 40
0.0160000000000008
100
AcDbArc
 50
232.5000000000015
 51
291.0000000000024
  0
ARC
  5
9E2
330
8AE
100
AcDbEntity
  8
LAYER1
  6
CONTINUOUS
100
AcDbCircle
 10
0.0
 20
0.0
 30
0.0
 40
3.105000000001785
100
AcDbArc
 50
35.49003194827585
 51
39.50996805172389
  0
LINE
  5
9E3
330
8AE
100
AcDbEntity
  8
LAYER1
  6
CONTINUOUS
100
AcDbLine
 10
2.373598426107952
 20
1.980642552745255
 30
0.0
 11
2.359137623572916
 21
1.975091570700463
 31
0.0
  0
ARC
  5
9E4
330
8AE
100
AcDbEntity
  8
LAYER1
  6
CONTINUOUS
100
AcDbCircle
 10
2.380765785098858
 20
1.961970944215311
 30
0.0
 40
0.02
100
AcDbArc
 50
42.33283867240785
 51
110.9999999999994
  0
ARC
  5
9E5
330
8AE
100
AcDbEntity
  8
LAYER1
  6
CONTINUOUS
100
AcDbCircle
 10
2.511305932558359
 20
1.791847711871656
 30
0.0
 40
0.02
100
AcDbArc
 50
324.0000000000012
 51
32.66716132759183
  0
LINE
  5
9E6
330
8AE
100
AcDbEntity
  8
LAYER1
  6
CONTINUOUS
100
AcDbLine
 10
2.527486272445858
 20
1.780092006825807
 30
0.0
 11
2.518381704423992
 21
1.767560644060564
 31
0.0
  0
ARC
  5
9E7
330
8AE
100
AcDbEntity
  8
LAYER1
  6
CONTINUOUS
100
AcDbCircle
 10
2.53132597634509
 20
1.758156080031999
 30
0.0
 40
0.0160000000000008
100
AcDbArc
 50
144.0000000000003
 51
202.5000000000009
  0
LINE
  5
9E8
330
8AE
100
AcDbEntity
  8
LAYER1
  6
CONTINUOUS
100
AcDbLine
 10
2.51654390376462
 20
1.752033145073763
 30
0.0
 11
2.532928126050087
 21
1.71247813361742
 31
0.0
  0
ARC
  5
9E9
330
8AE
100
AcDbEntity
  8
LAYER1
  6
CONTINUOUS
100
AcDbCircle
 10
0.0
 20
0.0
 30
0.0
 40
3.057499999976028
100
AcDbArc
 50
33.74999999999995
 51
34.06208899559126
  0
ARC
  5
9EA
330
8AE
100
AcDbEntity
  8
LAYER1
  6
CONTINUOUS
100
AcDbCircle
 10
0.0
 20
0.0
 30
0.0
 40
3.057499999976028
100
AcDbArc
 50
40.93791100440858
 51
41.24999999999989
  0
LINE
  5
9EB
330
8AE
100
AcDbEntity
  8
LAYER1
  6
CONTINUOUS
100
AcDbLine
 10
2.06551915195296
 20
2.26632830673922
 30
0.0
 11
2.028441109250395
 21
2.28773532476037
 31
0.0
  0
ARC
  5
9EC
330
8AE
100
AcDbEntity
  8
LAYER1
  6
CONTINUOUS
100
AcDbCircle
 10
2.073519152000878
 20
2.280184713254273
 30
0.0
 40
0.0160000000000008
100
AcDbArc
 50
239.9999999999981
 51
298.5000000000007
  0
ARC
  5
9ED
330
8AE
100
AcDbEntity
  8
LAYER1
  6
CONTINUOUS
100
AcDbCircle
 10
0.0
 20
0.0
 30
0.0
 40
3.105000000001785
100
AcDbArc
 50
42.99003194827586
 51
47.00996805172392
  0
LINE
  5
9EE
330
8AE
100
AcDbEntity
  8
LAYER1
  6
CONTINUOUS
100
AcDbLine
 10
2.094766231970852
 20
2.273514645556968
 30
0.0
 11
2.081153692155537
 21
2.266123639441736
 31
0.0
  0
ARC
  5
9EF
330
8AE
100
AcDbEntity
  8
LAYER1
  6
CONTINUOUS
100
AcDbCircle
 10
2.104309407176043
 20
2.255938303303729
 30
0.0
 40
0.02
100
AcDbArc
 50
49.83283867240648
 51
118.4999999999981
  0
ARC
  5
9F0
330
8AE
100
AcDbEntity
  8
LAYER1
  6
CONTINUOUS
100
AcDbCircle
 10
2.25593830330373
 20
2.104309407176042
 30
0.0
 40
0.02
100
AcDbArc
 50
331.4999999999991
 51
40.16716132759173
  0
LINE
  5
9F1
330
8AE
100
AcDbEntity
  8
LAYER1
  6
CONTINUOUS
100
AcDbLine
 10
2.273514645556969
 20
2.09476623197085
 30
0.0
 11
2.266123639441737
 21
2.081153692155536
 31
0.0
  0
ARC
  5
9F2
330
8AE
100
AcDbEntity
  8
LAYER1
  6
CONTINUOUS
100
AcDbCircle
 10
2.280184713254274
 20
2.073519152000877
 30
0.0
 40
0.0160000000000008
100
AcDbArc
 50
151.4999999999979
 51
209.9999999999997
  0
LINE
  5
9F3
330
8AE
100
AcDbEntity
  8
LAYER1
  6
CONTINUOUS
100
AcDbLine
 10
2.266328306739221
 20
2.065519151952959
 30
0.0
 11
2.287735324760371
 21
2.028441109250394
 31
0.0
  0
ARC
  5
9F4
330
8AE
100
AcDbEntity
  8
LAYER1
  6
CONTINUOUS
100
AcDbCircle
 10
0.0
 20
0.0
 30
0.0
 40
3.057499999976028
100
AcDbArc
 50
41.24999999999997
 51
41.56208899559127
  0
ARC
  5
9F5
330
8AE
100
AcDbEntity
  8
LAYER1
  6
CONTINUOUS
100
AcDbCircle
 10
0.0
 20
0.0
 30
0.0
 40
3.057499999976028
100
AcDbArc
 50
48.43791100440858
 51
48.74999999999989
  0
LINE
  5
9F6
330
8AE
100
AcDbEntity
  8
LAYER1
  6
CONTINUOUS
100
AcDbLine
 10
1.752033145073766
 20
2.516543903764618
 30
0.0
 11
1.712478133617423
 21
2.532928126050086
 31
0.0
  0
ARC
  5
9F7
330
8AE
100
AcDbEntity
  8
LAYER1
  6
CONTINUOUS
100
AcDbCircle
 10
1.758156080032002
 20
2.531325976345089
 30
0.0
 40
0.0160000000000008
100
AcDbArc
 50
247.499999999999
 51
305.9999999999997
  0
ARC
  5
9F8
330
8AE
100
AcDbEntity
  8
LAYER1
  6
CONTINUOUS
100
AcDbCircle
 10
0.0
 20
0.0
 30
0.0
 40
3.105000000001785
100
AcDbArc
 50
50.49003194827586
 51
54.50996805172389
  0
LINE
  5
9F9
330
8AE
100
AcDbEntity
  8
LAYER1
  6
CONTINUOUS
100
AcDbLine
 10
1.780092006825809
 20
2.527486272445857
 30
0.0
 11
1.767560644060566
 21
2.51838170442399
 31
0.0
  0
ARC
  5
9FA
330
8AE
100
AcDbEntity
  8
LAYER1
  6
CONTINUOUS
100
AcDbCircle
 10
1.791847711871658
 20
2.511305932558358
 30
0.0
 40
0.02
100
AcDbArc
 50
57.33283867240696
 51
126.0000000000006
  0
ARC
  5
9FB
330
8AE
100
AcDbEntity
  8
LAYER1
  6
CONTINUOUS
100
AcDbCircle
 10
1.961970944215313
 20
2.380765785098856
 30
0.0
 40
0.02
100
AcDbArc
 50
339.0000000000006
 51
47.66716132759215
  0
LINE
  5
9FC
330
8AE
100
AcDbEntity
  8
LAYER1
  6
CONTINUOUS
100
AcDbLine
 10
1.980642552745257
 20
2.373598426107951
 30
0.0
 11
1.975091570700465
 21
2.359137623572915
 31
0.0
  0
ARC
  5
9FD
330
8AE
100
AcDbEntity
  8
LAYER1
  6
CONTINUOUS
100
AcDbCircle
 10
1.990028857533041
 20
2.353403736390901
 30
0.0
 40
0.0160000000000008
100
AcDbArc
 50
158.9999999999993
 51
217.5000000000007
  0
LINE
  5
9FE
330
8AE
100
AcDbEntity
  8
LAYER1
  6
CONTINUOUS
100
AcDbLine
 10
1.9773352040406
 20
2.343663553472139
 30
0.0
 11
2.003398737783944
 21
2.309696895113969
 31
0.0
  0
ARC
  5
9FF
330
8AE
100
AcDbEntity
  8
LAYER1
  6
CONTINUOUS
100
AcDbCircle
 10
0.0
 20
0.0
 30
0.0
 40
3.057499999976028
100
AcDbArc
 50
48.74999999999996
 51
49.06208899559127
  0
ARC
  5
A00
330
8AE
100
AcDbEntity
  8
LAYER1
  6
CONTINUOUS
100
AcDbCircle
 10
0.0
 20
0.0
 30
0.0
 40
3.057499999976028
100
AcDbArc
 50
55.93791100440858
 51
56.2499999999999
  0
LINE
  5
A01
330
8AE
100
AcDbEntity
  8
LAYER1
  6
CONTINUOUS
100
AcDbLine
 10
1.408569365327001
 20
2.723700736878819
 30
0.0
 11
1.367214182329619
 21
2.734781824842735
 31
0.0
  0
ARC
  5
A02
330
8AE
100
AcDbEntity
  8
LAYER1
  6
CONTINUOUS
100
AcDbCircle
 10
1.412710470080821
 20
2.739155550164492
 30
0.0
 40
0.0160000000000008
100
AcDbArc
 50
255.0000000000006
 51
313.5000000000013
  0
ARC
  5
A03
330
8AE
100
AcDbEntity
  8
LAYER1
  6
CONTINUOUS
100
AcDbCircle
 10
0.0
 20
0.0
 30
0.0
 40
3.105000000001785
100
AcDbArc
 50
57.99003194827586
 51
62.00996805172388
  0
LINE
  5
A04
330
8AE
100
AcDbEntity
  8
LAYER1
  6
CONTINUOUS
100
AcDbLine
 10
1.434959913909233
 20
2.738211908461614
 30
0.0
 11
1.423724143285324
 21
2.727549560216231
 31
0.0
  0
ARC
  5
A05
330
8AE
100
AcDbEntity
  8
LAYER1
  6
CONTINUOUS
100
AcDbCircle
 10
1.448727005423108
 20
2.723704421041368
 30
0.0
 40
0.02
100
AcDbArc
 50
64.83283867240847
 51
133.4999999999994
  0
ARC
  5
A06
330
8AE
100
AcDbEntity
  8
LAYER1
  6
CONTINUOUS
100
AcDbCircle
 10
1.63443371831026
 20
2.61648660036565
 30
0.0
 40
0.02
100
AcDbArc
 50
346.499999999999
 51
55.16716132759242
  0
LINE
  5
A07
330
8AE
100
AcDbEntity
  8
LAYER1
  6
CONTINUOUS
100
AcDbLine
 10
1.653881116718214
 20
2.611817693088532
 30
0.0
 11
1.65026513758567
 21
2.596756056174441
 31
0.0
  0
ARC
  5
A08
330
8AE
100
AcDbEntity
  8
LAYER1
  6
CONTINUOUS
100
AcDbCircle
 10
1.665823056319182
 20
2.593020930364491
 30
0.0
 40
0.0160000000000008
100
AcDbArc
 50
166.4999999999984
 51
225.0000000000011
  0
LINE
  5
A09
330
8AE
100
AcDbEntity
  8
LAYER1
  6
CONTINUOUS
100
AcDbLine
 10
1.654509347779955
 20
2.581707221805115
 30
0.0
 11
1.684783442956967
 21
2.551433126733185
 31
0.0
  0
ARC
  5
A0A
330
8AE
100
AcDbEntity
  8
LAYER1
  6
CONTINUOUS
100
AcDbCircle
 10
0.0
 20
0.0
 30
0.0
 40
3.057499999976028
100
AcDbArc
 50
56.24999999999995
 51
56.56208899559126
  0
ARC
  5
A0B
330
8AE
100
AcDbEntity
  8
LAYER1
  6
CONTINUOUS
100
AcDbCircle
 10
0.0
 20
0.0
 30
0.0
 40
3.057499999976028
100
AcDbArc
 50
63.43791100440857
 51
63.74999999999989
  0
LINE
  5
A0C
330
8AE
100
AcDbEntity
  8
LAYER1
  6
CONTINUOUS
100
AcDbLine
 10
1.041004573210283
 20
2.884254295232515
 30
0.0
 11
0.9985568173187698
 21
2.889842648387559
 31
0.0
  0
ARC
  5
A0D
330
8AE
100
AcDbEntity
  8
LAYER1
  6
CONTINUOUS
100
AcDbCircle
 10
1.043092992309218
 20
2.900117413083186
 30
0.0
 40
0.0160000000000008
100
AcDbArc
 50
262.4999999999997
 51
321.0000000000017
  0
ARC
  5
A0E
330
8AE
100
AcDbEntity
  8
LAYER1
  6
CONTINUOUS
100
AcDbCircle
 10
0.0
 20
0.0
 30
0.0
 40
3.105000000001785
100
AcDbArc
 50
65.49003194827587
 51
69.5099680517239
  0
LINE
  5
A0F
330
8AE
100
AcDbEntity
  8
LAYER1
  6
CONTINUOUS
100
AcDbLine
 10
1.065275259019619
 20
2.902085979547827
 30
0.0
 11
1.055527327687564
 21
2.890048286813568
 31
0.0
  0
ARC
  5
A10
330
8AE
100
AcDbEntity
  8
LAYER1
  6
CONTINUOUS
100
AcDbCircle
 10
1.080818178248758
 20
2.88949957172683
 30
0.0
 40
0.02
100
AcDbArc
 50
72.33283867240725
 51
141.0
  0
ARC
  5
A11
330
8AE
100
AcDbEntity
  8
LAYER1
  6
CONTINUOUS
100
AcDbCircle
 10
1.27893087833428
 20
2.807438604473053
 30
0.0
 40
0.02
100
AcDbArc
 50
354.0000000000002
 51
62.66716132759279
  0
LINE
  5
A12
330
8AE
100
AcDbEntity
  8
LAYER1
  6
CONTINUOUS
100
AcDbLine
 10
1.298821316241646
 20
2.805348035207701
 30
0.0
 11
1.297202210426848
 21
2.789943272698029
 31
0.0
  0
ARC
  5
A13
330
8AE
100
AcDbEntity
  8
LAYER1
  6
CONTINUOUS
100
AcDbCircle
 10
1.313114560758295
 20
2.788270817298323
 30
0.0
 40
0.0160000000000008
100
AcDbArc
 50
173.9999999999979
 51
232.5000000000009
  0
LINE
  5
A14
330
8AE
100
AcDbEntity
  8
LAYER1
  6
CONTINUOUS
100
AcDbLine
 10
1.30337437786214
 20
2.775577163788536
 30
0.0
 11
1.337341036310777
 21
2.749513630163092
 31
0.0
  0
ARC
  5
A15
330
8AE
100
AcDbEntity
  8
LAYER1
  6
CONTINUOUS
100
AcDbCircle
 10
0.0
 20
0.0
 30
0.0
 40
3.057499999976028
100
AcDbArc
 50
63.74999999999996
 51
64.06208899559128
  0
ARC
  5
A16
330
8AE
100
AcDbEntity
  8
LAYER1
  6
CONTINUOUS
100
AcDbCircle
 10
0.0
 20
0.0
 30
0.0
 40
3.057499999976028
100
AcDbArc
 50
70.93791100440859
 51
71.2499999999999
  0
LINE
  5
A17
330
8AE
100
AcDbEntity
  8
LAYER1
  6
CONTINUOUS
100
AcDbLine
 10
0.6556279042249438
 20
2.995457462928416
 30
0.0
 11
0.612813868311344
 21
2.995457463002721
 31
0.0
  0
ARC
  5
A18
330
8AE
100
AcDbEntity
  8
LAYER1
  6
CONTINUOUS
100
AcDbCircle
 10
0.6556279042391914
 20
3.011457462999575
 30
0.0
 40
0.0160000000000008
100
AcDbArc
 50
269.9999999999987
 51
328.4999999999999
  0
ARC
  5
A19
330
8AE
100
AcDbEntity
  8
LAYER1
  6
CONTINUOUS
100
AcDbCircle
 10
0.0
 20
0.0
 30
0.0
 40
3.105000000001785
100
AcDbArc
 50
72.99003194827586
 51
77.0099680517239
  0
LINE
  5
A1A
330
8AE
100
AcDbEntity
  8
LAYER1
  6
CONTINUOUS
100
AcDbLine
 10
0.6773634490980802
 20
3.016304554913734
 30
0.0
 11
0.669270146865607
 21
3.00309748595076
 31
0.0
  0
ARC
  5
A1B
330
8AE
100
AcDbEntity
  8
LAYER1
  6
CONTINUOUS
100
AcDbCircle
 10
0.6944162523851617
 20
3.005854583619415
 30
0.0
 40
0.02
100
AcDbArc
 50
79.83283867240755
 51
148.4999999999996
  0
ARC
  5
A1C
330
8AE
100
AcDbEntity
  8
LAYER1
  6
CONTINUOUS
100
AcDbCircle
 10
0.9015451764433734
 20
2.950354555688889
 30
0.0
 40
0.02
100
AcDbArc
 50
1.500000000000838
 51
70.16716132759328
  0
LINE
  5
A1D
330
8AE
100
AcDbEntity
  8
LAYER1
  6
CONTINUOUS
100
AcDbLine
 10
0.9215383229428845
 20
2.950878094655048
 30
0.0
 11
0.9219437937952244
 21
2.935393786307343
 31
0.0
  0
ARC
  5
A1E
330
8AE
100
AcDbEntity
  8
LAYER1
  6
CONTINUOUS
100
AcDbCircle
 10
0.937938310998699
 20
2.935812617493463
 30
0.0
 40
0.0160000000000008
100
AcDbArc
 50
181.5000000000011
 51
240.0000000000013
  0
LINE
  5
A1F
330
8AE
100
AcDbEntity
  8
LAYER1
  6
CONTINUOUS
100
AcDbLine
 10
0.9299383109754581
 20
2.921956210964163
 30
0.0
 11
0.9670163537523271
 21
2.900549193071713
 31
0.0
  0
ARC
  5
A20
330
8AE
100
AcDbEntity
  8
LAYER1
  6
CONTINUOUS
100
AcDbCircle
 10
0.0
 20
0.0
 30
0.0
 40
3.057499999976028
100
AcDbArc
 50
71.24999999999996
 51
71.56208899559127
  0
ARC
  5
A21
330
8AE
100
AcDbEntity
  8
LAYER1
  6
CONTINUOUS
100
AcDbCircle
 10
0.0
 20
0.0
 30
0.0
 40
3.057499999976028
100
AcDbArc
 50
78.43791100440858
 51
78.7499999999999
  0
LINE
  5
A22
330
8AE
100
AcDbEntity
  8
LAYER1
  6
CONTINUOUS
100
AcDbLine
 10
0.2590332600239191
 20
3.055407522935904
 30
0.0
 11
0.2165855041130081
 21
3.049819169928198
 31
0.0
  0
ARC
  5
A23
330
8AE
100
AcDbEntity
  8
LAYER1
  6
CONTINUOUS
100
AcDbCircle
 10
0.2569448409532359
 20
3.071270640790295
 30
0.0
 40
0.0160000000000008
100
AcDbArc
 50
277.4999999999991
 51
335.9999999999992
  0
ARC
  5
A24
330
8AE
100
AcDbEntity
  8
LAYER1
  6
CONTINUOUS
100
AcDbCircle
 10
0.0
 20
0.0
 30
0.0
 40
3.105000000001785
100
AcDbArc
 50
80.49003194827586
 51
84.50996805172387
  0
LINE
  5
A25
330
8AE
100
AcDbEntity
  8
LAYER1
  6
CONTINUOUS
100
AcDbLine
 10
0.2778617627618454
 20
3.078913323067453
 30
0.0
 11
0.2715615682740394
 21
3.064762854487412
 31
0.0
  0
ARC
  5
A26
330
8AE
100
AcDbEntity
  8
LAYER1
  6
CONTINUOUS
100
AcDbCircle
 10
0.2961326719146972
 20
3.070778590205937
 30
0.0
 40
0.02
100
AcDbArc
 50
87.33283867240787
 51
156.0
  0
ARC
  5
A27
330
8AE
100
AcDbEntity
  8
LAYER1
  6
CONTINUOUS
100
AcDbCircle
 10
0.5087337866279752
 20
3.04278912246407
 30
0.0
 40
0.02
100
AcDbArc
 50
8.999999999998902
 51
77.6671613275919
  0
LINE
  5
A28
330
8AE
100
AcDbEntity
  8
LAYER1
  6
CONTINUOUS
100
AcDbLine
 10
0.528487553439878
 20
3.045917811764874
 30
0.0
 11
0.5309106632406543
 21
3.030618898388027
 31
0.0
  0
ARC
  5
A29
330
8AE
100
AcDbEntity
  8
LAYER1
  6
CONTINUOUS
100
AcDbCircle
 10
0.5467136766922869
 20
3.033121849842257
 30
0.0
 40
0.0160000000000008
100
AcDbArc
 50
189.0000000000001
 51
247.5000000000002
  0
LINE
  5
A2A
330
8AE
100
AcDbEntity
  8
LAYER1
  6
CONTINUOUS
100
AcDbLine
 10
0.5405907417603769
 20
3.018339777250881
 30
0.0
 11
0.5801457532735901
 21
3.001955555102712
 31
0.0
  0
ARC
  5
A2B
330
8AE
100
AcDbEntity
  8
LAYER1
  6
CONTINUOUS
100
AcDbCircle
 10
0.0
 20
0.0
 30
0.0
 40
3.057499999976028
100
AcDbArc
 50
78.74999999999994
 51
79.06208899559127
  0
ARC
  5
A2C
330
8AE
100
AcDbEntity
  8
LAYER1
  6
CONTINUOUS
100
AcDbCircle
 10
0.0
 20
0.0
 30
0.0
 40
3.057499999976028
100
AcDbArc
 50
85.93791100440858
 51
86.24999999999989
  0
LINE
  5
A2D
330
8AE
100
AcDbEntity
  8
LAYER1
  6
CONTINUOUS
100
AcDbLine
 10
-0.1419935150737036
 20
3.063078713106953
 30
0.0
 11
-0.1833486981095488
 21
3.051997625286583
 31
0.0
  0
ARC
  5
A2E
330
8AE
100
AcDbEntity
  8
LAYER1
  6
CONTINUOUS
100
AcDbCircle
 10
-0.1461346197999992
 20
3.0785335264
 30
0.0
 40
0.0160000000000008
100
AcDbArc
 50
284.9999999999991
 51
343.5000000000004
  0
ARC
  5
A2F
330
8AE
100
AcDbEntity
  8
LAYER1
  6
CONTINUOUS
100
AcDbCircle
 10
0.0
 20
0.0
 30
0.0
 40
3.105000000001785
100
AcDbArc
 50
87.99003194827587
 51
92.00996805172389
  0
LINE
  5
A30
330
8AE
100
AcDbEntity
  8
LAYER1
  6
CONTINUOUS
100
AcDbLine
 10
-0.1263942153730807
 20
3.088841030627444
 30
0.0
 11
-0.1307935040417893
 21
3.073989280870992
 31
0.0
  0
ARC
  5
A31
330
8AE
100
AcDbEntity
  8
LAYER1
  6
CONTINUOUS
100
AcDbCircle
 10
-0.107217820675717
 20
3.083160723733365
 30
0.0
 40
0.02
100
AcDbArc
 50
94.8328386724077
 51
163.4999999999999
  0
ARC
  5
A32
330
8AE
100
AcDbEntity
  8
LAYER1
  6
CONTINUOUS
100
AcDbCircle
 10
0.1072178206757185
 20
3.083160723733365
 30
0.0
 40
0.02
100
AcDbArc
 50
16.50000000000015
 51
85.16716132759225
  0
LINE
  5
A33
330
8AE
100
AcDbEntity
  8
LAYER1
  6
CONTINUOUS
100
AcDbLine
 10
0.1263942153730823
 20
3.088841030627444
 30
0.0
 11
0.1307935040417908
 21
3.073989280870992
 31
0.0
  0
ARC
  5
A34
330
8AE
100
AcDbEntity
  8
LAYER1
  6
CONTINUOUS
100
AcDbCircle
 10
0.1461346198000008
 20
3.0785335264
 30
0.0
 40
0.0160000000000008
100
AcDbArc
 50
196.4999999999996
 51
255.0000000000009
  0
LINE
  5
A35
330
8AE
100
AcDbEntity
  8
LAYER1
  6
CONTINUOUS
100
AcDbLine
 10
0.1419935150737052
 20
3.063078713106953
 30
0.0
 11
0.1833486981095503
 21
3.051997625286583
 31
0.0
  0
ARC
  5
A36
330
8AE
100
AcDbEntity
  8
LAYER1
  6
CONTINUOUS
100
AcDbCircle
 10
0.0
 20
0.0
 30
0.0
 40
3.057499999976028
100
AcDbArc
 50
86.24999999999996
 51
86.56208899559128
  0
ARC
  5
A37
330
8AE
100
AcDbEntity
  8
LAYER1
  6
CONTINUOUS
100
AcDbCircle
 10
0.0
 20
0.0
 30
0.0
 40
3.057499999976028
100
AcDbArc
 50
93.43791100440859
 51
93.7499999999999
  0
LINE
  5
A38
330
8AE
100
AcDbEntity
  8
LAYER1
  6
CONTINUOUS
100
AcDbLine
 10
-0.5405907417603741
 20
3.018339777250882
 30
0.0
 11
-0.5801457532735874
 21
3.001955555102712
 31
0.0
  0
ARC
  5
A39
330
8AE
100
AcDbEntity
  8
LAYER1
  6
CONTINUOUS
100
AcDbCircle
 10
-0.546713676692284
 20
3.033121849842257
 30
0.0
 40
0.0160000000000008
100
AcDbArc
 50
292.4999999999994
 51
350.9999999999999
  0
ARC
  5
A3A
330
8AE
100
AcDbEntity
  8
LAYER1
  6
CONTINUOUS
100
AcDbCircle
 10
0.0
 20
0.0
 30
0.0
 40
3.105000000001785
100
AcDbArc
 50
95.49003194827586
 51
99.50996805172389
  0
LINE
  5
A3B
330
8AE
100
AcDbEntity
  8
LAYER1
  6
CONTINUOUS
100
AcDbLine
 10
-0.5284875534398752
 20
3.045917811764875
 30
0.0
 11
-0.5309106632406515
 21
3.030618898388027
 31
0.0
  0
ARC
  5
A3C
330
8AE
100
AcDbEntity
  8
LAYER1
  6
CONTINUOUS
100
AcDbCircle
 10
-0.5087337866279725
 20
3.04278912246407
 30
0.0
 40
0.02
100
AcDbArc
 50
102.3328386724078
 51
170.9999999999999
  0
ARC
  5
A3D
330
8AE
100
AcDbEntity
  8
LAYER1
  6
CONTINUOUS
100
AcDbCircle
 10
-0.2961326719146944
 20
3.070778590205937
 30
0.0
 40
0.02
100
AcDbArc
 50
24.0
 51
92.66716132759213
  0
LINE
  5
A3E
330
8AE
100
AcDbEntity
  8
LAYER1
  6
CONTINUOUS
100
AcDbLine
 10
-0.2778617627618425
 20
3.078913323067454
 30
0.0
 11
-0.2715615682740366
 21
3.064762854487413
 31
0.0
  0
ARC
  5
A3F
330
8AE
100
AcDbEntity
  8
LAYER1
  6
CONTINUOUS
100
AcDbCircle
 10
-0.256944840953233
 20
3.071270640790295
 30
0.0
 40
0.0160000000000008
100
AcDbArc
 50
204.0000000000008
 51
262.5000000000009
  0
LINE
  5
A40
330
8AE
100
AcDbEntity
  8
LAYER1
  6
CONTINUOUS
100
AcDbLine
 10
-0.2590332600239162
 20
3.055407522935904
 30
0.0
 11
-0.2165855041130054
 21
3.049819169928198
 31
0.0
  0
ARC
  5
A41
330
8AE
100
AcDbEntity
  8
LAYER1
  6
CONTINUOUS
100
AcDbCircle
 10
0.0
 20
0.0
 30
0.0
 40
3.057499999976028
100
AcDbArc
 50
93.74999999999997
 51
94.06208899559127
  0
ARC
  5
A42
330
8AE
100
AcDbEntity
  8
LAYER1
  6
CONTINUOUS
100
AcDbCircle
 10
0.0
 20
0.0
 30
0.0
 40
3.057499999976028
100
AcDbArc
 50
100.9379110044086
 51
101.2499999999999
  0
LINE
  5
A43
330
8AE
100
AcDbEntity
  8
LAYER1
  6
CONTINUOUS
100
AcDbLine
 10
-0.9299383109754553
 20
2.921956210964164
 30
0.0
 11
-0.9670163537523244
 21
2.900549193071714
 31
0.0
  0
ARC
  5
A44
330
8AE
100
AcDbEntity
  8
LAYER1
  6
CONTINUOUS
100
AcDbCircle
 10
-0.9379383109986961
 20
2.935812617493464
 30
0.0
 40
0.0160000000000008
100
AcDbArc
 50
299.9999999999986
 51
358.5000000000005
  0
ARC
  5
A45
330
8AE
100
AcDbEntity
  8
LAYER1
  6
CONTINUOUS
100
AcDbCircle
 10
0.0
 20
0.0
 30
0.0
 40
3.105000000001785
100
AcDbArc
 50
102.9900319482759
 51
107.0099680517239
  0
LINE
  5
A46
330
8AE
100
AcDbEntity
  8
LAYER1
  6
CONTINUOUS
100
AcDbLine
 10
-0.9215383229428817
 20
2.950878094655048
 30
0.0
 11
-0.9219437937952217
 21
2.935393786307343
 31
0.0
  0
ARC
  5
A47
330
8AE
100
AcDbEntity
  8
LAYER1
  6
CONTINUOUS
100
AcDbCircle
 10
-0.9015451764433706
 20
2.95035455568889
 30
0.0
 40
0.02
100
AcDbArc
 50
109.832838672408
 51
178.5000000000005
  0
ARC
  5
A48
330
8AE
100
AcDbEntity
  8
LAYER1
  6
CONTINUOUS
100
AcDbCircle
 10
-0.6944162523851589
 20
3.005854583619415
 30
0.0
 40
0.02
100
AcDbArc
 50
31.50000000000042
 51
100.1671613275921
  0
LINE
  5
A49
330
8AE
100
AcDbEntity
  8
LAYER1
  6
CONTINUOUS
100
AcDbLine
 10
-0.6773634490980772
 20
3.016304554913735
 30
0.0
 11
-0.6692701468656044
 21
3.003097485950761
 31
0.0
  0
ARC
  5
A4A
330
8AE
100
AcDbEntity
  8
LAYER1
  6
CONTINUOUS
100
AcDbCircle
 10
-0.6556279042391884
 20
3.011457462999576
 30
0.0
 40
0.0160000000000008
100
AcDbArc
 50
211.5000000000001
 51
270.0000000000004
  0
LINE
  5
A4B
330
8AE
100
AcDbEntity
  8
LAYER1
  6
CONTINUOUS
100
AcDbLine
 10
-0.6556279042249409
 20
2.995457462928417
 30
0.0
 11
-0.6128138683113411
 21
2.995457463002721
 31
0.0
  0
ARC
  5
A4C
330
8AE
100
AcDbEntity
  8
LAYER1
  6
CONTINUOUS
100
AcDbCircle
 10
0.0
 20
0.0
 30
0.0
 40
3.057499999976028
100
AcDbArc
 50
101.2499999999999
 51
101.5620889955913
  0
ARC
  5
A4D
330
8AE
100
AcDbEntity
  8
LAYER1
  6
CONTINUOUS
100
AcDbCircle
 10
0.0
 20
0.0
 30
0.0
 40
3.057499999976028
100
AcDbArc
 50
108.4379110044086
 51
108.7499999999999
  0
LINE
  5
A4E
330
8AE
100
AcDbEntity
  8
LAYER1
  6
CONTINUOUS
100
AcDbLine
 10
-1.303374377862137
 20
2.775577163788537
 30
0.0
 11
-1.337341036310775
 21
2.749513630163093
 31
0.0
  0
ARC
  5
A4F
330
8AE
100
AcDbEntity
  8
LAYER1
  6
CONTINUOUS
100
AcDbCircle
 10
-1.313114560758292
 20
2.788270817298325
 30
0.0
 40
0.0160000000000008
100
AcDbArc
 50
307.4999999999991
 51
6.000000000000487
  0
ARC
  5
A50
330
8AE
100
AcDbEntity
  8
LAYER1
  6
CONTINUOUS
100
AcDbCircle
 10
0.0
 20
0.0
 30
0.0
 40
3.105000000001785
100
AcDbArc
 50
110.4900319482758
 51
114.5099680517239
  0
LINE
  5
A51
330
8AE
100
AcDbEntity
  8
LAYER1
  6
CONTINUOUS
100
AcDbLine
 10
-1.298821316241643
 20
2.805348035207702
 30
0.0
 11
-1.297202210426845
 21
2.78994327269803
 31
0.0
  0
ARC
  5
A52
330
8AE
100
AcDbEntity
  8
LAYER1
  6
CONTINUOUS
100
AcDbCircle
 10
-1.278930878334278
 20
2.807438604473055
 30
0.0
 40
0.02
100
AcDbArc
 50
117.3328386724072
 51
186.0000000000011
  0
ARC
  5
A53
330
8AE
100
AcDbEntity
  8
LAYER1
  6
CONTINUOUS
100
AcDbCircle
 10
-1.080818178248755
 20
2.889499571726831
 30
0.0
 40
0.02
100
AcDbArc
 50
38.99999999999997
 51
107.6671613275922
  0
LINE
  5
A54
330
8AE
100
AcDbEntity
  8
LAYER1
  6
CONTINUOUS
100
AcDbLine
 10
-1.065275259019616
 20
2.902085979547828
 30
0.0
 11
-1.055527327687561
 21
2.890048286813569
 31
0.0
  0
ARC
  5
A55
330
8AE
100
AcDbEntity
  8
LAYER1
  6
CONTINUOUS
100
AcDbCircle
 10
-1.043092992309215
 20
2.900117413083187
 30
0.0
 40
0.0160000000000008
100
AcDbArc
 50
219.0000000000005
 51
277.5000000000011
  0
LINE
  5
A56
330
8AE
100
AcDbEntity
  8
LAYER1
  6
CONTINUOUS
100
AcDbLine
 10
-1.04100457321028
 20
2.884254295232516
 30
0.0
 11
-0.9985568173187671
 21
2.889842648387559
 31
0.0
  0
ARC
  5
A57
330
8AE
100
AcDbEntity
  8
LAYER1
  6
CONTINUOUS
100
AcDbCircle
 10
0.0
 20
0.0
 30
0.0
 40
3.057499999976028
100
AcDbArc
 50
108.7499999999999
 51
109.0620889955913
  0
ARC
  5
A58
330
8AE
100
AcDbEntity
  8
LAYER1
  6
CONTINUOUS
100
AcDbCircle
 10
0.0
 20
0.0
 30
0.0
 40
3.057499999976028
100
AcDbArc
 50
115.9379110044085
 51
116.2499999999999
  0
LINE
  5
A59
330
8AE
100
AcDbEntity
  8
LAYER1
  6
CONTINUOUS
100
AcDbLine
 10
-1.654509347779952
 20
2.581707221805116
 30
0.0
 11
-1.684783442956964
 21
2.551433126733187
 31
0.0
  0
ARC
  5
A5A
330
8AE
100
AcDbEntity
  8
LAYER1
  6
CONTINUOUS
100
AcDbCircle
 10
-1.665823056319179
 20
2.593020930364493
 30
0.0
 40
0.0160000000000008
100
AcDbArc
 50
315.0000000000006
 51
13.50000000000162
  0
ARC
  5
A5B
330
8AE
100
AcDbEntity
  8
LAYER1
  6
CONTINUOUS
100
AcDbCircle
 10
0.0
 20
0.0
 30
0.0
 40
3.105000000001785
100
AcDbArc
 50
117.9900319482758
 51
122.0099680517239
  0
LINE
  5
A5C
330
8AE
100
AcDbEntity
  8
LAYER1
  6
CONTINUOUS
100
AcDbLine
 10
-1.653881116718211
 20
2.611817693088534
 30
0.0
 11
-1.650265137585668
 21
2.596756056174443
 31
0.0
  0
ARC
  5
A5D
330
8AE
100
AcDbEntity
  8
LAYER1
  6
CONTINUOUS
100
AcDbCircle
 10
-1.634433718310257
 20
2.616486600365652
 30
0.0
 40
0.02
100
AcDbArc
 50
124.8328386724076
 51
193.5000000000009
  0
ARC
  5
A5E
330
8AE
100
AcDbEntity
  8
LAYER1
  6
CONTINUOUS
100
AcDbCircle
 10
-1.448727005423105
 20
2.723704421041369
 30
0.0
 40
0.02
100
AcDbArc
 50
46.49999999999928
 51
115.1671613275916
  0
LINE
  5
A5F
330
8AE
100
AcDbEntity
  8
LAYER1
  6
CONTINUOUS
100
AcDbLine
 10
-1.434959913909231
 20
2.738211908461615
 30
0.0
 11
-1.423724143285322
 21
2.727549560216233
 31
0.0
  0
ARC
  5
A60
330
8AE
100
AcDbEntity
  8
LAYER1
  6
CONTINUOUS
100
AcDbCircle
 10
-1.412710470080818
 20
2.739155550164493
 30
0.0
 40
0.0160000000000008
100
AcDbArc
 50
226.5000000000004
 51
285.0000000000002
  0
LINE
  5
A61
330
8AE
100
AcDbEntity
  8
LAYER1
  6
CONTINUOUS
100
AcDbLine
 10
-1.408569365326999
 20
2.723700736878821
 30
0.0
 11
-1.367214182329616
 21
2.734781824842736
 31
0.0
  0
ARC
  5
A62
330
8AE
100
AcDbEntity
  8
LAYER1
  6
CONTINUOUS
100
AcDbCircle
 10
0.0
 20
0.0
 30
0.0
 40
3.057499999976028
100
AcDbArc
 50
116.2499999999999
 51
116.5620889955913
  0
ARC
  5
A63
330
8AE
100
AcDbEntity
  8
LAYER1
  6
CONTINUOUS
100
AcDbCircle
 10
0.0
 20
0.0
 30
0.0
 40
3.057499999976028
100
AcDbArc
 50
123.4379110044086
 51
123.7499999999999
  0
LINE
  5
A64
330
8AE
100
AcDbEntity
  8
LAYER1
  6
CONTINUOUS
100
AcDbLine
 10
-1.977335204040598
 20
2.34366355347214
 30
0.0
 11
-2.003398737783941
 21
2.309696895113972
 31
0.0
  0
ARC
  5
A65
330
8AE
100
AcDbEntity
  8
LAYER1
  6
CONTINUOUS
100
AcDbCircle
 10
-1.990028857533038
 20
2.353403736390902
 30
0.0
 40
0.0160000000000008
100
AcDbArc
 50
322.5000000000015
 51
21.00000000000248
  0
ARC
  5
A66
330
8AE
100
AcDbEntity
  8
LAYER1
  6
CONTINUOUS
100
AcDbCircle
 10
0.0
 20
0.0
 30
0.0
 40
3.105000000001785
100
AcDbArc
 50
125.4900319482758
 51
129.5099680517239
  0
LINE
  5
A67
330
8AE
100
AcDbEntity
  8
LAYER1
  6
CONTINUOUS
100
AcDbLine
 10
-1.980642552745255
 20
2.373598426107952
 30
0.0
 11
-1.975091570700463
 21
2.359137623572916
 31
0.0
  0
ARC
  5
A68
330
8AE
100
AcDbEntity
  8
LAYER1
  6
CONTINUOUS
100
AcDbCircle
 10
-1.961970944215311
 20
2.380765785098858
 30
0.0
 40
0.02
100
AcDbArc
 50
132.3328386724079
 51
200.9999999999994
  0
ARC
  5
A69
330
8AE
100
AcDbEntity
  8
LAYER1
  6
CONTINUOUS
100
AcDbCircle
 10
-1.791847711871656
 20
2.511305932558359
 30
0.0
 40
0.02
100
AcDbArc
 50
54.00000000000123
 51
122.6671613275918
  0
LINE
  5
A6A
330
8AE
100
AcDbEntity
  8
LAYER1
  6
CONTINUOUS
100
AcDbLine
 10
-1.780092006825807
 20
2.527486272445858
 30
0.0
 11
-1.767560644060564
 21
2.518381704423992
 31
0.0
  0
ARC
  5
A6B
330
8AE
100
AcDbEntity
  8
LAYER1
  6
CONTINUOUS
100
AcDbCircle
 10
-1.758156080031999
 20
2.53132597634509
 30
0.0
 40
0.0160000000000008
100
AcDbArc
 50
233.9999999999997
 51
292.500000000001
  0
LINE
  5
A6C
330
8AE
100
AcDbEntity
  8
LAYER1
  6
CONTINUOUS
100
AcDbLine
 10
-1.752033145073763
 20
2.51654390376462
 30
0.0
 11
-1.71247813361742
 21
2.532928126050087
 31
0.0
  0
ARC
  5
A6D
330
8AE
100
AcDbEntity
  8
LAYER1
  6
CONTINUOUS
100
AcDbCircle
 10
0.0
 20
0.0
 30
0.0
 40
3.057499999976028
100
AcDbArc
 50
123.75
 51
124.0620889955913
  0
ARC
  5
A6E
330
8AE
100
AcDbEntity
  8
LAYER1
  6
CONTINUOUS
100
AcDbCircle
 10
0.0
 20
0.0
 30
0.0
 40
3.057499999976028
100
AcDbArc
 50
130.9379110044086
 51
131.2499999999999
  0
LINE
  5
A6F
330
8AE
100
AcDbEntity
  8
LAYER1
  6
CONTINUOUS
100
AcDbLine
 10
-2.266328306739219
 20
2.065519151952961
 30
0.0
 11
-2.287735324760369
 21
2.028441109250396
 31
0.0
  0
ARC
  5
A70
330
8AE
100
AcDbEntity
  8
LAYER1
  6
CONTINUOUS
100
AcDbCircle
 10
-2.280184713254272
 20
2.073519152000879
 30
0.0
 40
0.0160000000000008
100
AcDbArc
 50
329.9999999999995
 51
28.5000000000007
  0
ARC
  5
A71
330
8AE
100
AcDbEntity
  8
LAYER1
  6
CONTINUOUS
100
AcDbCircle
 10
0.0
 20
0.0
 30
0.0
 40
3.105000000001785
100
AcDbArc
 50
132.9900319482759
 51
137.0099680517239
  0
LINE
  5
A72
330
8AE
100
AcDbEntity
  8
LAYER1
  6
CONTINUOUS
100
AcDbLine
 10
-2.273514645556967
 20
2.094766231970853
 30
0.0
 11
-2.266123639441735
 21
2.081153692155539
 31
0.0
  0
ARC
  5
A73
330
8AE
100
AcDbEntity
  8
LAYER1
  6
CONTINUOUS
100
AcDbCircle
 10
-2.255938303303728
 20
2.104309407176045
 30
0.0
 40
0.02
100
AcDbArc
 50
139.8328386724093
 51
208.5000000000009
  0
ARC
  5
A74
330
8AE
100
AcDbEntity
  8
LAYER1
  6
CONTINUOUS
100
AcDbCircle
 10
-2.104309407176041
 20
2.255938303303731
 30
0.0
 40
0.02
100
AcDbArc
 50
61.49999999999907
 51
130.1671613275935
  0
LINE
  5
A75
330
8AE
100
AcDbEntity
  8
LAYER1
  6
CONTINUOUS
100
AcDbLine
 10
-2.09476623197085
 20
2.27351464555697
 30
0.0
 11
-2.081153692155536
 21
2.266123639441739
 31
0.0
  0
ARC
  5
A76
330
8AE
100
AcDbEntity
  8
LAYER1
  6
CONTINUOUS
100
AcDbCircle
 10
-2.073519152000876
 20
2.280184713254275
 30
0.0
 40
0.0160000000000008
100
AcDbArc
 50
241.4999999999993
 51
300.0000000000019
  0
LINE
  5
A77
330
8AE
100
AcDbEntity
  8
LAYER1
  6
CONTINUOUS
100
AcDbLine
 10
-2.065519151952958
 20
2.266328306739222
 30
0.0
 11
-2.028441109250394
 21
2.287735324760372
 31
0.0
  0
ARC
  5
A78
330
8AE
100
AcDbEntity
  8
LAYER1
  6
CONTINUOUS
100
AcDbCircle
 10
0.0
 20
0.0
 30
0.0
 40
3.057499999976028
100
AcDbArc
 50
131.2499999999999
 51
131.5620889955912
  0
ARC
  5
A79
330
8AE
100
AcDbEntity
  8
LAYER1
  6
CONTINUOUS
100
AcDbCircle
 10
0.0
 20
0.0
 30
0.0
 40
3.057499999976028
100
AcDbArc
 50
138.4379110044086
 51
138.7499999999999
  0
LINE
  5
A7A
330
8AE
100
AcDbEntity
  8
LAYER1
  6
CONTINUOUS
100
AcDbLine
 10
-2.516543903764618
 20
1.752033145073766
 30
0.0
 11
-2.532928126050086
 21
1.712478133617423
 31
0.0
  0
ARC
  5
A7B
330
8AE
100
AcDbEntity
  8
LAYER1
  6
CONTINUOUS
100
AcDbCircle
 10
-2.531325976345089
 20
1.758156080032002
 30
0.0
 40
0.0160000000000008
100
AcDbArc
 50
337.4999999999984
 51
35.99999999999964
  0
ARC
  5
A7C
330
8AE
100
AcDbEntity
  8
LAYER1
  6
CONTINUOUS
100
AcDbCircle
 10
0.0
 20
0.0
 30
0.0
 40
3.105000000001785
100
AcDbArc
 50
140.4900319482758
 51
144.5099680517239
  0
LINE
  5
A7D
330
8AE
100
AcDbEntity
  8
LAYER1
  6
CONTINUOUS
100
AcDbLine
 10
-2.527486272445856
 20
1.780092006825809
 30
0.0
 11
-2.51838170442399
 21
1.767560644060566
 31
0.0
  0
ARC
  5
A7E
330
8AE
100
AcDbEntity
  8
LAYER1
  6
CONTINUOUS
100
AcDbCircle
 10
-2.511305932558357
 20
1.791847711871658
 30
0.0
 40
0.02
100
AcDbArc
 50
147.3328386724076
 51
216.0000000000005
  0
ARC
  5
A7F
330
8AE
100
AcDbEntity
  8
LAYER1
  6
CONTINUOUS
100
AcDbCircle
 10
-2.380765785098856
 20
1.961970944215313
 30
0.0
 40
0.02
100
AcDbArc
 50
69.00000000000058
 51
137.6671613275921
  0
LINE
  5
A80
330
8AE
100
AcDbEntity
  8
LAYER1
  6
CONTINUOUS
100
AcDbLine
 10
-2.37359842610795
 20
1.980642552745257
 30
0.0
 11
-2.359137623572915
 21
1.975091570700465
 31
0.0
  0
ARC
  5
A81
330
8AE
100
AcDbEntity
  8
LAYER1
  6
CONTINUOUS
100
AcDbCircle
 10
-2.3534037363909
 20
1.990028857533041
 30
0.0
 40
0.0160000000000008
100
AcDbArc
 50
248.9999999999993
 51
307.5000000000002
  0
LINE
  5
A82
330
8AE
100
AcDbEntity
  8
LAYER1
  6
CONTINUOUS
100
AcDbLine
 10
-2.343663553472139
 20
1.9773352040406
 30
0.0
 11
-2.309696895113969
 21
2.003398737783944
 31
0.0
  0
ARC
  5
A83
330
8AE
100
AcDbEntity
  8
LAYER1
  6
CONTINUOUS
100
AcDbCircle
 10
0.0
 20
0.0
 30
0.0
 40
3.057499999976028
100
AcDbArc
 50
138.7499999999999
 51
139.0620889955913
  0
ARC
  5
A84
330
8AE
100
AcDbEntity
  8
LAYER1
  6
CONTINUOUS
100
AcDbCircle
 10
0.0
 20
0.0
 30
0.0
 40
3.057499999976028
100
AcDbArc
 50
145.9379110044086
 51
146.2499999999999
  0
LINE
  5
A85
330
8AE
100
AcDbEntity
  8
LAYER1
  6
CONTINUOUS
100
AcDbLine
 10
-2.723700736878819
 20
1.408569365327001
 30
0.0
 11
-2.734781824842735
 21
1.367214182329619
 31
0.0
  0
ARC
  5
A86
330
8AE
100
AcDbEntity
  8
LAYER1
  6
CONTINUOUS
100
AcDbCircle
 10
-2.739155550164491
 20
1.412710470080822
 30
0.0
 40
0.0160000000000008
100
AcDbArc
 50
344.9999999999986
 51
43.50000000000124
  0
ARC
  5
A87
330
8AE
100
AcDbEntity
  8
LAYER1
  6
CONTINUOUS
100
AcDbCircle
 10
0.0
 20
0.0
 30
0.0
 40
3.105000000001785
100
AcDbArc
 50
147.9900319482758
 51
152.0099680517239
  0
LINE
  5
A88
330
8AE
100
AcDbEntity
  8
LAYER1
  6
CONTINUOUS
100
AcDbLine
 10
-2.738211908461614
 20
1.434959913909233
 30
0.0
 11
-2.727549560216231
 21
1.423724143285325
 31
0.0
  0
ARC
  5
A89
330
8AE
100
AcDbEntity
  8
LAYER1
  6
CONTINUOUS
100
AcDbCircle
 10
-2.723704421041368
 20
1.448727005423108
 30
0.0
 40
0.02
100
AcDbArc
 50
154.8328386724079
 51
223.5000000000007
  0
ARC
  5
A8A
330
8AE
100
AcDbEntity
  8
LAYER1
  6
CONTINUOUS
100
AcDbCircle
 10
-2.61648660036565
 20
1.63443371831026
 30
0.0
 40
0.02
100
AcDbArc
 50
76.49999999999906
 51
145.1671613275924
  0
LINE
  5
A8B
330
8AE
100
AcDbEntity
  8
LAYER1
  6
CONTINUOUS
100
AcDbLine
 10
-2.611817693088532
 20
1.653881116718214
 30
0.0
 11
-2.596756056174441
 21
1.65026513758567
 31
0.0
  0
ARC
  5
A8C
330
8AE
100
AcDbEntity
  8
LAYER1
  6
CONTINUOUS
100
AcDbCircle
 10
-2.593020930364491
 20
1.665823056319182
 30
0.0
 40
0.0160000000000008
100
AcDbArc
 50
256.4999999999984
 51
314.9999999999994
  0
LINE
  5
A8D
330
8AE
100
AcDbEntity
  8
LAYER1
  6
CONTINUOUS
100
AcDbLine
 10
-2.581707221805114
 20
1.654509347779955
 30
0.0
 11
-2.551433126733185
 21
1.684783442956967
 31
0.0
  0
ARC
  5
A8E
330
8AE
100
AcDbEntity
  8
LAYER1
  6
CONTINUOUS
100
AcDbCircle
 10
0.0
 20
0.0
 30
0.0
 40
3.057499999976028
100
AcDbArc
 50
146.2499999999999
 51
146.5620889955912
  0
ARC
  5
A8F
330
8AE
100
AcDbEntity
  8
LAYER1
  6
CONTINUOUS
100
AcDbCircle
 10
0.0
 20
0.0
 30
0.0
 40
3.057499999976028
100
AcDbArc
 50
153.4379110044086
 51
153.7499999999999
  0
LINE
  5
A90
330
8AE
100
AcDbEntity
  8
LAYER1
  6
CONTINUOUS
100
AcDbLine
 10
-2.884254295232514
 20
1.041004573210285
 30
0.0
 11
-2.889842648387558
 21
0.9985568173187711
 31
0.0
  0
ARC
  5
A91
330
8AE
100
AcDbEntity
  8
LAYER1
  6
CONTINUOUS
100
AcDbCircle
 10
-2.900117413083186
 20
1.043092992309219
 30
0.0
 40
0.0160000000000008
100
AcDbArc
 50
352.4999999999997
 51
50.9999999999995
  0
ARC
  5
A92
330
8AE
100
AcDbEntity
  8
LAYER1
  6
CONTINUOUS
100
AcDbCircle
 10
0.0
 20
0.0
 30
0.0
 40
3.105000000001785
100
AcDbArc
 50
155.4900319482758
 51
159.5099680517239
  0
LINE
  5
A93
330
8AE
100
AcDbEntity
  8
LAYER1
  6
CONTINUOUS
100
AcDbLine
 10
-2.902085979547826
 20
1.06527525901962
 30
0.0
 11
-2.890048286813567
 21
1.055527327687565
 31
0.0
  0
ARC
  5
A94
330
8AE
100
AcDbEntity
  8
LAYER1
  6
CONTINUOUS
100
AcDbCircle
 10
-2.88949957172683
 20
1.080818178248759
 30
0.0
 40
0.02
100
AcDbArc
 50
162.3328386724073
 51
231.0
  0
ARC
  5
A95
330
8AE
100
AcDbEntity
  8
LAYER1
  6
CONTINUOUS
100
AcDbCircle
 10
-2.807438604473053
 20
1.278930878334282
 30
0.0
 40
0.02
100
AcDbArc
 50
83.99999999999892
 51
152.6671613275922
  0
LINE
  5
A96
330
8AE
100
AcDbEntity
  8
LAYER1
  6
CONTINUOUS
100
AcDbLine
 10
-2.8053480352077
 20
1.298821316241647
 30
0.0
 11
-2.789943272698028
 21
1.297202210426849
 31
0.0
  0
ARC
  5
A97
330
8AE
100
AcDbEntity
  8
LAYER1
  6
CONTINUOUS
100
AcDbCircle
 10
-2.788270817298323
 20
1.313114560758297
 30
0.0
 40
0.0160000000000008
100
AcDbArc
 50
263.9999999999995
 51
322.5000000000009
  0
LINE
  5
A98
330
8AE
100
AcDbEntity
  8
LAYER1
  6
CONTINUOUS
100
AcDbLine
 10
-2.775577163788535
 20
1.303374377862141
 30
0.0
 11
-2.749513630163091
 21
1.337341036310778
 31
0.0
  0
ARC
  5
A99
330
8AE
100
AcDbEntity
  8
LAYER1
  6
CONTINUOUS
100
AcDbCircle
 10
0.0
 20
0.0
 30
0.0
 40
3.057499999976028
100
AcDbArc
 50
153.7499999999999
 51
154.0620889955912
  0
ARC
  5
A9A
330
8AE
100
AcDbEntity
  8
LAYER1
  6
CONTINUOUS
100
AcDbCircle
 10
0.0
 20
0.0
 30
0.0
 40
3.057499999976028
100
AcDbArc
 50
160.9379110044085
 51
161.2499999999999
  0
LINE
  5
A9B
330
8AE
100
AcDbEntity
  8
LAYER1
  6
CONTINUOUS
100
AcDbLine
 10
-2.995457462928416
 20
0.6556279042249452
 30
0.0
 11
-2.995457463002721
 21
0.6128138683113454
 31
0.0
  0
ARC
  5
A9C
330
8AE
100
AcDbEntity
  8
LAYER1
  6
CONTINUOUS
100
AcDbCircle
 10
-3.011457462999575
 20
0.6556279042391928
 30
0.0
 40
0.0160000000000008
100
AcDbArc
 50
359.9999999999992
 51
58.49999999999987
  0
ARC
  5
A9D
330
8AE
100
AcDbEntity
  8
LAYER1
  6
CONTINUOUS
100
AcDbCircle
 10
0.0
 20
0.0
 30
0.0
 40
3.105000000001785
100
AcDbArc
 50
162.9900319482758
 51
167.0099680517239
  0
LINE
  5
A9E
330
8AE
100
AcDbEntity
  8
LAYER1
  6
CONTINUOUS
100
AcDbLine
 10
-3.016304554913734
 20
0.6773634490980818
 30
0.0
 11
-3.00309748595076
 21
0.6692701468656087
 31
0.0
  0
ARC
  5
A9F
330
8AE
100
AcDbEntity
  8
LAYER1
  6
CONTINUOUS
100
AcDbCircle
 10
-3.005854583619414
 20
0.6944162523851634
 30
0.0
 40
0.02
100
AcDbArc
 50
169.8328386724079
 51
238.4999999999995
  0
ARC
  5
AA0
330
8AE
100
AcDbEntity
  8
LAYER1
  6
CONTINUOUS
100
AcDbCircle
 10
-2.950354555688889
 20
0.9015451764433748
 30
0.0
 40
0.02
100
AcDbArc
 50
91.50000000000084
 51
160.1671613275919
  0
LINE
  5
AA1
330
8AE
100
AcDbEntity
  8
LAYER1
  6
CONTINUOUS
100
AcDbLine
 10
-2.950878094655047
 20
0.9215383229428861
 30
0.0
 11
-2.935393786307342
 21
0.921943793795226
 31
0.0
  0
ARC
  5
AA2
330
8AE
100
AcDbEntity
  8
LAYER1
  6
CONTINUOUS
100
AcDbCircle
 10
-2.935812617493463
 20
0.9379383109987004
 30
0.0
 40
0.0160000000000008
100
AcDbArc
 50
271.5000000000011
 51
330.0000000000014
  0
LINE
  5
AA3
330
8AE
100
AcDbEntity
  8
LAYER1
  6
CONTINUOUS
100
AcDbLine
 10
-2.921956210964162
 20
0.9299383109754595
 30
0.0
 11
-2.900549193071712
 21
0.9670163537523285
 31
0.0
  0
ARC
  5
AA4
330
8AE
100
AcDbEntity
  8
LAYER1
  6
CONTINUOUS
100
AcDbCircle
 10
0.0
 20
0.0
 30
0.0
 40
3.057499999976028
100
AcDbArc
 50
161.2499999999999
 51
161.5620889955912
  0
ARC
  5
AA5
330
8AE
100
AcDbEntity
  8
LAYER1
  6
CONTINUOUS
100
AcDbCircle
 10
0.0
 20
0.0
 30
0.0
 40
3.057499999976028
100
AcDbArc
 50
168.4379110044085
 51
168.7499999999999
  0
LINE
  5
AA6
330
8AE
100
AcDbEntity
  8
LAYER1
  6
CONTINUOUS
100
AcDbLine
 10
-3.055407522935904
 20
0.2590332600239207
 30
0.0
 11
-3.049819169928198
 21
0.2165855041130097
 31
0.0
  0
ARC
  5
AA7
330
8AE
100
AcDbEntity
  8
LAYER1
  6
CONTINUOUS
100
AcDbCircle
 10
-3.071270640790295
 20
0.2569448409532374
 30
0.0
 40
0.0160000000000008
100
AcDbArc
 50
7.499999999999146
 51
65.99999999999919
  0
ARC
  5
AA8
330
8AE
100
AcDbEntity
  8
LAYER1
  6
CONTINUOUS
100
AcDbCircle
 10
0.0
 20
0.0
 30
0.0
 40
3.105000000001785
100
AcDbArc
 50
170.4900319482758
 51
174.5099680517238
  0
LINE
  5
AA9
330
8AE
100
AcDbEntity
  8
LAYER1
  6
CONTINUOUS
100
AcDbLine
 10
-3.078913323067453
 20
0.2778617627618469
 30
0.0
 11
-3.064762854487412
 21
0.271561568274041
 31
0.0
  0
ARC
  5
AAA
330
8AE
100
AcDbEntity
  8
LAYER1
  6
CONTINUOUS
100
AcDbCircle
 10
-3.070778590205936
 20
0.2961326719146987
 30
0.0
 40
0.02
100
AcDbArc
 50
177.3328386724077
 51
246.0
  0
ARC
  5
AAB
330
8AE
100
AcDbEntity
  8
LAYER1
  6
CONTINUOUS
100
AcDbCircle
 10
-3.042789122464069
 20
0.5087337866279767
 30
0.0
 40
0.02
100
AcDbArc
 50
99.00000000000017
 51
167.6671613275922
  0
LINE
  5
AAC
330
8AE
100
AcDbEntity
  8
LAYER1
  6
CONTINUOUS
100
AcDbLine
 10
-3.045917811764874
 20
0.5284875534398795
 30
0.0
 11
-3.030618898388026
 21
0.5309106632406558
 31
0.0
  0
ARC
  5
AAD
330
8AE
100
AcDbEntity
  8
LAYER1
  6
CONTINUOUS
100
AcDbCircle
 10
-3.033121849842257
 20
0.5467136766922883
 30
0.0
 40
0.0160000000000008
100
AcDbArc
 50
279.0000000000001
 51
337.5000000000002
  0
LINE
  5
AAE
330
8AE
100
AcDbEntity
  8
LAYER1
  6
CONTINUOUS
100
AcDbLine
 10
-3.018339777250881
 20
0.5405907417603785
 30
0.0
 11
-3.001955555102711
 21
0.5801457532735916
 31
0.0
  0
ARC
  5
AAF
330
8AE
100
AcDbEntity
  8
LAYER1
  6
CONTINUOUS
100
AcDbCircle
 10
0.0
 20
0.0
 30
0.0
 40
3.057499999976028
100
AcDbArc
 50
168.7499999999999
 51
169.0620889955912
  0
ARC
  5
AB0
330
8AE
100
AcDbEntity
  8
LAYER1
  6
CONTINUOUS
100
AcDbCircle
 10
0.0
 20
0.0
 30
0.0
 40
3.057499999976028
100
AcDbArc
 50
175.9379110044085
 51
176.2499999999999
  0
LINE
  5
AB1
330
8AE
100
AcDbEntity
  8
LAYER1
  6
CONTINUOUS
100
AcDbLine
 10
-3.063078713106953
 20
-0.1419935150737034
 30
0.0
 11
-3.051997625286583
 21
-0.1833486981095487
 31
0.0
  0
ARC
  5
AB2
330
8AE
100
AcDbEntity
  8
LAYER1
  6
CONTINUOUS
100
AcDbCircle
 10
-3.0785335264
 20
-0.146134619799999
 30
0.0
 40
0.0160000000000008
100
AcDbArc
 50
14.99999999999905
 51
73.50000000000037
  0
ARC
  5
AB3
330
8AE
100
AcDbEntity
  8
LAYER1
  6
CONTINUOUS
100
AcDbCircle
 10
0.0
 20
0.0
 30
0.0
 40
3.105000000001785
100
AcDbArc
 50
177.9900319482759
 51
182.0099680517238
  0
LINE
  5
AB4
330
8AE
100
AcDbEntity
  8
LAYER1
  6
CONTINUOUS
100
AcDbLine
 10
-3.088841030627444
 20
-0.1263942153730805
 30
0.0
 11
-3.073989280870992
 21
-0.1307935040417891
 31
0.0
  0
ARC
  5
AB5
330
8AE
100
AcDbEntity
  8
LAYER1
  6
CONTINUOUS
100
AcDbCircle
 10
-3.083160723733365
 20
-0.1072178206757168
 30
0.0
 40
0.02
100
AcDbArc
 50
184.8328386724076
 51
253.4999999999999
  0
ARC
  5
AB6
330
8AE
100
AcDbEntity
  8
LAYER1
  6
CONTINUOUS
100
AcDbCircle
 10
-3.083160723733365
 20
0.1072178206757187
 30
0.0
 40
0.02
100
AcDbArc
 50
106.5000000000002
 51
175.1671613275923
  0
LINE
  5
AB7
330
8AE
100
AcDbEntity
  8
LAYER1
  6
CONTINUOUS
100
AcDbLine
 10
-3.088841030627444
 20
0.1263942153730825
 30
0.0
 11
-3.073989280870992
 21
0.130793504041791
 31
0.0
  0
ARC
  5
AB8
330
8AE
100
AcDbEntity
  8
LAYER1
  6
CONTINUOUS
100
AcDbCircle
 10
-3.0785335264
 20
0.1461346198000009
 30
0.0
 40
0.0160000000000008
100
AcDbArc
 50
286.4999999999996
 51
345.0000000000009
  0
LINE
  5
AB9
330
8AE
100
AcDbEntity
  8
LAYER1
  6
CONTINUOUS
100
AcDbLine
 10
-3.063078713106953
 20
0.1419935150737054
 30
0.0
 11
-3.051997625286583
 21
0.1833486981095505
 31
0.0
  0
ARC
  5
ABA
330
8AE
100
AcDbEntity
  8
LAYER1
  6
CONTINUOUS
100
AcDbCircle
 10
0.0
 20
0.0
 30
0.0
 40
3.057499999976028
100
AcDbArc
 50
176.2499999999999
 51
176.5620889955913
  0
ARC
  5
ABB
330
8AE
100
AcDbEntity
  8
LAYER1
  6
CONTINUOUS
100
AcDbCircle
 10
0.0
 20
0.0
 30
0.0
 40
3.057499999976028
100
AcDbArc
 50
183.4379110044085
 51
183.7499999999998
  0
LINE
  5
ABC
330
8AE
100
AcDbEntity
  8
LAYER1
  6
CONTINUOUS
100
AcDbLine
 10
-3.018339777250882
 20
-0.5405907417603739
 30
0.0
 11
-3.001955555102712
 21
-0.5801457532735872
 31
0.0
  0
ARC
  5
ABD
330
8AE
100
AcDbEntity
  8
LAYER1
  6
CONTINUOUS
100
AcDbCircle
 10
-3.033121849842257
 20
-0.5467136766922838
 30
0.0
 40
0.0160000000000008
100
AcDbArc
 50
22.49999999999945
 51
80.99999999999993
  0
ARC
  5
ABE
330
8AE
100
AcDbEntity
  8
LAYER1
  6
CONTINUOUS
100
AcDbCircle
 10
0.0
 20
0.0
 30
0.0
 40
3.105000000001785
100
AcDbArc
 50
185.4900319482758
 51
189.5099680517239
  0
LINE
  5
ABF
330
8AE
100
AcDbEntity
  8
LAYER1
  6
CONTINUOUS
100
AcDbLine
 10
-3.045917811764875
 20
-0.528487553439875
 30
0.0
 11
-3.030618898388027
 21
-0.5309106632406513
 31
0.0
  0
ARC
  5
AC0
330
8AE
100
AcDbEntity
  8
LAYER1
  6
CONTINUOUS
100
AcDbCircle
 10
-3.04278912246407
 20
-0.5087337866279723
 30
0.0
 40
0.02
100
AcDbArc
 50
192.3328386724081
 51
260.9999999999998
  0
ARC
  5
AC1
330
8AE
100
AcDbEntity
  8
LAYER1
  6
CONTINUOUS
100
AcDbCircle
 10
-3.070778590205937
 20
-0.2961326719146942
 30
0.0
 40
0.02
100
AcDbArc
 50
114.0
 51
182.6671613275921
  0
LINE
  5
AC2
330
8AE
100
AcDbEntity
  8
LAYER1
  6
CONTINUOUS
100
AcDbLine
 10
-3.078913323067454
 20
-0.2778617627618423
 30
0.0
 11
-3.064762854487413
 21
-0.2715615682740364
 31
0.0
  0
ARC
  5
AC3
330
8AE
100
AcDbEntity
  8
LAYER1
  6
CONTINUOUS
100
AcDbCircle
 10
-3.071270640790295
 20
-0.2569448409532328
 30
0.0
 40
0.0160000000000008
100
AcDbArc
 50
294.0000000000008
 51
352.5000000000007
  0
LINE
  5
AC4
330
8AE
100
AcDbEntity
  8
LAYER1
  6
CONTINUOUS
100
AcDbLine
 10
-3.055407522935904
 20
-0.2590332600239161
 30
0.0
 11
-3.049819169928198
 21
-0.2165855041130052
 31
0.0
  0
ARC
  5
AC5
330
8AE
100
AcDbEntity
  8
LAYER1
  6
CONTINUOUS
100
AcDbCircle
 10
0.0
 20
0.0
 30
0.0
 40
3.057499999976028
100
AcDbArc
 50
183.7499999999999
 51
184.0620889955912
  0
ARC
  5
AC6
330
8AE
100
AcDbEntity
  8
LAYER1
  6
CONTINUOUS
100
AcDbCircle
 10
0.0
 20
0.0
 30
0.0
 40
3.057499999976028
100
AcDbArc
 50
190.9379110044085
 51
191.2499999999998
  0
LINE
  5
AC7
330
8AE
100
AcDbEntity
  8
LAYER1
  6
CONTINUOUS
100
AcDbLine
 10
-2.921956210964164
 20
-0.9299383109754551
 30
0.0
 11
-2.900549193071714
 21
-0.9670163537523242
 31
0.0
  0
ARC
  5
AC8
330
8AE
100
AcDbEntity
  8
LAYER1
  6
CONTINUOUS
100
AcDbCircle
 10
-2.935812617493464
 20
-0.9379383109986961
 30
0.0
 40
0.0160000000000008
100
AcDbArc
 50
29.99999999999865
 51
88.50000000000051
  0
ARC
  5
AC9
330
8AE
100
AcDbEntity
  8
LAYER1
  6
CONTINUOUS
100
AcDbCircle
 10
0.0
 20
0.0
 30
0.0
 40
3.105000000001785
100
AcDbArc
 50
192.9900319482758
 51
197.0099680517239
  0
LINE
  5
ACA
330
8AE
100
AcDbEntity
  8
LAYER1
  6
CONTINUOUS
100
AcDbLine
 10
-2.950878094655048
 20
-0.9215383229428816
 30
0.0
 11
-2.935393786307343
 21
-0.9219437937952215
 31
0.0
  0
ARC
  5
ACB
330
8AE
100
AcDbEntity
  8
LAYER1
  6
CONTINUOUS
100
AcDbCircle
 10
-2.95035455568889
 20
-0.9015451764433705
 30
0.0
 40
0.02
100
AcDbArc
 50
199.8328386724067
 51
268.5000000000004
  0
ARC
  5
ACC
330
8AE
100
AcDbEntity
  8
LAYER1
  6
CONTINUOUS
100
AcDbCircle
 10
-3.005854583619415
 20
-0.6944162523851588
 30
0.0
 40
0.02
100
AcDbArc
 50
121.5000000000004
 51
190.1671613275918
  0
LINE
  5
ACD
330
8AE
100
AcDbEntity
  8
LAYER1
  6
CONTINUOUS
100
AcDbLine
 10
-3.016304554913735
 20
-0.6773634490980771
 30
0.0
 11
-3.003097485950761
 21
-0.6692701468656042
 31
0.0
  0
ARC
  5
ACE
330
8AE
100
AcDbEntity
  8
LAYER1
  6
CONTINUOUS
100
AcDbCircle
 10
-3.011457462999576
 20
-0.6556279042391884
 30
0.0
 40
0.0160000000000008
100
AcDbArc
 50
301.5000000000003
 51
0.0000000000007951
  0
LINE
  5
ACF
330
8AE
100
AcDbEntity
  8
LAYER1
  6
CONTINUOUS
100
AcDbLine
 10
-2.995457462928417
 20
-0.6556279042249407
 30
0.0
 11
-2.995457463002721
 21
-0.6128138683113411
 31
0.0
  0
ARC
  5
AD0
330
8AE
100
AcDbEntity
  8
LAYER1
  6
CONTINUOUS
100
AcDbCircle
 10
0.0
 20
0.0
 30
0.0
 40
3.057499999976028
100
AcDbArc
 50
191.2499999999999
 51
191.5620889955912
  0
ARC
  5
AD1
330
8AE
100
AcDbEntity
  8
LAYER1
  6
CONTINUOUS
100
AcDbCircle
 10
0.0
 20
0.0
 30
0.0
 40
3.057499999976028
100
AcDbArc
 50
198.4379110044085
 51
198.7499999999999
  0
LINE
  5
AD2
330
8AE
100
AcDbEntity
  8
LAYER1
  6
CONTINUOUS
100
AcDbLine
 10
-2.775577163788537
 20
-1.303374377862137
 30
0.0
 11
-2.749513630163093
 21
-1.337341036310774
 31
0.0
  0
ARC
  5
AD3
330
8AE
100
AcDbEntity
  8
LAYER1
  6
CONTINUOUS
100
AcDbCircle
 10
-2.788270817298325
 20
-1.313114560758292
 30
0.0
 40
0.0160000000000008
100
AcDbArc
 50
37.49999999999848
 51
96.0000000000005
  0
ARC
  5
AD4
330
8AE
100
AcDbEntity
  8
LAYER1
  6
CONTINUOUS
100
AcDbCircle
 10
0.0
 20
0.0
 30
0.0
 40
3.105000000001785
100
AcDbArc
 50
200.4900319482758
 51
204.5099680517238
  0
LINE
  5
AD5
330
8AE
100
AcDbEntity
  8
LAYER1
  6
CONTINUOUS
100
AcDbLine
 10
-2.805348035207702
 20
-1.298821316241643
 30
0.0
 11
-2.78994327269803
 21
-1.297202210426845
 31
0.0
  0
ARC
  5
AD6
330
8AE
100
AcDbEntity
  8
LAYER1
  6
CONTINUOUS
100
AcDbCircle
 10
-2.807438604473055
 20
-1.278930878334277
 30
0.0
 40
0.02
100
AcDbArc
 50
207.3328386724072
 51
276.0000000000011
  0
ARC
  5
AD7
330
8AE
100
AcDbEntity
  8
LAYER1
  6
CONTINUOUS
100
AcDbCircle
 10
-2.889499571726831
 20
-1.080818178248755
 30
0.0
 40
0.02
100
AcDbArc
 50
129.0
 51
197.6671613275922
  0
LINE
  5
AD8
330
8AE
100
AcDbEntity
  8
LAYER1
  6
CONTINUOUS
100
AcDbLine
 10
-2.902085979547828
 20
-1.065275259019616
 30
0.0
 11
-2.890048286813569
 21
-1.055527327687561
 31
0.0
  0
ARC
  5
AD9
330
8AE
100
AcDbEntity
  8
LAYER1
  6
CONTINUOUS
100
AcDbCircle
 10
-2.900117413083187
 20
-1.043092992309215
 30
0.0
 40
0.0160000000000008
100
AcDbArc
 50
309.0000000000006
 51
7.50000000000033
  0
LINE
  5
ADA
330
8AE
100
AcDbEntity
  8
LAYER1
  6
CONTINUOUS
100
AcDbLine
 10
-2.884254295232516
 20
-1.04100457321028
 30
0.0
 11
-2.889842648387559
 21
-0.9985568173187669
 31
0.0
  0
ARC
  5
ADB
330
8AE
100
AcDbEntity
  8
LAYER1
  6
CONTINUOUS
100
AcDbCircle
 10
0.0
 20
0.0
 30
0.0
 40
3.057499999976028
100
AcDbArc
 50
198.7499999999999
 51
199.0620889955912
  0
ARC
  5
ADC
330
8AE
100
AcDbEntity
  8
LAYER1
  6
CONTINUOUS
100
AcDbCircle
 10
0.0
 20
0.0
 30
0.0
 40
3.057499999976028
100
AcDbArc
 50
205.9379110044085
 51
206.2499999999998
  0
LINE
  5
ADD
330
8AE
100
AcDbEntity
  8
LAYER1
  6
CONTINUOUS
100
AcDbLine
 10
-2.581707221805117
 20
-1.654509347779951
 30
0.0
 11
-2.551433126733187
 21
-1.684783442956963
 31
0.0
  0
ARC
  5
ADE
330
8AE
100
AcDbEntity
  8
LAYER1
  6
CONTINUOUS
100
AcDbCircle
 10
-2.593020930364494
 20
-1.665823056319178
 30
0.0
 40
0.0160000000000008
100
AcDbArc
 50
44.99999999999888
 51
103.4999999999999
  0
ARC
  5
ADF
330
8AE
100
AcDbEntity
  8
LAYER1
  6
CONTINUOUS
100
AcDbCircle
 10
0.0
 20
0.0
 30
0.0
 40
3.105000000001785
100
AcDbArc
 50
207.9900319482758
 51
212.0099680517238
  0
LINE
  5
AE0
330
8AE
100
AcDbEntity
  8
LAYER1
  6
CONTINUOUS
100
AcDbLine
 10
-2.611817693088535
 20
-1.65388111671821
 30
0.0
 11
-2.596756056174443
 21
-1.650265137585666
 31
0.0
  0
ARC
  5
AE1
330
8AE
100
AcDbEntity
  8
LAYER1
  6
CONTINUOUS
100
AcDbCircle
 10
-2.616486600365652
 20
-1.634433718310256
 30
0.0
 40
0.02
100
AcDbArc
 50
214.8328386724076
 51
283.500000000001
  0
ARC
  5
AE2
330
8AE
100
AcDbEntity
  8
LAYER1
  6
CONTINUOUS
100
AcDbCircle
 10
-2.72370442104137
 20
-1.448727005423104
 30
0.0
 40
0.02
100
AcDbArc
 50
136.4999999999993
 51
205.1671613275915
  0
LINE
  5
AE3
330
8AE
100
AcDbEntity
  8
LAYER1
  6
CONTINUOUS
100
AcDbLine
 10
-2.738211908461616
 20
-1.434959913909229
 30
0.0
 11
-2.727549560216233
 21
-1.42372414328532
 31
0.0
  0
ARC
  5
AE4
330
8AE
100
AcDbEntity
  8
LAYER1
  6
CONTINUOUS
100
AcDbCircle
 10
-2.739155550164493
 20
-1.412710470080817
 30
0.0
 40
0.0160000000000008
100
AcDbArc
 50
316.5000000000005
 51
15.00000000000139
  0
LINE
  5
AE5
330
8AE
100
AcDbEntity
  8
LAYER1
  6
CONTINUOUS
100
AcDbLine
 10
-2.723700736878822
 20
-1.408569365326997
 30
0.0
 11
-2.734781824842737
 21
-1.367214182329615
 31
0.0
  0
ARC
  5
AE6
330
8AE
100
AcDbEntity
  8
LAYER1
  6
CONTINUOUS
100
AcDbCircle
 10
0.0
 20
0.0
 30
0.0
 40
3.057499999976028
100
AcDbArc
 50
206.2499999999999
 51
206.5620889955912
  0
ARC
  5
AE7
330
8AE
100
AcDbEntity
  8
LAYER1
  6
CONTINUOUS
100
AcDbCircle
 10
0.0
 20
0.0
 30
0.0
 40
3.057499999976028
100
AcDbArc
 50
213.4379110044085
 51
213.7499999999998
  0
LINE
  5
AE8
330
8AE
100
AcDbEntity
  8
LAYER1
  6
CONTINUOUS
100
AcDbLine
 10
-2.343663553472142
 20
-1.977335204040596
 30
0.0
 11
-2.309696895113972
 21
-2.00339873778394
 31
0.0
  0
ARC
  5
AE9
330
8AE
100
AcDbEntity
  8
LAYER1
  6
CONTINUOUS
100
AcDbCircle
 10
-2.353403736390904
 20
-1.990028857533037
 30
0.0
 40
0.0160000000000008
100
AcDbArc
 50
52.49999999999977
 51
111.0000000000007
  0
ARC
  5
AEA
330
8AE
100
AcDbEntity
  8
LAYER1
  6
CONTINUOUS
100
AcDbCircle
 10
0.0
 20
0.0
 30
0.0
 40
3.105000000001785
100
AcDbArc
 50
215.4900319482758
 51
219.5099680517239
  0
LINE
  5
AEB
330
8AE
100
AcDbEntity
  8
LAYER1
  6
CONTINUOUS
100
AcDbLine
 10
-2.373598426107953
 20
-1.980642552745254
 30
0.0
 11
-2.359137623572917
 21
-1.975091570700461
 31
0.0
  0
ARC
  5
AEC
330
8AE
100
AcDbEntity
  8
LAYER1
  6
CONTINUOUS
100
AcDbCircle
 10
-2.380765785098859
 20
-1.961970944215309
 30
0.0
 40
0.02
100
AcDbArc
 50
222.3328386724078
 51
290.9999999999994
  0
ARC
  5
AED
330
8AE
100
AcDbEntity
  8
LAYER1
  6
CONTINUOUS
100
AcDbCircle
 10
-2.51130593255836
 20
-1.791847711871655
 30
0.0
 40
0.02
100
AcDbArc
 50
144.0000000000005
 51
212.6671613275918
  0
LINE
  5
AEE
330
8AE
100
AcDbEntity
  8
LAYER1
  6
CONTINUOUS
100
AcDbLine
 10
-2.527486272445859
 20
-1.780092006825805
 30
0.0
 11
-2.518381704423993
 21
-1.767560644060563
 31
0.0
  0
ARC
  5
AEF
330
8AE
100
AcDbEntity
  8
LAYER1
  6
CONTINUOUS
100
AcDbCircle
 10
-2.531325976345092
 20
-1.758156080031998
 30
0.0
 40
0.0160000000000008
100
AcDbArc
 50
324.0000000000003
 51
22.50000000000018
  0
LINE
  5
AF0
330
8AE
100
AcDbEntity
  8
LAYER1
  6
CONTINUOUS
100
AcDbLine
 10
-2.516543903764621
 20
-1.752033145073762
 30
0.0
 11
-2.532928126050088
 21
-1.712478133617419
 31
0.0
  0
ARC
  5
AF1
330
8AE
100
AcDbEntity
  8
LAYER1
  6
CONTINUOUS
100
AcDbCircle
 10
0.0
 20
0.0
 30
0.0
 40
3.057499999976028
100
AcDbArc
 50
213.7499999999998
 51
214.0620889955912
  0
ARC
  5
AF2
330
8AE
100
AcDbEntity
  8
LAYER1
  6
CONTINUOUS
100
AcDbCircle
 10
0.0
 20
0.0
 30
0.0
 40
3.057499999976028
100
AcDbArc
 50
220.9379110044085
 51
221.2499999999998
  0
LINE
  5
AF3
330
8AE
100
AcDbEntity
  8
LAYER1
  6
CONTINUOUS
100
AcDbLine
 10
-2.06551915195296
 20
-2.266328306739219
 30
0.0
 11
-2.028441109250396
 21
-2.287735324760369
 31
0.0
  0
ARC
  5
AF4
330
8AE
100
AcDbEntity
  8
LAYER1
  6
CONTINUOUS
100
AcDbCircle
 10
-2.073519152000879
 20
-2.280184713254272
 30
0.0
 40
0.0160000000000008
100
AcDbArc
 50
59.99999999999814
 51
118.4999999999986
  0
ARC
  5
AF5
330
8AE
100
AcDbEntity
  8
LAYER1
  6
CONTINUOUS
100
AcDbCircle
 10
0.0
 20
0.0
 30
0.0
 40
3.105000000001785
100
AcDbArc
 50
222.9900319482758
 51
227.0099680517239
  0
LINE
  5
AF6
330
8AE
100
AcDbEntity
  8
LAYER1
  6
CONTINUOUS
100
AcDbLine
 10
-2.094766231970852
 20
-2.273514645556968
 30
0.0
 11
-2.081153692155538
 21
-2.266123639441736
 31
0.0
  0
ARC
  5
AF7
330
8AE
100
AcDbEntity
  8
LAYER1
  6
CONTINUOUS
100
AcDbCircle
 10
-2.104309407176043
 20
-2.255938303303729
 30
0.0
 40
0.02
100
AcDbArc
 50
229.8328386724065
 51
298.4999999999981
  0
ARC
  5
AF8
330
8AE
100
AcDbEntity
  8
LAYER1
  6
CONTINUOUS
100
AcDbCircle
 10
-2.25593830330373
 20
-2.104309407176042
 30
0.0
 40
0.02
100
AcDbArc
 50
151.5000000000008
 51
220.1671613275917
  0
LINE
  5
AF9
330
8AE
100
AcDbEntity
  8
LAYER1
  6
CONTINUOUS
100
AcDbLine
 10
-2.27351464555697
 20
-2.09476623197085
 30
0.0
 11
-2.266123639441738
 21
-2.081153692155536
 31
0.0
  0
ARC
  5
AFA
330
8AE
100
AcDbEntity
  8
LAYER1
  6
CONTINUOUS
100
AcDbCircle
 10
-2.280184713254275
 20
-2.073519152000876
 30
0.0
 40
0.0160000000000008
100
AcDbArc
 50
331.4999999999993
 51
29.99999999999969
  0
LINE
  5
AFB
330
8AE
100
AcDbEntity
  8
LAYER1
  6
CONTINUOUS
100
AcDbLine
 10
-2.266328306739221
 20
-2.065519151952958
 30
0.0
 11
-2.287735324760371
 21
-2.028441109250394
 31
0.0
  0
ARC
  5
AFC
330
8AE
100
AcDbEntity
  8
LAYER1
  6
CONTINUOUS
100
AcDbCircle
 10
0.0
 20
0.0
 30
0.0
 40
3.057499999976028
100
AcDbArc
 50
221.2499999999999
 51
221.5620889955913
  0
ARC
  5
AFD
330
8AE
100
AcDbEntity
  8
LAYER1
  6
CONTINUOUS
100
AcDbCircle
 10
0.0
 20
0.0
 30
0.0
 40
3.057499999976028
100
AcDbArc
 50
228.4379110044086
 51
228.7499999999999
  0
LINE
  5
AFE
330
8AE
100
AcDbEntity
  8
LAYER1
  6
CONTINUOUS
100
AcDbLine
 10
-1.752033145073766
 20
-2.516543903764618
 30
0.0
 11
-1.712478133617423
 21
-2.532928126050086
 31
0.0
  0
ARC
  5
AFF
330
8AE
100
AcDbEntity
  8
LAYER1
  6
CONTINUOUS
100
AcDbCircle
 10
-1.758156080032002
 20
-2.531325976345089
 30
0.0
 40
0.0160000000000008
100
AcDbArc
 50
67.49999999999837
 51
125.9999999999997
  0
ARC
  5
B00
330
8AE
100
AcDbEntity
  8
LAYER1
  6
CONTINUOUS
100
AcDbCircle
 10
0.0
 20
0.0
 30
0.0
 40
3.105000000001785
100
AcDbArc
 50
230.4900319482758
 51
234.5099680517239
  0
LINE
  5
B01
330
8AE
100
AcDbEntity
  8
LAYER1
  6
CONTINUOUS
100
AcDbLine
 10
-1.780092006825809
 20
-2.527486272445856
 30
0.0
 11
-1.767560644060566
 21
-2.51838170442399
 31
0.0
  0
ARC
  5
B02
330
8AE
100
AcDbEntity
  8
LAYER1
  6
CONTINUOUS
100
AcDbCircle
 10
-1.791847711871658
 20
-2.511305932558357
 30
0.0
 40
0.02
100
AcDbArc
 50
237.3328386724082
 51
306.0000000000006
  0
ARC
  5
B03
330
8AE
100
AcDbEntity
  8
LAYER1
  6
CONTINUOUS
100
AcDbCircle
 10
-1.961970944215313
 20
-2.380765785098856
 30
0.0
 40
0.02
100
AcDbArc
 50
159.0000000000006
 51
227.6671613275922
  0
LINE
  5
B04
330
8AE
100
AcDbEntity
  8
LAYER1
  6
CONTINUOUS
100
AcDbLine
 10
-1.980642552745257
 20
-2.37359842610795
 30
0.0
 11
-1.975091570700465
 21
-2.359137623572915
 31
0.0
  0
ARC
  5
B05
330
8AE
100
AcDbEntity
  8
LAYER1
  6
CONTINUOUS
100
AcDbCircle
 10
-1.990028857533041
 20
-2.3534037363909
 30
0.0
 40
0.0160000000000008
100
AcDbArc
 50
338.9999999999993
 51
37.50000000000023
  0
LINE
  5
B06
330
8AE
100
AcDbEntity
  8
LAYER1
  6
CONTINUOUS
100
AcDbLine
 10
-1.9773352040406
 20
-2.343663553472139
 30
0.0
 11
-2.003398737783944
 21
-2.309696895113969
 31
0.0
  0
ARC
  5
B07
330
8AE
100
AcDbEntity
  8
LAYER1
  6
CONTINUOUS
100
AcDbCircle
 10
0.0
 20
0.0
 30
0.0
 40
3.057499999976028
100
AcDbArc
 50
228.7499999999999
 51
229.0620889955912
  0
ARC
  5
B08
330
8AE
100
AcDbEntity
  8
LAYER1
  6
CONTINUOUS
100
AcDbCircle
 10
0.0
 20
0.0
 30
0.0
 40
3.057499999976028
100
AcDbArc
 50
235.9379110044086
 51
236.2499999999999
  0
LINE
  5
B09
330
8AE
100
AcDbEntity
  8
LAYER1
  6
CONTINUOUS
100
AcDbLine
 10
-1.408569365327001
 20
-2.723700736878819
 30
0.0
 11
-1.367214182329619
 21
-2.734781824842735
 31
0.0
  0
ARC
  5
B0A
330
8AE
100
AcDbEntity
  8
LAYER1
  6
CONTINUOUS
100
AcDbCircle
 10
-1.412710470080822
 20
-2.739155550164491
 30
0.0
 40
0.0160000000000008
100
AcDbArc
 50
74.99999999999861
 51
133.5000000000013
  0
ARC
  5
B0B
330
8AE
100
AcDbEntity
  8
LAYER1
  6
CONTINUOUS
100
AcDbCircle
 10
0.0
 20
0.0
 30
0.0
 40
3.105000000001785
100
AcDbArc
 50
237.9900319482759
 51
242.0099680517239
  0
LINE
  5
B0C
330
8AE
100
AcDbEntity
  8
LAYER1
  6
CONTINUOUS
100
AcDbLine
 10
-1.434959913909233
 20
-2.738211908461614
 30
0.0
 11
-1.423724143285325
 21
-2.727549560216231
 31
0.0
  0
ARC
  5
B0D
330
8AE
100
AcDbEntity
  8
LAYER1
  6
CONTINUOUS
100
AcDbCircle
 10
-1.448727005423108
 20
-2.723704421041368
 30
0.0
 40
0.02
100
AcDbArc
 50
244.8328386724079
 51
313.5000000000007
  0
ARC
  5
B0E
330
8AE
100
AcDbEntity
  8
LAYER1
  6
CONTINUOUS
100
AcDbCircle
 10
-1.63443371831026
 20
-2.61648660036565
 30
0.0
 40
0.02
100
AcDbArc
 50
166.4999999999991
 51
235.1671613275919
  0
LINE
  5
B0F
330
8AE
100
AcDbEntity
  8
LAYER1
  6
CONTINUOUS
100
AcDbLine
 10
-1.653881116718214
 20
-2.611817693088532
 30
0.0
 11
-1.65026513758567
 21
-2.596756056174441
 31
0.0
  0
ARC
  5
B10
330
8AE
100
AcDbEntity
  8
LAYER1
  6
CONTINUOUS
100
AcDbCircle
 10
-1.665823056319182
 20
-2.593020930364491
 30
0.0
 40
0.0160000000000008
100
AcDbArc
 50
346.4999999999984
 51
44.99999999999944
  0
LINE
  5
B11
330
8AE
100
AcDbEntity
  8
LAYER1
  6
CONTINUOUS
100
AcDbLine
 10
-1.654509347779955
 20
-2.581707221805114
 30
0.0
 11
-1.684783442956967
 21
-2.551433126733185
 31
0.0
  0
ARC
  5
B12
330
8AE
100
AcDbEntity
  8
LAYER1
  6
CONTINUOUS
100
AcDbCircle
 10
0.0
 20
0.0
 30
0.0
 40
3.057499999976028
100
AcDbArc
 50
236.2499999999999
 51
236.5620889955912
  0
ARC
  5
B13
330
8AE
100
AcDbEntity
  8
LAYER1
  6
CONTINUOUS
100
AcDbCircle
 10
0.0
 20
0.0
 30
0.0
 40
3.057499999976028
100
AcDbArc
 50
243.4379110044086
 51
243.7499999999999
  0
LINE
  5
B14
330
8AE
100
AcDbEntity
  8
LAYER1
  6
CONTINUOUS
100
AcDbLine
 10
-1.041004573210285
 20
-2.884254295232514
 30
0.0
 11
-0.9985568173187713
 21
-2.889842648387558
 31
0.0
  0
ARC
  5
B15
330
8AE
100
AcDbEntity
  8
LAYER1
  6
CONTINUOUS
100
AcDbCircle
 10
-1.043092992309219
 20
-2.900117413083186
 30
0.0
 40
0.0160000000000008
100
AcDbArc
 50
82.49999999999967
 51
140.9999999999995
  0
ARC
  5
B16
330
8AE
100
AcDbEntity
  8
LAYER1
  6
CONTINUOUS
100
AcDbCircle
 10
0.0
 20
0.0
 30
0.0
 40
3.105000000001785
100
AcDbArc
 50
245.4900319482758
 51
249.5099680517238
  0
LINE
  5
B17
330
8AE
100
AcDbEntity
  8
LAYER1
  6
CONTINUOUS
100
AcDbLine
 10
-1.06527525901962
 20
-2.902085979547826
 30
0.0
 11
-1.055527327687565
 21
-2.890048286813567
 31
0.0
  0
ARC
  5
B18
330
8AE
100
AcDbEntity
  8
LAYER1
  6
CONTINUOUS
100
AcDbCircle
 10
-1.08081817824876
 20
-2.88949957172683
 30
0.0
 40
0.02
100
AcDbArc
 50
252.3328386724072
 51
321.0
  0
ARC
  5
B19
330
8AE
100
AcDbEntity
  8
LAYER1
  6
CONTINUOUS
100
AcDbCircle
 10
-1.278930878334282
 20
-2.807438604473053
 30
0.0
 40
0.02
100
AcDbArc
 50
173.9999999999989
 51
242.6671613275922
  0
LINE
  5
B1A
330
8AE
100
AcDbEntity
  8
LAYER1
  6
CONTINUOUS
100
AcDbLine
 10
-1.298821316241647
 20
-2.8053480352077
 30
0.0
 11
-1.297202210426849
 21
-2.789943272698028
 31
0.0
  0
ARC
  5
B1B
330
8AE
100
AcDbEntity
  8
LAYER1
  6
CONTINUOUS
100
AcDbCircle
 10
-1.313114560758297
 20
-2.788270817298323
 30
0.0
 40
0.0160000000000008
100
AcDbArc
 50
353.9999999999995
 51
52.5000000000009
  0
LINE
  5
B1C
330
8AE
100
AcDbEntity
  8
LAYER1
  6
CONTINUOUS
100
AcDbLine
 10
-1.303374377862141
 20
-2.775577163788535
 30
0.0
 11
-1.337341036310779
 21
-2.749513630163091
 31
0.0
  0
ARC
  5
B1D
330
8AE
100
AcDbEntity
  8
LAYER1
  6
CONTINUOUS
100
AcDbCircle
 10
0.0
 20
0.0
 30
0.0
 40
3.057499999976028
100
AcDbArc
 50
243.7499999999999
 51
244.0620889955913
  0
ARC
  5
B1E
330
8AE
100
AcDbEntity
  8
LAYER1
  6
CONTINUOUS
100
AcDbCircle
 10
0.0
 20
0.0
 30
0.0
 40
3.057499999976028
100
AcDbArc
 50
250.9379110044086
 51
251.2499999999999
  0
LINE
  5
B1F
330
8AE
100
AcDbEntity
  8
LAYER1
  6
CONTINUOUS
100
AcDbLine
 10
-0.6556279042249454
 20
-2.995457462928416
 30
0.0
 11
-0.6128138683113457
 21
-2.995457463002721
 31
0.0
  0
ARC
  5
B20
330
8AE
100
AcDbEntity
  8
LAYER1
  6
CONTINUOUS
100
AcDbCircle
 10
-0.655627904239193
 20
-3.011457462999575
 30
0.0
 40
0.0160000000000008
100
AcDbArc
 50
89.9999999999992
 51
148.4999999999999
  0
ARC
  5
B21
330
8AE
100
AcDbEntity
  8
LAYER1
  6
CONTINUOUS
100
AcDbCircle
 10
0.0
 20
0.0
 30
0.0
 40
3.105000000001785
100
AcDbArc
 50
252.9900319482759
 51
257.0099680517239
  0
LINE
  5
B22
330
8AE
100
AcDbEntity
  8
LAYER1
  6
CONTINUOUS
100
AcDbLine
 10
-0.6773634490980819
 20
-3.016304554913734
 30
0.0
 11
-0.6692701468656088
 21
-3.00309748595076
 31
0.0
  0
ARC
  5
B23
330
8AE
100
AcDbEntity
  8
LAYER1
  6
CONTINUOUS
100
AcDbCircle
 10
-0.6944162523851634
 20
-3.005854583619414
 30
0.0
 40
0.02
100
AcDbArc
 50
259.8328386724075
 51
328.4999999999995
  0
ARC
  5
B24
330
8AE
100
AcDbEntity
  8
LAYER1
  6
CONTINUOUS
100
AcDbCircle
 10
-0.9015451764433751
 20
-2.950354555688889
 30
0.0
 40
0.02
100
AcDbArc
 50
181.5000000000008
 51
250.1671613275919
  0
LINE
  5
B25
330
8AE
100
AcDbEntity
  8
LAYER1
  6
CONTINUOUS
100
AcDbLine
 10
-0.9215383229428862
 20
-2.950878094655047
 30
0.0
 11
-0.921943793795226
 21
-2.935393786307342
 31
0.0
  0
ARC
  5
B26
330
8AE
100
AcDbEntity
  8
LAYER1
  6
CONTINUOUS
100
AcDbCircle
 10
-0.9379383109987006
 20
-2.935812617493462
 30
0.0
 40
0.0160000000000008
100
AcDbArc
 50
1.499999999999485
 51
59.99999999999952
  0
LINE
  5
B27
330
8AE
100
AcDbEntity
  8
LAYER1
  6
CONTINUOUS
100
AcDbLine
 10
-0.9299383109754598
 20
-2.921956210964162
 30
0.0
 11
-0.9670163537523288
 21
-2.900549193071712
 31
0.0
  0
ARC
  5
B28
330
8AE
100
AcDbEntity
  8
LAYER1
  6
CONTINUOUS
100
AcDbCircle
 10
0.0
 20
0.0
 30
0.0
 40
3.057499999976028
100
AcDbArc
 50
251.2499999999999
 51
251.5620889955912
  0
ARC
  5
B29
330
8AE
100
AcDbEntity
  8
LAYER1
  6
CONTINUOUS
100
AcDbCircle
 10
0.0
 20
0.0
 30
0.0
 40
3.057499999976028
100
AcDbArc
 50
258.4379110044085
 51
258.7499999999998
  0
LINE
  5
B2A
330
8AE
100
AcDbEntity
  8
LAYER1
  6
CONTINUOUS
100
AcDbLine
 10
-0.2590332600239209
 20
-3.055407522935904
 30
0.0
 11
-0.2165855041130099
 21
-3.049819169928198
 31
0.0
  0
ARC
  5
B2B
330
8AE
100
AcDbEntity
  8
LAYER1
  6
CONTINUOUS
100
AcDbCircle
 10
-0.2569448409532377
 20
-3.071270640790295
 30
0.0
 40
0.0160000000000008
100
AcDbArc
 50
97.49999999999895
 51
156.0000000000009
  0
ARC
  5
B2C
330
8AE
100
AcDbEntity
  8
LAYER1
  6
CONTINUOUS
100
AcDbCircle
 10
0.0
 20
0.0
 30
0.0
 40
3.105000000001785
100
AcDbArc
 50
260.4900319482758
 51
264.5099680517238
  0
LINE
  5
B2D
330
8AE
100
AcDbEntity
  8
LAYER1
  6
CONTINUOUS
100
AcDbLine
 10
-0.2778617627618472
 20
-3.078913323067453
 30
0.0
 11
-0.2715615682740412
 21
-3.064762854487412
 31
0.0
  0
ARC
  5
B2E
330
8AE
100
AcDbEntity
  8
LAYER1
  6
CONTINUOUS
100
AcDbCircle
 10
-0.2961326719146989
 20
-3.070778590205936
 30
0.0
 40
0.02
100
AcDbArc
 50
267.3328386724077
 51
335.9999999999986
  0
ARC
  5
B2F
330
8AE
100
AcDbEntity
  8
LAYER1
  6
CONTINUOUS
100
AcDbCircle
 10
-0.508733786627977
 20
-3.042789122464069
 30
0.0
 40
0.02
100
AcDbArc
 50
189.0000000000002
 51
257.6671613275922
  0
LINE
  5
B30
330
8AE
100
AcDbEntity
  8
LAYER1
  6
CONTINUOUS
100
AcDbLine
 10
-0.5284875534398797
 20
-3.045917811764874
 30
0.0
 11
-0.5309106632406561
 21
-3.030618898388026
 31
0.0
  0
ARC
  5
B31
330
8AE
100
AcDbEntity
  8
LAYER1
  6
CONTINUOUS
100
AcDbCircle
 10
-0.5467136766922885
 20
-3.033121849842257
 30
0.0
 40
0.0160000000000008
100
AcDbArc
 50
9.000000000000064
 51
67.50000000000055
  0
LINE
  5
B32
330
8AE
100
AcDbEntity
  8
LAYER1
  6
CONTINUOUS
100
AcDbLine
 10
-0.5405907417603787
 20
-3.018339777250881
 30
0.0
 11
-0.5801457532735919
 21
-3.001955555102711
 31
0.0
  0
ARC
  5
B33
330
8AE
100
AcDbEntity
  8
LAYER1
  6
CONTINUOUS
100
AcDbCircle
 10
0.0
 20
0.0
 30
0.0
 40
3.057499999976028
100
AcDbArc
 50
258.7499999999999
 51
259.0620889955912
  0
ARC
  5
B34
330
8AE
100
AcDbEntity
  8
LAYER1
  6
CONTINUOUS
100
AcDbCircle
 10
0.0
 20
0.0
 30
0.0
 40
3.057499999976028
100
AcDbArc
 50
265.9379110044085
 51
266.2499999999999
  0
ENDSEC
  0
SECTION
  2
OBJECTS
  0
DICTIONARY
  5
89E
330
0
100
AcDbDictionary
  3
ACAD_DETAILVIEWSTYLE
350
90C
  3
ACAD_GROUP
350
89F
  3
ACAD_IMAGE_VARS
350
903
  3
ACAD_MLINESTYLE
350
8A8
  3
ACAD_SCALELIST
350
8C2
  3
ACAD_SECTIONVIEWSTYLE
350
90D
  3
ACDBVARIABLEDICTIONARY
350
907
  3
APPDATA
350
901
  3
DWGPROPS
350
B35
  0
DICTIONARY
  5
913
330
894
100
AcDbDictionary
280
     1
  3
ACAD_LAYERSTATES
360
914
  3
ACLYDICTIONARY
360
923
  0
DICTIONARY
  5
90C
102
{ACAD_REACTORS
330
89E
102
}
330
89E
100
AcDbDictionary
  0
DICTIONARY
  5
89F
102
{ACAD_REACTORS
330
89E
102
}
330
89E
100
AcDbDictionary
  0
RASTERVARIABLES
  5
903
102
{ACAD_REACTORS
330
89E
102
}
330
89E
100
AcDbRasterVariables
 90
        0
 70
     1
 71
     1
 72
     0
  0
DICTIONARY
  5
8A8
102
{ACAD_REACTORS
330
89E
102
}
330
89E
100
AcDbDictionary
  3
STANDARD
350
8A9
  0
DICTIONARY
  5
8C2
102
{ACAD_REACTORS
330
89E
102
}
330
89E
100
AcDbDictionary
  0
DICTIONARY
  5
90D
102
{ACAD_REACTORS
330
89E
102
}
330
89E
100
AcDbDictionary
  0
DICTIONARY
  5
907
102
{ACAD_REACTORS
330
89E
102
}
330
89E
100
AcDbDictionary
  0
DICTIONARY
  5
901
102
{ACAD_REACTORS
330
89E
102
}
330
89E
100
AcDbDictionary
  0
XRECORD
  5
B35
102
{ACAD_REACTORS
330
89E
102
}
330
89E
100
AcDbXrecord
  1
DWGPROPS COOKIE
  2

  3

  4

  6

  7

  8
NickC
  9

300
=
301
=
302
=
303
=
304
=
305
=
306
=
307
=
308
=
309
=
 40
0.0
 41
2458486.777413692
 42
2458554.915322639
  1

 90
        0
  0
DICTIONARY
  5
914
102
{ACAD_REACTORS
330
913
102
}
330
913
100
AcDbDictionary
  0
DICTIONARY
  5
923
102
{ACAD_REACTORS
330
913
102
}
330
913
100
AcDbDictionary
1001
ACAD
1000
<All
  0
MLINESTYLE
  5
8A9
102
{ACAD_REACTORS
330
8A8
102
}
330
8A8
100
AcDbMlineStyle
  2
Standard
 70
     0
  3

 62
   256
 51
90.0
 52
90.0
 71
     2
 49
0.5
 62
   256
  6
BYLAYER
 49
-0.5
 62
   256
  6
BYLAYER
  0
ENDSEC
  0
EOF
